<svg xmlns="http://www.w3.org/2000/svg" xmlns:svg="http://www.w3.org/2000/svg" width="86.920288" height="86.920288" viewBox="0 0 22.997659 22.99766" version="1.1" id="svg5" xml:space="preserve"><defs id="defs2"><style id="style608">.cls-1{fill-opacity:0.8;fill:url(#linear-gradient);}.cls-2{fill:#61cbed;}.cls-3{fill:#0fafd2;}.cls-4{fill-opacity:0.9;fill:url(#linear-gradient-2);}.cls-5{fill:#04859b;opacity:0.5;}.cls-6{fill:none;stroke:#8e281d;stroke-miterlimit:10;stroke-width:12px;}.cls-7{fill:#f18221;}.cls-8{fill:#d25927;}.cls-9{fill:url(#linear-gradient-3);}.cls-10{fill:#fff;}.cls-11{fill:#414042;}</style><style id="style36590">.cls-1{fill:url(#linear-gradient);}.cls-2{fill:#f7941d;}.cls-3{fill:#ecf7fe;}.cls-4{fill:#f3b71c;}.cls-5{fill:#c7eaf7;}.cls-6{fill:#6eb8cc;}.cls-7{fill:#009444;}.cls-8{fill:#39b54a;}.cls-10,.cls-9{fill:#f47e20;}.cls-9{stroke:#f47e20;stroke-miterlimit:10;}.cls-11{fill:none;stroke:#f3b71c;stroke-linejoin:bevel;stroke-width:3px;}</style><style id="style608-1">.cls-1{fill-opacity:0.8;fill:url(#linear-gradient);}.cls-2{fill:#61cbed;}.cls-3{fill:#0fafd2;}.cls-4{fill-opacity:0.9;fill:url(#linear-gradient-2);}.cls-5{fill:#04859b;opacity:0.5;}.cls-6{fill:none;stroke:#8e281d;stroke-miterlimit:10;stroke-width:12px;}.cls-7{fill:#f18221;}.cls-8{fill:#d25927;}.cls-9{fill:url(#linear-gradient-3);}.cls-10{fill:#fff;}.cls-11{fill:#414042;}</style><style id="style36590-3">.cls-1{fill:url(#linear-gradient);}.cls-2{fill:#f7941d;}.cls-3{fill:#ecf7fe;}.cls-4{fill:#f3b71c;}.cls-5{fill:#c7eaf7;}.cls-6{fill:#6eb8cc;}.cls-7{fill:#009444;}.cls-8{fill:#39b54a;}.cls-10,.cls-9{fill:#f47e20;}.cls-9{stroke:#f47e20;stroke-miterlimit:10;}.cls-11{fill:none;stroke:#f3b71c;stroke-linejoin:bevel;stroke-width:3px;}</style></defs><g id="layer1" transform="translate(-317.67405,-247.56702)"><rect style="fill:#72c6f3;fill-opacity:1;stroke:none;stroke-width:0.63034;stroke-opacity:1" id="rect81735" width="22.367331" height="22.367331" x="317.98923" y="247.88219" ry="2.2823808"/><rect style="fill:none;fill-opacity:1;stroke:#2c0932;stroke-width:0.63034;stroke-opacity:1" id="rect81737" width="22.367331" height="22.367331" x="317.98923" y="247.88219" ry="2.2823808"/><path id="path82934" style="color:#000000;fill:none;stroke:#8076aa;stroke-width:2.38138;stroke-linejoin:round;stroke-dasharray:none;stroke-opacity:1" d="m 334.50947,261.76556 a 0.53938027,0.49617478 29.999998 0 0 0.3251,0.0525 l 3.60956,-0.5133 a 0.16923293,0.15567702 29.999998 0 0 0.0419,-0.29211 l -1.90451,-1.09957 c 0.54403,-1.68106 0.29902,-3.58206 -0.71759,-5.20726 -1.24453,-1.98959 -3.45992,-3.26864 -5.80523,-3.35165 -2.17875,-0.0771 -4.16819,0.88766 -5.32229,2.55361 -0.14679,0.21198 -0.0529,0.50776 0.18976,0.64787 l 0.64952,0.375 c 0.19894,0.11486 0.44423,0.0582 0.56587,-0.11474 0.86907,-1.23519 2.34967,-1.94696 3.97519,-1.88943 1.76215,0.0624 3.4214,1.02033 4.3565,2.51523 0.70521,1.1274 0.91635,2.42795 0.62293,3.61381 l -1.99624,-1.15253 a 0.16923226,0.15567641 29.999998 0 0 -0.23199,0.18239 l 1.36066,3.38286 a 0.53938027,0.49617478 29.999998 0 0 0.28081,0.29733 z"/><path id="path82928" style="color:#000000;fill:none;stroke:#cecece;stroke-width:0.881552;stroke-linejoin:round;stroke-opacity:1" d="m 334.50947,261.76556 a 0.53938027,0.49617478 29.999998 0 0 0.3251,0.0525 l 3.60956,-0.5133 a 0.16923293,0.15567702 29.999998 0 0 0.0419,-0.29211 l -1.90451,-1.09957 c 0.54403,-1.68106 0.29902,-3.58206 -0.71759,-5.20726 -1.24453,-1.98959 -3.45992,-3.26864 -5.80523,-3.35165 -2.17875,-0.0771 -4.16819,0.88766 -5.32229,2.55361 -0.14679,0.21198 -0.0529,0.50776 0.18976,0.64787 l 0.64952,0.375 c 0.19894,0.11486 0.44423,0.0582 0.56587,-0.11474 0.86907,-1.23519 2.34967,-1.94696 3.97519,-1.88943 1.76215,0.0624 3.4214,1.02033 4.3565,2.51523 0.70521,1.1274 0.91635,2.42795 0.62293,3.61381 l -1.99624,-1.15253 a 0.16923226,0.15567641 29.999998 0 0 -0.23199,0.18239 l 1.36066,3.38286 a 0.53938027,0.49617478 29.999998 0 0 0.28081,0.29733 z"/><g id="g82939" transform="matrix(0.84724232,0.48915554,-0.48915554,0.84724232,197.4111,36.543645)"><path id="path82932" style="color:#000000;fill:none;stroke:#8076aa;stroke-width:2.43575;stroke-linejoin:round;stroke-dasharray:none;stroke-opacity:1" d="m 224.74622,130.02858 a 0.55133816,0.50717482 0 0 0 -0.3146,0.11969 l -2.93295,2.29918 a 0.17298477,0.15912833 0 0 0 0.11216,0.28003 h 2.24789 c 0.37758,1.76615 1.56604,3.32375 3.29658,4.24284 2.11855,1.12517 4.73337,1.12517 6.85193,0 1.96808,-1.04526 3.23611,-2.91608 3.4063,-4.98066 0.0216,-0.26267 -0.21267,-0.47653 -0.4991,-0.47653 h -0.76662 c -0.23482,0 -0.42296,0.17557 -0.44229,0.39078 -0.13803,1.53759 -1.08492,2.92438 -2.55327,3.70423 -1.59178,0.84541 -3.55019,0.84541 -5.14198,0 -1.20047,-0.63757 -2.05206,-1.68095 -2.3984,-2.88066 h 2.35616 a 0.17298409,0.15912771 0 0 0 0.11215,-0.28003 l -2.93342,-2.29918 a 0.55133816,0.50717482 0 0 0 -0.40054,-0.11969 z"/><path id="path82930" style="color:#000000;fill:none;stroke:#cecece;stroke-width:0.901096;stroke-linejoin:round;stroke-opacity:1" d="m 224.74622,130.02858 a 0.55133816,0.50717482 0 0 0 -0.3146,0.11969 l -2.93295,2.29918 a 0.17298477,0.15912833 0 0 0 0.11216,0.28003 h 2.24789 c 0.37758,1.76615 1.56604,3.32375 3.29658,4.24284 2.11855,1.12517 4.73337,1.12517 6.85193,0 1.96808,-1.04526 3.23611,-2.91608 3.4063,-4.98066 0.0216,-0.26267 -0.21267,-0.47653 -0.4991,-0.47653 h -0.76662 c -0.23482,0 -0.42296,0.17557 -0.44229,0.39078 -0.13803,1.53759 -1.08492,2.92438 -2.55327,3.70423 -1.59178,0.84541 -3.55019,0.84541 -5.14198,0 -1.20047,-0.63757 -2.05206,-1.68095 -2.3984,-2.88066 h 2.35616 a 0.17298409,0.15912771 0 0 0 0.11215,-0.28003 l -2.93342,-2.29918 a 0.55133816,0.50717482 0 0 0 -0.40054,-0.11969 z"/><path id="path81859" style="color:#000000;fill:#ffffff;fill-opacity:1;stroke-width:0.901096;stroke-linejoin:round" d="m 224.74622,130.02858 a 0.55133816,0.50717482 0 0 0 -0.3146,0.11969 l -2.93295,2.29918 a 0.17298477,0.15912833 0 0 0 0.11216,0.28003 h 2.24789 c 0.37758,1.76615 1.56604,3.32375 3.29658,4.24284 2.11855,1.12517 4.73337,1.12517 6.85193,0 1.96808,-1.04526 3.23611,-2.91608 3.4063,-4.98066 0.0216,-0.26267 -0.21267,-0.47653 -0.4991,-0.47653 h -0.76662 c -0.23482,0 -0.42296,0.17557 -0.44229,0.39078 -0.13803,1.53759 -1.08492,2.92438 -2.55327,3.70423 -1.59178,0.84541 -3.55019,0.84541 -5.14198,0 -1.20047,-0.63757 -2.05206,-1.68095 -2.3984,-2.88066 h 2.35616 a 0.17298409,0.15912771 0 0 0 0.11215,-0.28003 l -2.93342,-2.29918 a 0.55133816,0.50717482 0 0 0 -0.40054,-0.11969 z"/></g><path id="path82926" style="color:#000000;fill:#ffffff;fill-opacity:1;stroke-width:0.881552;stroke-linejoin:round" d="m 334.50947,261.76556 a 0.53938027,0.49617478 29.999998 0 0 0.3251,0.0525 l 3.60956,-0.5133 a 0.16923293,0.15567702 29.999998 0 0 0.0419,-0.29211 l -1.90451,-1.09957 c 0.54403,-1.68106 0.29902,-3.58206 -0.71759,-5.20726 -1.24453,-1.98959 -3.45992,-3.26864 -5.80523,-3.35165 -2.17875,-0.0771 -4.16819,0.88766 -5.32229,2.55361 -0.14679,0.21198 -0.0529,0.50776 0.18976,0.64787 l 0.64952,0.375 c 0.19894,0.11486 0.44423,0.0582 0.56587,-0.11474 0.86907,-1.23519 2.34967,-1.94696 3.97519,-1.88943 1.76215,0.0624 3.4214,1.02033 4.3565,2.51523 0.70521,1.1274 0.91635,2.42795 0.62293,3.61381 l -1.99624,-1.15253 a 0.16923226,0.15567641 29.999998 0 0 -0.23199,0.18239 l 1.36066,3.38286 a 0.53938027,0.49617478 29.999998 0 0 0.28081,0.29733 z"/></g></svg>