<svg xmlns="http://www.w3.org/2000/svg" xmlns:svg="http://www.w3.org/2000/svg" width="87.606201" height="87.60614" viewBox="0 0 23.17914 23.179125" version="1.1" id="svg5" xml:space="preserve"><defs id="defs2"><style id="style608">.cls-1{fill-opacity:0.8;fill:url(#linear-gradient);}.cls-2{fill:#61cbed;}.cls-3{fill:#0fafd2;}.cls-4{fill-opacity:0.9;fill:url(#linear-gradient-2);}.cls-5{fill:#04859b;opacity:0.5;}.cls-6{fill:none;stroke:#8e281d;stroke-miterlimit:10;stroke-width:12px;}.cls-7{fill:#f18221;}.cls-8{fill:#d25927;}.cls-9{fill:url(#linear-gradient-3);}.cls-10{fill:#fff;}.cls-11{fill:#414042;}</style><style id="style36590">.cls-1{fill:url(#linear-gradient);}.cls-2{fill:#f7941d;}.cls-3{fill:#ecf7fe;}.cls-4{fill:#f3b71c;}.cls-5{fill:#c7eaf7;}.cls-6{fill:#6eb8cc;}.cls-7{fill:#009444;}.cls-8{fill:#39b54a;}.cls-10,.cls-9{fill:#f47e20;}.cls-9{stroke:#f47e20;stroke-miterlimit:10;}.cls-11{fill:none;stroke:#f3b71c;stroke-linejoin:bevel;stroke-width:3px;}</style><style id="style608-1">.cls-1{fill-opacity:0.8;fill:url(#linear-gradient);}.cls-2{fill:#61cbed;}.cls-3{fill:#0fafd2;}.cls-4{fill-opacity:0.9;fill:url(#linear-gradient-2);}.cls-5{fill:#04859b;opacity:0.5;}.cls-6{fill:none;stroke:#8e281d;stroke-miterlimit:10;stroke-width:12px;}.cls-7{fill:#f18221;}.cls-8{fill:#d25927;}.cls-9{fill:url(#linear-gradient-3);}.cls-10{fill:#fff;}.cls-11{fill:#414042;}</style><style id="style36590-3">.cls-1{fill:url(#linear-gradient);}.cls-2{fill:#f7941d;}.cls-3{fill:#ecf7fe;}.cls-4{fill:#f3b71c;}.cls-5{fill:#c7eaf7;}.cls-6{fill:#6eb8cc;}.cls-7{fill:#009444;}.cls-8{fill:#39b54a;}.cls-10,.cls-9{fill:#f47e20;}.cls-9{stroke:#f47e20;stroke-miterlimit:10;}.cls-11{fill:none;stroke:#f3b71c;stroke-linejoin:bevel;stroke-width:3px;}</style></defs><g id="layer1" transform="translate(-365.87489,-166.50481)"><rect style="fill:#dddddd;fill-opacity:1;stroke:none;stroke-width:0.635314;stroke-opacity:1" id="rect48617" width="22.543812" height="22.543812" x="366.19257" y="166.82246" ry="2.3003888"/><rect style="fill:none;fill-opacity:1;stroke:#2c0932;stroke-width:0.635314;stroke-opacity:1" id="rect48619" width="22.543812" height="22.543812" x="366.19257" y="166.82246" ry="2.3003888"/><g id="g48651" transform="matrix(1.7226615,0,0,1.7226615,-36.450703,-44.652766)"><path id="path48621" style="fill:none;fill-opacity:0.981579;stroke:#393a4c;stroke-width:1.4187;stroke-dasharray:none;stroke-opacity:0.984314" d="m 238.31577,126.72833 h 4.6394 c 0.36931,0 0.69491,0.2984 0.66663,0.66663 l -0.46151,6.00961 c -0.0283,0.36824 -0.29732,0.66663 -0.66663,0.66663 h -3.71638 c -0.36931,0 -0.63835,-0.29839 -0.66663,-0.66663 l -0.46151,-6.00961 c -0.0283,-0.36823 0.29732,-0.66663 0.66663,-0.66663 z"/><path id="path48623" style="fill:#7e809e;fill-opacity:0.981579;stroke-width:1.04828" d="m 238.31577,126.72833 h 4.6394 c 0.36931,0 0.69491,0.2984 0.66663,0.66663 l -0.46151,6.00961 c -0.0283,0.36824 -0.29732,0.66663 -0.66663,0.66663 h -3.71638 c -0.36931,0 -0.63835,-0.29839 -0.66663,-0.66663 l -0.46151,-6.00961 c -0.0283,-0.36823 0.29732,-0.66663 0.66663,-0.66663 z"/><path style="fill:#9395ad;fill-opacity:0.805263;stroke:none;stroke-width:0.360362;stroke-linecap:butt;stroke-dasharray:none;stroke-opacity:0.992157" d="m 237.80388,128.92153 c 1.5581,0.53876 2.9738,1.29112 5.71762,0.0513 l -0.17948,3.33314 c -1.8142,-1.03495 -3.58714,-0.99734 -5.33303,-0.25639 z" id="path48625"/><path style="color:#000000;fill:#696b88;fill-opacity:1" d="m 239.03927,126.56187 -0.62305,0.0527 0.64042,7.66469 0.62305,-0.0508 z" id="path48627"/><path style="color:#000000;fill:#696b88;fill-opacity:1" d="m 242.26158,126.56187 0.62305,0.0527 -0.64042,7.66469 -0.62305,-0.0508 z" id="path48629"/><path style="fill:none;fill-opacity:0.981579;stroke:#696b88;stroke-width:0.619716;stroke-linecap:butt;stroke-dasharray:none;stroke-opacity:0.992157" d="m 240.67551,134.22892 v -7.56367" id="path48631"/><path id="path48633" style="fill:none;fill-opacity:0.981579;stroke:#5d5f7b;stroke-width:0.624946;stroke-dasharray:none;stroke-opacity:0.984314" d="m 238.31577,126.72833 h 4.6394 c 0.36931,0 0.69491,0.2984 0.66663,0.66663 l -0.46151,6.00961 c -0.0283,0.36824 -0.29732,0.66663 -0.66663,0.66663 h -3.71638 c -0.36931,0 -0.63835,-0.29839 -0.66663,-0.66663 l -0.46151,-6.00961 c -0.0283,-0.36823 0.29732,-0.66663 0.66663,-0.66663 z"/><path id="path48635" style="fill:none;fill-opacity:0.981579;stroke:#696b88;stroke-width:0.148696;stroke-dasharray:none;stroke-opacity:1" d="m 238.31577,126.72833 h 4.6394 c 0.36931,0 0.69491,0.2984 0.66663,0.66663 l -0.46151,6.00961 c -0.0283,0.36824 -0.29732,0.66663 -0.66663,0.66663 h -3.71638 c -0.36931,0 -0.63835,-0.29839 -0.66663,-0.66663 l -0.46151,-6.00961 c -0.0283,-0.36823 0.29732,-0.66663 0.66663,-0.66663 z"/><g id="g48649" transform="rotate(-19.969467,239.62511,130.96825)"><path id="path48637" style="fill:none;fill-opacity:0.984314;stroke:#393a4c;stroke-width:0.973611;stroke-linecap:butt;stroke-dasharray:none;stroke-opacity:0.984314" d="m 239.75332,124.33833 c -0.13968,0 -0.25241,0.10741 -0.25241,0.2405 v 0.28005 h -1.7859 c -0.13969,0 -0.2524,0.10741 -0.2524,0.2405 v 0.78081 c 0,0.13309 0.11271,0.24009 0.2524,0.24009 h 5.84134 c 0.13969,0 0.25198,-0.107 0.25198,-0.24009 v -0.78081 c 0,-0.13309 -0.11229,-0.2405 -0.25198,-0.2405 h -1.7859 v -0.28005 c 0,-0.13309 -0.11271,-0.2405 -0.25241,-0.2405 z"/><path id="path48639" style="fill:#7e809d;fill-opacity:0.984314;stroke:none;stroke-width:1.08079;stroke-linecap:butt;stroke-dasharray:none;stroke-opacity:0.984314" d="m 239.75332,124.33833 c -0.13968,0 -0.25241,0.10741 -0.25241,0.2405 v 0.28005 h -1.7859 c -0.13969,0 -0.2524,0.10741 -0.2524,0.2405 v 0.78081 c 0,0.13309 0.11271,0.24009 0.2524,0.24009 h 5.84134 c 0.13969,0 0.25198,-0.107 0.25198,-0.24009 v -0.78081 c 0,-0.13309 -0.11229,-0.2405 -0.25198,-0.2405 h -1.7859 v -0.28005 c 0,-0.13309 -0.11271,-0.2405 -0.25241,-0.2405 z"/><path id="path48641" style="fill:#8f91aa;fill-opacity:0.996078;stroke-width:1.57845;stroke-opacity:0.984314" d="m 239.54738,124.41168 h 2.23064 v 0.47438 c -0.74355,-0.11837 -1.48709,-0.13778 -2.23064,0 z"/><path id="path48643" style="fill:#8f91aa;fill-opacity:0.996078;stroke-width:2.16319;stroke-opacity:0.984314" d="m 237.52776,125.07115 h 6.42104 v 0.54267 h -6.42104 z"/><path id="path48645" style="fill:none;fill-opacity:0.984314;stroke:#5d5f7b;stroke-width:0.444478;stroke-linecap:butt;stroke-dasharray:none;stroke-opacity:1" d="m 239.75332,124.33833 c -0.13968,0 -0.25241,0.10741 -0.25241,0.2405 v 0.28005 h -1.7859 c -0.13969,0 -0.2524,0.10741 -0.2524,0.2405 v 0.78081 c 0,0.13309 0.11271,0.24009 0.2524,0.24009 h 5.84134 c 0.13969,0 0.25198,-0.107 0.25198,-0.24009 v -0.78081 c 0,-0.13309 -0.11229,-0.2405 -0.25198,-0.2405 h -1.7859 v -0.28005 c 0,-0.13309 -0.11271,-0.2405 -0.25241,-0.2405 z"/><path id="path48647" style="fill:none;fill-opacity:0.984314;stroke:#696b88;stroke-width:0.105828;stroke-linecap:butt;stroke-dasharray:none;stroke-opacity:1" d="m 239.75332,124.33833 c -0.13968,0 -0.25241,0.10741 -0.25241,0.2405 v 0.28005 h -1.7859 c -0.13969,0 -0.2524,0.10741 -0.2524,0.2405 v 0.78081 c 0,0.13309 0.11271,0.24009 0.2524,0.24009 h 5.84134 c 0.13969,0 0.25198,-0.107 0.25198,-0.24009 v -0.78081 c 0,-0.13309 -0.11229,-0.2405 -0.25198,-0.2405 h -1.7859 v -0.28005 c 0,-0.13309 -0.11271,-0.2405 -0.25241,-0.2405 z"/></g></g></g></svg>