<svg xmlns="http://www.w3.org/2000/svg" xmlns:svg="http://www.w3.org/2000/svg" width="86.923706" height="86.923737" viewBox="0 0 22.998563 22.998572" version="1.1" id="svg5" xml:space="preserve"><defs id="defs2"><style id="style608">.cls-1{fill-opacity:0.8;fill:url(#linear-gradient);}.cls-2{fill:#61cbed;}.cls-3{fill:#0fafd2;}.cls-4{fill-opacity:0.9;fill:url(#linear-gradient-2);}.cls-5{fill:#04859b;opacity:0.5;}.cls-6{fill:none;stroke:#8e281d;stroke-miterlimit:10;stroke-width:12px;}.cls-7{fill:#f18221;}.cls-8{fill:#d25927;}.cls-9{fill:url(#linear-gradient-3);}.cls-10{fill:#fff;}.cls-11{fill:#414042;}</style><style id="style36590">.cls-1{fill:url(#linear-gradient);}.cls-2{fill:#f7941d;}.cls-3{fill:#ecf7fe;}.cls-4{fill:#f3b71c;}.cls-5{fill:#c7eaf7;}.cls-6{fill:#6eb8cc;}.cls-7{fill:#009444;}.cls-8{fill:#39b54a;}.cls-10,.cls-9{fill:#f47e20;}.cls-9{stroke:#f47e20;stroke-miterlimit:10;}.cls-11{fill:none;stroke:#f3b71c;stroke-linejoin:bevel;stroke-width:3px;}</style><style id="style608-1">.cls-1{fill-opacity:0.8;fill:url(#linear-gradient);}.cls-2{fill:#61cbed;}.cls-3{fill:#0fafd2;}.cls-4{fill-opacity:0.9;fill:url(#linear-gradient-2);}.cls-5{fill:#04859b;opacity:0.5;}.cls-6{fill:none;stroke:#8e281d;stroke-miterlimit:10;stroke-width:12px;}.cls-7{fill:#f18221;}.cls-8{fill:#d25927;}.cls-9{fill:url(#linear-gradient-3);}.cls-10{fill:#fff;}.cls-11{fill:#414042;}</style><style id="style36590-3">.cls-1{fill:url(#linear-gradient);}.cls-2{fill:#f7941d;}.cls-3{fill:#ecf7fe;}.cls-4{fill:#f3b71c;}.cls-5{fill:#c7eaf7;}.cls-6{fill:#6eb8cc;}.cls-7{fill:#009444;}.cls-8{fill:#39b54a;}.cls-10,.cls-9{fill:#f47e20;}.cls-9{stroke:#f47e20;stroke-miterlimit:10;}.cls-11{fill:none;stroke:#f3b71c;stroke-linejoin:bevel;stroke-width:3px;}</style></defs><g id="layer1" transform="translate(-172.22232,-169.21712)"><rect style="fill:#ce1bff;fill-opacity:1;stroke:none;stroke-width:0.630363;stroke-opacity:1" id="rect23258-6" width="22.36821" height="22.36821" x="172.53749" y="169.5323" ry="2.2824705"/><rect style="fill:none;fill-opacity:1;stroke:#2c0932;stroke-width:0.630363;stroke-opacity:1" id="rect23098-0" width="22.36821" height="22.36821" x="172.53749" y="169.5323" ry="2.2824705"/><g id="g58417" transform="matrix(0.9363609,0,0,0.9363609,-5.2350537,52.569634)"><path id="path58108" style="color:#000000;fill:none;stroke:#4a230b;stroke-width:1.26471;stroke-linejoin:round;stroke-dasharray:none;stroke-opacity:1" d="m 201.52912,132.70107 -0.70694,0.15038 1.71876,8.07651 0.70694,-0.15038 z m 7.62124,0.74052 -4.67,6.80837 0.59789,0.41031 4.67,-6.81043 z m -15.00787,0.28888 -0.57413,0.43925 5.01933,6.55463 0.57465,-0.43925 z"/><path id="path58106" style="color:#000000;fill:none;stroke:#a26947;stroke-width:0.523875;stroke-linejoin:round;stroke-dasharray:none;stroke-opacity:1" d="m 201.52912,132.70107 -0.70694,0.15038 1.71876,8.07651 0.70694,-0.15038 z m 7.62124,0.74052 -4.67,6.80837 0.59789,0.41031 4.67,-6.81043 z m -15.00787,0.28888 -0.57413,0.43925 5.01933,6.55463 0.57465,-0.43925 z"/><path id="path58089-4" style="color:#000000;fill:#dbbead;fill-opacity:1;stroke-linejoin:round" d="m 201.52912,132.70107 -0.70694,0.15038 1.71876,8.07651 0.70694,-0.15038 z m 7.62124,0.74052 -4.67,6.80837 0.59789,0.41031 4.67,-6.81043 z m -15.00787,0.28888 -0.57413,0.43925 5.01933,6.55463 0.57465,-0.43925 z"/><g id="g58022" transform="matrix(0.82470066,-0.22097788,0.22097788,0.82470066,3.868721,65.491404)"><path id="path55710" style="fill:none;stroke:#4a230b;stroke-width:2.20557;stroke-linejoin:round;stroke-dasharray:none;stroke-opacity:1;stop-color:#000000;stop-opacity:1" d="m 197.20688,143.16467 v 0.71727 0.42995 0.18138 0.20464 6.11332 h -0.0424 v 0.17415 h 0.0424 v 0.62529 0.25476 h 0.94258 7.97729 0.0388 v -0.25476 -1.03198 h -0.0388 v -7.41402 h -1.13947 -6.64094 -0.19688 z"/><path id="path55129" style="fill:none;stroke:#753d1b;stroke-width:0.935567;stroke-linejoin:round;stroke-dasharray:none;stroke-opacity:1;stop-color:#000000;stop-opacity:1" d="m 197.20688,143.16467 v 0.71727 0.42995 0.18138 0.20464 6.11332 h -0.0424 v 0.17415 h 0.0424 v 0.62529 0.25476 h 0.94258 7.97729 0.0388 v -0.25476 -1.03198 h -0.0388 v -7.41402 h -1.13947 -6.64094 -0.19688 z"/><path id="rect42519" style="fill:#945528;fill-opacity:1;stroke-width:0.565193;stop-color:#000000;stop-opacity:1" d="m 197.20709,143.16466 h 8.91943 v 8.7009 h -8.91943 z"/><path id="path42521" class="UnoptimicedTransforms" transform="matrix(0.18353717,0,0,0.2072586,196.83021,141.49052)" d="M 3.0360923,24.876865 H 48.708627 V 27.4017 H 3.0360923 Z m 0,10.524835 H 48.708627 v 2.524835 H 3.0360923 Z" style="fill:#a1682c;fill-opacity:1;stroke-width:2.43277;stop-color:#000000;stop-opacity:1"/><path id="path42523" class="UnoptimicedTransforms" transform="matrix(0.18353717,0,0,0.2072586,196.83021,141.27117)" d="M 3.0360923,24.876865 H 48.708627 V 27.4017 H 3.0360923 Z m 0,10.524835 H 48.708627 v 2.524835 H 3.0360923 Z" style="fill:#643015;fill-opacity:1;stroke-width:2.43277;stop-color:#000000;stop-opacity:1"/><path id="rect42527" style="fill:#a1682c;fill-opacity:1;stroke-width:0.713333;stop-color:#000000;stop-opacity:1" d="m 204.98704,151.86556 v -8.7009 h 1.13947 v 8.7009 z"/><path id="rect42529" style="fill:#a1682c;fill-opacity:1;stroke-width:0.713331;stop-color:#000000;stop-opacity:1" d="m 197.20709,151.86556 v -8.7009 h 1.13947 v 8.7009 z"/><path style="fill:#743718;fill-opacity:1;stroke-width:0.296652;stop-color:#000000;stop-opacity:1" d="m 204.98704,143.16466 v 8.70091 h 0.19706 v -8.70091 z" id="path42531"/><path style="fill:#743718;fill-opacity:1;stroke-width:0.29665;stop-color:#000000;stop-opacity:1" d="m 198.14953,143.16466 v 8.70091 h 0.19706 v -8.70091 z" id="path42533"/><path id="rect42535" style="fill:#643015;fill-opacity:0.644105;stroke-width:0.611193;stop-color:#000000;stop-opacity:1" d="m 197.20709,143.88198 h 8.91943 v 0.81602 h -8.91943 z"/><path id="rect42539" style="fill:#a1682c;fill-opacity:1;stroke-width:0.769168;stop-color:#000000;stop-opacity:1" d="m 197.20709,150.5788 h 8.95842 v 1.28675 h -8.95842 z"/><path id="rect42559" style="fill:#d9923b;fill-opacity:1;stroke-width:0.283446;stop-color:#000000;stop-opacity:1" d="m 197.16439,150.81115 h 8.989 v 0.17415 h -8.989 z"/><path id="rect42561" style="fill:#743718;fill-opacity:1;stroke-width:0.31616;stop-color:#000000;stop-opacity:1" d="m 197.20709,150.5788 h 8.3826 v 0.23234 h -8.3826 z"/><path id="rect42563" style="fill:#743718;fill-opacity:1;stroke-width:0.105668;stop-color:#000000;stop-opacity:1" d="m 205.19013,150.5788 h 0.93638 v 0.23234 h -0.93638 z"/><path id="rect42565" style="fill:#643015;fill-opacity:1;stroke-width:0.288067;stop-color:#000000;stop-opacity:1" d="m 197.20709,144.31214 h 8.91943 v 0.18127 h -8.91943 z"/><path id="path42583" style="fill:#643015;fill-opacity:1;stroke-width:0.432685;stop-color:#000000;stop-opacity:1" d="m 197.20713,151.6109 v 0.25467 h 8.95834 v -0.25467 z"/></g><path id="path58179" style="fill:none;fill-opacity:1;stroke:#4a230b;stroke-width:1.49119;stroke-linecap:butt;stroke-linejoin:round;stroke-dasharray:none;stroke-opacity:1" d="m 201.78957,126.54331 c -1.45303,0 -2.90605,0.35027 -4.20802,1.0511 -2.60392,1.40164 -4.20801,3.99216 -4.20801,6.79545 0,0 2.41522,1.26557 8.41602,1.26557 5.74769,0 8.41603,-1.26557 8.41603,-1.26557 0,-2.80329 -1.60409,-5.39381 -4.20801,-6.79545 -1.30196,-0.70083 -2.75499,-1.0511 -4.20801,-1.0511 z"/><path id="rect56831" style="fill:#de3737;fill-opacity:1;stroke:none;stroke-width:2.20557;stroke-linecap:butt;stroke-linejoin:round;stroke-dasharray:none;stroke-opacity:1" d="m 201.78957,126.54331 c -1.45303,0 -2.90605,0.35027 -4.20802,1.0511 -2.60392,1.40164 -4.20801,3.99216 -4.20801,6.79545 0,0 2.41522,1.26557 8.41602,1.26557 5.74769,0 8.41603,-1.26557 8.41603,-1.26557 0,-2.80329 -1.60409,-5.39381 -4.20801,-6.79545 -1.30196,-0.70083 -2.75499,-1.0511 -4.20801,-1.0511 z"/><path id="path57293" style="fill:#ff8768;fill-opacity:0.547368;stroke:none;stroke-width:2.20557;stroke-linecap:butt;stroke-linejoin:round;stroke-dasharray:none;stroke-opacity:1" d="m 201.78957,126.54331 c -1.45303,0 -2.90605,0.35027 -4.20802,1.0511 -1.81041,0.97451 -3.13632,2.52429 -3.77703,4.32015 1.87741,-2.43899 2.38559,-1.21102 3.0437,0.74128 3.16482,-6.09028 9.70921,-2.12504 9.78782,-0.003 -0.44771,-1.0271 0.42351,-5.55713 3.13495,-0.74942 -0.64216,-1.79127 -1.96661,-3.33673 -3.77341,-4.30929 -1.30196,-0.70083 -2.755,-1.0511 -4.20801,-1.0511 z"/><path id="path56949-0" style="color:#000000;fill:#b71e1e;fill-opacity:1;stroke-linejoin:round" d="m 203.76567,126.76345 c 0.0616,0.0139 0.12319,0.0272 0.18449,0.0424 0.0884,0.0219 0.17675,0.0451 0.26458,0.0698 0.0878,0.0246 0.17539,0.0507 0.26252,0.078 0.0871,0.0274 0.17358,0.0562 0.25993,0.0863 0.0839,0.0293 0.16749,0.0601 0.25063,0.092 -0.006,-0.008 -0.0116,-0.0166 -0.0176,-0.0248 -0.39768,-0.14869 -0.80441,-0.26832 -1.21698,-0.35812 0.004,0.005 0.008,0.01 0.0124,0.0145 z"/><path id="path57310" style="color:#000000;fill:#b71e1e;fill-opacity:1;stroke-linejoin:round" d="m 206.47869,131.87011 c -3.2e-4,0.006 -0.001,0.0233 -0.001,0.0233 0.002,-3.7e-4 0.003,-9.7e-4 0.004,-0.002 9e-4,-0.001 0.001,-0.002 0.002,-0.004 3.1e-4,-0.004 -9.9e-4,-0.009 -0.004,-0.0155 -1.9e-4,-4.5e-4 -8.3e-4,-0.001 -0.001,-0.002 z"/><path id="path57308" style="color:#000000;fill:#b71e1e;fill-opacity:1;stroke-linejoin:round" d="m 203.76567,126.76345 c 1.25824,1.40722 1.99121,2.98264 2.34353,4.69325 0.25544,1.24024 0.31127,2.55128 0.22117,3.92121 0.25659,-0.0348 0.49968,-0.0718 0.72916,-0.11007 0.0879,-1.58943 -0.0185,-3.12656 -0.39998,-4.57647 v -5.1e-4 c -0.33157,-1.26002 -0.87139,-2.45407 -1.67173,-3.55896 -0.0831,-0.0319 -0.16669,-0.0627 -0.25063,-0.092 -0.0864,-0.0301 -0.17281,-0.0589 -0.25993,-0.0863 -0.0871,-0.0274 -0.17469,-0.0534 -0.26252,-0.078 -0.0878,-0.0246 -0.17613,-0.0479 -0.26458,-0.0698 -0.0613,-0.0152 -0.12292,-0.0285 -0.18449,-0.0424 z m 2.71302,5.10666 c 2e-4,4.8e-4 8.4e-4,10e-4 0.001,0.002 0.003,0.006 0.004,0.0119 0.004,0.0155 -1.6e-4,0.002 -6.5e-4,0.003 -0.002,0.004 -9.1e-4,0.001 -0.002,0.002 -0.004,0.002 0,0 7.2e-4,-0.0168 0.001,-0.0233 z"/><path id="path57304" style="color:#000000;fill:#b71e1e;fill-opacity:1;stroke-linejoin:round" d="m 199.87495,126.74898 c -0.0653,0.0142 -0.13034,0.0293 -0.19533,0.045 -0.0295,0.007 -0.059,0.0143 -0.0884,0.0217 -0.0568,0.0143 -0.11348,0.0295 -0.17001,0.045 -0.003,7.1e-4 -0.005,0.001 -0.008,0.002 -0.0447,0.0123 -0.0892,0.0252 -0.13384,0.0382 -0.0204,0.006 -0.0407,0.012 -0.061,0.0181 -0.0732,0.0219 -0.1464,0.0449 -0.2191,0.0687 -0.0233,0.008 -0.0466,0.0154 -0.0698,0.0233 -0.0409,0.0138 -0.0818,0.0275 -0.12247,0.0419 -0.05,0.0177 -0.0996,0.0357 -0.14935,0.0543 l -5.1e-4,5.1e-4 c -1.11731,1.53339 -1.72946,3.23938 -1.98024,5.05551 -0.13873,1.00468 -0.16723,2.043 -0.10852,3.10472 0.22948,0.0383 0.47256,0.0753 0.72915,0.11007 -0.0855,-1.2997 -0.0396,-2.54647 0.18345,-3.73 0.33735,-1.79038 1.08074,-3.43584 2.39365,-4.89893 z"/><path id="path57652" style="fill:#b71e1e;fill-opacity:0.702632;stroke:none;stroke-width:0.7239;stroke-linecap:butt;stroke-linejoin:round;stroke-dasharray:none;stroke-opacity:1" d="m 206.843,132.9424 c -2.9899,2.4042 -6.17125,3.12073 -9.75599,0.29042 -1.96482,2.05763 -2.73172,1.00026 -3.67368,0.39843 -0.0261,0.25068 -0.0398,0.50367 -0.0398,0.75861 0,0 2.41523,1.26555 8.41603,1.26555 5.74768,0 8.41602,-1.26555 8.41602,-1.26555 0,-0.33528 -0.0234,-0.66726 -0.0682,-0.99477 -1.1783,0.77128 -2.28624,0.73287 -3.29438,-0.45269 z"/><path id="path57848" style="fill:none;fill-opacity:1;stroke:#a42c2c;stroke-width:0.353483;stroke-linecap:butt;stroke-linejoin:round;stroke-dasharray:none;stroke-opacity:1" d="m 201.78957,126.54331 c -1.45303,0 -2.90605,0.35027 -4.20802,1.0511 -2.60392,1.40164 -4.20801,3.99216 -4.20801,6.79545 0,0 2.41522,1.26557 8.41602,1.26557 5.74769,0 8.41603,-1.26557 8.41603,-1.26557 0,-2.80329 -1.60409,-5.39381 -4.20801,-6.79545 -1.30196,-0.70083 -2.75499,-1.0511 -4.20801,-1.0511 z"/></g></g></svg>