<svg xmlns:inkscape="http://www.inkscape.org/namespaces/inkscape" xmlns:sodipodi="http://sodipodi.sourceforge.net/DTD/sodipodi-0.dtd" xmlns="http://www.w3.org/2000/svg" xmlns:svg="http://www.w3.org/2000/svg" width="86.920349" height="86.920349" viewBox="0 0 22.997675 22.997676" version="1.1" id="svg5" xml:space="preserve" sodipodi:docname="taxes.svg" inkscape:version="1.4 (e7c3feb1, 2024-10-09)"><sodipodi:namedview id="namedview1" pagecolor="#505050" bordercolor="#ffffff" borderopacity="1" inkscape:showpageshadow="0" inkscape:pageopacity="0" inkscape:pagecheckerboard="1" inkscape:deskcolor="#505050" inkscape:zoom="2.57" inkscape:cx="43.385214" inkscape:cy="43.774319" inkscape:window-width="1104" inkscape:window-height="690" inkscape:window-x="0" inkscape:window-y="38" inkscape:window-maximized="0" inkscape:current-layer="svg5"/><defs id="defs2"><style id="style608">.cls-1{fill-opacity:0.8;fill:url(#linear-gradient);}.cls-2{fill:#61cbed;}.cls-3{fill:#0fafd2;}.cls-4{fill-opacity:0.9;fill:url(#linear-gradient-2);}.cls-5{fill:#04859b;opacity:0.5;}.cls-6{fill:none;stroke:#8e281d;stroke-miterlimit:10;stroke-width:12px;}.cls-7{fill:#f18221;}.cls-8{fill:#d25927;}.cls-9{fill:url(#linear-gradient-3);}.cls-10{fill:#fff;}.cls-11{fill:#414042;}</style><style id="style36590">.cls-1{fill:url(#linear-gradient);}.cls-2{fill:#f7941d;}.cls-3{fill:#ecf7fe;}.cls-4{fill:#f3b71c;}.cls-5{fill:#c7eaf7;}.cls-6{fill:#6eb8cc;}.cls-7{fill:#009444;}.cls-8{fill:#39b54a;}.cls-10,.cls-9{fill:#f47e20;}.cls-9{stroke:#f47e20;stroke-miterlimit:10;}.cls-11{fill:none;stroke:#f3b71c;stroke-linejoin:bevel;stroke-width:3px;}</style><style id="style608-1">.cls-1{fill-opacity:0.8;fill:url(#linear-gradient);}.cls-2{fill:#61cbed;}.cls-3{fill:#0fafd2;}.cls-4{fill-opacity:0.9;fill:url(#linear-gradient-2);}.cls-5{fill:#04859b;opacity:0.5;}.cls-6{fill:none;stroke:#8e281d;stroke-miterlimit:10;stroke-width:12px;}.cls-7{fill:#f18221;}.cls-8{fill:#d25927;}.cls-9{fill:url(#linear-gradient-3);}.cls-10{fill:#fff;}.cls-11{fill:#414042;}</style><style id="style36590-3">.cls-1{fill:url(#linear-gradient);}.cls-2{fill:#f7941d;}.cls-3{fill:#ecf7fe;}.cls-4{fill:#f3b71c;}.cls-5{fill:#c7eaf7;}.cls-6{fill:#6eb8cc;}.cls-7{fill:#009444;}.cls-8{fill:#39b54a;}.cls-10,.cls-9{fill:#f47e20;}.cls-9{stroke:#f47e20;stroke-miterlimit:10;}.cls-11{fill:none;stroke:#f3b71c;stroke-linejoin:bevel;stroke-width:3px;}</style></defs><rect style="fill:#5e696f;fill-opacity:1;stroke:none;stroke-width:0.63034;stroke-opacity:1" id="rect79639" width="22.367331" height="22.367331" x="0.31517214" y="0.31518266" ry="2.2823808"/><rect style="fill:none;fill-opacity:1;stroke:#2c0932;stroke-width:0.63034;stroke-opacity:1" id="rect79641" width="22.367331" height="22.367331" x="0.31517214" y="0.31518266" ry="2.2823808"/><path id="rect77778" style="color:#000000;fill:none;stroke:#1c290e;stroke-width:1.74295;stroke-linejoin:round;stroke-dasharray:none;stroke-opacity:1" d="m 14.658143,5.9221684 a 0.79734329,0.79734329 0 0 0 -0.153826,0.024528 L 2.2148052,9.2404573 A 0.79734329,0.79734329 0 0 0 1.6480331,10.214605 L 3.14736,15.813437 a 0.79734329,0.79734329 0 0 0 0.9814006,0.566773 l 1.1624873,-0.311506 c 0.028032,0.119136 0.093907,0.228811 0.1829089,0.320616 0.1321008,0.136306 0.3185136,0.250886 0.5341499,0.342341 0.4314476,0.182558 1.0021793,0.288029 1.6278537,0.288029 0.6256043,0 1.1964761,-0.105471 1.6224575,-0.288029 0.2130432,-0.09145 0.3867366,-0.200429 0.5196784,-0.334983 0.1328016,-0.134553 0.2263587,-0.308352 0.2263587,-0.492522 a 0.17153066,0.17153066 0 0 0 -0.021024,-0.07604 l 0.014016,0.02803 -0.041698,-0.487091 c -0.014016,-0.14892 -0.093557,-0.276466 -0.2028816,-0.378432 0.014016,-0.041 0.024528,-0.0841 0.031536,-0.126845 l 4.2461836,-1.138975 -0.401979,0.713449 a 0.49604795,0.49604795 0 0 0 -0.03504,0.07604 c -0.02102,0.05641 -0.04871,0.06693 -0.04871,0.246331 0,0.239674 0.18396,0.524094 0.383863,0.630125 0.199729,0.106171 0.386772,0.115982 0.588497,0.115982 0.352888,0 0.627777,-0.01402 0.903542,-0.15768 a 0.49604795,0.49604795 0 0 0 0.01402,-0.01402 c 0.208138,-0.118786 0.386246,-0.291533 0.505207,-0.49974 l 0.802136,-1.403353 c 0.04065,0.723121 0.178003,1.379105 0.669965,1.732904 0.22776,0.162585 0.485689,0.28067 0.75329,0.347597 0.261749,0.06342 0.548271,0.0904 0.861914,0.0904 0.623432,0 1.174857,-0.128247 1.615169,-0.432779 a 0.49604795,0.49604795 0 0 0 0.007,-0.007 c 0.556681,-0.390626 0.758687,-1.091426 0.758687,-1.937502 0,-0.827365 -0.229863,-1.537206 -0.807568,-1.903093 -0.439401,-0.281722 -0.976565,-0.403802 -1.573541,-0.403802 -0.38961,0 -0.688431,0.153476 -1.012201,0.268057 l 1.388846,-2.4444966 a 0.49604795,0.49604795 0 0 0 0,-0.00179 0.49604795,0.49604795 0 0 0 0,-0.00182 0.49604795,0.49604795 0 0 0 0,-0.00182 c 0.05571,-0.1023168 0.08164,-0.2253073 0.08164,-0.3293761 0,-0.2768161 -0.233016,-0.5582224 -0.443641,-0.6500622 -0.210941,-0.091805 -0.416066,-0.1012657 -0.65185,-0.1012657 -0.242827,0 -0.469221,0.03504 -0.682649,0.1285969 -0.158031,0.064474 -0.305549,0.1391088 -0.438211,0.2880288 a 0.49604795,0.49604795 0 0 0 -0.007,0 c -0.08339,0.095309 -0.144715,0.1951729 -0.211992,0.3150097 L 16.329517,9.6606571 15.483896,6.5045334 A 0.79734329,0.79734329 0 0 0 14.658213,5.9196806 Z"/><g id="g74886" transform="matrix(3.384605,-0.90690217,0.90690217,3.384605,-857.87351,-224.55483)"><rect style="fill:none;fill-opacity:1;stroke:#374b20;stroke-width:0.455059;stroke-linecap:butt;stroke-linejoin:round;stroke-dasharray:none;stroke-opacity:1" id="rect64305-5" width="3.6320083" height="1.6541913" x="219.82562" y="128.20583"/><rect style="fill:#7fb341;fill-opacity:1;stroke:none;stroke-width:0.34853;stroke-linecap:butt;stroke-linejoin:round;stroke-dasharray:none;stroke-opacity:1" id="rect63956-5" width="3.6320083" height="1.6541913" x="219.82562" y="128.20583"/><rect style="fill:none;fill-opacity:1;stroke:#465f29;stroke-width:0.135452;stroke-linecap:butt;stroke-linejoin:round;stroke-dasharray:none;stroke-opacity:1" id="rect64234-3" width="3.6320083" height="1.6541913" x="219.82562" y="128.20583"/><ellipse style="fill:none;fill-opacity:1;stroke:#374b20;stroke-width:0.140225;stroke-linecap:butt;stroke-linejoin:round;stroke-dasharray:none;stroke-opacity:1" id="circle64709-0" cx="221.64163" cy="129.03291" rx="0.58001822" ry="0.61839372"/><ellipse style="fill:#465f29;fill-opacity:1;stroke:none;stroke-width:0.306828;stroke-linecap:butt;stroke-linejoin:round;stroke-dasharray:none;stroke-opacity:1" id="path64428-5" cx="221.64163" cy="129.03291" rx="0.58001822" ry="0.61839372"/><path style="font-weight:900;font-size:1.00064px;font-family:Nunito;-inkscape-font-specification:'Nunito Heavy';fill:#add282;stroke-width:0.249324;stroke-linejoin:round" d="m 228.85856,125.44193 q -0.029,0 -0.049,-0.02 -0.02,-0.02 -0.02,-0.05 v -0.074 l 0.03,0.027 q -0.067,-0.003 -0.11607,-0.017 -0.049,-0.014 -0.08,-0.028 -0.026,-0.012 -0.037,-0.034 -0.01,-0.022 -0.008,-0.045 0.003,-0.023 0.017,-0.042 0.014,-0.019 0.036,-0.025 0.023,-0.007 0.053,0.006 0.02,0.011 0.06,0.023 0.041,0.011 0.10106,0.011 0.042,0 0.066,-0.008 0.025,-0.008 0.035,-0.021 0.011,-0.014 0.011,-0.03 0,-0.015 -0.008,-0.025 -0.007,-0.011 -0.024,-0.019 -0.017,-0.009 -0.047,-0.016 l -0.11307,-0.024 q -0.0931,-0.021 -0.13909,-0.07 -0.045,-0.05 -0.045,-0.12908 0,-0.06 0.029,-0.10707 0.03,-0.048 0.0831,-0.078 0.054,-0.03 0.12608,-0.038 l -0.03,0.017 v -0.0671 q 0,-0.03 0.02,-0.05 0.02,-0.02 0.049,-0.02 0.03,0 0.05,0.02 0.02,0.02 0.02,0.05 v 0.0671 l -0.03,-0.019 q 0.038,10e-4 0.082,0.013 0.044,0.011 0.0771,0.031 0.023,0.012 0.032,0.033 0.01,0.021 0.007,0.043 -0.002,0.021 -0.016,0.038 -0.013,0.017 -0.036,0.023 -0.022,0.005 -0.053,-0.008 -0.023,-0.01 -0.052,-0.016 -0.028,-0.007 -0.072,-0.007 -0.053,0 -0.0821,0.019 -0.028,0.019 -0.028,0.049 0,0.02 0.016,0.034 0.017,0.013 0.061,0.023 l 0.11408,0.025 q 0.0951,0.021 0.14009,0.07 0.046,0.048 0.046,0.12508 0,0.06 -0.029,0.10607 -0.029,0.046 -0.0811,0.0751 -0.051,0.029 -0.11908,0.038 l 0.023,-0.024 v 0.0751 q 0,0.03 -0.02,0.05 -0.019,0.02 -0.05,0.02 z" id="text64657-9" transform="scale(0.96847472,1.0325515)" aria-label="$"/></g><path style="-inkscape-font-specification:'Titan One Bold';fill:#bbae8e;stroke-linejoin:round" d="m 13.945313,7.6464844 c -0.600612,0 -1.134713,0.1191064 -1.566407,0.3984375 -0.573436,0.3727338 -0.80664,1.0769418 -0.80664,1.9042969 0,0.8402912 0.207374,1.5435232 0.757812,1.9394532 a 0.4960481,0.4960481 0 0 0 0.002,0.002 c 0.227711,0.162652 0.4805,0.280771 0.748047,0.347656 a 0.4960481,0.4960481 0 0 0 0.0039,0 c 0.261715,0.06344 0.547719,0.0918 0.861329,0.0918 0.399546,0 0.704713,-0.160302 1.035156,-0.279297 l -1.351563,2.390625 a 0.4960481,0.4960481 0 0 0 -0.03906,0.08789 c -0.01811,0.05435 -0.04492,0.05616 -0.04492,0.234375 0,0.23957 0.182931,0.520894 0.382812,0.626953 0.199881,0.106059 0.386142,0.119141 0.587891,0.119141 0.352886,0 0.630456,-0.01765 0.90625,-0.16211 a 0.4960481,0.4960481 0 0 0 0.01563,-0.0078 c 0.208209,-0.118977 0.38493,-0.295697 0.503906,-0.503906 a 0.4960481,0.4960481 0 0 0 0,-0.002 L 16.699219,13.5 c 0.04552,0.708109 0.230597,1.317698 0.714843,1.666016 a 0.4960481,0.4960481 0 0 0 0.002,0 c 0.227711,0.162652 0.480499,0.282723 0.748046,0.349609 a 0.4960481,0.4960481 0 0 0 0.0039,0 c 0.261715,0.06344 0.547719,0.0918 0.861328,0.0918 0.623418,0 1.174916,-0.130712 1.615234,-0.435547 a 0.4960481,0.4960481 0 0 0 0.0039,-0.002 c 0.556637,-0.390623 0.761719,-1.097295 0.761719,-1.943359 0,-0.826213 -0.232613,-1.53016 -0.808594,-1.896485 -0.439398,-0.281878 -0.97528,-0.408203 -1.572265,-0.408203 -0.389842,0 -0.691708,0.152967 -1.015625,0.267578 l 1.388672,-2.4453124 a 0.4960481,0.4960481 0 0 0 0.01172,-0.023437 c 0.04985,-0.099711 0.07227,-0.2102488 0.07227,-0.3085937 0,-0.2768247 -0.236401,-0.5585628 -0.447266,-0.6503907 C 18.828198,7.6698909 18.626398,7.65625 18.390625,7.65625 c -0.239471,0 -0.466783,0.033958 -0.677734,0.1269531 -0.163079,0.065731 -0.310755,0.1354848 -0.447266,0.2890625 a 0.4960481,0.4960481 0 0 0 -0.002,0.00391 c -0.08364,0.095595 -0.145271,0.1942429 -0.212891,0.3144531 L 16.291016,9.7363281 C 16.2503,9.0101276 16.038648,8.3823477 15.519531,8.0449219 a 0.4960481,0.4960481 0 0 0 -0.0078,-0.00586 C 15.072739,7.7657357 14.540282,7.6464844 13.945313,7.6464844 Z m 4.363281,1.0136719 -3.230469,5.6835937 c -0.03285,0.05712 -0.06894,0.09195 -0.123047,0.125 2.53e-4,-6.22e-4 -0.141373,0.01296 -0.216797,0.02539 l 3.175781,-5.6152347 a 0.4960481,0.4960481 0 0 0 0,-0.00195 c 0.04719,-0.083893 0.08572,-0.134933 0.09375,-0.1445312 -0.03632,0.040863 -0.0065,0.003 0.08398,-0.033203 a 0.4960481,0.4960481 0 0 0 0.01953,-0.00781 c 0.03124,-0.01406 0.117078,-0.023178 0.197266,-0.03125 z m -4.546875,0.021484 c -0.114429,0.044261 -0.245561,0.070521 -0.308594,0.1464844 -0.100593,0.1212274 -0.143513,0.2388051 -0.175781,0.3554688 -0.06454,0.2333272 -0.08008,0.4887058 -0.08008,0.8144531 0,0.3227711 0.0151,0.5742341 0.08008,0.8066411 0.03249,0.116203 0.07657,0.234849 0.177734,0.355468 0.07102,0.08468 0.213319,0.123407 0.34375,0.164063 -0.177493,-0.0081 -0.35356,-0.01879 -0.478515,-0.04883 -0.144061,-0.03602 -0.277738,-0.09721 -0.410157,-0.191407 v -0.002 c -0.183847,-0.132889 -0.345703,-0.453321 -0.345703,-1.1328122 0,-0.6548339 0.15559,-0.9423441 0.355469,-1.0722657 0.18519,-0.1194717 0.496976,-0.1690083 0.841797,-0.1953125 z m 0.441406,0.017578 c 0.299286,0.032501 0.592558,0.067171 0.775391,0.1796875 0.199402,0.1302269 0.355468,0.4165533 0.355468,1.0703125 0,0.6865892 -0.162163,1.0035702 -0.339843,1.1289062 -0.175544,0.121176 -0.4826,0.164808 -0.800782,0.199219 0.08818,-0.03999 0.18763,-0.04872 0.246094,-0.115235 0.145156,-0.1629 0.184297,-0.316489 0.212891,-0.472656 0.02941,-0.160647 0.03906,-0.334593 0.03906,-0.537109 0,-0.3763177 -0.0064,-0.6264359 -0.04687,-0.8417971 -0.01555,-0.085526 -0.03248,-0.1618832 -0.05859,-0.2402344 -0.02612,-0.078351 -0.0447,-0.1618764 -0.166016,-0.2832031 -0.0574,-0.057404 -0.140767,-0.055562 -0.216797,-0.087891 z m 4.638672,3.2597652 c -0.112778,0.04442 -0.242401,0.07142 -0.304688,0.146485 -0.100593,0.121227 -0.141559,0.238805 -0.173828,0.355469 -0.06454,0.233327 -0.08203,0.488705 -0.08203,0.814453 0,0.322771 0.01706,0.574234 0.08203,0.80664 0.03249,0.116203 0.07462,0.232897 0.175781,0.353516 0.0714,0.08513 0.214466,0.125573 0.345704,0.166016 -0.17892,-0.0081 -0.354841,-0.0185 -0.480469,-0.04883 h -0.002 c -0.143414,-0.03607 -0.276301,-0.09757 -0.408203,-0.191406 v -0.002 c -0.183846,-0.132889 -0.34375,-0.453322 -0.34375,-1.132812 0,-0.654835 0.15207,-0.936676 0.347656,-1.060547 a 0.4960481,0.4960481 0 0 0 0.0098,-0.0059 c 0.183982,-0.122654 0.493326,-0.173765 0.833985,-0.201172 z m 0.453125,0.01953 c 0.295692,0.03422 0.590225,0.06927 0.771484,0.185547 a 0.4960481,0.4960481 0 0 0 0.002,0.002 c 0.195586,0.123871 0.34961,0.405712 0.34961,1.060547 0,0.686589 -0.162164,1.00357 -0.339844,1.128906 -0.154081,0.10636 -0.440883,0.132554 -0.703125,0.173828 0.04274,-0.02558 0.09636,-0.01824 0.130859,-0.05273 a 0.4960481,0.4960481 0 0 0 0.02344,-0.02734 c 0.287424,-0.331642 0.246094,-0.614499 0.246094,-1.019531 0,-0.378929 -0.0057,-0.63129 -0.04687,-0.847657 -0.01533,-0.08371 -0.03098,-0.157384 -0.05664,-0.234375 -0.02612,-0.07835 -0.04469,-0.161876 -0.166016,-0.283203 -0.05561,-0.05561 -0.137532,-0.05383 -0.210937,-0.08594 z" id="text74890"/><path style="-inkscape-font-specification:'Titan One Bold';fill:#ffffff;stroke-width:4.9782;stroke-linejoin:round" d="m 15.510309,14.589234 q -0.115997,0.202995 -0.318993,0.318993 -0.202995,0.106331 -0.676651,0.106331 -0.473656,0 -0.473656,-0.251328 0,-0.01933 0.01933,-0.07733 l 3.421923,-6.0511979 q 0.087,-0.1546632 0.154663,-0.2319948 0.07733,-0.086998 0.27066,-0.1643296 0.193329,-0.086998 0.483323,-0.086998 0.59932,0 0.59932,0.2609941 0,0.048332 -0.01933,0.086998 z m -1.565965,-2.754938 q -0.425324,0 -0.744317,-0.07733 -0.309326,-0.07733 -0.579986,-0.27066 -0.550988,-0.396325 -0.550988,-1.5369657 0,-1.1116417 0.579987,-1.4886333 0.492989,-0.3189928 1.295304,-0.3189928 0.792649,0 1.304971,0.3189928 0.579987,0.3769916 0.579987,1.4886333 0,1.1503077 -0.550988,1.5369657 -0.502655,0.347992 -1.33397,0.347992 z m 0,-0.937646 q 0.07733,0 0.125664,-0.058 0.125664,-0.135331 0.125664,-0.686318 0,-0.5509879 -0.03867,-0.7539833 -0.03867,-0.2126619 -0.087,-0.2609942 -0.04833,-0.048332 -0.125664,-0.048332 -0.251328,0 -0.251328,0.9086462 0,0.8989795 0.251328,0.8989795 z m 5.084553,4.214572 q -0.425324,0 -0.744317,-0.07733 -0.309326,-0.07733 -0.579987,-0.270661 -0.550988,-0.396324 -0.550988,-1.536965 0,-1.111642 0.579987,-1.478967 0.492989,-0.328659 1.295305,-0.328659 0.792648,0 1.30497,0.328659 0.579987,0.367325 0.579987,1.478967 0,1.150307 -0.550987,1.536965 -0.502656,0.347992 -1.33397,0.347992 z m 0,-0.937645 q 0.07733,0 0.125663,-0.04833 0.125664,-0.144996 0.125664,-0.695984 0,-0.550988 -0.03867,-0.753983 -0.03867,-0.212662 -0.087,-0.260994 -0.04833,-0.04833 -0.125663,-0.04833 -0.251328,0 -0.251328,0.908646 0,0.89898 0.251328,0.89898 z" id="text74877" aria-label="%"/><g id="g76895" transform="matrix(3.5040009,0,0,3.5040009,-774.21383,-436.50868)"><path id="path76889" style="fill:none;stroke:#ff6710;stroke-width:0.0978958;stroke-linejoin:round;stroke-dasharray:none;stroke-opacity:1" d="m 223.75744,129.11421 c 0,0.14817 -0.28028,0.26829 -0.62602,0.26829 -0.34573,0 -0.63836,-0.12064 -0.62601,-0.26829 l 0.0122,-0.14587 c 0.0113,-0.13508 0.31039,-0.21532 0.61381,-0.21532 0.3015,0 0.60059,0.0781 0.6127,0.21298 l 0.0133,0.14817 z"/><path id="path76891" style="fill:#faae0e;fill-opacity:1;stroke-width:0.283104;stroke-linejoin:round" d="m 223.75744,129.11421 c 0,0.14817 -0.28028,0.26829 -0.62602,0.26829 -0.34573,0 -0.63836,-0.12064 -0.62601,-0.26829 l 0.0122,-0.14587 c 0.0113,-0.13508 0.31039,-0.21532 0.61381,-0.21532 0.3015,0 0.60059,0.0781 0.6127,0.21298 l 0.0133,0.14817 z"/><path id="path76893" style="fill:#ffdb34;fill-opacity:1;stroke-width:0.283104;stroke-linejoin:round" d="m 223.13142,128.75299 c -0.30342,0 -0.60262,0.0804 -0.61392,0.21549 l -0.001,0.0114 c 0.0567,0.11985 0.31603,0.20981 0.61495,0.20981 0.30302,0 0.55608,-0.0919 0.61391,-0.21446 l -0.001,-0.009 c -0.0121,-0.13488 -0.31138,-0.21291 -0.61288,-0.21291 z"/></g><g id="g76903" transform="matrix(3.5040009,0,0,3.5040009,-774.43078,-437.61751)"><path id="path76897" style="fill:none;stroke:#ff6710;stroke-width:0.0978958;stroke-linejoin:round;stroke-dasharray:none;stroke-opacity:1" d="m 223.75744,129.11421 c 0,0.14817 -0.28028,0.26829 -0.62602,0.26829 -0.34573,0 -0.63836,-0.12064 -0.62601,-0.26829 l 0.0122,-0.14587 c 0.0113,-0.13508 0.31039,-0.21532 0.61381,-0.21532 0.3015,0 0.60059,0.0781 0.6127,0.21298 l 0.0133,0.14817 z"/><path id="path76899" style="fill:#faae0e;fill-opacity:1;stroke-width:0.283104;stroke-linejoin:round" d="m 223.75744,129.11421 c 0,0.14817 -0.28028,0.26829 -0.62602,0.26829 -0.34573,0 -0.63836,-0.12064 -0.62601,-0.26829 l 0.0122,-0.14587 c 0.0113,-0.13508 0.31039,-0.21532 0.61381,-0.21532 0.3015,0 0.60059,0.0781 0.6127,0.21298 l 0.0133,0.14817 z"/><path id="path76901" style="fill:#ffdb34;fill-opacity:1;stroke-width:0.283104;stroke-linejoin:round" d="m 223.13142,128.75299 c -0.30342,0 -0.60262,0.0804 -0.61392,0.21549 l -0.001,0.0114 c 0.0567,0.11985 0.31603,0.20981 0.61495,0.20981 0.30302,0 0.55608,-0.0919 0.61391,-0.21446 l -0.001,-0.009 c -0.0121,-0.13488 -0.31138,-0.21291 -0.61288,-0.21291 z"/></g><g id="g76887" transform="matrix(3.5040009,0,0,3.5040009,-774.0451,-438.75045)"><path id="path76882" style="fill:none;stroke:#ff6710;stroke-width:0.0978958;stroke-linejoin:round;stroke-dasharray:none;stroke-opacity:1" d="m 223.75744,129.11421 c 0,0.14817 -0.28028,0.26829 -0.62602,0.26829 -0.34573,0 -0.63836,-0.12064 -0.62601,-0.26829 l 0.0122,-0.14587 c 0.0113,-0.13508 0.31039,-0.21532 0.61381,-0.21532 0.3015,0 0.60059,0.0781 0.6127,0.21298 l 0.0133,0.14817 z"/><path id="path74944" style="fill:#faae0e;fill-opacity:1;stroke-width:0.283104;stroke-linejoin:round" d="m 223.75744,129.11421 c 0,0.14817 -0.28028,0.26829 -0.62602,0.26829 -0.34573,0 -0.63836,-0.12064 -0.62601,-0.26829 l 0.0122,-0.14587 c 0.0113,-0.13508 0.31039,-0.21532 0.61381,-0.21532 0.3015,0 0.60059,0.0781 0.6127,0.21298 l 0.0133,0.14817 z"/><path id="path76670" style="fill:#ffdb34;fill-opacity:1;stroke-width:0.283104;stroke-linejoin:round" d="m 223.13142,128.75299 c -0.30342,0 -0.60262,0.0804 -0.61392,0.21549 l -0.001,0.0114 c 0.0567,0.11985 0.31603,0.20981 0.61495,0.20981 0.30302,0 0.55608,-0.0919 0.61391,-0.21446 l -0.001,-0.009 c -0.0121,-0.13488 -0.31138,-0.21291 -0.61288,-0.21291 z"/></g></svg>