<svg xmlns="http://www.w3.org/2000/svg" xmlns:svg="http://www.w3.org/2000/svg" width="86.933533" height="86.933563" viewBox="0 0 23.001163 23.001172" version="1.1" id="svg5" xml:space="preserve"><defs id="defs2"><style id="style608">.cls-1{fill-opacity:0.8;fill:url(#linear-gradient);}.cls-2{fill:#61cbed;}.cls-3{fill:#0fafd2;}.cls-4{fill-opacity:0.9;fill:url(#linear-gradient-2);}.cls-5{fill:#04859b;opacity:0.5;}.cls-6{fill:none;stroke:#8e281d;stroke-miterlimit:10;stroke-width:12px;}.cls-7{fill:#f18221;}.cls-8{fill:#d25927;}.cls-9{fill:url(#linear-gradient-3);}.cls-10{fill:#fff;}.cls-11{fill:#414042;}</style><style id="style36590">.cls-1{fill:url(#linear-gradient);}.cls-2{fill:#f7941d;}.cls-3{fill:#ecf7fe;}.cls-4{fill:#f3b71c;}.cls-5{fill:#c7eaf7;}.cls-6{fill:#6eb8cc;}.cls-7{fill:#009444;}.cls-8{fill:#39b54a;}.cls-10,.cls-9{fill:#f47e20;}.cls-9{stroke:#f47e20;stroke-miterlimit:10;}.cls-11{fill:none;stroke:#f3b71c;stroke-linejoin:bevel;stroke-width:3px;}</style><style id="style608-1">.cls-1{fill-opacity:0.8;fill:url(#linear-gradient);}.cls-2{fill:#61cbed;}.cls-3{fill:#0fafd2;}.cls-4{fill-opacity:0.9;fill:url(#linear-gradient-2);}.cls-5{fill:#04859b;opacity:0.5;}.cls-6{fill:none;stroke:#8e281d;stroke-miterlimit:10;stroke-width:12px;}.cls-7{fill:#f18221;}.cls-8{fill:#d25927;}.cls-9{fill:url(#linear-gradient-3);}.cls-10{fill:#fff;}.cls-11{fill:#414042;}</style><style id="style36590-3">.cls-1{fill:url(#linear-gradient);}.cls-2{fill:#f7941d;}.cls-3{fill:#ecf7fe;}.cls-4{fill:#f3b71c;}.cls-5{fill:#c7eaf7;}.cls-6{fill:#6eb8cc;}.cls-7{fill:#009444;}.cls-8{fill:#39b54a;}.cls-10,.cls-9{fill:#f47e20;}.cls-9{stroke:#f47e20;stroke-miterlimit:10;}.cls-11{fill:none;stroke:#f3b71c;stroke-linejoin:bevel;stroke-width:3px;}</style></defs><g id="layer1" transform="translate(-269.18716,-164.92526)"><rect style="fill:#ff4a1b;fill-opacity:1;stroke:none;stroke-width:0.630438;stroke-opacity:1" id="rect59097" width="22.370735" height="22.370735" x="269.50238" y="165.24048" ry="2.2827284"/><rect style="fill:none;fill-opacity:1;stroke:#2c0932;stroke-width:0.630438;stroke-opacity:1" id="rect59099" width="22.370735" height="22.370735" x="269.50238" y="165.24048" ry="2.2827284"/><g id="g59153" transform="matrix(2.4492025,0,0,2.4492025,11.86938,-152.21929)"><path id="path59119" style="fill:none;fill-opacity:1;stroke:#9a2c00;stroke-width:1.17063;stroke-dasharray:none;stroke-opacity:1" class="cls-1" d="m 107.21964,130.90469 c -0.4502,0 -0.8127,0.3625 -0.8127,0.8127 v 3.97051 0.064 1.0416 a 0.81263664,0.81263664 0 0 0 0.8127,0.81271 h 5.0761 a 0.81263664,0.81263664 0 0 0 0.81271,-0.81271 v -1.0416 -0.064 -3.97051 c 0,-0.4502 -0.36251,-0.8127 -0.81271,-0.8127 z"/><path id="path59121" style="fill:none;fill-opacity:1;stroke:#c46900;stroke-width:0.528912;stroke-dasharray:none;stroke-opacity:1" class="cls-1" d="m 107.21964,130.90469 c -0.4502,0 -0.8127,0.3625 -0.8127,0.8127 v 3.97051 0.064 1.0416 a 0.81263664,0.81263664 0 0 0 0.8127,0.81271 h 5.0761 a 0.81263664,0.81263664 0 0 0 0.81271,-0.81271 v -1.0416 -0.064 -3.97051 c 0,-0.4502 -0.36251,-0.8127 -0.81271,-0.8127 z"/><path class="cls-1" d="m 112.2955,137.60599 h -5.07596 a 0.81263664,0.81263664 0 0 1 -0.81264,-0.81264 v -1.10526 h 6.70124 v 1.10526 a 0.81263664,0.81263664 0 0 1 -0.81264,0.81264 z" id="path59123" style="fill:#ffae05;fill-opacity:1;stroke:none;stroke-width:0.0223374"/><rect class="cls-3" y="130.90475" width="6.7012367" height="5.6600881" rx="0.81263667" id="rect59125" x="106.4069" style="fill:#ffcd05;fill-opacity:1;stroke:none;stroke-width:0.0223374"/><g id="g59131" transform="matrix(0.02233746,0,0,0.02233746,106.3845,129.89957)" style="stroke:none"><path class="cls-9" d="m 118.45334,229.58302 a 11.510513,11.510513 0 0 0 -4.07881,-0.28313 c -8.24156,1.06634 -14.687813,6.95178 -14.875779,14.15189 -0.417231,16.00441 6.560149,39.88042 52.202129,39.03987 45.29414,-0.82473 51.63859,-24.59213 50.7448,-40.5662 a 13.887422,13.887422 0 0 0 -5.48257,-10.08236 16.010954,16.010954 0 0 0 -16.22855,-1.86578 c -4.21571,1.79417 -11.91094,4.11577 -23.69768,4.32983 -16.05089,0.29972 -33.12262,-3.42298 -38.58354,-4.72412 z" id="path59127" style="fill:#f4fbfe;fill-opacity:1;stroke:none;stroke-width:1.20655;stroke-miterlimit:10"/><path class="cls-10" d="m 99.481149,245.06078 c 0.0988,15.94874 8.085111,38.24385 52.219731,37.43087 44.13464,-0.81298 51.28347,-23.38371 50.80132,-39.32381 0,0 -11.68995,7.04091 -51.39009,7.77808 -39.70011,0.73719 -51.630961,-5.88514 -51.630961,-5.88514 z" id="path59129" style="fill:#680e19;fill-opacity:1;stroke:none;stroke-width:1.20655"/></g><g id="g59139" transform="matrix(0.02233746,0,0,0.02233746,106.4069,129.89957)" style="stroke:none"><circle class="cls-6" cx="55.199997" cy="187.02675" r="39.735718" id="circle59133" style="fill:#fabc2e;fill-opacity:1;stroke:none;stroke-width:1.09014;stroke-miterlimit:10"/><circle class="cls-14" cx="55.199997" cy="198.05898" r="39.735718" id="circle59135" style="fill:#ffffff;fill-opacity:1;stroke:none;stroke-width:1.09014"/><path class="cls-15" d="m 89.822942,192.29213 a 14.400789,14.400789 0 0 1 -20.908943,-19.52447 25.07329,25.07329 0 1 0 20.919845,19.52447 z m -34.884577,21.54122 a 5.9521811,5.9521811 0 1 1 5.94128,-5.94128 5.9412796,5.9412796 0 0 1 -5.984886,5.94128 z" id="path59137" style="fill:#3b3b3b;fill-opacity:1;stroke:none;stroke-width:1.09014"/></g><g transform="matrix(-0.02032106,0,0,0.02032106,112.99683,130.27445)" class="UnoptimicedTransforms" id="g59147" style="stroke:none"><path class="cls-6" id="path59141" d="M 98.878571,187.13654 A 43.678574,43.678574 0 0 1 55.199997,230.81511 43.678574,43.678574 0 0 1 11.521423,187.13654 43.678574,43.678574 0 0 1 55.199997,143.45796 43.678574,43.678574 0 0 1 98.878571,187.13654 Z" style="fill:#fabc2e;fill-opacity:1;stroke:none;stroke-width:1.19831;stroke-miterlimit:10"/><path class="cls-14" id="path59143" d="M 98.878571,199.26347 A 43.678574,43.678574 0 0 1 55.199997,242.94205 43.678574,43.678574 0 0 1 11.521423,199.26347 43.678574,43.678574 0 0 1 55.199997,155.5849 43.678574,43.678574 0 0 1 98.878571,199.26347 Z" style="fill:#ffffff;fill-opacity:1;stroke:none;stroke-width:1.19831"/><path class="cls-15" id="path59145" d="M 39.401073,192.92439 A 15.829737,15.829737 0 0 0 62.384749,171.46257 27.561238,27.561238 0 1 1 39.38909,192.92439 Z m 38.34607,23.67869 a 6.5427983,6.5427983 0 1 0 -6.530815,-6.53081 6.5308151,6.5308151 0 0 0 6.578748,6.53081 z" style="fill:#3b3b3b;fill-opacity:1;stroke:none;stroke-width:1.19831"/></g><path style="fill:#66402d;fill-opacity:1;stroke-width:0.0194138" d="m 92.826574,146.23837 a 0.57484382,0.33333564 15.784383 0 0 -0.512117,0.19207 0.57484382,0.33333564 15.784383 0 0 0.462653,0.47703 0.57484382,0.33333564 15.784383 0 0 0.643492,-0.16453 0.57484382,0.33333564 15.784383 0 0 -0.461999,-0.47694 0.57484382,0.33333564 15.784383 0 0 -0.132029,-0.0276 z" transform="rotate(-7.8921909)" id="path59149"/><path style="fill:#66402d;fill-opacity:1;stroke-width:0.0194138" d="m 88.329779,145.61501 a 0.57484382,0.33333564 0 0 0 -0.133911,-0.009 0.57484382,0.33333564 0 0 0 -0.574969,0.3332 0.57484382,0.33333564 0 0 0 0.575125,0.33346 0.57484382,0.33333564 0 0 0 0.574316,-0.33329 0.57484382,0.33333564 0 0 0 -0.440561,-0.32413 z" id="path59151" transform="rotate(-7.8921909)"/></g></g></svg>