<svg xmlns:inkscape="http://www.inkscape.org/namespaces/inkscape" xmlns:sodipodi="http://sodipodi.sourceforge.net/DTD/sodipodi-0.dtd" xmlns="http://www.w3.org/2000/svg" xmlns:svg="http://www.w3.org/2000/svg" width="689.59424" height="496.94568" viewBox="0 0 182.45514 131.48354" version="1.1" id="svg1" xml:space="preserve" sodipodi:docname="inspectionClipboard.svg" inkscape:version="1.4 (e7c3feb1, 2024-10-09)"><sodipodi:namedview id="namedview1" pagecolor="#505050" bordercolor="#ffffff" borderopacity="1" inkscape:showpageshadow="0" inkscape:pageopacity="0" inkscape:pagecheckerboard="1" inkscape:deskcolor="#505050" inkscape:zoom="0.8153401" inkscape:cx="256.33475" inkscape:cy="286.9968" inkscape:window-width="1408" inkscape:window-height="771" inkscape:window-x="0" inkscape:window-y="38" inkscape:window-maximized="0" inkscape:current-layer="layer1"/><defs id="defs1"><style id="style1">.cls-1{fill:url(#linear-gradient);}.cls-2{fill:#ffcd05;}.cls-3{fill:none;stroke:#cd8e2a;stroke-miterlimit:10;stroke-width:8.99px;}.cls-4{fill:#5a459c;}.cls-5{fill:url(#linear-gradient-2);}.cls-6{fill:url(#linear-gradient-3);}.cls-7{fill:#8b5e3c;}.cls-8{fill:#66402d;}.cls-9{fill:#42308b;}.cls-10{fill:#fabc2e;}.cls-11{fill:#fff;}.cls-12{fill:#414042;}</style></defs><g id="layer1" transform="translate(-1556.9832,49.052607)"><path id="rect133-8" style="fill:none;stroke:#3f281c;stroke-width:7.71863;stroke-linecap:round;stroke-linejoin:round;paint-order:stroke fill markers" d="M 1560.8425,68.497708 V -35.119407 c 0,-5.58094 4.493,-10.07389 10.0739,-10.07389 h 154.5886 c 5.581,0 10.0739,4.49295 10.0739,10.07389 V 68.497708 c 0,5.58094 -4.4929,10.07389 -10.0739,10.07389 h -154.5886 c -5.5809,0 -10.0739,-4.49295 -10.0739,-10.07389 z"/><path id="rect134-5" style="fill:#65402d;stroke-width:32.4086;stroke-linecap:round;stroke-linejoin:round;paint-order:stroke fill markers" d="M 1560.8425,68.497708 V -35.119407 c 0,-5.58094 4.493,-10.07389 10.0739,-10.07389 h 154.5886 c 5.581,0 10.0739,4.49295 10.0739,10.07389 V 68.497708 c 0,5.58094 -4.4929,10.07389 -10.0739,10.07389 h -154.5886 c -5.5809,0 -10.0739,-4.49295 -10.0739,-10.07389 z"/><path id="path155" style="color:#000000;font-style:normal;font-variant:normal;font-weight:normal;font-stretch:normal;font-size:medium;line-height:normal;font-family:sans-serif;font-variant-ligatures:normal;font-variant-position:normal;font-variant-caps:normal;font-variant-numeric:normal;font-variant-alternates:normal;font-variant-east-asian:normal;font-feature-settings:normal;font-variation-settings:normal;text-indent:0;text-align:start;text-decoration-line:none;text-decoration-style:solid;text-decoration-color:#000000;letter-spacing:normal;word-spacing:normal;text-transform:none;writing-mode:lr-tb;direction:ltr;text-orientation:mixed;dominant-baseline:auto;baseline-shift:baseline;text-anchor:start;white-space:normal;shape-padding:0;shape-margin:0;inline-size:0;clip-rule:nonzero;display:inline;overflow:visible;visibility:visible;isolation:auto;mix-blend-mode:normal;color-interpolation:sRGB;color-interpolation-filters:linearRGB;solid-color:#000000;solid-opacity:1;vector-effect:none;fill:#613c29;fill-opacity:1;fill-rule:nonzero;stroke:none;stroke-width:0.612186;stroke-linecap:round;stroke-linejoin:round;stroke-miterlimit:4;stroke-dasharray:none;stroke-dashoffset:0;stroke-opacity:1;-inkscape-stroke:none;paint-order:stroke fill markers;color-rendering:auto;image-rendering:auto;shape-rendering:auto;text-rendering:auto;enable-background:accumulate;stop-color:#000000" d="m 1560.8427,33.073203 v 31.721315 c 0.3249,0.22448 0.7009,0.4724 0.9924,0.68048 l 5.7551,7.68745 c 0.7119,1.56428 1.4593,3.39165 2.2022,5.29643 0.3738,0.0417 0.7387,0.11262 1.124,0.11262 h 28.1247 c -2.6586,-9.48934 -6.1118,-19.80415 -13.2452,-28.435005 -7.0048,-8.47516 -15.8766,-12.66823 -23.5989,-16.43343 -0.4751,-0.23165 -0.8887,-0.40841 -1.3543,-0.62986 z"/><path id="path151" style="fill:#482513;fill-opacity:0.14;stroke-width:0.612186;stroke-linecap:round;stroke-linejoin:round;paint-order:stroke fill markers" d="m 1570.9164,-45.193247 c -5.581,0 -10.0737,4.49279 -10.0737,10.07372 v 16.24297 c 1.374,1.39754 2.8185,2.75951 4.4245,4.02816 17.696,13.97896975 38.2971,19.7046298 57.6904,24.3464398 19.3932,4.6418202 37.8623,8.3136802 52.7077,15.6273502 16.3713,8.06541 44.5046,27.32364 59.9137,38.124995 V 29.579683 C 1720.5216,19.341823 1702.0677,7.4626928 1687.8241,0.44552275 1668.4066,-9.1206372 1647.8857,-12.825517 1629.3628,-17.259027 c -18.5229,-4.4335 -34.7656,-9.48107 -47.0415,-19.17844 -1.0975,-0.867 -3.9623,-4.51904 -6.844,-8.75578 z m 46.7523,0 c 11.7564,3.24762 32.497,9.27782 41.2259,13.8934 5.156,2.7263 11.672,10.32234 19.498,18.89783 7.8261,8.5754898 18.5328,19.1211498 34.6305,19.7203698 8.8476,0.32934 16.166,-2.33003 22.5559,-6.06328 V -33.260307 c -0.8295,0.72511 -1.5797,1.42727 -2.4616,2.15787 -7.8409,6.49561 -18.3351,10.95464 -19.0709,10.92725 -4.152,-0.15456 -8.5925,-3.38919 -15.3309,-10.77287 -3.7988,-4.16265 -7.8669,-9.32065 -12.9456,-14.24519 z m -56.826,42.8472398 V 26.762533 c 17.9378,6.13261 50.3382,17.61176 66.6596,26.15757 10.8284,5.669675 25.9659,15.655345 40.3443,25.651395 h 47.3268 c -17.361,-12.99564 -51.2797,-37.652855 -74.9096,-50.025355 -25.1059,-13.14534 -68.5053,-27.3849902 -79.4211,-30.8921502 z"/><path id="rect135-5" style="fill-opacity:0.220472;stroke-width:25.7031;stroke-linecap:round;stroke-linejoin:round;paint-order:stroke fill markers" d="m 1582.7157,64.045648 v -91.628495 c 0,-1.6539 1.3467,-2.98536 3.0196,-2.98536 h 138.8134 c 1.6729,0 3.0196,1.33146 3.0196,2.98536 v 91.628495 c 0,1.6539 -1.3467,2.98536 -3.0196,2.98536 h -138.8134 c -1.6729,0 -3.0196,-1.33147 -3.0196,-2.98536 z"/><path id="rect136-5" style="fill:#f2f2f2;stroke-width:24.7493;stroke-linecap:round;stroke-linejoin:round;paint-order:stroke fill markers" d="m 1585.576,61.055728 v -88.732925 c 0,-1.60162 1.2894,-2.89101 2.8911,-2.89101 h 132.9021 c 1.6016,0 2.891,1.28939 2.891,2.89101 v 88.732925 c 0,1.60163 -1.2894,2.89102 -2.891,2.89102 h -132.9021 c -1.6017,0 -2.8911,-1.2894 -2.8911,-2.89102 z"/><path id="path150" style="fill:none;stroke:#7b8481;stroke-width:3.24904;stroke-linecap:round;stroke-linejoin:round;stroke-dasharray:none;stroke-opacity:1;paint-order:stroke fill markers" d="m 1576.4713,-11.398217 c -1.3324,0 -2.405,1.07259 -2.405,2.4049398 v 14.43722 c -0.2815,-0.0214 -0.5649,-0.0358 -0.8516,-0.0358 -6.1968,0 -11.2816,5.0848002 -11.2816,11.2815702 0,6.19682 5.0848,11.28157 11.2816,11.28157 0.2867,0 0.5701,-0.0144 0.8516,-0.0358 v 14.43563 c 0,1.33235 1.0726,2.40494 2.405,2.40494 h 17.4084 c 1.3324,0 2.4049,-1.07259 2.4049,-2.40494 V -8.9933772 c 0,-1.3323498 -1.0725,-2.4049398 -2.4049,-2.4049398 z m -3.2566,22.41983 c 0.2907,0 0.5735,0.028 0.8516,0.069 v 11.18951 c -0.2781,0.0408 -0.5609,0.0686 -0.8516,0.0686 -3.1613,0 -5.659,-2.49763 -5.659,-5.65897 0,-3.16134 2.4977,-5.66815 5.659,-5.66815 z"/><path style="fill:#aeb2b1;stroke-width:4.65821;stroke-linecap:round;stroke-linejoin:round;paint-order:stroke fill markers" d="m 1561.9332,16.689683 c 0,6.19682 5.0848,11.28162 11.2816,11.28162 6.1968,0 11.2816,-5.0848 11.2816,-11.28162 0,-6.19676 -5.0848,-11.2815702 -11.2816,-11.2815702 -6.1968,0 -11.2816,5.0848102 -11.2816,11.2815702 z m 5.6226,0 c 0,-3.16134 2.4977,-5.66806 5.659,-5.66806 3.1613,0 5.6681,2.50672 5.6681,5.66806 0,3.16134 -2.5068,5.65903 -5.6681,5.65903 -3.1613,0 -5.659,-2.49769 -5.659,-5.65903 z" id="path136-4"/><path id="path137-2" style="fill:#e1e3e3;fill-opacity:1;stroke:none;stroke-width:10.4342;stroke-linecap:round;stroke-linejoin:round;stroke-opacity:1;paint-order:stroke fill markers" d="m 1561.9324,16.688703 c 0,2.47198 0.8124,4.76596 2.1785,6.6318 0.9802,-2.07159 2.5511,-3.03724 4.4485,-3.38931 -0.6325,-0.91431 -1.0038,-2.02874 -1.0038,-3.24249 0,-0.80274 0.163,-1.56273 0.4551,-2.25075 -1.8735,-0.32793 -3.6352,-0.8981 -4.3305,-3.75036 -1.1044,1.74207 -1.7477,3.80081 -1.7477,6.00111 z"/><path id="path138-1" style="fill:#99a09e;fill-opacity:1;stroke-width:4.1488;stroke-linecap:round;stroke-linejoin:round;paint-order:stroke fill markers" d="m 1565.3867,16.688703 c 0,5.51914 4.5286,10.05005 10.0477,10.05005 1.7171,0 3.3401,-0.44067 4.759,-1.21081 2.6141,-2.0723 4.304,-5.27044 4.304,-8.83924 0,-3.56879 -1.6899,-6.7645002 -4.304,-8.8368002 -1.4189,-0.77019 -3.0419,-1.21086 -4.759,-1.21086 -5.5191,0 -10.0477,4.5285702 -10.0477,10.0476602 z m 2.1689,0 c 0,-3.16133 2.498,-5.66652 5.6593,-5.66652 0.9573,0 1.8525,0.23198 2.6383,0.64032 2.615,0.20869 4.6314,2.3517 4.6314,5.0262 0,2.67368 -2.0151,4.8124 -4.629,5.02142 -0.7863,0.40759 -1.6826,0.63789 -2.6407,0.63789 -3.1613,0 -5.6593,-2.49797 -5.6593,-5.65931 z"/><path id="rect138-9" style="fill:#414443;fill-opacity:0.129921;stroke-width:10.9881;stroke-linecap:round;stroke-linejoin:round;paint-order:stroke fill markers" d="M 1575.917,45.604763 V -8.8485972 c 0,-1.4124698 1.1221,-2.5495798 2.5158,-2.5495798 h 18.2107 c 1.3938,0 2.5158,1.13711 2.5158,2.5495798 V 45.604763 c 0,1.41247 -1.122,2.54959 -2.5158,2.54959 h -18.2107 c -1.3937,0 -2.5158,-1.13712 -2.5158,-2.54959 z"/><path id="rect139-2" style="fill:#aeb2b1;stroke-width:10.4342;stroke-linecap:round;stroke-linejoin:round;paint-order:stroke fill markers" d="M 1574.0664,42.371313 V -8.9932172 c 0,-1.3323498 1.0726,-2.4049598 2.405,-2.4049598 h 17.4083 c 1.3324,0 2.405,1.07261 2.405,2.4049598 V 42.371313 c 0,1.33235 -1.0726,2.40497 -2.405,2.40497 h -17.4083 c -1.3324,0 -2.405,-1.07262 -2.405,-2.40497 z"/><path id="path139-4" style="fill:#f0f2f2;fill-opacity:0.76378;stroke:none;stroke-width:10.4342;stroke-linecap:round;stroke-linejoin:round;stroke-opacity:1;paint-order:stroke fill markers" d="m 1577.9763,44.775843 h 8.6659 l -0.8425,-20.93296 c -0.8156,9.56693 -2.4952,17.88426 -7.8234,20.93296 z"/><path id="path140-5" style="fill:#99a09e;fill-opacity:1;stroke:none;stroke-width:10.4342;stroke-linecap:round;stroke-linejoin:round;stroke-opacity:1;paint-order:stroke fill markers" d="m 1585.2148,44.775843 h 8.6659 c 1.3323,0 2.4048,-1.07241 2.4048,-2.40475 V -8.9936772 c 0,-1.3323298 -1.0725,-2.4047998 -2.4048,-2.4047998 h -8.6659 z"/><g id="g20" transform="translate(8e-4,-5.0448626)"><path id="path19" style="fill:none;fill-opacity:1;stroke:#680505;stroke-width:2.01083;stroke-linecap:round;stroke-linejoin:round;stroke-dasharray:none;stroke-opacity:1;paint-order:stroke fill markers" d="m 1628.5761,5.8996425 c -0.46,0 -0.8917,0.074658 -1.295,0.2232785 -0.3963,0.1486209 -0.5943,0.300477 -0.5943,0.456175 V 13.9253 c 0,0.092 0.06,0.159518 0.18,0.20198 0.1274,0.03539 0.4039,0.0529 0.8285,0.0529 0.4318,0 0.8491,-0.02143 1.2525,-0.06389 0.4035,-0.04954 0.6053,-0.113136 0.6053,-0.190988 V 6.388107 c 0,-0.3255505 -0.3259,-0.4884645 -0.977,-0.4884645 z m 8.7828,0 c -0.4529,0 -0.8845,0.074658 -1.295,0.2232785 -0.4105,0.1486209 -0.6157,0.2972489 -0.6157,0.4458699 V 13.9253 c 0,0.092 0.057,0.159518 0.1698,0.20198 0.1133,0.03539 0.3858,0.0529 0.8175,0.0529 0.4318,0 0.8523,-0.02143 1.2627,-0.06389 0.4105,-0.04954 0.6163,-0.113136 0.6163,-0.190988 V 9.74278 c 0,-0.1910841 0.071,-0.2864838 0.2123,-0.2864838 0.1626,0 0.2653,0.1200557 0.3078,0.3606802 0.043,0.2406246 0.064,0.6261376 0.064,1.1569256 V 13.9253 h -6e-4 c 0,0.092 0.057,0.159518 0.1704,0.20198 0.1133,0.03539 0.3818,0.0529 0.8064,0.0529 0.4318,0 0.853,-0.02143 1.2635,-0.06389 0.4175,-0.04954 0.6258,-0.113136 0.6258,-0.190988 v -3.269484 c 0,-0.9624968 -0.12,-1.6563243 -0.3607,-2.0809548 -0.2334,-0.4317086 -0.6865,-0.6471635 -1.3588,-0.6471635 -0.467,0 -0.8987,0.1057705 -1.295,0.3180855 -0.2123,0.1132357 -0.3681,0.2443497 -0.4672,0.3929698 h -0.074 l 0.1169,-0.7323526 V 6.3455125 c 0,-0.063695 -0.021,-0.1233793 -0.064,-0.1799969 -0.1274,-0.1769296 -0.428,-0.2658731 -0.9021,-0.2658731 z m 51.4014,0 c -0.9837,0 -1.4757,0.3186851 -1.4757,0.9556318 0,0.6369466 0.4959,0.9556315 1.4867,0.9556315 0.9908,0 1.486,-0.3186849 1.486,-0.9556315 0,-0.3609365 -0.1344,-0.608879 -0.4033,-0.7433455 -0.2619,-0.1415436 -0.6266,-0.2122863 -1.0937,-0.2122863 z m -55.9941,0.095495 c -0.4104,0 -0.8317,0.067514 -1.2633,0.2019811 -0.4247,0.1344664 -0.637,0.3116664 -0.637,0.5310591 V 8.0122 h -0.3401 c -0.1415,0 -0.2583,0.1096855 -0.3503,0.3290774 -0.085,0.2123166 -0.1279,0.4602584 -0.1279,0.7433454 0,0.283087 0.029,0.5056856 0.085,0.6684617 0.057,0.1627748 0.124,0.2445756 0.202,0.2445756 h 0.531 v 1.6556959 c 0,1.096963 0.2583,1.819362 0.7749,2.166144 0.269,0.176927 0.5519,0.296982 0.8492,0.36068 0.2972,0.05662 0.6724,0.08519 1.1253,0.08519 0.453,0 0.7431,-0.06037 0.8704,-0.180684 0.1274,-0.120312 0.1911,-0.417567 0.1911,-0.89174 0,-0.240623 -0.014,-0.421051 -0.043,-0.541364 -0.028,-0.120312 -0.1062,-0.180683 -0.2336,-0.180683 -0.1203,0 -0.2617,-0.03894 -0.4246,-0.116792 -0.1627,-0.08493 -0.2438,-0.222496 -0.2438,-0.41358 V 9.9976601 h 0.6258 c 0.1272,0 0.2298,-0.109686 0.3077,-0.3290779 0.085,-0.2264699 0.1279,-0.5133551 0.1279,-0.8601373 0,-0.5307882 -0.092,-0.7962449 -0.2762,-0.7962449 h -0.7852 V 6.4732963 c 0,-0.3184731 -0.3219,-0.4781592 -0.966,-0.4781592 z m 51.8363,0 c -0.4104,0 -0.8317,0.067514 -1.2633,0.2019811 -0.4247,0.1344664 -0.637,0.3116664 -0.637,0.5310591 V 8.0122 h -0.3394 c -0.1414,0 -0.2583,0.1096855 -0.3503,0.3290774 -0.085,0.2123166 -0.1277,0.4602584 -0.1277,0.7433454 0,0.283087 0.028,0.5056856 0.085,0.6684617 0.057,0.1627748 0.1234,0.2445756 0.2014,0.2445756 h 0.531 v 1.6556959 c 0,1.096963 0.2583,1.819362 0.775,2.166144 0.2689,0.176927 0.5517,0.296982 0.8491,0.36068 0.2972,0.05662 0.6724,0.08519 1.1254,0.08519 0.4528,0 0.743,-0.06037 0.8703,-0.180684 0.1273,-0.120312 0.1918,-0.417567 0.1918,-0.89174 0,-0.240623 -0.014,-0.421051 -0.043,-0.541364 -0.028,-0.120312 -0.1062,-0.180683 -0.2336,-0.180683 -0.1204,0 -0.2617,-0.03894 -0.4246,-0.116792 -0.1628,-0.08493 -0.2446,-0.222496 -0.2446,-0.41358 V 9.9976601 h 0.6266 c 0.1272,0 0.2298,-0.109686 0.3079,-0.3290779 0.085,-0.2264699 0.1277,-0.5133551 0.1277,-0.8601373 0,-0.5307882 -0.092,-0.7962449 -0.2762,-0.7962449 h -0.786 V 6.4732963 c 0,-0.3184731 -0.3219,-0.4781592 -0.9659,-0.4781592 z m -37.6221,0.6368587 c -0.5094,0 -0.9696,0.077885 -1.3801,0.2335835 -0.4105,0.148621 -0.6157,0.3011641 -0.6157,0.4568621 V 13.9253 c 0,0.092 0.061,0.159518 0.1807,0.20198 0.1205,0.03539 0.3961,0.0529 0.8278,0.0529 0.4388,0 0.8737,-0.02143 1.3053,-0.06389 0.4317,-0.04954 0.6479,-0.113136 0.6479,-0.190988 V 7.1314524 c 0,-0.070772 -0.025,-0.1415144 -0.074,-0.2122861 -0.1416,-0.1910841 -0.4389,-0.2871705 -0.8918,-0.2871705 z m -39.9015,0.010992 c -0.4812,0 -0.9265,0.07397 -1.337,0.2225913 -0.4104,0.1415438 -0.6162,0.3012299 -0.6162,0.4781594 V 13.8724 c 0,0.106155 0.06,0.184039 0.1807,0.233584 0.1273,0.04954 0.4072,0.0742 0.8389,0.0742 0.4388,0 0.8703,-0.02857 1.295,-0.08519 0.4316,-0.05662 0.6471,-0.130588 0.6471,-0.222592 v -2.43133 h 0.9453 v 2.43133 c 0,0.106155 0.06,0.184039 0.18,0.233584 0.1275,0.04954 0.4072,0.0742 0.8389,0.0742 0.4316,0 0.8633,-0.02857 1.295,-0.08519 0.4317,-0.05662 0.6478,-0.130588 0.6478,-0.222592 V 7.1204603 c 0,-0.3184733 -0.3329,-0.4774723 -0.9981,-0.4774723 -0.4813,0 -0.9305,0.07397 -1.348,0.2225913 -0.4105,0.1415438 -0.6156,0.3012299 -0.6156,0.4781594 v 2.1125575 h -0.9453 V 7.1204603 c 0,-0.3184733 -0.3362,-0.4774723 -1.0085,-0.4774721 z m 51.837,1.2634124 c -0.4883,0 -0.9303,0.059685 -1.3266,0.1799967 -0.3893,0.1203124 -0.6794,0.2553403 -0.8704,0.4039618 -0.184,0.1486215 -0.3295,0.3426475 -0.4357,0.5832721 -0.099,0.2335465 -0.1554,0.4178889 -0.1696,0.5523571 -0.014,0.1273889 -0.021,0.3253315 -0.021,0.5942637 0,0.261856 0.071,0.509799 0.2123,0.743345 0.1415,0.22647 0.3188,0.389385 0.531,0.488464 0.2123,0.09908 0.4387,0.180191 0.6795,0.24389 0.2475,0.06369 0.4775,0.106547 0.6897,0.127784 0.2124,0.02123 0.3894,0.0634 0.531,0.127096 0.1416,0.05662 0.2123,0.137731 0.2123,0.243888 0,0.09908 -0.046,0.166592 -0.1381,0.201982 -0.085,0.03539 -0.2691,0.0529 -0.5524,0.0529 -0.276,0 -0.6194,-0.07788 -1.0297,-0.233584 -0.4033,-0.155697 -0.6402,-0.233584 -0.7111,-0.233584 -0.1275,0 -0.2761,0.194715 -0.4458,0.58396 -0.17,0.389245 -0.2551,0.729358 -0.2551,1.019523 0,0.113234 0.1384,0.230064 0.4144,0.350376 0.5448,0.22647 1.4049,0.339384 2.5797,0.339384 1.9745,0 2.9617,-0.693828 2.9617,-2.080957 0,-0.410475 -0.1025,-0.749903 -0.3077,-1.018836 -0.1981,-0.268933 -0.4422,-0.453276 -0.7324,-0.552355 -0.2831,-0.106159 -0.5661,-0.187273 -0.8492,-0.24389 -0.2831,-0.05662 -0.5279,-0.109851 -0.733,-0.159386 -0.1982,-0.05662 -0.2969,-0.137731 -0.2969,-0.2438881 0,-0.1698527 0.1487,-0.2548815 0.4459,-0.2548815 0.184,0 0.4702,0.063599 0.8595,0.1909883 0.3891,0.1203123 0.6404,0.1806833 0.7537,0.1806833 0.1203,0 0.2801,-0.1804267 0.4782,-0.5413635 0.1981,-0.3609367 0.2967,-0.679621 0.2967,-0.9556314 0,-0.1273889 -0.1026,-0.2442167 -0.3078,-0.3503757 -0.1203,-0.063694 -0.2761,-0.1201514 -0.4671,-0.1696912 -0.184,-0.04954 -0.4423,-0.088483 -0.775,-0.1167919 -0.3255,-0.035386 -0.7325,-0.0529 -1.2208,-0.0529 z m -42.6365,0.021297 c -0.5592,0 -1.0441,0.049314 -1.4545,0.1483943 -0.4105,0.09908 -0.7823,0.2723657 -1.115,0.5200669 -0.6723,0.4883257 -1.0079,1.3768666 -1.0079,2.6649142 0,0.332628 0.035,0.654541 0.1059,0.965936 0.049,0.212317 0.1169,0.40703 0.2019,0.583959 0.085,0.169853 0.2122,0.35028 0.382,0.541364 0.1769,0.191084 0.3789,0.353311 0.6053,0.487778 0.2336,0.127391 0.5308,0.233849 0.8917,0.318774 0.3678,0.08493 0.821,0.127096 1.3588,0.127096 0.545,0 1.1005,-0.07074 1.6668,-0.212286 0.5661,-0.141545 0.8492,-0.349857 0.8492,-0.625866 0,-0.191084 -0.1097,-0.48834 -0.3291,-0.89174 -0.2193,-0.403399 -0.3959,-0.605257 -0.5304,-0.605257 -0.021,0 -0.2375,0.08826 -0.6479,0.265186 -0.4105,0.169853 -0.7435,0.254882 -0.9981,0.254882 -0.439,0 -0.6582,-0.229742 -0.6582,-0.68976 h 0.3503 c 2.0099,0 3.0146,-0.662026 3.0146,-1.9854591 0,-1.2455851 -0.895,-1.8679823 -2.6854,-1.8679823 z m 6.5677,0 c -0.453,0 -0.9203,0.0636 -1.4015,0.1909891 -0.4741,0.1203123 -0.8422,0.2546542 -1.104,0.4032743 -0.2619,0.1486215 -0.3923,0.2686772 -0.3923,0.3606816 0,0.276009 0.1097,0.5843236 0.3292,0.9240291 0.2193,0.3326273 0.3927,0.4987703 0.52,0.4987703 0.057,0 0.1661,-0.04609 0.3291,-0.13809 0.1627,-0.09908 0.3644,-0.1944795 0.6051,-0.2864839 0.2479,-0.092003 0.4562,-0.1380882 0.626,-0.1380882 0.1767,0 0.3079,0.024653 0.3929,0.074196 0.1983,0.1203122 0.2976,0.3253961 0.2976,0.6155611 h -0.3505 c -0.552,0 -1.0582,0.06037 -1.5182,0.180684 -0.3044,0.08493 -0.5698,0.194611 -0.7963,0.329078 -0.2264,0.134467 -0.4211,0.325265 -0.5839,0.572967 -0.1557,0.247701 -0.2336,0.538502 -0.2336,0.871129 0,0.332628 0.053,0.622741 0.1594,0.870442 0.1132,0.247701 0.2443,0.435273 0.393,0.562662 0.3678,0.304205 0.8745,0.456061 1.5182,0.456176 0.7922,-2.02e-4 1.2769,-0.318887 1.4537,-0.955633 h 0.085 l 0.085,0.605257 c 0.014,0.07077 0.032,0.120086 0.053,0.148394 0.021,0.02831 0.085,0.05366 0.191,0.07488 0.1133,0.02124 0.354,0.0316 0.722,0.0316 0.3752,0 0.7502,-0.02143 1.1254,-0.06389 0.3821,-0.04954 0.573,-0.113136 0.573,-0.190988 v -3.195286 c 0,-0.382168 -0.025,-0.704082 -0.074,-0.9659371 -0.035,-0.2264699 -0.092,-0.4108123 -0.1698,-0.5523558 -0.071,-0.1415436 -0.1804,-0.3005427 -0.329,-0.4774721 -0.1416,-0.1769294 -0.3188,-0.3184144 -0.5311,-0.4245734 -0.2053,-0.1061576 -0.474,-0.1944139 -0.8066,-0.2651856 -0.3254,-0.077849 -0.715,-0.1167918 -1.1679,-0.1167918 z m 30.4889,0 c -0.2477,0 -0.4743,0.0318 -0.6795,0.095494 -0.5026,0.1627754 -0.8562,0.4489733 -1.0615,0.8594506 h -0.075 l -0.095,-0.4671676 c -0.057,-0.2618557 -0.3111,-0.392283 -0.764,-0.392283 -0.4529,0 -0.8851,0.073971 -1.2957,0.2225911 -0.4033,0.1486215 -0.6051,0.2972497 -0.6051,0.4458698 V 13.9253 c 0,0.092 0.064,0.159518 0.1915,0.20198 0.1274,0.03539 0.4033,0.0529 0.8279,0.0529 0.4318,0 0.8459,-0.02143 1.2421,-0.06389 0.4035,-0.04954 0.6053,-0.113136 0.6053,-0.190988 V 9.74278 c 0,-0.1910841 0.099,-0.2864838 0.2968,-0.2864838 0.1273,0 0.2162,0.066827 0.2658,0.2012942 0.021,0.077848 0.042,0.1667923 0.063,0.2658733 0.028,0.099079 0.043,0.3073933 0.043,0.6258663 v 3.37597 c 0,0.092 0.06,0.159518 0.1807,0.20198 0.1274,0.03539 0.4032,0.0529 0.8278,0.0529 0.4319,0 0.8497,-0.02143 1.2532,-0.06389 0.4033,-0.04954 0.6046,-0.113136 0.6046,-0.190988 v -3.269484 h 7e-4 c 0,-0.9624968 -0.128,-1.6563243 -0.3828,-2.0809548 -0.2476,-0.4317086 -0.7285,-0.6471635 -1.4433,-0.6471635 z m 13.7402,0 c -0.2902,0 -0.5452,0.035028 -0.7646,0.1057996 -0.2195,0.063695 -0.3888,0.1383528 -0.5092,0.2232778 -0.1132,0.084928 -0.2268,0.1946124 -0.34,0.3290792 -0.1133,0.1344629 -0.1768,0.2330893 -0.1909,0.2967884 h -0.085 c -0.078,-0.3750874 -0.1302,-0.587315 -0.1587,-0.6368595 -0.028,-0.049539 -0.103,-0.098854 -0.2232,-0.148394 -0.1205,-0.049541 -0.2865,-0.074197 -0.4988,-0.074197 -0.46,0 -0.8884,0.077886 -1.2847,0.233583 -0.3964,0.1556995 -0.5944,0.3075555 -0.5944,0.4561757 v 6.7519402 0 c 0,0.092 0.071,0.155598 0.2123,0.190988 0.1414,0.04246 0.4245,0.06389 0.8491,0.06389 0.4317,0 0.849,-0.02534 1.2524,-0.07488 0.4105,-0.04246 0.6156,-0.102144 0.6156,-0.179996 V 14.26537 l -0.1485,-0.955632 h 0.085 l 0.013,0.1058 c 0.028,0.14862 0.1308,0.318678 0.3079,0.509762 0.085,0.092 0.2128,0.173805 0.3826,0.244576 0.1769,0.0637 0.3779,0.09549 0.6045,0.09549 0.6299,0 1.1082,-0.1772 1.4338,-0.53106 0.1627,-0.176929 0.2971,-0.37487 0.4033,-0.594264 0.1061,-0.219393 0.1872,-0.481621 0.2439,-0.785939 0.057,-0.30432 0.096,-0.601576 0.1168,-0.89174 0.021,-0.297243 0.032,-0.594498 0.032,-0.891739 0,-0.304319 -0.01,-0.53406 -0.021,-0.6897598 -0.01,-0.1627747 -0.046,-0.3750023 -0.1167,-0.636858 -0.064,-0.2689338 -0.1558,-0.4883044 -0.2761,-0.6581559 -0.1133,-0.1769307 -0.2906,-0.3294727 -0.5311,-0.4568629 -0.2407,-0.1344661 -0.5094,-0.2012937 -0.8066,-0.2012937 z m 5.8773,0 c -0.559,0 -1.0438,0.049314 -1.4544,0.1483943 -0.4104,0.09908 -0.7817,0.2723657 -1.1143,0.5200669 -0.6723,0.4883257 -1.0085,1.3768666 -1.0085,2.6649142 0,0.332628 0.035,0.654541 0.1058,0.965936 0.049,0.212317 0.1168,0.40703 0.2019,0.583959 0.085,0.169853 0.2122,0.35028 0.3821,0.541364 0.177,0.191084 0.3788,0.353311 0.6052,0.487778 0.2336,0.127391 0.5308,0.233849 0.8918,0.318774 0.3681,0.08493 0.821,0.127096 1.3589,0.127096 0.545,0 1.1005,-0.07074 1.6666,-0.212286 0.5662,-0.141545 0.8491,-0.349857 0.8491,-0.625866 0,-0.191084 -0.1096,-0.48834 -0.329,-0.89174 -0.2194,-0.403399 -0.3966,-0.605257 -0.531,-0.605257 -0.021,0 -0.2366,0.08826 -0.6472,0.265186 -0.4105,0.169853 -0.7434,0.254882 -0.9982,0.254882 -0.4389,0 -0.6582,-0.229742 -0.6582,-0.68976 h 0.3504 c 2.0099,0 3.0146,-0.662026 3.0146,-1.9854591 0,-1.2455851 -0.8951,-1.8679823 -2.6856,-1.8679823 z m 6.3446,0 c -0.4884,0 -0.9764,0.1129138 -1.4647,0.3393833 -0.3043,0.1415448 -0.5737,0.321972 -0.8072,0.5413639 -0.2336,0.2193933 -0.4314,0.5309344 -0.5943,0.9343351 -0.1627,0.3963211 -0.2438,0.8493491 -0.2438,1.3589061 0,0.820954 0.1485,1.486209 0.4457,1.995766 0.1274,0.212316 0.2865,0.395972 0.4776,0.55167 0.1982,0.155694 0.3818,0.272522 0.5516,0.350374 0.4035,0.184008 0.9416,0.27618 1.6138,0.27618 0.6795,0 1.2175,-0.07397 1.6138,-0.222592 0.3963,-0.155698 0.5943,-0.42507 0.5943,-0.807238 0,-0.247701 -0.064,-0.530671 -0.1911,-0.849145 -0.1202,-0.318473 -0.2474,-0.477472 -0.3819,-0.477472 -0.035,0 -0.2088,0.07074 -0.5201,0.212286 -0.3114,0.141545 -0.5737,0.212286 -0.7859,0.212286 -0.2052,0 -0.357,-0.08503 -0.4562,-0.25488 -0.099,-0.176931 -0.149,-0.502758 -0.149,-0.976929 0,-0.481249 0.053,-0.803163 0.1594,-0.965938 0.1132,-0.1698526 0.2729,-0.25488 0.478,-0.25488 0.2125,0 0.4596,0.060371 0.7428,0.180684 0.2901,0.120312 0.4633,0.180684 0.5201,0.180684 0.1768,0 0.319,-0.170058 0.4251,-0.5097621 0.1133,-0.3467835 0.1698,-0.6726109 0.1698,-0.9769292 0,-0.3043197 -0.163,-0.5197751 -0.4884,-0.647164 -0.3186,-0.1273895 -0.8884,-0.1909891 -1.7094,-0.1909891 z m 14.9899,0 c -0.9767,0 -1.773,0.2265133 -2.3888,0.679453 -0.6581,0.488327 -0.9872,1.298295 -0.9872,2.4306434 0,1.273894 0.322,2.144234 0.9659,2.611328 0.3114,0.233547 0.658,0.396461 1.0402,0.488464 0.3822,0.092 0.8391,0.13809 1.3699,0.13809 1.0262,0 1.8432,-0.268684 2.452,-0.806552 0.6086,-0.544942 0.9129,-1.355598 0.9129,-2.43133 0,-0.530788 -0.06,-0.987044 -0.1807,-1.3692119 -0.1201,-0.3892447 -0.2759,-0.693644 -0.4671,-0.9130373 -0.184,-0.2193932 -0.4312,-0.3926773 -0.7426,-0.5200662 -0.3044,-0.1273892 -0.6055,-0.2091897 -0.9027,-0.244576 -0.2973,-0.042464 -0.6543,-0.063205 -1.0718,-0.063205 z m 8.5952,0 c -0.2478,0 -0.4742,0.0318 -0.6795,0.095494 -0.5023,0.1627754 -0.8568,0.4489733 -1.062,0.8594506 h -0.074 l -0.096,-0.4671676 c -0.057,-0.2618557 -0.3116,-0.392283 -0.7646,-0.392283 -0.4529,0 -0.8845,0.073971 -1.295,0.2225911 -0.4033,0.1486215 -0.6053,0.2972497 -0.6053,0.4458698 V 13.9253 c 0,0.092 0.064,0.159518 0.1911,0.20198 0.1273,0.03539 0.4037,0.0529 0.8285,0.0529 0.4315,0 0.8458,-0.02143 1.2421,-0.06389 0.4035,-0.04954 0.6053,-0.113136 0.6053,-0.190988 V 9.74278 c 0,-0.1910841 0.099,-0.2864838 0.2967,-0.2864838 0.1274,0 0.2155,0.066827 0.2652,0.2012942 0.021,0.077848 0.043,0.1667923 0.064,0.2658733 0.028,0.099079 0.043,0.3073933 0.043,0.6258663 v 3.37597 c 0,0.092 0.06,0.159518 0.1807,0.20198 0.1273,0.03539 0.4032,0.0529 0.8278,0.0529 0.4317,0 0.8497,-0.02143 1.2532,-0.06389 0.4033,-0.04954 0.6045,-0.113136 0.6045,-0.190988 v -3.269484 c 0,-0.9624968 -0.1271,-1.6563243 -0.382,-2.0809548 -0.2477,-0.4317086 -0.7287,-0.6471635 -1.4434,-0.6471635 z m -13.6454,0.2651855 c -0.4742,0 -0.9129,0.077887 -1.3163,0.2335838 -0.3964,0.1486215 -0.5943,0.3004762 -0.5943,0.4561757 V 13.9253 c 0,0.092 0.06,0.159518 0.1807,0.20198 0.1274,0.03539 0.4032,0.0529 0.8279,0.0529 0.4316,0 0.8489,-0.02143 1.2523,-0.06389 0.4105,-0.04954 0.6163,-0.113136 0.6163,-0.190988 V 8.691653 c 0,-0.3326275 -0.3225,-0.4987698 -0.9666,-0.4987699 z m -23.6696,1.2524211 c 0.1272,0 0.2233,0.120743 0.2872,0.3613675 0.064,0.2406243 0.096,0.6611643 0.096,1.2627253 0,1.096964 -0.124,1.646077 -0.3717,1.646077 -0.1911,0 -0.2865,-0.09217 -0.2865,-0.276178 V 9.6575904 c 0.057,-0.1415436 0.1481,-0.2122861 0.2755,-0.2122861 z m -49.618,0.010992 c 0.2193,0 0.3292,0.2122275 0.3292,0.6368578 0,0.233548 -0.067,0.431489 -0.2013,0.594266 -0.1274,0.162774 -0.2942,0.244575 -0.4995,0.244575 v -0.700751 c 0,-0.516635 0.1239,-0.7749478 0.3716,-0.7749478 z m 56.6743,0 c 0.2194,0 0.329,0.2122275 0.329,0.6368578 0,0.233548 -0.067,0.431489 -0.2019,0.594266 -0.1276,0.162774 -0.2936,0.244575 -0.4988,0.244575 v -0.700751 c 0,-0.516635 0.124,-0.7749478 0.3717,-0.7749478 z m 21.6628,0.010305 c 0.092,0 0.1698,0.046087 0.2336,0.1380896 0.043,0.063695 0.075,0.1519505 0.096,0.2651861 0.028,0.1132356 0.049,0.2761491 0.063,0.4884631 0.021,0.205239 0.032,0.502495 0.032,0.891741 0,0.382168 -0.025,0.700853 -0.075,0.955632 -0.042,0.254775 -0.092,0.406631 -0.1485,0.456174 -0.049,0.04954 -0.1201,0.0742 -0.2121,0.0742 -0.085,0 -0.1557,-0.02465 -0.2124,-0.0742 -0.049,-0.04954 -0.099,-0.201397 -0.1483,-0.456174 h -8e-4 c -0.05,-0.254779 -0.074,-0.61955 -0.074,-1.093721 0,-0.474171 0.025,-0.838255 0.074,-1.093034 0.049,-0.2618514 0.1027,-0.4176227 0.1594,-0.4671672 0.056,-0.056616 0.1272,-0.08519 0.2123,-0.08519 z m -71.2279,1.8047768 v 1.242115 c 0,0.05661 -0.028,0.109843 -0.085,0.159386 -0.049,0.04246 -0.1202,0.06321 -0.2122,0.06321 -0.2124,0 -0.3181,-0.23297 -0.3181,-0.700064 0,-0.198161 0.056,-0.375361 0.1696,-0.53106 0.1133,-0.155697 0.2619,-0.233582 0.4459,-0.233582 z"/><path id="path18" style="fill:none;fill-opacity:1;stroke:#8d0707;stroke-width:1.24354;stroke-linecap:round;stroke-linejoin:round;stroke-dasharray:none;stroke-opacity:1;paint-order:stroke fill markers" d="m 1628.5761,5.8996425 c -0.46,0 -0.8917,0.074658 -1.295,0.2232785 -0.3963,0.1486209 -0.5943,0.300477 -0.5943,0.456175 V 13.9253 c 0,0.092 0.06,0.159518 0.18,0.20198 0.1274,0.03539 0.4039,0.0529 0.8285,0.0529 0.4318,0 0.8491,-0.02143 1.2525,-0.06389 0.4035,-0.04954 0.6053,-0.113136 0.6053,-0.190988 V 6.388107 c 0,-0.3255505 -0.3259,-0.4884645 -0.977,-0.4884645 z m 8.7828,0 c -0.4529,0 -0.8845,0.074658 -1.295,0.2232785 -0.4105,0.1486209 -0.6157,0.2972489 -0.6157,0.4458699 V 13.9253 c 0,0.092 0.057,0.159518 0.1698,0.20198 0.1133,0.03539 0.3858,0.0529 0.8175,0.0529 0.4318,0 0.8523,-0.02143 1.2627,-0.06389 0.4105,-0.04954 0.6163,-0.113136 0.6163,-0.190988 V 9.74278 c 0,-0.1910841 0.071,-0.2864838 0.2123,-0.2864838 0.1626,0 0.2653,0.1200557 0.3078,0.3606802 0.043,0.2406246 0.064,0.6261376 0.064,1.1569256 V 13.9253 h -6e-4 c 0,0.092 0.057,0.159518 0.1704,0.20198 0.1133,0.03539 0.3818,0.0529 0.8064,0.0529 0.4318,0 0.853,-0.02143 1.2635,-0.06389 0.4175,-0.04954 0.6258,-0.113136 0.6258,-0.190988 v -3.269484 c 0,-0.9624968 -0.12,-1.6563243 -0.3607,-2.0809548 -0.2334,-0.4317086 -0.6865,-0.6471635 -1.3588,-0.6471635 -0.467,0 -0.8987,0.1057705 -1.295,0.3180855 -0.2123,0.1132357 -0.3681,0.2443497 -0.4672,0.3929698 h -0.074 l 0.1169,-0.7323526 V 6.3455125 c 0,-0.063695 -0.021,-0.1233793 -0.064,-0.1799969 -0.1274,-0.1769296 -0.428,-0.2658731 -0.9021,-0.2658731 z m 51.4014,0 c -0.9837,0 -1.4757,0.3186851 -1.4757,0.9556318 0,0.6369466 0.4959,0.9556315 1.4867,0.9556315 0.9908,0 1.486,-0.3186849 1.486,-0.9556315 0,-0.3609365 -0.1344,-0.608879 -0.4033,-0.7433455 -0.2619,-0.1415436 -0.6266,-0.2122863 -1.0937,-0.2122863 z m -55.9941,0.095495 c -0.4104,0 -0.8317,0.067514 -1.2633,0.2019811 -0.4247,0.1344664 -0.637,0.3116664 -0.637,0.5310591 V 8.0122 h -0.3401 c -0.1415,0 -0.2583,0.1096855 -0.3503,0.3290774 -0.085,0.2123166 -0.1279,0.4602584 -0.1279,0.7433454 0,0.283087 0.029,0.5056856 0.085,0.6684617 0.057,0.1627748 0.124,0.2445756 0.202,0.2445756 h 0.531 v 1.6556959 c 0,1.096963 0.2583,1.819362 0.7749,2.166144 0.269,0.176927 0.5519,0.296982 0.8492,0.36068 0.2972,0.05662 0.6724,0.08519 1.1253,0.08519 0.453,0 0.7431,-0.06037 0.8704,-0.180684 0.1274,-0.120312 0.1911,-0.417567 0.1911,-0.89174 0,-0.240623 -0.014,-0.421051 -0.043,-0.541364 -0.028,-0.120312 -0.1062,-0.180683 -0.2336,-0.180683 -0.1203,0 -0.2617,-0.03894 -0.4246,-0.116792 -0.1627,-0.08493 -0.2438,-0.222496 -0.2438,-0.41358 V 9.9976601 h 0.6258 c 0.1272,0 0.2298,-0.109686 0.3077,-0.3290779 0.085,-0.2264699 0.1279,-0.5133551 0.1279,-0.8601373 0,-0.5307882 -0.092,-0.7962449 -0.2762,-0.7962449 h -0.7852 V 6.4732963 c 0,-0.3184731 -0.3219,-0.4781592 -0.966,-0.4781592 z m 51.8363,0 c -0.4104,0 -0.8317,0.067514 -1.2633,0.2019811 -0.4247,0.1344664 -0.637,0.3116664 -0.637,0.5310591 V 8.0122 h -0.3394 c -0.1414,0 -0.2583,0.1096855 -0.3503,0.3290774 -0.085,0.2123166 -0.1277,0.4602584 -0.1277,0.7433454 0,0.283087 0.028,0.5056856 0.085,0.6684617 0.057,0.1627748 0.1234,0.2445756 0.2014,0.2445756 h 0.531 v 1.6556959 c 0,1.096963 0.2583,1.819362 0.775,2.166144 0.2689,0.176927 0.5517,0.296982 0.8491,0.36068 0.2972,0.05662 0.6724,0.08519 1.1254,0.08519 0.4528,0 0.743,-0.06037 0.8703,-0.180684 0.1273,-0.120312 0.1918,-0.417567 0.1918,-0.89174 0,-0.240623 -0.014,-0.421051 -0.043,-0.541364 -0.028,-0.120312 -0.1062,-0.180683 -0.2336,-0.180683 -0.1204,0 -0.2617,-0.03894 -0.4246,-0.116792 -0.1628,-0.08493 -0.2446,-0.222496 -0.2446,-0.41358 V 9.9976601 h 0.6266 c 0.1272,0 0.2298,-0.109686 0.3079,-0.3290779 0.085,-0.2264699 0.1277,-0.5133551 0.1277,-0.8601373 0,-0.5307882 -0.092,-0.7962449 -0.2762,-0.7962449 h -0.786 V 6.4732963 c 0,-0.3184731 -0.3219,-0.4781592 -0.9659,-0.4781592 z m -37.6221,0.6368587 c -0.5094,0 -0.9696,0.077885 -1.3801,0.2335835 -0.4105,0.148621 -0.6157,0.3011641 -0.6157,0.4568621 V 13.9253 c 0,0.092 0.061,0.159518 0.1807,0.20198 0.1205,0.03539 0.3961,0.0529 0.8278,0.0529 0.4388,0 0.8737,-0.02143 1.3053,-0.06389 0.4317,-0.04954 0.6479,-0.113136 0.6479,-0.190988 V 7.1314524 c 0,-0.070772 -0.025,-0.1415144 -0.074,-0.2122861 -0.1416,-0.1910841 -0.4389,-0.2871705 -0.8918,-0.2871705 z m -39.9015,0.010992 c -0.4812,0 -0.9265,0.07397 -1.337,0.2225913 -0.4104,0.1415438 -0.6162,0.3012299 -0.6162,0.4781594 V 13.8724 c 0,0.106155 0.06,0.184039 0.1807,0.233584 0.1273,0.04954 0.4072,0.0742 0.8389,0.0742 0.4388,0 0.8703,-0.02857 1.295,-0.08519 0.4316,-0.05662 0.6471,-0.130588 0.6471,-0.222592 v -2.43133 h 0.9453 v 2.43133 c 0,0.106155 0.06,0.184039 0.18,0.233584 0.1275,0.04954 0.4072,0.0742 0.8389,0.0742 0.4316,0 0.8633,-0.02857 1.295,-0.08519 0.4317,-0.05662 0.6478,-0.130588 0.6478,-0.222592 V 7.1204603 c 0,-0.3184733 -0.3329,-0.4774723 -0.9981,-0.4774723 -0.4813,0 -0.9305,0.07397 -1.348,0.2225913 -0.4105,0.1415438 -0.6156,0.3012299 -0.6156,0.4781594 v 2.1125575 h -0.9453 V 7.1204603 c 0,-0.3184733 -0.3362,-0.4774723 -1.0085,-0.4774721 z m 51.837,1.2634124 c -0.4883,0 -0.9303,0.059685 -1.3266,0.1799967 -0.3893,0.1203124 -0.6794,0.2553403 -0.8704,0.4039618 -0.184,0.1486215 -0.3295,0.3426475 -0.4357,0.5832721 -0.099,0.2335465 -0.1554,0.4178889 -0.1696,0.5523571 -0.014,0.1273889 -0.021,0.3253315 -0.021,0.5942637 0,0.261856 0.071,0.509799 0.2123,0.743345 0.1415,0.22647 0.3188,0.389385 0.531,0.488464 0.2123,0.09908 0.4387,0.180191 0.6795,0.24389 0.2475,0.06369 0.4775,0.106547 0.6897,0.127784 0.2124,0.02123 0.3894,0.0634 0.531,0.127096 0.1416,0.05662 0.2123,0.137731 0.2123,0.243888 0,0.09908 -0.046,0.166592 -0.1381,0.201982 -0.085,0.03539 -0.2691,0.0529 -0.5524,0.0529 -0.276,0 -0.6194,-0.07788 -1.0297,-0.233584 -0.4033,-0.155697 -0.6402,-0.233584 -0.7111,-0.233584 -0.1275,0 -0.2761,0.194715 -0.4458,0.58396 -0.17,0.389245 -0.2551,0.729358 -0.2551,1.019523 0,0.113234 0.1384,0.230064 0.4144,0.350376 0.5448,0.22647 1.4049,0.339384 2.5797,0.339384 1.9745,0 2.9617,-0.693828 2.9617,-2.080957 0,-0.410475 -0.1025,-0.749903 -0.3077,-1.018836 -0.1981,-0.268933 -0.4422,-0.453276 -0.7324,-0.552355 -0.2831,-0.106159 -0.5661,-0.187273 -0.8492,-0.24389 -0.2831,-0.05662 -0.5279,-0.109851 -0.733,-0.159386 -0.1982,-0.05662 -0.2969,-0.137731 -0.2969,-0.2438881 0,-0.1698527 0.1487,-0.2548815 0.4459,-0.2548815 0.184,0 0.4702,0.063599 0.8595,0.1909883 0.3891,0.1203123 0.6404,0.1806833 0.7537,0.1806833 0.1203,0 0.2801,-0.1804267 0.4782,-0.5413635 0.1981,-0.3609367 0.2967,-0.679621 0.2967,-0.9556314 0,-0.1273889 -0.1026,-0.2442167 -0.3078,-0.3503757 -0.1203,-0.063694 -0.2761,-0.1201514 -0.4671,-0.1696912 -0.184,-0.04954 -0.4423,-0.088483 -0.775,-0.1167919 -0.3255,-0.035386 -0.7325,-0.0529 -1.2208,-0.0529 z m -42.6365,0.021297 c -0.5592,0 -1.0441,0.049314 -1.4545,0.1483943 -0.4105,0.09908 -0.7823,0.2723657 -1.115,0.5200669 -0.6723,0.4883257 -1.0079,1.3768666 -1.0079,2.6649142 0,0.332628 0.035,0.654541 0.1059,0.965936 0.049,0.212317 0.1169,0.40703 0.2019,0.583959 0.085,0.169853 0.2122,0.35028 0.382,0.541364 0.1769,0.191084 0.3789,0.353311 0.6053,0.487778 0.2336,0.127391 0.5308,0.233849 0.8917,0.318774 0.3678,0.08493 0.821,0.127096 1.3588,0.127096 0.545,0 1.1005,-0.07074 1.6668,-0.212286 0.5661,-0.141545 0.8492,-0.349857 0.8492,-0.625866 0,-0.191084 -0.1097,-0.48834 -0.3291,-0.89174 -0.2193,-0.403399 -0.3959,-0.605257 -0.5304,-0.605257 -0.021,0 -0.2375,0.08826 -0.6479,0.265186 -0.4105,0.169853 -0.7435,0.254882 -0.9981,0.254882 -0.439,0 -0.6582,-0.229742 -0.6582,-0.68976 h 0.3503 c 2.0099,0 3.0146,-0.662026 3.0146,-1.9854591 0,-1.2455851 -0.895,-1.8679823 -2.6854,-1.8679823 z m 6.5677,0 c -0.453,0 -0.9203,0.0636 -1.4015,0.1909891 -0.4741,0.1203123 -0.8422,0.2546542 -1.104,0.4032743 -0.2619,0.1486215 -0.3923,0.2686772 -0.3923,0.3606816 0,0.276009 0.1097,0.5843236 0.3292,0.9240291 0.2193,0.3326273 0.3927,0.4987703 0.52,0.4987703 0.057,0 0.1661,-0.04609 0.3291,-0.13809 0.1627,-0.09908 0.3644,-0.1944795 0.6051,-0.2864839 0.2479,-0.092003 0.4562,-0.1380882 0.626,-0.1380882 0.1767,0 0.3079,0.024653 0.3929,0.074196 0.1983,0.1203122 0.2976,0.3253961 0.2976,0.6155611 h -0.3505 c -0.552,0 -1.0582,0.06037 -1.5182,0.180684 -0.3044,0.08493 -0.5698,0.194611 -0.7963,0.329078 -0.2264,0.134467 -0.4211,0.325265 -0.5839,0.572967 -0.1557,0.247701 -0.2336,0.538502 -0.2336,0.871129 0,0.332628 0.053,0.622741 0.1594,0.870442 0.1132,0.247701 0.2443,0.435273 0.393,0.562662 0.3678,0.304205 0.8745,0.456061 1.5182,0.456176 0.7922,-2.02e-4 1.2769,-0.318887 1.4537,-0.955633 h 0.085 l 0.085,0.605257 c 0.014,0.07077 0.032,0.120086 0.053,0.148394 0.021,0.02831 0.085,0.05366 0.191,0.07488 0.1133,0.02124 0.354,0.0316 0.722,0.0316 0.3752,0 0.7502,-0.02143 1.1254,-0.06389 0.3821,-0.04954 0.573,-0.113136 0.573,-0.190988 v -3.195286 c 0,-0.382168 -0.025,-0.704082 -0.074,-0.9659371 -0.035,-0.2264699 -0.092,-0.4108123 -0.1698,-0.5523558 -0.071,-0.1415436 -0.1804,-0.3005427 -0.329,-0.4774721 -0.1416,-0.1769294 -0.3188,-0.3184144 -0.5311,-0.4245734 -0.2053,-0.1061576 -0.474,-0.1944139 -0.8066,-0.2651856 -0.3254,-0.077849 -0.715,-0.1167918 -1.1679,-0.1167918 z m 30.4889,0 c -0.2477,0 -0.4743,0.0318 -0.6795,0.095494 -0.5026,0.1627754 -0.8562,0.4489733 -1.0615,0.8594506 h -0.075 l -0.095,-0.4671676 c -0.057,-0.2618557 -0.3111,-0.392283 -0.764,-0.392283 -0.4529,0 -0.8851,0.073971 -1.2957,0.2225911 -0.4033,0.1486215 -0.6051,0.2972497 -0.6051,0.4458698 V 13.9253 c 0,0.092 0.064,0.159518 0.1915,0.20198 0.1274,0.03539 0.4033,0.0529 0.8279,0.0529 0.4318,0 0.8459,-0.02143 1.2421,-0.06389 0.4035,-0.04954 0.6053,-0.113136 0.6053,-0.190988 V 9.74278 c 0,-0.1910841 0.099,-0.2864838 0.2968,-0.2864838 0.1273,0 0.2162,0.066827 0.2658,0.2012942 0.021,0.077848 0.042,0.1667923 0.063,0.2658733 0.028,0.099079 0.043,0.3073933 0.043,0.6258663 v 3.37597 c 0,0.092 0.06,0.159518 0.1807,0.20198 0.1274,0.03539 0.4032,0.0529 0.8278,0.0529 0.4319,0 0.8497,-0.02143 1.2532,-0.06389 0.4033,-0.04954 0.6046,-0.113136 0.6046,-0.190988 v -3.269484 h 7e-4 c 0,-0.9624968 -0.128,-1.6563243 -0.3828,-2.0809548 -0.2476,-0.4317086 -0.7285,-0.6471635 -1.4433,-0.6471635 z m 13.7402,0 c -0.2902,0 -0.5452,0.035028 -0.7646,0.1057996 -0.2195,0.063695 -0.3888,0.1383528 -0.5092,0.2232778 -0.1132,0.084928 -0.2268,0.1946124 -0.34,0.3290792 -0.1133,0.1344629 -0.1768,0.2330893 -0.1909,0.2967884 h -0.085 c -0.078,-0.3750874 -0.1302,-0.587315 -0.1587,-0.6368595 -0.028,-0.049539 -0.103,-0.098854 -0.2232,-0.148394 -0.1205,-0.049541 -0.2865,-0.074197 -0.4988,-0.074197 -0.46,0 -0.8884,0.077886 -1.2847,0.233583 -0.3964,0.1556995 -0.5944,0.3075555 -0.5944,0.4561757 v 6.7519402 0 c 0,0.092 0.071,0.155598 0.2123,0.190988 0.1414,0.04246 0.4245,0.06389 0.8491,0.06389 0.4317,0 0.849,-0.02534 1.2524,-0.07488 0.4105,-0.04246 0.6156,-0.102144 0.6156,-0.179996 V 14.26537 l -0.1485,-0.955632 h 0.085 l 0.013,0.1058 c 0.028,0.14862 0.1308,0.318678 0.3079,0.509762 0.085,0.092 0.2128,0.173805 0.3826,0.244576 0.1769,0.0637 0.3779,0.09549 0.6045,0.09549 0.6299,0 1.1082,-0.1772 1.4338,-0.53106 0.1627,-0.176929 0.2971,-0.37487 0.4033,-0.594264 0.1061,-0.219393 0.1872,-0.481621 0.2439,-0.785939 0.057,-0.30432 0.096,-0.601576 0.1168,-0.89174 0.021,-0.297243 0.032,-0.594498 0.032,-0.891739 0,-0.304319 -0.01,-0.53406 -0.021,-0.6897598 -0.01,-0.1627747 -0.046,-0.3750023 -0.1167,-0.636858 -0.064,-0.2689338 -0.1558,-0.4883044 -0.2761,-0.6581559 -0.1133,-0.1769307 -0.2906,-0.3294727 -0.5311,-0.4568629 -0.2407,-0.1344661 -0.5094,-0.2012937 -0.8066,-0.2012937 z m 5.8773,0 c -0.559,0 -1.0438,0.049314 -1.4544,0.1483943 -0.4104,0.09908 -0.7817,0.2723657 -1.1143,0.5200669 -0.6723,0.4883257 -1.0085,1.3768666 -1.0085,2.6649142 0,0.332628 0.035,0.654541 0.1058,0.965936 0.049,0.212317 0.1168,0.40703 0.2019,0.583959 0.085,0.169853 0.2122,0.35028 0.3821,0.541364 0.177,0.191084 0.3788,0.353311 0.6052,0.487778 0.2336,0.127391 0.5308,0.233849 0.8918,0.318774 0.3681,0.08493 0.821,0.127096 1.3589,0.127096 0.545,0 1.1005,-0.07074 1.6666,-0.212286 0.5662,-0.141545 0.8491,-0.349857 0.8491,-0.625866 0,-0.191084 -0.1096,-0.48834 -0.329,-0.89174 -0.2194,-0.403399 -0.3966,-0.605257 -0.531,-0.605257 -0.021,0 -0.2366,0.08826 -0.6472,0.265186 -0.4105,0.169853 -0.7434,0.254882 -0.9982,0.254882 -0.4389,0 -0.6582,-0.229742 -0.6582,-0.68976 h 0.3504 c 2.0099,0 3.0146,-0.662026 3.0146,-1.9854591 0,-1.2455851 -0.8951,-1.8679823 -2.6856,-1.8679823 z m 6.3446,0 c -0.4884,0 -0.9764,0.1129138 -1.4647,0.3393833 -0.3043,0.1415448 -0.5737,0.321972 -0.8072,0.5413639 -0.2336,0.2193933 -0.4314,0.5309344 -0.5943,0.9343351 -0.1627,0.3963211 -0.2438,0.8493491 -0.2438,1.3589061 0,0.820954 0.1485,1.486209 0.4457,1.995766 0.1274,0.212316 0.2865,0.395972 0.4776,0.55167 0.1982,0.155694 0.3818,0.272522 0.5516,0.350374 0.4035,0.184008 0.9416,0.27618 1.6138,0.27618 0.6795,0 1.2175,-0.07397 1.6138,-0.222592 0.3963,-0.155698 0.5943,-0.42507 0.5943,-0.807238 0,-0.247701 -0.064,-0.530671 -0.1911,-0.849145 -0.1202,-0.318473 -0.2474,-0.477472 -0.3819,-0.477472 -0.035,0 -0.2088,0.07074 -0.5201,0.212286 -0.3114,0.141545 -0.5737,0.212286 -0.7859,0.212286 -0.2052,0 -0.357,-0.08503 -0.4562,-0.25488 -0.099,-0.176931 -0.149,-0.502758 -0.149,-0.976929 0,-0.481249 0.053,-0.803163 0.1594,-0.965938 0.1132,-0.1698526 0.2729,-0.25488 0.478,-0.25488 0.2125,0 0.4596,0.060371 0.7428,0.180684 0.2901,0.120312 0.4633,0.180684 0.5201,0.180684 0.1768,0 0.319,-0.170058 0.4251,-0.5097621 0.1133,-0.3467835 0.1698,-0.6726109 0.1698,-0.9769292 0,-0.3043197 -0.163,-0.5197751 -0.4884,-0.647164 -0.3186,-0.1273895 -0.8884,-0.1909891 -1.7094,-0.1909891 z m 14.9899,0 c -0.9767,0 -1.773,0.2265133 -2.3888,0.679453 -0.6581,0.488327 -0.9872,1.298295 -0.9872,2.4306434 0,1.273894 0.322,2.144234 0.9659,2.611328 0.3114,0.233547 0.658,0.396461 1.0402,0.488464 0.3822,0.092 0.8391,0.13809 1.3699,0.13809 1.0262,0 1.8432,-0.268684 2.452,-0.806552 0.6086,-0.544942 0.9129,-1.355598 0.9129,-2.43133 0,-0.530788 -0.06,-0.987044 -0.1807,-1.3692119 -0.1201,-0.3892447 -0.2759,-0.693644 -0.4671,-0.9130373 -0.184,-0.2193932 -0.4312,-0.3926773 -0.7426,-0.5200662 -0.3044,-0.1273892 -0.6055,-0.2091897 -0.9027,-0.244576 -0.2973,-0.042464 -0.6543,-0.063205 -1.0718,-0.063205 z m 8.5952,0 c -0.2478,0 -0.4742,0.0318 -0.6795,0.095494 -0.5023,0.1627754 -0.8568,0.4489733 -1.062,0.8594506 h -0.074 l -0.096,-0.4671676 c -0.057,-0.2618557 -0.3116,-0.392283 -0.7646,-0.392283 -0.4529,0 -0.8845,0.073971 -1.295,0.2225911 -0.4033,0.1486215 -0.6053,0.2972497 -0.6053,0.4458698 V 13.9253 c 0,0.092 0.064,0.159518 0.1911,0.20198 0.1273,0.03539 0.4037,0.0529 0.8285,0.0529 0.4315,0 0.8458,-0.02143 1.2421,-0.06389 0.4035,-0.04954 0.6053,-0.113136 0.6053,-0.190988 V 9.74278 c 0,-0.1910841 0.099,-0.2864838 0.2967,-0.2864838 0.1274,0 0.2155,0.066827 0.2652,0.2012942 0.021,0.077848 0.043,0.1667923 0.064,0.2658733 0.028,0.099079 0.043,0.3073933 0.043,0.6258663 v 3.37597 c 0,0.092 0.06,0.159518 0.1807,0.20198 0.1273,0.03539 0.4032,0.0529 0.8278,0.0529 0.4317,0 0.8497,-0.02143 1.2532,-0.06389 0.4033,-0.04954 0.6045,-0.113136 0.6045,-0.190988 v -3.269484 c 0,-0.9624968 -0.1271,-1.6563243 -0.382,-2.0809548 -0.2477,-0.4317086 -0.7287,-0.6471635 -1.4434,-0.6471635 z m -13.6454,0.2651855 c -0.4742,0 -0.9129,0.077887 -1.3163,0.2335838 -0.3964,0.1486215 -0.5943,0.3004762 -0.5943,0.4561757 V 13.9253 c 0,0.092 0.06,0.159518 0.1807,0.20198 0.1274,0.03539 0.4032,0.0529 0.8279,0.0529 0.4316,0 0.8489,-0.02143 1.2523,-0.06389 0.4105,-0.04954 0.6163,-0.113136 0.6163,-0.190988 V 8.691653 c 0,-0.3326275 -0.3225,-0.4987698 -0.9666,-0.4987699 z m -23.6696,1.2524211 c 0.1272,0 0.2233,0.120743 0.2872,0.3613675 0.064,0.2406243 0.096,0.6611643 0.096,1.2627253 0,1.096964 -0.124,1.646077 -0.3717,1.646077 -0.1911,0 -0.2865,-0.09217 -0.2865,-0.276178 V 9.6575904 c 0.057,-0.1415436 0.1481,-0.2122861 0.2755,-0.2122861 z m -49.618,0.010992 c 0.2193,0 0.3292,0.2122275 0.3292,0.6368578 0,0.233548 -0.067,0.431489 -0.2013,0.594266 -0.1274,0.162774 -0.2942,0.244575 -0.4995,0.244575 v -0.700751 c 0,-0.516635 0.1239,-0.7749478 0.3716,-0.7749478 z m 56.6743,0 c 0.2194,0 0.329,0.2122275 0.329,0.6368578 0,0.233548 -0.067,0.431489 -0.2019,0.594266 -0.1276,0.162774 -0.2936,0.244575 -0.4988,0.244575 v -0.700751 c 0,-0.516635 0.124,-0.7749478 0.3717,-0.7749478 z m 21.6628,0.010305 c 0.092,0 0.1698,0.046087 0.2336,0.1380896 0.043,0.063695 0.075,0.1519505 0.096,0.2651861 0.028,0.1132356 0.049,0.2761491 0.063,0.4884631 0.021,0.205239 0.032,0.502495 0.032,0.891741 0,0.382168 -0.025,0.700853 -0.075,0.955632 -0.042,0.254775 -0.092,0.406631 -0.1485,0.456174 -0.049,0.04954 -0.1201,0.0742 -0.2121,0.0742 -0.085,0 -0.1557,-0.02465 -0.2124,-0.0742 -0.049,-0.04954 -0.099,-0.201397 -0.1483,-0.456174 h -8e-4 c -0.05,-0.254779 -0.074,-0.61955 -0.074,-1.093721 0,-0.474171 0.025,-0.838255 0.074,-1.093034 0.049,-0.2618514 0.1027,-0.4176227 0.1594,-0.4671672 0.056,-0.056616 0.1272,-0.08519 0.2123,-0.08519 z m -71.2279,1.8047768 v 1.242115 c 0,0.05661 -0.028,0.109843 -0.085,0.159386 -0.049,0.04246 -0.1202,0.06321 -0.2122,0.06321 -0.2124,0 -0.3181,-0.23297 -0.3181,-0.700064 0,-0.198161 0.056,-0.375361 0.1696,-0.53106 0.1133,-0.155697 0.2619,-0.233582 0.4459,-0.233582 z"/><path id="rect3" style="fill:#ff2424;fill-opacity:1;stroke:none;stroke-width:59.7479;stroke-linecap:round;stroke-linejoin:round;paint-order:stroke fill markers" d="m 1628.5761,5.8996425 c -0.46,0 -0.8917,0.074658 -1.295,0.2232785 -0.3963,0.1486209 -0.5943,0.300477 -0.5943,0.456175 V 13.9253 c 0,0.092 0.06,0.159518 0.18,0.20198 0.1274,0.03539 0.4039,0.0529 0.8285,0.0529 0.4318,0 0.8491,-0.02143 1.2525,-0.06389 0.4035,-0.04954 0.6053,-0.113136 0.6053,-0.190988 V 6.388107 c 0,-0.3255505 -0.3259,-0.4884645 -0.977,-0.4884645 z m 8.7828,0 c -0.4529,0 -0.8845,0.074658 -1.295,0.2232785 -0.4105,0.1486209 -0.6157,0.2972489 -0.6157,0.4458699 V 13.9253 c 0,0.092 0.057,0.159518 0.1698,0.20198 0.1133,0.03539 0.3858,0.0529 0.8175,0.0529 0.4318,0 0.8523,-0.02143 1.2627,-0.06389 0.4105,-0.04954 0.6163,-0.113136 0.6163,-0.190988 V 9.74278 c 0,-0.1910841 0.071,-0.2864838 0.2123,-0.2864838 0.1626,0 0.2653,0.1200557 0.3078,0.3606802 0.043,0.2406246 0.064,0.6261376 0.064,1.1569256 V 13.9253 h -6e-4 c 0,0.092 0.057,0.159518 0.1704,0.20198 0.1133,0.03539 0.3818,0.0529 0.8064,0.0529 0.4318,0 0.853,-0.02143 1.2635,-0.06389 0.4175,-0.04954 0.6258,-0.113136 0.6258,-0.190988 v -3.269484 c 0,-0.9624968 -0.12,-1.6563243 -0.3607,-2.0809548 -0.2334,-0.4317086 -0.6865,-0.6471635 -1.3588,-0.6471635 -0.467,0 -0.8987,0.1057705 -1.295,0.3180855 -0.2123,0.1132357 -0.3681,0.2443497 -0.4672,0.3929698 h -0.074 l 0.1169,-0.7323526 V 6.3455125 c 0,-0.063695 -0.021,-0.1233793 -0.064,-0.1799969 -0.1274,-0.1769296 -0.428,-0.2658731 -0.9021,-0.2658731 z m 51.4014,0 c -0.9837,0 -1.4757,0.3186851 -1.4757,0.9556318 0,0.6369466 0.4959,0.9556315 1.4867,0.9556315 0.9908,0 1.486,-0.3186849 1.486,-0.9556315 0,-0.3609365 -0.1344,-0.608879 -0.4033,-0.7433455 -0.2619,-0.1415436 -0.6266,-0.2122863 -1.0937,-0.2122863 z m -55.9941,0.095495 c -0.4104,0 -0.8317,0.067514 -1.2633,0.2019811 -0.4247,0.1344664 -0.637,0.3116664 -0.637,0.5310591 V 8.0122 h -0.3401 c -0.1415,0 -0.2583,0.1096855 -0.3503,0.3290774 -0.085,0.2123166 -0.1279,0.4602584 -0.1279,0.7433454 0,0.283087 0.029,0.5056856 0.085,0.6684617 0.057,0.1627748 0.124,0.2445756 0.202,0.2445756 h 0.531 v 1.6556959 c 0,1.096963 0.2583,1.819362 0.7749,2.166144 0.269,0.176927 0.5519,0.296982 0.8492,0.36068 0.2972,0.05662 0.6724,0.08519 1.1253,0.08519 0.453,0 0.7431,-0.06037 0.8704,-0.180684 0.1274,-0.120312 0.1911,-0.417567 0.1911,-0.89174 0,-0.240623 -0.014,-0.421051 -0.043,-0.541364 -0.028,-0.120312 -0.1062,-0.180683 -0.2336,-0.180683 -0.1203,0 -0.2617,-0.03894 -0.4246,-0.116792 -0.1627,-0.08493 -0.2438,-0.222496 -0.2438,-0.41358 V 9.9976601 h 0.6258 c 0.1272,0 0.2298,-0.109686 0.3077,-0.3290779 0.085,-0.2264699 0.1279,-0.5133551 0.1279,-0.8601373 0,-0.5307882 -0.092,-0.7962449 -0.2762,-0.7962449 h -0.7852 V 6.4732963 c 0,-0.3184731 -0.3219,-0.4781592 -0.966,-0.4781592 z m 51.8363,0 c -0.4104,0 -0.8317,0.067514 -1.2633,0.2019811 -0.4247,0.1344664 -0.637,0.3116664 -0.637,0.5310591 V 8.0122 h -0.3394 c -0.1414,0 -0.2583,0.1096855 -0.3503,0.3290774 -0.085,0.2123166 -0.1277,0.4602584 -0.1277,0.7433454 0,0.283087 0.028,0.5056856 0.085,0.6684617 0.057,0.1627748 0.1234,0.2445756 0.2014,0.2445756 h 0.531 v 1.6556959 c 0,1.096963 0.2583,1.819362 0.775,2.166144 0.2689,0.176927 0.5517,0.296982 0.8491,0.36068 0.2972,0.05662 0.6724,0.08519 1.1254,0.08519 0.4528,0 0.743,-0.06037 0.8703,-0.180684 0.1273,-0.120312 0.1918,-0.417567 0.1918,-0.89174 0,-0.240623 -0.014,-0.421051 -0.043,-0.541364 -0.028,-0.120312 -0.1062,-0.180683 -0.2336,-0.180683 -0.1204,0 -0.2617,-0.03894 -0.4246,-0.116792 -0.1628,-0.08493 -0.2446,-0.222496 -0.2446,-0.41358 V 9.9976601 h 0.6266 c 0.1272,0 0.2298,-0.109686 0.3079,-0.3290779 0.085,-0.2264699 0.1277,-0.5133551 0.1277,-0.8601373 0,-0.5307882 -0.092,-0.7962449 -0.2762,-0.7962449 h -0.786 V 6.4732963 c 0,-0.3184731 -0.3219,-0.4781592 -0.9659,-0.4781592 z m -37.6221,0.6368587 c -0.5094,0 -0.9696,0.077885 -1.3801,0.2335835 -0.4105,0.148621 -0.6157,0.3011641 -0.6157,0.4568621 V 13.9253 c 0,0.092 0.061,0.159518 0.1807,0.20198 0.1205,0.03539 0.3961,0.0529 0.8278,0.0529 0.4388,0 0.8737,-0.02143 1.3053,-0.06389 0.4317,-0.04954 0.6479,-0.113136 0.6479,-0.190988 V 7.1314524 c 0,-0.070772 -0.025,-0.1415144 -0.074,-0.2122861 -0.1416,-0.1910841 -0.4389,-0.2871705 -0.8918,-0.2871705 z m -39.9015,0.010992 c -0.4812,0 -0.9265,0.07397 -1.337,0.2225913 -0.4104,0.1415438 -0.6162,0.3012299 -0.6162,0.4781594 V 13.8724 c 0,0.106155 0.06,0.184039 0.1807,0.233584 0.1273,0.04954 0.4072,0.0742 0.8389,0.0742 0.4388,0 0.8703,-0.02857 1.295,-0.08519 0.4316,-0.05662 0.6471,-0.130588 0.6471,-0.222592 v -2.43133 h 0.9453 v 2.43133 c 0,0.106155 0.06,0.184039 0.18,0.233584 0.1275,0.04954 0.4072,0.0742 0.8389,0.0742 0.4316,0 0.8633,-0.02857 1.295,-0.08519 0.4317,-0.05662 0.6478,-0.130588 0.6478,-0.222592 V 7.1204603 c 0,-0.3184733 -0.3329,-0.4774723 -0.9981,-0.4774723 -0.4813,0 -0.9305,0.07397 -1.348,0.2225913 -0.4105,0.1415438 -0.6156,0.3012299 -0.6156,0.4781594 v 2.1125575 h -0.9453 V 7.1204603 c 0,-0.3184733 -0.3362,-0.4774723 -1.0085,-0.4774721 z m 51.837,1.2634124 c -0.4883,0 -0.9303,0.059685 -1.3266,0.1799967 -0.3893,0.1203124 -0.6794,0.2553403 -0.8704,0.4039618 -0.184,0.1486215 -0.3295,0.3426475 -0.4357,0.5832721 -0.099,0.2335465 -0.1554,0.4178889 -0.1696,0.5523571 -0.014,0.1273889 -0.021,0.3253315 -0.021,0.5942637 0,0.261856 0.071,0.509799 0.2123,0.743345 0.1415,0.22647 0.3188,0.389385 0.531,0.488464 0.2123,0.09908 0.4387,0.180191 0.6795,0.24389 0.2475,0.06369 0.4775,0.106547 0.6897,0.127784 0.2124,0.02123 0.3894,0.0634 0.531,0.127096 0.1416,0.05662 0.2123,0.137731 0.2123,0.243888 0,0.09908 -0.046,0.166592 -0.1381,0.201982 -0.085,0.03539 -0.2691,0.0529 -0.5524,0.0529 -0.276,0 -0.6194,-0.07788 -1.0297,-0.233584 -0.4033,-0.155697 -0.6402,-0.233584 -0.7111,-0.233584 -0.1275,0 -0.2761,0.194715 -0.4458,0.58396 -0.17,0.389245 -0.2551,0.729358 -0.2551,1.019523 0,0.113234 0.1384,0.230064 0.4144,0.350376 0.5448,0.22647 1.4049,0.339384 2.5797,0.339384 1.9745,0 2.9617,-0.693828 2.9617,-2.080957 0,-0.410475 -0.1025,-0.749903 -0.3077,-1.018836 -0.1981,-0.268933 -0.4422,-0.453276 -0.7324,-0.552355 -0.2831,-0.106159 -0.5661,-0.187273 -0.8492,-0.24389 -0.2831,-0.05662 -0.5279,-0.109851 -0.733,-0.159386 -0.1982,-0.05662 -0.2969,-0.137731 -0.2969,-0.2438881 0,-0.1698527 0.1487,-0.2548815 0.4459,-0.2548815 0.184,0 0.4702,0.063599 0.8595,0.1909883 0.3891,0.1203123 0.6404,0.1806833 0.7537,0.1806833 0.1203,0 0.2801,-0.1804267 0.4782,-0.5413635 0.1981,-0.3609367 0.2967,-0.679621 0.2967,-0.9556314 0,-0.1273889 -0.1026,-0.2442167 -0.3078,-0.3503757 -0.1203,-0.063694 -0.2761,-0.1201514 -0.4671,-0.1696912 -0.184,-0.04954 -0.4423,-0.088483 -0.775,-0.1167919 -0.3255,-0.035386 -0.7325,-0.0529 -1.2208,-0.0529 z m -42.6365,0.021297 c -0.5592,0 -1.0441,0.049314 -1.4545,0.1483943 -0.4105,0.09908 -0.7823,0.2723657 -1.115,0.5200669 -0.6723,0.4883257 -1.0079,1.3768666 -1.0079,2.6649142 0,0.332628 0.035,0.654541 0.1059,0.965936 0.049,0.212317 0.1169,0.40703 0.2019,0.583959 0.085,0.169853 0.2122,0.35028 0.382,0.541364 0.1769,0.191084 0.3789,0.353311 0.6053,0.487778 0.2336,0.127391 0.5308,0.233849 0.8917,0.318774 0.3678,0.08493 0.821,0.127096 1.3588,0.127096 0.545,0 1.1005,-0.07074 1.6668,-0.212286 0.5661,-0.141545 0.8492,-0.349857 0.8492,-0.625866 0,-0.191084 -0.1097,-0.48834 -0.3291,-0.89174 -0.2193,-0.403399 -0.3959,-0.605257 -0.5304,-0.605257 -0.021,0 -0.2375,0.08826 -0.6479,0.265186 -0.4105,0.169853 -0.7435,0.254882 -0.9981,0.254882 -0.439,0 -0.6582,-0.229742 -0.6582,-0.68976 h 0.3503 c 2.0099,0 3.0146,-0.662026 3.0146,-1.9854591 0,-1.2455851 -0.895,-1.8679823 -2.6854,-1.8679823 z m 6.5677,0 c -0.453,0 -0.9203,0.0636 -1.4015,0.1909891 -0.4741,0.1203123 -0.8422,0.2546542 -1.104,0.4032743 -0.2619,0.1486215 -0.3923,0.2686772 -0.3923,0.3606816 0,0.276009 0.1097,0.5843236 0.3292,0.9240291 0.2193,0.3326273 0.3927,0.4987703 0.52,0.4987703 0.057,0 0.1661,-0.04609 0.3291,-0.13809 0.1627,-0.09908 0.3644,-0.1944795 0.6051,-0.2864839 0.2479,-0.092003 0.4562,-0.1380882 0.626,-0.1380882 0.1767,0 0.3079,0.024653 0.3929,0.074196 0.1983,0.1203122 0.2976,0.3253961 0.2976,0.6155611 h -0.3505 c -0.552,0 -1.0582,0.06037 -1.5182,0.180684 -0.3044,0.08493 -0.5698,0.194611 -0.7963,0.329078 -0.2264,0.134467 -0.4211,0.325265 -0.5839,0.572967 -0.1557,0.247701 -0.2336,0.538502 -0.2336,0.871129 0,0.332628 0.053,0.622741 0.1594,0.870442 0.1132,0.247701 0.2443,0.435273 0.393,0.562662 0.3678,0.304205 0.8745,0.456061 1.5182,0.456176 0.7922,-2.02e-4 1.2769,-0.318887 1.4537,-0.955633 h 0.085 l 0.085,0.605257 c 0.014,0.07077 0.032,0.120086 0.053,0.148394 0.021,0.02831 0.085,0.05366 0.191,0.07488 0.1133,0.02124 0.354,0.0316 0.722,0.0316 0.3752,0 0.7502,-0.02143 1.1254,-0.06389 0.3821,-0.04954 0.573,-0.113136 0.573,-0.190988 v -3.195286 c 0,-0.382168 -0.025,-0.704082 -0.074,-0.9659371 -0.035,-0.2264699 -0.092,-0.4108123 -0.1698,-0.5523558 -0.071,-0.1415436 -0.1804,-0.3005427 -0.329,-0.4774721 -0.1416,-0.1769294 -0.3188,-0.3184144 -0.5311,-0.4245734 -0.2053,-0.1061576 -0.474,-0.1944139 -0.8066,-0.2651856 -0.3254,-0.077849 -0.715,-0.1167918 -1.1679,-0.1167918 z m 30.4889,0 c -0.2477,0 -0.4743,0.0318 -0.6795,0.095494 -0.5026,0.1627754 -0.8562,0.4489733 -1.0615,0.8594506 h -0.075 l -0.095,-0.4671676 c -0.057,-0.2618557 -0.3111,-0.392283 -0.764,-0.392283 -0.4529,0 -0.8851,0.073971 -1.2957,0.2225911 -0.4033,0.1486215 -0.6051,0.2972497 -0.6051,0.4458698 V 13.9253 c 0,0.092 0.064,0.159518 0.1915,0.20198 0.1274,0.03539 0.4033,0.0529 0.8279,0.0529 0.4318,0 0.8459,-0.02143 1.2421,-0.06389 0.4035,-0.04954 0.6053,-0.113136 0.6053,-0.190988 V 9.74278 c 0,-0.1910841 0.099,-0.2864838 0.2968,-0.2864838 0.1273,0 0.2162,0.066827 0.2658,0.2012942 0.021,0.077848 0.042,0.1667923 0.063,0.2658733 0.028,0.099079 0.043,0.3073933 0.043,0.6258663 v 3.37597 c 0,0.092 0.06,0.159518 0.1807,0.20198 0.1274,0.03539 0.4032,0.0529 0.8278,0.0529 0.4319,0 0.8497,-0.02143 1.2532,-0.06389 0.4033,-0.04954 0.6046,-0.113136 0.6046,-0.190988 v -3.269484 h 7e-4 c 0,-0.9624968 -0.128,-1.6563243 -0.3828,-2.0809548 -0.2476,-0.4317086 -0.7285,-0.6471635 -1.4433,-0.6471635 z m 13.7402,0 c -0.2902,0 -0.5452,0.035028 -0.7646,0.1057996 -0.2195,0.063695 -0.3888,0.1383528 -0.5092,0.2232778 -0.1132,0.084928 -0.2268,0.1946124 -0.34,0.3290792 -0.1133,0.1344629 -0.1768,0.2330893 -0.1909,0.2967884 h -0.085 c -0.078,-0.3750874 -0.1302,-0.587315 -0.1587,-0.6368595 -0.028,-0.049539 -0.103,-0.098854 -0.2232,-0.148394 -0.1205,-0.049541 -0.2865,-0.074197 -0.4988,-0.074197 -0.46,0 -0.8884,0.077886 -1.2847,0.233583 -0.3964,0.1556995 -0.5944,0.3075555 -0.5944,0.4561757 v 6.7519402 0 c 0,0.092 0.071,0.155598 0.2123,0.190988 0.1414,0.04246 0.4245,0.06389 0.8491,0.06389 0.4317,0 0.849,-0.02534 1.2524,-0.07488 0.4105,-0.04246 0.6156,-0.102144 0.6156,-0.179996 V 14.26537 l -0.1485,-0.955632 h 0.085 l 0.013,0.1058 c 0.028,0.14862 0.1308,0.318678 0.3079,0.509762 0.085,0.092 0.2128,0.173805 0.3826,0.244576 0.1769,0.0637 0.3779,0.09549 0.6045,0.09549 0.6299,0 1.1082,-0.1772 1.4338,-0.53106 0.1627,-0.176929 0.2971,-0.37487 0.4033,-0.594264 0.1061,-0.219393 0.1872,-0.481621 0.2439,-0.785939 0.057,-0.30432 0.096,-0.601576 0.1168,-0.89174 0.021,-0.297243 0.032,-0.594498 0.032,-0.891739 0,-0.304319 -0.01,-0.53406 -0.021,-0.6897598 -0.01,-0.1627747 -0.046,-0.3750023 -0.1167,-0.636858 -0.064,-0.2689338 -0.1558,-0.4883044 -0.2761,-0.6581559 -0.1133,-0.1769307 -0.2906,-0.3294727 -0.5311,-0.4568629 -0.2407,-0.1344661 -0.5094,-0.2012937 -0.8066,-0.2012937 z m 5.8773,0 c -0.559,0 -1.0438,0.049314 -1.4544,0.1483943 -0.4104,0.09908 -0.7817,0.2723657 -1.1143,0.5200669 -0.6723,0.4883257 -1.0085,1.3768666 -1.0085,2.6649142 0,0.332628 0.035,0.654541 0.1058,0.965936 0.049,0.212317 0.1168,0.40703 0.2019,0.583959 0.085,0.169853 0.2122,0.35028 0.3821,0.541364 0.177,0.191084 0.3788,0.353311 0.6052,0.487778 0.2336,0.127391 0.5308,0.233849 0.8918,0.318774 0.3681,0.08493 0.821,0.127096 1.3589,0.127096 0.545,0 1.1005,-0.07074 1.6666,-0.212286 0.5662,-0.141545 0.8491,-0.349857 0.8491,-0.625866 0,-0.191084 -0.1096,-0.48834 -0.329,-0.89174 -0.2194,-0.403399 -0.3966,-0.605257 -0.531,-0.605257 -0.021,0 -0.2366,0.08826 -0.6472,0.265186 -0.4105,0.169853 -0.7434,0.254882 -0.9982,0.254882 -0.4389,0 -0.6582,-0.229742 -0.6582,-0.68976 h 0.3504 c 2.0099,0 3.0146,-0.662026 3.0146,-1.9854591 0,-1.2455851 -0.8951,-1.8679823 -2.6856,-1.8679823 z m 6.3446,0 c -0.4884,0 -0.9764,0.1129138 -1.4647,0.3393833 -0.3043,0.1415448 -0.5737,0.321972 -0.8072,0.5413639 -0.2336,0.2193933 -0.4314,0.5309344 -0.5943,0.9343351 -0.1627,0.3963211 -0.2438,0.8493491 -0.2438,1.3589061 0,0.820954 0.1485,1.486209 0.4457,1.995766 0.1274,0.212316 0.2865,0.395972 0.4776,0.55167 0.1982,0.155694 0.3818,0.272522 0.5516,0.350374 0.4035,0.184008 0.9416,0.27618 1.6138,0.27618 0.6795,0 1.2175,-0.07397 1.6138,-0.222592 0.3963,-0.155698 0.5943,-0.42507 0.5943,-0.807238 0,-0.247701 -0.064,-0.530671 -0.1911,-0.849145 -0.1202,-0.318473 -0.2474,-0.477472 -0.3819,-0.477472 -0.035,0 -0.2088,0.07074 -0.5201,0.212286 -0.3114,0.141545 -0.5737,0.212286 -0.7859,0.212286 -0.2052,0 -0.357,-0.08503 -0.4562,-0.25488 -0.099,-0.176931 -0.149,-0.502758 -0.149,-0.976929 0,-0.481249 0.053,-0.803163 0.1594,-0.965938 0.1132,-0.1698526 0.2729,-0.25488 0.478,-0.25488 0.2125,0 0.4596,0.060371 0.7428,0.180684 0.2901,0.120312 0.4633,0.180684 0.5201,0.180684 0.1768,0 0.319,-0.170058 0.4251,-0.5097621 0.1133,-0.3467835 0.1698,-0.6726109 0.1698,-0.9769292 0,-0.3043197 -0.163,-0.5197751 -0.4884,-0.647164 -0.3186,-0.1273895 -0.8884,-0.1909891 -1.7094,-0.1909891 z m 14.9899,0 c -0.9767,0 -1.773,0.2265133 -2.3888,0.679453 -0.6581,0.488327 -0.9872,1.298295 -0.9872,2.4306434 0,1.273894 0.322,2.144234 0.9659,2.611328 0.3114,0.233547 0.658,0.396461 1.0402,0.488464 0.3822,0.092 0.8391,0.13809 1.3699,0.13809 1.0262,0 1.8432,-0.268684 2.452,-0.806552 0.6086,-0.544942 0.9129,-1.355598 0.9129,-2.43133 0,-0.530788 -0.06,-0.987044 -0.1807,-1.3692119 -0.1201,-0.3892447 -0.2759,-0.693644 -0.4671,-0.9130373 -0.184,-0.2193932 -0.4312,-0.3926773 -0.7426,-0.5200662 -0.3044,-0.1273892 -0.6055,-0.2091897 -0.9027,-0.244576 -0.2973,-0.042464 -0.6543,-0.063205 -1.0718,-0.063205 z m 8.5952,0 c -0.2478,0 -0.4742,0.0318 -0.6795,0.095494 -0.5023,0.1627754 -0.8568,0.4489733 -1.062,0.8594506 h -0.074 l -0.096,-0.4671676 c -0.057,-0.2618557 -0.3116,-0.392283 -0.7646,-0.392283 -0.4529,0 -0.8845,0.073971 -1.295,0.2225911 -0.4033,0.1486215 -0.6053,0.2972497 -0.6053,0.4458698 V 13.9253 c 0,0.092 0.064,0.159518 0.1911,0.20198 0.1273,0.03539 0.4037,0.0529 0.8285,0.0529 0.4315,0 0.8458,-0.02143 1.2421,-0.06389 0.4035,-0.04954 0.6053,-0.113136 0.6053,-0.190988 V 9.74278 c 0,-0.1910841 0.099,-0.2864838 0.2967,-0.2864838 0.1274,0 0.2155,0.066827 0.2652,0.2012942 0.021,0.077848 0.043,0.1667923 0.064,0.2658733 0.028,0.099079 0.043,0.3073933 0.043,0.6258663 v 3.37597 c 0,0.092 0.06,0.159518 0.1807,0.20198 0.1273,0.03539 0.4032,0.0529 0.8278,0.0529 0.4317,0 0.8497,-0.02143 1.2532,-0.06389 0.4033,-0.04954 0.6045,-0.113136 0.6045,-0.190988 v -3.269484 c 0,-0.9624968 -0.1271,-1.6563243 -0.382,-2.0809548 -0.2477,-0.4317086 -0.7287,-0.6471635 -1.4434,-0.6471635 z m -13.6454,0.2651855 c -0.4742,0 -0.9129,0.077887 -1.3163,0.2335838 -0.3964,0.1486215 -0.5943,0.3004762 -0.5943,0.4561757 V 13.9253 c 0,0.092 0.06,0.159518 0.1807,0.20198 0.1274,0.03539 0.4032,0.0529 0.8279,0.0529 0.4316,0 0.8489,-0.02143 1.2523,-0.06389 0.4105,-0.04954 0.6163,-0.113136 0.6163,-0.190988 V 8.691653 c 0,-0.3326275 -0.3225,-0.4987698 -0.9666,-0.4987699 z m -23.6696,1.2524211 c 0.1272,0 0.2233,0.120743 0.2872,0.3613675 0.064,0.2406243 0.096,0.6611643 0.096,1.2627253 0,1.096964 -0.124,1.646077 -0.3717,1.646077 -0.1911,0 -0.2865,-0.09217 -0.2865,-0.276178 V 9.6575904 c 0.057,-0.1415436 0.1481,-0.2122861 0.2755,-0.2122861 z m -49.618,0.010992 c 0.2193,0 0.3292,0.2122275 0.3292,0.6368578 0,0.233548 -0.067,0.431489 -0.2013,0.594266 -0.1274,0.162774 -0.2942,0.244575 -0.4995,0.244575 v -0.700751 c 0,-0.516635 0.1239,-0.7749478 0.3716,-0.7749478 z m 56.6743,0 c 0.2194,0 0.329,0.2122275 0.329,0.6368578 0,0.233548 -0.067,0.431489 -0.2019,0.594266 -0.1276,0.162774 -0.2936,0.244575 -0.4988,0.244575 v -0.700751 c 0,-0.516635 0.124,-0.7749478 0.3717,-0.7749478 z m 21.6628,0.010305 c 0.092,0 0.1698,0.046087 0.2336,0.1380896 0.043,0.063695 0.075,0.1519505 0.096,0.2651861 0.028,0.1132356 0.049,0.2761491 0.063,0.4884631 0.021,0.205239 0.032,0.502495 0.032,0.891741 0,0.382168 -0.025,0.700853 -0.075,0.955632 -0.042,0.254775 -0.092,0.406631 -0.1485,0.456174 -0.049,0.04954 -0.1201,0.0742 -0.2121,0.0742 -0.085,0 -0.1557,-0.02465 -0.2124,-0.0742 -0.049,-0.04954 -0.099,-0.201397 -0.1483,-0.456174 h -8e-4 c -0.05,-0.254779 -0.074,-0.61955 -0.074,-1.093721 0,-0.474171 0.025,-0.838255 0.074,-1.093034 0.049,-0.2618514 0.1027,-0.4176227 0.1594,-0.4671672 0.056,-0.056616 0.1272,-0.08519 0.2123,-0.08519 z m -71.2279,1.8047768 v 1.242115 c 0,0.05661 -0.028,0.109843 -0.085,0.159386 -0.049,0.04246 -0.1202,0.06321 -0.2122,0.06321 -0.2124,0 -0.3181,-0.23297 -0.3181,-0.700064 0,-0.198161 0.056,-0.375361 0.1696,-0.53106 0.1133,-0.155697 0.2619,-0.233582 0.4459,-0.233582 z"/></g><g id="g19" transform="matrix(0.85032376,0,0,0.85032376,247.70192,-3.5645436)"><path id="rect4" style="fill:#b30808;fill-opacity:1;stroke:none;stroke-width:2.36479;stroke-linecap:round;stroke-linejoin:round;paint-order:stroke fill markers" d="M 1651.6834 -25.84769 C 1650.2576 -25.84629 1649.0821 -24.662066 1649.0921 -23.236289 L 1649.0921 -17.673768 L 1643.9082 -17.673768 C 1642.4921 -17.669468 1641.3237 -16.497834 1641.3223 -15.081814 L 1641.3223 -8.679415 C 1641.3223 -7.2633825 1642.4921 -6.0923637 1643.9082 -6.088069 L 1649.0921 -6.088069 L 1649.0921 -0.57416618 L 1649.0921 -0.572343 C 1649.0921 0.84370293 1650.2673 2.0121459 1651.6834 2.0135334 L 1658.0153 2.0135334 C 1659.4314 2.0121434 1660.6031 0.84370293 1660.6073 -0.572343 L 1660.6073 -0.57416618 L 1660.6073 -6.088069 L 1665.9279 -6.088069 C 1667.3439 -6.092359 1668.5124 -7.2633825 1668.5138 -8.679415 L 1668.5138 -15.081814 C 1668.5138 -16.497834 1667.3439 -17.669473 1665.9279 -17.673768 L 1660.6073 -17.673768 L 1660.6073 -23.236289 C 1660.6173 -24.662066 1659.4411 -25.846322 1658.0153 -25.84769 L 1651.6834 -25.84769 z M 1651.6834 -23.685399 L 1658.0117 -23.685399 C 1658.2641 -23.685157 1658.445 -23.502675 1658.4432 -23.250266 L 1658.4432 -23.246012 L 1658.4432 -15.509653 L 1665.9237 -15.509653 C 1666.1731 -15.508053 1666.3513 -15.329738 1666.3515 -15.079991 L 1666.3515 -8.6818459 C 1666.3513 -8.4315275 1666.1721 -8.2505115 1665.9218 -8.2497523 L 1658.4432 -8.2497523 L 1658.4432 -0.57842027 C 1658.4425 -0.32809872 1658.262 -0.14839515 1658.0117 -0.14814988 L 1651.6834 -0.14814988 C 1651.4331 -0.14839515 1651.2527 -0.32809872 1651.2519 -0.57842027 L 1651.2519 -8.2497523 L 1643.9124 -8.2497523 C 1643.662 -8.2505115 1643.4806 -8.4315275 1643.4803 -8.6818459 L 1643.4803 -15.079991 C 1643.4806 -15.330307 1643.662 -15.508893 1643.9124 -15.509653 L 1651.2519 -15.509653 L 1651.2519 -23.246012 L 1651.2519 -23.250266 C 1651.2519 -23.502675 1651.431 -23.685157 1651.6834 -23.685399 z "/><path id="rect2" style="fill:#df0a0a;stroke:none;stroke-width:2.36479;stroke-linecap:round;stroke-linejoin:round;paint-order:stroke fill markers;fill-opacity:1" d="M 1651.6846 -24.766544 A 1.5128892 1.5128892 0 0 0 1650.1732 -23.242974 L 1650.1732 -16.592014 L 1643.91 -16.592014 A 1.5128892 1.5128892 0 0 0 1642.4016 -15.080599 L 1642.4016 -8.6806304 A 1.5128892 1.5128892 0 0 0 1643.91 -7.1692145 L 1650.1732 -7.1692145 L 1650.1732 -0.57598936 A 1.5128892 1.5128892 0 0 0 1651.6846 0.9323879 L 1658.0153 0.9323879 A 1.5128892 1.5128892 0 0 0 1659.5267 -0.57598936 L 1659.5267 -7.1692145 L 1665.9261 -7.1692145 A 1.5128892 1.5128892 0 0 0 1667.4345 -8.6806304 L 1667.4345 -15.080599 A 1.5128892 1.5128892 0 0 0 1665.9261 -16.592014 L 1659.5267 -16.592014 L 1659.5267 -23.242974 A 1.5128892 1.5128892 0 0 0 1658.0153 -24.766544 L 1651.6846 -24.766544 z "/><path id="rect1" style="fill:#ff2424;stroke:none;stroke-width:2.36479;stroke-linecap:round;stroke-linejoin:round;paint-order:stroke fill markers" d="M 1651.6865 -23.537721 C 1651.5143 -23.537551 1651.4014 -23.423602 1651.4026 -23.251482 A 1.2294263 1.2294263 0 0 1 1651.4026 -23.250874 A 1.2294263 1.2294263 0 0 1 1651.4026 -23.250266 A 1.2294263 1.2294263 0 0 1 1651.4026 -23.249659 A 1.2294263 1.2294263 0 0 1 1651.4026 -23.249051 A 1.2294263 1.2294263 0 0 1 1651.4026 -23.248443 A 1.2294263 1.2294263 0 0 1 1651.4026 -23.247835 A 1.2294263 1.2294263 0 0 1 1651.4026 -23.247228 A 1.2294263 1.2294263 0 0 1 1651.4026 -23.24662 A 1.2294263 1.2294263 0 0 1 1651.4026 -23.246012 A 1.2294263 1.2294263 0 0 1 1651.4026 -23.245405 A 1.2294263 1.2294263 0 0 1 1651.4026 -23.244797 A 1.2294263 1.2294263 0 0 1 1651.4026 -23.244189 A 1.2294263 1.2294263 0 0 1 1651.4026 -23.243581 A 1.2294263 1.2294263 0 0 1 1651.4026 -23.242974 L 1651.4026 -16.591407 A 1.2294263 1.2294263 0 0 1 1650.1732 -15.361976 L 1643.9142 -15.361976 C 1643.744 -15.361466 1643.6316 -15.249941 1643.631 -15.079991 L 1643.631 -15.078775 L 1643.631 -8.6806304 C 1643.6316 -8.5106704 1643.744 -8.3991653 1643.9142 -8.3986453 L 1650.1732 -8.3986453 A 1.2294263 1.2294263 0 0 1 1651.4026 -7.1698223 L 1651.4026 -0.57902799 C 1651.4031 -0.40882799 1651.5146 -0.29765288 1651.6846 -0.29704288 L 1658.0135 -0.29704288 C 1658.1834 -0.29765288 1658.2955 -0.40882799 1658.2961 -0.57902799 L 1658.2961 -7.1698223 A 1.2294263 1.2294263 0 0 1 1659.5249 -8.3986453 L 1665.9212 -8.3986453 C 1666.0918 -8.3991653 1666.2036 -8.5112859 1666.2038 -8.6818459 L 1666.2038 -15.079991 C 1666.2032 -15.249941 1666.0914 -15.361466 1665.9212 -15.361976 L 1659.5249 -15.361976 A 1.2294263 1.2294263 0 0 1 1658.2961 -16.591407 L 1658.2961 -23.242974 A 1.2294263 1.2294263 0 0 1 1658.2961 -23.25209 C 1658.2961 -23.42421 1658.1844 -23.537561 1658.0123 -23.537721 L 1651.6865 -23.537721 z "/><path id="rect149" style="fill:#ffa693;fill-opacity:0.472441;stroke:none;stroke-width:2.85724;stroke-linecap:round;stroke-linejoin:round;stroke-dasharray:none;stroke-opacity:1;paint-order:stroke fill markers" d="m 1651.6862,-23.537427 c -0.1722,1.7e-4 -0.2847,0.11355 -0.2835,0.28567 -1e-4,0.002 -2e-4,0.003 10e-5,0.005 2e-4,10e-4 -10e-5,0.003 10e-5,0.004 v 6.65139 c 0,0.67894 -0.5504,1.22932 -1.2293,1.22936 l -6.2591,-10e-6 c -0.1702,5.1e-4 -0.2829,0.11225 -0.2835,0.2822 l 2e-4,10e-4 v 6.3979798 c 6e-4,0.16995 0.1132,0.28167 0.2834,0.28217 h 6.2592 c 0.2802,0.007 0.5498,0.10891 0.764,0.28978 1.9245,-5.2268098 4.7822,-7.0320998 8.0303,-7.4058898 -0.4058,-0.20698 -0.6639,-0.62138 -0.6706,-1.07687 v -6.65138 c -10e-5,-0.003 -2e-4,-0.006 -3e-4,-0.008 0,-0.17213 -0.1113,-0.28551 -0.2834,-0.28568 z"/></g><path id="rect150" style="fill:#7b8481;stroke-width:2.45861;stroke-linecap:round;stroke-linejoin:round;paint-order:stroke fill markers" d="M 1585.2147,5.4199028 V 29.624923 c 3.4468,-1.76104 7.1633,-1.83558 11.0709,-0.71623 V 5.8004728 c -3.6362,1.17059 -7.3067,1.5213 -11.0709,-0.38057 z"/></g></svg>