<svg xmlns:inkscape="http://www.inkscape.org/namespaces/inkscape" xmlns:sodipodi="http://sodipodi.sourceforge.net/DTD/sodipodi-0.dtd" xmlns="http://www.w3.org/2000/svg" xmlns:svg="http://www.w3.org/2000/svg" width="86.772369" height="86.7724" viewBox="0 0 22.958522 22.958531" version="1.1" id="svg5" xml:space="preserve" sodipodi:docname="paycheckBonus.svg" inkscape:version="1.4 (e7c3feb1, 2024-10-09)"><sodipodi:namedview id="namedview1" pagecolor="#505050" bordercolor="#ffffff" borderopacity="1" inkscape:showpageshadow="0" inkscape:pageopacity="0" inkscape:pagecheckerboard="1" inkscape:deskcolor="#505050" inkscape:zoom="2.09" inkscape:cx="43.54067" inkscape:cy="43.54067" inkscape:window-width="1104" inkscape:window-height="655" inkscape:window-x="0" inkscape:window-y="38" inkscape:window-maximized="0" inkscape:current-layer="layer1"/><defs id="defs2"><style id="style608">.cls-1{fill-opacity:0.8;fill:url(#linear-gradient);}.cls-2{fill:#61cbed;}.cls-3{fill:#0fafd2;}.cls-4{fill-opacity:0.9;fill:url(#linear-gradient-2);}.cls-5{fill:#04859b;opacity:0.5;}.cls-6{fill:none;stroke:#8e281d;stroke-miterlimit:10;stroke-width:12px;}.cls-7{fill:#f18221;}.cls-8{fill:#d25927;}.cls-9{fill:url(#linear-gradient-3);}.cls-10{fill:#fff;}.cls-11{fill:#414042;}</style><style id="style36590">.cls-1{fill:url(#linear-gradient);}.cls-2{fill:#f7941d;}.cls-3{fill:#ecf7fe;}.cls-4{fill:#f3b71c;}.cls-5{fill:#c7eaf7;}.cls-6{fill:#6eb8cc;}.cls-7{fill:#009444;}.cls-8{fill:#39b54a;}.cls-10,.cls-9{fill:#f47e20;}.cls-9{stroke:#f47e20;stroke-miterlimit:10;}.cls-11{fill:none;stroke:#f3b71c;stroke-linejoin:bevel;stroke-width:3px;}</style><style id="style608-1">.cls-1{fill-opacity:0.8;fill:url(#linear-gradient);}.cls-2{fill:#61cbed;}.cls-3{fill:#0fafd2;}.cls-4{fill-opacity:0.9;fill:url(#linear-gradient-2);}.cls-5{fill:#04859b;opacity:0.5;}.cls-6{fill:none;stroke:#8e281d;stroke-miterlimit:10;stroke-width:12px;}.cls-7{fill:#f18221;}.cls-8{fill:#d25927;}.cls-9{fill:url(#linear-gradient-3);}.cls-10{fill:#fff;}.cls-11{fill:#414042;}</style><style id="style36590-3">.cls-1{fill:url(#linear-gradient);}.cls-2{fill:#f7941d;}.cls-3{fill:#ecf7fe;}.cls-4{fill:#f3b71c;}.cls-5{fill:#c7eaf7;}.cls-6{fill:#6eb8cc;}.cls-7{fill:#009444;}.cls-8{fill:#39b54a;}.cls-10,.cls-9{fill:#f47e20;}.cls-9{stroke:#f47e20;stroke-miterlimit:10;}.cls-11{fill:none;stroke:#f3b71c;stroke-linejoin:bevel;stroke-width:3px;}</style></defs><g id="layer1" transform="translate(-72.166992,-196.41057)"><rect style="fill:#cbf556;fill-opacity:1;stroke:none;stroke-width:0.629267;stroke-opacity:1" id="rect65770" width="22.329258" height="22.329258" x="72.481621" y="196.7252" ry="2.2784956"/><rect style="fill:none;fill-opacity:1;stroke:#2c0932;stroke-width:0.629267;stroke-opacity:1" id="rect65772" width="22.329258" height="22.329258" x="72.481621" y="196.7252" ry="2.2784956"/><g id="g65584" transform="matrix(1.7384808,0,0,1.8535031,-302.61154,-26.642771)"><path id="rect64767" style="color:#000000;fill:none;stroke:#1c290e;stroke-width:0.788458;stroke-linejoin:round;stroke-dasharray:none;stroke-opacity:1" d="m 217.18036,123.98016 a 0.26839484,0.26839484 0 0 0 -0.26924,0.26768 v 1.31827 a 0.26839484,0.26839484 0 0 0 0.26924,0.26923 h 0.44442 a 0.26839484,0.26839484 0 0 0 -0.0176,0.0899 v 1.31826 a 0.26839484,0.26839484 0 0 0 0.03,0.12299 h -0.33021 a 0.26839484,0.26839484 0 0 0 -0.26924,0.26769 v 1.31826 a 0.26839484,0.26839484 0 0 0 0.26924,0.26975 h 3.23184 a 0.39559156,0.39559156 0 0 0 0.1173,0.0202 h 6.5195 a 0.39559156,0.39559156 0 0 0 0.39688,-0.39481 v -2.78484 a 0.39559156,0.39559156 0 0 0 -0.39688,-0.39688 h -3.1259 a 0.26839484,0.26839484 0 0 0 -0.0636,-0.008 h -0.44441 a 0.26839484,0.26839484 0 0 0 0.0155,-0.0915 v -1.31827 a 0.26839484,0.26839484 0 0 0 -0.26717,-0.26768 z"/><g id="g63938" transform="translate(0.06329763,0.12659526)"><rect style="fill:none;fill-opacity:1;stroke:#374b20;stroke-width:0.536736;stroke-linecap:butt;stroke-linejoin:round;stroke-dasharray:none;stroke-opacity:1" id="rect63924" width="6.1097832" height="1.3189449" x="217.1165" y="124.12148"/><rect style="fill:#7fb341;fill-opacity:1;stroke:none;stroke-width:0.701826;stroke-linecap:butt;stroke-linejoin:round;stroke-dasharray:none;stroke-opacity:1" id="rect63926" width="6.1097832" height="1.3189449" x="217.1165" y="124.12148"/><path id="path63928" style="fill:#d2cf9d;fill-opacity:1;stroke:none;stroke-width:1.22207;stroke-linecap:butt;stroke-linejoin:round;stroke-dasharray:none;stroke-opacity:1" d="m 218.63021,124.12145 v 1.31886 h 2.38673 v -1.31886 z"/><rect style="fill:#465f29;fill-opacity:1;stroke:none;stroke-width:0.233295;stroke-linecap:butt;stroke-linejoin:round;stroke-dasharray:none;stroke-opacity:1" id="rect63930" width="0.67511487" height="1.3189449" x="222.55118" y="124.12148"/><path id="path63932" style="fill:#8b7853;fill-opacity:1;stroke:none;stroke-width:0.405203;stroke-linecap:butt;stroke-linejoin:round;stroke-dasharray:none;stroke-opacity:1" d="m 218.63021,124.12145 v 1.31886 h 0.26241 v -1.31886 z"/><path id="path63934" style="fill:#8b7853;fill-opacity:1;stroke:none;stroke-width:0.405203;stroke-linecap:butt;stroke-linejoin:round;stroke-dasharray:none;stroke-opacity:1" d="m 220.75454,124.12145 v 1.31886 h 0.2624 v -1.31886 z"/><path id="path63936" style="fill:#476820;fill-opacity:0.431579;stroke:none;stroke-width:0.513203;stroke-linecap:butt;stroke-linejoin:round;stroke-dasharray:none;stroke-opacity:1" d="m 217.11649,124.81758 v 0.62273 h 5.94148 v -0.62273 z"/></g><g id="g63954" transform="translate(0.75957159,1.8039825)"><rect style="fill:none;fill-opacity:1;stroke:#374b20;stroke-width:0.536736;stroke-linecap:butt;stroke-linejoin:round;stroke-dasharray:none;stroke-opacity:1" id="rect63940" width="6.1097832" height="1.3189449" x="217.1165" y="124.12148"/><rect style="fill:#7fb341;fill-opacity:1;stroke:none;stroke-width:0.701826;stroke-linecap:butt;stroke-linejoin:round;stroke-dasharray:none;stroke-opacity:1" id="rect63942" width="6.1097832" height="1.3189449" x="217.1165" y="124.12148"/><path id="path63944" style="fill:#d2cf9d;fill-opacity:1;stroke:none;stroke-width:1.22207;stroke-linecap:butt;stroke-linejoin:round;stroke-dasharray:none;stroke-opacity:1" d="m 218.63021,124.12145 v 1.31886 h 2.38673 v -1.31886 z"/><rect style="fill:#465f29;fill-opacity:1;stroke:none;stroke-width:0.233295;stroke-linecap:butt;stroke-linejoin:round;stroke-dasharray:none;stroke-opacity:1" id="rect63946" width="0.67511487" height="1.3189449" x="222.55118" y="124.12148"/><path id="path63948" style="fill:#8b7853;fill-opacity:1;stroke:none;stroke-width:0.405203;stroke-linecap:butt;stroke-linejoin:round;stroke-dasharray:none;stroke-opacity:1" d="m 218.63021,124.12145 v 1.31886 h 0.26241 v -1.31886 z"/><path id="path63950" style="fill:#8b7853;fill-opacity:1;stroke:none;stroke-width:0.405203;stroke-linecap:butt;stroke-linejoin:round;stroke-dasharray:none;stroke-opacity:1" d="m 220.75454,124.12145 v 1.31886 h 0.2624 v -1.31886 z"/><path id="path63952" style="fill:#476820;fill-opacity:0.431579;stroke:none;stroke-width:0.513203;stroke-linecap:butt;stroke-linejoin:round;stroke-dasharray:none;stroke-opacity:1" d="m 217.11649,124.81758 v 0.62273 h 5.94148 v -0.62273 z"/></g><g id="g63922" transform="translate(0.1898929,3.5130186)"><rect style="fill:none;fill-opacity:1;stroke:#374b20;stroke-width:0.536736;stroke-linecap:butt;stroke-linejoin:round;stroke-dasharray:none;stroke-opacity:1" id="rect62067" width="6.1097832" height="1.3189449" x="217.1165" y="124.12148"/><rect style="fill:#7fb341;fill-opacity:1;stroke:none;stroke-width:0.701826;stroke-linecap:butt;stroke-linejoin:round;stroke-dasharray:none;stroke-opacity:1" id="rect61200" width="6.1097832" height="1.3189449" x="217.1165" y="124.12148"/><path id="rect62259" style="fill:#d2cf9d;fill-opacity:1;stroke:none;stroke-width:1.22207;stroke-linecap:butt;stroke-linejoin:round;stroke-dasharray:none;stroke-opacity:1" d="m 218.63021,124.12145 v 1.31886 h 2.38673 v -1.31886 z"/><rect style="fill:#465f29;fill-opacity:1;stroke:none;stroke-width:0.233295;stroke-linecap:butt;stroke-linejoin:round;stroke-dasharray:none;stroke-opacity:1" id="rect61996" width="0.67511487" height="1.3189449" x="222.55118" y="124.12148"/><path id="path63127" style="fill:#8b7853;fill-opacity:1;stroke:none;stroke-width:0.405203;stroke-linecap:butt;stroke-linejoin:round;stroke-dasharray:none;stroke-opacity:1" d="m 218.63021,124.12145 v 1.31886 h 0.26241 v -1.31886 z"/><path id="path63129" style="fill:#8b7853;fill-opacity:1;stroke:none;stroke-width:0.405203;stroke-linecap:butt;stroke-linejoin:round;stroke-dasharray:none;stroke-opacity:1" d="m 220.75454,124.12145 v 1.31886 h 0.2624 v -1.31886 z"/><path id="rect63373" style="fill:#476820;fill-opacity:0.431579;stroke:none;stroke-width:0.513203;stroke-linecap:butt;stroke-linejoin:round;stroke-dasharray:none;stroke-opacity:1" d="m 217.11649,124.81758 v 0.62273 h 5.94148 v -0.62273 z"/></g><rect style="fill:none;fill-opacity:1;stroke:#374b20;stroke-width:0.791104;stroke-linecap:butt;stroke-linejoin:round;stroke-dasharray:none;stroke-opacity:1" id="rect64305" width="6.5196562" height="2.7850959" x="220.65692" y="126.06236"/><rect style="fill:#7fb341;fill-opacity:1;stroke:none;stroke-width:0.605908;stroke-linecap:butt;stroke-linejoin:round;stroke-dasharray:none;stroke-opacity:1" id="rect63956" width="6.5196562" height="2.7850959" x="220.65692" y="126.06236"/><rect style="fill:none;fill-opacity:1;stroke:#465f29;stroke-width:0.235479;stroke-linecap:butt;stroke-linejoin:round;stroke-dasharray:none;stroke-opacity:1" id="rect64234" width="6.5196562" height="2.7850959" x="220.65692" y="126.06236"/><circle style="fill:none;fill-opacity:1;stroke:#374b20;stroke-width:0.243776;stroke-linecap:butt;stroke-linejoin:round;stroke-dasharray:none;stroke-opacity:1" id="circle64709" cx="223.91675" cy="127.45491" r="1.0411649"/><circle style="fill:#465f29;fill-opacity:1;stroke:none;stroke-width:0.53341;stroke-linecap:butt;stroke-linejoin:round;stroke-dasharray:none;stroke-opacity:1" id="path64428" cx="223.91675" cy="127.45491" r="1.0411649"/><path style="-inkscape-font-specification:'Nunito Heavy';fill:#add282;stroke-width:0.433442;stroke-linejoin:round" d="m 223.92051,128.28382 q -0.0505,0 -0.0852,-0.0348 -0.0348,-0.0348 -0.0348,-0.087 v -0.12873 l 0.0522,0.047 q -0.11655,-0.005 -0.20179,-0.0296 -0.0852,-0.0244 -0.13916,-0.0487 -0.0452,-0.0209 -0.0644,-0.0591 -0.0174,-0.0383 -0.0139,-0.0783 0.005,-0.04 0.0296,-0.0731 0.0243,-0.0331 0.0626,-0.0435 0.04,-0.0122 0.0922,0.0104 0.0348,0.0191 0.10438,0.04 0.0713,0.0191 0.17569,0.0191 0.0731,0 0.11481,-0.0139 0.0435,-0.0139 0.0609,-0.0365 0.0191,-0.0243 0.0191,-0.0522 0,-0.0261 -0.0139,-0.0435 -0.0122,-0.0191 -0.0418,-0.0331 -0.0296,-0.0157 -0.0818,-0.0278 l -0.19657,-0.0417 q -0.16178,-0.0365 -0.2418,-0.12177 -0.0783,-0.087 -0.0783,-0.22441 0,-0.10437 0.0504,-0.18613 0.0522,-0.0835 0.14439,-0.13569 0.0939,-0.0522 0.21918,-0.0661 l -0.0522,0.0296 v -0.11655 q 0,-0.0522 0.0348,-0.087 0.0348,-0.0348 0.0852,-0.0348 0.0522,0 0.087,0.0348 0.0348,0.0348 0.0348,0.087 v 0.11655 l -0.0522,-0.033 q 0.0661,0.002 0.14265,0.0226 0.0765,0.0191 0.13394,0.0539 0.04,0.0209 0.0557,0.0574 0.0174,0.0365 0.0122,0.0748 -0.003,0.0365 -0.0278,0.0661 -0.0226,0.0296 -0.0626,0.04 -0.0383,0.009 -0.0922,-0.0139 -0.04,-0.0174 -0.0905,-0.0278 -0.0487,-0.0122 -0.12525,-0.0122 -0.0922,0 -0.14264,0.0331 -0.0487,0.0331 -0.0487,0.0852 0,0.0348 0.0278,0.0591 0.0296,0.0226 0.10612,0.04 l 0.19831,0.0435 q 0.16526,0.0365 0.24354,0.12177 0.08,0.0835 0.08,0.21745 0,0.10437 -0.0505,0.18439 -0.0504,0.08 -0.1409,0.13047 -0.0887,0.0505 -0.20701,0.0661 l 0.04,-0.0418 v 0.13047 q 0,0.0522 -0.0348,0.087 -0.0331,0.0348 -0.087,0.0348 z" id="text64657" aria-label="$"/></g></g></svg>