<svg xmlns:inkscape="http://www.inkscape.org/namespaces/inkscape" xmlns:sodipodi="http://sodipodi.sourceforge.net/DTD/sodipodi-0.dtd" xmlns:xlink="http://www.w3.org/1999/xlink" xmlns="http://www.w3.org/2000/svg" xmlns:svg="http://www.w3.org/2000/svg" width="1922.063" height="485.79623" viewBox="0 0 508.54581 128.53358" version="1.1" id="svg5" xml:space="preserve" sodipodi:docname="lvl1Table (1).svg" inkscape:version="1.4 (e7c3feb1, 2024-10-09)"><sodipodi:namedview id="namedview1" pagecolor="#505050" bordercolor="#ffffff" borderopacity="1" inkscape:showpageshadow="0" inkscape:pageopacity="0" inkscape:pagecheckerboard="1" inkscape:deskcolor="#505050" inkscape:zoom="0.80569222" inkscape:cx="873.7828" inkscape:cy="148.31967" inkscape:window-width="1424" inkscape:window-height="740" inkscape:window-x="33" inkscape:window-y="38" inkscape:window-maximized="0" inkscape:current-layer="svg5"/><defs id="defs2"><linearGradient id="linearGradient5"><stop style="stop-color:#e04444;stop-opacity:1;" offset="0" id="stop4"/><stop style="stop-color:#9a1b1b;stop-opacity:1;" offset="1" id="stop5"/></linearGradient><linearGradient id="linearGradient11012"><stop style="stop-color:#25aefb;stop-opacity:1;" offset="0" id="stop11010"/><stop style="stop-color:#047ec3;stop-opacity:1;" offset="1" id="stop11008"/></linearGradient><style id="style608">.cls-1{fill-opacity:0.8;fill:url(#linear-gradient);}.cls-2{fill:#61cbed;}.cls-3{fill:#0fafd2;}.cls-4{fill-opacity:0.9;fill:url(#linear-gradient-2);}.cls-5{fill:#04859b;opacity:0.5;}.cls-6{fill:none;stroke:#8e281d;stroke-miterlimit:10;stroke-width:12px;}.cls-7{fill:#f18221;}.cls-8{fill:#d25927;}.cls-9{fill:url(#linear-gradient-3);}.cls-10{fill:#fff;}.cls-11{fill:#414042;}</style><style id="style36590">.cls-1{fill:url(#linear-gradient);}.cls-2{fill:#f7941d;}.cls-3{fill:#ecf7fe;}.cls-4{fill:#f3b71c;}.cls-5{fill:#c7eaf7;}.cls-6{fill:#6eb8cc;}.cls-7{fill:#009444;}.cls-8{fill:#39b54a;}.cls-10,.cls-9{fill:#f47e20;}.cls-9{stroke:#f47e20;stroke-miterlimit:10;}.cls-11{fill:none;stroke:#f3b71c;stroke-linejoin:bevel;stroke-width:3px;}</style><linearGradient xlink:href="#linearGradient11012" id="linearGradient11014" x1="207.46338" y1="439.20749" x2="207.44231" y2="416.51224" gradientUnits="userSpaceOnUse" gradientTransform="translate(44.625723,-307.16094)"/><style id="style608-9">.cls-1{fill-opacity:0.8;fill:url(#linear-gradient);}.cls-2{fill:#61cbed;}.cls-3{fill:#0fafd2;}.cls-4{fill-opacity:0.9;fill:url(#linear-gradient-2);}.cls-5{fill:#04859b;opacity:0.5;}.cls-6{fill:none;stroke:#8e281d;stroke-miterlimit:10;stroke-width:12px;}.cls-7{fill:#f18221;}.cls-8{fill:#d25927;}.cls-9{fill:url(#linear-gradient-3);}.cls-10{fill:#fff;}.cls-11{fill:#414042;}</style><style id="style36590-1">.cls-1{fill:url(#linear-gradient);}.cls-2{fill:#f7941d;}.cls-3{fill:#ecf7fe;}.cls-4{fill:#f3b71c;}.cls-5{fill:#c7eaf7;}.cls-6{fill:#6eb8cc;}.cls-7{fill:#009444;}.cls-8{fill:#39b54a;}.cls-10,.cls-9{fill:#f47e20;}.cls-9{stroke:#f47e20;stroke-miterlimit:10;}.cls-11{fill:none;stroke:#f3b71c;stroke-linejoin:bevel;stroke-width:3px;}</style><style id="style608-4">.cls-1{fill-opacity:0.8;fill:url(#linear-gradient);}.cls-2{fill:#61cbed;}.cls-3{fill:#0fafd2;}.cls-4{fill-opacity:0.9;fill:url(#linear-gradient-2);}.cls-5{fill:#04859b;opacity:0.5;}.cls-6{fill:none;stroke:#8e281d;stroke-miterlimit:10;stroke-width:12px;}.cls-7{fill:#f18221;}.cls-8{fill:#d25927;}.cls-9{fill:url(#linear-gradient-3);}.cls-10{fill:#fff;}.cls-11{fill:#414042;}</style><style id="style36590-4">.cls-1{fill:url(#linear-gradient);}.cls-2{fill:#f7941d;}.cls-3{fill:#ecf7fe;}.cls-4{fill:#f3b71c;}.cls-5{fill:#c7eaf7;}.cls-6{fill:#6eb8cc;}.cls-7{fill:#009444;}.cls-8{fill:#39b54a;}.cls-10,.cls-9{fill:#f47e20;}.cls-9{stroke:#f47e20;stroke-miterlimit:10;}.cls-11{fill:none;stroke:#f3b71c;stroke-linejoin:bevel;stroke-width:3px;}</style><style id="style75661">.cls-1{fill:url(#linear-gradient);}.cls-2{fill:#f7aa74;}.cls-3{fill:#f49849;}.cls-4{fill:#d25927;}.cls-5{fill:#e17f34;}.cls-6{fill:#fff;}.cls-7{fill:#414042;}.cls-8{fill:none;stroke:#231f20;stroke-linecap:round;stroke-miterlimit:10;stroke-width:10px;}.cls-9{fill:#231f20;}.cls-10{fill:#b84f29;}</style><style id="style78395">.cls-1{fill:url(#linear-gradient);}.cls-2{fill:#8a9143;}.cls-3{fill:url(#linear-gradient-2);}.cls-4{fill:#5b4e23;}.cls-5{fill:url(#linear-gradient-3);}.cls-6{fill:url(#linear-gradient-4);}.cls-7{fill:url(#linear-gradient-5);}.cls-8{fill:#443818;}.cls-9{fill:url(#linear-gradient-6);}.cls-10{fill:url(#linear-gradient-7);}.cls-11{fill:url(#linear-gradient-8);}.cls-12{fill:url(#linear-gradient-9);}.cls-13{fill:#707230;}.cls-14{fill:#f9ed32;}.cls-15{fill:#414042;}.cls-16{fill:#fff;}.cls-17{fill:#4f5021;}</style><style id="style608-8">.cls-1{fill-opacity:0.8;fill:url(#linear-gradient);}.cls-2{fill:#61cbed;}.cls-3{fill:#0fafd2;}.cls-4{fill-opacity:0.9;fill:url(#linear-gradient-2);}.cls-5{fill:#04859b;opacity:0.5;}.cls-6{fill:none;stroke:#8e281d;stroke-miterlimit:10;stroke-width:12px;}.cls-7{fill:#f18221;}.cls-8{fill:#d25927;}.cls-9{fill:url(#linear-gradient-3);}.cls-10{fill:#fff;}.cls-11{fill:#414042;}</style><style id="style36590-8">.cls-1{fill:url(#linear-gradient);}.cls-2{fill:#f7941d;}.cls-3{fill:#ecf7fe;}.cls-4{fill:#f3b71c;}.cls-5{fill:#c7eaf7;}.cls-6{fill:#6eb8cc;}.cls-7{fill:#009444;}.cls-8{fill:#39b54a;}.cls-10,.cls-9{fill:#f47e20;}.cls-9{stroke:#f47e20;stroke-miterlimit:10;}.cls-11{fill:none;stroke:#f3b71c;stroke-linejoin:bevel;stroke-width:3px;}</style><style id="style608-2">.cls-1{fill-opacity:0.8;fill:url(#linear-gradient);}.cls-2{fill:#61cbed;}.cls-3{fill:#0fafd2;}.cls-4{fill-opacity:0.9;fill:url(#linear-gradient-2);}.cls-5{fill:#04859b;opacity:0.5;}.cls-6{fill:none;stroke:#8e281d;stroke-miterlimit:10;stroke-width:12px;}.cls-7{fill:#f18221;}.cls-8{fill:#d25927;}.cls-9{fill:url(#linear-gradient-3);}.cls-10{fill:#fff;}.cls-11{fill:#414042;}</style><style id="style36590-5">.cls-1{fill:url(#linear-gradient);}.cls-2{fill:#f7941d;}.cls-3{fill:#ecf7fe;}.cls-4{fill:#f3b71c;}.cls-5{fill:#c7eaf7;}.cls-6{fill:#6eb8cc;}.cls-7{fill:#009444;}.cls-8{fill:#39b54a;}.cls-10,.cls-9{fill:#f47e20;}.cls-9{stroke:#f47e20;stroke-miterlimit:10;}.cls-11{fill:none;stroke:#f3b71c;stroke-linejoin:bevel;stroke-width:3px;}</style><style id="style608-22">.cls-1{fill-opacity:0.8;fill:url(#linear-gradient);}.cls-2{fill:#61cbed;}.cls-3{fill:#0fafd2;}.cls-4{fill-opacity:0.9;fill:url(#linear-gradient-2);}.cls-5{fill:#04859b;opacity:0.5;}.cls-6{fill:none;stroke:#8e281d;stroke-miterlimit:10;stroke-width:12px;}.cls-7{fill:#f18221;}.cls-8{fill:#d25927;}.cls-9{fill:url(#linear-gradient-3);}.cls-10{fill:#fff;}.cls-11{fill:#414042;}</style><style id="style36590-51">.cls-1{fill:url(#linear-gradient);}.cls-2{fill:#f7941d;}.cls-3{fill:#ecf7fe;}.cls-4{fill:#f3b71c;}.cls-5{fill:#c7eaf7;}.cls-6{fill:#6eb8cc;}.cls-7{fill:#009444;}.cls-8{fill:#39b54a;}.cls-10,.cls-9{fill:#f47e20;}.cls-9{stroke:#f47e20;stroke-miterlimit:10;}.cls-11{fill:none;stroke:#f3b71c;stroke-linejoin:bevel;stroke-width:3px;}</style><style id="style608-7">.cls-1{fill-opacity:0.8;fill:url(#linear-gradient);}.cls-2{fill:#61cbed;}.cls-3{fill:#0fafd2;}.cls-4{fill-opacity:0.9;fill:url(#linear-gradient-2);}.cls-5{fill:#04859b;opacity:0.5;}.cls-6{fill:none;stroke:#8e281d;stroke-miterlimit:10;stroke-width:12px;}.cls-7{fill:#f18221;}.cls-8{fill:#d25927;}.cls-9{fill:url(#linear-gradient-3);}.cls-10{fill:#fff;}.cls-11{fill:#414042;}</style><style id="style36590-9">.cls-1{fill:url(#linear-gradient);}.cls-2{fill:#f7941d;}.cls-3{fill:#ecf7fe;}.cls-4{fill:#f3b71c;}.cls-5{fill:#c7eaf7;}.cls-6{fill:#6eb8cc;}.cls-7{fill:#009444;}.cls-8{fill:#39b54a;}.cls-10,.cls-9{fill:#f47e20;}.cls-9{stroke:#f47e20;stroke-miterlimit:10;}.cls-11{fill:none;stroke:#f3b71c;stroke-linejoin:bevel;stroke-width:3px;}</style><style id="style608-5">.cls-1{fill-opacity:0.8;fill:url(#linear-gradient);}.cls-2{fill:#61cbed;}.cls-3{fill:#0fafd2;}.cls-4{fill-opacity:0.9;fill:url(#linear-gradient-2);}.cls-5{fill:#04859b;opacity:0.5;}.cls-6{fill:none;stroke:#8e281d;stroke-miterlimit:10;stroke-width:12px;}.cls-7{fill:#f18221;}.cls-8{fill:#d25927;}.cls-9{fill:url(#linear-gradient-3);}.cls-10{fill:#fff;}.cls-11{fill:#414042;}</style><style id="style36590-52">.cls-1{fill:url(#linear-gradient);}.cls-2{fill:#f7941d;}.cls-3{fill:#ecf7fe;}.cls-4{fill:#f3b71c;}.cls-5{fill:#c7eaf7;}.cls-6{fill:#6eb8cc;}.cls-7{fill:#009444;}.cls-8{fill:#39b54a;}.cls-10,.cls-9{fill:#f47e20;}.cls-9{stroke:#f47e20;stroke-miterlimit:10;}.cls-11{fill:none;stroke:#f3b71c;stroke-linejoin:bevel;stroke-width:3px;}</style><linearGradient inkscape:collect="always" xlink:href="#linearGradient5" id="linearGradient8" gradientUnits="userSpaceOnUse" gradientTransform="translate(44.625723,-307.16094)" x1="207.46338" y1="439.20749" x2="207.44231" y2="416.51224"/><linearGradient xlink:href="#linearGradient6" id="linearGradient7" x1="227.93243" y1="435.69452" x2="228.0513" y2="412.36475" gradientUnits="userSpaceOnUse"/><linearGradient id="linearGradient6"><stop style="stop-color:#e04444;stop-opacity:1;" offset="0" id="stop6"/><stop style="stop-color:#9a1b1b;stop-opacity:1;" offset="1" id="stop7"/></linearGradient><linearGradient id="linearGradient3" gradientTransform="scale(2.0212242,0.49474966)" x1="-21.388613" y1="630.76568" x2="228.4821" y2="630.76568" gradientUnits="userSpaceOnUse"><stop style="stop-color:#e04444;stop-opacity:1;" offset="0" id="stop1"/><stop style="stop-color:#9a1b1b;stop-opacity:1;" offset="1" id="stop2"/></linearGradient></defs><rect style="fill:url(#linearGradient8);fill-opacity:1;stroke-width:0.293716" id="rect3" width="508.54578" height="128.20552" x="3.4667968e-07" y="0.32807368"/><rect style="display:inline;fill:#e04444;fill-opacity:1;stroke-width:0.27126" id="rect4" width="508.54578" height="109.3513" x="3.4667968e-07" y="-4.8849813e-15"/><path id="path4" style="fill:#b82828;fill-opacity:0.17254902;stroke-width:0.19647;stroke-linejoin:round" d="m 47.745921,4.7661171 c 0.002,0.0238 -0.07759,0.042678 -0.05529,0.057878 l 4.950085,3.3739541 c 0.71539,0.48761 1.173177,1.2003581 1.342037,2.0892778 l 1.088305,5.729366 c 0.0322,0.1692 0.406798,-0.0161 0.428398,-0.211874 l 0.840259,-7.6264068 c 0.10926,-0.99144 -0.35412,-1.6954779 -1.26969,-1.9295979 L 49.270892,4.7661171 Z m 134.547849,0 4.64313,3.9558307 c 0.73709,0.62799 1.16055,1.4753362 1.24179,2.4840862 l 0.52348,6.501928 c 0.0155,0.192 0.45429,0.03071 0.50178,-0.184485 l 1.84898,-8.3798495 c 0.24035,-1.08941 -0.19073,-1.9279608 -1.18081,-2.2980508 l -5.56297,-2.0794596 z m 66.17219,0 3.75377,4.5831826 c 0.61789,0.7544903 0.88583,1.6703403 0.78549,2.6845903 l -0.64699,6.537069 c -0.0191,0.19306 0.44456,0.112219 0.5302,-0.0925 l 3.33468,-7.973157 c 0.43349,-1.0365396 0.15674,-1.9449832 -0.7581,-2.4892532 L 250.0023,4.7661171 Z m 46.43696,0 -5.55315,0.5596558 c -0.21508,0.0217 -0.41296,0.4731148 -0.2279,0.5198648 l 6.40788,1.6190226 c 0.92605,0.23398 1.67036,0.7987428 2.1823,1.6557128 l 3.30005,5.5236939 c 0.0975,0.1631 0.41513,-0.171336 0.36329,-0.382406 l -2.02055,-8.2196528 c -0.16297,-0.66311 -0.55991,-1.0434811 -1.04955,-1.2758911 z m 26.05008,0 0.27234,4.2875934 c 0.0607,0.9555295 -0.24967,1.8391695 -0.91054,2.5905395 l -4.25969,4.842598 c -0.12577,0.14304 0.29039,0.34417 0.47594,0.22996 l 7.22488,-4.448824 c 0.9393,-0.57834 1.23898,-1.461033 0.82114,-2.4189733 l -2.21692,-5.0828936 z m 49.66519,0 3.67988,3.1346922 c 0.75541,0.6436 1.18954,1.5122777 1.27279,2.5460977 l 0.5364,6.663159 c 0.0159,0.19678 0.46602,0.0314 0.51469,-0.189136 l 1.89446,-8.5875889 c 0.24631,-1.11649 -0.19506,-1.9761217 -1.20974,-2.3554117 L 374.065,4.7661171 Z m 25.64546,0 -2.30735,4.6663816 c -0.38399,0.7766003 -1.02664,1.3288793 -1.88413,1.6195393 l -5.52679,1.873787 c -0.1632,0.0554 0.0727,0.400568 0.26975,0.394808 l 7.67395,-0.224792 c 0.99766,-0.0293 1.63133,-0.586195 1.73633,-1.526005 l 0.76016,-6.8037189 z m -184.5324,0.083199 -3.51038,5.2647949 c -0.5073,0.76087 -1.25505,1.252262 -2.19211,1.440222 l -6.03943,1.211295 c -0.17835,0.0358 0.0214,0.429402 0.22841,0.450102 l 8.06359,0.805636 c 1.04834,0.1047 1.78731,-0.392631 2.02469,-1.362191 l 1.82107,-7.4377886 c 0.0492,-0.20102 -0.29448,-0.5241203 -0.39584,-0.3720703 z m 56.01829,0.1012858 c -0.20524,-0.004 -0.44345,0.3981375 -0.27441,0.4635375 l 5.85288,2.264978 c 0.8459,0.32731 1.48279,0.9455124 1.86655,1.8122924 l 2.47323,5.5867392 c 0.0731,0.16497 0.41108,-0.113387 0.38654,-0.318327 L 277.0978,6.7789141 c -0.12439,-1.03755 -0.76456,-1.6455149 -1.75441,-1.6665649 z m -35.87275,0.063562 -2.48874,5.7397011 c -0.35965,0.82956 -1.00034,1.439181 -1.87895,1.786971 l -5.66322,2.241723 c -0.16722,0.0663 0.0967,0.414209 0.30179,0.397909 l 7.98711,-0.636137 c 1.0384,-0.0827 1.66981,-0.695934 1.73013,-1.681034 l 0.4625,-7.5571613 c 0.0125,-0.20425 -0.37876,-0.4577418 -0.45062,-0.2919718 z m -65.18051,0.1033528 -0.73226,5.9340043 c -0.10578,0.85755 -0.52865,1.589099 -1.24023,2.145089 l -4.58629,3.58376 c -0.13542,0.10586 0.20034,0.353497 0.38396,0.283187 l 7.15047,-2.738851 c 0.92962,-0.35603 1.34284,-1.088806 1.13223,-2.008146 l -1.61592,-7.052799 c -0.0437,-0.19061 -0.47083,-0.3176043 -0.49196,-0.1462443 z m 263.75546,0.5379517 c -0.19447,-0.0557 -0.52292,0.267807 -0.37827,0.372587 l 5.009,3.6287189 c 0.72388,0.5243597 1.17543,1.2728447 1.32343,2.1952147 l 0.95395,5.945373 c 0.0282,0.17556 0.41994,-0.005 0.44803,-0.206189 l 1.09296,-7.8455152 c 0.14206,-1.01994 -0.3152,-1.7601466 -1.25316,-2.0288166 z M 69.238148,6.1691322 c -0.2015,-0.0688 -0.563579,0.2542903 -0.417029,0.3720703 l 5.074109,4.0783035 c 0.73332,0.58939 1.168424,1.400193 1.275374,2.377633 l 0.689363,6.30039 c 0.0204,0.18605 0.442011,0.017 0.482141,-0.19327 l 1.562179,-8.18968 C 78.107415,9.8498587 77.665883,9.0471199 76.694023,8.7152299 Z M 37.247854,7.0615841 34.589618,13.074137 c -0.38411,0.86888 -1.061725,1.504115 -1.987475,1.862935 l -5.967078,2.313037 c -0.17619,0.0683 0.09859,0.435719 0.314193,0.420129 l 8.396386,-0.608231 c 1.09163,-0.079 1.75961,-0.718821 1.83038,-1.753381 l 0.543119,-7.9364665 c 0.0147,-0.2145 -0.394539,-0.4842054 -0.471289,-0.3105754 z m 387.241976,0.3632853 -5.47408,2.8613236 c -0.79113,0.41354 -1.66188,0.483656 -2.5523,0.205156 l -5.73919,-1.7952394 c -0.1695,-0.053 -0.18254,0.3776664 -0.015,0.4924764 l 6.52621,4.471045 c 0.84845,0.58126 1.71403,0.502265 2.37195,-0.216525 l 5.04724,-5.5143914 c 0.13641,-0.14903 -0.007,-0.5864952 -0.16485,-0.5038452 z M 95.568322,7.8398312 93.235131,13.554728 c -0.3372,0.82595 -0.956571,1.440773 -1.815909,1.802473 l -5.539197,2.331641 c -0.16356,0.0689 0.104461,0.405926 0.306441,0.385506 l 7.865153,-0.796334 c 1.02258,-0.10353 1.632586,-0.721957 1.671216,-1.694987 l 0.296106,-7.4646599 c 0.008,-0.20174 -0.383239,-0.4435859 -0.450619,-0.2785359 z m 33.140098,0.5043619 -5.47409,2.7135289 c -0.7911,0.39213 -1.65342,0.442632 -2.52801,0.148312 l -5.63738,-1.8970419 c -0.16649,-0.056 -0.18861,0.3696919 -0.0253,0.4867919 l 6.35827,4.559928 c 0.82666,0.59281 1.68438,0.532986 2.35024,-0.163814 l 5.10822,-5.3459268 c 0.13806,-0.14447 0.006,-0.5801481 -0.15193,-0.5017781 z M 16.736962,10.228316 11.255126,14.36398 c -0.79226,0.59767 -1.734348,0.832544 -2.761588,0.689364 L 1.8727538,14.130403 c -0.19553,-0.0272 -0.1318562,0.447739 0.072864,0.543119 l 7.971606,3.713985 c 1.0363802,0.48285 1.9715772,0.238414 2.5621172,-0.669726 l 4.530473,-6.9665 c 0.12244,-0.18828 -0.114532,-0.642405 -0.272852,-0.522965 z m 136.866578,0.610298 -6.1836,2.740918 c -0.89365,0.39611 -1.84957,0.411065 -2.80293,0.04392 l -6.14485,-2.365747 c -0.18148,-0.0698 -0.22667,0.399638 -0.0517,0.536918 l 6.81664,5.345927 c 0.88616,0.69497 1.83748,0.669327 2.60708,-0.06976 l 5.90403,-5.669421 c 0.15956,-0.15323 0.0339,-0.641917 -0.14469,-0.562757 z m 196.12445,0.06666 -5.82497,2.482536 c -0.84177,0.35879 -1.7367,0.36011 -2.62413,0.0031 l -5.72006,-2.297017 c -0.16893,-0.0678 -0.21726,0.371445 -0.0553,0.502295 l 6.30865,5.094779 c 0.82014,0.66237 1.71094,0.651398 2.4412,-0.02997 l 5.60224,-5.227588 c 0.1513,-0.141191 0.0403,-0.599048 -0.12764,-0.528133 z m 120.3451,0.872298 -5.91902,2.777091 c -0.85537,0.40134 -1.77892,0.435739 -2.70784,0.100769 L 455.459,12.496394 c -0.17682,-0.0637 -0.21079,0.390835 -0.0388,0.519865 l 6.6983,5.024499 c 0.87078,0.65321 1.7893,0.608731 2.51768,-0.121439 l 5.58777,-5.601208 c 0.15102,-0.15139 0.02,-0.620736 -0.1509,-0.540536 z m -111.38027,9.789066 c -0.13348,-2.31e-4 -0.24976,0.04725 -0.2341,0.14211 l 1.08417,6.567558 c 0.1567,0.94918 -0.065,1.86389 -0.65009,2.68149 l -3.77134,5.269962 c -0.11134,0.15565 0.32469,0.314224 0.49868,0.181384 l 6.77633,-5.173327 c 0.88092,-0.67262 1.09127,-1.585449 0.57722,-2.501139 l -3.94343,-7.024894 c -0.0533,-0.09493 -0.20397,-0.142913 -0.33744,-0.143144 z M 43.3157,21.57646 c -0.125385,-0.02486 -0.24325,-0.0016 -0.24598,0.09043 l -0.189652,6.376355 c -0.0274,0.92152 -0.404022,1.740701 -1.104842,2.401921 l -4.517037,4.261755 c -0.13337,0.12589 0.247532,0.355933 0.435632,0.263033 l 7.325134,-3.618384 c 0.95229,-0.47042 1.318447,-1.290057 1.003557,-2.245857 L 43.606638,21.773347 C 43.573988,21.674267 43.441085,21.601321 43.3157,21.57646 Z m 359.06902,0.348816 c -0.1331,-0.0374 -0.2626,-0.02252 -0.27337,0.07648 l -0.74569,6.853845 c -0.10783,0.99056 -0.58396,1.841571 -1.39526,2.494421 l -5.22914,4.207495 c -0.15441,0.1243 0.23694,0.404504 0.44752,0.320394 l 8.1995,-3.275769 c 1.06605,-0.42589 1.53079,-1.277635 1.27279,-2.334225 l -1.97973,-8.105964 c -0.0267,-0.10954 -0.16352,-0.199218 -0.29662,-0.236678 z m 14.59446,0.001 c -0.13247,0.0346 -0.23567,0.111568 -0.19534,0.201538 l 2.79208,6.230111 c 0.40351,0.90038 0.42243,1.865474 0.0558,2.829284 l -2.36265,6.212024 c -0.0697,0.18347 0.40478,0.226849 0.54261,0.04961 l 5.36763,-6.901904 c 0.69782,-0.89733 0.66798,-1.857604 -0.0811,-2.631364 l -5.74693,-5.936071 c -0.0777,-0.0802 -0.23959,-0.08783 -0.37207,-0.05323 z m -267.72215,0.14211 c -0.12636,0.01786 -0.22978,0.07833 -0.20205,0.165882 l 1.92081,6.062678 c 0.27754,0.87614 0.19227,1.77128 -0.2496,2.62413 l -2.84789,5.496821 c -0.0841,0.16235 0.35019,0.25319 0.49662,0.10387 l 5.70197,-5.815665 c 0.74126,-0.75607 0.81604,-1.648019 0.20516,-2.443779 l -4.68602,-6.104536 c -0.0633,-0.0825 -0.21263,-0.107262 -0.339,-0.0894 z m 114.73408,0.02997 c -0.13035,0.01473 -0.23883,0.07404 -0.21291,0.164847 l 1.79524,6.286438 c 0.25944,0.90852 0.14585,1.825822 -0.33331,2.689242 l -3.08819,5.565034 c -0.0912,0.16437 0.35207,0.27058 0.50695,0.12144 l 6.03064,-5.808431 c 0.78402,-0.75515 0.88753,-1.669543 0.28319,-2.505273 l -4.63641,-6.411495 c -0.0627,-0.08664 -0.21486,-0.116535 -0.3452,-0.101802 z m 23.40529,1.310514 -8.107,1.229382 c -0.2191,0.0333 -0.39859,0.505793 -0.20671,0.544153 l 6.64404,1.328601 c 0.96021,0.19203 1.75157,0.732186 2.31976,1.583366 l 3.66231,5.48597 c 0.10819,0.16199 0.41636,-0.196335 0.35243,-0.409795 l -2.49081,-8.31267 c -0.3238,-1.08069 -1.11723,-1.609307 -2.17402,-1.449007 z m -156.36048,0.02894 -3.02824,5.333524 c -0.4377,0.77078 -1.12658,1.297402 -2.01951,1.544092 l -5.7552,1.590083 c -0.16996,0.047 0.0505,0.413436 0.25218,0.419096 l 7.85171,0.219625 c 1.02081,0.0285 1.70065,-0.502918 1.86294,-1.456758 l 1.24488,-7.317383 c 0.0337,-0.19776 -0.3213,-0.486309 -0.40876,-0.332279 z m -74.305535,0.457853 c -0.19471,-0.0728 -0.557266,0.23238 -0.417546,0.3514 l 4.837431,4.121712 c 0.69914,0.59567 1.101172,1.399108 1.178222,2.355928 l 0.496611,6.167065 c 0.0147,0.18212 0.43089,0.0294 0.47594,-0.174666 l 1.753381,-7.948352 c 0.22798,-1.03332 -0.180708,-1.828672 -1.119828,-2.179712 z m 141.412035,0.305408 c -0.17849,-0.0848 -0.54691,0.174549 -0.42427,0.298689 l 4.24574,4.298963 c 0.61364,0.62125 0.92903,1.414916 0.92397,2.327506 l -0.0325,5.882328 c -6.7e-4,0.17371 0.40578,0.0625 0.46509,-0.127124 l 2.3089,-7.385595 c 0.30023,-0.96018 -0.0217,-1.746841 -0.88263,-2.155941 z M 9.8185217,24.234179 c -0.19216,-0.0718 -0.550258,0.229278 -0.412378,0.346748 l 4.7743853,4.067969 c 0.68998,0.58786 1.08668,1.380642 1.16272,2.324922 l 0.489892,6.08645 c 0.0145,0.17974 0.425279,0.0288 0.469739,-0.172599 l 1.730644,-7.844482 c 0.22499,-1.0198 -0.178032,-1.80484 -1.104842,-2.15129 z M 239.13991,24.378356 c -0.12057,-0.03765 -0.23871,-0.02759 -0.25114,0.06253 l -0.86093,6.240963 c -0.1244,0.90193 -0.58134,1.666663 -1.33946,2.241723 l -4.886,3.706234 c -0.14427,0.10949 0.20545,0.375157 0.39997,0.303857 l 7.57525,-2.777091 c 0.98483,-0.3611 1.43119,-1.127297 1.22318,-2.099097 l -1.59577,-7.455358 c -0.0215,-0.100745 -0.14453,-0.186109 -0.2651,-0.223759 z m 66.90703,0.128157 c -0.22236,-0.0191 -0.50904,0.400892 -0.33022,0.483692 l 6.19136,2.867008 c 0.89483,0.41431 1.54238,1.129253 1.89807,2.096513 l 2.29237,6.234244 c 0.0677,0.1841 0.45412,-0.0943 0.44183,-0.318327 l -0.47904,-8.725048 c -0.0623,-1.13437 -0.71455,-1.839545 -1.78697,-1.931665 z m -124.2844,0.07648 c -0.11344,-0.04839 -0.22923,-0.05019 -0.25011,0.03617 l -1.44643,5.98103 c -0.20902,0.86435 -0.72739,1.56266 -1.52032,2.04742 l -5.1108,3.124357 c -0.15091,0.0923 0.16314,0.385143 0.35915,0.334863 l 7.63313,-1.959053 c 0.99234,-0.25469 1.5009,-0.955556 1.39371,-1.920296 l -0.82269,-7.401099 c -0.0111,-0.10001 -0.1222,-0.195002 -0.23564,-0.243396 z m -73.71333,0.147278 c -0.12125,-0.0634 -0.24895,-0.07561 -0.27957,0.01809 l -2.1208,6.485392 c -0.30646,0.93727 -0.94047,1.663899 -1.85931,2.130619 l -5.922123,3.008085 c -0.17487,0.0889 0.146349,0.440016 0.367419,0.401526 l 8.609294,-1.49965 c 1.11921,-0.19499 1.74226,-0.925588 1.70791,-2.001428 l -0.26304,-8.253243 c -0.003,-0.11153 -0.11853,-0.225968 -0.23978,-0.289388 z m -23.116414,0.49351 c -0.131547,-0.0059 -0.248098,0.03605 -0.236678,0.130225 l 0.790649,6.521565 c 0.11427,0.94253 -0.143382,1.835028 -0.754992,2.616378 l -3.941878,5.036385 c -0.11638,0.14875 0.307018,0.323587 0.484208,0.199987 l 6.900354,-4.814176 c 0.89707,-0.62587 1.143451,-1.516554 0.675411,-2.441194 l -3.590479,-7.093624 c -0.0485,-0.09585 -0.195047,-0.149638 -0.326595,-0.155546 z m 248.977554,0.163814 -4.45141,4.684986 c -0.64332,0.67706 -1.48145,1.041071 -2.45721,1.066601 l -6.28902,0.164331 c -0.18573,0.005 -0.0534,0.436003 0.15141,0.492993 l 7.97367,2.218469 c 1.03662,0.28839 1.86715,-0.08279 2.27532,-1.016992 l 3.13107,-7.166487 c 0.0846,-0.19369 -0.20528,-0.579201 -0.33383,-0.443901 z m 112.4722,1.040764 -2.63808,5.968627 c -0.38132,0.86259 -1.05447,1.49328 -1.97352,1.8495 l -5.92367,2.295984 c -0.17493,0.0678 0.0976,0.432508 0.31161,0.417028 l 8.33592,-0.603064 c 1.08373,-0.0784 1.74666,-0.713909 1.81694,-1.740979 l 0.53899,-7.879105 c 0.0146,-0.21294 -0.392,-0.480371 -0.46819,-0.307991 z m -225.19503,1.44849 -4.35632,5.374865 c -0.62955,0.77676 -1.49344,1.235211 -2.53266,1.344621 l -6.6983,0.705383 c -0.1978,0.0208 -0.0197,0.469577 0.2036,0.513147 l 8.69663,1.696021 c 1.13062,0.22049 1.98504,-0.245555 2.34198,-1.276925 l 2.73833,-7.912178 c 0.074,-0.21384 -0.26746,-0.600154 -0.39326,-0.444934 z m 144.83198,0.848527 c -0.1359,-0.11536 -0.31711,0.277298 -0.20722,0.449068 l 4.28036,6.688997 c 0.55651,0.86961 1.38771,1.135775 2.27738,0.729155 l 6.8249,-3.11919 c 0.18446,-0.0843 0.22395,-0.545167 0.0455,-0.530717 l -6.1805,0.500228 c -0.89322,0.0723 -1.72524,-0.204066 -2.43913,-0.810286 z M 91.239388,40.048716 c -0.13178,0.0437 -0.231155,0.128125 -0.184485,0.216525 l 3.231844,6.121589 c 0.46707,0.8847 0.549359,1.860117 0.241329,2.859257 l -1.985409,6.439917 c -0.0586,0.19019 0.424511,0.203296 0.552421,0.01499 l 4.980575,-7.334436 c 0.64751,-0.9535 0.554808,-1.923192 -0.253732,-2.657202 l -6.202722,-5.630663 c -0.0838,-0.0761 -0.248031,-0.07367 -0.379821,-0.02997 z m 32.358232,0.496611 c -0.12739,-0.048 -0.25497,-0.04442 -0.27389,0.05168 l -1.31103,6.659542 c -0.18942,0.96248 -0.72779,1.75673 -1.57871,2.32854 l -5.48442,3.685563 c -0.16194,0.10887 0.19822,0.416616 0.41186,0.351916 l 8.31939,-2.520776 c 1.08159,-0.32768 1.6087,-1.123629 1.44487,-2.181779 l -1.25677,-8.11785 c -0.017,-0.1097 -0.14392,-0.208852 -0.2713,-0.256832 z m 182.72682,0.03979 c -0.13215,-0.0146 -0.25239,0.01965 -0.24701,0.115238 l 0.37258,6.618717 c 0.0538,0.95651 -0.26357,1.838322 -0.93017,2.585372 l -4.29638,4.81521 c -0.12685,0.14223 0.28845,0.34601 0.47491,0.23306 L 308.9589,50.5535 c 0.94398,-0.57193 1.25046,-1.45336 0.83923,-2.41484 l -3.15485,-7.375776 c -0.0426,-0.09967 -0.18669,-0.163164 -0.31884,-0.177767 z m 83.30706,0.560172 c -0.1828,-0.12345 -0.6329,0.101399 -0.51832,0.258899 l 3.96772,5.453414 c 0.57335,0.78816 0.78806,1.717098 0.62993,2.723348 l -1.01906,6.485908 c -0.0301,0.19154 0.43718,0.136812 0.53434,-0.06253 l 3.78271,-7.764384 c 0.49183,-1.00944 0.26827,-1.931587 -0.6134,-2.526977 z m -115.95106,0.402043 c -0.19006,-0.0937 -0.58897,0.178706 -0.4594,0.313676 l 4.48603,4.673616 c 0.64833,0.67544 0.97391,1.531634 0.95446,2.509924 l -0.12506,6.305558 c -0.003,0.18621 0.43373,0.0732 0.50023,-0.129191 l 2.58951,-7.882206 c 0.33661,-1.02477 0.003,-1.873112 -0.91364,-2.324922 z m -44.63862,0.219108 c -0.12165,0.02076 -0.21993,0.08198 -0.19068,0.165881 l 2.0252,5.810498 c 0.29271,0.8397 0.23526,1.707447 -0.16847,2.544547 l -2.60191,5.395536 c -0.0768,0.15935 0.34568,0.235317 0.48318,0.08682 l 5.35367,-5.782593 c 0.69602,-0.75179 0.74362,-1.616644 0.13075,-2.369364 l -4.70153,-5.774324 c -0.0635,-0.07803 -0.20855,-0.09776 -0.33021,-0.077 z m -44.28825,0.04858 -0.22117,6.009968 c -0.032,0.86862 -0.39314,1.638567 -1.05834,2.257227 l -4.28707,3.987353 c -0.12659,0.11779 0.23132,0.337448 0.40927,0.251148 l 6.92981,-3.362069 c 0.90098,-0.43708 1.25212,-1.207225 0.9617,-2.110465 l -2.22829,-6.929293 c -0.0602,-0.18727 -0.49952,-0.277449 -0.50591,-0.103869 z m 272.18648,0.0088 c -0.1015,-0.16926 -0.55109,-0.157148 -0.5178,0.01395 l 1.1529,5.923153 c 0.16661,0.85601 -0.0103,1.690332 -0.51935,2.446362 l -3.28094,4.87257 c -0.0969,0.14393 0.3026,0.276819 0.45682,0.151929 l 6.00584,-4.863785 c 0.78075,-0.63233 0.94792,-1.464618 0.45837,-2.280998 z m -106.32943,0.298689 c -0.12213,0.0041 -0.22724,0.05125 -0.2098,0.13746 l 1.20716,5.972761 c 0.17444,0.86321 10e-4,1.707128 -0.50695,2.474268 l -3.27783,4.944918 c -0.0968,0.14604 0.30766,0.277081 0.4625,0.149861 l 6.02961,-4.955253 c 0.78387,-0.64419 0.94675,-1.485966 0.44648,-2.306836 l -3.83801,-6.297289 c -0.0519,-0.0851 -0.19102,-0.123986 -0.31316,-0.11989 z M 56.982566,42.556057 c -0.13461,-0.0138 -0.256801,0.02159 -0.250631,0.118855 l 0.427364,6.734473 c 0.0618,0.97326 -0.254472,1.873298 -0.927592,2.638598 l -4.338753,4.932516 c -0.12809,0.14569 0.296272,0.350424 0.485242,0.234094 l 7.358723,-4.530473 c 0.95673,-0.58907 1.262242,-1.488222 0.836642,-2.463932 l -3.265434,-7.485331 c -0.0441,-0.10114 -0.190941,-0.164434 -0.325561,-0.178284 z m 77.168924,0.657324 c -0.18711,-0.11132 -0.6179,0.13549 -0.49609,0.28422 l 4.21783,5.150073 c 0.60953,0.74429 0.87413,1.647867 0.77515,2.648417 l -0.63821,6.448702 c -0.0188,0.19045 0.43849,0.110523 0.52297,-0.09147 l 3.28972,-7.865153 c 0.42763,-1.02253 0.15472,-1.918744 -0.74776,-2.455664 z M 9.0816158,43.410268 6.4233802,48.884869 c -0.38417,0.79118 -1.0322591,1.356987 -1.9006591,1.658297 L 0,52.112579 v 0.74259 l 6.9907874,-0.255281 c 1.01261,-0.037 1.652071,-0.606812 1.751831,-1.561662 l 0.7653279,-7.325134 c 0.0207,-0.19798 -0.3495605,-0.460924 -0.4263305,-0.302824 z M 248.30783,43.942535 c -0.18681,-0.11851 -0.6315,0.119802 -0.51211,0.274402 l 4.13411,5.353161 c 0.59743,0.77368 0.83968,1.69864 0.71003,2.71198 l -0.8356,6.531383 c -0.0246,0.19289 0.44213,0.125136 0.53381,-0.07751 l 3.56981,-7.893058 c 0.46409,-1.0261 0.21319,-1.944039 -0.68781,-2.515609 z m -210.166491,0.709518 -4.87102,4.193025 c -0.70393,0.60594 -1.569283,0.882633 -2.537313,0.810803 l -6.239412,-0.46302 c -0.18426,-0.0136 -0.0961,0.426061 0.100769,0.502811 l 7.669299,2.987931 c 0.99704,0.38851 1.855491,0.103963 2.352311,-0.779797 l 3.811137,-6.779431 c 0.10301,-0.18323 -0.145111,-0.593412 -0.285771,-0.472322 z m 134.745261,0.14056 c -0.11165,-0.05347 -0.22755,-0.06028 -0.25218,0.02532 l -1.70636,5.928837 c -0.24658,0.85677 -0.79616,1.533461 -1.61127,1.984891 l -5.25343,2.9099 c -0.15513,0.086 0.14671,0.392813 0.3452,0.350883 l 7.73028,-1.634009 c 1.00495,-0.21239 1.5443,-0.891985 1.47846,-1.862935 l -0.50488,-7.44864 c -0.007,-0.10066 -0.11418,-0.20078 -0.22582,-0.254247 z m 142.3913,0.593762 c -0.15697,-0.10988 -0.31151,0.328421 -0.17674,0.501261 l 5.24878,6.730855 c 0.6824,0.87503 1.59845,1.076431 2.50992,0.552421 l 6.99234,-4.019909 c 0.18898,-0.10864 0.18475,-0.605358 -0.005,-0.572058 l -6.56445,1.152384 c -0.94866,0.1666 -1.86626,-0.04571 -2.69079,-0.623218 z m 132.91436,0.369486 -5.31699,3.77703 c -0.7684,0.54586 -1.66881,0.74367 -2.64015,0.57981 l -6.2606,-1.056266 c -0.1849,-0.0312 -0.13741,0.421668 0.0543,0.517798 l 7.46725,3.742407 c 0.97079,0.48658 1.86515,0.280253 2.45049,-0.565857 l 4.49017,-6.491077 c 0.12136,-0.17543 -0.0909,-0.612935 -0.24443,-0.503845 z m -41.09672,0.05684 c -0.17589,-0.0936 -0.28029,0.378629 -0.11937,0.540019 l 6.26732,6.284371 c 0.81481,0.81704 1.78566,0.909661 2.6603,0.253731 l 6.71019,-5.031734 c 0.18135,-0.136 0.11448,-0.648445 -0.077,-0.590145 l -6.63009,2.018481 c -0.95815,0.29171 -1.93221,0.188093 -2.85615,-0.303857 z m -49.01819,0.0021 c -0.11886,-0.13256 -0.35111,0.231662 -0.26562,0.416512 l 3.32952,7.19801 c 0.4329,0.93584 1.21951,1.311782 2.1549,1.029912 l 7.17579,-2.162142 c 0.19393,-0.0584 0.29485,-0.509478 0.11627,-0.519348 l -6.18308,-0.341582 c -0.89363,-0.0494 -1.67944,-0.4357 -2.30374,-1.13223 z m -273.508356,0.140043 -5.540747,2.845821 c -0.8007,0.41127 -1.678699,0.475363 -2.574519,0.188103 L 70.67992,47.137172 c -0.17053,-0.0546 -0.18728,0.379621 -0.01912,0.496611 l 6.548437,4.555277 c 0.85132,0.59222 1.724555,0.518999 2.393135,-0.201021 l 5.128886,-5.523694 c 0.13862,-0.14928 -0.002,-0.59172 -0.162264,-0.50953 z m 126.380396,1.542542 -4.86482,4.187341 c -0.70306,0.60519 -1.56737,0.8815 -2.53421,0.80977 l -6.23166,-0.462504 c -0.18404,-0.0136 -0.0959,0.425634 0.10076,0.502294 l 7.65949,2.984314 c 0.9958,0.38803 1.85351,0.103907 2.34972,-0.778763 l 3.80649,-6.771163 c 0.10288,-0.183 -0.14528,-0.592229 -0.28577,-0.471289 z M 222.08928,59.6346 c -0.12178,0.02451 -0.21891,0.08904 -0.18707,0.172599 l 2.20503,5.786727 c 0.31867,0.83633 0.2859,1.711428 -0.0961,2.565218 l -2.46238,5.503023 c -0.0727,0.16253 0.35482,0.226164 0.48886,0.07286 l 5.21932,-5.971729 c 0.67854,-0.77639 0.70124,-1.647334 0.063,-2.386934 l -4.89634,-5.674072 c -0.0662,-0.07667 -0.21257,-0.0922 -0.33434,-0.0677 z m 108.23111,0.349849 c -0.12913,-0.0364 -0.25466,-0.0221 -0.2651,0.0739 l -0.72347,6.649206 c -0.1046,0.96094 -0.56636,1.78617 -1.35341,2.41949 l -5.07255,4.081922 c -0.14979,0.12058 0.22979,0.392165 0.43408,0.310575 l 7.95455,-3.177584 c 1.03416,-0.41315 1.48433,-1.239461 1.23403,-2.264461 l -1.92029,-7.863602 c -0.026,-0.10626 -0.15873,-0.193104 -0.28784,-0.229444 z m -157.17748,0.133326 c -0.13022,-0.02776 -0.25365,-0.0058 -0.25786,0.08992 l -0.29198,6.630602 c -0.0422,0.95824 -0.44653,1.804599 -1.18545,2.482019 l -4.7625,4.366658 c -0.14061,0.12897 0.25251,0.3734 0.44958,0.27957 l 7.67395,-3.655074 c 0.99766,-0.47518 1.39081,-1.322305 1.07746,-2.321305 l -2.40348,-7.663615 c -0.0325,-0.103565 -0.1695,-0.181012 -0.29972,-0.208772 z m 187.22577,0.204121 c -0.12431,-0.0011 -0.23305,0.04201 -0.2191,0.130225 v 5.17e-4 l 0.96583,6.121073 c 0.13954,0.88462 -0.0731,1.734637 -0.62322,2.491837 l -3.54604,4.880322 c -0.10469,0.14415 0.30015,0.2951 0.46302,0.1726 l 6.34225,-4.771285 c 0.82452,-0.62026 1.02691,-1.468576 0.55449,-2.324406 l -3.62407,-6.56549 c -0.049,-0.08872 -0.18884,-0.13427 -0.31316,-0.135393 z m -101.76174,1.030945 c -0.12274,0.03969 -0.21536,0.118 -0.1726,0.200505 l 2.96158,5.708178 c 0.42799,0.82495 0.49794,1.731599 0.20515,2.657719 l -1.88722,5.969144 c -0.0557,0.17629 0.39307,0.191214 0.51315,0.01705 l 4.67516,-6.779948 c 0.60785,-0.88146 0.52866,-1.782893 -0.21755,-2.470133 l -5.72472,-5.27203 c -0.0774,-0.07124 -0.23021,-0.07018 -0.35295,-0.03049 z m -21.18217,0.02325 c -0.19226,-0.0948 -0.59564,0.180763 -0.46457,0.317293 l 4.53823,4.727876 c 0.65588,0.6833 0.98548,1.549203 0.96583,2.538863 l -0.12661,6.378939 c -0.003,0.18838 0.43863,0.07449 0.50591,-0.130225 l 2.61948,-7.97419 c 0.34052,-1.03669 0.003,-1.895251 -0.92397,-2.352311 z m 55.8369,0.592728 c -0.11529,-0.06131 -0.23731,-0.07363 -0.26717,0.0155 l -2.06757,6.173267 c -0.29879,0.89212 -0.9087,1.581021 -1.78852,2.020031 l -5.67097,2.829285 c -0.16744,0.0836 0.13712,0.420726 0.3483,0.385506 l 8.22378,-1.372009 c 1.06915,-0.17838 1.66873,-0.870899 1.64331,-1.897559 l -0.19482,-7.876005 c -0.002,-0.10643 -0.11105,-0.216712 -0.22634,-0.278019 z m -141.16088,0.0863 c -0.17986,-0.0871 -0.55408,0.17228 -0.43099,0.29869 l 4.26228,4.37751 c 0.61597,0.6326 0.92847,1.437869 0.91674,2.360579 l -0.0754,5.946924 c -0.002,0.17564 0.40994,0.06629 0.47129,-0.125057 l 2.38848,-7.450708 c 0.31052,-0.96869 -0.01,-1.767046 -0.87746,-2.186946 z m 252.70135,0.08268 -3.84627,5.109249 c -0.55586,0.73837 -1.33858,1.190567 -2.29495,1.326017 l -6.16397,0.872815 c -0.18203,0.0258 -0.003,0.434802 0.20464,0.467672 l 8.08995,1.278991 c 1.05172,0.16628 1.82571,-0.292221 2.12131,-1.256771 l 2.26757,-7.399548 c 0.0613,-0.19999 -0.26721,-0.545985 -0.37828,-0.398425 z M 317.42609,62.4923 c -0.11303,-0.05708 -0.23179,-0.06646 -0.2589,0.02067 l -1.87792,6.034257 c -0.27139,0.87207 -0.8492,1.553391 -1.69396,1.997811 l -5.44514,2.864424 c -0.16077,0.0846 0.14201,0.405483 0.34623,0.366903 l 7.953,-1.503268 c 1.03393,-0.19542 1.60153,-0.879974 1.55546,-1.875854 L 317.6514,62.7574 c -0.005,-0.10324 -0.11229,-0.208019 -0.22531,-0.2651 z m 123.92576,0.02635 c -0.21297,-0.0627 -0.57599,0.290057 -0.41806,0.406177 l 5.4684,4.020943 c 0.79028,0.58113 1.27988,1.406627 1.43505,2.420007 l 0.99994,6.531384 c 0.0295,0.19288 0.46111,-0.002 0.49351,-0.222725 l 1.26091,-8.601025 c 0.16391,-1.11819 -0.33187,-1.934346 -1.35909,-2.236556 z M 30.822923,63.1641 c -0.20468,-0.0462 -0.525506,0.308851 -0.369486,0.408761 l 5.401737,3.459737 c 0.78069,0.5 1.292674,1.248388 1.500684,2.194698 l 1.340486,6.099369 c 0.0396,0.18011 0.435059,-0.03 0.452169,-0.240296 l 0.665592,-8.18813 c 0.0866,-1.06456 -0.430811,-1.80423 -1.418001,-2.02675 z M 413.2962,63.297942 c -0.20532,-0.0117 -0.45887,0.383203 -0.29197,0.454753 l 5.77949,2.477368 c 0.83524,0.35805 1.45034,0.999918 1.80351,1.881538 l 2.27634,5.682341 c 0.0673,0.1678 0.41567,-0.09879 0.39843,-0.304891 l -0.67128,-8.024833 c -0.0873,-1.0433 -0.70671,-1.675624 -1.69705,-1.732194 z m -210.41195,0.648539 c -0.12288,-0.0643 -0.25268,-0.07681 -0.28371,0.01809 l -2.1487,6.572208 c -0.31056,0.94979 -0.95352,1.686598 -1.88464,2.159558 l -6.00119,3.048393 c -0.17721,0.09 0.14857,0.445693 0.37259,0.406693 l 8.72402,-1.519803 c 1.13417,-0.1976 1.76597,-0.937563 1.73116,-2.027783 l -0.26717,-8.363831 c -0.003,-0.11302 -0.11949,-0.229252 -0.24236,-0.293522 z m -115.828586,1.026294 -5.334041,2.787944 c -0.77082,0.40292 -1.618593,0.470831 -2.486153,0.199471 l -5.591907,-1.748731 c -0.16515,-0.0516 -0.178236,0.368214 -0.01499,0.480074 l 6.358785,4.355806 c 0.82668,0.56634 1.66994,0.489501 2.31097,-0.210839 l 4.917529,-5.372282 c 0.13291,-0.1452 -0.006,-0.571963 -0.160197,-0.491443 z m 24.672396,0.538469 -4.88601,4.925797 c -0.70613,0.71191 -1.61443,1.083405 -2.66237,1.088305 l -6.754107,0.03152 c -0.19947,6.8e-4 -0.06761,0.466387 0.150895,0.532267 l 8.507492,2.565218 c 1.10605,0.33346 2.00583,-0.0459 2.46548,-1.039213 l 3.5264,-7.620206 c 0.0953,-0.20595 -0.20668,-0.625961 -0.34778,-0.483691 z M 8.2997514,65.667823 c -0.16812,-0.0804 -0.246797,0.36518 -0.089917,0.50953 l 6.1097046,5.621362 c 0.79425,0.73079 1.704971,0.778314 2.495971,0.130224 l 6.068363,-4.971272 c 0.164,-0.13437 0.081,-0.610974 -0.0956,-0.548804 l -6.114872,2.15284 c -0.88367,0.31108 -1.797803,0.253111 -2.680973,-0.169499 z m 126.5323186,0.580326 -3.4711,4.897376 c -0.5017,0.7077 -1.22406,1.153083 -2.1177,1.305863 l -5.75986,0.984436 c -0.17009,0.0291 0.008,0.407799 0.20412,0.433049 l 7.62486,0.982885 c 0.99123,0.12775 1.70505,-0.323697 1.95647,-1.236617 l 1.92857,-7.00319 c 0.0521,-0.18927 -0.26511,-0.505222 -0.36536,-0.363802 z m -65.033233,0.07545 -4.894275,3.530017 c -0.7073,0.51012 -1.539357,0.699141 -2.439127,0.553971 l -5.799129,-0.93586 c -0.17127,-0.0276 -0.124237,0.390864 0.05374,0.478524 l 6.933427,3.413228 c 0.90139,0.44376 1.727478,0.246681 2.263428,-0.540019 l 4.111376,-6.03529 c 0.11112,-0.1631 -0.0881,-0.566521 -0.229443,-0.464571 z M 365.69187,66.69205 c -0.15383,-0.0805 -0.24198,0.331172 -0.10077,0.470772 l 5.49993,5.436361 c 0.71501,0.70677 1.56129,0.781578 2.31923,0.204638 l 5.81464,-4.426086 c 0.15715,-0.11961 0.0957,-0.565654 -0.0708,-0.513664 l -5.76347,1.800407 c -0.83298,0.26013 -1.68275,0.175827 -2.49081,-0.247013 z m -18.30276,11.53728 c -0.12809,0.0424 -0.22466,0.124413 -0.17931,0.210323 l 3.14141,5.950024 c 0.45395,0.85987 0.53399,1.807541 0.23461,2.778641 l -1.9296,6.259566 c -0.0569,0.18485 0.41208,0.19747 0.5364,0.01447 l 4.84105,-7.128764 c 0.62933,-0.92674 0.53935,-1.868861 -0.2465,-2.582271 l -6.02857,-5.473051 c -0.0815,-0.0739 -0.2414,-0.07134 -0.36949,-0.02894 z m -66.2497,0.649056 c -0.12334,0.0051 -0.22906,0.05308 -0.21083,0.140043 l 1.26245,6.022371 c 0.18238,0.87035 0.0134,1.723883 -0.49454,2.502173 l -3.2737,5.016231 c -0.0966,0.14816 0.31276,0.277374 0.46818,0.147794 l 6.05235,-5.04672 c 0.78684,-0.65613 0.94515,-1.507434 0.43408,-2.332674 l -3.92069,-6.330879 c -0.053,-0.08555 -0.19395,-0.123412 -0.3173,-0.118339 z m -165.32736,0.841292 c -0.2111,-0.0621 -0.571,0.287459 -0.41445,0.402559 l 5.42034,3.985803 c 0.78335,0.57605 1.26834,1.39432 1.42214,2.39882 l 0.99167,6.474023 c 0.0294,0.19119 0.45726,-0.002 0.48937,-0.220658 l 1.24954,-8.525577 c 0.16248,-1.10838 -0.32898,-1.917349 -1.3472,-2.216919 z m 22.5919,0.40876 c -0.12177,-0.0064 -0.23009,0.03108 -0.22014,0.118339 l 0.68884,6.042525 c 0.0995,0.87329 -0.14487,1.698154 -0.71623,2.417424 l -3.68246,4.635892 c -0.10873,0.13693 0.28213,0.301869 0.447,0.188619 l 6.41976,-4.4111 c 0.83461,-0.57345 1.06846,-1.396596 0.6413,-2.255676 l -3.2768,-6.590295 c -0.0443,-0.08906 -0.1795,-0.139329 -0.30127,-0.145728 z m 75.78555,0.40101 c -0.12956,-0.0426 -0.25754,-0.03405 -0.27234,0.06305 l -1.02526,6.72207 c -0.14817,0.97142 -0.65299,1.789423 -1.48001,2.398303 l -5.33042,3.924308 c -0.15739,0.11593 0.21583,0.408286 0.42685,0.334346 l 8.2181,-2.880444 c 1.06839,-0.37449 1.56185,-1.193877 1.35237,-2.245857 l -1.60714,-8.070308 c -0.0217,-0.10906 -0.1526,-0.202913 -0.28215,-0.245463 z m 223.32331,0.642854 c -0.12153,0.01823 -0.22061,0.07708 -0.19327,0.161231 l 1.89291,5.829618 c 0.27355,0.84252 0.19724,1.705555 -0.22273,2.530595 l -2.70681,5.318021 c -0.0799,0.15705 0.33947,0.241595 0.47956,0.09663 l 5.45548,-5.644617 c 0.70923,-0.73383 0.77512,-1.593695 0.18086,-2.356445 l -4.55889,-5.851839 c -0.0616,-0.07907 -0.20558,-0.101429 -0.32711,-0.0832 z M 366.9104,81.51285 c -0.12913,-0.01798 -0.24806,0.01209 -0.24546,0.105937 l 0.17932,6.499861 c 0.0259,0.93932 -0.30987,1.795161 -0.98444,2.508891 l -4.34805,4.600235 c -0.12837,0.13588 0.27289,0.347356 0.45888,0.241846 l 7.24297,-4.10931 c 0.9416,-0.53426 1.26658,-1.389792 0.89039,-2.344042 l -2.88613,-7.320483 c -0.039,-0.09892 -0.17834,-0.164952 -0.30748,-0.182935 z M 92.708032,81.877169 c -0.126955,0.01436 -0.232503,0.07219 -0.207223,0.160714 l 1.750281,6.129858 c 0.25297,0.88594 0.142205,1.780628 -0.325045,2.622578 l -3.011702,5.426542 c -0.0889,0.16028 0.343523,0.263769 0.494543,0.118339 l 5.880778,-5.664253 c 0.76452,-0.73637 0.865272,-1.627785 0.275952,-2.442745 l -4.521171,-6.251814 c -0.06109,-0.08448 -0.209458,-0.113584 -0.336413,-0.09922 z m 169.786008,0.05374 -3.17913,5.077726 c -0.45944,0.73379 -1.15385,1.218856 -2.03554,1.422136 l -5.68285,1.309997 c -0.16781,0.0387 0.0325,0.405643 0.22892,0.419613 l 7.65277,0.543636 c 0.99494,0.0707 1.68058,-0.419607 1.87895,-1.343587 l 1.52187,-7.088456 c 0.0411,-0.19158 -0.29318,-0.487705 -0.38499,-0.341065 z m -31.94482,0.0041 c -0.20325,-0.0323 -0.4949,0.33529 -0.33589,0.42323 l 5.5056,3.045292 c 0.79572,0.4401 1.34431,1.140512 1.60766,2.053622 l 1.69705,5.885428 c 0.0502,0.1738 0.4239,-0.0572 0.42737,-0.264066 l 0.13487,-8.056872 c 0.0175,-1.04747 -0.53588,-1.738472 -1.51619,-1.893942 z m -176.218689,0.144178 -3.671093,5.177978 c -0.53052,0.74838 -1.294647,1.219741 -2.239657,1.381311 l -6.090584,1.04128 c -0.17988,0.0308 0.009,0.431153 0.216008,0.457853 l 8.062556,1.039213 c 1.04819,0.13509 1.803254,-0.342034 2.069124,-1.307414 l 2.039669,-7.406265 c 0.0551,-0.20016 -0.280013,-0.533516 -0.386023,-0.383956 z m 118.665619,0.01964 c -0.12185,-0.0626 -0.25011,-0.07385 -0.28009,0.02015 l -2.07635,6.507612 c -0.30009,0.94053 -0.92986,1.672799 -1.8464,2.146639 l -5.90765,3.054077 c -0.17444,0.0902 0.15051,0.439072 0.37155,0.398942 l 8.60774,-1.563212 c 1.1191,-0.20323 1.73812,-0.93857 1.69602,-2.01538 l -0.32297,-8.26044 c -0.004,-0.11162 -0.12001,-0.225724 -0.24185,-0.288354 z M 8.3989701,82.203764 c -0.14308,-0.13368 -0.5689393,4.82e-4 -0.4904093,0.154512 l 2.7186972,5.333525 c 0.39293,0.77081 0.452373,1.615111 0.173633,2.475301 l -1.7967899,5.544881 c -0.053,0.16374 0.3645502,0.180927 0.4774902,0.01964 l 4.3976647,-6.280237 c 0.57174,-0.81651 0.503538,-1.656411 -0.186552,-2.301151 z m 325.5062099,1.153935 -4.88445,3.909321 c -0.70592,0.56496 -1.55776,0.803826 -2.49701,0.700216 l -6.05389,-0.667659 c -0.17879,-0.0197 -0.10828,0.410946 0.0806,0.492476 l 7.35718,3.174483 c 0.95644,0.41269 1.8015,0.166016 2.31562,-0.676444 l 3.94394,-6.463171 c 0.1066,-0.17467 -0.12094,-0.582132 -0.262,-0.469222 z m 88.10108,0.263033 c -0.11219,-0.0671 -0.23386,-0.08562 -0.2682,0.0021 l -2.37815,6.073014 c -0.34372,0.87764 -0.989,1.536048 -1.89136,1.931148 l -5.81566,2.547131 c -0.17175,0.0752 0.11611,0.427706 0.32918,0.403076 l 8.29717,-0.960665 c 1.07871,-0.12484 1.71334,-0.787399 1.73942,-1.815909 l 0.19999,-7.890474 c 0.002,-0.10662 -0.1002,-0.222291 -0.21239,-0.289388 z m -343.814654,0.766361 -7.818127,1.243335 c -0.21131,0.0336 -0.381374,0.490863 -0.195854,0.526583 l 6.42338,1.236617 c 0.92836,0.17876 1.696059,0.694739 2.250509,1.512569 l 3.573942,5.270996 c 0.10557,0.15565 0.400647,-0.192269 0.337447,-0.397909 l -2.462382,-8.008296 c -0.32008,-1.04111 -1.089745,-1.545965 -2.108915,-1.383895 z m 310.432204,0.550871 c -0.15333,-0.10733 -0.30424,0.321062 -0.1726,0.489892 l 5.12681,6.574792 c 0.66657,0.85473 1.56121,1.051352 2.45153,0.539502 l 6.83008,-3.926375 c 0.1846,-0.10612 0.18091,-0.591669 -0.004,-0.559139 l -6.41201,1.12603 c -0.92665,0.16273 -1.82338,-0.0452 -2.62878,-0.609265 z m -208.54696,0.04393 c -0.15824,-0.0688 -0.21603,0.345999 -0.0661,0.474389 l 5.83995,4.999178 c 0.75922,0.64995 1.60355,0.663694 2.31407,0.03772 l 5.45083,-4.801774 c 0.14732,-0.12977 0.0549,-0.567752 -0.10645,-0.504362 l -5.58726,2.194698 c -0.80744,0.31716 -1.65589,0.294134 -2.48718,-0.0677 z m -146.918669,0.33538 -3.784265,4.669482 c -0.54693,0.67482 -1.297552,1.073344 -2.200382,1.168404 l -5.819283,0.612882 c -0.17184,0.0181 -0.0173,0.407601 0.176733,0.445451 l 7.555094,1.473812 c 0.98223,0.19155 1.724918,-0.213473 2.035018,-1.109493 l 2.378666,-6.873482 c 0.0643,-0.18578 -0.232291,-0.521906 -0.341581,-0.387056 z m 278.266719,0.89917 -4.97075,3.694348 c -0.71833,0.53387 -1.56896,0.739847 -2.49442,0.604097 l -5.96501,-0.874882 c -0.17617,-0.0258 -0.12196,0.402543 0.062,0.489893 l 7.16545,3.400826 c 0.93151,0.44212 1.77617,0.228125 2.31459,-0.587045 l 4.1305,-6.253881 c 0.11163,-0.16901 -0.0988,-0.580046 -0.24237,-0.473356 z m 153.91463,1.981274 -5.58984,2.335258 c -0.80783,0.33752 -1.66434,0.33253 -2.51096,-0.01447 l -5.45651,-2.237072 c -0.16117,-0.066 -0.21086,0.353784 -0.0568,0.480074 l 6.00118,4.918046 c 0.78014,0.63937 1.63242,0.635114 2.33578,-0.01189 l 5.39553,-4.963521 c 0.14583,-0.13413 0.0431,-0.573869 -0.11834,-0.506429 z M 360.5232,98.541267 c -0.12044,-0.03585 -0.238,-0.02421 -0.24908,0.06563 l -0.7674,6.221323 c -0.11089,0.89906 -0.55468,1.66606 -1.3007,2.24896 l -2.91041,2.27428 h 3.15123 l 2.84995,-1.09141 c 0.97461,-0.37328 1.40781,-1.14196 1.18701,-2.10581 l -1.69395,-7.393864 c -0.0229,-0.09992 -0.14622,-0.183259 -0.26665,-0.219109 z m -116.5965,1.348755 c -0.13257,-0.0404 -0.2625,-0.02872 -0.27543,0.07028 l -0.89504,6.852298 c -0.12936,0.99029 -0.62402,1.83237 -1.45107,2.4691 l -0.0904,0.0698 h 4.75888 c 0.0998,-0.31923 0.14092,-0.6644 0.0548,-1.05317 l -1.80919,-8.16487 c -0.0244,-0.11033 -0.15992,-0.202988 -0.29249,-0.243398 z m -135.78809,0.05633 -2.88509,5.835818 c -0.41699,0.84338 -1.11516,1.4434 -2.04639,1.75906 l -5.34024,1.81023 h 9.13278 c 0.38398,-0.28351 0.65473,-0.68358 0.71778,-1.24799 l 0.87488,-7.83001 c 0.0236,-0.2116 -0.37039,-0.495648 -0.45372,-0.327108 z m 294.17893,0.100768 c -0.12503,0.027 -0.2242,0.0952 -0.19017,0.18087 l 2.35645,5.9278 c 0.34056,0.85672 0.3194,1.75823 -0.0615,2.64325 l -0.23771,0.55242 h 2.71922 l 0.85576,-1.00769 c 0.68744,-0.80967 0.69826,-1.70743 0.03,-2.4598 l -5.12682,-5.77174 c -0.0693,-0.078 -0.22017,-0.0921 -0.3452,-0.0651 z m 43.58545,0.15709 c -0.11875,-0.0448 -0.23814,-0.0417 -0.2558,0.0481 l -1.22266,6.21254 c -0.1767,0.89782 -0.67903,1.63908 -1.47278,2.17248 l -1.06298,0.71417 h 5.1108 c 0.27411,-0.36054 0.4113,-0.80159 0.32866,-1.33532 l -1.17254,-7.57215 c -0.0159,-0.10232 -0.13395,-0.195 -0.2527,-0.23978 z m -296.45217,0.53692 c -0.12058,-0.0367 -0.23837,-0.0259 -0.25012,0.0641 l -0.8139,6.23115 c -0.11763,0.90051 -0.56776,1.66633 -1.31982,2.24534 l -0.0904,0.0698 h 4.26847 c 0.0994,-0.29758 0.19779,-0.59869 0.11679,-0.96428 l -1.64486,-7.42487 c -0.0222,-0.10034 -0.14556,-0.18449 -0.26613,-0.22118 z m -106.32839,0.14728 c -0.121057,-0.0416 -0.241125,-0.0345 -0.256315,0.0563 l -1.052132,6.29212 c -0.143139,0.856 -0.604574,1.5654 -1.309481,2.1146 h 4.178557 c 0.03303,-0.21353 0.145244,-0.39199 0.100252,-0.63614 l -1.398881,-7.5923 c -0.0189,-0.10259 -0.140942,-0.19297 -0.262,-0.23461 z m 222.38797,0.0357 c -0.17016,-0.10625 -0.57178,0.11277 -0.46251,0.25218 l 3.78323,4.82761 c 0.54676,0.69768 0.77244,1.53491 0.66146,2.45463 l -0.10749,0.89297 h 2.07688 l 0.98444,-2.2195 c 0.41416,-0.93346 0.18094,-1.76391 -0.63976,-2.27635 z m -248.856637,0.58136 c -0.126719,0.0133 -0.232304,0.0702 -0.207739,0.15864 l 1.701188,6.12366 c 0.145822,0.52488 0.123347,1.0474 0.0155,1.56373 h 3.520715 c 0.13793,-0.48964 0.114914,-0.9922 -0.232544,-1.48001 l -4.46226,-6.26474 c -0.0603,-0.0844 -0.208144,-0.11462 -0.334863,-0.10128 z m 415.025297,0.28318 -4.67465,4.38733 c -0.67558,0.63403 -1.52608,0.94686 -2.49391,0.91674 l -6.23838,-0.1943 c -0.18423,-0.005 -0.0776,0.42855 0.12196,0.49661 l 5.73763,1.95647 h 4.15169 c 0.0543,-0.0796 0.14623,-0.0927 0.19275,-0.18449 l 3.50831,-6.91999 c 0.0948,-0.18702 -0.1704,-0.58507 -0.3054,-0.45837 z m -95.45102,0.0253 -3.08405,6.01978 c -0.35548,0.69379 -0.93938,1.17202 -1.63608,1.51774 h 4.2783 l 0.90795,-7.19078 c 0.0277,-0.21948 -0.37706,-0.52059 -0.46612,-0.34674 z m -20.5512,0.42788 c -0.11241,-0.0567 -0.23039,-0.066 -0.25735,0.0207 l -1.86758,6.00015 c -0.12749,0.40966 -0.33447,0.76868 -0.59377,1.08882 h 3.25975 l -0.31677,-6.84609 c -0.005,-0.10266 -0.11186,-0.20684 -0.22428,-0.26355 z m -116.52363,0.0816 c -0.11879,-0.0711 -0.24788,-0.0911 -0.28422,0.002 l -2.51716,6.42699 c -0.0898,0.22933 -0.25648,0.39907 -0.38447,0.59945 h 3.24011 l 0.17053,-6.72207 c 0.003,-0.11272 -0.10616,-0.2348 -0.22479,-0.30592 z m -132.968106,0.79064 -5.246708,4.51601 c -0.7582,0.65266 -1.690476,0.95069 -2.733166,0.87333 l -6.72052,-0.49868 c -0.19847,-0.0147 -0.103073,0.45889 0.109037,0.54157 l 2.066024,0.80512 h 9.61285 l 3.220475,-5.72885 c 0.11096,-0.19736 -0.156482,-0.63893 -0.307992,-0.5085 z m 221.354956,0.67283 -3.65301,5.56452 h 2.84634 l 1.22783,-5.17436 c 0.0505,-0.21286 -0.31516,-0.55164 -0.42116,-0.39016 z m 93.38344,0.0109 -3.03496,5.43481 c -0.0263,0.0472 -0.0731,0.0735 -0.10128,0.11886 h 2.70371 l 0.85008,-5.21932 c 0.0327,-0.20094 -0.32991,-0.4913 -0.41755,-0.33435 z m 76.93845,0.39946 c -0.16878,-0.0763 -0.23701,0.36789 -0.078,0.50798 l 5.27255,4.64623 h 4.43487 l 3.93568,-3.36827 v -1.04025 l -5.18263,1.95027 c -0.87142,0.32797 -1.78147,0.28998 -2.66806,-0.1111 z m -233.42398,0.28061 -5.15628,4.43848 c -0.23234,0.2 -0.50834,0.30357 -0.77204,0.43512 h 3.77186 l 2.45928,-4.37441 c 0.10905,-0.19397 -0.15391,-0.62737 -0.30282,-0.49919 z m -87.18434,0.0305 -5.58674,3.7915 c -0.80744,0.54791 -1.74437,0.73226 -2.74608,0.54106 l -6.45646,-1.23197 c -0.19068,-0.0364 -0.15129,0.43265 0.045,0.5364 l 2.28255,1.20613 h 9.57874 l 3.12488,-4.31602 c 0.12951,-0.17888 -0.0805,-0.6366 -0.24185,-0.5271 z m -59.283716,0.17725 c -0.12316,-0.13156 -0.350452,0.24218 -0.259932,0.42737 l 2.072224,4.2385 h 2.642733 c -0.09086,-0.0802 -0.200258,-0.11894 -0.285771,-0.21032 z m 91.661586,2.02365 c -0.16949,-0.0825 -0.25217,0.36753 -0.0946,0.5147 l 2.27945,2.12752 h 3.23649 z m 14.65078,0.85422 -5.19761,1.788 h 3.76411 l 1.52652,-1.23248 c 0.16687,-0.13474 0.0861,-0.61713 -0.093,-0.55552 z m 25.70799,1.72082 c -0.0285,-0.002 -0.0117,0.0515 -0.0284,0.0672 h 0.93431 z"/><path id="path5" style="fill:#b82828;fill-opacity:0.17254902;stroke-width:0.19647;stroke-linejoin:round" d="m 492.60815,4.7661171 2.16628,5.3376589 c 0.33893,0.83514 0.3248,1.716995 -0.0413,2.584855 l -2.36007,5.593456 c -0.0697,0.16521 0.36187,0.220902 0.49351,0.06356 l 5.12579,-6.125724 c 0.66638,-0.79634 0.67102,-1.673664 0.0124,-2.4045039 l -4.55063,-5.049304 z M 475.3167,6.0724973 c -0.1355,-0.006 -0.25516,0.036395 -0.2434,0.1333252 l 0.81391,6.7148355 c 0.11766,0.9704 -0.14753,1.888915 -0.77722,2.693375 l -5.01984,3.740857 c 0,0 3.30708,-0.14735 4.83794,-0.7059 1.41365,-0.51579 3.83698,-2.378149 3.83698,-2.378149 0.92361,-0.64437 1.06687,-1.783244 0.58498,-2.735234 l -3.69694,-7.3034296 c -0.05,-0.0987 -0.2009,-0.1535301 -0.33641,-0.1596801 z m 22.49527,14.9474077 c -0.13543,0.0231 -0.24496,0.0916 -0.21239,0.185001 l 2.25464,6.468856 c 0.32591,0.93493 0.26192,1.901378 -0.18759,2.833418 l -2.89698,6.007385 c -0.0855,0.17743 0.38488,0.261995 0.53796,0.09663 l 5.96087,-6.438366 c 0.77494,-0.83705 0.82811,-1.799992 0.14573,-2.638082 l -5.23482,-6.429065 c -0.0707,-0.0869 -0.23199,-0.108942 -0.36742,-0.08578 z m -3.66748,19.729544 c -0.12963,-0.0499 -0.26007,-0.04746 -0.28009,0.05064 l -1.38647,6.786665 c -0.20031,0.98075 -0.75533,1.786927 -1.62781,2.364197 l -5.62343,3.720703 c -0.16604,0.10991 0.19906,0.426711 0.41754,0.362251 l 8.5075,-2.511474 c 1.10607,-0.32648 1.65031,-1.134935 1.49086,-2.215885 l -1.22318,-8.292517 c -0.0165,-0.11205 -0.14528,-0.214693 -0.27492,-0.264583 z m 14.40119,11.36313 -1.07384,0.372587 c -0.16529,0.0574 0.0765,0.406222 0.27647,0.398942 l 0.79737,-0.02894 z m -4.45296,8.80308 c -0.12129,-0.05383 -0.24545,-0.0574 -0.26923,0.03514 l -1.64745,6.40891 c -0.23807,0.92619 -0.80647,1.669112 -1.66656,2.178162 l -5.54333,3.280936 c -0.16369,0.0969 0.16931,0.416413 0.38085,0.365353 l 8.23774,-1.989026 c 1.07097,-0.25858 1.629,-1.004266 1.52859,-2.043286 l -0.7705,-7.970573 c -0.0104,-0.10771 -0.12882,-0.211789 -0.25011,-0.265616 z m -4.84208,18.716686 c -0.12081,-0.04948 -0.24329,-0.04982 -0.26407,0.04186 l -1.43919,6.348966 c -0.20803,0.91755 -0.7462,1.664183 -1.57768,2.189013 l -5.35936,3.382739 c -0.15825,0.0999 0.1784,0.404986 0.38499,0.348816 l 8.0455,-2.188496 c 1.04593,-0.28447 1.5734,-1.033101 1.44539,-2.052071 l -0.98237,-7.817094 c -0.0133,-0.10563 -0.1324,-0.20425 -0.25321,-0.253731 z m 3.07836,20.099547 -2.39313,5.630148 c -0.34584,0.81365 -0.96804,1.4144 -1.8247,1.76062 l -5.51542,2.2288 h 4.7749 l 3.32228,-0.28835 c 1.01475,-0.0881 1.6274,-0.69208 1.67948,-1.65572 l 0.39946,-7.39283 c 0.0108,-0.199798 -0.37377,-0.445258 -0.44287,-0.282668 z m -17.78082,2.541968 -3.72329,5.58467 c -0.52071,0.78098 -1.28991,1.27988 -2.23914,1.49293 h 4.74648 l 1.63659,-6.6828 c 0.0522,-0.21324 -0.31311,-0.55609 -0.42064,-0.3948 z"/><path id="path6" style="fill:#b82828;fill-opacity:0.17254902;stroke-width:0.19647;stroke-linejoin:round" d="M 475.4986 23.881228 C 475.44742 23.879228 475.40645 23.897607 475.38853 23.943757 L 472.90548 30.32838 C 472.54663 31.25117 471.87057 31.945044 470.92369 32.362364 L 464.8207 35.052122 C 464.6405 35.131622 464.94366 35.501286 465.16745 35.474836 L 473.88061 34.445441 C 475.01342 34.311591 475.67895 33.613366 475.70376 32.532896 L 475.89393 24.244514 C 475.89693 24.132514 475.78823 24.010936 475.67017 23.940656 C 475.61115 23.905506 475.54978 23.883228 475.4986 23.881228 z M 479.25858 61.579701 C 479.2074 61.577701 479.16643 61.596079 479.14851 61.642229 L 476.66546 68.026852 C 476.30662 68.949642 475.63054 69.643516 474.68366 70.060836 L 468.58119 72.750595 C 468.40099 72.830095 468.70365 73.199758 468.92743 73.173308 L 477.64111 72.143913 C 478.77392 72.010063 479.43944 71.312355 479.46425 70.231885 L 479.65442 61.942986 C 479.65742 61.830986 479.5482 61.709925 479.43014 61.639645 L 479.43014 61.639129 C 479.37113 61.603979 479.30976 61.581701 479.25858 61.579701 z M 484.08567 81.296326 C 484.0556 81.300385 484.02758 81.30843 484.00299 81.322164 L 476.34248 85.599939 C 475.34655 86.156084 474.99798 87.055234 475.3875 88.063354 L 478.37543 95.796732 C 478.41543 95.901392 478.56247 95.972179 478.69841 95.992069 C 478.83434 96.011969 478.95993 95.980978 478.95782 95.881998 L 478.81571 89.032804 C 478.79511 88.042913 479.15507 87.143962 479.87094 86.396789 L 484.48462 81.580546 C 484.60379 81.456062 484.29622 81.26791 484.08567 81.296326 z "/></svg>