<svg xmlns:inkscape="http://www.inkscape.org/namespaces/inkscape" xmlns:sodipodi="http://sodipodi.sourceforge.net/DTD/sodipodi-0.dtd" xmlns:xlink="http://www.w3.org/1999/xlink" xmlns="http://www.w3.org/2000/svg" xmlns:svg="http://www.w3.org/2000/svg" width="99.088974" height="98.004761" viewBox="0 0 26.217291 25.930426" version="1.1" id="svg5" xml:space="preserve" sodipodi:docname="upgradeShopIcon.svg" inkscape:version="1.4 (e7c3feb1, 2024-10-09)"><sodipodi:namedview id="namedview1" pagecolor="#505050" bordercolor="#ffffff" borderopacity="1" inkscape:showpageshadow="0" inkscape:pageopacity="0" inkscape:pagecheckerboard="1" inkscape:deskcolor="#505050" inkscape:zoom="6.7859792" inkscape:cx="71.470894" inkscape:cy="43.250943" inkscape:window-width="1456" inkscape:window-height="780" inkscape:window-x="0" inkscape:window-y="38" inkscape:window-maximized="0" inkscape:current-layer="svg5"/><defs id="defs2"><inkscape:path-effect effect="mirror_symmetry" start_point="7.7541777,0.3953069" end_point="7.7541777,77.993678" center_point="7.7541777,39.194492" id="path-effect9" is_visible="true" lpeversion="1.2" lpesatellites="#g11" mode="vertical" discard_orig_path="false" fuse_paths="false" oposite_fuse="false" split_items="true" split_open="false" link_styles="false"/><inkscape:path-effect effect="fillet_chamfer" id="path-effect7" is_visible="true" lpeversion="1" nodesatellites_param="F,0,0,1,0,0.52916667,0,1 @ F,0,0,1,0,0.52916667,0,1 @ F,0,0,1,0,0.52916667,0,1 @ F,0,0,1,0,0.52916667,0,1 @ F,0,0,1,0,0.52916667,0,1 @ F,0,0,1,0,0.52916667,0,1 @ F,0,0,1,0,0.52916667,0,1" radius="3" unit="px" method="auto" mode="F" chamfer_steps="1" flexible="false" use_knot_distance="true" apply_no_radius="true" apply_with_radius="true" only_selected="false" hide_knots="false"/><linearGradient id="linearGradient88732"><stop style="stop-color:#533ff7;stop-opacity:0.60899651" offset="0" id="stop88728"/><stop style="stop-color:#3f8ef7;stop-opacity:0.0" offset="1" id="stop88730"/></linearGradient><style id="style608">.cls-1{fill-opacity:0.8;fill:url(#linear-gradient);}.cls-2{fill:#61cbed;}.cls-3{fill:#0fafd2;}.cls-4{fill-opacity:0.9;fill:url(#linear-gradient-2);}.cls-5{fill:#04859b;opacity:0.5;}.cls-6{fill:none;stroke:#8e281d;stroke-miterlimit:10;stroke-width:12px;}.cls-7{fill:#f18221;}.cls-8{fill:#d25927;}.cls-9{fill:url(#linear-gradient-3);}.cls-10{fill:#fff;}.cls-11{fill:#414042;}</style><style id="style36590">.cls-1{fill:url(#linear-gradient);}.cls-2{fill:#f7941d;}.cls-3{fill:#ecf7fe;}.cls-4{fill:#f3b71c;}.cls-5{fill:#c7eaf7;}.cls-6{fill:#6eb8cc;}.cls-7{fill:#009444;}.cls-8{fill:#39b54a;}.cls-10,.cls-9{fill:#f47e20;}.cls-9{stroke:#f47e20;stroke-miterlimit:10;}.cls-11{fill:none;stroke:#f3b71c;stroke-linejoin:bevel;stroke-width:3px;}</style><linearGradient xlink:href="#linearGradient88732" id="linearGradient88655" gradientUnits="userSpaceOnUse" x1="28.799879" y1="97.198921" x2="28.659779" y2="104.82187"/><clipPath clipPathUnits="userSpaceOnUse" id="clipPath90156"><rect style="opacity:1;fill:#dbf7ee;fill-opacity:1;stroke:none;stroke-width:4.24554;stroke-linecap:round;stroke-linejoin:round;stroke-dasharray:none;stroke-opacity:1" id="rect90158" width="36.560062" height="35.821579" x="22.585508" y="83.513901" ry="3.5102124"/></clipPath><style id="style608-1">.cls-1{fill-opacity:0.8;fill:url(#linear-gradient);}.cls-2{fill:#61cbed;}.cls-3{fill:#0fafd2;}.cls-4{fill-opacity:0.9;fill:url(#linear-gradient-2);}.cls-5{fill:#04859b;opacity:0.5;}.cls-6{fill:none;stroke:#8e281d;stroke-miterlimit:10;stroke-width:12px;}.cls-7{fill:#f18221;}.cls-8{fill:#d25927;}.cls-9{fill:url(#linear-gradient-3);}.cls-10{fill:#fff;}.cls-11{fill:#414042;}</style><style id="style36590-3">.cls-1{fill:url(#linear-gradient);}.cls-2{fill:#f7941d;}.cls-3{fill:#ecf7fe;}.cls-4{fill:#f3b71c;}.cls-5{fill:#c7eaf7;}.cls-6{fill:#6eb8cc;}.cls-7{fill:#009444;}.cls-8{fill:#39b54a;}.cls-10,.cls-9{fill:#f47e20;}.cls-9{stroke:#f47e20;stroke-miterlimit:10;}.cls-11{fill:none;stroke:#f3b71c;stroke-linejoin:bevel;stroke-width:3px;}</style></defs><g id="g18" transform="matrix(0.7577743,0,0,0.7577743,6.8124057,5.4152674)"><path id="path12" style="fill:none;stroke:#101946;stroke-width:1.71;stroke-linecap:round;stroke-linejoin:round;stroke-dasharray:none;stroke-opacity:1;paint-order:stroke fill markers" d="m 13.10876,-6.1711995 c -0.156339,0 -0.31253,0.060707 -0.42478,0.1813843 l -4.2374672,4.5547607 c -0.2304527,0.2477533 -0.063899,0.69504893 0.2883545,0.69504799 h 1.9843747 c 0.02285,0 0.05736,0.0236944 0.05736,0.0857829 V 3.7697957 c 0,0.3266291 0.255661,0.6175326 0.590662,0.6175334 h 3.482474 c 0.335,0 0.590662,-0.2909035 0.590662,-0.6175334 v -4.42401933 c 0,-0.0620888 0.03451,-0.0857829 0.05736,-0.0857829 h 1.984375 c 0.352252,3.1e-6 0.518807,-0.44729417 0.288354,-0.69504797 L 13.533024,-5.9898152 C 13.420773,-6.1104929 13.265099,-6.1711995 13.10876,-6.1711995 Z m 5.227072,5.20898434 c -0.19294,0 -0.385582,0.0708037 -0.517281,0.21239013 L 15.851746,1.3652913 c -0.346503,0.3725144 -0.09177,1.0568121 0.454752,1.0567831 h 0.510046 V 4.078304 c 0,0.3688052 0.298765,0.7224363 0.710551,0.7224365 h 1.617473 c 0.411788,2.8e-6 0.709,-0.3536297 0.709,-0.7224365 V 2.4220744 h 0.511597 c 0.546523,2.92e-5 0.799705,-0.6842687 0.453202,-1.0567831 L 18.853629,-0.74982503 C 18.72193,-0.89141143 18.528771,-0.96221516 18.335832,-0.96221516 Z M 7.8816894,-0.9616984 c -0.1925969,0 -0.3850657,0.0708042 -0.5167643,0.21239014 L 5.3981201,1.3642578 C 5.0516235,1.7367665 5.305325,2.4210457 5.8518392,2.4210408 h 0.5110799 v 1.6567464 c -7e-7,0.3688055 0.2987644,0.7229536 0.7105509,0.7229533 h 1.615922 c 0.4117859,-7e-7 0.7100352,-0.3541481 0.7100342,-0.7229533 V 2.4210408 h 0.5121135 c 0.5465093,1.5e-6 0.7996983,-0.6842751 0.4532023,-1.056783 L 8.3984537,-0.74930826 C 8.2667548,-0.89089423 8.0742864,-0.9616984 7.8816894,-0.9616984 Z"/><g transform="matrix(-0.33416199,0,0,0.33416199,15.699797,-0.13209654)" id="g11"><path id="path10" d="M 23.076863,-0.70592683 17.192039,5.6207127 a 0.18500317,0.20096337 0 0 0 0.130138,0.3438002 h 2.756253 a 0.44992869,0.48874396 0 0 1 0.449929,0.4887442 V 12.59692 a 0.44992869,0.48874396 0 0 0 0.449928,0.488745 H 25.81502 A 0.44992869,0.48874396 0 0 0 26.264949,12.59692 V 6.4532571 a 0.44992869,0.48874396 0 0 1 0.449929,-0.4887442 h 2.756252 a 0.18500316,0.20096335 0 0 0 0.130139,-0.3438002 l -5.884825,-6.32663953 a 0.4546129,0.49383228 0 0 0 -0.639581,0 z" style="fill:none;fill-opacity:1;stroke:#ffb51b;stroke-width:3.35161;stroke-linecap:round;stroke-linejoin:round;stroke-dasharray:none;stroke-opacity:1;paint-order:stroke fill markers"/><path id="path11" d="M 23.076863,-0.70592683 17.192039,5.6207127 a 0.18500317,0.20096337 0 0 0 0.130138,0.3438002 h 2.756253 a 0.44992869,0.48874396 0 0 1 0.449929,0.4887442 V 12.59692 a 0.44992869,0.48874396 0 0 0 0.449928,0.488745 H 25.81502 A 0.44992869,0.48874396 0 0 0 26.264949,12.59692 V 6.4532571 a 0.44992869,0.48874396 0 0 1 0.449929,-0.4887442 h 2.756252 a 0.18500316,0.20096335 0 0 0 0.130139,-0.3438002 l -5.884825,-6.32663953 a 0.4546129,0.49383228 0 0 0 -0.639581,0 z" style="fill:#fffd4c;fill-opacity:1;stroke:none;stroke-width:1.13532;stroke-linecap:round;stroke-linejoin:round;stroke-dasharray:none;stroke-opacity:1;paint-order:stroke fill markers"/></g><g id="g9" transform="matrix(0.72004538,0,0,0.72004538,-3.7380071,-5.3009156)"><path id="path8" style="fill:#fffd4c;fill-opacity:1;stroke:none;stroke-width:1.13532;stroke-linecap:round;stroke-linejoin:round;stroke-dasharray:none;stroke-opacity:1;paint-order:stroke fill markers" d="M 23.076863,-0.70592683 17.192039,5.6207127 a 0.18500317,0.20096337 0 0 0 0.130138,0.3438002 h 2.756253 a 0.44992869,0.48874396 0 0 1 0.449929,0.4887442 V 12.59692 a 0.44992869,0.48874396 0 0 0 0.449928,0.488745 H 25.81502 A 0.44992869,0.48874396 0 0 0 26.264949,12.59692 V 6.4532571 a 0.44992869,0.48874396 0 0 1 0.449929,-0.4887442 h 2.756252 a 0.18500316,0.20096335 0 0 0 0.130139,-0.3438002 l -5.884825,-6.32663953 a 0.4546129,0.49383228 0 0 0 -0.639581,0 z"/><path id="path9" style="fill:none;fill-opacity:1;stroke:#ffb51b;stroke-width:0.738452;stroke-linecap:round;stroke-linejoin:round;stroke-dasharray:none;stroke-opacity:1;paint-order:stroke fill markers" d="M 23.076863,-0.70592683 17.192039,5.6207127 a 0.18500317,0.20096337 0 0 0 0.130138,0.3438002 h 2.756253 a 0.44992869,0.48874396 0 0 1 0.449929,0.4887442 V 12.59692 a 0.44992869,0.48874396 0 0 0 0.449928,0.488745 H 25.81502 A 0.44992869,0.48874396 0 0 0 26.264949,12.59692 V 6.4532571 a 0.44992869,0.48874396 0 0 1 0.449929,-0.4887442 h 2.756252 a 0.18500316,0.20096335 0 0 0 0.130139,-0.3438002 l -5.884825,-6.32663953 a 0.4546129,0.49383228 0 0 0 -0.639581,0 z"/></g><g id="g12"><path id="path7" style="fill:none;fill-opacity:1;stroke:#ffb51b;stroke-width:1.11998;stroke-linecap:round;stroke-linejoin:round;stroke-dasharray:none;stroke-opacity:1;paint-order:stroke fill markers" d="M 18.228904,-0.36799045 16.26242,1.746132 a 0.06182103,0.06715432 0 0 0 0.04349,0.114885 h 0.921035 a 0.15034907,0.16331965 0 0 1 0.150349,0.1633197 v 2.0529786 a 0.15034907,0.16331965 0 0 0 0.150349,0.16332 h 1.616252 a 0.15034907,0.16331965 0 0 0 0.15035,-0.16332 V 2.0243367 A 0.15034907,0.16331965 0 0 1 19.444591,1.861017 h 0.921034 a 0.06182102,0.06715431 0 0 0 0.04349,-0.114885 L 18.44263,-0.36799045 a 0.15191435,0.16501998 0 0 0 -0.213724,0 z"/><path id="rect6" style="fill:#fffd4c;fill-opacity:1;stroke:none;stroke-width:0.379381;stroke-linecap:round;stroke-linejoin:round;stroke-dasharray:none;stroke-opacity:1;paint-order:stroke fill markers" d="M 18.228904,-0.36799045 16.26242,1.746132 a 0.06182103,0.06715432 0 0 0 0.04349,0.114885 h 0.921035 a 0.15034907,0.16331965 0 0 1 0.150349,0.1633197 v 2.0529786 a 0.15034907,0.16331965 0 0 0 0.150349,0.16332 h 1.616252 a 0.15034907,0.16331965 0 0 0 0.15035,-0.16332 V 2.0243367 A 0.15034907,0.16331965 0 0 1 19.444591,1.861017 h 0.921034 a 0.06182102,0.06715431 0 0 0 0.04349,-0.114885 L 18.44263,-0.36799045 a 0.15191435,0.16501998 0 0 0 -0.213724,0 z"/></g><path id="path5" style="fill:none;stroke:#101946;stroke-width:1.62898;stroke-linecap:round;stroke-linejoin:round;stroke-dasharray:none;stroke-opacity:1;paint-order:stroke fill markers" d="m 0.26855867,8.8673923 c -0.6188549,-0.017534 -1.244453,0.064775 -1.85319957,0.2521983 a 0.8653489,0.8653489 0 0 0 -0.3287733,1.4665784 l 2.10414927,1.924781 c 0.2333279,0.213411 0.2462884,0.534087 0.032877,0.767415 l -1.40706667,1.538577 c -0.213412,0.233329 -0.5332546,0.247537 -0.766583,0.03412 l -2.11705,-1.936428 a 0.8653489,0.8653489 0 0 0 -1.4287077,0.447798 c -0.4524677,2.007515 0.2040948,4.108702 1.7187771,5.501751 a 0.8653489,0.8653489 0 0 0 0.0025,0.0021 c 1.2832837,1.171743 3.02183147,1.578241 4.72101887,1.327578 L 6.4857067,25.2603 c 1.3697123,1.252793 3.5199483,1.156921 4.7726233,-0.212662 l 0.228891,-0.250553 C 12.739896,23.427502 12.643022,21.278503 11.27331,20.02571 L 5.7341035,14.959688 C 5.8325534,13.24478 5.2731104,11.547012 3.9916045,10.373091 2.9573906,9.4275808 1.6300393,8.9059673 0.26855867,8.8673923 Z"/><g id="layer1" transform="rotate(15,1201.815,28.529946)"><g id="g56492" transform="translate(-386.75724,-88.012887)"><g id="g92897" transform="matrix(1.6812516,-0.45049002,0.45049002,1.6812516,100.6538,282.41428)"><rect style="opacity:1;fill:none;fill-opacity:1;stroke:#101946;stroke-width:1.30916;stroke-linecap:round;stroke-linejoin:round;stroke-dasharray:none;stroke-opacity:1" id="rect90152" width="10.135369" height="9.9306431" x="162.37453" y="115.29334" ry="0.9731192"/><rect style="opacity:1;fill:#dbf7ee;fill-opacity:1;stroke:none;stroke-width:1.17697;stroke-linecap:round;stroke-linejoin:round;stroke-dasharray:none;stroke-opacity:1" id="rect88877" width="10.135369" height="9.9306431" x="162.37453" y="115.29334" ry="0.9731192"/><path id="rect92791" style="opacity:1;fill:#f83333;fill-opacity:1;stroke:none;stroke-width:0.38653;stroke-linecap:round;stroke-linejoin:round;stroke-dasharray:none;stroke-opacity:1" d="m 169.79565,120.84701 c -0.3602,0 -0.65009,0.28989 -0.65009,0.65009 v 3.49075 c 0,0.0834 0.0155,0.16298 0.0439,0.23616 h 2.34714 c 0.0931,0 0.18305,-0.013 0.2682,-0.0372 0.02,-0.0627 0.031,-0.12949 0.031,-0.19895 v -3.49075 c 0,-0.3602 -0.28989,-0.65009 -0.65009,-0.65009 z"/><path id="rect92789" style="opacity:1;fill:none;fill-opacity:1;stroke:#101946;stroke-width:0.38653;stroke-linecap:round;stroke-linejoin:round;stroke-dasharray:none;stroke-opacity:1" d="m 169.79565,120.84701 c -0.3602,0 -0.65009,0.28989 -0.65009,0.65009 v 3.49075 c 0,0.0834 0.0155,0.16298 0.0439,0.23616 h 2.34714 c 0.0931,0 0.18305,-0.013 0.2682,-0.0372 0.02,-0.0627 0.031,-0.12949 0.031,-0.19895 v -3.49075 c 0,-0.3602 -0.28989,-0.65009 -0.65009,-0.65009 z"/><rect style="opacity:1;fill:#fffd89;fill-opacity:1;stroke:none;stroke-width:0.328989;stroke-linecap:round;stroke-linejoin:round;stroke-dasharray:none;stroke-opacity:1" id="rect92675" width="4.8121481" height="2.61268" x="163.61189" y="121.09842" ry="0.40264469"/><path id="rect92783" style="opacity:1;fill:#ffffff;fill-opacity:1;stroke:none;stroke-width:0.284698;stroke-linecap:round;stroke-linejoin:round;stroke-dasharray:none;stroke-opacity:1" d="m 164.01467,121.09864 c -0.22307,0 -0.4027,0.17918 -0.4027,0.40224 v 1.80748 c 0,0.22306 0.17962,0.40269 0.40269,0.40269 h 0.14455 l 1.50821,-2.61242 z m 1.94096,-1e-5 -1.50822,2.61242 h 2.28929 l 1.47949,-2.56291 c -0.0577,-0.0318 -0.12417,-0.0495 -0.19494,-0.0495 z"/><rect style="opacity:1;fill:none;fill-opacity:1;stroke:#101946;stroke-width:0.328989;stroke-linecap:round;stroke-linejoin:round;stroke-dasharray:none;stroke-opacity:1" id="rect92673" width="4.8121481" height="2.61268" x="163.61189" y="121.09842" ry="0.40264469"/><path id="path89657" style="fill:none;fill-opacity:1;stroke:#101946;stroke-width:0.740833;stroke-linecap:round;stroke-linejoin:round;stroke-dasharray:none;stroke-opacity:1" d="m 162.70034,115.58308 -0.32594,2.58503 v 0.89245 0.16433 0.46302 0.34107 c 0,0.70187 0.56524,1.2671 1.26711,1.2671 0.0219,0 0.044,-4.6e-4 0.0656,-0.002 0.67124,-0.0338 1.20147,-0.58562 1.20147,-1.26555 0,0.70187 0.56472,1.2671 1.26659,1.2671 0.0219,0 0.044,-4.6e-4 0.0656,-0.002 0.67124,-0.0338 1.20148,-0.58562 1.20148,-1.26555 0,0.70187 0.56524,1.2671 1.26711,1.2671 0.0219,0 0.0435,-4.6e-4 0.0651,-0.002 0.67124,-0.0338 1.20147,-0.58562 1.20147,-1.26555 0,0.70187 0.56524,1.2671 1.26711,1.2671 0.0219,0 0.0435,-4.6e-4 0.0651,-0.002 0.12992,-0.007 0.25451,-0.0324 0.37104,-0.0749 h 5.2e-4 c 0.4853,-0.17726 0.82992,-0.64246 0.82992,-1.19062 v -0.34107 -0.46302 -0.004 -0.16071 -0.89245 c 0,-0.95825 0.10113,-2.68279 -0.23048,-2.66989 l -2.30322,-0.20487 h -2.53369 -2.5337 z"/><g id="g88649" class="UnoptimicedTransforms" transform="matrix(0.27722515,0,0,0.27722515,156.11326,92.141191)" clip-path="url(#clipPath90156)"><path id="path88633" style="opacity:1;fill:#f73f62;fill-opacity:1;stroke:none;stroke-width:0;stroke-linecap:round;stroke-linejoin:round;stroke-dasharray:none;stroke-opacity:1" d="m 22.58552,83.513893 v 10.370426 5.481836 1.230415 c 0,2.53177 2.0385,4.57026 4.57027,4.57026 2.53176,0 4.56974,-2.03849 4.56974,-4.57026 V 99.366155 93.884319 83.513893 Z m 18.28002,0 v 10.370426 5.481836 1.230415 c 0,2.53177 2.0385,4.57026 4.57027,4.57026 2.53176,0 4.56974,-2.03849 4.56974,-4.57026 V 99.366155 93.884319 83.513893 Z"/><path id="path88635" style="opacity:1;fill:#feffed;fill-opacity:1;stroke:none;stroke-width:0;stroke-linecap:round;stroke-linejoin:round;stroke-dasharray:none;stroke-opacity:1" d="m 31.72553,83.513893 v 10.370426 5.481836 1.230415 c 0,2.53177 2.0385,4.57026 4.57027,4.57026 2.53176,0 4.56974,-2.03849 4.56974,-4.57026 V 99.366155 93.884319 83.513893 Z m 18.28002,0 v 10.370426 5.481836 1.230415 c 0,2.53177 2.0385,4.57026 4.57027,4.57026 2.53176,0 4.56974,-2.03849 4.56974,-4.57026 V 99.366155 93.884319 83.513893 Z"/><path id="path88639" style="opacity:1;fill:#d2fbfc;fill-opacity:1;stroke:none;stroke-width:0;stroke-linecap:round;stroke-linejoin:round;stroke-dasharray:none;stroke-opacity:1" d="m 31.72553,97.682537 v 1.683618 1.230415 c 0,2.53177 2.038496,4.57026 4.570264,4.57026 2.531757,0 4.569746,-2.03849 4.569746,-4.57026 v -1.230415 -1.683618 z m 18.28002,0 v 1.683618 1.230415 c 0,2.53177 2.038496,4.57026 4.570264,4.57026 2.531757,0 4.569746,-2.03849 4.569746,-4.57026 v -1.230415 -1.683618 z"/><path id="path88641" style="opacity:1;fill:url(#linearGradient88655);fill-opacity:1;stroke:none;stroke-width:0;stroke-linecap:round;stroke-linejoin:round;stroke-dasharray:none;stroke-opacity:1" d="m 22.58552,97.682537 v 1.683618 1.230415 c 0,2.53177 2.038496,4.57026 4.570264,4.57026 2.531757,0 4.569746,-2.03849 4.569746,-4.57026 v -1.230415 -1.683618 z m 18.28002,0 v 1.683618 1.230415 c 0,2.53177 2.038496,4.57026 4.570264,4.57026 2.531757,0 4.569746,-2.03849 4.569746,-4.57026 v -1.230415 -1.683618 z"/><path id="path88643" style="opacity:1;fill:#b8f7f0;fill-opacity:1;stroke:none;stroke-width:0;stroke-linecap:round;stroke-linejoin:round;stroke-dasharray:none;stroke-opacity:1" d="m 31.72553,97.682537 v 1.683618 1.230415 c 0,2.53177 2.038496,4.57026 4.570264,4.57026 2.531757,0 4.569746,-2.03849 4.569746,-4.57026 v -1.230415 -1.683618 z m 18.28002,0 v 1.683618 1.230415 c 0,2.53177 2.038496,4.57026 4.570264,4.57026 2.531757,0 4.569746,-2.03849 4.569746,-4.57026 v -1.230415 -1.683618 z"/><path id="path88645" style="opacity:1;fill:#f9718b;fill-opacity:1;stroke:none;stroke-width:0;stroke-linecap:round;stroke-linejoin:round;stroke-dasharray:none;stroke-opacity:1" d="m 22.58552,97.102626 v 0.593167 h 9.14001 v -0.593167 z m 18.28002,0 v 0.593167 h 9.14001 v -0.593167 z"/><path id="path88647" style="opacity:1;fill:#bbebff;fill-opacity:1;stroke:none;stroke-width:0;stroke-linecap:round;stroke-linejoin:round;stroke-dasharray:none;stroke-opacity:1" d="m 31.72553,97.102626 v 0.593167 h 9.14001 v -0.593167 z m 18.28002,0 v 0.593167 h 9.14001 v -0.593167 z"/><path id="path88637" style="opacity:1;fill:#b51e53;fill-opacity:1;stroke:none;stroke-width:0;stroke-linecap:round;stroke-linejoin:round;stroke-dasharray:none;stroke-opacity:1" d="m 22.58552,97.682537 v 1.683618 1.230415 c 0,2.53177 2.038496,4.57026 4.570264,4.57026 2.531757,0 4.569746,-2.03849 4.569746,-4.57026 v -1.230415 -1.683618 z m 18.28002,0 v 1.683618 1.230415 c 0,2.53177 2.038496,4.57026 4.570264,4.57026 2.531757,0 4.569746,-2.03849 4.569746,-4.57026 v -1.230415 -1.683618 z"/></g></g></g></g><g id="g3" transform="matrix(0.55296255,-0.6045688,0.6045688,0.55296255,2.3797952,4.071373)"><path id="path3" style="fill:none;fill-opacity:1;stroke:#3d3d3f;stroke-width:2.11217;stroke-linecap:round;stroke-linejoin:round;stroke-dasharray:none;stroke-opacity:1;paint-order:stroke fill markers" d="m -14.332327,1.4781658 a 5.9671988,5.9671988 0 0 0 -3.006535,5.1645426 5.9671988,5.9671988 0 0 0 2.693893,4.9841916 v 9.526034 c 0,1.698706 1.367773,3.065962 3.066479,3.065962 h 0.413928 c 1.6987074,0 3.0664804,-1.367256 3.0664804,-3.065962 V 11.627417 A 5.9671988,5.9671988 0 0 0 -5.4041894,6.6427084 5.9671988,5.9671988 0 0 0 -8.3481956,1.4993531 v 3.4804077 c 0,0.9527563 -0.767036,1.7197917 -1.7197924,1.7197917 h -2.544547 c -0.952757,0 -1.719792,-0.7670354 -1.719792,-1.7197917 z"/><path id="path2" style="fill:none;fill-opacity:1;stroke:#78787d;stroke-width:1.2655;stroke-linecap:round;stroke-linejoin:round;stroke-dasharray:none;stroke-opacity:1;paint-order:stroke fill markers" d="m -14.332327,1.4781658 a 5.9671988,5.9671988 0 0 0 -3.006535,5.1645426 5.9671988,5.9671988 0 0 0 2.693893,4.9841916 v 9.526034 c 0,1.698706 1.367773,3.065962 3.066479,3.065962 h 0.413928 c 1.6987074,0 3.0664804,-1.367256 3.0664804,-3.065962 V 11.627417 A 5.9671988,5.9671988 0 0 0 -5.4041894,6.6427084 5.9671988,5.9671988 0 0 0 -8.3481956,1.4993531 v 3.4804077 c 0,0.9527563 -0.767036,1.7197917 -1.7197924,1.7197917 h -2.544547 c -0.952757,0 -1.719792,-0.7670354 -1.719792,-1.7197917 z"/><path id="rect1" style="fill:#87878c;fill-opacity:1;stroke:none;stroke-width:1.29183;stroke-linecap:round;stroke-linejoin:round;paint-order:stroke fill markers" d="m -14.332327,1.4781658 a 5.9671988,5.9671988 0 0 0 -3.006535,5.1645426 5.9671988,5.9671988 0 0 0 2.693893,4.9841916 v 9.526034 c 0,1.698706 1.367773,3.065962 3.066479,3.065962 h 0.413928 c 1.6987074,0 3.0664804,-1.367256 3.0664804,-3.065962 V 11.627417 A 5.9671988,5.9671988 0 0 0 -5.4041894,6.6427084 5.9671988,5.9671988 0 0 0 -8.3481956,1.4993531 v 3.4804077 c 0,0.9527563 -0.767036,1.7197917 -1.7197924,1.7197917 h -2.544547 c -0.952757,0 -1.719792,-0.7670354 -1.719792,-1.7197917 z"/><path id="rect3" style="fill:#d3d3d5;fill-opacity:0.296569;stroke:none;stroke-width:1.38038;stroke-linecap:round;stroke-linejoin:round;stroke-dasharray:none;stroke-opacity:1;paint-order:stroke fill markers" d="m -14.332458,1.477946 a 5.9671988,5.9671988 0 0 0 -3.006535,5.1645426 5.9671988,5.9671988 0 0 0 2.693892,4.9841914 v 0.305408 l 5.5025067,-5.5030231 c -0.267105,0.1705001 -0.583829,0.2702677 -0.9255247,0.2702677 h -2.544548 c -0.952757,0 -1.719791,-0.7670353 -1.719791,-1.7197916 z m 5.9841304,0.021187 v 3.480408 c 0,0.3416665 -0.099795,0.6589511 -0.2702677,0.9260416 L -6.2745524,3.5615397 A 5.9671988,5.9671988 0 0 0 -8.3483276,1.499133 Z m 2.870109,4.2912109 -9.1668824,9.1668821 v 6.195488 c 0,0.554905 0.147828,1.073292 0.403593,1.521354 l 6.1432943,-6.143294 v -4.903577 a 5.9671988,5.9671988 0 0 0 2.6938924,-4.9847087 5.9671988,5.9671988 0 0 0 -0.073897,-0.8521444 z"/></g></g></svg>