<svg xmlns:inkscape="http://www.inkscape.org/namespaces/inkscape" xmlns:sodipodi="http://sodipodi.sourceforge.net/DTD/sodipodi-0.dtd" xmlns="http://www.w3.org/2000/svg" xmlns:svg="http://www.w3.org/2000/svg" width="296.95947" height="358.944" viewBox="0 0 78.570524 94.970593" version="1.1" id="svg5" xml:space="preserve" sodipodi:docname="lvl1Menu.svg" inkscape:version="1.4.2 (ebf0e940, 2025-05-08)" inkscape:export-filename="testlvl1Menu.svg" inkscape:export-xdpi="96" inkscape:export-ydpi="96"><sodipodi:namedview id="namedview1" pagecolor="#505050" bordercolor="#ffffff" borderopacity="1" inkscape:showpageshadow="0" inkscape:pageopacity="0" inkscape:pagecheckerboard="1" inkscape:deskcolor="#505050" inkscape:zoom="0.76236679" inkscape:cx="-25.578239" inkscape:cy="133.79387" inkscape:window-width="1472" inkscape:window-height="796" inkscape:window-x="0" inkscape:window-y="38" inkscape:window-maximized="0" inkscape:current-layer="svg5"/><defs id="defs2"><style id="style608">.cls-1{fill-opacity:0.8;fill:url(#linear-gradient);}.cls-2{fill:#61cbed;}.cls-3{fill:#0fafd2;}.cls-4{fill-opacity:0.9;fill:url(#linear-gradient-2);}.cls-5{fill:#04859b;opacity:0.5;}.cls-6{fill:none;stroke:#8e281d;stroke-miterlimit:10;stroke-width:12px;}.cls-7{fill:#f18221;}.cls-8{fill:#d25927;}.cls-9{fill:url(#linear-gradient-3);}.cls-10{fill:#fff;}.cls-11{fill:#414042;}</style><style id="style36590">.cls-1{fill:url(#linear-gradient);}.cls-2{fill:#f7941d;}.cls-3{fill:#ecf7fe;}.cls-4{fill:#f3b71c;}.cls-5{fill:#c7eaf7;}.cls-6{fill:#6eb8cc;}.cls-7{fill:#009444;}.cls-8{fill:#39b54a;}.cls-10,.cls-9{fill:#f47e20;}.cls-9{stroke:#f47e20;stroke-miterlimit:10;}.cls-11{fill:none;stroke:#f3b71c;stroke-linejoin:bevel;stroke-width:3px;}</style><style id="style608-5">.cls-1{fill-opacity:0.8;fill:url(#linear-gradient);}.cls-2{fill:#61cbed;}.cls-3{fill:#0fafd2;}.cls-4{fill-opacity:0.9;fill:url(#linear-gradient-2);}.cls-5{fill:#04859b;opacity:0.5;}.cls-6{fill:none;stroke:#8e281d;stroke-miterlimit:10;stroke-width:12px;}.cls-7{fill:#f18221;}.cls-8{fill:#d25927;}.cls-9{fill:url(#linear-gradient-3);}.cls-10{fill:#fff;}.cls-11{fill:#414042;}</style><style id="style36590-3">.cls-1{fill:url(#linear-gradient);}.cls-2{fill:#f7941d;}.cls-3{fill:#ecf7fe;}.cls-4{fill:#f3b71c;}.cls-5{fill:#c7eaf7;}.cls-6{fill:#6eb8cc;}.cls-7{fill:#009444;}.cls-8{fill:#39b54a;}.cls-10,.cls-9{fill:#f47e20;}.cls-9{stroke:#f47e20;stroke-miterlimit:10;}.cls-11{fill:none;stroke:#f3b71c;stroke-linejoin:bevel;stroke-width:3px;}</style><style id="style608-6">.cls-1{fill-opacity:0.8;fill:url(#linear-gradient);}.cls-2{fill:#61cbed;}.cls-3{fill:#0fafd2;}.cls-4{fill-opacity:0.9;fill:url(#linear-gradient-2);}.cls-5{fill:#04859b;opacity:0.5;}.cls-6{fill:none;stroke:#8e281d;stroke-miterlimit:10;stroke-width:12px;}.cls-7{fill:#f18221;}.cls-8{fill:#d25927;}.cls-9{fill:url(#linear-gradient-3);}.cls-10{fill:#fff;}.cls-11{fill:#414042;}</style><style id="style36590-2">.cls-1{fill:url(#linear-gradient);}.cls-2{fill:#f7941d;}.cls-3{fill:#ecf7fe;}.cls-4{fill:#f3b71c;}.cls-5{fill:#c7eaf7;}.cls-6{fill:#6eb8cc;}.cls-7{fill:#009444;}.cls-8{fill:#39b54a;}.cls-10,.cls-9{fill:#f47e20;}.cls-9{stroke:#f47e20;stroke-miterlimit:10;}.cls-11{fill:none;stroke:#f3b71c;stroke-linejoin:bevel;stroke-width:3px;}</style><style id="style6644">.cls-1{fill:url(#linear-gradient);}.cls-2{fill:#eab371;}.cls-3{fill:#c88b4b;}.cls-4{fill:#e9a058;}</style><style id="style608-1">.cls-1{fill-opacity:0.8;fill:url(#linear-gradient);}.cls-2{fill:#61cbed;}.cls-3{fill:#0fafd2;}.cls-4{fill-opacity:0.9;fill:url(#linear-gradient-2);}.cls-5{fill:#04859b;opacity:0.5;}.cls-6{fill:none;stroke:#8e281d;stroke-miterlimit:10;stroke-width:12px;}.cls-7{fill:#f18221;}.cls-8{fill:#d25927;}.cls-9{fill:url(#linear-gradient-3);}.cls-10{fill:#fff;}.cls-11{fill:#414042;}</style><style id="style36590-1">.cls-1{fill:url(#linear-gradient);}.cls-2{fill:#f7941d;}.cls-3{fill:#ecf7fe;}.cls-4{fill:#f3b71c;}.cls-5{fill:#c7eaf7;}.cls-6{fill:#6eb8cc;}.cls-7{fill:#009444;}.cls-8{fill:#39b54a;}.cls-10,.cls-9{fill:#f47e20;}.cls-9{stroke:#f47e20;stroke-miterlimit:10;}.cls-11{fill:none;stroke:#f3b71c;stroke-linejoin:bevel;stroke-width:3px;}</style><style id="style608-7">.cls-1{fill-opacity:0.8;fill:url(#linear-gradient);}.cls-2{fill:#61cbed;}.cls-3{fill:#0fafd2;}.cls-4{fill-opacity:0.9;fill:url(#linear-gradient-2);}.cls-5{fill:#04859b;opacity:0.5;}.cls-6{fill:none;stroke:#8e281d;stroke-miterlimit:10;stroke-width:12px;}.cls-7{fill:#f18221;}.cls-8{fill:#d25927;}.cls-9{fill:url(#linear-gradient-3);}.cls-10{fill:#fff;}.cls-11{fill:#414042;}</style><style id="style36590-39">.cls-1{fill:url(#linear-gradient);}.cls-2{fill:#f7941d;}.cls-3{fill:#ecf7fe;}.cls-4{fill:#f3b71c;}.cls-5{fill:#c7eaf7;}.cls-6{fill:#6eb8cc;}.cls-7{fill:#009444;}.cls-8{fill:#39b54a;}.cls-10,.cls-9{fill:#f47e20;}.cls-9{stroke:#f47e20;stroke-miterlimit:10;}.cls-11{fill:none;stroke:#f3b71c;stroke-linejoin:bevel;stroke-width:3px;}</style><style id="style608-8">.cls-1{fill-opacity:0.8;fill:url(#linear-gradient);}.cls-2{fill:#61cbed;}.cls-3{fill:#0fafd2;}.cls-4{fill-opacity:0.9;fill:url(#linear-gradient-2);}.cls-5{fill:#04859b;opacity:0.5;}.cls-6{fill:none;stroke:#8e281d;stroke-miterlimit:10;stroke-width:12px;}.cls-7{fill:#f18221;}.cls-8{fill:#d25927;}.cls-9{fill:url(#linear-gradient-3);}.cls-10{fill:#fff;}.cls-11{fill:#414042;}</style><style id="style36590-34">.cls-1{fill:url(#linear-gradient);}.cls-2{fill:#f7941d;}.cls-3{fill:#ecf7fe;}.cls-4{fill:#f3b71c;}.cls-5{fill:#c7eaf7;}.cls-6{fill:#6eb8cc;}.cls-7{fill:#009444;}.cls-8{fill:#39b54a;}.cls-10,.cls-9{fill:#f47e20;}.cls-9{stroke:#f47e20;stroke-miterlimit:10;}.cls-11{fill:none;stroke:#f3b71c;stroke-linejoin:bevel;stroke-width:3px;}</style></defs><rect style="fill:none;fill-opacity:1;stroke:#3e4859;stroke-width:12.9701;stroke-linejoin:round;stroke-dasharray:none;stroke-opacity:1" id="rect1" width="65.60041" height="82.000504" x="6.4850478" y="6.4850521"/><rect style="fill:none;fill-opacity:1;stroke:#59677f;stroke-width:10.0879;stroke-linejoin:round;stroke-dasharray:none;stroke-opacity:1" id="rect2" width="65.60041" height="82.000504" x="6.4850478" y="6.4850521"/><rect style="fill:#faf5f5;fill-opacity:1;stroke:none;stroke-width:1.3587;stroke-linejoin:round;stroke-dasharray:none;stroke-opacity:1" id="rect3" width="65.60041" height="82.000504" x="6.4850478" y="6.4850521" ry="3.8613989"/><path id="path3" style="fill:#a7a4a4;fill-opacity:1;stroke:none;stroke-width:0.745331;stroke-linejoin:round" d="m 16.72255,14.57756 c -0.37995,0 -0.68187,0.10599 -0.90537,0.31832 -0.21233,0.21233 -0.31833,0.50837 -0.31833,0.88832 v 9.70587 c 0,0.37995 0.10064,0.67599 0.30179,0.88832 0.20115,0.21233 0.49182,0.31832 0.87178,0.31832 0.39113,0 0.6818,-0.10599 0.87178,-0.31832 0.20116,-0.21233 0.30128,-0.50837 0.30128,-0.88832 v -6.09162 l 2.74918,4.88446 c 0.12293,0.20115 0.26265,0.35799 0.4191,0.46974 0.15645,0.11175 0.35773,0.16743 0.60358,0.16743 0.24585,0 0.44125,-0.0503 0.58653,-0.1509 0.15644,-0.11175 0.30204,-0.27395 0.43615,-0.48627 l 2.74867,-4.92115 v 6.12831 c 0,0.37995 0.10063,0.67599 0.30179,0.88832 0.21232,0.21233 0.50888,0.31832 0.88883,0.31832 0.37995,0 0.67011,-0.10599 0.87127,-0.31832 0.20115,-0.21233 0.30179,-0.50837 0.30179,-0.88832 V 15.7842 c 0,-0.37995 -0.106,-0.67599 -0.31833,-0.88832 -0.20115,-0.21233 -0.49183,-0.31832 -0.87178,-0.31832 -0.32408,0 -0.58691,0.0669 -0.78807,0.20102 -0.18997,0.12292 -0.36826,0.34081 -0.53588,0.65371 l -3.58738,6.5536 -3.58738,-6.5536 c -0.16762,-0.3129 -0.35178,-0.53079 -0.55294,-0.65371 -0.18997,-0.13411 -0.4528,-0.20102 -0.78806,-0.20102 z m 24.70805,0 c -0.34643,0 -0.62586,0.11187 -0.83819,0.33538 -0.20115,0.2235 -0.30127,0.54738 -0.30127,0.97203 v 9.55497 c 0,0.40231 0.10012,0.71495 0.30127,0.93845 0.21233,0.21233 0.51424,0.31832 0.90537,0.31832 0.4023,0 0.70422,-0.10599 0.90537,-0.31832 0.20115,-0.2235 0.30179,-0.53614 0.30179,-0.93845 v -6.44973 l 5.43119,6.93549 c 0.21233,0.26821 0.40773,0.46412 0.58653,0.58705 0.18998,0.12292 0.44158,0.18396 0.75448,0.18396 0.32408,0 0.58103,-0.10599 0.77101,-0.31832 0.18997,-0.2235 0.28474,-0.51954 0.28474,-0.88832 v -9.67228 c 0,-0.39113 -0.106,-0.69253 -0.31833,-0.90485 -0.20115,-0.22351 -0.49719,-0.33538 -0.88832,-0.33538 -0.39113,0 -0.69304,0.11187 -0.90537,0.33538 -0.20115,0.21232 -0.30179,0.51372 -0.30179,0.90485 v 6.4301 L 42.68789,15.33203 C 42.47556,15.06383 42.28552,14.8738 42.1179,14.76204 41.96144,14.63912 41.73233,14.57756 41.4306,14.57756 Z m 12.7062,0 c -0.42466,0 -0.74853,0.11187 -0.97203,0.33538 -0.2235,0.2235 -0.33538,0.55273 -0.33538,0.98857 v 5.69939 c 0,0.84931 0.106,1.59821 0.31832,2.24637 0.2235,0.63698 0.55326,1.1675 0.98909,1.59216 0.43583,0.42466 0.97222,0.74905 1.6092,0.97255 0.64816,0.21232 1.39119,0.31832 2.22933,0.31832 1.11751,0 2.05109,-0.19003 2.79982,-0.56999 0.75992,-0.37995 1.32951,-0.94954 1.70946,-1.70945 0.39113,-0.77108 0.58705,-1.72127 0.58705,-2.84996 v -5.69939 c 0,-0.43584 -0.11188,-0.76507 -0.33538,-0.98857 -0.21233,-0.22351 -0.52549,-0.33538 -0.93897,-0.33538 -0.41348,0 -0.73199,0.11187 -0.95549,0.33538 -0.22351,0.2235 -0.33487,0.55273 -0.33487,0.98857 v 5.71644 c 0,0.96106 -0.21788,1.68749 -0.6537,2.1792 -0.42466,0.48053 -1.05096,0.72037 -1.87792,0.72037 -0.82696,0 -1.45812,-0.23984 -1.89395,-0.72037 -0.43583,-0.49171 -0.6537,-1.21814 -0.6537,-2.1792 v -5.71644 c 0,-0.43584 -0.11188,-0.76507 -0.33538,-0.98857 -0.2235,-0.22351 -0.54202,-0.33538 -0.9555,-0.33538 z m -22.62962,0.15089 c -0.43584,0 -0.77095,0.11724 -1.00563,0.35192 -0.23467,0.23467 -0.35191,0.56979 -0.35191,1.00562 v 9.10229 c 0,0.43583 0.11724,0.77095 0.35191,1.00562 0.23468,0.23468 0.56979,0.35192 1.00563,0.35192 h 5.85028 c 0.33526,0 0.58685,-0.0835 0.75448,-0.25115 0.1788,-0.1788 0.2682,-0.43576 0.2682,-0.77101 0,-0.32408 -0.0894,-0.57031 -0.2682,-0.73794 -0.16763,-0.1788 -0.41922,-0.2682 -0.75448,-0.2682 h -4.72684 v -2.95021 h 4.34134 c 0.34642,0 0.60338,-0.0835 0.77101,-0.25115 0.1788,-0.1788 0.2682,-0.43576 0.2682,-0.77101 0,-0.33526 -0.0894,-0.58685 -0.2682,-0.75447 -0.16763,-0.1788 -0.42459,-0.26821 -0.77101,-0.26821 h -4.34134 v -2.76572 h 4.72684 c 0.33526,0 0.58685,-0.084 0.75448,-0.25166 0.1788,-0.1788 0.2682,-0.43576 0.2682,-0.77101 0,-0.32408 -0.0894,-0.5698 -0.2682,-0.73743 -0.16763,-0.1788 -0.41922,-0.2682 -0.75448,-0.2682 z"/><rect style="fill:none;fill-opacity:1;stroke:#313845;stroke-width:2.3058;stroke-linejoin:round;stroke-dasharray:none;stroke-opacity:1" id="rect4" width="65.60041" height="82.000504" x="6.4850478" y="6.4850521" ry="3.8613989"/><rect style="fill:none;fill-opacity:1;stroke:#a7a4a4;stroke-width:1.32437;stroke-linejoin:round;stroke-dasharray:none;stroke-opacity:1" id="rect5" width="63.942898" height="79.928619" x="7.3137832" y="7.5210018" ry="3.763834"/><rect style="fill:none;fill-opacity:1;stroke:#a7a4a4;stroke-width:1.62447;stroke-linejoin:round;stroke-dasharray:none;stroke-opacity:1" id="rect6" width="54.740925" height="1.0323775" x="11.914797" y="29.872076" ry="0.51618874"/><rect style="fill:#a7a4a4;fill-opacity:1;stroke:none;stroke-width:5.15594;stroke-linejoin:round;stroke-dasharray:none;stroke-opacity:1" id="rect8" width="23.168394" height="1.7551813" x="11.600008" y="63.986153" ry="0.87759066"/><g id="g24"><rect style="fill:#a7a4a4;fill-opacity:1;stroke:none;stroke-width:5.15594;stroke-linejoin:round;stroke-dasharray:none;stroke-opacity:1" id="rect7" width="23.168394" height="1.7551813" x="41.43808" y="41.445915" ry="0.87759066"/><rect style="fill:#a7a4a4;fill-opacity:1;stroke:none;stroke-width:5.15594;stroke-linejoin:round;stroke-dasharray:none;stroke-opacity:1" id="rect9" width="23.168394" height="1.7551813" x="41.43808" y="44.605232" ry="0.87759066"/></g><rect style="fill:#a7a4a4;fill-opacity:1;stroke:none;stroke-width:5.15594;stroke-linejoin:round;stroke-dasharray:none;stroke-opacity:1" id="rect10" width="23.168394" height="1.7551813" x="11.600008" y="67.14547" ry="0.87759066"/><rect style="fill:#a7a4a4;fill-opacity:1;stroke:none;stroke-width:5.15594;stroke-linejoin:round;stroke-dasharray:none;stroke-opacity:1" id="rect11" width="23.168394" height="1.7551813" x="11.600008" y="70.304802" ry="0.87759066"/><g id="g38" transform="translate(-49.855935,21.083045)"><path id="rect24" style="fill:#8f8f8f;fill-opacity:1;stroke:none;stroke-width:1.91294;stroke-linecap:round;stroke-linejoin:round;paint-order:stroke fill markers" d="m 92.720433,51.411846 v 3.350183 a 2.4635521,2.4635521 0 0 0 2.463932,2.463932 h 15.387695 a 2.4635521,2.4635521 0 0 0 2.46393,-2.463932 v -3.350183 z"/><path id="rect25" style="fill:#b8b8b8;fill-opacity:1;stroke:none;stroke-width:1.91294;stroke-linecap:round;stroke-linejoin:round;paint-order:stroke fill markers" d="m 92.720433,42.364854 v 10.722342 a 2.4635521,2.4635521 0 0 0 2.463932,2.463415 h 15.387695 a 2.4635521,2.4635521 0 0 0 2.46393,-2.463415 V 42.364854 Z"/><path id="rect28" style="fill:#f7f7f7;fill-opacity:1;stroke:none;stroke-width:1.91294;stroke-linecap:round;stroke-linejoin:round;paint-order:stroke fill markers" d="m 92.720433,44.492372 v 8.87491 h 20.315557 v -8.87491 z"/><path id="rect26" style="fill:#cccccc;fill-opacity:1;stroke:none;stroke-width:1.91294;stroke-linecap:round;stroke-linejoin:round;paint-order:stroke fill markers" d="m 94.818496,37.116595 -2.098063,5.248259 h 20.315557 l -2.09807,-5.248259 z"/><path id="rect27" style="fill:#b8b8b8;fill-opacity:1;stroke:none;stroke-width:1.91294;stroke-linecap:round;stroke-linejoin:round;paint-order:stroke fill markers" d="m 96.725357,33.863564 a 1.9069166,1.9069166 0 0 0 -1.90531,1.90686 v 1.438155 h 16.116323 v -1.438155 a 1.9069166,1.9069166 0 0 0 -1.90531,-1.90686 z"/><path id="rect29" style="fill:#e7e7e7;fill-opacity:1;stroke:none;stroke-width:1.91294;stroke-linecap:round;stroke-linejoin:round;paint-order:stroke fill markers" d="m 109.83308,34.40565 a 2.2888417,2.2888417 0 0 0 -1.90944,1.258321 l -2.25051,4.494299 c -0.25123,0.501107 0.0832,0.849477 0.58498,1.100708 0.50178,0.25123 0.98022,0.310581 1.23145,-0.191203 l 2.25051,-4.495849 a 0.25664823,0.25664823 0 0 1 0.34313,-0.112138 l 1.48156,0.744657 a 1.0159343,1.0159343 0 1 0 0.90951,-1.816943 l -1.48157,-0.744657 a 2.2888417,2.2888417 0 0 0 -1.15962,-0.237195 z"/><path id="rect30" style="fill:#b7b7b7;fill-opacity:1;stroke:none;stroke-width:1.91294;stroke-linecap:round;stroke-linejoin:round;paint-order:stroke fill markers" d="m 112.29546,35.676373 a 0.53090298,0.69342422 28.219999 0 0 -0.59169,0.409278 0.53090298,0.69342422 28.219999 0 0 0.14004,0.862479 0.53090298,0.69342422 28.219999 0 0 0.7953,-0.360185 0.53090298,0.69342422 28.219999 0 0 -0.13952,-0.861962 0.53090298,0.69342422 28.219999 0 0 -0.20413,-0.04961 z"/><path id="rect32" style="fill:#808080;fill-opacity:1;stroke:none;stroke-width:1.91294;stroke-linecap:round;stroke-linejoin:round;paint-order:stroke fill markers" d="m 97.483967,48.22186 c -0.177852,5.21e-4 -0.365904,0.01133 -0.564824,0.03359 0,0 0.636258,1.227151 1.07642,2.035018 0.387342,0.705613 1.483995,0.959756 2.518707,0.208772 0,0 -0.36252,-2.285192 -3.030303,-2.27738 z"/><path id="rect33" style="fill:#9e9e9e;fill-opacity:1;stroke:none;stroke-width:1.91294;stroke-linecap:round;stroke-linejoin:round;paint-order:stroke fill markers" d="m 99.365505,50.280649 c -0.673376,0.0242 -1.475116,0.310534 -2.317687,1.164787 0,0 1.266298,0.553562 2.116149,0.904337 0.744212,0.30405 1.755433,-0.189842 2.089283,-1.421618 0,0 -0.76545,-0.687845 -1.887745,-0.647506 z"/><path id="rect35" style="fill:#b8b8b8;fill-opacity:1;stroke:none;stroke-width:1.91294;stroke-linecap:round;stroke-linejoin:round;paint-order:stroke fill markers" d="m 108.28951,45.140911 a 3.3249149,3.3249149 0 0 0 -3.32486,3.324862 3.3249149,3.3249149 0 0 0 3.32486,3.324861 3.3249149,3.3249149 0 0 0 3.32486,-3.324861 3.3249149,3.3249149 0 0 0 -3.32486,-3.324862 z"/><path id="rect36" style="fill:#c5c5c5;fill-opacity:1;stroke:none;stroke-width:1.91294;stroke-linecap:round;stroke-linejoin:round;paint-order:stroke fill markers" d="m 109.88476,48.261651 a 0.98393106,0.98393106 0 0 0 -0.98392,0.983919 0.98393106,0.98393106 0 0 0 0.98392,0.983919 0.98393106,0.98393106 0 0 0 0.98392,-0.983919 0.98393106,0.98393106 0 0 0 -0.98392,-0.983919 z"/><path id="rect37" style="fill:#808080;fill-opacity:1;stroke:none;stroke-width:1.91294;stroke-linecap:round;stroke-linejoin:round;paint-order:stroke fill markers" d="m 109.99845,43.190643 c -2.91117,1.327257 -1.93167,3.771346 -1.93167,3.771346 1.27377,0.113088 2.08491,-0.666427 2.05311,-1.472262 -0.0366,-0.918923 -0.12144,-2.299084 -0.12144,-2.299084 z"/><path id="rect38" style="fill:#9e9e9e;fill-opacity:1;stroke:none;stroke-width:1.91294;stroke-linecap:round;stroke-linejoin:round;paint-order:stroke fill markers" d="m 110.88832,45.097503 c -2.22368,-0.05424 -2.81844,1.87172 -2.81844,1.87172 0.91892,0.889127 2.04031,0.793978 2.51975,0.147278 0.55189,-0.73744 1.35444,-1.862935 1.35444,-1.862935 -0.38718,-0.09997 -0.73809,-0.148314 -1.05575,-0.156063 z"/><path id="rect34" style="fill:#adadad;fill-opacity:1;stroke:none;stroke-width:1.91294;stroke-linecap:round;stroke-linejoin:round;paint-order:stroke fill markers" d="m 105.69845,46.333603 -0.0191,0.02377 c -1.30427,1.61002 -0.85184,4.007317 0.94981,5.030701 l 0.0279,0.01602 0.017,-0.02687 c 0.40576,-0.615718 0.62238,-1.336387 0.6227,-2.073775 0.007,-1.186358 -0.58393,-2.296891 -1.57251,-2.952791 z"/><path class="cls-2" d="m 106.34261,49.315786 c 0,1.780286 -1.48977,3.224017 -3.32491,3.224017 -1.83514,0 -3.322206,-1.443731 -3.322206,-3.224017 0,-1.780285 1.489776,-3.0554 3.324236,-3.0554 1.83446,0 3.32288,1.274438 3.32288,3.0554 z" id="path51" style="fill:#b8b8b8;fill-opacity:1;stroke:none;stroke-width:0.0677172"/><path id="rect31" style="fill:#c7c7c7;fill-opacity:1;stroke:none;stroke-width:1.91294;stroke-linecap:round;stroke-linejoin:round;paint-order:stroke fill markers" d="m 103.01748,46.594053 a 2.5881519,1.947547 0 0 0 -2.58796,1.947684 2.5881519,1.947547 0 0 0 2.58796,1.947685 2.5881519,1.947547 0 0 0 2.58847,-1.947685 2.5881519,1.947547 0 0 0 -2.58847,-1.947684 z"/><path id="path31" style="fill:#adadad;fill-opacity:1;stroke:none;stroke-width:1.91294;stroke-linecap:round;stroke-linejoin:round;paint-order:stroke fill markers" d="m 103.01748,46.849334 a 2.2488885,1.6922531 0 0 0 -2.24844,1.692403 2.2488885,1.6922531 0 0 0 2.24844,1.692403 2.2488885,1.6922531 0 0 0 2.24896,-1.692403 2.2488885,1.6922531 0 0 0 -2.24896,-1.692403 z"/><path id="path32" style="fill:#c7c7c7;fill-opacity:1;stroke:none;stroke-width:1.91294;stroke-linecap:round;stroke-linejoin:round;paint-order:stroke fill markers" d="m 103.69909,46.723244 -0.5979,1.165303 a 0.52006817,0.39140549 0 0 0 -0.0837,-0.0052 0.52006817,0.39140549 0 0 0 -0.16847,0.02119 l -0.90227,-1.118278 -0.15813,0.127641 0.86972,1.07797 a 0.52006817,0.39140549 0 0 0 -0.16072,0.283187 0.52006817,0.39140549 0 0 0 0,0.0041 l -1.83606,0.379822 0.0413,0.198954 1.865,-0.38654 a 0.52006817,0.39140549 0 0 0 0.17002,0.133325 l -0.79737,1.583366 0.18139,0.09147 0.81493,-1.617989 a 0.52006817,0.39140549 0 0 0 0.0806,0.0047 0.52006817,0.39140549 0 0 0 0.1695,-0.02119 l 1.22266,1.507401 0.15761,-0.128157 -1.18959,-1.467094 a 0.52006817,0.39140549 0 0 0 0.14676,-0.194303 l 1.89291,-0.05013 -0.005,-0.203089 -1.89756,0.05064 a 0.52006817,0.39140549 0 0 0 -0.21445,-0.21394 l 0.57981,-1.130164 z"/></g><g id="g23" transform="translate(52.629951,1.7759545)"><path id="rect13" style="fill:#aaaaaa;fill-opacity:1;stroke:none;stroke-width:1.91294;stroke-linecap:round;stroke-linejoin:round;paint-order:stroke fill markers" d="m -39.930377,49.50757 v 3.458703 a 2.5428634,2.5428634 0 0 0 2.542997,2.542997 h 15.883267 a 2.5428634,2.5428634 0 0 0 2.542998,-2.542997 V 49.50757 Z"/><path id="rect14" style="fill:#c4c4c4;fill-opacity:1;stroke:none;stroke-width:1.91294;stroke-linecap:round;stroke-linejoin:round;paint-order:stroke fill markers" d="m -37.38738,34.540009 c -1.408746,0 -2.542997,1.134251 -2.542997,2.542997 v 12.625585 c 0,1.408746 1.134251,2.54248 2.542997,2.54248 h 15.883267 c 1.408746,0 2.542998,-1.133734 2.542998,-2.54248 V 37.083006 c 0,-1.408746 -1.134252,-2.542997 -2.542998,-2.542997 z"/><path id="rect17" style="fill:#8c8c8c;fill-opacity:1;stroke:none;stroke-width:1.91294;stroke-linecap:round;stroke-linejoin:round;paint-order:stroke fill markers" d="m -37.38738,34.730178 a 2.5421644,2.5421644 0 0 0 -2.542997,2.541963 v 7.211446 a 0.74370717,0.74370717 0 0 0 1.134298,0.63252 l 1.835546,-1.133781 a 0.74370717,0.74370717 0 0 1 1.029395,0.252181 l 0.413411,0.694531 c 1.235784,2.073154 4.229919,2.096654 5.497856,0.04237 l 0.613916,-0.995288 a 0.74370717,0.74370717 0 0 1 1.239717,-0.03824 l 1.258321,1.78232 a 0.74370717,0.74370717 0 0 0 1.270724,-0.09405 l 0.384989,-0.747758 a 0.74370717,0.74370717 0 0 1 1.389579,0.176217 l 0.114722,0.521932 c 0.174044,0.789141 1.304382,0.77318 1.456758,-0.02015 l 0.204122,-1.064535 a 0.74370717,0.74370717 0 0 1 1.238684,-0.396875 l 0.628902,0.599447 a 0.74370717,0.74370717 0 0 0 1.258322,-0.537435 v -6.883817 a 2.5428634,2.5428634 0 0 0 -2.542998,-2.542997 z"/><path id="rect19" style="fill:#969696;fill-opacity:1;stroke:none;stroke-width:1.91294;stroke-linecap:round;stroke-linejoin:round;paint-order:stroke fill markers" d="m -37.38738,34.540009 a 2.5421644,2.5421644 0 0 0 -2.542997,2.541963 v 6.374288 a 0.74370717,0.74370717 0 0 0 1.134298,0.632519 l 1.835546,-1.133781 a 0.74370717,0.74370717 0 0 1 1.029395,0.252181 l 0.413411,0.693498 c 1.235784,2.073853 4.229919,2.096654 5.497856,0.04237 l 0.613916,-0.993738 a 0.74370717,0.74370717 0 0 1 1.239717,-0.03927 l 1.258321,1.78232 a 0.74370717,0.74370717 0 0 0 1.270724,-0.0925 l 0.384989,-0.748791 a 0.74370717,0.74370717 0 0 1 1.389579,0.176216 l 0.114722,0.521415 c 0.174044,0.78914 1.304382,0.773696 1.456758,-0.01964 l 0.204122,-1.064534 a 0.74370717,0.74370717 0 0 1 1.238684,-0.396875 l 0.628902,0.60048 a 0.74370717,0.74370717 0 0 0 1.258322,-0.537952 v -6.047175 a 2.5428634,2.5428634 0 0 0 -2.542998,-2.542997 z"/><path id="rect20" style="fill:#8c8c8c;fill-opacity:1;stroke:none;stroke-width:1.91294;stroke-linecap:round;stroke-linejoin:round;paint-order:stroke fill markers" d="m -37.016343,36.129576 c -0.53751,0 -0.973584,0.480255 -0.973584,1.072285 v 2.212268 c 0,0.59203 0.436074,1.07177 0.973584,1.07177 h 2.159041 c 0.538209,0 0.973584,-0.47974 0.973584,-1.07177 v -2.212268 c 0,-0.59203 -0.435375,-1.072285 -0.973584,-1.072285 z m 6.490559,0 c -0.53751,0 -0.973584,0.480255 -0.973584,1.072285 v 2.212268 c 0,0.59203 0.436074,1.07177 0.973584,1.07177 h 2.160075 c 0.53751,0 0.973584,-0.47974 0.973584,-1.07177 v -2.212268 c 0,-0.59203 -0.436074,-1.072285 -0.973584,-1.072285 z m 6.468856,0 c -0.537511,0 -0.973584,0.480255 -0.973584,1.072285 v 2.212268 c 0,0.59203 0.436073,1.07177 0.973584,1.07177 h 2.160075 c 0.53751,0 0.973584,-0.47974 0.973584,-1.07177 v -2.212268 c 0.0049,-0.59203 -0.433977,-1.072285 -0.973584,-1.072285 z"/><path id="rect15" style="fill:#aaaaaa;fill-opacity:1;stroke:none;stroke-width:1.91294;stroke-linecap:round;stroke-linejoin:round;paint-order:stroke fill markers" d="m -37.016343,41.349928 c -0.53751,0 -0.973584,0.480256 -0.973584,1.072286 v 2.212268 c 0,0.59203 0.436074,1.072286 0.973584,1.072286 h 2.159041 c 0.538209,0 0.973584,-0.480256 0.973584,-1.072286 v -2.212268 c 0,-0.59203 -0.435375,-1.072286 -0.973584,-1.072286 z m 6.490559,0 c -0.53751,0 -0.973584,0.480256 -0.973584,1.072286 v 2.212268 c 0,0.59203 0.436074,1.072286 0.973584,1.072286 h 2.160075 c 0.53751,0 0.973584,-0.480256 0.973584,-1.072286 v -2.212268 c 0,-0.59203 -0.436074,-1.072286 -0.973584,-1.072286 z m 6.468856,0 c -0.537511,0 -0.973584,0.480256 -0.973584,1.072286 v 2.212268 c 0,0.59203 0.436073,1.072286 0.973584,1.072286 h 2.160075 c 0.53751,0 0.973584,-0.480256 0.973584,-1.072286 v -2.212268 c 0.0049,-0.59203 -0.433977,-1.072286 -0.973584,-1.072286 z m -12.959415,4.95577 c -0.53751,0 -0.973584,0.479557 -0.973584,1.072286 v 2.211751 c 0,0.59203 0.436074,1.072286 0.973584,1.072286 h 2.159041 c 0.538209,0 0.973584,-0.480256 0.973584,-1.072286 v -2.211751 c 0,-0.592729 -0.435375,-1.072286 -0.973584,-1.072286 z m 6.490559,0 c -0.53751,0 -0.973584,0.479557 -0.973584,1.072286 v 2.211751 c 0,0.59203 0.436074,1.072286 0.973584,1.072286 h 2.160075 c 0.53751,0 0.973584,-0.480256 0.973584,-1.072286 v -2.211751 c 0,-0.592729 -0.436074,-1.072286 -0.973584,-1.072286 z m 6.468856,0 c -0.537511,0 -0.973584,0.479557 -0.973584,1.072286 v 2.211751 c 0,0.59203 0.436073,1.072286 0.973584,1.072286 h 2.160075 c 0.53751,0 0.973584,-0.480256 0.973584,-1.072286 v -2.211751 c 0.0049,-0.592729 -0.433977,-1.072286 -0.973584,-1.072286 z"/><path id="rect18" style="fill:#797979;fill-opacity:1;stroke:none;stroke-width:1.91294;stroke-linecap:round;stroke-linejoin:round;paint-order:stroke fill markers" d="m -37.016343,41.349928 c -0.53751,0 -0.973584,0.480256 -0.973584,1.072286 v 2.196249 l 1.029394,-0.636137 a 0.74370717,0.74370717 0 0 1 1.029395,0.252181 l 0.413411,0.694531 a 3.2579127,3.2579127 0 0 0 0.646472,0.77773 h 0.01395 c 0.538209,0 0.973584,-0.480256 0.973584,-1.072286 v -2.212268 c 0,-0.59203 -0.435374,-1.072286 -0.973584,-1.072286 z m 6.490559,0 c -0.53751,0 -0.973584,0.480256 -0.973584,1.072286 v 2.212268 c 0,0.552188 0.379429,1.006339 0.866614,1.065052 a 3.2579127,3.2579127 0 0 0 0.612883,-0.728121 l 0.613916,-0.995288 a 0.74370717,0.74370717 0 0 1 1.239717,-0.03824 l 0.726571,1.025777 a 1.1882539,1.1882539 0 0 0 0.04754,-0.329695 v -2.211752 c 0,-0.59203 -0.436074,-1.072286 -0.973584,-1.072286 z m 6.468856,0 c -0.537511,0 -0.973584,0.480256 -0.973584,1.072286 v 2.18643 a 0.74580408,0.74580408 0 0 1 1.162203,0.445968 l 0.114721,0.521932 a 0.82968083,0.82968083 0 0 0 0.04083,0.130224 h 1.372009 a 0.87581304,0.87581304 0 0 0 0.04393,-0.150378 l 0.204122,-1.064535 a 0.74300819,0.74300819 0 0 1 1.174088,-0.458886 v -1.607654 c 0,-0.594826 -0.438627,-1.075387 -0.978234,-1.075387 z"/><path id="path22" style="fill:#8c8c8c;fill-opacity:1;stroke:none;stroke-width:0.0698973" class="cls-3" d="m -37.016343,41.349928 c -0.53751,0 -0.973584,0.480256 -0.973584,1.072286 v 1.168921 l 1.029394,-0.636137 a 0.74370717,0.74370717 0 0 1 1.029395,0.252181 l 0.413411,0.693498 a 3.172638,3.172638 0 0 0 1.483114,1.305863 1.1470145,1.1470145 0 0 0 0.150895,-0.572058 v -2.212268 c 0,-0.59203 -0.435375,-1.072286 -0.973584,-1.072286 z m 6.490559,0 c -0.53751,0 -0.973584,0.480256 -0.973584,1.072286 v 2.212268 a 1.1505094,1.1505094 0 0 0 0.125574,0.52555 3.1803267,3.1803267 0 0 0 1.353923,-1.21698 l 0.613916,-0.993738 a 0.74370717,0.74370717 0 0 1 1.239717,-0.03927 l 0.774113,1.09399 v -1.581816 c 0,-0.59203 -0.436074,-1.072286 -0.973584,-1.072286 z m 6.468856,0 c -0.537511,0 -0.973584,0.480256 -0.973584,1.072286 v 1.159103 a 0.74580408,0.74580408 0 0 1 1.162203,0.445967 l 0.114721,0.521415 c 0.174044,0.78914 1.304383,0.773696 1.456759,-0.01964 l 0.204122,-1.064534 a 0.74370717,0.74370717 0 0 1 1.174088,-0.45992 v -0.582394 c 0,-0.59203 -0.438627,-1.072285 -0.978234,-1.072286 z"/><path id="rect16" style="fill:#9c9c9c;fill-opacity:1;stroke:none;stroke-width:1.91294;stroke-linecap:round;stroke-linejoin:round;paint-order:stroke fill markers" d="m -37.016343,46.305698 c -0.53751,0 -0.973584,0.479557 -0.973584,1.072286 v 1.240751 c 0,-0.59203 0.436074,-1.072286 0.973584,-1.072286 h 2.159041 c 0.538209,0 0.973584,0.480256 0.973584,1.072286 v -1.240751 c 0,-0.592729 -0.435375,-1.072286 -0.973584,-1.072286 z m 6.490559,0 c -0.53751,0 -0.973584,0.479557 -0.973584,1.072286 v 1.240751 c 0,-0.59203 0.436074,-1.072286 0.973584,-1.072286 h 2.160075 c 0.53751,0 0.973584,0.480256 0.973584,1.072286 v -1.240751 c 0,-0.592729 -0.436074,-1.072286 -0.973584,-1.072286 z m 6.468856,0 c -0.537511,0 -0.973584,0.479557 -0.973584,1.072286 v 1.240751 c 0,-0.59203 0.436073,-1.072286 0.973584,-1.072286 h 2.160075 c 0.53751,0 0.973584,0.480256 0.973584,1.072286 v -1.240751 c 0.0049,-0.592729 -0.433977,-1.072286 -0.973584,-1.072286 z"/><path id="rect21" style="fill:#808080;fill-opacity:1;stroke:none;stroke-width:1.91294;stroke-linecap:round;stroke-linejoin:round;paint-order:stroke fill markers" d="m -37.016343,36.129576 c -0.53751,0 -0.973584,0.480255 -0.973584,1.072285 v 1.241268 c 0,-0.59203 0.436074,-1.072286 0.973584,-1.072286 h 2.159041 c 0.538209,0 0.973584,0.480256 0.973584,1.072286 v -1.241268 c 0,-0.59203 -0.435375,-1.072285 -0.973584,-1.072285 z m 6.490559,0 c -0.53751,0 -0.973584,0.480255 -0.973584,1.072285 v 1.241268 c 0,-0.59203 0.436074,-1.072286 0.973584,-1.072286 h 2.160075 c 0.53751,0 0.973584,0.480256 0.973584,1.072286 v -1.241268 c 0,-0.59203 -0.436074,-1.072285 -0.973584,-1.072285 z m 6.468856,0 c -0.537511,0 -0.973584,0.480255 -0.973584,1.072285 v 1.241268 c 0,-0.59203 0.436073,-1.072286 0.973584,-1.072286 h 2.160075 c 0.53751,0 0.973584,0.480256 0.973584,1.072286 v -1.241268 c 0.0049,-0.59203 -0.433977,-1.072285 -0.973584,-1.072285 z"/><path id="rect22" style="fill:#b2b2b2;fill-opacity:1;stroke:none;stroke-width:1.91294;stroke-linecap:round;stroke-linejoin:round;paint-order:stroke fill markers" d="m -26.665554,34.532774 a 1.1183566,1.1183566 0 0 0 -0.956531,0.573608 l -1.348238,2.431376 -0.615466,0.15658 0.200504,1.103808 v 0.0124 0.0088 a 1.1183566,1.1183566 0 0 0 0.552938,0.758093 l 2.951241,1.632975 a 1.1183566,1.1183566 0 0 0 1.516186,-0.435115 l 1.638143,-2.954859 a 1.1057751,1.1057751 0 0 0 0.125057,-0.717269 v -0.01188 l -0.0062,-0.03101 -0.209806,-1.09554 -0.655257,0.167431 -2.632398,-1.460892 a 1.1183566,1.1183566 0 0 0 -0.560172,-0.138493 z"/><path id="rect23" style="fill:#d4d4d4;fill-opacity:1;stroke:none;stroke-width:1.91294;stroke-linecap:round;stroke-linejoin:round;paint-order:stroke fill markers" d="m -26.823684,33.5225 c -0.395569,-0.0038 -0.779931,0.204094 -0.985986,0.575675 l -1.638143,2.954858 c -0.299717,0.540481 -0.105882,1.216987 0.434599,1.516704 l 2.944006,1.632975 c 0.54048,0.299716 1.216986,0.105882 1.516703,-0.434599 l 1.638659,-2.955375 c 0.299717,-0.540481 0.105882,-1.21647 -0.434598,-1.516186 l -2.944523,-1.632976 c -0.1689,-0.09366 -0.350913,-0.139327 -0.530717,-0.141076 z"/><path id="path23" style="fill:#7c7c7c;fill-opacity:1;stroke:none;stroke-width:0.0698973" class="cls-5" d="m -37.016343,41.349928 c -0.53751,0 -0.973584,0.480256 -0.973584,1.072286 v 1.241268 c 0,-0.59203 0.436074,-1.072286 0.973584,-1.072286 h 2.159041 c 0.538209,0 0.973584,0.480256 0.973584,1.072286 v -1.241268 c 0,-0.59203 -0.435375,-1.072286 -0.973584,-1.072286 z m 6.490559,0 c -0.53751,0 -0.973584,0.480256 -0.973584,1.072286 v 1.241268 c 0,-0.59203 0.436074,-1.072286 0.973584,-1.072286 h 2.160075 c 0.53751,0 0.973584,0.480256 0.973584,1.072286 v -1.241268 c 0,-0.59203 -0.436074,-1.072286 -0.973584,-1.072286 z m 6.468856,0 c -0.537511,0 -0.973584,0.480256 -0.973584,1.072286 v 1.241268 c 0,-0.59203 0.436073,-1.072286 0.973584,-1.072286 h 2.160075 c 0.53751,0 0.973584,0.480256 0.973584,1.072286 v -1.241268 c 0.0049,-0.59203 -0.433977,-1.072286 -0.973584,-1.072286 z"/></g></svg>