<svg xmlns="http://www.w3.org/2000/svg" xmlns:xlink="http://www.w3.org/1999/xlink" xml:space="preserve" width="170" height="170" viewBox="0 0 44.979 44.979">
  <defs>
    <linearGradient xlink:href="#a" id="e" x1="10.211" x2="10.313" y1="155.136" y2="158.266" gradientTransform="translate(-55.81 -296.025)scale(3.12875)" gradientUnits="userSpaceOnUse"/>
    <linearGradient id="a">
      <stop offset="0" stop-color="#da9b00"/>
      <stop offset="1" stop-color="#fae448"/>
    </linearGradient>
    <linearGradient xlink:href="#b" id="f" x1="8.694" x2="14.108" y1="145.458" y2="153.806" gradientTransform="translate(-55.81 -296.025)scale(3.12875)" gradientUnits="userSpaceOnUse"/>
    <linearGradient id="b">
      <stop offset="0" stop-color="#f8f168"/>
      <stop offset="1" stop-color="#fec605"/>
    </linearGradient>
    <linearGradient xlink:href="#c" id="g" x1="-43.082" x2="-30.807" y1="170.664" y2="185.714" gradientTransform="translate(95.174 -381.635)scale(3.12875)" gradientUnits="userSpaceOnUse"/>
    <linearGradient id="c">
      <stop offset="0" stop-color="#a64700"/>
      <stop offset="1" stop-color="#d29100"/>
    </linearGradient>
    <linearGradient xlink:href="#d" id="h" x1="11.431" x2="11.465" y1="146.691" y2="153.142" gradientTransform="translate(-55.81 -296.025)scale(3.12875)" gradientUnits="userSpaceOnUse"/>
    <linearGradient id="d">
      <stop offset="0" stop-color="#b16500"/>
      <stop offset="1" stop-color="#d79700"/>
    </linearGradient>
  </defs>
  <g transform="translate(44.709 -149.945)">
    <path fill="none" stroke="#62370c" stroke-linecap="round" stroke-linejoin="round" stroke-width="2.512" d="M-22.22 151.496a21.234 19.453 0 0 0-21.233 19.452 21.234 19.453 0 0 0 .028.717v.006q-.028.494-.028.997c0 10.744 9.507 20.704 21.234 20.704s21.234-9.96 21.234-20.704q0-.514-.029-1.018a21.234 19.453 0 0 0 .029-.702 21.234 19.453 0 0 0-21.234-19.452z"/>
    <path fill="url(#e)" d="M-.985 172.67c0 10.743-9.507 20.703-21.234 20.703s-21.233-9.96-21.233-20.704 9.506-18.201 21.233-18.201 21.234 7.458 21.234 18.201"/>
    <ellipse cx="-22.219" cy="170.948" fill="url(#f)" rx="21.234" ry="19.453"/>
    <path fill="url(#g)" d="M-22.222 152.788c-10.922 0-19.798 8.122-19.798 18.162s8.876 18.162 19.798 18.162 19.806-8.122 19.806-18.162-8.884-18.162-19.806-18.162m0 .495c10.677 0 19.311 7.92 19.311 17.667s-8.634 17.667-19.311 17.667-19.303-7.92-19.303-17.667 8.627-17.667 19.303-17.667m.003.44c-.296.514-.76 1.264-1.329 1.466a11.5 11.5 0 0 0-2.546-.331q-.128-.001-.253.002c-2.477.044-4.684 1.087-6.45 3.52q-.23.262-.445.547c-.545.186-1.326 0-1.86-.143.133.404.358 1.063.223 1.644-3.512 1.46-5.411 4.392-4.381 9.24-.266.494-.905.908-1.36 1.182.406.195 1.088.511 1.394 1.065-.251.968-.372 1.903-.351 2.793-.03 2.295.963 4.07 2.65 5.392q.009.008.018.012l.042.032q.795.644 1.843 1.178c.248.623-.015 1.387-.163 1.838.522-.141 1.28-.32 1.823-.155 1.067 2.127 2.902 3.27 5.194 3.655 1.384.324 2.959.323 4.732-.073.518.253.943.937 1.22 1.418.224-.444.603-1.218 1.275-1.448 1.828.425 3.446.435 4.865.103 2.283-.383 4.115-1.52 5.183-3.633.546-.203 1.346-.015 1.89.133-.15-.46-.42-1.247-.145-1.877a10.4 10.4 0 0 0 1.769-1.138l.042-.033q.008-.008.018-.012c1.687-1.323 2.68-3.097 2.65-5.392.02-.867-.096-1.776-.333-2.717.283-.601 1.01-.937 1.434-1.141-.48-.29-1.168-.734-1.402-1.264.984-4.77-.883-7.67-4.333-9.13-.149-.588.081-1.261.217-1.672-.562.151-1.397.347-1.942.111q-.207-.271-.427-.524c-2.449-3.366-5.742-4.06-9.428-3.138l.023-.036c-.723-.193-1.124-1.013-1.357-1.474m-1.563.076a.45.45 0 0 0-.453.452.45.45 0 0 0 .453.451.45.45 0 0 0 .45-.45.45.45 0 0 0-.45-.453m3.085 0a.45.45 0 0 0-.452.452.45.45 0 0 0 .452.451.45.45 0 0 0 .452-.45.45.45 0 0 0-.452-.453m9.92 3.707a.45.45 0 0 0-.312.15.45.45 0 0 0 .038.637.45.45 0 0 0 .637-.035.45.45 0 0 0-.036-.637.45.45 0 0 0-.327-.115m-22.923.107a.45.45 0 0 0-.32.132.45.45 0 0 0-.002.639.45.45 0 0 0 .639.002.45.45 0 0 0 .003-.639.45.45 0 0 0-.32-.134m25.256 1.95a.45.45 0 0 0-.344.15.45.45 0 0 0 .036.637.45.45 0 0 0 .638-.034.45.45 0 0 0-.035-.64.45.45 0 0 0-.295-.114m-27.476.23a.45.45 0 0 0-.288.13v-.003a.45.45 0 0 0-.001.64.45.45 0 0 0 .64.002.45.45 0 0 0 0-.637.45.45 0 0 0-.35-.132zm31.624 9.076a.45.45 0 0 0-.447.456.45.45 0 0 0 .456.448.45.45 0 0 0 .448-.456.45.45 0 0 0-.457-.448m-35.703.04a.45.45 0 0 0-.46.445.45.45 0 0 0 .444.46.45.45 0 0 0 .459-.444.45.45 0 0 0-.443-.46m35.735 3.047a.45.45 0 0 0-.446.454.45.45 0 0 0 .456.448.45.45 0 0 0 .448-.456.45.45 0 0 0-.458-.446m-35.792.041a.45.45 0 0 0-.46.442v.002a.45.45 0 0 0 .444.457.45.45 0 0 0 .46-.443.45.45 0 0 0-.444-.457zm31.622 9.161a.45.45 0 0 0-.34.159.45.45 0 0 0 .05.635.45.45 0 0 0 .638-.048v-.002a.45.45 0 0 0-.05-.636.45.45 0 0 0-.298-.108m-27.43.075a.45.45 0 0 0-.29.129.45.45 0 0 0-.003.64.45.45 0 0 0 .638.003.45.45 0 0 0 .005-.637.45.45 0 0 0-.35-.136zm2.167 2.197a.45.45 0 0 0-.288.13.45.45 0 0 0-.003.638h-.003a.45.45 0 0 0 .64.003.45.45 0 0 0 .006-.639.45.45 0 0 0-.351-.132zm23.26.076a.45.45 0 0 0-.34.157.45.45 0 0 0 .049.637.45.45 0 0 0 .639-.05.45.45 0 0 0-.052-.637.45.45 0 0 0-.296-.107m-10.231 3.305a.45.45 0 0 0-.438.462.45.45 0 0 0 .465.44l-.001.002a.45.45 0 0 0 .44-.466.45.45 0 0 0-.466-.438m-3.085.087a.45.45 0 0 0-.438.464.45.45 0 0 0 .464.44.45.45 0 0 0 .438-.466.45.45 0 0 0-.464-.438"/>
    <circle cx="-5.732" cy="170.804" r=".706" fill="#fcd527"/>
    <path fill="#fcd527" d="M-5.987 177.081s-.377-.021-.745-.089c.218.303.403.633.403.633s-.824-.273-1.15-.544c-.325-.27-.743-1.018-.749-1.029h-.001v-.001h.002c.01 0 .852-.172 1.267-.101.418.071 1.163.516 1.163.516s-.37.076-.743.107c.29.236.553.508.553.508"/>
    <circle cx="-38.641" cy="170.708" r=".706" fill="#f9eb59"/>
    <path fill="#f9eb59" d="M-38.263 164.037s.233.298.496.563c-.373-.009-.75.025-.75.025s.692.525 1.1.64c.405.115 1.259.036 1.271.034l.002.001v-.002c-.006-.009-.341-.8-.635-1.101-.295-.305-1.084-.667-1.084-.667s.147.349.333.673c-.359-.105-.733-.168-.733-.168z"/>
    <path fill="#fffb9e" fill-opacity=".532" d="M-40.14 160.541c-2.158 3.112-3.307 6.721-3.312 10.408a18 18 0 0 0 .487 4.113c1.42-4.946 4.699-5.25 8.322-4.689l21.929 5.846c2.218 2.338 8.26-1.272 6.026 7.99 3.664-3.6 5.701-8.338 5.702-13.26a18 18 0 0 0-.842-5.42c-1.23 7.727-5.038 3.42-7.753 4.217l-25.062-3.968c-2.89.104-4.834-1.445-5.497-5.237"/>
    <ellipse cx="-22.219" cy="170.948" fill="url(#h)" rx="14.746" ry="13.509"/>
    <path fill="#da9b00" d="M-22.22 157.439a14.746 13.509 0 0 0-14.745 13.509 14.746 13.509 0 0 0 .084 1.352 14.746 13.509 0 0 1 14.662-12.16 14.746 13.509 0 0 1 14.668 12.12 14.746 13.509 0 0 0 .077-1.312 14.746 13.509 0 0 0-14.745-13.509"/>
    <ellipse cx="-22.219" cy="170.948" fill="none" rx="21.234" ry="19.453"/>
    <path fill="#f8f168" d="M-28.583 155.775s-.013.378.017.75a7 7 0 0 0-.591-.462s.192.847.43 1.198c.236.349.94.837.951.844v.002h.002v-.002c.004-.013.253-.832.223-1.252-.03-.423-.4-1.207-.4-1.207s-.112.361-.18.729c-.206-.311-.452-.6-.452-.6"/>
    <path fill="#fcd527" d="M-14.81 156.128s-.042.376-.125.74c.313-.204.652-.372.652-.372s-.312.81-.599 1.123c-.284.311-1.051.692-1.063.698v.001h-.002v-.002c-.001-.012-.13-.859-.04-1.27.09-.415.57-1.137.57-1.137s.059.373.072.747c.25-.278.535-.528.535-.528m8.814 8.645s-.262.273-.55.512c.373.028.745.1.745.1s-.74.454-1.158.529c-.415.074-1.256-.089-1.268-.091h-.002v-.001c.006-.01.418-.762.74-1.034.324-.275 1.145-.557 1.145-.557s-.181.332-.398.637c.368-.07.746-.095.746-.095"/>
    <path fill="#fec706" d="M-14.748 185.633s-.27-.264-.502-.558a7 7 0 0 1-.113.743s-.441-.748-.508-1.167c-.067-.416.11-1.255.113-1.267v-.002h.001c.009.006.755.431 1.021.758.268.329.536 1.154.536 1.154s-.329-.187-.63-.409c.064.369.082.747.082.747zm-14.492.157s.27-.265.503-.558c.034.372.113.742.113.742s.44-.747.508-1.167c.067-.416-.11-1.254-.113-1.266v-.002l-.001-.001c-.009.007-.755.432-1.022.758-.268.33-.536 1.154-.536 1.154s.33-.186.63-.408a7 7 0 0 0-.082.747z"/>
    <path fill="#fbde3d" d="M-38.091 177.862s.365-.095.713-.232c-.155.34-.272.7-.272.7s.755-.429 1.023-.758c.265-.327.53-1.143.534-1.155v-.002l-.001.001c-.01.002-.87-.003-1.263.147-.396.151-1.04.732-1.04.732s.378.003.75-.039a7 7 0 0 0-.445.606z"/>
    <circle cx="-22.219" cy="155.857" r=".706" fill="#f8f168"/>
    <circle cx="-10.704" cy="160.187" r=".706" fill="#fcd527"/>
    <circle cx="-10.479" cy="181.678" r=".706" fill="#fec706"/>
    <circle cx="-22.283" cy="186.136" r=".706" fill="#fec706"/>
    <circle cx="-33.734" cy="181.71" r=".706" fill="#fec706"/>
    <circle cx="-33.702" cy="160.059" r=".706" fill="#f8f168"/>
  </g>
</svg>