<svg xmlns:inkscape="http://www.inkscape.org/namespaces/inkscape" xmlns:sodipodi="http://sodipodi.sourceforge.net/DTD/sodipodi-0.dtd" xmlns:xlink="http://www.w3.org/1999/xlink" xmlns="http://www.w3.org/2000/svg" xmlns:svg="http://www.w3.org/2000/svg" width="170" height="170" viewBox="0 0 44.979165 44.979164" version="1.1" id="svg5" xml:space="preserve" sodipodi:docname="plate1.svg" inkscape:version="1.2 (dc2aedaf03, 2022-05-15)" style="&#10;    /* filter: drop-shadow(0 .6vw var(--gray-shadow)) brightness(50%) grayscale(100%); */&#10;    filter: drop-shadow(0 .6vw rgba(0, 0, 0, 0.2)) brightness(50%) grayscale(100%);&#10;"><sodipodi:namedview id="namedview9514" pagecolor="#ffffff" bordercolor="#000000" borderopacity="0.25" inkscape:showpageshadow="2" inkscape:pageopacity="0.0" inkscape:pagecheckerboard="0" inkscape:deskcolor="#d1d1d1" showgrid="false" inkscape:zoom="1.441536" inkscape:cx="29.482442" inkscape:cy="84.63195" inkscape:window-width="1366" inkscape:window-height="705" inkscape:window-x="-8" inkscape:window-y="-8" inkscape:window-maximized="1" inkscape:current-layer="svg5"/><defs id="defs2"><linearGradient id="linearGradient6705"><stop style="stop-color:#d69600;stop-opacity:1;" offset="0" id="stop6701"/><stop style="stop-color:#e35600;stop-opacity:1;" offset="1" id="stop6703"/></linearGradient><style id="style608">.cls-1{fill-opacity:0.8;fill:url(#linear-gradient);}.cls-2{fill:#61cbed;}.cls-3{fill:#0fafd2;}.cls-4{fill-opacity:0.9;fill:url(#linear-gradient-2);}.cls-5{fill:#04859b;opacity:0.5;}.cls-6{fill:none;stroke:#8e281d;stroke-miterlimit:10;stroke-width:12px;}.cls-7{fill:#f18221;}.cls-8{fill:#d25927;}.cls-9{fill:url(#linear-gradient-3);}.cls-10{fill:#fff;}.cls-11{fill:#414042;}</style><style id="style36590">.cls-1{fill:url(#linear-gradient);}.cls-2{fill:#f7941d;}.cls-3{fill:#ecf7fe;}.cls-4{fill:#f3b71c;}.cls-5{fill:#c7eaf7;}.cls-6{fill:#6eb8cc;}.cls-7{fill:#009444;}.cls-8{fill:#39b54a;}.cls-10,.cls-9{fill:#f47e20;}.cls-9{stroke:#f47e20;stroke-miterlimit:10;}.cls-11{fill:none;stroke:#f3b71c;stroke-linejoin:bevel;stroke-width:3px;}</style><linearGradient xlink:href="#linearGradient6705" id="linearGradient6707" x1="-37.203793" y1="170.53442" x2="-37.369663" y2="185.50153" gradientUnits="userSpaceOnUse"/></defs><g id="layer1" transform="translate(44.708799,-149.94455)"><g id="g68693" transform="matrix(3.1287511,0,0,3.1287511,-215.5658,-201.2206)"><path id="path68681" style="opacity:1;fill:none;stroke:#6c9999;stroke-width:0.802746;stroke-linecap:round;stroke-linejoin:round;stroke-dasharray:none;stroke-opacity:1" d="m 61.796734,112.73413 a 6.7865825,6.2173853 0 0 0 -6.78667,6.21719 6.7865825,6.2173853 0 0 0 0.009,0.22893 c -4e-5,6.9e-4 4e-5,0.001 0,0.002 -0.006,0.10521 -0.009,0.21154 -0.009,0.31884 0,3.43376 3.03854,6.61717 6.78667,6.61717 3.74812,0 6.78666,-3.18341 6.78666,-6.61717 0,-0.1096 -0.003,-0.21814 -0.009,-0.32556 a 6.7865825,6.2173853 0 0 0 0.009,-0.22428 6.7865825,6.2173853 0 0 0 -6.78666,-6.21719 z"/><path id="path68683" style="opacity:1;fill:#c5f7f7;stroke-width:1.64939;stroke-linecap:round;stroke-linejoin:round" d="m 68.583464,119.50127 c 0,3.43376 -3.03845,6.61729 -6.78658,6.61729 -3.74813,0 -6.78658,-3.18353 -6.78658,-6.61729 0,-3.43377 3.03846,-5.81748 6.78658,-5.81748 3.74812,0 6.78658,2.38371 6.78658,5.81748 z"/><ellipse style="opacity:1;fill:#ffffff;fill-opacity:1;stroke:none;stroke-width:1.64939;stroke-linecap:round;stroke-linejoin:round;stroke-dasharray:none;stroke-opacity:1" id="ellipse68685" cx="61.796902" cy="118.95129" rx="6.7865825" ry="6.2173853"/><ellipse style="opacity:1;fill:#d9fdfd;fill-opacity:0.486842;stroke:none;stroke-width:1.14541;stroke-linecap:round;stroke-linejoin:round;stroke-dasharray:none;stroke-opacity:1" id="ellipse68687" cx="61.796902" cy="118.95129" rx="4.7129045" ry="4.3176289"/><path id="path68689" style="opacity:1;fill:#c5f7f7;fill-opacity:0.484211;stroke:none;stroke-width:1.14541;stroke-linecap:round;stroke-linejoin:round;stroke-dasharray:none;stroke-opacity:1" d="m 61.796734,114.63348 a 4.7129045,4.3176287 0 0 0 -4.71289,4.31762 4.7129045,4.3176287 0 0 0 0.0269,0.43224 4.7129045,4.3176287 0 0 1 4.68602,-3.88633 4.7129045,4.3176287 0 0 1 4.68808,3.87354 4.7129045,4.3176287 0 0 0 0.0248,-0.41945 4.7129045,4.3176287 0 0 0 -4.71289,-4.31762 z"/><ellipse style="opacity:1;fill:none;fill-opacity:1;stroke:none;stroke-width:1.64939;stroke-linecap:round;stroke-linejoin:round;stroke-dasharray:none;stroke-opacity:1" id="ellipse68691" cx="61.796902" cy="118.95129" rx="6.7865825" ry="6.2173853"/></g></g></svg>