<svg xmlns:inkscape="http://www.inkscape.org/namespaces/inkscape" xmlns:sodipodi="http://sodipodi.sourceforge.net/DTD/sodipodi-0.dtd" xmlns:xlink="http://www.w3.org/1999/xlink" xmlns="http://www.w3.org/2000/svg" xmlns:svg="http://www.w3.org/2000/svg" width="170" height="170" viewBox="0 0 44.979165 44.979164" version="1.1" id="svg5" xml:space="preserve" sodipodi:docname="plate3.svg" inkscape:version="1.2 (dc2aedaf03, 2022-05-15)"><sodipodi:namedview id="namedview9979" pagecolor="#ffffff" bordercolor="#000000" borderopacity="0.25" inkscape:showpageshadow="2" inkscape:pageopacity="0.0" inkscape:pagecheckerboard="0" inkscape:deskcolor="#d1d1d1" showgrid="false" inkscape:zoom="3.0882353" inkscape:cx="63.952381" inkscape:cy="92.609524" inkscape:window-width="1366" inkscape:window-height="705" inkscape:window-x="-8" inkscape:window-y="-8" inkscape:window-maximized="1" inkscape:current-layer="layer1"/><defs id="defs2"><linearGradient id="linearGradient6705"><stop style="stop-color:#d69600;stop-opacity:1;" offset="0" id="stop6701"/><stop style="stop-color:#e35600;stop-opacity:1;" offset="1" id="stop6703"/></linearGradient><style id="style608">.cls-1{fill-opacity:0.8;fill:url(#linear-gradient);}.cls-2{fill:#61cbed;}.cls-3{fill:#0fafd2;}.cls-4{fill-opacity:0.9;fill:url(#linear-gradient-2);}.cls-5{fill:#04859b;opacity:0.5;}.cls-6{fill:none;stroke:#8e281d;stroke-miterlimit:10;stroke-width:12px;}.cls-7{fill:#f18221;}.cls-8{fill:#d25927;}.cls-9{fill:url(#linear-gradient-3);}.cls-10{fill:#fff;}.cls-11{fill:#414042;}</style><style id="style36590">.cls-1{fill:url(#linear-gradient);}.cls-2{fill:#f7941d;}.cls-3{fill:#ecf7fe;}.cls-4{fill:#f3b71c;}.cls-5{fill:#c7eaf7;}.cls-6{fill:#6eb8cc;}.cls-7{fill:#009444;}.cls-8{fill:#39b54a;}.cls-10,.cls-9{fill:#f47e20;}.cls-9{stroke:#f47e20;stroke-miterlimit:10;}.cls-11{fill:none;stroke:#f3b71c;stroke-linejoin:bevel;stroke-width:3px;}</style><linearGradient xlink:href="#linearGradient6705" id="linearGradient6707" x1="-37.203793" y1="170.53442" x2="-37.369663" y2="185.50153" gradientUnits="userSpaceOnUse"/></defs><g id="layer1" transform="translate(44.708799,-149.94455)"><g id="g19913" transform="matrix(3.1287512,0,0,3.1287512,95.173909,-263.90817)"><path id="path17232" style="fill:none;stroke:#16441f;stroke-width:0.802746;stroke-linecap:round;stroke-linejoin:round;stroke-dasharray:none;stroke-opacity:1" d="m -37.520756,132.7701 a 6.7865825,6.2173853 0 0 0 -6.78667,6.21719 6.7865825,6.2173853 0 0 0 0.009,0.22893 c -4e-5,6.9e-4 4e-5,0.001 0,0.002 -0.006,0.10521 -0.009,0.21154 -0.009,0.31884 0,3.43376 3.03854,6.61717 6.78667,6.61717 3.74812,0 6.78666,-3.18341 6.78666,-6.61717 0,-0.1096 -0.003,-0.21814 -0.009,-0.32556 a 6.7865825,6.2173853 0 0 0 0.009,-0.22428 6.7865825,6.2173853 0 0 0 -6.78666,-6.21719 z"/><path id="path17234" style="fill:#09851e;fill-opacity:1;stroke-width:1.64939;stroke-linecap:round;stroke-linejoin:round" d="m -30.734026,139.53724 c 0,3.43376 -3.03845,6.61729 -6.78658,6.61729 -3.74813,0 -6.78658,-3.18353 -6.78658,-6.61729 0,-3.43377 3.03846,-5.81748 6.78658,-5.81748 3.74812,0 6.78658,2.38371 6.78658,5.81748 z"/><ellipse style="fill:#63de6e;fill-opacity:1;stroke:none;stroke-width:1.64939;stroke-linecap:round;stroke-linejoin:round;stroke-dasharray:none;stroke-opacity:1" id="ellipse17236" cx="-37.520588" cy="138.98723" rx="6.7865825" ry="6.2173853"/><ellipse style="fill:none;fill-opacity:1;stroke:#5a8c2d;stroke-width:0.563298;stroke-linecap:round;stroke-linejoin:round;stroke-dasharray:none;stroke-opacity:1" id="ellipse1066" cx="-37.520588" cy="138.98723" rx="4.7129045" ry="4.3176289"/><path id="ellipse506" style="fill:#58771c;fill-opacity:0.789362;stroke:none;stroke-width:1.53411;stroke-linecap:round;stroke-linejoin:round;stroke-dasharray:none;stroke-opacity:1" d="m -37.520715,133.20436 a 6.3122328,5.7828202 0 0 0 -6.312106,5.78289 6.3122328,5.7828202 0 0 0 6.312106,5.78289 6.3122328,5.7828202 0 0 0 6.312106,-5.78289 6.3122328,5.7828202 0 0 0 -6.312106,-5.78289 z m 0,0.63602 a 5.6179539,5.1467711 0 0 1 5.617881,5.14687 5.6179539,5.1467711 0 0 1 -5.617881,5.14688 5.6179539,5.1467711 0 0 1 -5.617882,-5.14688 5.6179539,5.1467711 0 0 1 5.617882,-5.14687 z"/><path id="path17238" style="fill:#ffffff;fill-opacity:0.765789;stroke:none;stroke-width:0.264583;stroke-opacity:1" d="m -43.248626,135.66092 c -0.689706,0.99453 -1.056738,2.14813 -1.058333,3.32641 6.89e-4,0.44204 0.05283,0.88274 0.155546,1.31465 0.454059,-1.58088 1.501733,-1.67772 2.659786,-1.49862 l 7.008874,1.86862 c 0.708881,0.74724 2.640034,-0.40684 1.925981,2.55385 1.170995,-1.1507 1.822298,-2.6653 1.822628,-4.2385 -1.71e-4,-0.58614 -0.09081,-1.16931 -0.269235,-1.73219 -0.393016,2.46965 -1.610235,1.09302 -2.477884,1.34772 l -8.010364,-1.26814 c -0.923557,0.0334 -1.545068,-0.46183 -1.756999,-1.6738 z"/><ellipse style="fill:#3da646;fill-opacity:1;stroke:none;stroke-width:1.14541;stroke-linecap:round;stroke-linejoin:round;stroke-dasharray:none;stroke-opacity:1" id="ellipse17240" cx="-37.520588" cy="138.98723" rx="4.7129045" ry="4.3176289"/><path id="path17242" style="fill:#09851e;fill-opacity:1;stroke:none;stroke-width:1.14541;stroke-linecap:round;stroke-linejoin:round;stroke-dasharray:none;stroke-opacity:1" d="m -37.520756,134.66945 a 4.7129045,4.3176287 0 0 0 -4.71289,4.31762 4.7129045,4.3176287 0 0 0 0.0269,0.43224 4.7129045,4.3176287 0 0 1 4.68602,-3.88633 4.7129045,4.3176287 0 0 1 4.68808,3.87354 4.7129045,4.3176287 0 0 0 0.0248,-0.41945 4.7129045,4.3176287 0 0 0 -4.71289,-4.31762 z"/><ellipse style="fill:none;fill-opacity:1;stroke:none;stroke-width:1.64939;stroke-linecap:round;stroke-linejoin:round;stroke-dasharray:none;stroke-opacity:1" id="ellipse17244" cx="-37.520588" cy="138.98723" rx="6.7865825" ry="6.2173853"/></g></g></svg>