<svg xmlns:inkscape="http://www.inkscape.org/namespaces/inkscape" xmlns:sodipodi="http://sodipodi.sourceforge.net/DTD/sodipodi-0.dtd" xmlns="http://www.w3.org/2000/svg" xmlns:svg="http://www.w3.org/2000/svg" width="170" height="170" viewBox="0 0 44.979165 44.979164" version="1.1" id="svg5" xml:space="preserve" inkscape:version="1.2 (dc2aedaf03, 2022-05-15)" sodipodi:docname="plate4.svg" inkscape:export-filename="plate3.svg" inkscape:export-xdpi="96" inkscape:export-ydpi="96"><sodipodi:namedview id="namedview7" pagecolor="#505050" bordercolor="#ffffff" borderopacity="1" inkscape:showpageshadow="0" inkscape:pageopacity="0" inkscape:pagecheckerboard="1" inkscape:deskcolor="#505050" inkscape:document-units="px" showgrid="false" inkscape:zoom="0.59714111" inkscape:cx="-10.885199" inkscape:cy="172.48854" inkscape:window-width="1366" inkscape:window-height="705" inkscape:window-x="-8" inkscape:window-y="-8" inkscape:window-maximized="1" inkscape:current-layer="layer1"/><defs id="defs2"><style id="style608">.cls-1{fill-opacity:0.8;fill:url(#linear-gradient);}.cls-2{fill:#61cbed;}.cls-3{fill:#0fafd2;}.cls-4{fill-opacity:0.9;fill:url(#linear-gradient-2);}.cls-5{fill:#04859b;opacity:0.5;}.cls-6{fill:none;stroke:#8e281d;stroke-miterlimit:10;stroke-width:12px;}.cls-7{fill:#f18221;}.cls-8{fill:#d25927;}.cls-9{fill:url(#linear-gradient-3);}.cls-10{fill:#fff;}.cls-11{fill:#414042;}</style><style id="style36590">.cls-1{fill:url(#linear-gradient);}.cls-2{fill:#f7941d;}.cls-3{fill:#ecf7fe;}.cls-4{fill:#f3b71c;}.cls-5{fill:#c7eaf7;}.cls-6{fill:#6eb8cc;}.cls-7{fill:#009444;}.cls-8{fill:#39b54a;}.cls-10,.cls-9{fill:#f47e20;}.cls-9{stroke:#f47e20;stroke-miterlimit:10;}.cls-11{fill:none;stroke:#f3b71c;stroke-linejoin:bevel;stroke-width:3px;}</style></defs><g inkscape:label="Layer 1" inkscape:groupmode="layer" id="layer1" transform="translate(44.708799,-149.94455)"><g id="g19902" transform="matrix(3.1287512,0,0,3.1287512,95.173909,-318.89876)"><path id="path16632" style="fill:none;stroke:#41065e;stroke-width:0.802746;stroke-linecap:round;stroke-linejoin:round;stroke-dasharray:none;stroke-opacity:1" d="m -37.520756,150.34599 a 6.7865825,6.2173853 0 0 0 -6.78667,6.21719 6.7865825,6.2173853 0 0 0 0.009,0.22893 c -4e-5,6.9e-4 4e-5,0.001 0,0.002 -0.006,0.10521 -0.009,0.21154 -0.009,0.31884 0,3.43376 3.03854,6.61717 6.78667,6.61717 3.74812,0 6.78666,-3.18341 6.78666,-6.61717 0,-0.1096 -0.003,-0.21814 -0.009,-0.32556 a 6.7865825,6.2173853 0 0 0 0.009,-0.22428 6.7865825,6.2173853 0 0 0 -6.78666,-6.21719 z"/><path id="path16634" style="fill:#5b0985;fill-opacity:1;stroke-width:1.64939;stroke-linecap:round;stroke-linejoin:round" d="m -30.734026,157.11313 c 0,3.43376 -3.03845,6.61729 -6.78658,6.61729 -3.74813,0 -6.78658,-3.18353 -6.78658,-6.61729 0,-3.43377 3.03846,-5.81748 6.78658,-5.81748 3.74812,0 6.78658,2.38371 6.78658,5.81748 z" sodipodi:nodetypes="sssss"/><ellipse style="fill:#d563de;fill-opacity:1;stroke:none;stroke-width:1.64939;stroke-linecap:round;stroke-linejoin:round;stroke-dasharray:none;stroke-opacity:1" id="ellipse16636" cx="-37.520588" cy="156.56314" rx="6.7865825" ry="6.2173853"/><path id="ellipse2154" style="color:#000000;fill:#a22895;stroke-linecap:round;stroke-linejoin:round" d="m -39.005788,150.58689 c -0.0029,5e-5 -0.0059,3.7e-4 -0.0088,5.1e-4 -0.326125,0.0165 -0.577667,0.39342 -0.682129,0.7028 -0.02233,0.0661 -0.04639,0.15161 -0.05839,0.23668 -0.461988,-0.28258 -0.955188,-0.24798 -1.322917,5.2e-4 -0.38885,0.2628 -0.645209,0.74247 -0.666109,1.29863 -0.0126,0.33543 -0.02544,0.68073 -0.160197,0.94929 -0.06333,0.12622 -0.151857,0.24116 -0.286288,0.33797 0.02374,-0.0951 0.04977,-0.22057 0.08113,-0.30334 0.06039,-0.15948 0.294383,-0.32315 0.216008,-0.48008 -0.05852,-0.11706 -0.270383,-0.15236 -0.383439,-0.0863 -0.198576,0.11596 -0.233365,0.43367 -0.198438,0.66094 0.01464,0.0954 0.04992,0.23847 0.120923,0.30593 -0.05369,0.026 -0.113166,0.0496 -0.178284,0.0713 -0.01713,-0.13223 -0.04185,-0.2921 -0.04237,-0.40721 -0.0011,-0.24217 0.225659,-0.57805 0.04186,-0.74621 -0.137178,-0.12548 -0.435632,-0.0644 -0.551905,0.0806 -0.2042,0.25482 -0.08863,0.69317 0.07338,0.97668 0.03155,0.0552 0.07407,0.12199 0.123507,0.18294 -0.598586,0.11506 -0.976662,0.45428 -1.060917,0.89297 -0.0859,0.44725 0.12067,0.95304 0.562239,1.40663 0.268601,0.27591 0.549406,0.61863 0.670243,0.9431 0.008,0.0213 0.01546,0.0426 0.02222,0.0636 -0.05862,-0.0591 -0.122919,-0.12359 -0.164331,-0.17777 -0.103567,-0.13547 -0.118864,-0.4204 -0.293522,-0.43667 -0.130317,-0.0121 -0.271822,0.14922 -0.275435,0.28009 -0.0063,0.22986 0.244829,0.42697 0.456303,0.51728 0.08902,0.038 0.229745,0.084 0.324528,0.0589 0.0035,0.0664 -0.0028,0.13157 -0.01964,0.19586 -0.123851,-0.0568 -0.280828,-0.12324 -0.382922,-0.18604 -0.206263,-0.12689 -0.372003,-0.49678 -0.611849,-0.42943 -0.178981,0.0503 -0.28456,0.33627 -0.222725,0.5116 0.108637,0.30794 0.541845,0.44115 0.868164,0.4532 0.03968,0.001 0.0856,0.001 0.133325,-0.001 -0.01449,0.0143 -0.02895,0.0286 -0.04496,0.0429 -0.306371,0.27426 -0.338894,0.72217 -0.107487,1.0976 0.231405,0.37543 0.704831,0.69834 1.4118,0.84026 0.375581,0.0754 0.833863,0.0238 1.169954,0.11111 0.168045,0.0437 0.297907,0.11362 0.390674,0.23823 0.0334,0.0449 0.063,0.0991 0.08682,0.16381 -0.09573,-0.0302 -0.24991,-0.0654 -0.345715,-0.10542 -0.157341,-0.0658 -0.313352,-0.30506 -0.472839,-0.23203 -0.118973,0.0545 -0.161372,0.26512 -0.09922,0.38034 0.109184,0.20238 0.425376,0.2479 0.653707,0.22066 0.09375,-0.0112 0.233959,-0.0404 0.305407,-0.10594 0.0096,0.0544 0.0163,0.11477 0.01912,0.18139 -0.121447,0.0121 -0.256751,0.0262 -0.357601,0.0232 -0.242066,-0.007 -0.570385,-0.24517 -0.744658,-0.0672 -0.130038,0.13286 -0.07905,0.43338 0.06201,0.55449 0.247772,0.21269 0.68993,0.11202 0.978752,-0.0403 0.03225,-0.017 0.06866,-0.0371 0.10542,-0.0605 v 5.2e-4 c 0.09121,0.28189 0.32357,0.54474 0.660424,0.68058 0.449138,0.1811 1.078389,0.11443 1.783354,-0.42582 0.22413,-0.17177 0.486477,-0.37585 0.820105,-0.48421 0.07541,-0.0245 0.154892,-0.0442 0.238228,-0.0579 -0.02712,0.0218 -0.05339,0.0414 -0.07751,0.0574 -0.142345,0.0939 -0.427927,0.09 -0.456303,0.26303 -0.02112,0.12916 0.129635,0.28133 0.259932,0.29404 0.228869,0.0223 0.443493,-0.21442 0.548287,-0.4191 0.02942,-0.0574 0.06371,-0.13733 0.07803,-0.2129 0.0485,0.003 0.09811,0.008 0.149345,0.0155 -0.0534,0.0995 -0.110999,0.20555 -0.164331,0.28009 -0.140931,0.19694 -0.521277,0.33637 -0.470772,0.58032 0.03771,0.18204 0.315341,0.30736 0.494543,0.25787 0.314749,-0.0869 0.477923,-0.50989 0.512631,-0.83458 0.0059,-0.0551 0.01018,-0.122 0.0083,-0.19017 0.04934,0.0168 0.09971,0.0352 0.151412,0.0563 0.469597,0.19185 0.953479,0.25283 1.349271,0.0625 0.395792,-0.1903 0.658553,-0.6323 0.689364,-1.32653 0.02286,-0.51494 0.129976,-0.83709 0.277502,-1.05059 8.16e-4,0.0875 0.0024,0.18658 -0.0062,0.2589 -0.0202,0.16933 -0.207921,0.38437 -0.09405,0.5178 v 5.2e-4 c 0.085,0.0995 0.298916,0.0825 0.392741,-0.009 0.164794,-0.16038 0.12224,-0.47668 0.03359,-0.68885 -0.03429,-0.0821 -0.09505,-0.19951 -0.171049,-0.25528 0.04501,-0.04 0.09271,-0.075 0.143143,-0.10594 0.04728,0.12033 0.104922,0.2608 0.131775,0.3669 0.05941,0.23478 -0.07989,0.6154 0.13901,0.73433 v -5.2e-4 c 0.163365,0.0887 0.438862,-0.042 0.516764,-0.21084 0.136802,-0.2965 -0.0809,-0.69456 -0.306441,-0.93069 -0.03362,-0.0352 -0.0752,-0.0751 -0.120923,-0.11317 0.05948,-0.018 0.120527,-0.0347 0.183451,-0.0501 0.491242,-0.1206 0.92578,-0.52097 1.097608,-0.99219 0.08591,-0.2356 0.102317,-0.49437 0.0062,-0.73639 -0.09616,-0.24203 -0.303213,-0.45666 -0.623218,-0.60926 -0.46864,-0.22348 -0.555712,-0.47746 -0.552938,-0.80305 9.97e-4,-0.11585 0.01972,-0.23983 0.04444,-0.36846 0.03653,0.0755 0.0764,0.15849 0.09819,0.22376 0.05401,0.16174 -0.02351,0.43592 0.136426,0.50798 0.119345,0.0537 0.305521,-0.0526 0.3514,-0.17518 0.08057,-0.21538 -0.09334,-0.48313 -0.264067,-0.63717 -0.06817,-0.0616 -0.177732,-0.1448 -0.272335,-0.15917 0.01481,-0.0673 0.03004,-0.1347 0.04393,-0.20308 0.101139,0.0976 0.242819,0.22208 0.325045,0.32194 0.15393,0.18695 0.190011,0.59101 0.438733,0.60513 0.185611,0.0105 0.378839,-0.22544 0.377238,-0.41134 -0.0028,-0.32653 -0.369623,-0.59379 -0.674377,-0.71107 -0.115225,-0.0443 -0.290232,-0.0958 -0.421163,-0.0765 5.26e-4,-0.004 0.0016,-0.008 0.0021,-0.0124 0.0498,-0.4084 0.104257,-0.8672 -0.06615,-1.25006 -0.0852,-0.19142 -0.233147,-0.35945 -0.453202,-0.46457 -0.220057,-0.10512 -0.505351,-0.15057 -0.872815,-0.13126 -0.27443,0.0144 -0.571986,-0.0704 -0.845943,-0.22065 0.03765,8.1e-4 0.07304,0.003 0.103869,0.006 0.169291,0.0205 0.384185,0.2082 0.517798,0.0946 0.09965,-0.0848 0.08342,-0.29877 -0.0078,-0.39274 -0.160111,-0.16505 -0.47653,-0.12288 -0.688847,-0.0346 -0.06735,0.028 -0.158675,0.0738 -0.220142,0.13126 -0.04474,-0.0348 -0.08835,-0.071 -0.130224,-0.10904 0.117827,-0.0462 0.252677,-0.10023 0.355533,-0.12609 0.234867,-0.059 0.615038,0.0807 0.734322,-0.13798 0.089,-0.16322 -0.04165,-0.43859 -0.210323,-0.51676 -0.296279,-0.13729 -0.694194,0.0798 -0.930692,0.30489 -0.05963,0.0567 -0.133562,0.13604 -0.187586,0.22014 -0.06796,-0.0863 -0.128613,-0.1764 -0.177766,-0.26975 -0.312676,-0.59383 -0.751736,-0.92911 -1.214913,-0.9958 -0.463178,-0.0667 -0.929931,0.14073 -1.277442,0.55449 -0.375809,0.44746 -0.892653,0.68064 -1.392679,0.63096 0.0722,-0.0387 0.150385,-0.0806 0.212906,-0.10438 0.159352,-0.0607 0.436966,0.006 0.502295,-0.1571 0.04869,-0.12148 -0.06523,-0.30343 -0.189652,-0.34416 -0.218547,-0.0715 -0.479019,0.11342 -0.625802,0.29042 -0.05613,0.0677 -0.130814,0.17422 -0.146244,0.26665 -0.05744,-0.017 -0.114528,-0.0383 -0.170532,-0.0636 0.08675,-0.0999 0.18829,-0.2219 0.272851,-0.29766 0.180373,-0.1616 0.582276,-0.21496 0.586011,-0.46405 0.0028,-0.18299 -0.233573,-0.36301 -0.418062,-0.35967 z m 2.4722,0.339 c 0.04373,7e-5 0.08769,0.004 0.131258,0.01 0.348512,0.0502 0.707355,0.30458 0.988054,0.83768 0.372981,0.70836 1.188197,1.25204 1.973006,1.21078 0.333898,-0.0175 0.568274,0.0261 0.72657,0.1018 0.158297,0.0756 0.248164,0.17861 0.308509,0.31419 0.120689,0.27117 0.08995,0.68899 0.04082,1.09193 -0.04022,0.32979 -0.185711,0.72498 -0.189136,1.12706 -0.0034,0.40208 0.178611,0.81873 0.726571,1.08004 0.26806,0.12783 0.407812,0.28514 0.472322,0.44751 0.06451,0.16238 0.05624,0.34034 -0.0098,0.52142 -0.132062,0.36216 -0.510325,0.70856 -0.884701,0.80047 -0.309805,0.0761 -0.639794,0.18414 -0.896586,0.45733 -0.256791,0.27319 -0.423246,0.69789 -0.452685,1.36116 -0.02786,0.62769 -0.235892,0.93105 -0.517798,1.0666 -0.281907,0.13554 -0.683662,0.10198 -1.105359,-0.0703 -0.590579,-0.24127 -1.083871,-0.22429 -1.478462,-0.0961 -0.394592,0.12817 -0.689881,0.36145 -0.912089,0.53175 -0.647171,0.49595 -1.147521,0.52042 -1.484664,0.38448 -0.334063,-0.13471 -0.515542,-0.44956 -0.513664,-0.66973 v -5.2e-4 c 0.01105,-0.0355 0.01216,-0.0717 -5.17e-4,-0.108 -0.0066,-0.30662 -0.07724,-0.54252 -0.206189,-0.71572 -0.143052,-0.19214 -0.348508,-0.29526 -0.558622,-0.34985 -0.420226,-0.1092 -0.89374,-0.0566 -1.185974,-0.11524 -0.645299,-0.12953 -1.040532,-0.41918 -1.214396,-0.70125 -0.173864,-0.28207 -0.146116,-0.53462 0.05271,-0.71261 0.40195,-0.35983 0.439662,-0.8254 0.290938,-1.22473 -0.148724,-0.39934 -0.455366,-0.76036 -0.736389,-1.04904 -0.395374,-0.40614 -0.542949,-0.82451 -0.482658,-1.13843 0.06029,-0.31392 0.313415,-0.56575 0.851628,-0.65991 0.632387,-0.11063 0.992028,-0.39781 1.167887,-0.74827 0.175858,-0.35047 0.179238,-0.74013 0.19172,-1.07229 0.01764,-0.46943 0.237282,-0.86034 0.5333,-1.0604 0.296019,-0.20005 0.659756,-0.22946 1.058334,0.0486 0.790775,0.55168 1.819836,0.30342 2.445328,-0.44132 0.258323,-0.30758 0.564672,-0.45939 0.870748,-0.45888 z m -0.14211,0.28163 c -0.137342,0.003 -0.281107,0.0376 -0.290422,0.1602 -0.0034,0.0443 0.292092,0.16958 0.436149,0.27337 0.156119,0.11247 0.26544,0.41518 0.459404,0.37568 0.144756,-0.0295 0.245567,-0.25023 0.206706,-0.39274 -0.06828,-0.25031 -0.404078,-0.38086 -0.661975,-0.40927 -0.04343,-0.005 -0.09612,-0.009 -0.149862,-0.007 z m -0.426331,0.2372 c -0.04418,0.001 -0.08142,0.017 -0.100769,0.0579 -0.01341,0.0283 0.149061,0.1848 0.217558,0.28939 0.07424,0.11335 0.06975,0.34029 0.207223,0.36329 0.102588,0.0172 0.224157,-0.10224 0.234611,-0.20567 0.0183,-0.18179 -0.169405,-0.35288 -0.331763,-0.43667 -0.06076,-0.0314 -0.153222,-0.0701 -0.22686,-0.0682 z m -3.493843,0.40721 c -0.244275,0.009 -0.461282,0.26859 -0.567407,0.49196 -0.06671,0.1403 -0.15698,0.39796 0,0.46612 0.04073,0.0177 0.255748,-0.22036 0.401009,-0.32246 0.157419,-0.11065 0.47968,-0.11541 0.505912,-0.31161 0.01959,-0.14642 -0.155966,-0.313 -0.30334,-0.32298 -0.01214,-8.2e-4 -0.02416,-0.001 -0.03617,-0.001 z m -0.0031,0.72502 c -0.141188,0.004 -0.29554,0.0979 -0.396875,0.1943 -0.07933,0.0754 -0.203289,0.22201 -0.117305,0.30644 0.02234,0.022 0.223419,-0.0802 0.344682,-0.11059 0.131413,-0.033 0.344576,0.0453 0.411344,-0.077 0.04983,-0.0913 -0.02352,-0.2451 -0.117822,-0.28887 -0.03885,-0.018 -0.0808,-0.0256 -0.124024,-0.0243 z m 7.349422,0.63148 c -0.06616,0.002 -0.121903,0.0252 -0.148828,0.0863 -0.01794,0.0406 0.21901,0.2568 0.320394,0.40256 0.109872,0.15797 0.112958,0.47975 0.309025,0.50695 v 5.1e-4 c 0.14632,0.0203 0.313826,-0.15446 0.324528,-0.30179 0.01878,-0.25878 -0.254025,-0.49367 -0.487825,-0.60616 -0.08529,-0.0411 -0.214085,-0.0911 -0.317294,-0.0884 z m -0.353983,0.10646 c -0.02303,0.001 -0.04448,0.01 -0.06305,0.0284 -0.02205,0.0222 0.07919,0.2243 0.109038,0.34571 0.03235,0.13157 -0.04709,0.34398 0.07493,0.41135 0.09106,0.0503 0.245157,-0.0222 0.289388,-0.11627 0.07767,-0.16538 -0.04214,-0.38896 -0.167432,-0.52194 -0.05859,-0.0623 -0.16062,-0.15178 -0.242879,-0.14727 z m -9.272819,1.48053 c -0.0047,1.5e-4 -0.0094,5.8e-4 -0.01395,0.001 -0.258237,0.0251 -0.443769,0.334 -0.515214,0.58343 -0.04282,0.14933 -0.08954,0.4184 0.07648,0.45992 0.04309,0.0108 0.216044,-0.25944 0.342614,-0.38396 0.137164,-0.13494 0.454302,-0.19232 0.448035,-0.39016 -0.0046,-0.14303 -0.192553,-0.27515 -0.337964,-0.27026 z m 0.116789,0.71623 c -0.155172,0.004 -0.316353,0.13712 -0.410828,0.26252 -0.06591,0.0874 -0.163767,0.25273 -0.06511,0.32194 0.02564,0.018 0.207308,-0.11598 0.321944,-0.16588 0.124231,-0.0541 0.34692,-0.012 0.392741,-0.14366 0.03419,-0.0982 -0.0631,-0.23789 -0.163297,-0.26562 -0.02477,-0.007 -0.05006,-0.01 -0.07545,-0.009 z m 10.224181,1.32654 c -0.01154,5.5e-4 -0.02363,0.003 -0.03566,0.009 -0.02857,0.0128 -0.0065,0.2377 -0.02222,0.36174 -0.01702,0.13429 -0.166667,0.30413 -0.07751,0.41082 0.06712,0.0793 0.237166,0.0668 0.312126,-0.005 0.131865,-0.12647 0.09969,-0.37816 0.03049,-0.54725 -0.03686,-0.0902 -0.113252,-0.23397 -0.207223,-0.22944 z m 0.321945,0.0186 c -0.03271,0.002 -0.06354,0.0143 -0.08992,0.0408 -0.03134,0.0315 0.112731,0.31797 0.155029,0.49041 0.04584,0.18687 -0.0673,0.48869 0.105937,0.58446 0.129273,0.0715 0.348467,-0.0312 0.411344,-0.16484 0.110426,-0.23479 -0.05989,-0.55211 -0.237712,-0.74104 -0.08316,-0.0884 -0.22786,-0.21614 -0.344681,-0.20981 z m -9.568408,1.88154 c -0.09064,0.005 -0.192689,0.0897 -0.214457,0.17466 -0.04527,0.17701 0.115024,0.374 0.263033,0.48111 0.08862,0.0642 0.25516,0.15939 0.322461,0.0594 0.01749,-0.026 -0.119474,-0.20518 -0.171566,-0.31884 -0.05646,-0.12317 -0.0184,-0.34687 -0.150895,-0.39016 -0.01545,-0.005 -0.03179,-0.007 -0.04858,-0.006 z m -0.662492,0.0372 c -0.003,0 -0.0062,3.5e-4 -0.0093,5.1e-4 -0.147532,0.007 -0.279637,0.21038 -0.262516,0.35709 0.03009,0.25771 0.342493,0.4372 0.593246,0.50384 0.150125,0.04 0.419531,0.081 0.457853,-0.0858 0.01,-0.0433 -0.263233,-0.21071 -0.390157,-0.33487 -0.135402,-0.13244 -0.198608,-0.4408 -0.389124,-0.44079 z m 8.464083,1.31464 c -0.05541,-7e-4 -0.230634,0.0625 -0.338998,0.0775 -0.134212,0.0186 -0.336905,-0.0825 -0.416512,0.032 -0.05941,0.0854 -0.0038,0.24653 0.08527,0.30024 0.156475,0.0943 0.391203,-0.002 0.536402,-0.11317 0.08702,-0.0664 0.226209,-0.19875 0.149861,-0.29198 -0.0025,-0.003 -0.0081,-0.005 -0.01602,-0.005 z m 0.02739,0.27492 c -0.05866,0.006 -0.27853,0.19863 -0.424263,0.27905 -0.168462,0.093 -0.489108,0.0626 -0.536402,0.25477 -0.03531,0.14344 0.121219,0.32812 0.266651,0.35398 0.255455,0.0454 0.517155,-0.20177 0.65319,-0.42271 0.08149,-0.13226 0.19881,-0.37881 0.05013,-0.46354 -0.0024,-10e-4 -0.0054,-0.002 -0.0093,-0.002 z m -4.596618,0.62219 c -0.0042,1.3e-4 -0.0086,4.4e-4 -0.01292,0.001 v 5.2e-4 c -0.103066,0.014 -0.183437,0.16372 -0.162781,0.26561 0.03637,0.17905 0.266078,0.28692 0.445967,0.31885 0.107744,0.0192 0.299236,0.032 0.31626,-0.0873 0.0044,-0.031 -0.197114,-0.13226 -0.293522,-0.21187 -0.101219,-0.0836 -0.163641,-0.29101 -0.293005,-0.2868 z m -0.573092,0.32246 c -0.02514,9.9e-4 -0.05001,0.008 -0.07441,0.0212 -0.12953,0.071 -0.159946,0.31104 -0.08062,0.43564 0.139368,0.21885 0.498703,0.2446 0.753442,0.19533 0.152531,-0.0294 0.413346,-0.11015 0.375171,-0.27698 -0.0099,-0.0433 -0.329306,-0.0754 -0.497644,-0.13178 -0.156777,-0.0526 -0.322283,-0.24947 -0.47594,-0.24339 z"/><path id="path16638" style="fill:#ffffff;fill-opacity:0.492723;stroke:none;stroke-width:0.264583;stroke-opacity:1" d="m -43.248626,153.23681 c -0.689706,0.99453 -1.056738,2.14813 -1.058333,3.32641 6.89e-4,0.44204 0.05283,0.88274 0.155546,1.31465 0.454059,-1.58088 1.501733,-1.67772 2.659786,-1.49862 l 7.008874,1.86862 c 0.708881,0.74724 2.640034,-0.40684 1.925981,2.55385 1.170995,-1.1507 1.822298,-2.6653 1.822628,-4.2385 -1.71e-4,-0.58614 -0.09081,-1.16931 -0.269235,-1.73219 -0.393016,2.46965 -1.610235,1.09302 -2.477884,1.34772 l -8.010364,-1.26814 c -0.923557,0.0334 -1.545068,-0.46183 -1.756999,-1.6738 z" sodipodi:nodetypes="ccccccccccc"/><ellipse style="fill:#7c43a0;fill-opacity:1;stroke:none;stroke-width:1.14541;stroke-linecap:round;stroke-linejoin:round;stroke-dasharray:none;stroke-opacity:1" id="ellipse16640" cx="-37.520588" cy="156.56314" rx="4.7129045" ry="4.3176289"/><path id="path16642" style="fill:#5b0985;fill-opacity:1;stroke:none;stroke-width:1.14541;stroke-linecap:round;stroke-linejoin:round;stroke-dasharray:none;stroke-opacity:1" d="m -37.520756,152.24534 a 4.7129045,4.3176287 0 0 0 -4.71289,4.31762 4.7129045,4.3176287 0 0 0 0.0269,0.43224 4.7129045,4.3176287 0 0 1 4.68602,-3.88633 4.7129045,4.3176287 0 0 1 4.68808,3.87354 4.7129045,4.3176287 0 0 0 0.0248,-0.41945 4.7129045,4.3176287 0 0 0 -4.71289,-4.31762 z"/><ellipse style="fill:none;fill-opacity:1;stroke:none;stroke-width:1.64939;stroke-linecap:round;stroke-linejoin:round;stroke-dasharray:none;stroke-opacity:1" id="ellipse16644" cx="-37.520588" cy="156.56314" rx="6.7865825" ry="6.2173853"/></g></g></svg>