<svg xmlns:inkscape="http://www.inkscape.org/namespaces/inkscape" xmlns:sodipodi="http://sodipodi.sourceforge.net/DTD/sodipodi-0.dtd" xmlns="http://www.w3.org/2000/svg" xmlns:svg="http://www.w3.org/2000/svg" width="819.12439" height="197.18823" viewBox="0 0 216.72666 52.17272" version="1.1" id="svg5" xml:space="preserve" inkscape:version="1.4 (e7c3feb1, 2024-10-09)" sodipodi:docname="abilitiesBanner.svg" inkscape:export-filename="cafe new/upgrade5.png" inkscape:export-xdpi="96" inkscape:export-ydpi="96"><sodipodi:namedview id="namedview7" pagecolor="#505050" bordercolor="#ffffff" borderopacity="1" inkscape:showpageshadow="0" inkscape:pageopacity="0" inkscape:pagecheckerboard="1" inkscape:deskcolor="#505050" inkscape:document-units="px" showgrid="false" inkscape:zoom="0.52837551" inkscape:cx="264.01678" inkscape:cy="222.37972" inkscape:window-width="1472" inkscape:window-height="804" inkscape:window-x="0" inkscape:window-y="38" inkscape:window-maximized="0" inkscape:current-layer="layer1"><inkscape:page x="0" y="0" width="216.72665" height="52.172722" id="page2" margin="0" bleed="0"/></sodipodi:namedview><defs id="defs2"><style id="style608">.cls-1{fill-opacity:0.8;fill:url(#linear-gradient);}.cls-2{fill:#61cbed;}.cls-3{fill:#0fafd2;}.cls-4{fill-opacity:0.9;fill:url(#linear-gradient-2);}.cls-5{fill:#04859b;opacity:0.5;}.cls-6{fill:none;stroke:#8e281d;stroke-miterlimit:10;stroke-width:12px;}.cls-7{fill:#f18221;}.cls-8{fill:#d25927;}.cls-9{fill:url(#linear-gradient-3);}.cls-10{fill:#fff;}.cls-11{fill:#414042;}</style><style id="style36590">.cls-1{fill:url(#linear-gradient);}.cls-2{fill:#f7941d;}.cls-3{fill:#ecf7fe;}.cls-4{fill:#f3b71c;}.cls-5{fill:#c7eaf7;}.cls-6{fill:#6eb8cc;}.cls-7{fill:#009444;}.cls-8{fill:#39b54a;}.cls-10,.cls-9{fill:#f47e20;}.cls-9{stroke:#f47e20;stroke-miterlimit:10;}.cls-11{fill:none;stroke:#f3b71c;stroke-linejoin:bevel;stroke-width:3px;}</style><style id="style608-1">.cls-1{fill-opacity:0.8;fill:url(#linear-gradient);}.cls-2{fill:#61cbed;}.cls-3{fill:#0fafd2;}.cls-4{fill-opacity:0.9;fill:url(#linear-gradient-2);}.cls-5{fill:#04859b;opacity:0.5;}.cls-6{fill:none;stroke:#8e281d;stroke-miterlimit:10;stroke-width:12px;}.cls-7{fill:#f18221;}.cls-8{fill:#d25927;}.cls-9{fill:url(#linear-gradient-3);}.cls-10{fill:#fff;}.cls-11{fill:#414042;}</style><style id="style36590-3">.cls-1{fill:url(#linear-gradient);}.cls-2{fill:#f7941d;}.cls-3{fill:#ecf7fe;}.cls-4{fill:#f3b71c;}.cls-5{fill:#c7eaf7;}.cls-6{fill:#6eb8cc;}.cls-7{fill:#009444;}.cls-8{fill:#39b54a;}.cls-10,.cls-9{fill:#f47e20;}.cls-9{stroke:#f47e20;stroke-miterlimit:10;}.cls-11{fill:none;stroke:#f3b71c;stroke-linejoin:bevel;stroke-width:3px;}</style></defs><g inkscape:label="Layer 1" inkscape:groupmode="layer" id="layer1" transform="translate(183.04596,-529.82422)"><path id="path9" style="fill:#57006a;stroke-linecap:round;stroke-linejoin:round;fill-opacity:1" d="M -183.04579,529.82422 V 569.0704 H -42.5076 l 25.388631,12.62662 a 2.8691219,2.8691219 0 0 0 1.295528,0.29973 h 0.0088 a 2.8691219,2.8691219 0 0 0 1.291394,-0.31885 l 21.8844526,-11.30887 23.6838254,-1.9296 a 2.8691219,2.8691219 0 0 0 1.888774,-4.78885 L 21.51383,551.09786 28.23435,539.33423 a 2.8691219,2.8691219 0 0 0 -2.691309,-4.28552 L 2.5997241,536.6698 a 2.8691219,2.8691219 0 0 0 -0.8924519,0.21084 l -14.1293702,5.83995 -25.402067,-12.59768 a 2.8691219,2.8691219 0 0 0 -1.275374,-0.29869 z m 1.79214,5.73815 h 141.482317 l 25.966891,12.87725 a 2.8691219,2.8691219 0 0 0 2.370914,0.0801 l 14.9024497,-6.15828 17.1188513,-1.20923 -5.091678,8.91057 a 2.8691219,2.8691219 0 0 0 0.368969,3.35535 l 8.896615,9.77718 -18.4391847,1.50223 a 2.8691219,2.8691219 0 0 0 -1.0841715,0.31006 l -21.1036218,10.90476 -24.691516,-12.27935 a 2.8691219,2.8691219 0 0 0 -1.276924,-0.30076 H -181.25365 Z"/><path id="rect66655" style="fill:#f73f62;stroke-width:2.06747;stroke-linecap:round;stroke-linejoin:round;fill-opacity:1" d="m -183.04579,532.69278 v 33.50751 h 141.212051 l 25.992728,12.9279 22.3960492,-11.57242 24.2569168,-1.97559 -12.82454,-14.09372 7.756633,-13.5754 -22.9412355,1.62109 -15.3323975,6.33657 -26.568921,-13.17594 z"/><path id="path12" style="fill:#fa859b;fill-opacity:1;stroke:none;stroke-width:1.53641;stroke-linejoin:round;stroke-dasharray:none;stroke-opacity:1" d="m -144.11535,532.69278 c -5.33373,15.16164 -24.67354,21.95662 -38.93044,31.78772 v 1.72031 h 29.76356 c 0.6453,-14.11772 18.37573,-23.23078 32.13085,-33.50803 z"/><path id="path3" style="fill:#d33b77;fill-opacity:1;stroke-width:0.811245;stroke-linejoin:round" d="m -39.331891,532.69307 c 0.903171,11.61198 1.193634,23.07078 -2.397256,33.55924 l 25.888014,12.87586 0.871169,-0.45008 1.00081,-33.52321 -25.129677,-12.46181 z" sodipodi:nodetypes="ccccccc"/><path id="path2" style="fill:#aa3890;fill-opacity:1;stroke-width:0.811245;stroke-linejoin:round" d="m -18.556845,542.87984 c 1.423241,5.74417 2.531437,11.67198 2.559421,17.50585 0.02035,4.24182 -2.959246,11.0991 -5.387948,15.98523 l 5.544239,2.75725 11.3176389,-5.84783 c -2.3360818,-4.17434 -5.0543757,-9.70861 -5.5532499,-13.64046 -0.557852,-4.39661 1.2921114,-11.64336 2.5253491,-15.82855 l -4.9782311,2.05763 z"/><path id="path5" style="fill:#fa859b;fill-opacity:1;stroke-width:0.811245;stroke-linejoin:round" d="m -44.359797,532.69307 c 9.163173,12.84703 5.947826,23.48361 -0.698419,33.50753 h 3.224872 l 5.431039,2.70123 c 1.500223,-11.52969 1.910872,-23.05937 0.569941,-34.58905 l -3.266467,-1.61971 z" sodipodi:nodetypes="ccccccc"/><path id="path13" style="fill:#fa859b;fill-opacity:1;stroke:none;stroke-width:1.35796;stroke-linejoin:round;stroke-dasharray:none;stroke-opacity:1" d="m 25.744108,537.91097 -22.9413369,1.62106 -0.1033932,0.0429 c 0,0 8.9867641,0.1222 10.9144111,3.41045 2.126397,3.62726 2.080066,8.86422 -2.598373,12.34326 l 17.096434,10.4717 2.700433,-0.22003 -12.824865,-14.09378 z" sodipodi:nodetypes="cccaccccc"/><path id="path7" style="fill:#d33b77;fill-opacity:1;stroke-width:0.811245;stroke-linejoin:round" d="m 3.214711,539.50293 -0.4120767,0.029 -15.3322603,6.33705 -0.401107,-0.19898 v 16.99663 l 6.5250768,11.58596 12.9604654,-6.69666 1.4207272,-0.11555 C 2.6335526,558.56964 1.5831619,549.19404 3.214711,539.50293 Z" sodipodi:nodetypes="ccccccccc"/><path id="path8" style="fill:#aa3890;stroke-linecap:round;stroke-linejoin:round;fill-opacity:1" d="m -183.04579,531.66028 v 2.06603 h 143.703888 l 26.35343,13.06845 a 1.0338384,1.0338384 0 0 0 0.853695,0.0295 l 15.1778849,-6.27352 20.8457561,-1.47278 -6.799068,11.89695 a 1.0338384,1.0338384 0 0 0 0.132808,1.20664 L 28.63276,564.7208 6.4708057,566.52534 a 1.0338384,1.0338384 0 0 0 -0.3906739,0.11162 l -21.9299278,11.33161 -25.523506,-12.69328 a 1.0338384,1.0338384 0 0 0 -0.460437,-0.10904 H -183.04579 v 2.06809 h 140.969688 l 25.775171,12.81834 a 1.0338384,1.0338384 0 0 0 0.933793,-0.006 l 22.2125978,-11.4763 24.0512452,-1.95906 a 1.0338384,1.0338384 0 0 0 0.679545,-1.72651 L 19.257622,551.34745 26.642701,538.4237 a 1.0338384,1.0338384 0 0 0 -0.971,-1.54461 l -22.9412355,1.62109 a 1.0338384,1.0338384 0 0 0 -0.3224609,0.076 l -14.8983156,6.15828 -26.148274,-12.96665 a 1.0338384,1.0338384 0 0 0 -0.460954,-0.10749 z"/></g></svg>