<svg xmlns:inkscape="http://www.inkscape.org/namespaces/inkscape" xmlns:sodipodi="http://sodipodi.sourceforge.net/DTD/sodipodi-0.dtd" xmlns="http://www.w3.org/2000/svg" xmlns:svg="http://www.w3.org/2000/svg" width="508.37894" height="125.6172" viewBox="0 0 134.50859 33.236221" version="1.1" id="svg5" xml:space="preserve" inkscape:version="1.4 (e7c3feb1, 2024-10-09)" sodipodi:docname="abilitiesMoney.svg" inkscape:export-filename="cafe new/upgrade5.png" inkscape:export-xdpi="96" inkscape:export-ydpi="96"><sodipodi:namedview id="namedview7" pagecolor="#505050" bordercolor="#ffffff" borderopacity="1" inkscape:showpageshadow="0" inkscape:pageopacity="0" inkscape:pagecheckerboard="1" inkscape:deskcolor="#505050" inkscape:document-units="px" showgrid="false" inkscape:zoom="0.91126377" inkscape:cx="413.71117" inkscape:cy="14.814591" inkscape:window-width="1472" inkscape:window-height="804" inkscape:window-x="0" inkscape:window-y="38" inkscape:window-maximized="0" inkscape:current-layer="layer1"><inkscape:page x="0" y="0" width="134.50859" height="33.236221" id="page2" margin="0" bleed="0"/></sodipodi:namedview><defs id="defs2"><style id="style608">.cls-1{fill-opacity:0.8;fill:url(#linear-gradient);}.cls-2{fill:#61cbed;}.cls-3{fill:#0fafd2;}.cls-4{fill-opacity:0.9;fill:url(#linear-gradient-2);}.cls-5{fill:#04859b;opacity:0.5;}.cls-6{fill:none;stroke:#8e281d;stroke-miterlimit:10;stroke-width:12px;}.cls-7{fill:#f18221;}.cls-8{fill:#d25927;}.cls-9{fill:url(#linear-gradient-3);}.cls-10{fill:#fff;}.cls-11{fill:#414042;}</style><style id="style36590">.cls-1{fill:url(#linear-gradient);}.cls-2{fill:#f7941d;}.cls-3{fill:#ecf7fe;}.cls-4{fill:#f3b71c;}.cls-5{fill:#c7eaf7;}.cls-6{fill:#6eb8cc;}.cls-7{fill:#009444;}.cls-8{fill:#39b54a;}.cls-10,.cls-9{fill:#f47e20;}.cls-9{stroke:#f47e20;stroke-miterlimit:10;}.cls-11{fill:none;stroke:#f3b71c;stroke-linejoin:bevel;stroke-width:3px;}</style><style id="style608-1">.cls-1{fill-opacity:0.8;fill:url(#linear-gradient);}.cls-2{fill:#61cbed;}.cls-3{fill:#0fafd2;}.cls-4{fill-opacity:0.9;fill:url(#linear-gradient-2);}.cls-5{fill:#04859b;opacity:0.5;}.cls-6{fill:none;stroke:#8e281d;stroke-miterlimit:10;stroke-width:12px;}.cls-7{fill:#f18221;}.cls-8{fill:#d25927;}.cls-9{fill:url(#linear-gradient-3);}.cls-10{fill:#fff;}.cls-11{fill:#414042;}</style><style id="style36590-3">.cls-1{fill:url(#linear-gradient);}.cls-2{fill:#f7941d;}.cls-3{fill:#ecf7fe;}.cls-4{fill:#f3b71c;}.cls-5{fill:#c7eaf7;}.cls-6{fill:#6eb8cc;}.cls-7{fill:#009444;}.cls-8{fill:#39b54a;}.cls-10,.cls-9{fill:#f47e20;}.cls-9{stroke:#f47e20;stroke-miterlimit:10;}.cls-11{fill:none;stroke:#f3b71c;stroke-linejoin:bevel;stroke-width:3px;}</style></defs><g inkscape:label="Layer 1" inkscape:groupmode="layer" id="layer1" transform="translate(20.257993,-688.57415)"><path id="path15" style="fill:#57006a;stroke-linejoin:round;fill-opacity:1" d="m -16.537287,688.57415 a 3.0040903,3.0040903 0 0 0 -2.667537,4.38681 l 6.367053,12.28504 -7.014042,12.05095 a 3.0040903,3.0040903 0 0 0 -0.406177,1.5012 v 0.004 a 3.0040903,3.0040903 0 0 0 3.003951,3.00809 H 114.2506 v -33.23622 z m 4.939751,6.0079 H 112.38456 v 21.22093 H -12.031102 l 5.2146692,-8.96328 a 3.0040903,3.0040903 0 0 0 0.072347,-2.89233 z"/><path id="rect14" style="fill:#f73f62;stroke-width:1.24512;stroke-linejoin:round;fill-opacity:1" d="m -16.537804,691.5781 7.1256639,13.7511 -7.8424159,13.47773 H 114.2506 V 691.5781 Z"/><path id="path16" style="fill:#fa859b;fill-opacity:1;stroke:none;stroke-width:0.285301;stroke-linejoin:round;stroke-dasharray:none;stroke-opacity:1" d="m -16.537902,691.57804 7.125838,13.75132 -7.842211,13.47754 h 2.346627 l 11.8891728,-13.71825 c 0,0 -5.8727351,-4.3352 -5.0485655,-7.1276 0.7545575,-2.55654 4.8272998,-2.37111 7.42472644,-2.96998 C 14.623037,691.47148 46.231097,691.57804 46.231097,691.57804 Z" sodipodi:nodetypes="cccccaacc"/><path id="path14" style="fill:#aa3890;stroke-linejoin:round;fill-opacity:1" d="m -16.537287,690.44742 a 1.1304881,1.1304881 0 0 0 -1.003556,1.65003 l 6.839893,13.20126 -7.529774,12.93978 a 1.1304881,1.1304881 0 0 0 0.976685,1.69912 H 114.2506 v -2.26188 H -15.289301 l 6.8538455,-11.77706 a 1.1304881,1.1304881 0 0 0 0.027388,-1.08985 L -14.67952,692.70878 H 114.2506 v -2.26136 z"/></g></svg>