<svg xmlns:inkscape="http://www.inkscape.org/namespaces/inkscape" xmlns:sodipodi="http://sodipodi.sourceforge.net/DTD/sodipodi-0.dtd" xmlns="http://www.w3.org/2000/svg" xmlns:svg="http://www.w3.org/2000/svg" width="631.93896" height="676.56915" viewBox="0 0 167.20051 179.00892" version="1.1" id="svg5" xml:space="preserve" inkscape:version="1.4 (e7c3feb1, 2024-10-09)" sodipodi:docname="upgradeshopsvg3.svg" inkscape:export-filename="cafe new/upgrade5.png" inkscape:export-xdpi="96" inkscape:export-ydpi="96"><sodipodi:namedview id="namedview7" pagecolor="#505050" bordercolor="#ffffff" borderopacity="1" inkscape:showpageshadow="0" inkscape:pageopacity="0" inkscape:pagecheckerboard="1" inkscape:deskcolor="#505050" inkscape:document-units="px" showgrid="false" inkscape:zoom="0.32648752" inkscape:cx="728.9712" inkscape:cy="705.99942" inkscape:window-width="1472" inkscape:window-height="804" inkscape:window-x="0" inkscape:window-y="38" inkscape:window-maximized="0" inkscape:current-layer="layer1"><inkscape:page x="0" y="0" width="167.20052" height="179.00893" id="page2" margin="0" bleed="0"/></sodipodi:namedview><defs id="defs2"><style id="style608">.cls-1{fill-opacity:0.8;fill:url(#linear-gradient);}.cls-2{fill:#61cbed;}.cls-3{fill:#0fafd2;}.cls-4{fill-opacity:0.9;fill:url(#linear-gradient-2);}.cls-5{fill:#04859b;opacity:0.5;}.cls-6{fill:none;stroke:#8e281d;stroke-miterlimit:10;stroke-width:12px;}.cls-7{fill:#f18221;}.cls-8{fill:#d25927;}.cls-9{fill:url(#linear-gradient-3);}.cls-10{fill:#fff;}.cls-11{fill:#414042;}</style><style id="style36590">.cls-1{fill:url(#linear-gradient);}.cls-2{fill:#f7941d;}.cls-3{fill:#ecf7fe;}.cls-4{fill:#f3b71c;}.cls-5{fill:#c7eaf7;}.cls-6{fill:#6eb8cc;}.cls-7{fill:#009444;}.cls-8{fill:#39b54a;}.cls-10,.cls-9{fill:#f47e20;}.cls-9{stroke:#f47e20;stroke-miterlimit:10;}.cls-11{fill:none;stroke:#f3b71c;stroke-linejoin:bevel;stroke-width:3px;}</style><style id="style608-1">.cls-1{fill-opacity:0.8;fill:url(#linear-gradient);}.cls-2{fill:#61cbed;}.cls-3{fill:#0fafd2;}.cls-4{fill-opacity:0.9;fill:url(#linear-gradient-2);}.cls-5{fill:#04859b;opacity:0.5;}.cls-6{fill:none;stroke:#8e281d;stroke-miterlimit:10;stroke-width:12px;}.cls-7{fill:#f18221;}.cls-8{fill:#d25927;}.cls-9{fill:url(#linear-gradient-3);}.cls-10{fill:#fff;}.cls-11{fill:#414042;}</style><style id="style36590-3">.cls-1{fill:url(#linear-gradient);}.cls-2{fill:#f7941d;}.cls-3{fill:#ecf7fe;}.cls-4{fill:#f3b71c;}.cls-5{fill:#c7eaf7;}.cls-6{fill:#6eb8cc;}.cls-7{fill:#009444;}.cls-8{fill:#39b54a;}.cls-10,.cls-9{fill:#f47e20;}.cls-9{stroke:#f47e20;stroke-miterlimit:10;}.cls-11{fill:none;stroke:#f3b71c;stroke-linejoin:bevel;stroke-width:3px;}</style><clipPath clipPathUnits="userSpaceOnUse" id="clipPath52"><rect style="opacity:1;fill:#d0e8e4;fill-opacity:1;stroke-width:2.8575;stroke-linejoin:round;stroke-opacity:0.352941" id="rect52" width="176.06517" height="202.1543" x="256.47293" y="112.1207" transform="scale(-1,1)"/></clipPath></defs><g inkscape:label="Layer 1" inkscape:groupmode="layer" id="layer1" transform="translate(236.56333,-164.26562)"><g id="g6" transform="translate(195.97478,29.936725)" clip-path="url(#clipPath52)"><rect style="fill:#d0e8e4;fill-opacity:1;stroke:none;stroke-width:0.334433;stroke-linejoin:round;stroke-dasharray:none;stroke-opacity:1" id="rect35" width="39.6875" height="21.896551" x="-445.64981" y="236.05165" ry="1.8247126" sodipodi:type="rect"/><rect style="fill:#eabdba;fill-opacity:1;stroke:none;stroke-width:0.334433;stroke-linejoin:round;stroke-dasharray:none;stroke-opacity:1" id="rect36" width="39.6875" height="21.896551" x="-445.64981" y="233.93495" ry="1.8247126" sodipodi:type="rect"/><rect style="fill:#d0e8e4;fill-opacity:1;stroke:none;stroke-width:0.334433;stroke-linejoin:round;stroke-dasharray:none;stroke-opacity:1" id="rect76" width="39.6875" height="21.896551" x="-383.64597" y="263.06763" ry="1.8247126" sodipodi:type="rect"/><rect style="fill:#eabdba;fill-opacity:1;stroke:none;stroke-width:0.334433;stroke-linejoin:round;stroke-dasharray:none;stroke-opacity:1" id="rect77" width="39.6875" height="21.896551" x="-383.64597" y="260.95093" ry="1.8247126" sodipodi:type="rect"/><rect style="fill:#d0e8e4;fill-opacity:1;stroke:none;stroke-width:0.334433;stroke-linejoin:round;stroke-dasharray:none;stroke-opacity:1" id="rect32" width="39.6875" height="21.896551" x="-427.58569" y="136.4456" ry="1.8247126" sodipodi:type="rect"/><rect style="fill:#eabdba;fill-opacity:1;stroke:none;stroke-width:0.334433;stroke-linejoin:round;stroke-dasharray:none;stroke-opacity:1" id="rect33" width="39.6875" height="21.896551" x="-427.58569" y="134.3289" ry="1.8247126" sodipodi:type="rect"/><rect style="fill:#d0e8e4;fill-opacity:1;stroke:none;stroke-width:0.334433;stroke-linejoin:round;stroke-dasharray:none;stroke-opacity:1" id="rect37" width="39.6875" height="21.896551" x="-445.70917" y="289.03094" ry="1.8247126" sodipodi:type="rect"/><rect style="fill:#f9cab5;fill-opacity:1;stroke:none;stroke-width:0.334433;stroke-linejoin:round;stroke-dasharray:none;stroke-opacity:1" id="rect38" width="39.6875" height="21.896551" x="-445.70917" y="286.91425" ry="1.8247126" sodipodi:type="rect"/><rect style="fill:#d0e8e4;fill-opacity:1;stroke:none;stroke-width:0.334433;stroke-linejoin:round;stroke-dasharray:none;stroke-opacity:1" id="rect45" width="39.6875" height="21.896551" x="-416.47876" y="198.23959" ry="1.8247126" sodipodi:type="rect"/><rect style="fill:#f9cab5;fill-opacity:1;stroke:none;stroke-width:0.334433;stroke-linejoin:round;stroke-dasharray:none;stroke-opacity:1" id="rect46" width="39.6875" height="21.896551" x="-416.47876" y="196.12289" ry="1.8247126" sodipodi:type="rect"/><rect style="fill:#d0e8e4;fill-opacity:1;stroke:none;stroke-width:0.334433;stroke-linejoin:round;stroke-dasharray:none;stroke-opacity:1" id="rect39" width="39.6875" height="21.896551" x="-305.02509" y="291.44128" ry="1.8247126" sodipodi:type="rect"/><rect style="fill:#f9cab5;fill-opacity:1;stroke:none;stroke-width:0.334433;stroke-linejoin:round;stroke-dasharray:none;stroke-opacity:1" id="rect40" width="39.6875" height="21.896551" x="-305.02509" y="289.32458" ry="1.8247126" sodipodi:type="rect"/><rect style="fill:#d0e8e4;fill-opacity:1;stroke:none;stroke-width:0.334433;stroke-linejoin:round;stroke-dasharray:none;stroke-opacity:1" id="rect19" width="39.6875" height="21.896551" x="-459.40118" y="210.57979" ry="1.8247126" sodipodi:type="rect"/><rect style="fill:#f9cab5;fill-opacity:1;stroke:none;stroke-width:0.334433;stroke-linejoin:round;stroke-dasharray:none;stroke-opacity:1" id="rect20" width="39.6875" height="21.896551" x="-459.40118" y="208.46309" ry="1.8247126" sodipodi:type="rect"/><rect style="fill:#d0e8e4;fill-opacity:1;stroke:none;stroke-width:0.334433;stroke-linejoin:round;stroke-dasharray:none;stroke-opacity:1" id="rect21" width="39.6875" height="21.896551" x="-431.60706" y="262.65326" ry="1.8247126" sodipodi:type="rect"/><rect style="fill:#eabdba;fill-opacity:1;stroke:none;stroke-width:0.334433;stroke-linejoin:round;stroke-dasharray:none;stroke-opacity:1" id="rect22" width="39.6875" height="21.896551" x="-431.60706" y="260.53656" ry="1.8247126" sodipodi:type="rect"/><path style="fill:#d0e8e4;fill-opacity:1;stroke:none;stroke-width:0.568417;stroke-linejoin:round;stroke-dasharray:none;stroke-opacity:1" d="m -369.17941,243.69582 c -0.0772,2.70612 2.28612,7.77529 2.28612,7.77529 0,0 1.65843,-4.66734 1.75498,-7.11038 0.10948,-2.76986 -1.34703,-8.20061 -1.34703,-8.20061 0,0 -2.6177,4.86108 -2.69407,7.5357 z" id="path27" sodipodi:nodetypes="acaca"/><path style="fill:#d0e8e4;fill-opacity:1;stroke:none;stroke-width:0.796688;stroke-linejoin:round;stroke-dasharray:none;stroke-opacity:1" d="m -363.79127,234.77709 c -6.61222,-0.23382 -19.75648,1.9593 -19.75648,1.9593 0,0 12.24064,1.87421 18.40945,1.95927 5.55351,0.0765 16.6134,-1.30619 16.6134,-1.30619 0,0 -10.11044,-2.43005 -15.26637,-2.61238 z" id="path29" sodipodi:nodetypes="acaca"/><path style="fill:#d0e8e4;fill-opacity:1;stroke:none;stroke-width:0.796688;stroke-linejoin:round;stroke-dasharray:none;stroke-opacity:1" d="m -364.01578,248.60732 c -6.61222,-0.23382 -19.75648,1.9593 -19.75648,1.9593 0,0 12.24065,1.87421 18.40945,1.95927 5.55351,0.0765 16.6134,-1.30619 16.6134,-1.30619 0,0 -10.11044,-2.43005 -15.26637,-2.61238 z" id="path28" sodipodi:nodetypes="acaca"/><path style="fill:#d0e8e4;fill-opacity:1;stroke:none;stroke-width:0.513957;stroke-linejoin:round;stroke-dasharray:none;stroke-opacity:1" d="m -423.62554,174.69297 c -0.061,2.8032 1.80432,8.05419 1.80432,8.05419 0,0 1.30892,-4.83476 1.38512,-7.36543 0.0864,-2.86921 -1.06314,-8.49476 -1.06314,-8.49476 0,0 -2.06603,5.03545 -2.1263,7.806 z" id="path33" sodipodi:nodetypes="acaca"/><path style="fill:#d0e8e4;fill-opacity:1;stroke:none;stroke-width:0.506285;stroke-linejoin:round;stroke-dasharray:none;stroke-opacity:1" d="m -424.25102,167.06195 c -3.7293,-0.16743 -11.14267,1.40293 -11.14267,1.40293 0,0 6.90373,1.34206 10.38294,1.40291 0.94461,0.0165 3.76238,0.0494 3.7559,-1.09363 l -0.005,-0.86402 c -0.005,-0.97333 -2.1902,-0.81222 -2.99128,-0.84819 z" id="path34" sodipodi:nodetypes="scsssss"/><path style="fill:#d0e8e4;fill-opacity:1;stroke:none;stroke-width:0.648818;stroke-linejoin:round;stroke-dasharray:none;stroke-opacity:1" d="m -417.52572,180.31123 c 6.12466,-0.16743 18.29971,1.40293 18.29971,1.40293 0,0 -11.33806,1.34206 -17.052,1.4029 -1.55134,0.0165 -6.179,0.0494 -6.16836,-1.09363 l 0.008,-0.86401 c 0.009,-0.97334 3.597,-0.81222 4.91261,-0.84819 z" id="path35" sodipodi:nodetypes="scsssss"/><path style="fill:#d0e8e4;fill-opacity:1;stroke:none;stroke-width:0.568417;stroke-linejoin:round;stroke-dasharray:none;stroke-opacity:1" d="m -336.52483,300.92213 c -0.0773,2.70612 2.28611,7.77529 2.28611,7.77529 0,0 1.65843,-4.66734 1.75499,-7.11038 0.10947,-2.76986 -1.34704,-8.20061 -1.34704,-8.20061 0,0 -2.6177,4.86108 -2.69406,7.5357 z" id="path30" sodipodi:nodetypes="acaca"/><path style="fill:#d0e8e4;fill-opacity:1;stroke:none;stroke-width:0.796688;stroke-linejoin:round;stroke-dasharray:none;stroke-opacity:1" d="m -331.1367,292.0034 c -6.61222,-0.23382 -19.75648,1.9593 -19.75648,1.9593 0,0 12.24064,1.87421 18.40945,1.95927 5.55351,0.0765 16.6134,-1.30619 16.6134,-1.30619 0,0 -10.11044,-2.43005 -15.26637,-2.61238 z" id="path31" sodipodi:nodetypes="acaca"/><path style="fill:#d0e8e4;fill-opacity:1;stroke:none;stroke-width:0.796688;stroke-linejoin:round;stroke-dasharray:none;stroke-opacity:1" d="m -331.3612,305.83363 c -6.61223,-0.23382 -19.75649,1.9593 -19.75649,1.9593 0,0 12.24065,1.87421 18.40945,1.95927 5.55352,0.0765 16.6134,-1.30619 16.6134,-1.30619 0,0 -10.11044,-2.43005 -15.26636,-2.61238 z" id="path32" sodipodi:nodetypes="acaca"/><path style="fill:#f0c0ac;fill-opacity:1;stroke:none;stroke-width:0.942975;stroke-linejoin:round;stroke-dasharray:none;stroke-opacity:1" d="m -401.85772,198.00386 h 21.95478 v 17.16977 l -6.75531,-12.66622 z" id="path46"/><path style="fill:#f0c0ac;fill-opacity:1;stroke:none;stroke-width:0.942975;stroke-linejoin:round;stroke-dasharray:none;stroke-opacity:1" d="m -290.40404,291.20555 h 21.95479 v 17.16977 l -6.75532,-12.66622 z" id="path44"/><path style="fill:#e0a9a7;fill-opacity:1;stroke:none;stroke-width:0.942975;stroke-linejoin:round;stroke-dasharray:none;stroke-opacity:1" d="m -368.08113,263.30528 h 21.95479 v 17.16977 l -6.75532,-12.66622 z" id="path77"/><path style="fill:#e0a9a7;fill-opacity:1;stroke:none;stroke-width:0.942975;stroke-linejoin:round;stroke-dasharray:none;stroke-opacity:1" d="m -412.02086,136.68326 h 21.95479 v 17.16977 l -6.75532,-12.66622 z" id="path45"/><path style="fill:#e0a9a7;fill-opacity:1;stroke:none;stroke-width:0.942975;stroke-linejoin:round;stroke-dasharray:none;stroke-opacity:1" d="m -416.77572,263.02381 h 21.95479 v 17.16977 l -6.75532,-12.66622 z" id="path43"/></g></g></svg>