<svg xmlns:inkscape="http://www.inkscape.org/namespaces/inkscape" xmlns:sodipodi="http://sodipodi.sourceforge.net/DTD/sodipodi-0.dtd" xmlns="http://www.w3.org/2000/svg" xmlns:svg="http://www.w3.org/2000/svg" width="631.93896" height="662.65997" viewBox="0 0 167.20051 175.32878" version="1.1" id="svg5" xml:space="preserve" inkscape:version="1.4 (e7c3feb1, 2024-10-09)" sodipodi:docname="upgradeshopsvg3.svg" inkscape:export-filename="cafe new/upgrade5.png" inkscape:export-xdpi="96" inkscape:export-ydpi="96"><sodipodi:namedview id="namedview7" pagecolor="#505050" bordercolor="#ffffff" borderopacity="1" inkscape:showpageshadow="0" inkscape:pageopacity="0" inkscape:pagecheckerboard="1" inkscape:deskcolor="#505050" inkscape:document-units="px" showgrid="false" inkscape:zoom="0.32648752" inkscape:cx="728.9712" inkscape:cy="705.99942" inkscape:window-width="1472" inkscape:window-height="804" inkscape:window-x="0" inkscape:window-y="38" inkscape:window-maximized="0" inkscape:current-layer="layer1"><inkscape:page x="0" y="0" width="167.20052" height="175.32878" id="page2" margin="0" bleed="0"/></sodipodi:namedview><defs id="defs2"><style id="style608">.cls-1{fill-opacity:0.8;fill:url(#linear-gradient);}.cls-2{fill:#61cbed;}.cls-3{fill:#0fafd2;}.cls-4{fill-opacity:0.9;fill:url(#linear-gradient-2);}.cls-5{fill:#04859b;opacity:0.5;}.cls-6{fill:none;stroke:#8e281d;stroke-miterlimit:10;stroke-width:12px;}.cls-7{fill:#f18221;}.cls-8{fill:#d25927;}.cls-9{fill:url(#linear-gradient-3);}.cls-10{fill:#fff;}.cls-11{fill:#414042;}</style><style id="style36590">.cls-1{fill:url(#linear-gradient);}.cls-2{fill:#f7941d;}.cls-3{fill:#ecf7fe;}.cls-4{fill:#f3b71c;}.cls-5{fill:#c7eaf7;}.cls-6{fill:#6eb8cc;}.cls-7{fill:#009444;}.cls-8{fill:#39b54a;}.cls-10,.cls-9{fill:#f47e20;}.cls-9{stroke:#f47e20;stroke-miterlimit:10;}.cls-11{fill:none;stroke:#f3b71c;stroke-linejoin:bevel;stroke-width:3px;}</style><style id="style608-1">.cls-1{fill-opacity:0.8;fill:url(#linear-gradient);}.cls-2{fill:#61cbed;}.cls-3{fill:#0fafd2;}.cls-4{fill-opacity:0.9;fill:url(#linear-gradient-2);}.cls-5{fill:#04859b;opacity:0.5;}.cls-6{fill:none;stroke:#8e281d;stroke-miterlimit:10;stroke-width:12px;}.cls-7{fill:#f18221;}.cls-8{fill:#d25927;}.cls-9{fill:url(#linear-gradient-3);}.cls-10{fill:#fff;}.cls-11{fill:#414042;}</style><style id="style36590-3">.cls-1{fill:url(#linear-gradient);}.cls-2{fill:#f7941d;}.cls-3{fill:#ecf7fe;}.cls-4{fill:#f3b71c;}.cls-5{fill:#c7eaf7;}.cls-6{fill:#6eb8cc;}.cls-7{fill:#009444;}.cls-8{fill:#39b54a;}.cls-10,.cls-9{fill:#f47e20;}.cls-9{stroke:#f47e20;stroke-miterlimit:10;}.cls-11{fill:none;stroke:#f3b71c;stroke-linejoin:bevel;stroke-width:3px;}</style><clipPath clipPathUnits="userSpaceOnUse" id="clipPath3"><rect style="opacity:1;fill:#d0e8e4;fill-opacity:1;stroke-width:2.8575;stroke-linejoin:round;stroke-opacity:0.352941" id="rect5" width="176.06517" height="202.1543" x="354.52032" y="151.5957"/></clipPath></defs><g inkscape:label="Layer 1" inkscape:groupmode="layer" id="layer1" transform="translate(-567.07693,-130.98918)"><g id="g3" clip-path="url(#clipPath3)" transform="translate(203.69191,-46.494893)" inkscape:export-filename="shop assets/shopBricks.png" inkscape:export-xdpi="96" inkscape:export-ydpi="96"><path id="path47" d="m 541.8725,275.52666 h -36.03808 c -1.01089,0 -1.82471,0.81382 -1.82471,1.82471 v 18.24713 c 0,1.01089 0.81382,1.82471 1.82471,1.82471 h 36.03808 c 1.01089,0 1.82471,-0.81382 1.82471,-1.82471 v -18.24713 c 0,-1.01089 -0.81382,-1.82471 -1.82471,-1.82471 z" style="fill:#d0e8e4;fill-opacity:1;stroke:none;stroke-width:0.334433;stroke-linejoin:round;stroke-dasharray:none;stroke-opacity:1"/><path id="path48" d="m 541.8725,273.40996 h -36.03808 c -1.01089,0 -1.82471,0.81382 -1.82471,1.82471 v 18.24713 c 0,1.01089 0.81382,1.82471 1.82471,1.82471 h 36.03808 c 1.01089,0 1.82471,-0.81382 1.82471,-1.82471 v -18.24713 c 0,-1.01089 -0.81382,-1.82471 -1.82471,-1.82471 z" style="fill:#f9cab5;fill-opacity:1;stroke:none;stroke-width:0.334433;stroke-linejoin:round;stroke-dasharray:none;stroke-opacity:1"/><path id="path49" d="m 479.86865,302.54263 h -36.03808 c -1.01089,0 -1.82471,0.81382 -1.82471,1.82471 v 18.24713 c 0,1.01089 0.81382,1.82471 1.82471,1.82471 h 36.03808 c 1.01089,0 1.82471,-0.81382 1.82471,-1.82471 v -18.24713 c 0,-1.01089 -0.81382,-1.82471 -1.82471,-1.82471 z" style="fill:#d0e8e4;fill-opacity:1;stroke:none;stroke-width:0.334433;stroke-linejoin:round;stroke-dasharray:none;stroke-opacity:1"/><path id="path50" d="m 479.86865,300.42593 h -36.03808 c -1.01089,0 -1.82471,0.81382 -1.82471,1.82471 v 18.24713 c 0,1.01089 0.81382,1.82471 1.82471,1.82471 h 36.03808 c 1.01089,0 1.82471,-0.81382 1.82471,-1.82471 v -18.24713 c 0,-1.01089 -0.81382,-1.82471 -1.82471,-1.82471 z" style="fill:#f9cab5;fill-opacity:1;stroke:none;stroke-width:0.334433;stroke-linejoin:round;stroke-dasharray:none;stroke-opacity:1"/><path id="path51" d="m 541.93184,328.50597 h -36.03808 c -1.01089,0 -1.82471,0.81382 -1.82471,1.82471 v 18.24713 c 0,1.01089 0.81382,1.82471 1.82471,1.82471 h 36.03808 c 1.01089,0 1.82471,-0.81382 1.82471,-1.82471 v -18.24713 c 0,-1.01089 -0.81382,-1.82471 -1.82471,-1.82471 z" style="fill:#d0e8e4;fill-opacity:1;stroke:none;stroke-width:0.334433;stroke-linejoin:round;stroke-dasharray:none;stroke-opacity:1"/><path id="path52" d="m 541.93184,326.38927 h -36.03808 c -1.01089,0 -1.82471,0.81382 -1.82471,1.82471 v 18.24713 c 0,1.01089 0.81382,1.82471 1.82471,1.82471 h 36.03808 c 1.01089,0 1.82471,-0.81382 1.82471,-1.82471 v -18.24713 c 0,-1.01089 -0.81382,-1.82471 -1.82471,-1.82471 z" style="fill:#f9cab5;fill-opacity:1;stroke:none;stroke-width:0.334433;stroke-linejoin:round;stroke-dasharray:none;stroke-opacity:1"/><path id="path78" d="m 512.70145,237.71461 h -36.03808 c -1.01089,0 -1.82471,0.81382 -1.82471,1.82471 v 18.24713 c 0,1.01089 0.81382,1.82471 1.82471,1.82471 h 36.03808 c 1.01089,0 1.82471,-0.81382 1.82471,-1.82471 v -18.24713 c 0,-1.01089 -0.81382,-1.82471 -1.82471,-1.82471 z" style="fill:#d0e8e4;fill-opacity:1;stroke:none;stroke-width:0.334433;stroke-linejoin:round;stroke-dasharray:none;stroke-opacity:1"/><path id="path79" d="m 512.70145,235.59791 h -36.03808 c -1.01089,0 -1.82471,0.81382 -1.82471,1.82471 v 18.24713 c 0,1.01089 0.81382,1.82471 1.82471,1.82471 h 36.03808 c 1.01089,0 1.82471,-0.81382 1.82471,-1.82471 v -18.24713 c 0,-1.01089 -0.81382,-1.82471 -1.82471,-1.82471 z" style="fill:#f9cab5;fill-opacity:1;stroke:none;stroke-width:0.334433;stroke-linejoin:round;stroke-dasharray:none;stroke-opacity:1"/><path id="path53" d="m 505.6144,179.60077 h -36.03808 c -1.01089,0 -1.82471,0.81382 -1.82471,1.82471 v 18.24713 c 0,1.01089 0.81382,1.82471 1.82471,1.82471 h 36.03808 c 1.01089,0 1.82471,-0.81382 1.82471,-1.82471 v -18.24713 c 0,-1.01089 -0.81382,-1.82471 -1.82471,-1.82471 z" style="fill:#c6e3de;fill-opacity:1;stroke:none;stroke-width:0.334433;stroke-linejoin:round;stroke-dasharray:none;stroke-opacity:1"/><path id="path54" d="m 505.6144,177.48407 h -36.03808 c -1.01089,0 -1.82471,0.81382 -1.82471,1.82471 v 18.24713 c 0,1.01089 0.81382,1.82471 1.82471,1.82471 h 36.03808 c 1.01089,0 1.82471,-0.81382 1.82471,-1.82471 v -18.24713 c 0,-1.01089 -0.81382,-1.82471 -1.82471,-1.82471 z" style="fill:#f9cab5;fill-opacity:1;stroke:none;stroke-width:0.334433;stroke-linejoin:round;stroke-dasharray:none;stroke-opacity:1"/><path id="path55" d="m 401.24777,330.9163 h -36.03808 c -1.01089,0 -1.82471,0.81382 -1.82471,1.82471 v 18.24713 c 0,1.01089 0.81382,1.82471 1.82471,1.82471 h 36.03808 c 1.01089,0 1.82471,-0.81382 1.82471,-1.82471 v -18.24713 c 0,-1.01089 -0.81382,-1.82471 -1.82471,-1.82471 z" style="fill:#d0e8e4;fill-opacity:1;stroke:none;stroke-width:0.334433;stroke-linejoin:round;stroke-dasharray:none;stroke-opacity:1"/><path id="path56" d="m 401.24777,328.7996 h -36.03808 c -1.01089,0 -1.82471,0.81382 -1.82471,1.82471 v 18.24713 c 0,1.01089 0.81382,1.82471 1.82471,1.82471 h 36.03808 c 1.01089,0 1.82471,-0.81382 1.82471,-1.82471 v -18.24713 c 0,-1.01089 -0.81382,-1.82471 -1.82471,-1.82471 z" style="fill:#eabdba;fill-opacity:1;stroke:none;stroke-width:0.334433;stroke-linejoin:round;stroke-dasharray:none;stroke-opacity:1"/><path id="path57" d="M 555.62388,250.05481 H 519.5858 c -1.01089,0 -1.82471,0.81382 -1.82471,1.82471 v 18.24713 c 0,1.01089 0.81382,1.82471 1.82471,1.82471 h 36.03808 c 1.01089,0 1.82471,-0.81382 1.82471,-1.82471 v -18.24713 c 0,-1.01089 -0.81382,-1.82471 -1.82471,-1.82471 z" style="fill:#d0e8e4;fill-opacity:1;stroke:none;stroke-width:0.334433;stroke-linejoin:round;stroke-dasharray:none;stroke-opacity:1"/><path id="path58" d="M 555.62388,247.93811 H 519.5858 c -1.01089,0 -1.82471,0.81382 -1.82471,1.82471 v 18.24713 c 0,1.01089 0.81382,1.82471 1.82471,1.82471 h 36.03808 c 1.01089,0 1.82471,-0.81382 1.82471,-1.82471 v -18.24713 c 0,-1.01089 -0.81382,-1.82471 -1.82471,-1.82471 z" style="fill:#eabdba;fill-opacity:1;stroke:none;stroke-width:0.334433;stroke-linejoin:round;stroke-dasharray:none;stroke-opacity:1"/><path id="path59" d="m 527.82975,302.12826 h -36.03808 c -1.01089,0 -1.82471,0.81382 -1.82471,1.82471 v 18.24713 c 0,1.01089 0.81382,1.82471 1.82471,1.82471 h 36.03808 c 1.01089,0 1.82471,-0.81382 1.82471,-1.82471 v -18.24713 c 0,-1.01089 -0.81382,-1.82471 -1.82471,-1.82471 z" style="fill:#d0e8e4;fill-opacity:1;stroke:none;stroke-width:0.334433;stroke-linejoin:round;stroke-dasharray:none;stroke-opacity:1"/><path id="path60" d="m 527.82975,300.01156 h -36.03808 c -1.01089,0 -1.82471,0.81382 -1.82471,1.82471 v 18.24713 c 0,1.01089 0.81382,1.82471 1.82471,1.82471 h 36.03808 c 1.01089,0 1.82471,-0.81382 1.82471,-1.82471 v -18.24713 c 0,-1.01089 -0.81382,-1.82471 -1.82471,-1.82471 z" style="fill:#eabdba;fill-opacity:1;stroke:none;stroke-width:0.334433;stroke-linejoin:round;stroke-dasharray:none;stroke-opacity:1"/><path id="path61" d="m 467.22679,283.17083 c 0.0773,2.70612 -2.28611,7.77529 -2.28611,7.77529 0,0 -1.65843,-4.66734 -1.75498,-7.11038 -0.10948,-2.76986 1.34703,-8.20061 1.34703,-8.20061 0,0 2.6177,4.86108 2.69406,7.5357 z" style="fill:#d0e8e4;fill-opacity:1;stroke:none;stroke-width:0.568417;stroke-linejoin:round;stroke-dasharray:none;stroke-opacity:1"/><path id="path62" d="m 461.83866,274.2521 c 6.61222,-0.23382 19.75648,1.9593 19.75648,1.9593 0,0 -12.24064,1.87421 -18.40945,1.95927 -5.55351,0.0765 -16.6134,-1.30619 -16.6134,-1.30619 0,0 10.11044,-2.43005 15.26637,-2.61238 z" style="fill:#d0e8e4;fill-opacity:1;stroke:none;stroke-width:0.796688;stroke-linejoin:round;stroke-dasharray:none;stroke-opacity:1"/><path id="path63" d="m 462.06316,288.08233 c 6.61223,-0.23382 19.75649,1.9593 19.75649,1.9593 0,0 -12.24065,1.87421 -18.40945,1.95927 -5.55352,0.0765 -16.6134,-1.30619 -16.6134,-1.30619 0,0 10.11044,-2.43005 15.26636,-2.61238 z" style="fill:#d0e8e4;fill-opacity:1;stroke:none;stroke-width:0.796688;stroke-linejoin:round;stroke-dasharray:none;stroke-opacity:1"/><path id="path74" d="m 521.67293,214.16798 c 0.061,2.8032 -1.80432,8.05419 -1.80432,8.05419 0,0 -1.30892,-4.83476 -1.38513,-7.36543 -0.0864,-2.86921 1.06315,-8.49476 1.06315,-8.49476 0,0 2.06603,5.03545 2.1263,7.806 z" style="fill:#d0e8e4;fill-opacity:1;stroke:none;stroke-width:0.513957;stroke-linejoin:round;stroke-dasharray:none;stroke-opacity:1"/><path id="path75" d="m 522.29841,206.53696 c 3.7293,-0.16743 11.14267,1.40293 11.14267,1.40293 0,0 -6.90373,1.34206 -10.38294,1.40291 -0.94461,0.0165 -3.76238,0.0494 -3.7559,-1.09363 l 0.005,-0.86402 c 0.005,-0.97333 2.1902,-0.81222 2.99128,-0.84819 z" style="fill:#d0e8e4;fill-opacity:1;stroke:none;stroke-width:0.506285;stroke-linejoin:round;stroke-dasharray:none;stroke-opacity:1"/><path id="path76" d="m 515.57311,219.78624 c -6.12466,-0.16743 -18.29971,1.40293 -18.29971,1.40293 0,0 11.33806,1.34206 17.052,1.4029 1.55134,0.0165 6.179,0.0494 6.16836,-1.09363 l -0.008,-0.86401 c -0.009,-0.97334 -3.597,-0.81222 -4.91261,-0.84819 z" style="fill:#d0e8e4;fill-opacity:1;stroke:none;stroke-width:0.648818;stroke-linejoin:round;stroke-dasharray:none;stroke-opacity:1"/><path id="path67" d="m 434.57222,340.39714 c 0.0773,2.70612 -2.28611,7.77529 -2.28611,7.77529 0,0 -1.65843,-4.66734 -1.75499,-7.11038 -0.10947,-2.76986 1.34704,-8.20061 1.34704,-8.20061 0,0 2.6177,4.86108 2.69406,7.5357 z" style="fill:#d0e8e4;fill-opacity:1;stroke:none;stroke-width:0.568417;stroke-linejoin:round;stroke-dasharray:none;stroke-opacity:1"/><path id="path68" d="m 429.18409,331.47841 c 6.61222,-0.23382 19.75648,1.9593 19.75648,1.9593 0,0 -12.24064,1.87421 -18.40945,1.95927 -5.55351,0.0765 -16.6134,-1.30619 -16.6134,-1.30619 0,0 10.11044,-2.43005 15.26637,-2.61238 z" style="fill:#d0e8e4;fill-opacity:1;stroke:none;stroke-width:0.796688;stroke-linejoin:round;stroke-dasharray:none;stroke-opacity:1"/><path id="path69" d="m 429.40859,345.30864 c 6.61223,-0.23382 19.75649,1.9593 19.75649,1.9593 0,0 -12.24065,1.87421 -18.40945,1.95927 -5.55352,0.0765 -16.6134,-1.30619 -16.6134,-1.30619 0,0 10.11044,-2.43005 15.26636,-2.61238 z" style="fill:#d0e8e4;fill-opacity:1;stroke:none;stroke-width:0.796688;stroke-linejoin:round;stroke-dasharray:none;stroke-opacity:1"/><path id="path80" d="m 499.90511,237.47887 h -21.95478 v 17.16977 l 6.75531,-12.66622 z" style="fill:#f0c0ac;fill-opacity:1;stroke:none;stroke-width:0.942975;stroke-linejoin:round;stroke-dasharray:none;stroke-opacity:1"/><path id="path70" d="m 492.81806,179.36503 h -21.95478 v 17.16977 l 6.75531,-12.66622 z" style="fill:#f0c0ac;fill-opacity:1;stroke:none;stroke-width:0.942975;stroke-linejoin:round;stroke-dasharray:none;stroke-opacity:1"/><path id="path71" d="m 388.45143,330.68056 h -21.95479 v 17.16977 l 6.75532,-12.66622 z" style="fill:#e0a9a7;fill-opacity:1;stroke:none;stroke-width:0.942975;stroke-linejoin:round;stroke-dasharray:none;stroke-opacity:1"/><path id="path72" d="m 466.12852,302.78029 h -21.95479 v 17.16977 l 6.75532,-12.66622 z" style="fill:#f0c0ac;fill-opacity:1;stroke:none;stroke-width:0.942975;stroke-linejoin:round;stroke-dasharray:none;stroke-opacity:1"/><path id="path73" d="m 514.82311,302.49882 h -21.95479 v 17.16977 l 6.75532,-12.66622 z" style="fill:#e0a9a7;fill-opacity:1;stroke:none;stroke-width:0.942975;stroke-linejoin:round;stroke-dasharray:none;stroke-opacity:1"/></g></g></svg>