<svg xmlns="http://www.w3.org/2000/svg" xmlns:svg="http://www.w3.org/2000/svg" width="1198.2622" height="530.65875" viewBox="0 0 317.0402 140.40345" version="1.1" id="svg5" xml:space="preserve"><defs id="defs2"><style id="style608">.cls-1{fill-opacity:0.8;fill:url(#linear-gradient);}.cls-2{fill:#61cbed;}.cls-3{fill:#0fafd2;}.cls-4{fill-opacity:0.9;fill:url(#linear-gradient-2);}.cls-5{fill:#04859b;opacity:0.5;}.cls-6{fill:none;stroke:#8e281d;stroke-miterlimit:10;stroke-width:12px;}.cls-7{fill:#f18221;}.cls-8{fill:#d25927;}.cls-9{fill:url(#linear-gradient-3);}.cls-10{fill:#fff;}.cls-11{fill:#414042;}</style><style id="style36590">.cls-1{fill:url(#linear-gradient);}.cls-2{fill:#f7941d;}.cls-3{fill:#ecf7fe;}.cls-4{fill:#f3b71c;}.cls-5{fill:#c7eaf7;}.cls-6{fill:#6eb8cc;}.cls-7{fill:#009444;}.cls-8{fill:#39b54a;}.cls-10,.cls-9{fill:#f47e20;}.cls-9{stroke:#f47e20;stroke-miterlimit:10;}.cls-11{fill:none;stroke:#f3b71c;stroke-linejoin:bevel;stroke-width:3px;}</style><style id="style608-5">.cls-1{fill-opacity:0.8;fill:url(#linear-gradient);}.cls-2{fill:#61cbed;}.cls-3{fill:#0fafd2;}.cls-4{fill-opacity:0.9;fill:url(#linear-gradient-2);}.cls-5{fill:#04859b;opacity:0.5;}.cls-6{fill:none;stroke:#8e281d;stroke-miterlimit:10;stroke-width:12px;}.cls-7{fill:#f18221;}.cls-8{fill:#d25927;}.cls-9{fill:url(#linear-gradient-3);}.cls-10{fill:#fff;}.cls-11{fill:#414042;}</style><style id="style36590-3">.cls-1{fill:url(#linear-gradient);}.cls-2{fill:#f7941d;}.cls-3{fill:#ecf7fe;}.cls-4{fill:#f3b71c;}.cls-5{fill:#c7eaf7;}.cls-6{fill:#6eb8cc;}.cls-7{fill:#009444;}.cls-8{fill:#39b54a;}.cls-10,.cls-9{fill:#f47e20;}.cls-9{stroke:#f47e20;stroke-miterlimit:10;}.cls-11{fill:none;stroke:#f3b71c;stroke-linejoin:bevel;stroke-width:3px;}</style><style id="style608-6">.cls-1{fill-opacity:0.8;fill:url(#linear-gradient);}.cls-2{fill:#61cbed;}.cls-3{fill:#0fafd2;}.cls-4{fill-opacity:0.9;fill:url(#linear-gradient-2);}.cls-5{fill:#04859b;opacity:0.5;}.cls-6{fill:none;stroke:#8e281d;stroke-miterlimit:10;stroke-width:12px;}.cls-7{fill:#f18221;}.cls-8{fill:#d25927;}.cls-9{fill:url(#linear-gradient-3);}.cls-10{fill:#fff;}.cls-11{fill:#414042;}</style><style id="style36590-2">.cls-1{fill:url(#linear-gradient);}.cls-2{fill:#f7941d;}.cls-3{fill:#ecf7fe;}.cls-4{fill:#f3b71c;}.cls-5{fill:#c7eaf7;}.cls-6{fill:#6eb8cc;}.cls-7{fill:#009444;}.cls-8{fill:#39b54a;}.cls-10,.cls-9{fill:#f47e20;}.cls-9{stroke:#f47e20;stroke-miterlimit:10;}.cls-11{fill:none;stroke:#f3b71c;stroke-linejoin:bevel;stroke-width:3px;}</style><style id="style6644">.cls-1{fill:url(#linear-gradient);}.cls-2{fill:#eab371;}.cls-3{fill:#c88b4b;}.cls-4{fill:#e9a058;}</style><style id="style608-1">.cls-1{fill-opacity:0.8;fill:url(#linear-gradient);}.cls-2{fill:#61cbed;}.cls-3{fill:#0fafd2;}.cls-4{fill-opacity:0.9;fill:url(#linear-gradient-2);}.cls-5{fill:#04859b;opacity:0.5;}.cls-6{fill:none;stroke:#8e281d;stroke-miterlimit:10;stroke-width:12px;}.cls-7{fill:#f18221;}.cls-8{fill:#d25927;}.cls-9{fill:url(#linear-gradient-3);}.cls-10{fill:#fff;}.cls-11{fill:#414042;}</style><style id="style36590-1">.cls-1{fill:url(#linear-gradient);}.cls-2{fill:#f7941d;}.cls-3{fill:#ecf7fe;}.cls-4{fill:#f3b71c;}.cls-5{fill:#c7eaf7;}.cls-6{fill:#6eb8cc;}.cls-7{fill:#009444;}.cls-8{fill:#39b54a;}.cls-10,.cls-9{fill:#f47e20;}.cls-9{stroke:#f47e20;stroke-miterlimit:10;}.cls-11{fill:none;stroke:#f3b71c;stroke-linejoin:bevel;stroke-width:3px;}</style><style id="style608-7">.cls-1{fill-opacity:0.8;fill:url(#linear-gradient);}.cls-2{fill:#61cbed;}.cls-3{fill:#0fafd2;}.cls-4{fill-opacity:0.9;fill:url(#linear-gradient-2);}.cls-5{fill:#04859b;opacity:0.5;}.cls-6{fill:none;stroke:#8e281d;stroke-miterlimit:10;stroke-width:12px;}.cls-7{fill:#f18221;}.cls-8{fill:#d25927;}.cls-9{fill:url(#linear-gradient-3);}.cls-10{fill:#fff;}.cls-11{fill:#414042;}</style><style id="style36590-39">.cls-1{fill:url(#linear-gradient);}.cls-2{fill:#f7941d;}.cls-3{fill:#ecf7fe;}.cls-4{fill:#f3b71c;}.cls-5{fill:#c7eaf7;}.cls-6{fill:#6eb8cc;}.cls-7{fill:#009444;}.cls-8{fill:#39b54a;}.cls-10,.cls-9{fill:#f47e20;}.cls-9{stroke:#f47e20;stroke-miterlimit:10;}.cls-11{fill:none;stroke:#f3b71c;stroke-linejoin:bevel;stroke-width:3px;}</style><style id="style608-8">.cls-1{fill-opacity:0.8;fill:url(#linear-gradient);}.cls-2{fill:#61cbed;}.cls-3{fill:#0fafd2;}.cls-4{fill-opacity:0.9;fill:url(#linear-gradient-2);}.cls-5{fill:#04859b;opacity:0.5;}.cls-6{fill:none;stroke:#8e281d;stroke-miterlimit:10;stroke-width:12px;}.cls-7{fill:#f18221;}.cls-8{fill:#d25927;}.cls-9{fill:url(#linear-gradient-3);}.cls-10{fill:#fff;}.cls-11{fill:#414042;}</style><style id="style36590-34">.cls-1{fill:url(#linear-gradient);}.cls-2{fill:#f7941d;}.cls-3{fill:#ecf7fe;}.cls-4{fill:#f3b71c;}.cls-5{fill:#c7eaf7;}.cls-6{fill:#6eb8cc;}.cls-7{fill:#009444;}.cls-8{fill:#39b54a;}.cls-10,.cls-9{fill:#f47e20;}.cls-9{stroke:#f47e20;stroke-miterlimit:10;}.cls-11{fill:none;stroke:#f3b71c;stroke-linejoin:bevel;stroke-width:3px;}</style></defs><g id="layer1" transform="translate(-685.4279,-155.65041)"><g id="g1"><path style="color:#000000;fill:#040a12;stroke-width:3.40005" d="m 692.97431,163.20346 v 11.52167 113.7823 H 994.9217 V 163.20346 Z m 23.04334,23.0367 H 971.87837 V 265.4641 H 716.01765 Z" id="rect17180"/><path style="color:#000000;fill:#0e1e38;stroke:#525963;stroke-width:21.1226;stroke-dasharray:none;stroke-opacity:1" d="m 695.9892,166.21171 v 8.51342 110.76744 H 991.9068 V 166.21171 Z m 17.01355,17.0202 H 974.89324 V 268.479 H 713.00275 Z" id="path24340"/><path id="path24344" style="color:#000000;fill:#59677f;fill-opacity:1;stroke-width:11.047" d="m 690.46548,160.68708 v 5.52409 8.51455 116.29234 H 997.43386 V 160.68708 Z m 28.06323,28.07026 H 969.3689 V 262.9531 H 718.52871 Z"/><rect style="fill:none;fill-opacity:1;stroke:#546176;stroke-width:9.09855;stroke-linejoin:miter;stroke-dasharray:none;stroke-opacity:1" id="rect25182" width="278.90491" height="102.26514" x="704.49548" y="174.72211"/><rect style="fill:#d9fef7;fill-opacity:1;stroke:none;stroke-width:3.3411;stroke-linejoin:round;stroke-dasharray:none;stroke-opacity:1" id="rect16032" width="278.90491" height="102.26514" x="704.49548" y="174.72211"/><path id="path21591" style="color:#000000;fill:#a7bfb9;fill-opacity:1;stroke-width:0.421688;paint-order:stroke fill markers" d="m 818.11823,187.0353 c 0.5079,-0.009 1.01869,0.004 1.53087,0.0407 1.17069,0.0825 2.34948,0.28394 3.52102,0.61281 h 7.3e-4 l 20.76667,5.84034 c 12.11152,3.39426 20.18905,14.24317 20.66648,26.1926 0.87494,-0.0867 1.76837,-0.13155 2.6818,-0.13155 2.76084,0 5.29269,0.35872 7.59657,1.07466 0.0758,-0.0902 0.1564,-0.17762 0.24208,-0.26156 l 6.62463,-6.50808 c 0.88725,-0.8716 2.12317,-1.25087 3.47248,-1.12285 1.05963,0.1005 2.21765,0.53725 3.26133,1.30819 l 6.40343,-7.43401 c -0.16389,-0.45593 -0.14417,-0.89535 0.0976,-1.17592 l 9.77801,-11.35261 c 0.97082,-1.12718 3.20816,-0.56666 4.80564,1.01375 l 3.75233,3.71233 0.38523,0.38114 c 1.59741,1.58033 2.15118,3.78281 1.01114,4.73916 l -11.55549,9.69466 c -0.27643,0.23199 -0.71636,0.24229 -1.16694,0.0707 l -7.51622,6.30517 c 0.7358,1.00733 1.15153,2.11382 1.2469,3.12793 0.12512,1.33062 -0.26419,2.54779 -1.15126,3.41938 l -6.62463,6.50808 c -0.10302,0.10101 -0.21115,0.19482 -0.32301,0.28247 0.69004,2.26944 1.03654,4.77985 1.03654,7.53303 0,0.24182 -0.003,0.48128 -0.0102,0.71968 0.007,0.24943 0.0102,0.50048 0.0102,0.75405 0,0.0586 -10e-4,0.11618 -0.002,0.17452 3.7e-4,0.0647 0.002,0.12863 0.002,0.19353 0,0.11713 -0.002,0.23308 -0.003,0.34938 10e-4,0.12896 0.003,0.25745 0.003,0.38749 0,3.32926 -0.56855,6.33382 -1.7054,9.01347 -1.1368,2.67965 -2.70001,4.91257 -4.68945,6.69899 -1.98941,1.74586 -4.32389,3.10598 -7.00354,4.08041 -2.72025,0.93382 -5.66391,1.40085 -8.83076,1.40085 -2.39544,0 -4.66898,-0.34521 -6.82084,-1.03542 -2.19246,-0.7308 -4.01962,-1.6239 -5.48124,-2.67955 -1.46166,-1.09617 -2.74055,-2.27358 -3.83678,-3.53221 -0.12166,-0.14382 -0.23746,-0.28696 -0.35162,-0.42895 -2.03518,1.09818 -4.28244,1.80237 -6.61793,2.04353 -0.37551,0.91248 -0.85327,1.73257 -1.43448,2.45909 -1.64209,2.02103 -3.71072,3.03153 -6.20543,3.03153 -2.74729,0 -5.13125,-0.679 -7.15227,-2.03684 -0.66312,1.16839 -2.03695,1.75249 -4.12111,1.75249 -1.98943,0 -3.37876,-0.36333 -4.1682,-1.08962 -0.78944,-0.75787 -1.18412,-2.08406 -1.18412,-3.97877 v -0.73683 -0.36846 -0.47118 l -4.75114,-0.24243 7.3e-4,0.11356 c 0,2.52631 -0.41054,4.29478 -1.23158,5.30528 -0.82105,0.97891 -2.11583,1.46848 -3.88421,1.46848 -1.79999,0 -3.11028,-0.50541 -3.9313,-1.51595 -0.85265,-1.04208 -1.27907,-2.90507 -1.27907,-5.58924 v -0.30941 l -1.87389,-0.0955 c -1.31364,-0.0666 -2.57366,-0.32878 -3.75608,-0.75294 -0.48602,2.24652 -1.64473,4.10111 -3.47804,5.5631 -2.52625,1.98944 -5.7158,2.98443 -9.56836,2.98443 -1.70523,0 -3.29983,-0.28424 -4.784,-0.85266 -1.48419,-0.56846 -2.66858,-1.24738 -3.55277,-2.03687 -0.91579,-0.82102 -1.62614,-1.62625 -2.13137,-2.41571 -0.50526,-0.82104 -0.75781,-1.51588 -0.75781,-2.0843 0,-0.1258 0.0116,-0.24582 0.034,-0.3602 -0.0235,-0.1309 -0.034,-0.25671 -0.034,-0.37666 0,-0.0636 0.003,-0.12512 0.009,-0.18564 -0.006,-0.0622 -0.009,-0.12343 -0.009,-0.18259 0,-0.2516 0.0457,-0.48012 0.13484,-0.68715 -0.0897,-0.28424 -0.13484,-0.54669 -0.13484,-0.78619 0,-0.0629 0.003,-0.12512 0.009,-0.18531 6e-5,-5.1e-4 3.2e-4,-7.1e-4 3.8e-4,-0.001 0.006,-0.0598 0.0146,-0.11798 0.0265,-0.17477 2.9e-4,-0.001 7e-4,-0.003 10e-4,-0.007 0.0116,-0.0561 0.0265,-0.11084 0.0416,-0.16388 1.2e-4,-4.1e-4 2.4e-4,-7.5e-4 3.6e-4,-0.001 0.0292,-0.0918 0.0633,-0.1802 0.10758,-0.26418 0.0492,-0.0938 0.10846,-0.18259 0.17765,-0.26657 0.0346,-0.0418 0.0715,-0.0826 0.11081,-0.12206 0.10642,-0.11832 0.231,-0.21488 0.37292,-0.28867 h 3.9e-4 c 0.0472,-0.0238 0.0965,-0.0469 0.14773,-0.0666 h 3.5e-4 c 0.0513,-0.0204 0.10435,-0.0371 0.15946,-0.052 h 3.8e-4 c 0.16593,-0.0445 0.34907,-0.0666 0.55041,-0.0666 0.3141,0 0.83157,0.17238 1.55179,0.51603 0.003,0.002 0.009,0.003 0.0116,0.007 0.17354,0.0867 0.34464,0.16762 0.5123,0.24242 0.16769,0.0751 0.33262,0.14416 0.49435,0.2074 0.32365,0.12649 0.6353,0.22883 0.93529,0.30805 0.35524,0.0867 0.70838,0.16252 1.0597,0.22814 0.52692,0.0976 1.04944,0.17103 1.56751,0.21999 0.51807,0.049 1.03177,0.0734 1.54098,0.0734 1.09914,0 2.03058,-0.21557 2.79499,-0.64567 0.009,-0.003 0.0177,-0.0102 0.0235,-0.0136 0.0235,-0.0136 0.0463,-0.0306 0.0698,-0.0439 l -4.73654,-0.034 c -0.78944,0 -1.53154,-0.0629 -2.22626,-0.18939 -0.69472,-0.1581 -1.2947,-0.36319 -1.79993,-0.61578 -0.50528,-0.28425 -0.94722,-0.58437 -1.32615,-0.90016 -0.41051,-0.34735 -0.72618,-0.71028 -0.94722,-1.08923 -0.2527,-0.41052 -0.42652,-0.82108 -0.52127,-1.23159 -0.12634,-0.41052 -0.18938,-0.83695 -0.18938,-1.27904 0,-0.14559 0.003,-0.28891 0.0116,-0.43046 -0.006,-0.10125 -0.0116,-0.20346 -0.0116,-0.30641 0,-0.0725 7.4e-4,-0.14413 0.003,-0.21564 -10e-4,-0.0507 -0.003,-0.10169 -0.003,-0.15283 0,-0.29254 0.0146,-0.57673 0.0434,-0.85307 -0.0146,-0.0963 -0.0235,-0.19353 -0.0313,-0.29145 v -3.8e-4 c -0.009,-0.10856 -0.0116,-0.21794 -0.0116,-0.32844 0,-2.27365 0.86837,-4.05801 2.60517,-5.35272 1.70524,-1.32629 4.40522,-1.98938 8.09988,-1.98938 0.88052,0 1.72476,0.0558 2.53343,0.16589 l -1.17368,-0.2799 h -3.5e-4 c -1.54445,-0.36813 -2.98044,-1.09644 -4.1899,-2.12501 l -10e-4,-0.001 -2.21621,-1.88251 -7e-4,-3.8e-4 c -0.65354,-0.55589 -1.42894,-0.94916 -2.26362,-1.14757 h -3.8e-4 l -2.75688,-0.65578 -10e-4,-3.8e-4 c -2.14819,-0.51301 -3.30074,-3.02738 -2.28756,-4.98988 v -7.2e-4 l 2.4994,-4.83407 3.8e-4,-3.7e-4 c 0.18265,-0.35292 0.42145,-0.66443 0.701,-0.92705 h 3.8e-4 c 0.83864,-0.78787 2.04386,-1.13795 3.20341,-0.86093 l 3.31473,0.78881 h 3.9e-4 l 10e-4,3.7e-4 c 1.54538,0.36658 2.98252,1.09269 4.19435,2.11941 l 10e-4,0.001 2.21621,1.88438 c 0.39811,0.3381 0.84157,0.61583 1.31566,0.82655 l 0.19204,-3.75756 v -7.2e-4 c 0.2225,-4.33599 2.56747,-8.29511 6.2633,-10.57352 l 0.0265,-0.0153 0.0265,-0.015 c 0.718,-0.42587 1.24448,-1.1072 1.47672,-1.90904 l 2.96836,-10.6049 h 7.4e-4 c 2.15402,-7.6894 9.15037,-12.78572 16.76885,-12.91676 z m 65.00342,32.02659 -3.7135,3.64806 c 0.60028,0.36944 1.17995,0.77109 1.73831,1.20618 l 3.45303,-3.3921 z m 4.73801,4.68722 -3.45377,3.39285 c 0.43612,0.55238 0.83937,1.1277 1.20844,1.72706 l 3.72317,-3.65777 z m -21.30471,7.12873 c -0.97445,0 -1.80661,0.30457 -2.49683,0.9136 -0.32538,0.27115 -0.57766,0.5665 -0.75814,0.88596 0.19176,0.46478 0.46224,1.01267 0.81907,1.65121 0.73081,1.38042 1.09632,2.45627 1.09632,3.22769 0,0.30084 -0.0238,0.58863 -0.0649,0.86428 0.0422,0.22025 0.0649,0.42392 0.0649,0.60907 0,0.071 -0.003,0.14046 -0.007,0.20999 0.003,0.0542 0.007,0.10696 0.007,0.15841 0,0.14752 -0.007,0.29087 -0.017,0.43232 0.0102,0.10632 0.017,0.20778 0.017,0.30454 0,1.66464 -0.64982,2.94355 -1.94902,3.83676 -1.29926,0.89322 -2.76091,1.33995 -4.38494,1.33995 -0.0102,0 -0.0204,-7.2e-4 -0.0306,-7.2e-4 l -0.25636,0.91435 c -0.28118,1.00384 -0.64965,1.9603 -1.08659,2.87048 0.41032,0.2177 0.83988,0.43258 1.31191,0.64082 1.38046,0.56842 2.82181,0.8527 4.32406,0.8527 2.03,0 3.81659,-0.50765 5.35943,-1.52267 0.77134,-0.50745 1.45152,-1.10127 2.04017,-1.78125 v -3.7e-4 c 0.58872,-0.68007 1.08605,-1.44616 1.49205,-2.29877 0.0697,-0.15025 0.13294,-0.3041 0.19652,-0.45736 h 0.003 c 0.52938,-1.27083 0.85222,-2.64505 0.96813,-4.12262 -0.16831,-2.27469 -0.77987,-4.33458 -1.83838,-6.1785 -1.25866,-2.23305 -2.86244,-3.34988 -4.81128,-3.34988 z m -81.0593,14.52163 c -0.89773,0 -1.45948,0.55718 -1.68559,1.67064 0.034,0.16045 0.073,0.31097 0.12254,0.44017 0.0265,0.0711 0.0575,0.13737 0.0888,0.19952 v 3.7e-4 c 0.15772,0.31056 0.36542,0.5105 0.62178,0.59936 0.10261,0.0355 0.21312,0.0535 0.3314,0.0535 0.16154,0 1.42111,0.017 3.02629,0.04 -0.0292,-0.0861 -0.0586,-0.17174 -0.0897,-0.25596 -0.31576,-0.88419 -0.67869,-1.56315 -1.08923,-2.03683 -0.44208,-0.47367 -0.8844,-0.71071 -1.32647,-0.71071 z"/><path id="path22263" style="color:#000000;fill:#678078;fill-opacity:0.155263;stroke-width:0.421688;paint-order:stroke fill markers" d="m 818.2102,192.37039 c -5.29487,0.0911 -10.21003,3.63083 -11.71937,9.01882 a 5.3391964,5.3391964 0 0 1 -5.14106,3.89884 h 4.05171 l -1.88002,6.70657 a 5.3391964,5.3391964 0 0 1 -0.0122,0.0457 c -0.60722,2.0965 -1.99754,3.8983 -3.87951,5.01456 l 0.0265,-0.0139 c -2.19484,1.35307 -3.59065,3.70224 -3.73193,6.2761 a 5.3391964,5.3391964 0 0 0 0,0.002 5.3391964,5.3391964 0 0 0 0,0.002 5.3391964,5.3391964 0 0 0 0,0.002 5.3391964,5.3391964 0 0 0 0,0.002 5.3391964,5.3391964 0 0 0 0,0.002 5.3391964,5.3391964 0 0 0 0,0.002 5.3391964,5.3391964 0 0 0 0,0.002 5.3391964,5.3391964 0 0 0 0,0.002 5.3391964,5.3391964 0 0 0 0,0.002 5.3391964,5.3391964 0 0 0 0,0.002 5.3391964,5.3391964 0 0 0 0,0.002 5.3391964,5.3391964 0 0 0 0,0.002 5.3391964,5.3391964 0 0 0 0,0.002 5.3391964,5.3391964 0 0 0 0,0.002 5.3391964,5.3391964 0 0 0 0,0.002 l -0.19152,3.75828 a 5.3391964,5.3391964 0 0 1 -7.50426,4.60165 c -0.93593,-0.41598 -1.81431,-0.96168 -2.60392,-1.63227 l -2.21034,-1.88002 c -0.002,-0.002 -0.005,-0.005 -0.007,-0.007 -0.56539,-0.47719 -1.23942,-0.81608 -1.95908,-0.98921 l 0.54468,0.13882 h 0.67645 a 5.3391964,5.3391964 0 0 1 -1.23519,-0.14583 5.3391964,5.3391964 0 0 1 -0.0931,-0.0194 l -1.81149,-0.43222 -0.77836,1.49522 a 5.3391964,5.3391964 0 0 1 0.47791,0.0527 c 1.64534,0.39111 3.17319,1.167 4.46285,2.25778 a 5.3391964,5.3391964 0 0 1 0.0211,0.0122 c 0.002,0.001 0.004,-0.001 0.005,0 l 2.21209,1.88002 a 5.3391964,5.3391964 0 0 1 0.007,0.007 c 0.56822,0.48324 1.24049,0.82327 1.96612,0.99623 l 1.17545,0.27761 a 5.3391964,5.3391964 0 0 1 1.83961,9.00652 c 0.98904,1.17278 1.5698,2.37937 2.01706,3.63178 l -0.0122,-0.0527 c 0.0599,0.16235 0.10122,0.28948 0.13352,0.38479 a 5.3391964,5.3391964 0 0 1 -2.02585,6.07578 5.3391964,5.3391964 0 0 1 -1.50753,5.2008 c 0.5861,-0.26895 1.55249,-0.22237 2.03816,-0.6044 0.95266,-0.76484 1.33265,-1.38151 1.57429,-2.49849 a 5.3391964,5.3391964 0 0 1 7.01932,-3.89709 c 0.7066,0.2534 1.44657,0.40512 2.2244,0.44454 l 1.87299,0.1003 a 5.3391964,5.3391964 0 0 1 4.98644,5.24648 5.3391964,5.3391964 0 0 1 5.33961,-4.72291 l 4.75451,0.24617 a 5.3391964,5.3391964 0 0 1 5.06727,5.33257 v 0.47091 0.36544 0.47091 c 0.0292,0 -0.0184,-0.007 0.0122,-0.007 0.0296,0 -0.0388,0.0272 -0.0122,0.0272 v 0.23188 a 5.3391964,5.3391964 0 0 1 7.11244,-1.10165 c 1.09174,0.73349 2.30177,1.12977 4.16943,1.12977 1.04632,0 1.25747,-0.0748 2.0522,-1.05072 0.24304,-0.30703 0.45796,-0.66383 0.65186,-1.13504 a 5.3391964,5.3391964 0 0 1 4.38905,-3.27334 c 1.62736,-0.16796 3.20589,-0.66433 4.63504,-1.43546 a 5.3391964,5.3391964 0 0 1 6.69427,1.35465 c 0.0874,0.1088 0.1528,0.18904 0.21788,0.2669 0.81341,0.93389 1.79463,1.83776 2.95532,2.7146 0.90072,0.64802 2.22311,1.33408 3.99195,1.92746 1.59616,0.50906 3.29288,0.77661 5.16567,0.77661 2.62712,0 4.94358,-0.38931 7.0527,-1.10869 2.0775,-0.76219 3.77963,-1.76494 5.22714,-3.02911 1.37043,-1.23504 2.46354,-2.76187 3.32607,-4.79492 0.82642,-1.94796 1.28264,-4.20475 1.28264,-6.9262 0,-0.09 10e-4,-0.19595 0,-0.32505 a 5.3391964,5.3391964 0 0 1 0,-0.10013 c 10e-4,-0.158 0,-0.25895 0,-0.311 0,0.032 8.1e-4,-0.0184 0,-0.15987 a 5.3391964,5.3391964 0 0 1 0,-0.0931 c 10e-4,-0.10642 0,-0.1427 0,-0.11244 0,-0.20584 -2.4e-4,-0.41111 -0.007,-0.61145 a 5.3391964,5.3391964 0 0 1 0,-0.30573 c 0.007,-0.17303 0.007,-0.35821 0.007,-0.55697 0,-2.30525 -0.28867,-4.28749 -0.80473,-5.98444 a 5.3391964,5.3391964 0 0 1 0.61143,-1.93097 5.3391964,5.3391964 0 0 1 -2.06451,-1.32304 c -0.25841,-0.41982 -0.53962,-0.82762 -0.85039,-1.22114 a 5.3391964,5.3391964 0 0 1 0.1598,-2.46335 5.3391964,5.3391964 0 0 1 -2.51073,0.13879 c -0.40175,-0.31308 -0.81867,-0.60146 -1.25452,-0.86973 a 5.3391964,5.3391964 0 0 1 -1.3213,-2.07856 5.3391964,5.3391964 0 0 1 -1.99246,0.58509 c -1.72798,-0.53697 -3.71242,-0.83107 -6.01079,-0.83107 -0.73869,0 -1.45781,0.0378 -2.1576,0.10717 a 5.3391964,5.3391964 0 0 1 -5.85833,-5.1007 c -0.38669,-9.67808 -6.9152,-18.5005 -16.77434,-21.26354 a 5.3391964,5.3391964 0 0 1 -0.007,-0.007 l -20.0546,-5.63818 h 0.73795 a 5.3391964,5.3391964 0 0 1 -1.44076,-0.19857 c -0.82048,-0.23032 -1.64447,-0.36784 -2.45808,-0.4252 -0.35386,-0.0252 -0.71026,-0.0395 -1.063,-0.0333 z m 88.60157,7.54468 -6.7013,7.7766 a 5.3391964,5.3391964 0 0 1 -0.77661,1.81149 5.3391964,5.3391964 0 0 1 0.59039,-0.0931 l 8.91864,-7.4902 z M 799.52422,217.1146 v 0.007 l 0.007,-0.007 z m 91.30389,0.64307 a 5.3391964,5.3391964 0 0 1 -1.76054,0.19326 5.3391964,5.3391964 0 0 1 0.69051,2.00477 5.3391964,5.3391964 0 0 1 0.80296,0 5.3391964,5.3391964 0 0 1 0.26724,-2.19804 z m -24.27333,7.78363 c 0.0238,0 0.0429,0.019 0.0667,0.0194 v -0.0194 a 5.3391964,5.3391964 0 0 1 0.0809,0.0457 c 3.92012,0.0724 7.48753,2.7937 9.30343,6.00376 1.46464,2.5582 2.30279,5.43953 2.52311,8.41967 a 5.3391964,5.3391964 0 0 1 0,0.80999 c -0.15606,1.99079 -0.60854,3.93706 -1.36699,5.75778 0,5e-4 -0.007,-5.1e-4 -0.007,0 -0.0575,0.13851 -0.14246,0.36193 -0.27948,0.65712 a 5.3391964,5.3391964 0 0 1 -0.0204,0.0474 c -0.59858,1.25704 -1.35935,2.43253 -2.27008,3.48594 l -0.007,0.007 a 5.3391964,5.3391964 0 0 0 0,0.002 5.3391964,5.3391964 0 0 0 0,0.002 5.3391964,5.3391964 0 0 0 0,0.002 5.3391964,5.3391964 0 0 0 0,0.002 c -0.91394,1.05573 -1.97659,1.97629 -3.14155,2.74274 -2.44094,1.60584 -5.37311,2.4036 -8.29314,2.4036 -2.17577,0 -4.34456,-0.42675 -6.35518,-1.25452 a 5.3391964,5.3391964 0 0 1 -0.11948,-0.0527 c -0.61838,-0.27269 -1.17199,-0.55258 -1.66039,-0.81173 a 5.3391964,5.3391964 0 0 1 -2.31049,-7.02461 c 0.31223,-0.65035 0.56359,-1.31414 0.75552,-1.9995 l 0.26004,-0.91717 a 5.3391964,5.3391964 0 0 1 5.13931,-3.89708 h 0.0272 c 0.47496,0 0.71541,-0.14256 1.00326,-0.29166 a 5.3391964,5.3391964 0 0 1 -0.007,-0.27234 c 6.8e-4,0.12906 0.0102,0.17405 0.007,0.11948 a 5.3391964,5.3391964 0 0 1 -0.007,-0.39709 5.3391964,5.3391964 0 0 1 -0.0272,-1.19478 c -0.0435,-0.13552 -0.15334,-0.55987 -0.43748,-1.10517 -0.007,-0.0109 -10e-4,0.004 -0.007,-0.007 -0.40359,-0.72871 -0.74839,-1.41316 -1.03664,-2.11195 a 5.3391964,5.3391964 0 0 1 0.28628,-4.66139 c 0.51888,-0.9184 1.20369,-1.67035 1.92569,-2.28413 1.62213,-1.40989 3.90714,-2.2244 5.97563,-2.2244 z m -87.27151,1.13504 a 5.3391964,5.3391964 0 0 1 -0.11244,0.14583 l 0.14583,-0.13879 z m -0.99623,1.15612 a 5.3391964,5.3391964 0 0 1 -0.0527,0.21261 l 0.0527,0.0122 z m -0.0738,0.30574 a 5.3391964,5.3391964 0 0 1 -0.007,0.0265 5.3391964,5.3391964 0 0 1 0.0808,0.007 v -0.0333 z m 81.6701,11.05521 c 0.007,0.12407 0.0204,0.21111 0.0238,0.23369 a 5.3391964,5.3391964 0 0 1 -0.0238,-0.23369 z m -0.002,0.93122 c -6.8e-4,-0.005 -0.007,0.0184 -0.007,0.0122 0,0.12836 0.007,0.21713 0.0136,0.27235 a 5.3391964,5.3391964 0 0 1 -0.007,-0.28465 z m -74.55593,8.24397 -0.007,0.28816 h 0.21964 l 0.007,-0.28639 c -0.0398,-4.3e-4 -0.19016,-0.001 -0.21964,-0.002 z m 3.19428,0.64132 a 5.3391964,5.3391964 0 0 1 -0.63077,0.35843 5.3391964,5.3391964 0 0 1 0.32504,0.15287 c 0.22855,-0.24623 0.19343,-0.30985 0.30573,-0.5113 z m -14.35667,8.7043 0.65713,0.39886 c 0.008,0.007 0.0791,0.0598 0.079,0.0598 -7e-5,0 0.0364,0.0136 0.0404,0.0136 0.004,0.003 0.0262,0.017 0.0333,0.0204 0.0184,0.0102 0.0585,0.0204 0.0931,0.0388 -0.0197,-0.007 0.0528,0.007 0.0333,0 -0.10082,-0.0571 -0.18371,-0.10268 -0.36547,-0.20571 a 5.3391964,5.3391964 0 0 1 -0.0545,-0.034 c -0.2563,-0.14518 -0.51623,-0.29308 -0.51657,-0.29342 z m 15.70079,0.25841 c -0.19577,0.12546 -0.41305,0.1972 -0.57454,0.31994 a 5.3391964,5.3391964 0 0 1 -0.19153,0.28629 h 0.007 z m -0.99272,0.74498 c -0.14134,0.0789 -0.30083,0.0428 -0.44453,0.11425 -0.18537,0.0809 -0.2513,0.21964 -0.49021,0.29886 z m 24.84963,0.46561 v 2.42471 c 0.0568,-0.14926 0.10966,-0.30464 0.15814,-0.46914 -0.098,-0.65913 -0.15814,-1.31521 -0.15814,-1.95557 z m 10.52108,0.034 c -0.003,-0.002 -0.004,0 -0.002,0.0136 -0.037,0.0768 -0.003,0.0238 -0.3514,0.63781 a 5.3391964,5.3391964 0 0 1 0.4129,-0.56226 c -0.0272,-0.0371 -0.0522,-0.0819 -0.0597,-0.0877 z m -14.85039,0.12648 c -0.003,-0.003 0.003,0.017 0,0.0136 a 5.3391964,5.3391964 0 0 1 0.0139,0.0136 c -0.0224,-0.0272 0.01,-0.003 -0.0139,-0.0272 z"/><path id="rect17257" style="fill:#ffffff;fill-opacity:0.552361;stroke:none;stroke-width:30.5522;stroke-linejoin:miter;stroke-dasharray:none;stroke-opacity:1" d="m 710.81367,174.72282 -6.31827,6.16189 v 96.10235 h 14.1634 L 823.52168,174.72282 Z"/><path id="path22256" style="fill:#ffffff;fill-opacity:0.548255;stroke:none;stroke-width:30.5522;stroke-linejoin:miter;stroke-dasharray:none;stroke-opacity:1" d="m 837.08754,174.72317 -101.15268,102.14989 23.39721,0.11424 h 14.16339 L 878.35831,174.72317 Z"/><rect style="fill:none;fill-opacity:1;stroke:#525963;stroke-width:1.61928;stroke-linejoin:round;stroke-dasharray:none;stroke-opacity:1" id="rect25600" width="278.90491" height="102.26514" x="704.49548" y="174.72211"/></g></g></svg>