<svg width="25" height="24" viewBox="0 0 25 24" fill="none" xmlns="http://www.w3.org/2000/svg">
<path d="M10.75 14.709H13.7376V17.6966H10.75V14.709Z" fill="#FFB300"/>
<path d="M14.5484 18.8185H9.93359V17.3731C9.93359 17.1015 10.1556 16.8795 10.4272 16.8795H14.0572C14.3288 16.8795 14.5508 17.1015 14.5508 17.3731V18.8185H14.5484Z" fill="#FFE606"/>
<path d="M16.8735 24.0001H7.61079C7.33919 24.0001 7.11719 23.7781 7.11719 23.5065V19.3002C7.11719 19.0286 7.33919 18.8066 7.61079 18.8066H16.8759C17.1475 18.8066 17.3695 19.0286 17.3695 19.3002V23.5065C17.3671 23.7805 17.1475 24.0001 16.8735 24.0001Z" fill="#FFA237"/>
<path d="M15.225 22.7678H9.25929C9.12231 22.7678 9.01367 22.6568 9.01367 22.5222V20.1392C9.01367 20.0022 9.12467 19.8936 9.25929 19.8936H15.225C15.362 19.8936 15.4707 20.0046 15.4707 20.1392V22.5198C15.4707 22.6568 15.362 22.7678 15.225 22.7678Z" fill="#FFE500"/>
<path d="M6.22479 2.87443V9.60066C4.24565 9.32433 2.71761 7.62152 2.71761 5.56681V2.87443H6.22479M7.45762 1.6416H2.46963C1.92407 1.6416 1.48242 2.08325 1.48242 2.62881V5.56917C1.48242 8.50009 3.85833 10.876 6.78925 10.876H7.45762V1.6416V1.6416ZM21.7674 2.87443V5.444C21.7674 7.52233 20.2464 9.25348 18.2602 9.58176V2.87443H21.7674M22.0154 1.6416H17.0274V10.8736H17.5729C20.57 10.8736 23.0002 8.44341 23.0002 5.44636V2.62881C23.0026 2.08325 22.5586 1.6416 22.0154 1.6416V1.6416Z" fill="#FFE600"/>
<path d="M12.2409 15.3021C8.39834 15.3021 5.2832 12.1869 5.2832 8.34437V0.652194C5.2832 0.394765 5.4934 0.18457 5.75083 0.18457H18.7286C18.986 0.18457 19.1962 0.394765 19.1962 0.652194V8.34437C19.1986 12.1869 16.0834 15.3021 12.2409 15.3021Z" fill="#FFA237"/>
<path d="M18.7441 10.8264L15.2676 6.25879L10.3906 9.75416L14.3347 14.983C15.3715 14.6406 16.0966 14.1824 16.7886 13.6062C17.6128 12.9189 18.2741 12.0049 18.7441 10.8264V10.8264Z" fill="#FFB806"/>
<path d="M12.4864 4.2114L13.2257 5.70638C13.2611 5.7796 13.3319 5.82919 13.4122 5.841L15.0631 6.0819C15.2662 6.11024 15.3465 6.36058 15.2001 6.50229L14.005 7.66663C13.946 7.72331 13.92 7.80597 13.9342 7.88391L14.2152 9.52767C14.2507 9.72842 14.0381 9.88194 13.8562 9.78747L12.2644 8.95141L10.6726 9.78747C10.4908 9.88194 10.2806 9.72842 10.3136 9.52767L10.5947 7.88391C10.6089 7.80361 10.5829 7.72331 10.5238 7.66663L9.32879 6.50229C9.18236 6.36058 9.26266 6.11024 9.46577 6.0819L11.1166 5.841C11.1969 5.82919 11.2654 5.7796 11.3032 5.70638L12.0424 4.2114C12.1345 4.02719 12.3967 4.02719 12.4864 4.2114V4.2114Z" fill="#FFF8E1"/>
<g filter="url(#filter0_d_123_1801)">
<rect x="4.74219" width="15.0003" height="1.22452" rx="0.518586" fill="#FFDA58"/>
</g>
<defs>
<filter id="filter0_d_123_1801" x="4.74219" y="0" width="15.0005" height="1.48378" filterUnits="userSpaceOnUse" color-interpolation-filters="sRGB">
<feFlood flood-opacity="0" result="BackgroundImageFix"/>
<feColorMatrix in="SourceAlpha" type="matrix" values="0 0 0 0 0 0 0 0 0 0 0 0 0 0 0 0 0 0 127 0" result="hardAlpha"/>
<feOffset dy="0.259293"/>
<feComposite in2="hardAlpha" operator="out"/>
<feColorMatrix type="matrix" values="0 0 0 0 0.866667 0 0 0 0 0.653023 0 0 0 0 0 0 0 0 1 0"/>
<feBlend mode="normal" in2="BackgroundImageFix" result="effect1_dropShadow_123_1801"/>
<feBlend mode="normal" in="SourceGraphic" in2="effect1_dropShadow_123_1801" result="shape"/>
</filter>
</defs>
</svg>
