<svg width="33" height="32" viewBox="0 0 33 32" fill="none" xmlns="http://www.w3.org/2000/svg">
<path d="M8.33325 15H13.6666" stroke="white" stroke-width="3" stroke-linecap="round" stroke-linejoin="round"/>
<path d="M11 12.3333V17.6666" stroke="white" stroke-width="3" stroke-linecap="round" stroke-linejoin="round"/>
<path d="M20.3333 16.3333H20.3466" stroke="white" stroke-width="3" stroke-linecap="round" stroke-linejoin="round"/>
<path d="M24.3333 13.6666H24.3466" stroke="white" stroke-width="3" stroke-linecap="round" stroke-linejoin="round"/>
<path d="M23.4267 7H9.24C7.92037 7.00031 6.64772 7.48983 5.66804 8.37395C4.68837 9.25807 4.07126 10.474 3.936 11.7867C3.928 11.856 3.92267 11.9213 3.91333 11.9893C3.80533 12.888 3 19.608 3 21.6667C3 22.7275 3.42143 23.7449 4.17157 24.4951C4.92172 25.2452 5.93913 25.6667 7 25.6667C8.33333 25.6667 9 25 9.66667 24.3333L11.552 22.448C12.052 21.9479 12.7301 21.6668 13.4373 21.6667H19.2293C19.9365 21.6668 20.6147 21.9479 21.1147 22.448L23 24.3333C23.6667 25 24.3333 25.6667 25.6667 25.6667C26.7275 25.6667 27.7449 25.2452 28.4951 24.4951C29.2452 23.7449 29.6667 22.7275 29.6667 21.6667C29.6667 19.6067 28.8613 12.888 28.7533 11.9893C28.744 11.9227 28.7387 11.856 28.7307 11.788C28.5957 10.4751 27.9787 9.25884 26.999 8.37445C26.0193 7.49005 24.7465 7.00034 23.4267 7Z" stroke="white" stroke-width="3" stroke-linecap="round" stroke-linejoin="round"/>
</svg>
