<svg width="338" height="71" viewBox="0 0 338 71" fill="none" xmlns="http://www.w3.org/2000/svg">
<mask id="mask0_2_12555" style="mask-type:luminance" maskUnits="userSpaceOnUse" x="0" y="15" width="338" height="56">
<path d="M0.0683594 15.0834H337.879V70.9167H0.0683594V15.0834Z" fill="white"/>
</mask>
<g mask="url(#mask0_2_12555)">
<path d="M323.487 43.6224C328.298 52.2471 333.101 60.6732 337.884 68.9024C321.324 71.2624 304.509 71.2624 287.95 68.9024C287.95 51.0801 287.95 33.2595 287.95 15.4388C304.51 17.7956 321.324 17.7956 337.884 15.4388C333.101 25.0287 328.298 34.4248 323.487 43.6224ZM0.0898438 15.4388C4.87337 25.0287 9.67643 34.4248 14.4893 43.6224C9.67643 52.2471 4.87337 60.6732 0.0898438 68.9024C16.6523 71.2624 33.4639 71.2624 50.0264 68.9024C50.0264 51.0801 50.0264 33.2595 50.0264 15.4388C33.4639 17.7956 16.6523 17.7956 0.0898438 15.4388Z" fill="#D35150"/>
<path d="M307.979 34.0107V56.6035L287.951 68.9017V34.0107H307.979ZM30 56.6051L50.026 68.9017V34.0107H30V56.6051Z" fill="#A53E48"/>
</g>
<mask id="mask1_2_12555" style="mask-type:luminance" maskUnits="userSpaceOnUse" x="29" y="0" width="280" height="68">
<path d="M29.834 0.457642H308.167V67.5833H29.834V0.457642Z" fill="white"/>
</mask>
<g mask="url(#mask1_2_12555)">
<path d="M307.979 0.46582C307.979 19.1784 307.979 37.891 307.979 56.6051C215.892 71.2048 122.085 71.2048 30 56.6051C30 37.891 30 19.1784 30 0.46582C122.085 15.0654 215.892 15.0654 307.979 0.46582Z" fill="#E96854"/>
<path d="M74.7676 39.5073L77.4954 23.1987L84.0254 24.2925C85.8223 24.5968 87.1064 25.217 87.8796 26.1545C88.6559 27.0887 88.9424 28.1646 88.7389 29.3836C88.5778 30.3439 88.1693 31.0731 87.515 31.5711C86.859 32.0708 86.0908 32.3442 85.2103 32.3914L85.1842 32.5477C85.8044 32.6828 86.3577 32.9578 86.8444 33.3745C87.3343 33.7879 87.7005 34.3104 87.9447 34.9435C88.1872 35.5783 88.2409 36.3009 88.1074 37.1115C87.9642 37.9757 87.6208 38.7114 87.0788 39.3185C86.5352 39.9256 85.8125 40.3553 84.9108 40.6076C84.0124 40.8582 82.9528 40.8827 81.7337 40.6792L74.7676 39.5073ZM78.6868 37.2677L81.4993 37.7365C82.4629 37.9025 83.1937 37.8341 83.6934 37.5347C84.1963 37.2319 84.5007 36.7762 84.6048 36.1675C84.7171 35.4953 84.569 34.9028 84.1621 34.3901C83.7536 33.8791 83.1335 33.5535 82.3001 33.4136L79.416 32.9318L78.6868 37.2677ZM79.8066 30.6011L82.3587 31.0308C83.0651 31.148 83.682 31.0617 84.2077 30.7703C84.7367 30.4806 85.0557 30.0135 85.1647 29.3706C85.264 28.7814 85.1354 28.2703 84.7806 27.8407C84.429 27.411 83.8691 27.131 83.1009 27.0008L80.4837 26.5646L79.8066 30.6011Z" fill="white"/>
<path d="M92.6569 42.3847L88.9395 41.8769L96.8301 26.2649L101.296 26.8704L104.714 44.0253L100.997 43.5175L100.294 39.6178L94.3757 38.8105L92.6569 42.3847ZM95.6322 36.2258L99.7923 36.7922L98.6204 30.3209L98.4902 30.3014L95.6322 36.2258ZM100.561 24.9823L98.0345 24.6373L98.0475 23.1724C98.6204 23.2245 99.0339 23.2034 99.291 23.1073C99.5514 23.0129 99.6898 22.8632 99.7077 22.6581C99.7549 22.3684 99.6312 22.1536 99.3366 22.0136C99.0404 21.8704 98.6628 21.7662 98.2038 21.7011L98.5098 20.1711C99.9323 20.3665 100.99 20.705 101.68 21.1868C102.374 21.6685 102.672 22.2528 102.572 22.9381C102.51 23.4247 102.283 23.7681 101.889 23.9667C101.498 24.1669 101.085 24.2711 100.652 24.2792L100.561 24.9823Z" fill="white"/>
<path d="M122.406 29.2593L120.7 45.7046L117.699 45.3921L111.618 34.2983L111.494 34.2853L110.42 44.6369L106.943 44.2788L108.649 27.8335L111.696 28.146L117.725 39.2267L117.868 39.2397L118.942 28.9012L122.406 29.2593Z" fill="white"/>
<path d="M135.557 35.5938C135.391 34.8093 135.026 34.1746 134.463 33.6928C133.903 33.211 133.176 32.9376 132.282 32.8725C131.019 32.7862 129.961 33.1817 129.112 34.0574C128.265 34.9298 127.78 36.2254 127.66 37.9441C127.538 39.6726 127.826 41.0333 128.526 42.0261C129.224 43.0206 130.231 43.5658 131.547 43.6602C132.705 43.7433 133.636 43.5073 134.34 42.9506C135.046 42.3907 135.448 41.6013 135.544 40.5808L132.002 40.3269L132.185 37.7032L139.092 38.198L138.949 40.2813C138.845 41.7234 138.448 42.9441 137.758 43.9467C137.071 44.9461 136.172 45.685 135.062 46.1668C133.955 46.6485 132.707 46.8406 131.319 46.7462C129.764 46.6323 128.428 46.1928 127.308 45.4246C126.189 44.6563 125.345 43.6179 124.782 42.3061C124.217 40.991 123.998 39.4643 124.125 37.7227C124.25 35.9389 124.699 34.4399 125.472 33.224C126.244 32.0099 127.237 31.1082 128.448 30.5222C129.662 29.933 130.995 29.6889 132.445 29.7931C133.69 29.8809 134.802 30.1951 135.778 30.7371C136.755 31.2807 137.533 31.992 138.116 32.8725C138.702 33.7546 139.03 34.7459 139.105 35.8477L135.557 35.5938Z" fill="white"/>
<path d="M150.443 30.9839L153.613 36.7131L153.743 36.7196L157.253 31.1857L161.204 31.2964L155.918 39.4214L160.833 47.8328L156.816 47.7157L153.587 41.9735L153.457 41.967L149.909 47.5138L145.898 47.3966L151.322 39.2847L146.478 30.8667L150.443 30.9839Z" fill="white"/>
<path d="M163.154 47.8364L163.161 31.2999L174.307 31.3064V34.184L166.657 34.1775V38.1228L173.734 38.1293L173.727 41.0134L166.65 41.0069V44.9522L174.333 44.9587V47.8429L163.154 47.8364ZM164.561 29.9392L167.816 27.4262H169.671L172.939 29.9457H170.459L168.76 28.5851L167.028 29.9392H164.561ZM172.093 28.5265L173.981 25.4991H176.65L174.04 28.5265H172.093Z" fill="white"/>
<path d="M177.3 47.8055L176.857 31.2756L183.381 31.0998C184.631 31.0656 185.702 31.2739 186.597 31.7248C187.495 32.1773 188.187 32.8185 188.674 33.6519C189.164 34.482 189.424 35.4455 189.455 36.5425C189.484 37.646 189.273 38.6193 188.817 39.4657C188.365 40.312 187.697 40.9826 186.812 41.4774C185.93 41.9722 184.855 42.2375 183.589 42.2717L180.653 42.3498L180.796 47.7144L177.3 47.8055ZM180.575 39.5503L182.951 39.4852C183.949 39.4592 184.686 39.1841 185.165 38.6584C185.642 38.1343 185.869 37.4605 185.848 36.6402C185.826 35.8198 185.563 35.1655 185.061 34.674C184.556 34.1841 183.799 33.9514 182.788 33.9774L180.432 34.0425L180.575 39.5503Z" fill="white"/>
<path d="M197.611 47.1117L196.504 30.6143L199.987 30.3799L200.443 37.1833L207.526 36.708L207.07 29.9047L210.553 29.6703L211.66 46.1677L208.177 46.4021L207.721 39.5857L200.638 40.0609L201.094 46.8773L197.611 47.1117Z" fill="white"/>
<path d="M217.627 45.6293L213.896 46.0004L217.933 28.9822L222.419 28.533L229.736 44.4184L225.999 44.7895L224.411 41.1632L218.473 41.7556L217.627 45.6293ZM219.085 38.9431L223.265 38.533L220.622 32.5108L220.492 32.5238L219.085 38.9431ZM222.275 49.835C221.768 49.8822 221.313 49.7537 220.915 49.4509C220.514 49.1514 220.291 48.7625 220.244 48.2856C220.195 47.807 220.337 47.3806 220.667 47.003C221.001 46.6287 221.423 46.4187 221.93 46.3715C222.433 46.3194 222.882 46.4431 223.278 46.7426C223.677 47.0453 223.9 47.436 223.949 47.9145C223.996 48.3914 223.854 48.8162 223.525 49.1905C223.195 49.5681 222.778 49.783 222.275 49.835Z" fill="white"/>
<path d="M243.507 25.9429L245.674 42.3361L242.68 42.7267L234.184 33.3517L234.06 33.3713L235.421 43.6903L231.957 44.146L229.789 27.7528L232.829 27.3491L241.273 36.7241L241.41 36.7046L240.049 26.3986L243.507 25.9429Z" fill="white"/>
<path d="M257.775 29.0525C257.427 28.3201 256.924 27.7863 256.265 27.451C255.609 27.1173 254.839 27.0213 253.954 27.1645C252.707 27.3728 251.773 28.0027 251.148 29.0525C250.526 30.0991 250.357 31.4728 250.64 33.1736C250.922 34.8842 251.519 36.1407 252.43 36.9432C253.342 37.7472 254.445 38.0402 255.744 37.8221C256.89 37.6365 257.74 37.1905 258.296 36.4874C258.856 35.781 259.061 34.9184 258.915 33.9028L255.412 34.4822L254.989 31.8846L261.818 30.7583L262.157 32.8155C262.391 34.2397 262.29 35.5206 261.857 36.6567C261.423 37.7895 260.72 38.7205 259.748 39.4497C258.78 40.1756 257.609 40.6525 256.239 40.882C254.702 41.1342 253.3 41.017 252.033 40.5304C250.765 40.0405 249.704 39.2251 248.85 38.0825C247.998 36.9366 247.43 35.5027 247.144 33.7791C246.854 32.0131 246.94 30.449 247.404 29.0851C247.873 27.7228 248.628 26.6144 249.67 25.7583C250.715 24.9038 251.955 24.3585 253.387 24.1241C254.619 23.9207 255.773 23.9711 256.851 24.2739C257.932 24.5782 258.858 25.0909 259.631 25.8103C260.402 26.5265 260.952 27.4152 261.278 28.4731L257.775 29.0525Z" fill="white"/>
</g>
</svg>
