<svg xmlns:inkscape="http://www.inkscape.org/namespaces/inkscape" xmlns:sodipodi="http://sodipodi.sourceforge.net/DTD/sodipodi-0.dtd" xmlns="http://www.w3.org/2000/svg" xmlns:svg="http://www.w3.org/2000/svg" width="45" height="45" viewBox="0 0 11.906249 11.90625" version="1.1" id="svg3531" inkscape:version="1.2 (dc2aedaf03, 2022-05-15)" sodipodi:docname="settingsGear.svg">
  <sodipodi:namedview id="namedview3533" pagecolor="#505050" bordercolor="#ffffff" borderopacity="1" inkscape:showpageshadow="0" inkscape:pageopacity="0" inkscape:pagecheckerboard="1" inkscape:deskcolor="#505050" inkscape:document-units="px" showgrid="false" inkscape:zoom="2.6116517" inkscape:cx="-11.104084" inkscape:cy="32.546453" inkscape:window-width="1366" inkscape:window-height="705" inkscape:window-x="-8" inkscape:window-y="-8" inkscape:window-maximized="1" inkscape:current-layer="layer1"/>
  <defs id="defs3528"/>
  <g inkscape:label="Layer 1" inkscape:groupmode="layer" id="layer1" transform="translate(-1.3713056)">
    <path id="rect2699" style="fill:#a2abb1;fill-opacity:1;stroke:none;stroke-width:0.193567;stroke-linecap:round;stroke-linejoin:round;stroke-dasharray:none;stroke-opacity:1;stop-color:#000000" d="M 7.9437945,0.35607702 C 7.7797458,0.31212031 7.6125858,0.40910136 7.56863,0.57314658 L 7.2945192,1.5961421 A 4.4566222,4.4566222 45 0 0 6.3302711,1.707607 L 5.7272008,0.69711721 C 5.640249,0.55107674 5.4533046,0.5039724 5.3075458,0.59060727 L 3.8577165,1.4552897 C 3.7118485,1.5422833 3.6646492,1.729808 3.751612,1.8756468 L 4.2931213,2.7835644 A 4.4566222,4.4566222 45 0 0 3.4676108,3.8173133 L 2.5204952,3.5635344 C 2.356448,3.5195781 2.1887326,3.6164102 2.1447768,3.7804556 L 1.70801,5.4104913 c -0.043956,0.1640452 0.053022,0.3312082 0.2170696,0.3751645 L 2.8677641,6.0382473 A 4.4566222,4.4566222 45 0 0 3.0092032,7.1719955 L 2.2132077,7.6170501 C 2.064945,7.6998701 2.0120661,7.8858639 2.0949182,8.0341423 l 0.8233962,1.4731979 c 0.082784,0.1483883 0.268737,0.2014132 0.416939,0.1188619 L 4.1450026,9.1741273 A 4.4566222,4.4566222 45 0 0 5.0713571,9.893096 l -0.2254327,0.841326 c -0.043956,0.164046 0.052872,0.331762 0.2169211,0.375719 l 0.011631,0.0031 1.6184044,0.43365 0.012185,0.0033 c 0.1640476,0.04396 0.3312085,-0.05302 0.3751646,-0.217069 l 0.2224645,-0.830249 a 4.4566222,4.4566222 45 0 0 1.1771601,-0.150585 l 0.4627703,0.776404 c 0.087001,0.145859 0.2745819,0.1928 0.4205108,0.105532 l 1.449681,-0.864129 c 0.145857,-0.08699 0.193268,-0.275052 0.10626,-0.4209087 L 10.472513,9.2008714 a 4.4566222,4.4566222 45 0 0 0.711036,-0.9344161 l 0.900591,0.2413125 c 0.164049,0.043957 0.331614,-0.052322 0.37557,-0.2163671 L 12.896477,6.6613649 C 12.940433,6.4973196 12.843605,6.3296032 12.679556,6.2856464 L 11.777304,6.0438888 A 4.4566222,4.4566222 45 0 0 11.569367,4.7041404 l 0.887954,-0.4958059 c 0.14827,-0.082808 0.201087,-0.2688279 0.118282,-0.4170941 L 11.752362,2.3174907 C 11.669546,2.1692143 11.484045,2.1167267 11.335675,2.1999034 L 10.329076,2.7618683 A 4.4566222,4.4566222 45 0 0 9.5326841,2.1804221 L 9.8029363,1.1718271 C 9.8468921,1.0077819 9.7506166,0.84021355 9.5865692,0.79625717 L 9.574384,0.79299217 7.9559796,0.35934203 Z M 7.7904336,4.2139768 A 1.8006698,1.8006698 0 0 1 9.0635782,6.4191279 1.8006698,1.8006698 0 0 1 6.8584271,7.6922726 1.8006698,1.8006698 0 0 1 5.5852825,5.4871214 1.8006698,1.8006698 0 0 1 7.7904336,4.2139768 Z"/>
    <path id="path1796" style="fill:#74828b;fill-opacity:1;fill-rule:evenodd;stroke:#2b3033;stroke-width:0.210364;stroke-dasharray:none;stroke-opacity:1" d="M 8.1108354,3.0182208 A 3.0385617,3.0385617 0 0 0 4.3895265,5.1667195 3.0385617,3.0385617 0 0 0 6.5380252,8.8880286 3.0385617,3.0385617 0 0 0 10.259334,6.7395297 3.0385617,3.0385617 0 0 0 8.1108354,3.0182208 Z M 7.8699144,3.9173503 A 2.1077526,2.1077526 0 0 1 9.3602047,6.4986087 2.1077526,2.1077526 0 0 1 6.7789462,7.988899 2.1077526,2.1077526 0 0 1 5.288656,5.4076406 2.1077526,2.1077526 0 0 1 7.8699144,3.9173503 Z"/>
    <path id="rect2963" style="fill:#dfe3e5;fill-opacity:0.330224;stroke:none;stroke-width:0.247167;stroke-linecap:round;stroke-linejoin:round;stroke-dasharray:none;stroke-dashoffset:459.891;stroke-opacity:1;stop-color:#000000" d="M 7.9437945,0.35607702 C 7.7797458,0.31212031 7.6125858,0.40910136 7.56863,0.57314658 L 7.2945192,1.5961421 A 4.4566222,4.4566222 45 0 0 6.3302711,1.707607 L 5.7272008,0.69711721 C 5.640249,0.55107674 5.4533046,0.5039724 5.3075458,0.59060727 L 3.8577165,1.4552897 C 3.7118485,1.5422833 3.6646492,1.729808 3.751612,1.8756468 L 4.2931213,2.7835644 A 4.4566222,4.4566222 45 0 0 3.4676108,3.8173133 L 2.5204952,3.5635344 C 2.356448,3.5195781 2.1887326,3.6164102 2.1447768,3.7804556 L 1.70801,5.4104913 c -0.027664,0.1032438 7.634e-4,0.2077188 0.066333,0.2819412 L 9.8112055,1.0523477 C 9.795834,0.93290733 9.7104615,0.82945403 9.5865692,0.79625717 L 9.574384,0.79299217 7.9559796,0.35934203 Z M 11.568704,2.1721107 C 11.49343,2.1508542 11.409861,2.158315 11.335675,2.1999035 L 10.329076,2.7618683 A 4.4566222,4.4566222 45 0 0 10.064657,2.5390467 L 7.9880222,3.7379921 A 2.3150245,2.3150245 0 0 1 9.5131767,5.2086685 L 12.427628,3.5260092 11.752362,2.3174907 c -0.04141,-0.07414 -0.108385,-0.1241205 -0.183658,-0.14538 z M 5.0742734,5.4202458 2.9133658,6.6678464 a 4.4566222,4.4566222 45 0 0 0.095837,0.5041491 L 2.2132077,7.6170501 C 2.064945,7.6998701 2.0120661,7.8858639 2.0949182,8.0341423 L 2.7109179,9.1359544 5.5853392,7.4764065 A 2.3150245,2.3150245 0 0 1 5.0742734,5.4202458 Z"/>
    <path id="path1007" style="fill:none;fill-opacity:1;stroke:#000000;stroke-width:0.436562;stroke-linecap:round;stroke-linejoin:round;stroke-dasharray:none;stroke-opacity:1;stop-color:#000000" d="M 7.9437945,0.35607702 C 7.7797458,0.31212031 7.6125858,0.40910136 7.56863,0.57314658 L 7.2945192,1.5961421 A 4.4566222,4.4566222 45 0 0 6.3302711,1.707607 L 5.7272008,0.69711721 C 5.640249,0.55107674 5.4533046,0.5039724 5.3075458,0.59060727 L 3.8577165,1.4552897 C 3.7118485,1.5422833 3.6646492,1.729808 3.751612,1.8756468 L 4.2931213,2.7835644 A 4.4566222,4.4566222 45 0 0 3.4676108,3.8173133 L 2.5204952,3.5635344 C 2.356448,3.5195781 2.1887326,3.6164102 2.1447768,3.7804556 L 1.70801,5.4104913 c -0.043956,0.1640452 0.053022,0.3312082 0.2170696,0.3751645 L 2.8677641,6.0382473 A 4.4566222,4.4566222 45 0 0 3.0092032,7.1719955 L 2.2132077,7.6170501 C 2.064945,7.6998701 2.0120661,7.8858639 2.0949182,8.0341423 l 0.8233962,1.4731979 c 0.082784,0.1483883 0.268737,0.2014132 0.416939,0.1188619 L 4.1450026,9.1741273 A 4.4566222,4.4566222 45 0 0 5.0713571,9.893096 l -0.2254327,0.841326 c -0.043956,0.164046 0.052872,0.331762 0.2169211,0.375719 l 0.011631,0.0031 1.6184044,0.43365 0.012185,0.0033 c 0.1640476,0.04396 0.3312085,-0.05302 0.3751646,-0.217069 l 0.2224645,-0.830249 a 4.4566222,4.4566222 45 0 0 1.1771601,-0.150585 l 0.4627703,0.776404 c 0.087001,0.145859 0.2745819,0.1928 0.4205108,0.105532 l 1.449681,-0.864129 c 0.145857,-0.08699 0.193268,-0.275052 0.10626,-0.4209087 L 10.472513,9.2008714 a 4.4566222,4.4566222 45 0 0 0.711036,-0.9344161 l 0.900591,0.2413125 c 0.164049,0.043957 0.331614,-0.052322 0.37557,-0.2163671 L 12.896477,6.6613649 C 12.940433,6.4973196 12.843605,6.3296032 12.679556,6.2856464 L 11.777304,6.0438888 A 4.4566222,4.4566222 45 0 0 11.569367,4.7041404 l 0.887954,-0.4958059 c 0.14827,-0.082808 0.201087,-0.2688279 0.118282,-0.4170941 L 11.752362,2.3174907 C 11.669546,2.1692143 11.484045,2.1167267 11.335675,2.1999034 L 10.329076,2.7618683 A 4.4566222,4.4566222 45 0 0 9.5326841,2.1804221 L 9.8029363,1.1718271 C 9.8468921,1.0077819 9.7506166,0.84021355 9.5865692,0.79625717 L 9.574384,0.79299217 7.9559796,0.35934203 Z M 7.7904336,4.2139768 A 1.8006698,1.8006698 0 0 1 9.0635782,6.4191279 1.8006698,1.8006698 0 0 1 6.8584271,7.6922726 1.8006698,1.8006698 0 0 1 5.5852825,5.4871214 1.8006698,1.8006698 0 0 1 7.7904336,4.2139768 Z"/>
  </g>
</svg>