<svg width="25" height="25" viewBox="0 0 25 25" fill="none" xmlns="http://www.w3.org/2000/svg">
<path d="M13.5 21H21.5" stroke="#00454A" stroke-width="3" stroke-linecap="round" stroke-linejoin="round"/>
<path d="M15.5 5L19.5 9" stroke="#00454A" stroke-width="3" stroke-linecap="round" stroke-linejoin="round"/>
<path d="M21.6739 6.81202C22.2026 6.28344 22.4997 5.56648 22.4998 4.81887C22.4999 4.07126 22.203 3.35422 21.6744 2.82552C21.1459 2.29681 20.4289 1.99973 19.6813 1.99963C18.9337 1.99954 18.2166 2.29644 17.6879 2.82502L4.34194 16.174C4.10975 16.4055 3.93805 16.6906 3.84193 17.004L2.52093 21.356C2.49509 21.4425 2.49314 21.5344 2.51529 21.6219C2.53743 21.7094 2.58285 21.7892 2.64673 21.853C2.71061 21.9168 2.79055 21.9621 2.87809 21.9841C2.96563 22.0061 3.05749 22.004 3.14393 21.978L7.49694 20.658C7.81011 20.5628 8.09511 20.3921 8.32694 20.161L21.6739 6.81202Z" stroke="#00454A" stroke-width="3" stroke-linecap="round" stroke-linejoin="round"/>
</svg>
