<svg xmlns="http://www.w3.org/2000/svg" width="917.244" height="223.401"><defs><filter id="c" width="1" height="1.081" x="0" y="0" style="color-interpolation-filters:sRGB"><feFlood flood-color="#000" flood-opacity=".243" result="flood"/><feComposite in="flood" in2="SourceGraphic" operator="in" result="composite1"/><feGaussianBlur in="composite1" result="blur"/><feOffset dx=".156" dy="14.175" result="offset"/><feComposite in="SourceGraphic" in2="offset" result="composite2"/></filter><filter id="a" width="1.001" height="1.074" x="0" y="0" style="color-interpolation-filters:sRGB"><feFlood flood-color="#000" flood-opacity=".243" result="flood"/><feComposite in="flood" in2="SourceGraphic" operator="in" result="composite1"/><feGaussianBlur in="composite1" result="blur"/><feOffset dx=".156" dy="14.175" result="offset"/><feComposite in="SourceGraphic" in2="offset" result="composite2"/></filter><filter id="b" width="1.001" height="1.074" x="0" y="0" style="color-interpolation-filters:sRGB"><feFlood flood-color="#000" flood-opacity=".243" result="flood"/><feComposite in="flood" in2="SourceGraphic" operator="in" result="composite1"/><feGaussianBlur in="composite1" result="blur"/><feOffset dx=".156" dy="14.175" result="offset"/><feComposite in="SourceGraphic" in2="offset" result="composite2"/></filter></defs><g style="filter:url(#a)" transform="matrix(-.9431 0 0 .92125 1146.247 205.2)"><path d="m-219.041-169.898 74.418 82.843-74.418 82.842H26.678v-165.685Z" style="opacity:1;fill:#0d57fc;fill-opacity:1;stroke-width:42.7227;stroke-linecap:round;stroke-linejoin:round;stroke-miterlimit:9.4;paint-order:stroke fill markers" transform="matrix(.90503 -.12205 .12487 .97045 462.272 -17.063)"/><path d="M-219.041-169.898H26.678v9.924l-239.754-3.284z" style="opacity:1;fill:#60b6fe;fill-opacity:1;stroke-width:31.0887;stroke-linecap:round;stroke-linejoin:round;stroke-miterlimit:9.4;paint-order:stroke fill markers" transform="matrix(.90503 -.12205 .12487 .97045 462.272 -17.063)"/><path d="M-144.623-87.055h8.723l-73.876 82.842h-9.265z" style="opacity:1;fill:#60b6fe;fill-opacity:1;stroke-width:40.1083;stroke-linecap:round;stroke-linejoin:round;stroke-miterlimit:9.4;paint-order:stroke fill markers" transform="matrix(.90503 -.12205 .12487 .97045 462.272 -17.063)"/></g><g style="filter:url(#b)" transform="matrix(.9431 0 0 .92125 -229.003 205.2)"><path d="m-219.041-169.898 74.418 82.843-74.418 82.842H26.678v-165.685Z" style="opacity:1;fill:#0d57fc;fill-opacity:1;stroke-width:42.7227;stroke-linecap:round;stroke-linejoin:round;stroke-miterlimit:9.4;paint-order:stroke fill markers" transform="matrix(.90503 -.12205 .12487 .97045 462.272 -17.063)"/><path d="M-219.041-169.898H26.678v9.924l-239.754-3.284z" style="opacity:1;fill:#60b6fe;fill-opacity:1;stroke-width:31.0887;stroke-linecap:round;stroke-linejoin:round;stroke-miterlimit:9.4;paint-order:stroke fill markers" transform="matrix(.90503 -.12205 .12487 .97045 462.272 -17.063)"/><path d="M-144.623-87.055h8.723l-73.876 82.842h-9.265z" style="opacity:1;fill:#60b6fe;fill-opacity:1;stroke-width:40.1083;stroke-linecap:round;stroke-linejoin:round;stroke-miterlimit:9.4;paint-order:stroke fill markers" transform="matrix(.90503 -.12205 .12487 .97045 462.272 -17.063)"/></g><path d="M130.693 7.921h708.911v174.257H130.693z" style="opacity:1;fill:#3581ff;fill-opacity:1;stroke-width:40.1083;stroke-linecap:round;stroke-linejoin:round;stroke-miterlimit:9.4;paint-order:stroke fill markers;filter:url(#c)" transform="translate(-26.705 -7.92)"/><path d="M130.693 7.921h708.911v6.416H130.693z" style="opacity:1;fill:#74cfff;fill-opacity:1;stroke-width:7.69595;stroke-linecap:round;stroke-linejoin:round;stroke-miterlimit:9.4;paint-order:stroke fill markers" transform="translate(-26.705 -7.92)"/><path d="M130.693 7.921h4.821v174.257h-4.821zM834.783 7.921h4.821v174.257h-4.821z" style="opacity:1;fill:#74cfff;fill-opacity:1;stroke-width:30.9167;stroke-linecap:round;stroke-linejoin:round;stroke-miterlimit:9.4;paint-order:stroke fill markers" transform="translate(-26.705 -7.92)"/></svg>