<svg width="868" height="563" viewBox="0 0 868 563" fill="none" xmlns="http://www.w3.org/2000/svg">
<g clip-path="url(#clip0_123_1897)">
<rect width="868" height="563" rx="22" fill="#FFFCFB"/>
<g opacity="0.06">
<path d="M450.214 560.716H448.016L419.441 -49.4766H478.789L450.214 560.716Z" fill="#FFA015"/>
<path d="M450.083 559.789L448.017 560.716L252.014 -0.619671L307.783 -25.6631L450.083 559.789Z" fill="#FFA015"/>
<path d="M449.7 558.973L448.016 560.716L34.7773 -16.9334L80.241 -64L449.7 558.973Z" fill="#FFA015"/>
<path d="M449 558.38L447.696 561.166L-77 235.506L-41.8212 160.292L449 558.38Z" fill="#FFA015"/>
<path d="M448.398 558.045L448.016 560.716L-44 489.477L-33.694 417.366L448.398 558.045Z" fill="#FFA015"/>
<path d="M448.398 563.387L448.016 560.716L930.108 420.037L940.414 492.148L448.398 563.387Z" fill="#FFA015"/>
<path d="M449.115 563.065L448.016 560.716L862.037 225.087L891.71 288.501L449.115 563.065Z" fill="#FFA015"/>
<path d="M449.65 562.277L448 560.697L833.46 -9.60699L878 33.0555L449.65 562.277Z" fill="#FFA015"/>
<path d="M450.081 561.644L448.016 560.716L590.317 -24.7356L646.085 0.30788L450.081 561.644Z" fill="#FFA015"/>
</g>
<path opacity="0.6" d="M441.92 539.124L439.032 537.042C438.827 536.905 438.745 536.632 438.799 536.374L439.689 532.681C439.826 532.103 439.224 531.678 438.813 532.043L436.145 534.444C435.953 534.611 435.693 534.626 435.501 534.474L432.614 532.392C432.162 532.073 431.615 532.575 431.807 533.122L433.038 536.693C433.12 536.936 433.052 537.225 432.874 537.392L430.206 539.793C429.795 540.158 430.041 540.902 430.575 540.872L434.01 540.674C434.242 540.674 434.461 540.811 434.557 541.069L435.789 544.64C435.98 545.187 436.692 545.157 436.829 544.58L437.718 540.887C437.787 540.629 437.978 540.446 438.225 540.431L441.66 540.233C442.193 540.203 442.371 539.443 441.933 539.109L441.92 539.124Z" fill="url(#paint0_linear_123_1897)"/>
<path opacity="0.6" d="M774.57 550.522L771.341 547.558C771.122 547.361 771.04 547.011 771.149 546.707L772.682 542.392C772.915 541.723 772.244 541.115 771.697 541.495L768.166 543.987C767.92 544.155 767.605 544.139 767.386 543.927L764.156 540.963C763.664 540.507 762.925 541.024 763.089 541.723L764.129 546.221C764.197 546.525 764.088 546.859 763.842 547.027L760.311 549.519C759.764 549.899 759.983 550.841 760.626 550.886L764.8 551.175C765.087 551.19 765.333 551.418 765.402 551.737L766.442 556.236C766.606 556.935 767.468 556.995 767.714 556.327L769.247 552.011C769.357 551.707 769.617 551.525 769.904 551.54L774.078 551.829C774.721 551.874 775.049 550.978 774.543 550.522H774.57Z" fill="url(#paint1_linear_123_1897)"/>
<path opacity="0.6" d="M91.3973 563.43L97.6101 555.726C98.0343 555.194 98.1164 554.419 97.788 553.796L93.1215 544.86C92.3962 543.477 93.6963 541.882 95.01 542.52L103.522 546.699C104.11 546.988 104.794 546.821 105.232 546.289L111.445 538.584C112.403 537.399 114.182 538.265 114.032 539.861L113.074 550.149C113.005 550.863 113.361 551.531 113.949 551.82L122.461 555.999C123.775 556.653 123.583 558.78 122.174 559.114L113.074 561.287C112.444 561.439 111.979 562.017 111.91 562.731L110.952 573.019C110.802 574.615 108.914 575.055 108.188 573.672L103.508 564.737C103.18 564.114 102.536 563.795 101.907 563.947L92.8068 566.12C91.3973 566.454 90.4257 564.6 91.3836 563.4L91.3973 563.43Z" fill="url(#paint2_linear_123_1897)"/>
<path opacity="0.6" d="M625.913 396.112L630.511 397.267C630.826 397.343 631.154 397.191 631.319 396.887L633.741 392.389C634.11 391.69 635.068 391.933 635.137 392.738L635.561 397.966C635.588 398.33 635.821 398.619 636.149 398.71L640.747 399.865C641.459 400.048 641.555 401.127 640.884 401.446L636.546 403.512C636.245 403.649 636.067 403.999 636.094 404.363L636.519 409.591C636.587 410.396 635.684 410.822 635.205 410.214L632.099 406.263C631.88 405.989 631.537 405.898 631.236 406.05L626.898 408.117C626.228 408.436 625.585 407.615 625.954 406.916L628.376 402.418C628.541 402.114 628.513 401.704 628.294 401.446L625.188 397.495C624.709 396.887 625.215 395.945 625.927 396.127L625.913 396.112Z" fill="url(#paint3_linear_123_1897)"/>
<g clip-path="url(#clip1_123_1897)">
<path opacity="0.6" d="M111.057 400.552L117.27 393.614C117.694 393.135 117.777 392.437 117.448 391.876L112.768 383.829C112.043 382.584 113.343 381.147 114.656 381.721L123.168 385.485C123.757 385.745 124.441 385.594 124.879 385.115L131.092 378.177C132.05 377.11 133.829 377.89 133.678 379.327L132.72 388.591C132.652 389.234 133.007 389.837 133.596 390.097L142.108 393.86C143.421 394.448 143.23 396.364 141.82 396.665L132.72 398.622C132.091 398.759 131.625 399.279 131.557 399.922L130.599 409.187C130.448 410.624 128.56 411.021 127.835 409.775L123.155 401.729C122.826 401.168 122.183 400.88 121.554 401.017L112.453 402.974C111.044 403.275 110.072 401.605 111.03 400.524L111.057 400.552Z" fill="url(#paint4_linear_123_1897)"/>
<path opacity="0.6" d="M38.3395 367.544L43.6765 365.423C44.0459 365.273 44.2786 364.903 44.2512 364.506L43.8817 358.772C43.827 357.883 44.9354 357.445 45.4965 358.129L49.164 362.549C49.424 362.85 49.8345 362.96 50.204 362.809L55.541 360.688C56.362 360.36 57.1284 361.277 56.6494 362.029L53.5841 366.887C53.3651 367.229 53.4062 367.654 53.6525 367.968L57.32 372.389C57.881 373.073 57.2515 374.085 56.3894 373.867L50.8198 372.443C50.4366 372.348 50.0261 372.512 49.8208 372.84L46.7555 377.698C46.2765 378.451 45.127 378.15 45.0723 377.274L44.7028 371.54C44.6754 371.143 44.4017 370.815 44.0186 370.705L38.449 369.282C37.5868 369.063 37.5047 367.873 38.3395 367.544Z" fill="url(#paint5_linear_123_1897)"/>
<path opacity="0.6" d="M0.400264 475.185L4.34142 473.625C4.61511 473.516 4.77932 473.242 4.76564 472.954L4.49195 468.726C4.4509 468.069 5.27197 467.741 5.6825 468.247L8.39205 471.504C8.58363 471.723 8.88469 471.805 9.15838 471.695L13.0995 470.135C13.7017 469.889 14.2764 470.573 13.9206 471.121L11.6627 474.706C11.5121 474.952 11.5258 475.267 11.7174 475.5L14.4269 478.757C14.8512 479.263 14.3722 480.002 13.7427 479.838L9.63734 478.798C9.34996 478.729 9.0489 478.839 8.89837 479.085L6.64042 482.671C6.28463 483.218 5.43618 483.013 5.39513 482.356L5.12144 478.127C5.10775 477.84 4.90249 477.594 4.61511 477.511L0.509743 476.471C-0.119747 476.307 -0.188172 475.431 0.427633 475.185H0.400264Z" fill="url(#paint6_linear_123_1897)"/>
<path opacity="0.6" d="M35.7388 442.66L41.4452 443.289C41.8421 443.33 42.2116 443.111 42.3758 442.756L44.7432 437.514C45.1127 436.707 46.2896 436.83 46.4812 437.706L47.6443 443.33C47.7264 443.714 48.0412 444.015 48.438 444.056L54.1445 444.685C55.034 444.781 55.2666 445.958 54.5003 446.396L49.5191 449.242C49.177 449.434 48.9991 449.831 49.0812 450.227L50.2444 455.852C50.4223 456.728 49.3823 457.316 48.7254 456.714L44.4695 452.855C44.1821 452.581 43.7442 452.54 43.4021 452.732L38.421 455.578C37.6546 456.016 36.7651 455.209 37.1346 454.401L39.502 449.16C39.6662 448.804 39.5704 448.366 39.2831 448.106L35.0272 444.247C34.3703 443.645 34.863 442.564 35.7388 442.66Z" fill="url(#paint7_linear_123_1897)"/>
<path opacity="0.6" d="M366.303 270.068L372.01 270.697C372.407 270.738 372.776 270.519 372.94 270.163L375.308 264.922C375.677 264.115 376.854 264.238 377.046 265.114L378.209 270.738C378.291 271.121 378.606 271.422 379.003 271.463L384.709 272.093C385.598 272.189 385.831 273.366 385.065 273.804L380.084 276.65C379.741 276.842 379.564 277.238 379.646 277.635L380.809 283.26C380.987 284.136 379.947 284.724 379.29 284.122L375.034 280.263C374.747 279.989 374.309 279.948 373.967 280.14L368.985 282.986C368.219 283.424 367.33 282.617 367.699 281.809L370.067 276.568C370.231 276.212 370.135 275.774 369.848 275.514L365.592 271.655C364.935 271.053 365.427 269.972 366.303 270.068Z" fill="url(#paint8_linear_123_1897)"/>
<path opacity="0.6" d="M256.06 436.83L255.622 442.564C255.595 442.961 255.814 443.33 256.183 443.481L261.493 445.67C262.314 446.013 262.218 447.203 261.356 447.408L255.773 448.763C255.39 448.859 255.102 449.187 255.075 449.584L254.637 455.318C254.569 456.208 253.405 456.481 252.94 455.729L249.929 450.843C249.724 450.501 249.314 450.337 248.93 450.433L243.347 451.787C242.485 451.993 241.856 450.98 242.43 450.296L246.153 445.917C246.413 445.616 246.44 445.178 246.235 444.836L243.224 439.95C242.759 439.198 243.539 438.281 244.36 438.623L249.669 440.812C250.039 440.963 250.463 440.867 250.723 440.552L254.445 436.173C255.02 435.503 256.129 435.954 256.06 436.844V436.83Z" fill="url(#paint9_linear_123_1897)"/>
<path opacity="0.6" d="M197.846 435.79L200.638 433.71C200.83 433.559 200.912 433.313 200.83 433.08L199.707 429.782C199.53 429.276 200.118 428.838 200.556 429.153L203.402 431.165C203.594 431.301 203.867 431.301 204.059 431.165L206.851 429.085C207.289 428.756 207.877 429.18 207.713 429.7L206.687 433.026C206.618 433.258 206.7 433.505 206.892 433.642L209.738 435.653C210.176 435.968 209.957 436.652 209.423 436.666L205.948 436.707C205.701 436.707 205.496 436.871 205.428 437.104L204.401 440.429C204.237 440.949 203.512 440.949 203.348 440.443L202.225 437.145C202.143 436.912 201.938 436.762 201.692 436.762L198.216 436.816C197.682 436.816 197.449 436.132 197.874 435.817L197.846 435.79Z" fill="url(#paint10_linear_123_1897)"/>
<path opacity="0.6" d="M53.8154 529.407L57.1818 528.491C57.4144 528.422 57.5786 528.217 57.5923 527.984L57.7702 524.508C57.7976 523.975 58.4955 523.783 58.7966 524.235L60.6987 527.149C60.8356 527.355 61.0819 527.45 61.3145 527.382L64.6809 526.465C65.2009 526.328 65.5978 526.93 65.2557 527.355L63.0798 530.064C62.9293 530.256 62.9156 530.516 63.0525 530.721L64.9546 533.636C65.2557 534.088 64.7904 534.649 64.2977 534.457L61.0408 533.225C60.8219 533.143 60.5619 533.212 60.4113 533.39L58.2355 536.099C57.8934 536.523 57.2228 536.263 57.2502 535.73L57.4281 532.254C57.4281 532.008 57.2913 531.789 57.0723 531.706L53.8154 530.475C53.309 530.283 53.3501 529.558 53.8701 529.421L53.8154 529.407Z" fill="url(#paint11_linear_123_1897)"/>
<path opacity="0.6" d="M740.78 534.881L744.147 533.965C744.379 533.896 744.544 533.691 744.557 533.458L744.735 529.982C744.762 529.449 745.46 529.257 745.761 529.709L747.664 532.623C747.8 532.829 748.047 532.924 748.279 532.856L751.646 531.939C752.166 531.802 752.563 532.404 752.221 532.829L750.045 535.538C749.894 535.73 749.88 535.99 750.017 536.195L751.919 539.11C752.221 539.562 751.755 540.123 751.263 539.931L748.006 538.699C747.787 538.617 747.527 538.686 747.376 538.864L745.2 541.573C744.858 541.997 744.188 541.737 744.215 541.204L744.393 537.728C744.393 537.482 744.256 537.263 744.037 537.18L740.78 535.949C740.274 535.757 740.315 535.032 740.835 534.895L740.78 534.881Z" fill="url(#paint12_linear_123_1897)"/>
<path opacity="0.6" d="M109.087 334.906L112.453 333.989C112.686 333.921 112.85 333.715 112.864 333.483L113.042 330.007C113.069 329.473 113.767 329.282 114.068 329.733L115.97 332.648C116.107 332.853 116.353 332.949 116.586 332.881L119.952 331.964C120.472 331.827 120.869 332.429 120.527 332.853L118.351 335.563C118.201 335.754 118.187 336.014 118.324 336.22L120.226 339.135C120.527 339.586 120.062 340.147 119.569 339.956L116.312 338.724C116.093 338.642 115.833 338.71 115.683 338.888L113.507 341.598C113.165 342.022 112.494 341.762 112.522 341.228L112.7 337.752C112.7 337.506 112.563 337.287 112.344 337.205L109.087 335.973C108.581 335.782 108.622 335.057 109.142 334.92L109.087 334.906Z" fill="url(#paint13_linear_123_1897)"/>
<path opacity="0.6" d="M509.293 387.688L512.604 386.785C512.837 386.717 513.001 386.525 513.015 386.279L513.179 382.844C513.206 382.31 513.891 382.132 514.192 382.57L516.066 385.444C516.19 385.649 516.436 385.731 516.669 385.676L519.98 384.773C520.486 384.636 520.883 385.239 520.555 385.649L518.393 388.331C518.242 388.523 518.229 388.783 518.365 388.975L520.24 391.848C520.528 392.3 520.076 392.847 519.583 392.656L516.367 391.438C516.149 391.356 515.888 391.424 515.752 391.602L513.589 394.284C513.261 394.695 512.59 394.448 512.618 393.915L512.782 390.48C512.782 390.247 512.645 390.028 512.426 389.946L509.21 388.728C508.718 388.537 508.745 387.825 509.265 387.688H509.293Z" fill="url(#paint14_linear_123_1897)"/>
<path opacity="0.6" d="M263.86 315.036L267.227 314.119C267.459 314.05 267.624 313.845 267.637 313.613L267.815 310.137C267.843 309.603 268.54 309.411 268.841 309.863L270.744 312.778C270.88 312.983 271.127 313.079 271.359 313.01L274.726 312.093C275.246 311.957 275.643 312.559 275.301 312.983L273.125 315.693C272.974 315.884 272.961 316.144 273.097 316.349L275 319.264C275.301 319.716 274.835 320.277 274.343 320.085L271.086 318.854C270.867 318.772 270.607 318.84 270.456 319.018L268.28 321.728C267.938 322.152 267.268 321.892 267.295 321.358L267.473 317.882C267.473 317.636 267.336 317.417 267.117 317.335L263.86 316.103C263.354 315.912 263.395 315.186 263.915 315.049L263.86 315.036Z" fill="url(#paint15_linear_123_1897)"/>
<path opacity="0.6" d="M686.111 391.383L682.376 382.981C682.116 382.406 682.266 381.722 682.731 381.297L689.56 375.139C690.614 374.181 689.834 372.443 688.424 372.594L679.283 373.552C678.653 373.62 678.051 373.264 677.791 372.69L674.055 364.287C673.481 362.987 671.578 363.192 671.277 364.575L669.361 373.565C669.225 374.181 668.718 374.66 668.075 374.715L658.934 375.673C657.524 375.823 657.128 377.698 658.359 378.41L666.324 383.008C666.871 383.323 667.158 383.966 667.021 384.582L665.106 393.573C664.805 394.968 666.46 395.926 667.528 394.968L674.356 388.81C674.835 388.386 675.52 388.318 676.067 388.632L684.031 393.23C685.263 393.942 686.686 392.656 686.111 391.356V391.383Z" fill="url(#paint16_linear_123_1897)"/>
<path opacity="0.6" d="M770.982 388.742L765.426 387.606C765.043 387.524 764.755 387.209 764.714 386.826L764.085 381.188C763.989 380.312 762.826 380.079 762.402 380.846L759.596 385.786C759.405 386.128 759.008 386.306 758.625 386.224L753.069 385.088C752.207 384.91 751.632 385.936 752.22 386.58L756.052 390.767C756.312 391.055 756.367 391.479 756.175 391.821L753.37 396.761C752.932 397.527 753.739 398.39 754.533 398.034L759.706 395.694C760.062 395.529 760.486 395.612 760.746 395.913L764.578 400.1C765.166 400.743 766.247 400.264 766.151 399.389L765.522 393.75C765.481 393.367 765.686 392.984 766.042 392.82L771.215 390.48C772.008 390.11 771.885 388.947 771.023 388.769L770.982 388.742Z" fill="url(#paint17_linear_123_1897)"/>
<path opacity="0.6" d="M536.456 460.518L533.692 463.652C533.5 463.871 533.185 463.94 532.925 463.816L529.094 462.147C528.505 461.887 527.93 462.544 528.259 463.105L530.38 466.704C530.53 466.95 530.503 467.265 530.312 467.484L527.547 470.618C527.123 471.097 527.561 471.849 528.19 471.712L532.268 470.809C532.556 470.741 532.843 470.878 532.994 471.124L535.115 474.723C535.443 475.284 536.292 475.093 536.36 474.449L536.757 470.289C536.784 470.002 536.99 469.769 537.277 469.701L541.355 468.798C541.984 468.661 542.067 467.785 541.478 467.539L537.646 465.869C537.386 465.76 537.222 465.486 537.25 465.199L537.646 461.038C537.701 460.395 536.907 460.053 536.483 460.532L536.456 460.518Z" fill="url(#paint18_linear_123_1897)"/>
<path opacity="0.6" d="M321.212 418.424L318.447 421.558C318.256 421.777 317.941 421.845 317.681 421.722L313.849 420.053C313.261 419.793 312.686 420.449 313.015 421.011L315.136 424.61C315.286 424.856 315.259 425.171 315.067 425.39L312.303 428.523C311.879 429.002 312.317 429.755 312.946 429.618L317.024 428.715C317.312 428.647 317.599 428.783 317.75 429.03L319.871 432.629C320.199 433.19 321.048 432.998 321.116 432.355L321.513 428.195C321.54 427.908 321.745 427.675 322.033 427.607L326.111 426.703C326.74 426.567 326.822 425.691 326.234 425.444L322.402 423.775C322.142 423.665 321.978 423.392 322.005 423.104L322.402 418.944C322.471 418.301 321.663 417.959 321.239 418.438L321.212 418.424Z" fill="url(#paint19_linear_123_1897)"/>
<path opacity="0.6" d="M806.043 512.178L801.869 512.438C801.581 512.452 801.308 512.288 801.212 512.014L799.679 508.128C799.447 507.526 798.571 507.58 798.407 508.21L797.353 512.26C797.285 512.534 797.038 512.739 796.751 512.753L792.577 513.013C791.934 513.054 791.715 513.889 792.262 514.245L795.793 516.489C796.039 516.64 796.149 516.941 796.08 517.214L795.027 521.265C794.862 521.895 795.601 522.36 796.094 521.949L799.323 519.294C799.542 519.117 799.857 519.089 800.103 519.24L803.634 521.484C804.181 521.826 804.852 521.279 804.619 520.677L803.087 516.79C802.977 516.516 803.059 516.215 803.278 516.024L806.508 513.369C807 512.958 806.686 512.151 806.043 512.192V512.178Z" fill="url(#paint20_linear_123_1897)"/>
<path opacity="0.6" d="M603.538 397.486L598.694 400.442C598.365 400.648 597.927 400.606 597.626 400.36L593.316 396.679C592.645 396.104 591.646 396.72 591.851 397.582L593.179 403.097C593.275 403.48 593.11 403.877 592.768 404.082L587.924 407.038C587.171 407.49 587.445 408.639 588.321 408.708L593.973 409.159C594.369 409.187 594.684 409.474 594.78 409.857L596.107 415.372C596.313 416.221 597.49 416.317 597.818 415.509L599.994 410.268C600.144 409.912 600.514 409.679 600.897 409.707L606.549 410.158C607.425 410.227 607.876 409.132 607.206 408.571L602.895 404.89C602.594 404.63 602.498 404.219 602.649 403.85L604.824 398.609C605.167 397.801 604.263 397.035 603.511 397.486H603.538Z" fill="url(#paint21_linear_123_1897)"/>
<path opacity="0.6" d="M361.732 321.139L360.405 326.654C360.309 327.037 359.981 327.311 359.598 327.352L353.946 327.804C353.07 327.872 352.796 329.022 353.549 329.473L358.393 332.443C358.722 332.648 358.886 333.045 358.804 333.428L357.476 338.943C357.271 339.792 358.284 340.407 358.941 339.846L363.251 336.165C363.552 335.905 363.977 335.878 364.319 336.083L369.163 339.053C369.916 339.504 370.805 338.738 370.477 337.93L368.301 332.689C368.15 332.333 368.246 331.909 368.547 331.649L372.858 327.968C373.528 327.393 373.077 326.312 372.201 326.38L366.549 326.832C366.152 326.859 365.797 326.64 365.646 326.271L363.47 321.03C363.128 320.222 361.951 320.318 361.76 321.167L361.732 321.139Z" fill="url(#paint22_linear_123_1897)"/>
<path d="M794.51 307.279L792.526 304.474C792.389 304.282 792.389 304.022 792.526 303.831L794.579 301.066C794.894 300.642 794.483 300.054 793.977 300.218L790.692 301.244C790.46 301.313 790.213 301.244 790.077 301.039L788.092 298.234C787.791 297.796 787.107 298.015 787.093 298.548L787.052 301.983C787.052 302.216 786.888 302.435 786.669 302.503L783.385 303.53C782.879 303.694 782.865 304.405 783.385 304.57L786.642 305.664C786.861 305.747 787.011 305.952 787.011 306.184L786.97 309.619C786.97 310.153 787.641 310.386 787.955 309.948L790.008 307.183C790.145 306.992 790.405 306.91 790.624 306.992L793.881 308.087C794.387 308.251 794.812 307.676 794.51 307.252V307.279Z" fill="url(#paint23_linear_123_1897)"/>
<path opacity="0.6" d="M420.916 411.499L418.029 409.624C417.824 409.501 417.741 409.255 417.796 409.022L418.686 405.697C418.823 405.177 418.22 404.794 417.81 405.122L415.141 407.284C414.964 407.435 414.69 407.448 414.498 407.312L411.611 405.437C411.159 405.149 410.612 405.601 410.803 406.094L412.035 409.31C412.117 409.528 412.049 409.788 411.871 409.939L409.202 412.101C408.792 412.43 409.052 413.1 409.572 413.073L413.007 412.895C413.239 412.895 413.458 413.018 413.554 413.251L414.786 416.467C414.977 416.959 415.689 416.932 415.826 416.412L416.715 413.087C416.77 412.854 416.975 412.69 417.221 412.676L420.656 412.498C421.19 412.471 421.368 411.786 420.93 411.485L420.916 411.499Z" fill="url(#paint24_linear_123_1897)"/>
<path opacity="0.6" d="M551.017 547.69L548.13 545.816C547.924 545.692 547.842 545.446 547.897 545.213L548.787 541.888C548.923 541.368 548.321 540.985 547.911 541.313L545.242 543.475C545.051 543.626 544.791 543.64 544.599 543.503L541.712 541.628C541.26 541.341 540.713 541.792 540.904 542.285L542.136 545.501C542.218 545.72 542.15 545.98 541.972 546.13L539.303 548.292C538.893 548.621 539.139 549.291 539.673 549.264L543.107 549.086C543.34 549.086 543.559 549.209 543.655 549.442L544.887 552.658C545.078 553.151 545.79 553.123 545.927 552.603L546.816 549.278C546.884 549.045 547.076 548.881 547.322 548.867L550.757 548.689C551.291 548.662 551.469 547.978 551.031 547.677L551.017 547.69Z" fill="url(#paint25_linear_123_1897)"/>
<path opacity="0.6" d="M873.916 420.499L871.029 418.624C870.824 418.501 870.741 418.255 870.796 418.022L871.686 414.697C871.823 414.177 871.22 413.794 870.81 414.122L868.141 416.284C867.964 416.435 867.69 416.448 867.498 416.312L864.611 414.437C864.159 414.149 863.612 414.601 863.803 415.094L865.035 418.31C865.117 418.528 865.049 418.788 864.871 418.939L862.202 421.101C861.792 421.43 862.052 422.1 862.572 422.073L866.007 421.895C866.239 421.895 866.458 422.018 866.554 422.251L867.786 425.467C867.977 425.959 868.689 425.932 868.826 425.412L869.715 422.087C869.784 421.854 869.975 421.69 870.222 421.676L873.656 421.498C874.19 421.471 874.368 420.786 873.93 420.485L873.916 420.499Z" fill="url(#paint26_linear_123_1897)"/>
</g>
</g>
<rect x="1.5" y="1.5" width="865" height="560" rx="20.5" stroke="#E96854" stroke-width="3"/>
<defs>
<linearGradient id="paint0_linear_123_1897" x1="443.646" y1="255.742" x2="424.746" y2="829.184" gradientUnits="userSpaceOnUse">
<stop stop-color="#90ADD7"/>
<stop offset="1" stop-color="#1D50A3"/>
</linearGradient>
<linearGradient id="paint1_linear_123_1897" x1="778.973" y1="115.331" x2="760.074" y2="688.757" gradientUnits="userSpaceOnUse">
<stop stop-color="#90ADD7"/>
<stop offset="1" stop-color="#1D50A3"/>
</linearGradient>
<linearGradient id="paint2_linear_123_1897" x1="113.47" y1="325.114" x2="94.5704" y2="898.556" gradientUnits="userSpaceOnUse">
<stop stop-color="#90ADD7"/>
<stop offset="1" stop-color="#1D50A3"/>
</linearGradient>
<linearGradient id="paint3_linear_123_1897" x1="626.579" y1="408.523" x2="638.71" y2="395.973" gradientUnits="userSpaceOnUse">
<stop stop-color="#C6861C"/>
<stop offset="0.65" stop-color="#D9AF69"/>
</linearGradient>
<linearGradient id="paint4_linear_123_1897" x1="130.979" y1="409.952" x2="119.907" y2="379.366" gradientUnits="userSpaceOnUse">
<stop stop-color="#C6861C"/>
<stop offset="0.65" stop-color="#D9AF69"/>
</linearGradient>
<linearGradient id="paint5_linear_123_1897" x1="46.7838" y1="378.225" x2="49.0704" y2="358.28" gradientUnits="userSpaceOnUse">
<stop stop-color="#C6861C"/>
<stop offset="0.65" stop-color="#D9AF69"/>
</linearGradient>
<linearGradient id="paint6_linear_123_1897" x1="17.3017" y1="138.401" x2="1.97188" y2="654.91" gradientUnits="userSpaceOnUse">
<stop stop-color="#90ADD7"/>
<stop offset="1" stop-color="#1D50A3"/>
</linearGradient>
<linearGradient id="paint7_linear_123_1897" x1="38.1941" y1="455.955" x2="49.5602" y2="439.424" gradientUnits="userSpaceOnUse">
<stop stop-color="#C6861C"/>
<stop offset="0.65" stop-color="#D9AF69"/>
</linearGradient>
<linearGradient id="paint8_linear_123_1897" x1="368.744" y1="283.34" x2="380.11" y2="266.808" gradientUnits="userSpaceOnUse">
<stop stop-color="#C6861C"/>
<stop offset="0.65" stop-color="#D9AF69"/>
</linearGradient>
<linearGradient id="paint9_linear_123_1897" x1="242.51" y1="439.882" x2="259.407" y2="450.697" gradientUnits="userSpaceOnUse">
<stop stop-color="#C6861C"/>
<stop offset="0.65" stop-color="#D9AF69"/>
</linearGradient>
<linearGradient id="paint10_linear_123_1897" x1="213.999" y1="90.7631" x2="198.669" y2="607.285" gradientUnits="userSpaceOnUse">
<stop stop-color="#90ADD7"/>
<stop offset="1" stop-color="#1D50A3"/>
</linearGradient>
<linearGradient id="paint11_linear_123_1897" x1="72.933" y1="70.3801" x2="57.6032" y2="586.889" gradientUnits="userSpaceOnUse">
<stop stop-color="#90ADD7"/>
<stop offset="1" stop-color="#1D50A3"/>
</linearGradient>
<linearGradient id="paint12_linear_123_1897" x1="759.872" y1="75.9002" x2="744.542" y2="592.409" gradientUnits="userSpaceOnUse">
<stop stop-color="#90ADD7"/>
<stop offset="1" stop-color="#1D50A3"/>
</linearGradient>
<linearGradient id="paint13_linear_123_1897" x1="122.691" y1="62.3004" x2="107.361" y2="578.809" gradientUnits="userSpaceOnUse">
<stop stop-color="#90ADD7"/>
<stop offset="1" stop-color="#1D50A3"/>
</linearGradient>
<linearGradient id="paint14_linear_123_1897" x1="524.353" y1="63.0089" x2="509.023" y2="579.518" gradientUnits="userSpaceOnUse">
<stop stop-color="#90ADD7"/>
<stop offset="1" stop-color="#1D50A3"/>
</linearGradient>
<linearGradient id="paint15_linear_123_1897" x1="275.638" y1="103.545" x2="260.308" y2="620.054" gradientUnits="userSpaceOnUse">
<stop stop-color="#90ADD7"/>
<stop offset="1" stop-color="#1D50A3"/>
</linearGradient>
<linearGradient id="paint16_linear_123_1897" x1="662.93" y1="572.715" x2="688.1" y2="117.921" gradientUnits="userSpaceOnUse">
<stop offset="0.35" stop-color="#D9AF69"/>
<stop offset="1" stop-color="#C6861C"/>
</linearGradient>
<linearGradient id="paint17_linear_123_1897" x1="757.164" y1="472.509" x2="782.334" y2="17.7149" gradientUnits="userSpaceOnUse">
<stop offset="0.35" stop-color="#D9AF69"/>
<stop offset="1" stop-color="#C6861C"/>
</linearGradient>
<linearGradient id="paint18_linear_123_1897" x1="545.673" y1="95.1305" x2="530.344" y2="611.639" gradientUnits="userSpaceOnUse">
<stop stop-color="#90ADD7"/>
<stop offset="1" stop-color="#1D50A3"/>
</linearGradient>
<linearGradient id="paint19_linear_123_1897" x1="329.619" y1="80.5036" x2="314.289" y2="597.013" gradientUnits="userSpaceOnUse">
<stop stop-color="#90ADD7"/>
<stop offset="1" stop-color="#1D50A3"/>
</linearGradient>
<linearGradient id="paint20_linear_123_1897" x1="810.351" y1="140.458" x2="795.021" y2="656.966" gradientUnits="userSpaceOnUse">
<stop stop-color="#90ADD7"/>
<stop offset="1" stop-color="#1D50A3"/>
</linearGradient>
<linearGradient id="paint21_linear_123_1897" x1="492.526" y1="499.101" x2="832.114" y2="195.563" gradientUnits="userSpaceOnUse">
<stop offset="0.35" stop-color="#D9AF69"/>
<stop offset="1" stop-color="#C6861C"/>
</linearGradient>
<linearGradient id="paint22_linear_123_1897" x1="357.996" y1="420.837" x2="383.166" y2="-33.9568" gradientUnits="userSpaceOnUse">
<stop offset="0.35" stop-color="#D9AF69"/>
<stop offset="1" stop-color="#C6861C"/>
</linearGradient>
<linearGradient id="paint23_linear_123_1897" x1="790.883" y1="234.458" x2="775.553" y2="750.967" gradientUnits="userSpaceOnUse">
<stop stop-color="#90ADD7"/>
<stop offset="1" stop-color="#1D50A3"/>
</linearGradient>
<linearGradient id="paint24_linear_123_1897" x1="421.737" y1="186.136" x2="406.407" y2="702.659" gradientUnits="userSpaceOnUse">
<stop stop-color="#90ADD7"/>
<stop offset="1" stop-color="#1D50A3"/>
</linearGradient>
<linearGradient id="paint25_linear_123_1897" x1="558.567" y1="95.2671" x2="543.237" y2="611.789" gradientUnits="userSpaceOnUse">
<stop stop-color="#90ADD7"/>
<stop offset="1" stop-color="#1D50A3"/>
</linearGradient>
<linearGradient id="paint26_linear_123_1897" x1="872.838" y1="259.69" x2="857.508" y2="776.199" gradientUnits="userSpaceOnUse">
<stop stop-color="#90ADD7"/>
<stop offset="1" stop-color="#1D50A3"/>
</linearGradient>
<clipPath id="clip0_123_1897">
<rect width="868" height="563" rx="22" fill="white"/>
</clipPath>
<clipPath id="clip1_123_1897">
<rect width="875" height="290" fill="white" transform="translate(0 264)"/>
</clipPath>
</defs>
</svg>
