<svg xmlns:inkscape="http://www.inkscape.org/namespaces/inkscape" xmlns:sodipodi="http://sodipodi.sourceforge.net/DTD/sodipodi-0.dtd" xmlns:xlink="http://www.w3.org/1999/xlink" xmlns="http://www.w3.org/2000/svg" xmlns:svg="http://www.w3.org/2000/svg" width="119.32708mm" height="121.70834mm" viewBox="0 0 119.32708 121.70834" version="1.1" id="svg1797" xml:space="preserve" inkscape:version="1.2 (dc2aedaf03, 2022-05-15)" sodipodi:docname="Highlighted Background_Arctic.svg"><sodipodi:namedview id="namedview1799" pagecolor="#505050" bordercolor="#ffffff" borderopacity="1" inkscape:showpageshadow="0" inkscape:pageopacity="0" inkscape:pagecheckerboard="1" inkscape:deskcolor="#505050" inkscape:document-units="mm" showgrid="false" inkscape:zoom="0.66691529" inkscape:cx="86.967567" inkscape:cy="316.38201" inkscape:window-width="1366" inkscape:window-height="705" inkscape:window-x="-8" inkscape:window-y="-8" inkscape:window-maximized="1" inkscape:current-layer="g20183"/><defs id="defs1794"><inkscape:path-effect effect="mirror_symmetry" start_point="92.817916,128.18779" end_point="92.817916,163.92118" center_point="92.817916,146.05448" id="path-effect19997" is_visible="true" lpeversion="1.2" lpesatellites="" mode="vertical" discard_orig_path="false" fuse_paths="false" oposite_fuse="false" split_items="false" split_open="false" link_styles="false"/><inkscape:path-effect effect="fillet_chamfer" id="path-effect17746" is_visible="true" lpeversion="1" nodesatellites_param="F,0,0,1,0,5.5376978,0,1 @ F,0,0,1,0,3.0038827,0,1 @ F,0,0,1,0,0,0,1 @ F,0,0,1,0,4.3230651,0,1 @ F,0,0,1,0,0,0,1 @ F,0,0,1,0,0,0,1 @ F,0,0,1,0,5.2159396,0,1" unit="px" method="auto" mode="F" radius="0" chamfer_steps="1" flexible="false" use_knot_distance="true" apply_no_radius="true" apply_with_radius="true" only_selected="false" hide_knots="false"/><inkscape:path-effect effect="fillet_chamfer" id="path-effect17602" is_visible="true" lpeversion="1" nodesatellites_param="F,0,0,1,0,16.206525,0,1 @ F,0,0,1,0,0,0,1 @ F,0,0,1,0,0,0,1" unit="px" method="auto" mode="F" radius="0" chamfer_steps="1" flexible="false" use_knot_distance="true" apply_no_radius="true" apply_with_radius="true" only_selected="false" hide_knots="false"/><inkscape:path-effect effect="mirror_symmetry" start_point="163.64046,107.53103" end_point="163.64046,163.37555" center_point="163.64046,135.45329" id="path-effect17433" is_visible="true" lpeversion="1.2" lpesatellites="" mode="vertical" discard_orig_path="false" fuse_paths="false" oposite_fuse="false" split_items="false" split_open="false" link_styles="false"/><linearGradient inkscape:collect="always" id="linearGradient17329"><stop style="stop-color:#ffffff;stop-opacity:1;" offset="0.66428572" id="stop17325"/><stop style="stop-color:#ffffff;stop-opacity:0;" offset="1" id="stop17327"/></linearGradient><linearGradient inkscape:collect="always" id="linearGradient12438"><stop style="stop-color:#b5dfef;stop-opacity:1;" offset="0" id="stop12434"/><stop style="stop-color:#b5dfef;stop-opacity:1" offset="1" id="stop12436"/></linearGradient><linearGradient inkscape:collect="always" id="linearGradient8379"><stop style="stop-color:#1d2240;stop-opacity:1;" offset="0" id="stop8375"/><stop style="stop-color:#1d2240;stop-opacity:0;" offset="1" id="stop8377"/></linearGradient><linearGradient inkscape:collect="always" id="linearGradient5715"><stop style="stop-color:#55b0b3;stop-opacity:1;" offset="0" id="stop5711"/><stop style="stop-color:#2985bd;stop-opacity:1;" offset="1" id="stop5713"/></linearGradient><linearGradient inkscape:collect="always" id="linearGradient1843"><stop style="stop-color:#d7ffff;stop-opacity:1;" offset="0.22380953" id="stop1839"/><stop style="stop-color:#27bce9;stop-opacity:1;" offset="1" id="stop1841"/></linearGradient><linearGradient inkscape:collect="always" xlink:href="#linearGradient1843" id="linearGradient1845" x1="103.63087" y1="130.07936" x2="103.05769" y2="92.617531" gradientUnits="userSpaceOnUse"/><linearGradient inkscape:collect="always" xlink:href="#linearGradient5715" id="linearGradient5717" x1="109.97053" y1="152.59799" x2="108.19201" y2="200.27776" gradientUnits="userSpaceOnUse" gradientTransform="matrix(1,0,0,0.85492511,0,29.03067)"/><linearGradient inkscape:collect="always" xlink:href="#linearGradient8379" id="linearGradient8381" x1="104.27281" y1="173.6841" x2="106.33501" y2="213.92087" gradientUnits="userSpaceOnUse"/><linearGradient inkscape:collect="always" xlink:href="#linearGradient12438" id="linearGradient12440" x1="66.335286" y1="175.78316" x2="136.00887" y2="211.40044" gradientUnits="userSpaceOnUse"/><radialGradient inkscape:collect="always" xlink:href="#linearGradient17329" id="radialGradient17331" cx="-53.61013" cy="97.817734" fx="-53.61013" fy="97.817734" r="7.4750762" gradientTransform="matrix(0.8108108,0,0,0.74999998,98.165339,26.883835)" gradientUnits="userSpaceOnUse"/><radialGradient inkscape:collect="always" xlink:href="#linearGradient17329" id="radialGradient17335" gradientUnits="userSpaceOnUse" gradientTransform="matrix(0.48581079,0,0,0.44937498,91.767785,65.265054)" cx="-53.61013" cy="97.817734" fx="-53.61013" fy="97.817734" r="7.4750762"/><radialGradient inkscape:collect="always" xlink:href="#linearGradient17329" id="radialGradient17339" gradientUnits="userSpaceOnUse" gradientTransform="matrix(0.48581079,0,0,0.44937498,127.64815,40.223548)" cx="-53.61013" cy="97.817734" fx="-53.61013" fy="97.817734" r="7.4750762"/><radialGradient inkscape:collect="always" xlink:href="#linearGradient17329" id="radialGradient17343" gradientUnits="userSpaceOnUse" gradientTransform="matrix(0.33581079,0,0,0.31062498,153.24448,70.698773)" cx="-53.61013" cy="97.817734" fx="-53.61013" fy="97.817734" r="7.4750762"/><radialGradient inkscape:collect="always" xlink:href="#linearGradient17329" id="radialGradient17347" gradientUnits="userSpaceOnUse" gradientTransform="matrix(0.33581079,0,0,0.31062498,70.644886,93.124002)" cx="-53.61013" cy="97.817734" fx="-53.61013" fy="97.817734" r="7.4750762"/><radialGradient inkscape:collect="always" xlink:href="#linearGradient17329" id="radialGradient17351" gradientUnits="userSpaceOnUse" gradientTransform="matrix(0.33581079,0,0,0.31062498,77.746209,52.011082)" cx="-53.61013" cy="97.817734" fx="-53.61013" fy="97.817734" r="7.4750762"/><radialGradient inkscape:collect="always" xlink:href="#linearGradient17329" id="radialGradient17355" gradientUnits="userSpaceOnUse" gradientTransform="matrix(0.33581079,0,0,0.31062498,174.9222,55.001113)" cx="-53.61013" cy="97.817734" fx="-53.61013" fy="97.817734" r="7.4750762"/><radialGradient inkscape:collect="always" xlink:href="#linearGradient17329" id="radialGradient17359" gradientUnits="userSpaceOnUse" gradientTransform="matrix(0.81081075,0,0,0.74999995,169.17858,41.843348)" cx="-53.61013" cy="97.817734" fx="-53.61013" fy="97.817734" r="7.4750762"/><radialGradient inkscape:collect="always" xlink:href="#linearGradient17329" id="radialGradient17363" gradientUnits="userSpaceOnUse" gradientTransform="matrix(0.81081075,0,0,0.74999995,195.34135,81.461253)" cx="-53.61013" cy="97.817734" fx="-53.61013" fy="97.817734" r="7.4750762"/><radialGradient inkscape:collect="always" xlink:href="#linearGradient17329" id="radialGradient17367" gradientUnits="userSpaceOnUse" gradientTransform="matrix(0.81081075,0,0,0.74999995,107.88296,71.3699)" cx="-53.61013" cy="97.817734" fx="-53.61013" fy="97.817734" r="7.4750762"/><radialGradient inkscape:collect="always" xlink:href="#linearGradient17329" id="radialGradient17371" gradientUnits="userSpaceOnUse" gradientTransform="matrix(0.35135131,0,0,0.32499996,72.715438,129.94822)" cx="-53.61013" cy="97.817734" fx="-53.61013" fy="97.817734" r="7.4750762"/><radialGradient inkscape:collect="always" xlink:href="#linearGradient17329" id="radialGradient17375" gradientUnits="userSpaceOnUse" gradientTransform="matrix(0.35135131,0,0,0.32499996,105.23202,76.501424)" cx="-53.61013" cy="97.817734" fx="-53.61013" fy="97.817734" r="7.4750762"/><radialGradient inkscape:collect="always" xlink:href="#linearGradient17329" id="radialGradient17379" gradientUnits="userSpaceOnUse" gradientTransform="matrix(0.8108108,0,0,0.74999998,172.9161,4.084852)" cx="-53.61013" cy="97.817734" fx="-53.61013" fy="97.817734" r="7.4750762"/><radialGradient inkscape:collect="always" xlink:href="#linearGradient17329" id="radialGradient17383" gradientUnits="userSpaceOnUse" gradientTransform="matrix(0.64864863,0,0,0.59999998,168.6167,80.800646)" cx="-53.61013" cy="97.817734" fx="-53.61013" fy="97.817734" r="7.4750762"/><radialGradient inkscape:collect="always" xlink:href="#linearGradient17329" id="radialGradient17387" gradientUnits="userSpaceOnUse" gradientTransform="matrix(0.64864863,0,0,0.59999998,199.26451,117.80227)" cx="-53.61013" cy="97.817734" fx="-53.61013" fy="97.817734" r="7.4750762"/><radialGradient inkscape:collect="always" xlink:href="#linearGradient17329" id="radialGradient17391" gradientUnits="userSpaceOnUse" gradientTransform="matrix(0.35135132,0,0,0.32499997,165.78014,89.947213)" cx="-53.61013" cy="97.817734" fx="-53.61013" fy="97.817734" r="7.4750762"/><style id="style20013">.cls-1{fill:url(#linear-gradient);}.cls-2{fill:#dae6f5;}.cls-3{fill:#414042;}.cls-4{fill:#fff;}.cls-5{fill:url(#radial-gradient);}.cls-6,.cls-7{fill:none;stroke:#414042;stroke-linecap:round;stroke-miterlimit:10;}.cls-6{stroke-width:7.96px;}.cls-7{stroke-width:8.25px;}.cls-8{fill:url(#linear-gradient-2);}.cls-9{fill:url(#linear-gradient-3);}.cls-10{fill:#f6a9cb;}.cls-11{fill:#416eb5;}</style></defs><g inkscape:label="Layer 1" inkscape:groupmode="layer" id="layer1" transform="translate(-44.313374,-78.569412)"><path id="path6439" style="display:none;opacity:0.606469;fill:#0a0309;fill-rule:evenodd;stroke-width:0.267674" d="m 75.274792,139.9605 c -9.222912,-0.0504 -21.957794,2.03426 -30.961418,6.97166 v 18.93425 h 59.663546 v -19.67115 c -8.630203,-4.3404 -20.165337,-6.18816 -28.702128,-6.23476 z" class="UnoptimicedTransforms" inkscape:label="hill original"/><g id="g17317" class="UnoptimicedTransforms" style="display:inline" transform="translate(-125.29125,-93.041729)"/><g id="g20183"><rect style="opacity:1;fill:url(#linearGradient1845);fill-opacity:1;stroke-width:0.636184;stroke-linecap:round;stroke-linejoin:round" id="rect1837" width="119.32708" height="121.70834" x="44.313374" y="78.569412" ry="0" inkscape:label="bg"/><g id="g19995" inkscape:path-effect="#path-effect19997" class="UnoptimicedTransforms" style="display:inline"><g id="g19463" transform="matrix(0.3442077,0,0,0.3442077,89.541538,92.179462)" style="display:inline"><path id="rect17599" style="opacity:1;fill:#87d4e8;fill-opacity:1;stroke-width:0.1;stroke-linecap:round;stroke-linejoin:round;stroke-miterlimit:9.4" d="m -18.245889,114.65321 c 4.67207,29.37709 16.1451305,60.11438 27.7642712,90.88088 H -49.707118 c 9.278017,-30.42215 17.800302,-60.8443 25.630516,-91.26645 2.231037,-8.66808 4.425374,-8.45093 5.830713,0.38557 z m 120.367739,0 c -4.67207,29.37709 -16.14513,60.11438 -27.764271,90.88088 h 59.225501 c -9.27802,-30.42215 -17.8003,-60.8443 -25.63052,-91.26645 -2.23103,-8.66808 -4.42537,-8.45093 -5.83071,0.38557 z" sodipodi:nodetypes="cccc" inkscape:path-effect="#path-effect17602" inkscape:original-d="M -20.094368,98.558022 C -17.797704,132.70186 -4.2421036,169.09749 9.5183822,205.53409 H -49.707118 c 10.875034,-35.65869 20.711778,-71.31738 29.61275,-106.976068 z"/><path id="path17964" style="opacity:1;fill:#77c8db;stroke-width:0.1;stroke-linecap:round;stroke-linejoin:round;stroke-miterlimit:9.4" d="M -17.315422,205.53427 H 9.5185986 L -10.974724,131.5021 h -0.976168 z m 118.506802,0 H 74.357363 L 94.850685,131.5021 h 0.976168 z" inkscape:original-d="M -17.315422,205.53427 H 9.5185986 L -10.974724,131.5021 h -0.976168 z"/><path id="rect18177" style="opacity:1;fill:#b5dfef;stroke-width:0.121584;stroke-linecap:round;stroke-linejoin:round;stroke-miterlimit:9.4" d="m -27.789099,143.19513 10.47368,62.33914 h -12.58542 c 8.15906,-21.71161 1.44713,-41.56434 2.11174,-62.33914 z m 139.454159,0 -10.47368,62.33914 h 12.58542 c -8.15906,-21.71161 -1.44713,-41.56434 -2.11174,-62.33914 z" sodipodi:nodetypes="cccc" inkscape:original-d="m -27.789099,143.19513 10.47368,62.33914 h -12.58542 c 8.15906,-21.71161 1.44713,-41.56434 2.11174,-62.33914 z"/><path id="rect17967" style="opacity:1;fill:#6bbed0;stroke-width:0.101864;stroke-linecap:round;stroke-linejoin:round;stroke-miterlimit:9.4" d="m -19.354044,132.61269 -11.474943,4.44191 11.845102,67.73918 5.182232,-0.37016 C -20.257082,179.34053 -26.19964,160.546 -19.354044,132.61269 Z m 122.584054,0 11.47494,4.44191 -11.8451,67.73918 -5.182236,-0.37016 C 104.13304,179.34053 110.0756,160.546 103.23001,132.61269 Z" sodipodi:nodetypes="ccccc" inkscape:original-d="m -19.354044,132.61269 -11.474943,4.44191 11.845102,67.73918 5.182232,-0.37016 C -20.257082,179.34053 -26.19964,160.546 -19.354044,132.61269 Z"/><path id="path17742" style="opacity:1;fill:#f5f5f5;fill-opacity:1;stroke-width:0.0615672;stroke-linecap:round;stroke-linejoin:round;stroke-miterlimit:9.4" d="m -18.622111,107.38883 c 6.812606,19.86205 12.1653952,32.59978 14.8280679,37.69343 0.763822,1.46118 0.441193,1.87042 -1.0234304,1.09122 l -4.8455057,-2.57788 -1.4218798,3.48367 c -0.799443,1.95867 -3.291424,2.54479 -4.880119,1.14781 l -5.82586,-5.12282 -0.612509,-11.43356 -9.08735,9.67363 c -0.830191,0.88375 -2.279175,0.0124 -1.887845,-1.1352 l 11.192413,-32.82383 c 0.987057,-2.89473 2.571751,-2.88941 3.564018,0.004 z m 121.120181,0 c -6.812603,19.86205 -12.165393,32.59978 -14.828065,37.69343 -0.763822,1.46118 -0.441193,1.87042 1.02343,1.09122 l 4.845506,-2.57788 1.42188,3.48367 c 0.799443,1.95867 3.291423,2.54479 4.880119,1.14781 l 5.82586,-5.12282 0.61251,-11.43356 9.08735,9.67363 c 0.83019,0.88375 2.27917,0.0124 1.88784,-1.1352 L 106.06209,107.3853 c -0.98706,-2.89473 -2.57175,-2.88941 -3.56402,0.004 z" sodipodi:nodetypes="cccccccc" inkscape:path-effect="#path-effect17746" inkscape:original-d="m -20.398905,102.14393 c 9.750567,29.13592 16.9119286,44.7405 18.2333667,45.44042 l -7.4974409,-3.98875 -3.0555278,7.48618 -9.072331,-7.97752 -0.612509,-11.43356 -12.658575,13.47526 z"/><path id="path19452" style="opacity:1;fill:#6bbed0;stroke-width:0.101864;stroke-linecap:round;stroke-linejoin:round;stroke-miterlimit:9.4" d="m -37.789625,165.00806 c -0.05637,0.19897 -0.112031,0.3979 -0.168465,0.59687 -0.539308,1.90138 -1.081764,3.80266 -1.626774,5.70404 -0.540129,1.88436 -1.083598,3.76905 -1.629358,5.6534 l 0.414445,28.5719 h 8.365898 c -4.98951,-14.34778 -5.799345,-27.01858 -5.355746,-40.52621 z m 159.455215,0 c 0.0564,0.19897 0.11203,0.3979 0.16846,0.59687 0.53931,1.90138 1.08177,3.80266 1.62678,5.70404 0.54012,1.88436 1.08359,3.76905 1.62935,5.6534 l -0.41444,28.5719 h -8.3659 c 4.98951,-14.34778 5.79935,-27.01858 5.35575,-40.52621 z" inkscape:original-d="m -37.789625,165.00806 c -0.05637,0.19897 -0.112031,0.3979 -0.168465,0.59687 -0.539308,1.90138 -1.081764,3.80266 -1.626774,5.70404 -0.540129,1.88436 -1.083598,3.76905 -1.629358,5.6534 l 0.414445,28.5719 h 8.365898 c -4.98951,-14.34778 -5.799345,-27.01858 -5.355746,-40.52621 z"/></g><path style="opacity:1;fill:#f6fbfe;fill-opacity:1;stroke-width:0.1;stroke-linecap:round;stroke-linejoin:round;stroke-miterlimit:9.4" id="rect19465" width="1.7723337" height="25.009598" x="40.75605" y="152.3347" transform="rotate(-12.790254)" d="m 40.75605,152.3347 1.772334,0 0,25.0096 -1.772334,0 z m 59.50179,13.50783 -1.598607,-0.76525 -10.798618,22.55814 1.598609,0.76526 z" sodipodi:type="rect"/></g><g id="g17429" inkscape:path-effect="#path-effect17433" class="UnoptimicedTransforms" style="display:inline"><path id="path17403" style="display:inline;fill:#87d4e8;fill-opacity:1;stroke-width:0.0575918;stroke-linecap:round;stroke-linejoin:round;stroke-miterlimit:9.4" d="m 163.64046,156.69591 v -14.07356 l -2.82205,-18.46916 c -0.41051,-2.68681 -3.23474,-2.5984 -5.76968,-3.87211 l -17.13849,-8.61136 c -2.53494,-1.2737 -4.70021,3.14117 -4.35632,5.84098 2.11312,16.58977 -2.46805,28.32111 -4.51652,41.89047 -0.41057,2.71973 2.96472,4.41807 5.76968,3.87263 l 25.96792,-5.04982 c 1.12506,-0.21877 2.1103,-0.77346 2.86546,-1.52807 z m -119.327092,0 v -14.07356 l 2.82205,-18.46916 c 0.41051,-2.68681 3.23474,-2.5984 5.76968,-3.87211 l 17.13849,-8.61136 c 2.53494,-1.2737 4.70021,3.14117 4.35632,5.84098 -2.11312,16.58977 2.46805,28.32111 4.51652,41.89047 0.41057,2.71973 -2.96472,4.41807 -5.76968,3.87263 l -25.96792,-5.04982 c -1.12506,-0.21877 -2.1103,-0.77346 -2.86546,-1.52807 z" inkscape:original-d="m 163.64046,156.69591 v -14.07356 l -2.82205,-18.46916 c -0.41051,-2.68681 -3.23474,-2.5984 -5.76968,-3.87211 l -17.13849,-8.61136 c -2.53494,-1.2737 -4.70021,3.14117 -4.35632,5.84098 2.11312,16.58977 -2.46805,28.32111 -4.51652,41.89047 -0.41057,2.71973 2.96472,4.41807 5.76968,3.87263 l 25.96792,-5.04982 c 1.12506,-0.21877 2.1103,-0.77346 2.86546,-1.52807 z"/><path id="path17405" style="display:inline;fill:#77c8db;fill-opacity:1;stroke-width:0.150583;stroke-linecap:round;stroke-linejoin:round;stroke-miterlimit:9.4" d="m 139.417,162.37717 -4.60979,0.8964 c -0.0877,0.0171 -0.17613,0.0318 -0.26476,0.0446 -0.0887,0.0124 -0.1777,0.0231 -0.26705,0.0316 -0.0894,0.008 -0.17903,0.0149 -0.26884,0.0191 -0.0898,0.004 -0.17956,0.006 -0.26954,0.006 -0.09,4e-5 -0.18012,-0.002 -0.27002,-0.006 -0.0899,-0.004 -0.17982,-0.01 -0.26938,-0.0178 -0.0896,-0.008 -0.17888,-0.0175 -0.26782,-0.0293 -0.0889,-0.0118 -0.17741,-0.0254 -0.26547,-0.0411 -0.0881,-0.0156 -0.17543,-0.0336 -0.26234,-0.0529 -0.0869,-0.0194 -0.17314,-0.0406 -0.25864,-0.0637 -0.0855,-0.0231 -0.17032,-0.0479 -0.25414,-0.0745 -0.0838,-0.0267 -0.16691,-0.0548 -0.24879,-0.0851 -0.0819,-0.0302 -0.1626,-0.0622 -0.24227,-0.0958 -0.0797,-0.0336 -0.15804,-0.0689 -0.23523,-0.10589 -0.0772,-0.037 -0.15334,-0.0757 -0.22779,-0.11598 -0.0744,-0.0403 -0.14722,-0.082 -0.21866,-0.12556 -0.0714,-0.0435 -0.14135,-0.0885 -0.20953,-0.13513 -0.0682,-0.0467 -0.13458,-0.0952 -0.19921,-0.14494 -0.0646,-0.0498 -0.12749,-0.10081 -0.18832,-0.15355 -0.0608,-0.0527 -0.11994,-0.10707 -0.1767,-0.16274 -0.0568,-0.0557 -0.11136,-0.1128 -0.16378,-0.17133 -0.0524,-0.0585 -0.10259,-0.11825 -0.15041,-0.17955 -0.0478,-0.0613 -0.0934,-0.12435 -0.1363,-0.18836 -0.0429,-0.064 -0.0833,-0.129 -0.12116,-0.19563 -0.0378,-0.0667 -0.073,-0.13472 -0.10537,-0.20391 -0.0324,-0.0692 -0.0619,-0.13981 -0.0887,-0.21149 -0.0267,-0.0717 -0.0507,-0.14464 -0.0715,-0.21872 -0.0208,-0.0741 -0.0385,-0.14936 -0.0531,-0.22577 -0.0146,-0.0764 -0.0261,-0.1538 -0.0342,-0.23247 -0.008,-0.0787 -0.0131,-0.15847 -0.0146,-0.23932 -0.001,-0.0809 8.2e-4,-0.16261 0.006,-0.24557 0.006,-0.083 0.0144,-0.16723 0.0273,-0.25222 0.064,-0.42404 0.13041,-0.84617 0.19909,-1.26682 0.0687,-0.42066 0.13983,-0.83965 0.21261,-1.25733 0.0728,-0.41768 0.14721,-0.83394 0.22353,-1.24905 0.0763,-0.41511 0.15458,-0.82902 0.23388,-1.24196 0.0793,-0.41296 0.1599,-0.82491 0.24161,-1.23611 0.0817,-0.4112 0.16436,-0.82184 0.24791,-1.2317 0.16711,-0.81972 0.33745,-1.63694 0.50858,-2.45374 0.17113,-0.81681 0.34287,-1.63323 0.51351,-2.45038 0.17064,-0.81716 0.34014,-1.63546 0.50579,-2.45624 0.0828,-0.41039 0.16457,-0.82101 0.24531,-1.23292 0.0807,-0.41192 0.16034,-0.82469 0.23842,-1.23853 0.0781,-0.41383 0.15453,-0.82881 0.22938,-1.24498 0.0749,-0.41618 0.14831,-0.83366 0.21938,-1.25258 0.0711,-0.41892 0.14003,-0.83931 0.20676,-1.26138 0.0667,-0.42207 0.1309,-0.84601 0.19271,-1.27165 0.0618,-0.42564 0.12103,-0.85292 0.17737,-1.28253 0.0563,-0.42961 0.10977,-0.86164 0.16008,-1.29563 0.0503,-0.43398 0.0978,-0.87014 0.14155,-1.30891 0.0437,-0.43878 0.0838,-0.87988 0.12035,-1.32386 0.0366,-0.44398 0.0693,-0.89075 0.0981,-1.34033 0.0144,-0.22479 0.028,-0.45044 0.0404,-0.67671 0.0124,-0.22627 0.0234,-0.45324 0.0337,-0.68104 0.0103,-0.2278 0.0197,-0.45615 0.0278,-0.68552 0.008,-0.22938 0.0151,-0.45969 0.021,-0.6907 0.006,-0.231 0.0107,-0.46274 0.0142,-0.69543 0.004,-0.2327 0.006,-0.46654 0.007,-0.70096 0.001,-0.23444 0.001,-0.46942 -2.3e-4,-0.70563 -0.001,-0.23622 -0.004,-0.47345 -0.008,-0.7115 -0.004,-0.23804 -0.009,-0.47708 -0.0152,-0.717 -0.006,-0.23994 -0.0143,-0.48092 -0.0234,-0.7228 -0.009,-0.24187 -0.0197,-0.48471 -0.0315,-0.72857 -0.0119,-0.24386 -0.025,-0.48888 -0.0397,-0.73478 -0.0147,-0.2459 -0.0311,-0.49242 -0.0486,-0.74041 -0.0176,-0.24799 -0.0364,-0.49733 -0.0569,-0.74746 -0.0205,-0.25014 -0.0424,-0.50118 -0.0659,-0.75351 -0.0235,-0.25233 -0.0488,-0.50576 -0.0754,-0.76033 -0.0266,-0.25457 -0.0547,-0.51035 -0.0845,-0.76722 -0.009,-0.0764 -0.0191,-0.15356 -0.0282,-0.23017 l 4.69731,-0.26146 z m -70.880172,0 4.60979,0.8964 c 0.0877,0.0171 0.17613,0.0318 0.26476,0.0446 0.0887,0.0124 0.1777,0.0231 0.26705,0.0316 0.0894,0.008 0.17903,0.0149 0.26884,0.0191 0.0898,0.004 0.17956,0.006 0.26954,0.006 0.09,4e-5 0.18012,-0.002 0.27002,-0.006 0.0899,-0.004 0.17982,-0.01 0.26938,-0.0178 0.0896,-0.008 0.17888,-0.0175 0.26782,-0.0293 0.0889,-0.0118 0.17741,-0.0254 0.26547,-0.0411 0.0881,-0.0156 0.17543,-0.0336 0.26234,-0.0529 0.0869,-0.0194 0.17314,-0.0406 0.25864,-0.0637 0.0855,-0.0231 0.17032,-0.0479 0.25414,-0.0745 0.0838,-0.0267 0.16691,-0.0548 0.24879,-0.0851 0.0819,-0.0302 0.1626,-0.0622 0.24227,-0.0958 0.0797,-0.0336 0.15804,-0.0689 0.23523,-0.10589 0.0772,-0.037 0.15334,-0.0757 0.22779,-0.11598 0.0744,-0.0403 0.14722,-0.082 0.21866,-0.12556 0.0714,-0.0435 0.14135,-0.0885 0.20953,-0.13513 0.0682,-0.0467 0.13458,-0.0952 0.19921,-0.14494 0.0646,-0.0498 0.12749,-0.10081 0.18832,-0.15355 0.0608,-0.0527 0.11994,-0.10707 0.1767,-0.16274 0.0568,-0.0557 0.11136,-0.1128 0.16378,-0.17133 0.0524,-0.0585 0.10259,-0.11825 0.15041,-0.17955 0.0478,-0.0613 0.0934,-0.12435 0.1363,-0.18836 0.0429,-0.064 0.0833,-0.129 0.12116,-0.19563 0.0378,-0.0667 0.073,-0.13472 0.10537,-0.20391 0.0324,-0.0692 0.0619,-0.13981 0.0887,-0.21149 0.0267,-0.0717 0.0507,-0.14464 0.0715,-0.21872 0.0208,-0.0741 0.0385,-0.14936 0.0531,-0.22577 0.0146,-0.0764 0.0261,-0.1538 0.0342,-0.23247 0.008,-0.0787 0.0131,-0.15847 0.0146,-0.23932 0.001,-0.0809 -8.2e-4,-0.16261 -0.006,-0.24557 -0.006,-0.083 -0.0144,-0.16723 -0.0273,-0.25222 -0.064,-0.42404 -0.13041,-0.84617 -0.19909,-1.26682 -0.0687,-0.42066 -0.13983,-0.83965 -0.21261,-1.25733 -0.0728,-0.41768 -0.14721,-0.83394 -0.22353,-1.24905 -0.0763,-0.41511 -0.15458,-0.82902 -0.23388,-1.24196 -0.0793,-0.41296 -0.1599,-0.82491 -0.24161,-1.23611 -0.0817,-0.4112 -0.16436,-0.82184 -0.24791,-1.2317 -0.16711,-0.81972 -0.33745,-1.63694 -0.50858,-2.45374 -0.17113,-0.81681 -0.34287,-1.63323 -0.51351,-2.45038 -0.17064,-0.81716 -0.34014,-1.63546 -0.50579,-2.45624 -0.0828,-0.41039 -0.16457,-0.82101 -0.24531,-1.23292 -0.0807,-0.41192 -0.16034,-0.82469 -0.23842,-1.23853 -0.0781,-0.41383 -0.15453,-0.82881 -0.22938,-1.24498 -0.0749,-0.41618 -0.14831,-0.83366 -0.21938,-1.25258 -0.0711,-0.41892 -0.14003,-0.83931 -0.20676,-1.26138 -0.0667,-0.42207 -0.1309,-0.84601 -0.19271,-1.27165 -0.0618,-0.42564 -0.12103,-0.85292 -0.17737,-1.28253 -0.0563,-0.42961 -0.10977,-0.86164 -0.16008,-1.29563 -0.0503,-0.43398 -0.0978,-0.87014 -0.14155,-1.30891 -0.0437,-0.43878 -0.0838,-0.87988 -0.12035,-1.32386 -0.0366,-0.44398 -0.0693,-0.89075 -0.0981,-1.34033 -0.0144,-0.22479 -0.028,-0.45044 -0.0404,-0.67671 -0.0124,-0.22627 -0.0234,-0.45324 -0.0337,-0.68104 -0.0103,-0.2278 -0.0197,-0.45615 -0.0278,-0.68552 -0.008,-0.22938 -0.0151,-0.45969 -0.021,-0.6907 -0.006,-0.231 -0.0107,-0.46274 -0.0142,-0.69543 -0.004,-0.2327 -0.006,-0.46654 -0.007,-0.70096 -10e-4,-0.23444 -10e-4,-0.46942 2.3e-4,-0.70563 0.001,-0.23622 0.004,-0.47345 0.008,-0.7115 0.004,-0.23804 0.009,-0.47708 0.0152,-0.717 0.006,-0.23994 0.0143,-0.48092 0.0234,-0.7228 0.009,-0.24187 0.0197,-0.48471 0.0315,-0.72857 0.0119,-0.24386 0.025,-0.48888 0.0397,-0.73478 0.0147,-0.2459 0.0311,-0.49242 0.0486,-0.74041 0.0176,-0.24799 0.0364,-0.49733 0.0569,-0.74746 0.0205,-0.25014 0.0424,-0.50118 0.0659,-0.75351 0.0235,-0.25233 0.0488,-0.50576 0.0754,-0.76033 0.0266,-0.25457 0.0547,-0.51035 0.0845,-0.76722 0.009,-0.0764 0.0191,-0.15356 0.0282,-0.23017 l -4.69731,-0.26146 z" inkscape:original-d="m 139.417,162.37717 -4.60979,0.8964 c -0.0877,0.0171 -0.17613,0.0318 -0.26476,0.0446 -0.0887,0.0124 -0.1777,0.0231 -0.26705,0.0316 -0.0894,0.008 -0.17903,0.0149 -0.26884,0.0191 -0.0898,0.004 -0.17956,0.006 -0.26954,0.006 -0.09,4e-5 -0.18012,-0.002 -0.27002,-0.006 -0.0899,-0.004 -0.17982,-0.01 -0.26938,-0.0178 -0.0896,-0.008 -0.17888,-0.0175 -0.26782,-0.0293 -0.0889,-0.0118 -0.17741,-0.0254 -0.26547,-0.0411 -0.0881,-0.0156 -0.17543,-0.0336 -0.26234,-0.0529 -0.0869,-0.0194 -0.17314,-0.0406 -0.25864,-0.0637 -0.0855,-0.0231 -0.17032,-0.0479 -0.25414,-0.0745 -0.0838,-0.0267 -0.16691,-0.0548 -0.24879,-0.0851 -0.0819,-0.0302 -0.1626,-0.0622 -0.24227,-0.0958 -0.0797,-0.0336 -0.15804,-0.0689 -0.23523,-0.10589 -0.0772,-0.037 -0.15334,-0.0757 -0.22779,-0.11598 -0.0744,-0.0403 -0.14722,-0.082 -0.21866,-0.12556 -0.0714,-0.0435 -0.14135,-0.0885 -0.20953,-0.13513 -0.0682,-0.0467 -0.13458,-0.0952 -0.19921,-0.14494 -0.0646,-0.0498 -0.12749,-0.10081 -0.18832,-0.15355 -0.0608,-0.0527 -0.11994,-0.10707 -0.1767,-0.16274 -0.0568,-0.0557 -0.11136,-0.1128 -0.16378,-0.17133 -0.0524,-0.0585 -0.10259,-0.11825 -0.15041,-0.17955 -0.0478,-0.0613 -0.0934,-0.12435 -0.1363,-0.18836 -0.0429,-0.064 -0.0833,-0.129 -0.12116,-0.19563 -0.0378,-0.0667 -0.073,-0.13472 -0.10537,-0.20391 -0.0324,-0.0692 -0.0619,-0.13981 -0.0887,-0.21149 -0.0267,-0.0717 -0.0507,-0.14464 -0.0715,-0.21872 -0.0208,-0.0741 -0.0385,-0.14936 -0.0531,-0.22577 -0.0146,-0.0764 -0.0261,-0.1538 -0.0342,-0.23247 -0.008,-0.0787 -0.0131,-0.15847 -0.0146,-0.23932 -0.001,-0.0809 8.2e-4,-0.16261 0.006,-0.24557 0.006,-0.083 0.0144,-0.16723 0.0273,-0.25222 0.064,-0.42404 0.13041,-0.84617 0.19909,-1.26682 0.0687,-0.42066 0.13983,-0.83965 0.21261,-1.25733 0.0728,-0.41768 0.14721,-0.83394 0.22353,-1.24905 0.0763,-0.41511 0.15458,-0.82902 0.23388,-1.24196 0.0793,-0.41296 0.1599,-0.82491 0.24161,-1.23611 0.0817,-0.4112 0.16436,-0.82184 0.24791,-1.2317 0.16711,-0.81972 0.33745,-1.63694 0.50858,-2.45374 0.17113,-0.81681 0.34287,-1.63323 0.51351,-2.45038 0.17064,-0.81716 0.34014,-1.63546 0.50579,-2.45624 0.0828,-0.41039 0.16457,-0.82101 0.24531,-1.23292 0.0807,-0.41192 0.16034,-0.82469 0.23842,-1.23853 0.0781,-0.41383 0.15453,-0.82881 0.22938,-1.24498 0.0749,-0.41618 0.14831,-0.83366 0.21938,-1.25258 0.0711,-0.41892 0.14003,-0.83931 0.20676,-1.26138 0.0667,-0.42207 0.1309,-0.84601 0.19271,-1.27165 0.0618,-0.42564 0.12103,-0.85292 0.17737,-1.28253 0.0563,-0.42961 0.10977,-0.86164 0.16008,-1.29563 0.0503,-0.43398 0.0978,-0.87014 0.14155,-1.30891 0.0437,-0.43878 0.0838,-0.87988 0.12035,-1.32386 0.0366,-0.44398 0.0693,-0.89075 0.0981,-1.34033 0.0144,-0.22479 0.028,-0.45044 0.0404,-0.67671 0.0124,-0.22627 0.0234,-0.45324 0.0337,-0.68104 0.0103,-0.2278 0.0197,-0.45615 0.0278,-0.68552 0.008,-0.22938 0.0151,-0.45969 0.021,-0.6907 0.006,-0.231 0.0107,-0.46274 0.0142,-0.69543 0.004,-0.2327 0.006,-0.46654 0.007,-0.70096 0.001,-0.23444 0.001,-0.46942 -2.3e-4,-0.70563 -0.001,-0.23622 -0.004,-0.47345 -0.008,-0.7115 -0.004,-0.23804 -0.009,-0.47708 -0.0152,-0.717 -0.006,-0.23994 -0.0143,-0.48092 -0.0234,-0.7228 -0.009,-0.24187 -0.0197,-0.48471 -0.0315,-0.72857 -0.0119,-0.24386 -0.025,-0.48888 -0.0397,-0.73478 -0.0147,-0.2459 -0.0311,-0.49242 -0.0486,-0.74041 -0.0176,-0.24799 -0.0364,-0.49733 -0.0569,-0.74746 -0.0205,-0.25014 -0.0424,-0.50118 -0.0659,-0.75351 -0.0235,-0.25233 -0.0488,-0.50576 -0.0754,-0.76033 -0.0266,-0.25457 -0.0547,-0.51035 -0.0845,-0.76722 -0.009,-0.0764 -0.0191,-0.15356 -0.0282,-0.23017 l 4.69731,-0.26146 z"/><path id="path17407" style="fill:#6bbed0;stroke-width:0.0799154;stroke-linecap:round;stroke-linejoin:round;stroke-miterlimit:9.4" d="m 149.5787,160.40116 -14.77149,2.87241 c -0.0877,0.017 -0.17614,0.0317 -0.26473,0.0448 -0.0886,0.013 -0.1777,0.0231 -0.26705,0.0316 -0.0894,0.008 -0.17903,0.0151 -0.26883,0.0193 -0.0898,0.004 -0.17957,0.006 -0.26955,0.006 -0.09,1.4e-4 -0.18012,-0.002 -0.27002,-0.006 -0.0899,-0.004 -0.17982,-0.01 -0.26937,-0.0178 -0.0896,-0.008 -0.17887,-0.0175 -0.26781,-0.0293 -0.0889,-0.0118 -0.17741,-0.0254 -0.26547,-0.0411 -0.0881,-0.0156 -0.17543,-0.0335 -0.26235,-0.053 -0.0744,-0.0166 -0.14793,-0.0352 -0.22127,-0.0544 l 6.88091,-46.22866 c 3.4433,14.32279 -1.3583,34.17938 10.51703,43.45561 z m -91.203572,0 14.77149,2.87241 c 0.0877,0.017 0.17614,0.0317 0.26473,0.0448 0.0886,0.013 0.1777,0.0231 0.26705,0.0316 0.0894,0.008 0.17903,0.0151 0.26883,0.0193 0.0898,0.004 0.17957,0.006 0.26955,0.006 0.09,1.4e-4 0.18012,-0.002 0.27002,-0.006 0.0899,-0.004 0.17982,-0.01 0.26937,-0.0178 0.0896,-0.008 0.17887,-0.0175 0.26781,-0.0293 0.0889,-0.0118 0.17741,-0.0254 0.26547,-0.0411 0.0881,-0.0156 0.17543,-0.0335 0.26235,-0.053 0.0744,-0.0166 0.14793,-0.0352 0.22127,-0.0544 l -6.88091,-46.22866 c -3.4433,14.32279 1.3583,34.17938 -10.51703,43.45561 z" inkscape:original-d="m 149.5787,160.40116 -14.77149,2.87241 c -0.0877,0.017 -0.17614,0.0317 -0.26473,0.0448 -0.0886,0.013 -0.1777,0.0231 -0.26705,0.0316 -0.0894,0.008 -0.17903,0.0151 -0.26883,0.0193 -0.0898,0.004 -0.17957,0.006 -0.26955,0.006 -0.09,1.4e-4 -0.18012,-0.002 -0.27002,-0.006 -0.0899,-0.004 -0.17982,-0.01 -0.26937,-0.0178 -0.0896,-0.008 -0.17887,-0.0175 -0.26781,-0.0293 -0.0889,-0.0118 -0.17741,-0.0254 -0.26547,-0.0411 -0.0881,-0.0156 -0.17543,-0.0335 -0.26235,-0.053 -0.0744,-0.0166 -0.14793,-0.0352 -0.22127,-0.0544 l 6.88091,-46.22866 c 3.4433,14.32279 -1.3583,34.17938 10.51703,43.45561 z"/><path id="path17409" style="display:inline;fill:#b5dfef;stroke-width:0.0799154;stroke-linecap:round;stroke-linejoin:round;stroke-miterlimit:9.4" d="m 149.48371,113.39645 -4.43083,0.8616 2.0686,23.81728 c -0.72431,-9.19048 -0.2687,-14.83594 2.36223,-24.67888 z m -91.013592,0 4.43083,0.8616 -2.0686,23.81728 c 0.72431,-9.19048 0.2687,-14.83594 -2.36223,-24.67888 z" sodipodi:nodetypes="cccc" inkscape:original-d="m 149.48371,113.39645 -4.43083,0.8616 2.0686,23.81728 c -0.72431,-9.19048 -0.2687,-14.83594 2.36223,-24.67888 z"/><path id="path17411" style="fill:#6bbed0;stroke-width:0.0578794;stroke-linecap:round;stroke-linejoin:round;stroke-miterlimit:9.4" d="m 149.96233,111.95424 -7.74839,1.50673 c -0.046,0.009 -0.0919,0.0204 -0.13742,0.0334 -0.0456,0.0131 -0.0907,0.029 -0.13569,0.0468 -0.0449,0.0177 -0.0897,0.0371 -0.13391,0.059 -0.0442,0.0219 -0.0879,0.0461 -0.13139,0.0719 -0.0435,0.0258 -0.0866,0.0535 -0.12913,0.0831 -0.0425,0.0296 -0.0847,0.0613 -0.12616,0.0947 -0.0415,0.0334 -0.0825,0.0684 -0.12293,0.1053 -0.0404,0.0369 -0.0801,0.0755 -0.11926,0.1159 -0.0391,0.0404 -0.0774,0.0827 -0.11519,0.12636 -0.0323,0.0373 -0.0638,0.0764 -0.095,0.11595 -1.53841,13.66517 9.69004,33.55611 13.69783,45.0986 0.38106,-12.77803 -15.47129,-23.52547 -4.70332,-47.45773 z m -91.970832,0 7.74839,1.50673 c 0.046,0.009 0.0919,0.0204 0.13742,0.0334 0.0456,0.0131 0.0907,0.029 0.13569,0.0468 0.0449,0.0177 0.0897,0.0371 0.13391,0.059 0.0442,0.0219 0.0879,0.0461 0.13139,0.0719 0.0435,0.0258 0.0866,0.0535 0.12913,0.0831 0.0425,0.0296 0.0847,0.0613 0.12616,0.0947 0.0415,0.0334 0.0825,0.0684 0.12293,0.1053 0.0404,0.0369 0.0801,0.0755 0.11926,0.1159 0.0391,0.0404 0.0774,0.0827 0.11519,0.12636 0.0323,0.0373 0.0638,0.0764 0.095,0.11595 1.53841,13.66517 -9.69004,33.55611 -13.69783,45.0986 -0.38106,-12.77803 15.47129,-23.52547 4.70332,-47.45773 z" sodipodi:nodetypes="cssssssssscccc" inkscape:original-d="m 149.96233,111.95424 -7.74839,1.50673 c -0.046,0.009 -0.0919,0.0204 -0.13742,0.0334 -0.0456,0.0131 -0.0907,0.029 -0.13569,0.0468 -0.0449,0.0177 -0.0897,0.0371 -0.13391,0.059 -0.0442,0.0219 -0.0879,0.0461 -0.13139,0.0719 -0.0435,0.0258 -0.0866,0.0535 -0.12913,0.0831 -0.0425,0.0296 -0.0847,0.0613 -0.12616,0.0947 -0.0415,0.0334 -0.0825,0.0684 -0.12293,0.1053 -0.0404,0.0369 -0.0801,0.0755 -0.11926,0.1159 -0.0391,0.0404 -0.0774,0.0827 -0.11519,0.12636 -0.0323,0.0373 -0.0638,0.0764 -0.095,0.11595 -1.53841,13.66517 9.69004,33.55611 13.69783,45.0986 0.38106,-12.77803 -15.47129,-23.52547 -4.70332,-47.45773 z"/><path id="path17413" style="fill:#b5dfef;stroke-width:0.0799154;stroke-linecap:round;stroke-linejoin:round;stroke-miterlimit:9.4" d="m 163.64046,156.70314 v -14.08131 l -2.26136,-14.80013 -0.60203,-2.46651 -2.60553,-2.49339 c 3.26491,4.22074 2.6102,19.3524 1.56735,35.56424 l 1.03663,-0.20154 c 0.0877,-0.0171 0.17496,-0.037 0.26096,-0.0579 0.086,-0.021 0.17057,-0.0434 0.25477,-0.0682 0.0842,-0.0248 0.16781,-0.052 0.25011,-0.0806 0.0823,-0.0286 0.16361,-0.0593 0.24391,-0.0915 0.0803,-0.0322 0.15942,-0.0661 0.23772,-0.10181 0.0782,-0.0357 0.15541,-0.0731 0.23151,-0.11214 0.0761,-0.039 0.15099,-0.0791 0.22479,-0.12143 0.0738,-0.0423 0.14657,-0.0864 0.21807,-0.13178 0.0715,-0.0454 0.14226,-0.0927 0.21136,-0.14108 0.0691,-0.0484 0.13659,-0.0986 0.20309,-0.14986 0.0665,-0.0513 0.13195,-0.10403 0.19585,-0.15813 0.0639,-0.054 0.12639,-0.10918 0.18759,-0.16588 0.0497,-0.046 0.0974,-0.0934 0.14521,-0.14108 z m -119.327092,0 v -14.08131 l 2.26136,-14.80013 0.60203,-2.46651 2.60553,-2.49339 c -3.26491,4.22074 -2.6102,19.3524 -1.56735,35.56424 l -1.03663,-0.20154 c -0.08766,-0.0171 -0.17496,-0.037 -0.26096,-0.0579 -0.08597,-0.021 -0.17057,-0.0434 -0.25477,-0.0682 -0.08418,-0.0248 -0.16781,-0.052 -0.25011,-0.0806 -0.08229,-0.0286 -0.16361,-0.0593 -0.24391,-0.0915 -0.08032,-0.0322 -0.15942,-0.0661 -0.23772,-0.10181 -0.07825,-0.0357 -0.15541,-0.0731 -0.23151,-0.11214 -0.0761,-0.039 -0.15099,-0.0791 -0.22479,-0.12143 -0.07384,-0.0423 -0.14657,-0.0864 -0.21807,-0.13178 -0.0715,-0.0454 -0.14226,-0.0927 -0.21136,-0.14108 -0.06905,-0.0484 -0.13659,-0.0986 -0.20309,-0.14986 -0.06652,-0.0513 -0.13195,-0.10403 -0.19585,-0.15813 -0.0639,-0.054 -0.12639,-0.10918 -0.18759,-0.16588 -0.04969,-0.046 -0.0974,-0.0934 -0.14521,-0.14108 z" inkscape:original-d="m 163.64046,156.70314 v -14.08131 l -2.26136,-14.80013 -0.60203,-2.46651 -2.60553,-2.49339 c 3.26491,4.22074 2.6102,19.3524 1.56735,35.56424 l 1.03663,-0.20154 c 0.0877,-0.0171 0.17496,-0.037 0.26096,-0.0579 0.086,-0.021 0.17057,-0.0434 0.25477,-0.0682 0.0842,-0.0248 0.16781,-0.052 0.25011,-0.0806 0.0823,-0.0286 0.16361,-0.0593 0.24391,-0.0915 0.0803,-0.0322 0.15942,-0.0661 0.23772,-0.10181 0.0782,-0.0357 0.15541,-0.0731 0.23151,-0.11214 0.0761,-0.039 0.15099,-0.0791 0.22479,-0.12143 0.0738,-0.0423 0.14657,-0.0864 0.21807,-0.13178 0.0715,-0.0454 0.14226,-0.0927 0.21136,-0.14108 0.0691,-0.0484 0.13659,-0.0986 0.20309,-0.14986 0.0665,-0.0513 0.13195,-0.10403 0.19585,-0.15813 0.0639,-0.054 0.12639,-0.10918 0.18759,-0.16588 0.0497,-0.046 0.0974,-0.0934 0.14521,-0.14108 z"/><path id="path17415" style="fill:#f5f5f5;fill-opacity:1;fill-rule:evenodd;stroke-width:0.250168" d="m 134.24333,125.89435 c 1.34503,-2.27143 4.00153,-6.46689 5.96427,-4.12591 1.0838,-0.99619 1.77741,-0.56088 4.71401,-3.02379 5.40771,-4.53542 6.03305,4.62665 12.16644,4.96915 1.4647,0.20399 2.54965,0.94615 3.34436,1.86403 0.98677,1.13969 2.81116,-1.71973 1.17959,-5.67509 -0.33891,-0.82161 -0.93493,-1.51659 -1.96734,-2.08454 -2.52921,-1.39136 -7.57546,-7.08561 -14.50846,-9.45532 -3.55098,0.70225 -3.69366,-0.99201 -5.87952,-0.81942 -1.70532,0.13465 -8.84706,3.80667 -8.61587,5.02848 l 2.43771,12.883 c 0.17285,0.91349 0.74547,1.14757 1.16481,0.43941 z m -60.532832,0 c -1.34503,-2.27143 -4.00153,-6.46689 -5.96427,-4.12591 -1.0838,-0.99619 -1.77741,-0.56088 -4.71401,-3.02379 -5.40771,-4.53542 -6.03305,4.62665 -12.16644,4.96915 -1.4647,0.20399 -2.54965,0.94615 -3.34436,1.86403 -0.98677,1.13969 -2.81116,-1.71973 -1.17959,-5.67509 0.33891,-0.82161 0.93493,-1.51659 1.96734,-2.08454 2.52921,-1.39136 7.57546,-7.08561 14.50846,-9.45532 3.55098,0.70225 3.69366,-0.99201 5.87952,-0.81942 1.70532,0.13465 8.84706,3.80667 8.61587,5.02848 l -2.43771,12.883 c -0.17285,0.91349 -0.74547,1.14757 -1.16481,0.43941 z" sodipodi:nodetypes="ccsccccssc" inkscape:original-d="m 134.24333,125.89435 c 1.34503,-2.27143 4.00153,-6.46689 5.96427,-4.12591 1.0838,-0.99619 1.77741,-0.56088 4.71401,-3.02379 5.40771,-4.53542 6.03305,4.62665 12.16644,4.96915 1.4647,0.20399 2.54965,0.94615 3.34436,1.86403 0.98677,1.13969 2.81116,-1.71973 1.17959,-5.67509 -0.33891,-0.82161 -0.93493,-1.51659 -1.96734,-2.08454 -2.52921,-1.39136 -7.57546,-7.08561 -14.50846,-9.45532 -3.55098,0.70225 -3.69366,-0.99201 -5.87952,-0.81942 -1.70532,0.13465 -8.84706,3.80667 -8.61587,5.02848 l 2.43771,12.883 c 0.17285,0.91349 0.74547,1.14757 1.16481,0.43941 z"/><path id="path17417" style="fill:#87d4e8;fill-opacity:1;stroke-width:0.032628;stroke-linecap:round;stroke-linejoin:round;stroke-miterlimit:9.4" d="m 163.64046,160.83778 v -27.47533 c -0.48396,-1.13275 -1.41839,-2.05548 -2.34766,-1.5012 l -9.31158,5.55418 c -1.37727,0.82148 -2.97091,0.88179 -3.09645,2.42208 l -1.31878,16.18299 c -0.12553,1.54029 1.08171,2.94398 2.68252,3.14399 z m -119.327092,0 v -27.47533 c 0.48396,-1.13275 1.41839,-2.05548 2.34766,-1.5012 l 9.31158,5.55418 c 1.37727,0.82148 2.97091,0.88179 3.09645,2.42208 l 1.31878,16.18299 c 0.12553,1.54029 -1.08171,2.94398 -2.68252,3.14399 z" inkscape:original-d="m 163.64046,160.83778 v -27.47533 c -0.48396,-1.13275 -1.41839,-2.05548 -2.34766,-1.5012 l -9.31158,5.55418 c -1.37727,0.82148 -2.97091,0.88179 -3.09645,2.42208 l -1.31878,16.18299 c -0.12553,1.54029 1.08171,2.94398 2.68252,3.14399 z"/><path id="path17419" style="fill:#77c8db;fill-opacity:1;stroke-width:0.0853112;stroke-linecap:round;stroke-linejoin:round;stroke-miterlimit:9.4" d="m 163.64046,160.83778 v -25.51679 l -2.33629,0.0305 1.13378,25.33592 z m -119.327092,0 v -25.51679 l 2.33629,0.0305 -1.13378,25.33592 z" inkscape:original-d="m 163.64046,160.83778 v -25.51679 l -2.33629,0.0305 1.13378,25.33592 z"/><path id="path17421" style="fill:#b5dfef;stroke-width:0.0452752;stroke-linecap:round;stroke-linejoin:round;stroke-miterlimit:9.4" d="m 154.84433,133.29264 2.5287,0.31594 -0.22857,13.59257 c 0.0466,-5.24214 -0.43186,-8.42712 -2.30013,-13.90851 z m -101.734832,0 -2.5287,0.31594 0.22857,13.59257 c -0.0466,-5.24214 0.43186,-8.42712 2.30013,-13.90851 z" sodipodi:nodetypes="cccc" inkscape:original-d="m 154.84433,133.29264 2.5287,0.31594 -0.22857,13.59257 c 0.0466,-5.24214 -0.43186,-8.42712 -2.30013,-13.90851 z"/><path id="path17423" style="fill:#6bbed0;stroke-width:0.032791;stroke-linecap:round;stroke-linejoin:round;stroke-miterlimit:9.4" d="m 154.51814,132.49313 4.42206,0.5525 c 0.0262,0.003 0.0525,0.008 0.0787,0.0136 0.0262,0.006 0.0522,0.0129 0.0782,0.0212 0.026,0.008 0.052,0.0176 0.0777,0.0282 0.0258,0.0107 0.0513,0.0227 0.0768,0.0357 0.0255,0.0129 0.0509,0.027 0.076,0.0421 0.0251,0.0152 0.0501,0.0315 0.0748,0.0488 0.0247,0.0173 0.0492,0.0356 0.0734,0.055 0.0242,0.0194 0.0481,0.0397 0.0717,0.0611 0.0236,0.0214 0.0469,0.0439 0.0698,0.0672 0.0197,0.0199 0.0389,0.0408 0.0581,0.0621 1.40336,7.69242 -4.13711,19.41487 -5.94005,26.11943 -0.71683,-7.23429 7.7866,-13.94989 0.78284,-27.1069 z m -101.082452,0 -4.42206,0.5525 c -0.0262,0.003 -0.0525,0.008 -0.0787,0.0136 -0.0262,0.006 -0.0522,0.0129 -0.0782,0.0212 -0.026,0.008 -0.052,0.0176 -0.0777,0.0282 -0.0258,0.0107 -0.0513,0.0227 -0.0768,0.0357 -0.0255,0.0129 -0.0509,0.027 -0.076,0.0421 -0.0251,0.0152 -0.0501,0.0315 -0.0748,0.0488 -0.0247,0.0173 -0.0492,0.0356 -0.0734,0.055 -0.0242,0.0194 -0.0481,0.0397 -0.0717,0.0611 -0.0236,0.0214 -0.0469,0.0439 -0.0698,0.0672 -0.0197,0.0199 -0.0389,0.0408 -0.0581,0.0621 -1.40336,7.69242 4.13711,19.41487 5.94005,26.11943 0.71683,-7.23429 -7.7866,-13.94989 -0.78284,-27.1069 z" sodipodi:nodetypes="cssssssssscccc" inkscape:original-d="m 154.51814,132.49313 4.42206,0.5525 c 0.0262,0.003 0.0525,0.008 0.0787,0.0136 0.0262,0.006 0.0522,0.0129 0.0782,0.0212 0.026,0.008 0.052,0.0176 0.0777,0.0282 0.0258,0.0107 0.0513,0.0227 0.0768,0.0357 0.0255,0.0129 0.0509,0.027 0.076,0.0421 0.0251,0.0152 0.0501,0.0315 0.0748,0.0488 0.0247,0.0173 0.0492,0.0356 0.0734,0.055 0.0242,0.0194 0.0481,0.0397 0.0717,0.0611 0.0236,0.0214 0.0469,0.0439 0.0698,0.0672 0.0197,0.0199 0.0389,0.0408 0.0581,0.0621 1.40336,7.69242 -4.13711,19.41487 -5.94005,26.11943 -0.71683,-7.23429 7.7866,-13.94989 0.78284,-27.1069 z"/><path id="path17425" style="fill:#b5dfef;stroke-width:0.0452752;stroke-linecap:round;stroke-linejoin:round;stroke-miterlimit:9.4" d="m 148.7135,141.9404 -1.14762,14.07999 c -0.004,0.0481 -0.006,0.0962 -0.008,0.14399 -0.001,0.0478 -0.001,0.0955 -2e-4,0.14299 0.001,0.0475 0.004,0.0949 0.007,0.14195 0.004,0.047 0.008,0.0936 0.0145,0.1402 0.006,0.0465 0.0133,0.0929 0.0217,0.13889 0.008,0.046 0.0179,0.0917 0.0286,0.13708 0.0107,0.0454 0.0224,0.0903 0.0353,0.135 0.0129,0.0447 0.027,0.089 0.042,0.13292 0.0151,0.0439 0.0312,0.0874 0.0483,0.13053 0.0172,0.0431 0.0354,0.0857 0.0547,0.12792 0.0192,0.0422 0.0395,0.084 0.0608,0.12526 0.0212,0.0413 0.0435,0.0821 0.0667,0.12235 0.0232,0.0402 0.0473,0.0798 0.0723,0.11891 0.0251,0.0392 0.0511,0.078 0.078,0.11597 0.0269,0.038 0.0546,0.0754 0.0833,0.11224 0.0287,0.0368 0.0584,0.073 0.0888,0.10855 0.0304,0.0355 0.0615,0.0703 0.0936,0.10451 0.032,0.0342 0.065,0.0678 0.0987,0.10052 0.0336,0.0328 0.0681,0.0647 0.1033,0.096 0.0352,0.0313 0.071,0.0619 0.1077,0.0917 0.0367,0.0298 0.074,0.0587 0.11215,0.0869 0.0381,0.0282 0.0769,0.0555 0.11635,0.082 0.0395,0.0265 0.0796,0.0521 0.12037,0.0769 0.0408,0.0248 0.0823,0.0488 0.12437,0.0718 0.0421,0.023 0.0847,0.0451 0.12797,0.0662 0.0432,0.0211 0.087,0.0411 0.13136,0.0603 0.0444,0.0192 0.0895,0.0374 0.13495,0.0546 0.0455,0.0172 0.0914,0.0333 0.1379,0.0485 0.0465,0.0151 0.0934,0.0294 0.14085,0.0424 0.0475,0.013 0.0955,0.0249 0.14384,0.0357 0.0484,0.0108 0.0971,0.0204 0.14638,0.029 0.0492,0.009 0.0989,0.0161 0.14891,0.0224 l 0.59182,0.0739 c -1.31727,-9.85071 -2.33447,-19.0142 -0.0903,-20.70815 l -1.79436,1.98724 z m -89.473172,0 1.14762,14.07999 c 0.004,0.0481 0.006,0.0962 0.008,0.14399 0.001,0.0478 0.001,0.0955 2e-4,0.14299 -10e-4,0.0475 -0.004,0.0949 -0.007,0.14195 -0.004,0.047 -0.008,0.0936 -0.0145,0.1402 -0.006,0.0465 -0.0133,0.0929 -0.0217,0.13889 -0.008,0.046 -0.0179,0.0917 -0.0286,0.13708 -0.0107,0.0454 -0.0224,0.0903 -0.0353,0.135 -0.0129,0.0447 -0.027,0.089 -0.042,0.13292 -0.0151,0.0439 -0.0312,0.0874 -0.0483,0.13053 -0.0172,0.0431 -0.0354,0.0857 -0.0547,0.12792 -0.0192,0.0422 -0.0395,0.084 -0.0608,0.12526 -0.0212,0.0413 -0.0435,0.0821 -0.0667,0.12235 -0.0232,0.0402 -0.0473,0.0798 -0.0723,0.11891 -0.0251,0.0392 -0.0511,0.078 -0.078,0.11597 -0.0269,0.038 -0.0546,0.0754 -0.0833,0.11224 -0.0287,0.0368 -0.0584,0.073 -0.0888,0.10855 -0.0304,0.0355 -0.0615,0.0703 -0.0936,0.10451 -0.032,0.0342 -0.065,0.0678 -0.0987,0.10052 -0.0336,0.0328 -0.0681,0.0647 -0.1033,0.096 -0.0352,0.0313 -0.071,0.0619 -0.1077,0.0917 -0.0367,0.0298 -0.074,0.0587 -0.11215,0.0869 -0.0381,0.0282 -0.0769,0.0555 -0.11635,0.082 -0.0395,0.0265 -0.0796,0.0521 -0.12037,0.0769 -0.0408,0.0248 -0.0823,0.0488 -0.12437,0.0718 -0.0421,0.023 -0.0847,0.0451 -0.12797,0.0662 -0.0432,0.0211 -0.087,0.0411 -0.13136,0.0603 -0.0444,0.0192 -0.0895,0.0374 -0.13495,0.0546 -0.0455,0.0172 -0.0914,0.0333 -0.1379,0.0485 -0.0465,0.0151 -0.0934,0.0294 -0.14085,0.0424 -0.0475,0.013 -0.0955,0.0249 -0.14384,0.0357 -0.0484,0.0108 -0.0971,0.0204 -0.14638,0.029 -0.0492,0.009 -0.0989,0.0161 -0.14891,0.0224 l -0.59182,0.0739 c 1.31727,-9.85071 2.33447,-19.0142 0.0903,-20.70815 l 1.79436,1.98724 z" sodipodi:nodetypes="ccsssssssssssssssssssssssssssssssscccc" inkscape:original-d="m 148.7135,141.9404 -1.14762,14.07999 c -0.004,0.0481 -0.006,0.0962 -0.008,0.14399 -0.001,0.0478 -0.001,0.0955 -2e-4,0.14299 0.001,0.0475 0.004,0.0949 0.007,0.14195 0.004,0.047 0.008,0.0936 0.0145,0.1402 0.006,0.0465 0.0133,0.0929 0.0217,0.13889 0.008,0.046 0.0179,0.0917 0.0286,0.13708 0.0107,0.0454 0.0224,0.0903 0.0353,0.135 0.0129,0.0447 0.027,0.089 0.042,0.13292 0.0151,0.0439 0.0312,0.0874 0.0483,0.13053 0.0172,0.0431 0.0354,0.0857 0.0547,0.12792 0.0192,0.0422 0.0395,0.084 0.0608,0.12526 0.0212,0.0413 0.0435,0.0821 0.0667,0.12235 0.0232,0.0402 0.0473,0.0798 0.0723,0.11891 0.0251,0.0392 0.0511,0.078 0.078,0.11597 0.0269,0.038 0.0546,0.0754 0.0833,0.11224 0.0287,0.0368 0.0584,0.073 0.0888,0.10855 0.0304,0.0355 0.0615,0.0703 0.0936,0.10451 0.032,0.0342 0.065,0.0678 0.0987,0.10052 0.0336,0.0328 0.0681,0.0647 0.1033,0.096 0.0352,0.0313 0.071,0.0619 0.1077,0.0917 0.0367,0.0298 0.074,0.0587 0.11215,0.0869 0.0381,0.0282 0.0769,0.0555 0.11635,0.082 0.0395,0.0265 0.0796,0.0521 0.12037,0.0769 0.0408,0.0248 0.0823,0.0488 0.12437,0.0718 0.0421,0.023 0.0847,0.0451 0.12797,0.0662 0.0432,0.0211 0.087,0.0411 0.13136,0.0603 0.0444,0.0192 0.0895,0.0374 0.13495,0.0546 0.0455,0.0172 0.0914,0.0333 0.1379,0.0485 0.0465,0.0151 0.0934,0.0294 0.14085,0.0424 0.0475,0.013 0.0955,0.0249 0.14384,0.0357 0.0484,0.0108 0.0971,0.0204 0.14638,0.029 0.0492,0.009 0.0989,0.0161 0.14891,0.0224 l 0.59182,0.0739 c -1.31727,-9.85071 -2.33447,-19.0142 -0.0903,-20.70815 l -1.79436,1.98724 z"/><path id="path17427" style="display:inline;fill:#f5f5f5;fill-opacity:1;fill-rule:evenodd;stroke-width:0.14173" d="m 163.64046,139.25666 v -8.508 c -1.23177,-0.61333 -2.73347,-1.17011 -3.2675,-1.17564 -1.23756,-0.0126 -1.25134,0.95439 -3.27836,0.69453 -3.81057,1.61484 -6.42855,5.04186 -7.79797,5.92987 -2.70111,1.7516 -0.29536,3.66167 1.67173,3.24528 3.44003,-0.43359 3.43174,-5.65589 6.65489,-3.29386 1.7503,1.28268 2.12355,1.00882 2.77296,1.53169 0.79672,-1.10461 1.99414,0.0668 2.88096,1.21905 0.12372,0.16074 0.24491,0.27168 0.36329,0.35708 z m -119.327092,0 v -8.508 c 1.23177,-0.61333 2.73347,-1.17011 3.2675,-1.17564 1.23756,-0.0126 1.25134,0.95439 3.27836,0.69453 3.81057,1.61484 6.42855,5.04186 7.79797,5.92987 2.70111,1.7516 0.29536,3.66167 -1.67173,3.24528 -3.44003,-0.43359 -3.43174,-5.65589 -6.65489,-3.29386 -1.7503,1.28268 -2.12355,1.00882 -2.77296,1.53169 -0.79672,-1.10461 -1.99414,0.0668 -2.88096,1.21905 -0.12372,0.16074 -0.24491,0.27168 -0.36329,0.35708 z" inkscape:original-d="m 163.64046,139.25666 v -8.508 c -1.23177,-0.61333 -2.73347,-1.17011 -3.2675,-1.17564 -1.23756,-0.0126 -1.25134,0.95439 -3.27836,0.69453 -3.81057,1.61484 -6.42855,5.04186 -7.79797,5.92987 -2.70111,1.7516 -0.29536,3.66167 1.67173,3.24528 3.44003,-0.43359 3.43174,-5.65589 6.65489,-3.29386 1.7503,1.28268 2.12355,1.00882 2.77296,1.53169 0.79672,-1.10461 1.99414,0.0668 2.88096,1.21905 0.12372,0.16074 0.24491,0.27168 0.36329,0.35708 z"/></g><path id="path17321" style="fill:#ffffff;fill-opacity:1;stroke-width:0.104637;stroke-linecap:round;stroke-linejoin:round;stroke-miterlimit:9.4;opacity:0.55702918" d="m 44.313374,153.99815 c 57.263996,14.31866 79.985836,0.16776 119.327076,0 v 45.05168 H 44.313374 Z" sodipodi:nodetypes="ccccc"/><path id="rect5240" style="fill:url(#linearGradient5717);fill-opacity:1;stroke-width:0.104637;stroke-linecap:round;stroke-linejoin:round;stroke-miterlimit:9.4" d="m 44.313374,155.05649 c 57.263996,14.31866 79.985836,0.16776 119.327076,0 v 45.05168 H 44.313374 Z" sodipodi:nodetypes="ccccc"/><path id="path8097" style="opacity:0.421751;fill:url(#linearGradient8381);fill-opacity:1;stroke-width:0.101861;stroke-linecap:round;stroke-linejoin:round;stroke-miterlimit:9.4" d="m 103.97691,200.27776 c -9.295448,-0.002 -18.88547,0.60978 -28.180838,0 H 58.671141 c 16.669423,-16.26729 8.544192,-15.28514 12.330439,-23.27039 l 42.85376,-5.63675 22.32204,5.98705 c 3.31739,5.92733 4.75121,-0.18214 6.17911,22.7505 -14.41505,1.05405 -23.96455,0.17281 -38.37958,0.16959 z" sodipodi:nodetypes="cccccccc"/><path id="rect6481" style="fill:url(#linearGradient12440);stroke-width:0.0989132;stroke-linecap:round;stroke-linejoin:round;stroke-miterlimit:9.4;fill-opacity:1;opacity:1" d="m 101.5781,158.1414 c -8.76525,0.002 -17.53039,0.27666 -26.295557,0.88644 l -8.947257,8.3952 1.870686,19.21552 44.745588,6.78637 26.83041,-7.13667 2.57452,-26.44768 c -13.59283,-1.05405 -27.18559,-1.7024 -40.77839,-1.69918 z"/><path id="path9463" style="opacity:1;fill:#6bbed0;stroke-width:0.0805313;stroke-linecap:round;stroke-linejoin:round;stroke-miterlimit:9.4" d="M 88.855875 189.77038 L 98.828393 191.28295 L 105.28691 165.24784 L 101.7693 169.27395 L 88.855875 189.77038 z "/><path id="rect9466" style="opacity:1;fill:#6bbed0;stroke-width:0.0778312;stroke-linecap:round;stroke-linejoin:round;stroke-miterlimit:9.4" d="m 81.671494,175.60391 3.76554,0.0702 5.141732,14.35764 -7.199901,-1.09197 z" sodipodi:nodetypes="ccccc"/><path id="path10971" style="opacity:1;fill:#6bbed0;stroke-width:0.1;stroke-linecap:round;stroke-linejoin:round;stroke-miterlimit:9.4" d="M 132.38655 188.25574 L 136.192 187.2434 L 135.8251 163.55699 L 125.77455 163.55699 L 132.38655 188.25574 z "/><path id="path9472" style="opacity:1;fill:#6bbed0;stroke-width:0.044252;stroke-linecap:round;stroke-linejoin:round;stroke-miterlimit:9.4" d="m 136.70668,160.55966 h 4.23612 l -2.38473,14.4585 z" sodipodi:nodetypes="cccc"/><path id="path7299" style="fill:#ffffff;fill-opacity:1;stroke-width:0.0883627;stroke-linecap:round;stroke-linejoin:round;stroke-miterlimit:9.4" d="M 101.5781 158.14027 L 101.5781 158.14078 C 100.82849 158.14093 100.07874 158.14295 99.329137 158.14595 C 98.579537 158.14895 97.830294 158.15372 97.080696 158.16042 C 96.331098 158.16742 95.581336 158.17532 94.831737 158.18522 C 94.082141 158.19522 93.332375 158.20655 92.582779 158.21985 C 91.833183 158.23315 91.083932 158.24862 90.334338 158.26532 C 89.584741 158.28212 88.834973 158.30042 88.085379 158.32062 C 87.335785 158.34092 86.586015 158.36338 85.836421 158.38728 C 85.086827 158.41118 84.337575 158.43688 83.587979 158.46428 C 82.838386 158.49178 82.088615 158.52134 81.339021 158.55264 C 80.589427 158.58394 79.839657 158.61676 79.090063 158.65186 C 78.340467 158.68686 77.590701 158.72352 76.841104 158.76245 C 76.341494 158.78835 75.841995 158.8164 75.342488 158.8441 L 66.386445 165.96718 L 67.677323 176.54896 L 85.658137 178.72557 L 97.373701 175.77485 L 94.370267 179.77977 L 109.24739 181.5807 L 136.0778 175.88492 L 139.12257 162.04649 L 142.35649 160.96748 L 142.35649 159.49677 C 140.65738 159.39162 138.95822 159.2917 137.25912 159.19705 C 135.56002 159.10235 133.86086 159.01274 132.16176 158.92936 C 131.31221 158.88776 130.46263 158.84724 129.61308 158.80844 C 128.76353 158.76974 127.91392 158.73301 127.0644 158.69734 C 126.21485 158.66164 125.36526 158.62756 124.51571 158.59502 C 123.66617 158.56242 122.81658 158.5313 121.96703 158.502 C 121.11748 158.4728 120.26842 158.44522 119.41887 158.41932 C 118.56932 158.39342 117.71971 158.36957 116.87019 158.34697 C 116.02064 158.32447 115.17105 158.30344 114.3215 158.28444 C 113.47196 158.26544 112.62237 158.24807 111.77282 158.23277 C 110.92327 158.21737 110.07369 158.20416 109.22414 158.19246 C 108.37459 158.18086 107.52501 158.17132 106.67546 158.16352 C 105.82591 158.15552 104.97633 158.15037 104.12678 158.14647 C 103.27723 158.14247 102.42763 158.14027 101.5781 158.14027 z "/><path id="path10961" style="opacity:1;fill:#87d4e8;stroke-width:0.1;stroke-linecap:round;stroke-linejoin:round;stroke-miterlimit:9.4" d="M 108.18803 192.7025 L 112.95156 193.42493 L 116.09297 192.58933 L 119.42714 188.77147 L 113.78459 189.82929 L 107.96582 186.4791 L 108.18803 192.7025 z "/><path id="path10966" style="opacity:1;fill:#87d4e8;stroke-width:0.0690903;stroke-linecap:round;stroke-linejoin:round;stroke-miterlimit:9.4" d="M 116.0015 192.61361 L 122.228 190.95738 L 121.59341 187.08837 L 119.5186 190.35949 L 114.9225 191.84105 L 116.0015 192.61361 z "/><ellipse style="fill:url(#radialGradient17331);fill-opacity:1;fill-rule:evenodd;stroke-width:0.214527;opacity:0.87798408" id="path17323" cx="54.697666" cy="100.24713" rx="6.0608726" ry="5.606307"/><ellipse style="opacity:0.877984;fill:url(#radialGradient17335);fill-opacity:1;fill-rule:evenodd;stroke-width:0.128537" id="ellipse17333" cx="65.723404" cy="109.22189" rx="3.6314728" ry="3.3591123"/><ellipse style="opacity:0.877984;fill:url(#radialGradient17339);fill-opacity:1;fill-rule:evenodd;stroke-width:0.128537" id="ellipse17337" cx="101.60377" cy="84.180389" rx="3.6314728" ry="3.3591123"/><ellipse style="opacity:0.877984;fill:url(#radialGradient17343);fill-opacity:1;fill-rule:evenodd;stroke-width:0.0888496" id="ellipse17341" cx="135.24161" cy="101.0834" rx="2.5102115" ry="2.3219454"/><ellipse style="opacity:0.877984;fill:url(#radialGradient17347);fill-opacity:1;fill-rule:evenodd;stroke-width:0.0888496" id="ellipse17345" cx="52.642014" cy="123.50863" rx="2.5102115" ry="2.3219454"/><ellipse style="opacity:0.877984;fill:url(#radialGradient17351);fill-opacity:1;fill-rule:evenodd;stroke-width:0.0888496" id="ellipse17349" cx="59.743336" cy="82.395706" rx="2.5102115" ry="2.3219454"/><ellipse style="opacity:0.877984;fill:url(#radialGradient17355);fill-opacity:1;fill-rule:evenodd;stroke-width:0.0888496" id="ellipse17353" cx="156.91933" cy="85.385735" rx="2.5102115" ry="2.3219454"/><ellipse style="opacity:0.877984;fill:url(#radialGradient17359);fill-opacity:1;fill-rule:evenodd;stroke-width:0.214526" id="ellipse17357" cx="125.71088" cy="115.20662" rx="6.0608726" ry="5.606307"/><ellipse style="opacity:0.877984;fill:url(#radialGradient17363);fill-opacity:1;fill-rule:evenodd;stroke-width:0.214526" id="ellipse17361" cx="151.87364" cy="154.82452" rx="6.0608726" ry="5.606307"/><ellipse style="opacity:0.877984;fill:url(#radialGradient17367);fill-opacity:1;fill-rule:evenodd;stroke-width:0.214526" id="ellipse17365" cx="64.415245" cy="144.73317" rx="6.0608726" ry="5.606307"/><ellipse style="opacity:0.877984;fill:url(#radialGradient17371);fill-opacity:1;fill-rule:evenodd;stroke-width:0.0929613" id="ellipse17369" cx="53.879429" cy="161.73897" rx="2.6263781" ry="2.4293995"/><ellipse style="opacity:0.877984;fill:url(#radialGradient17375);fill-opacity:1;fill-rule:evenodd;stroke-width:0.0929613" id="ellipse17373" cx="86.396011" cy="108.29218" rx="2.6263781" ry="2.4293995"/><path id="ellipse17377" style="opacity:0.877984;fill:url(#radialGradient17379);fill-opacity:1;fill-rule:evenodd;stroke-width:0.214527" d="M 135.37293 78.569412 L 123.52404 78.569412 A 6.0608726 5.606307 0 0 0 129.44823 83.05441 A 6.0608726 5.606307 0 0 0 135.37293 78.569412 z "/><ellipse style="opacity:0.877984;fill:url(#radialGradient17383);fill-opacity:1;fill-rule:evenodd;stroke-width:0.171622" id="ellipse17381" cx="133.84256" cy="139.49129" rx="4.8486981" ry="4.4850454"/><path id="path17395" style="opacity:0.877984;fill:url(#radialGradient17387);fill-opacity:1;fill-rule:evenodd;stroke-width:0.171622" d="M 163.64046 180.8748 L 163.64046 172.11099 A 4.8486981 4.4850454 0 0 0 159.64174 176.49315 A 4.8486981 4.4850454 0 0 0 163.64046 180.8748 z "/><ellipse style="opacity:0.877984;fill:url(#radialGradient17391);fill-opacity:1;fill-rule:evenodd;stroke-width:0.0929619" id="ellipse17389" cx="146.94414" cy="121.73797" rx="2.6263781" ry="2.4293995"/></g></g></svg>