<?xml version="1.0" encoding="UTF-8" standalone="no"?>
<svg
   viewBox="0 0 300 345"
   version="1.1"
   id="svg33039"
   sodipodi:docname="alpaca.svg"
   inkscape:version="1.2 (dc2aedaf03, 2022-05-15)"
   xmlns:inkscape="http://www.inkscape.org/namespaces/inkscape"
   xmlns:sodipodi="http://sodipodi.sourceforge.net/DTD/sodipodi-0.dtd"
   xmlns="http://www.w3.org/2000/svg"
   xmlns:svg="http://www.w3.org/2000/svg">
  <sodipodi:namedview
     id="namedview33041"
     pagecolor="#505050"
     bordercolor="#ffffff"
     borderopacity="1"
     inkscape:showpageshadow="0"
     inkscape:pageopacity="0"
     inkscape:pagecheckerboard="1"
     inkscape:deskcolor="#505050"
     showgrid="false"
     inkscape:zoom="1.155"
     inkscape:cx="223.80952"
     inkscape:cy="216.45022"
     inkscape:window-width="1366"
     inkscape:window-height="705"
     inkscape:window-x="-8"
     inkscape:window-y="-8"
     inkscape:window-maximized="1"
     inkscape:current-layer="svg33039" />
  <defs
     id="defs32987">
    <inkscape:path-effect
       effect="mirror_symmetry"
       start_point="248.02248,85.213965"
       end_point="248.02248,118.92676"
       center_point="248.02248,102.07036"
       id="path-effect41260"
       is_visible="true"
       lpeversion="1.2"
       lpesatellites="#g41321"
       mode="vertical"
       discard_orig_path="false"
       fuse_paths="false"
       oposite_fuse="false"
       split_items="true"
       split_open="false"
       link_styles="false" />
    <inkscape:path-effect
       effect="mirror_symmetry"
       start_point="301.76885,261.2792"
       end_point="301.76885,314.8383"
       center_point="301.76885,288.05875"
       id="path-effect40040"
       is_visible="true"
       lpeversion="1.2"
       lpesatellites="#g40044"
       mode="vertical"
       discard_orig_path="false"
       fuse_paths="false"
       oposite_fuse="false"
       split_items="true"
       split_open="false"
       link_styles="false" />
    <inkscape:path-effect
       effect="mirror_symmetry"
       start_point="149.61791,248.23889"
       end_point="149.61791,282.57673"
       center_point="149.61791,265.40781"
       id="path-effect37428"
       is_visible="true"
       lpeversion="1.2"
       lpesatellites=""
       mode="vertical"
       discard_orig_path="false"
       fuse_paths="false"
       oposite_fuse="false"
       split_items="false"
       split_open="false"
       link_styles="false" />
    <inkscape:path-effect
       effect="bspline"
       id="path-effect36208"
       is_visible="true"
       lpeversion="1"
       weight="33.333333"
       steps="2"
       helper_size="0"
       apply_no_weight="true"
       apply_with_weight="true"
       only_selected="false" />
    <inkscape:path-effect
       effect="bspline"
       id="path-effect36202"
       is_visible="true"
       lpeversion="1"
       weight="33.333333"
       steps="2"
       helper_size="0"
       apply_no_weight="true"
       apply_with_weight="true"
       only_selected="false" />
    <linearGradient
       id="A"
       x1="150"
       y1="340.94"
       x2="150"
       y2="145.99"
       gradientUnits="userSpaceOnUse">
      <stop
         offset="0"
         stop-color="#ffebd1"
         id="stop32982"
         style="stop-color:#d4803c;stop-opacity:1;" />
      <stop
         offset="0.69"
         stop-color="#d89864"
         id="stop32984"
         style="stop-color:#793d18;stop-opacity:1;" />
    </linearGradient>
  </defs>
  <path
     d="M263.62,345H36.38A36.38,36.38,0,0,1,0,308.62V259.14H300v49.48A36.38,36.38,0,0,1,263.62,345Z"
     fill="url(#A)"
     id="path32989" />
  <path
     d="M38.5 120.82h223V298.4h-223z"
     fill="#414042"
     id="path32991"
     style="fill:#d4803c;fill-opacity:1" />
  <path
     id="path40047"
     style="fill:#d4803c;fill-opacity:1;fill-rule:evenodd"
     class="UnoptimicedTransforms"
     inkscape:transform-center-x="1.1289647"
     inkscape:transform-center-y="0.83307197"
     d="M 171.97372 233.2981 A 14.63364 9.4250565 90 0 0 164.98754 247.43217 A 14.63364 9.4250565 90 0 0 174.4127 262.0649 A 14.63364 9.4250565 90 0 0 183.83781 247.43128 A 14.63364 9.4250565 90 0 0 174.41265 232.79855 A 14.63364 9.4250565 90 0 0 171.97372 233.2981 z M 350.86458 144.33895 A 14.63364 9.4250565 37.119362 0 0 348.9944 145.98224 A 14.63364 9.4250565 37.119362 0 0 354.97438 162.3282 A 14.63364 9.4250565 37.119362 0 0 372.33078 163.64386 A 14.63364 9.4250565 37.119362 0 0 366.3508 147.2979 A 14.63364 9.4250565 37.119362 0 0 350.86458 144.33895 z "
     transform="rotate(26.440319)" />
  <path
     d="M300 116.13V262a36.38 36.38 0 0 1-36.38 36.38h-12.3c1.87-12.5 4.2-23.23 6.9-26a42.72 42.72 0 0 1-4.94-53.69 42.75 42.75 0 0 1 0-47.5 42.73 42.73 0 0 1 4.93-53.61H41.76a42.71 42.71 0 0 1 5 53.64 42.75 42.75 0 0 1 0 47.59 42.72 42.72 0 0 1-5 53.56c2.7 2.77 5 13.54 6.93 26h-12.3A36.38 36.38 0 0 1 0 262V116.13l38.26-9.76h226.1z"
     fill="#ffebd1"
     id="path32995"
     style="fill:#d4803c;fill-opacity:1" />
  <g
     fill="#231f20"
     id="g33015"
     style="fill:#a15123;fill-opacity:1">
    <circle
       cx="242.58"
       cy="204.92"
       r="36.45"
       id="circle33011"
       style="fill:#a15123;fill-opacity:1" />
    <circle
       cx="57.42"
       cy="204.92"
       r="36.45"
       id="circle33013"
       style="fill:#a15123;fill-opacity:1" />
  </g>
  <g
     fill="#fff"
     id="g33021">
    <circle
       cx="242.58"
       cy="215.04"
       r="36.45"
       id="circle33017" />
    <circle
       cx="57.42"
       cy="215.04"
       r="36.45"
       id="circle33019" />
  </g>
  <path
     d="m 255.63,209.61 a 13.21,13.21 0 0 1 -19.07,-17.76 23,23 0 1 0 19.07,17.76 z m -32.22,19.9 a 5.46,5.46 0 1 1 5.46,-5.45 5.45,5.45 0 0 1 -5.46,5.45 z"
     id="path37665"
     style="fill:#231f20;fill-opacity:1" />
  <path
     d="M 89.18,209.75 A 13.21,13.21 0 0 1 70,191.84 a 24.56,24.56 0 0 0 -3.23,-0.23 23,23 0 1 0 22.42,18.14 z m -32,19.76 a 5.46,5.46 0 1 1 5.45,-5.45 5.45,5.45 0 0 1 -5.49,5.45 z"
     id="path33023"
     style="fill:#231f20;fill-opacity:1" />
  <path
     id="rect37482"
     style="opacity:1;fill:#664f45;fill-opacity:1;stroke:none;stroke-width:2.91284;stroke-linecap:round;stroke-opacity:1;stop-color:#000000"
     d="m 150,175.74589 c 41.35671,0 71.30875,79.71767 48.48324,114.20496 -17.83919,26.95339 -79.12729,26.95339 -96.96647,0 C 78.691252,255.46356 108.64329,175.74589 150,175.74589 Z"
     sodipodi:nodetypes="aaaa" />
  <path
     id="path37485"
     style="opacity:1;fill:#533f36;fill-opacity:1;stroke:none;stroke-width:2.91284;stroke-linecap:round;stroke-opacity:1;stop-color:#000000"
     d="m 94.511719,246.84375 c -2.190531,16.27466 1.132687,31.18819 7.005861,43.10742 20.50446,41.6125 81.75412,41.40985 96.96484,0 4.58154,-12.47284 9.19639,-26.83276 7.00586,-43.10742 0.68478,14.01095 -6.57096,25.03462 -13.40489,17.76871 -7.32219,-7.78503 -5.76665,14.42533 -21.37554,19.83152 -13.28194,4.60025 -16.83387,-13.40195 -20.7132,-11.64969 -6.0841,2.74814 -11.08164,12.30607 -17.51407,12.46054 -15.73627,0.37788 -15.77956,-22.22013 -22.05211,-21.77891 -10.808555,0.76029 -18.068911,-5.76523 -15.916751,-16.63217 z"
     sodipodi:nodetypes="csscsssssc" />
  <path
     class="cls-4"
     d="m 122.04374,232.38629 c -4.85581,5.12533 16.78152,29.53422 27.99016,29.53422 11.20864,0 29.84265,-23.59629 28.00273,-29.53422 -4.27714,-13.80358 -51.13706,-14.09816 -55.99289,0 z"
     id="path35537"
     style="fill:#272727;fill-opacity:1;stroke-width:1.15419"
     sodipodi:nodetypes="cssc" />
  <g
     id="g37426"
     inkscape:path-effect="#path-effect37428"
     class="UnoptimicedTransforms"
     transform="translate(0,4)">
    <path
       style="opacity:1;fill:none;fill-opacity:1;stroke:#272727;stroke-width:6.415;stroke-linecap:round;stroke-dasharray:none;stroke-opacity:1;stop-color:#000000"
       d="m 149.53377,248.23889 c 0.0288,5.76908 0.0577,11.5374 0.0804,16.11792 0.0227,4.58051 0.0393,7.97345 -3.05771,11.3791 -3.09704,3.40565 -9.3035,6.82171 -14.96783,6.84074 -5.66433,0.019 -10.7805,-3.36019 -13.87002,-7.25295 -3.08951,-3.89276 -4.14832,-8.29664 -5.2072,-12.70082 m 37.95482,-14.38399 c -0.0288,5.76908 -0.0577,11.5374 -0.0804,16.11792 -0.0227,4.58051 -0.0393,7.97345 3.05771,11.3791 3.09704,3.40565 9.3035,6.82171 14.96783,6.84074 5.66433,0.019 10.7805,-3.36019 13.87002,-7.25295 3.08951,-3.89276 4.14832,-8.29664 5.2072,-12.70082"
       id="path36200"
       inkscape:path-effect="#path-effect36202"
       inkscape:original-d="m 149.53377,248.23889 c 0.0298,5.76908 0.0581,11.5374 0.0865,17.30535 0.0167,3.39308 0.0342,6.78602 0.0498,10.17894 -6.21001,3.41957 -12.41648,6.83563 -18.6279,10.25287 -5.11805,-3.38012 -10.23422,-6.75935 -15.35435,-10.14153 -1.05802,-4.40375 -2.11683,-8.80763 -3.17643,-13.21164"
       sodipodi:nodetypes="cccccc" />
    <path
       style="opacity:1;fill:none;fill-opacity:1;stroke:#272727;stroke-width:4.004;stroke-linecap:round;stroke-dasharray:none;stroke-opacity:1;stop-color:#000000"
       d="m 102.8829,268.6609 c 2.58793,-3.31634 5.17547,-6.63218 8.30327,-7.90247 3.12781,-1.2703 6.79497,-0.49359 10.46229,0.28315 m 75.46864,7.61932 c -2.58793,-3.31634 -5.17547,-6.63218 -8.30327,-7.90247 -3.12781,-1.2703 -6.79497,-0.49359 -10.46229,0.28315"
       id="path36204"
       inkscape:path-effect="#path-effect36208"
       inkscape:original-d="m 102.8829,268.6609 c 2.58726,-3.31687 5.1748,-6.6327 7.76411,-9.94943 3.667,0.77651 7.33416,1.55321 11.00145,2.33011"
       sodipodi:nodetypes="ccc" />
  </g>
  <path
     id="path32993"
     style="fill:#b6a9a9;fill-opacity:1"
     d="M 83.826172 190.22461 A 36.450001 36.450001 0 0 0 80.144531 186.54297 A 36.450001 36.450001 0 0 0 73.234375 182.19922 A 36.450001 36.450001 0 0 0 65.53125 179.50391 A 36.450001 36.450001 0 0 0 57.419922 178.58984 A 36.450001 36.450001 0 0 0 49.308594 179.50391 A 36.450001 36.450001 0 0 0 41.605469 182.19922 A 36.450001 36.450001 0 0 0 34.695312 186.54297 A 36.450001 36.450001 0 0 0 29.882812 191.35547 C 41.26028 190.77103 52.1855 186.57539 61 179.26562 C 67.647249 184.76144 75.498616 188.46486 83.826172 190.22461 z " />
  <path
     id="path38647"
     style="fill:#b6a9a9;fill-opacity:1"
     d="M 270.05078 191.28906 A 36.450001 36.450001 0 0 0 265.30469 186.54297 A 36.450001 36.450001 0 0 0 258.39453 182.19922 A 36.450001 36.450001 0 0 0 250.69141 179.50391 A 36.450001 36.450001 0 0 0 242.58008 178.58984 A 36.450001 36.450001 0 0 0 234.46875 179.50391 A 36.450001 36.450001 0 0 0 226.76562 182.19922 A 36.450001 36.450001 0 0 0 219.85547 186.54297 A 36.450001 36.450001 0 0 0 216.11719 190.28125 C 224.51311 188.52878 232.42773 184.80151 239.11914 179.25586 C 247.89525 186.50063 258.74687 190.67444 270.05078 191.28906 z " />
  <path
     id="path38645"
     style="fill:#533f36;fill-opacity:1"
     d="M 174.73438 185.62109 C 173.76615 184.81996 172.78641 184.04539 171.78711 183.33008 C 170.67382 182.53316 169.54204 181.79059 168.39258 181.10742 C 167.24312 180.42426 166.07567 179.80007 164.89258 179.23828 C 163.70948 178.6765 162.51108 178.17692 161.29688 177.74414 C 160.08267 177.31136 158.85412 176.94654 157.61133 176.65039 C 156.36853 176.35425 155.11066 176.12845 153.8418 175.97656 C 152.57294 175.82468 151.2924 175.74609 150 175.74609 C 148.7076 175.74609 147.42706 175.82468 146.1582 175.97656 C 144.88934 176.12845 143.63147 176.35425 142.38867 176.65039 C 141.14588 176.94654 139.91733 177.31136 138.70312 177.74414 C 137.48892 178.17692 136.29052 178.6765 135.10742 179.23828 C 133.92433 179.80007 132.75688 180.42426 131.60742 181.10742 C 130.45796 181.79059 129.32618 182.53316 128.21289 183.33008 C 127.21768 184.04247 126.24175 184.8138 125.27734 185.61133 C 140.84514 193.38425 159.16428 193.38754 174.73438 185.62109 z " />
  <path
     id="path38652"
     style="fill:#a15123;fill-opacity:1"
     d="M 95.400391 111.43945 L 0 179.82617 C 4.1999916 186.82615 12.220106 191.46484 26.580078 191.46484 C 27.685954 191.47711 28.783983 191.41191 29.882812 191.35547 A 36.450001 36.450001 0 0 1 34.695312 186.54297 A 36.450001 36.450001 0 0 1 41.605469 182.19922 A 36.450001 36.450001 0 0 1 49.308594 179.50391 A 36.450001 36.450001 0 0 1 57.419922 178.58984 A 36.450001 36.450001 0 0 1 65.53125 179.50391 A 36.450001 36.450001 0 0 1 73.234375 182.19922 A 36.450001 36.450001 0 0 1 80.144531 186.54297 A 36.450001 36.450001 0 0 1 83.826172 190.22461 C 87.586794 191.01929 91.435368 191.45706 95.330078 191.41602 C 104.90809 191.46902 114.33042 188.98908 122.64062 184.22656 C 123.50755 184.71918 124.39149 185.16903 125.27734 185.61133 C 126.24175 184.8138 127.21768 184.04247 128.21289 183.33008 C 129.32618 182.53316 130.45796 181.79059 131.60742 181.10742 C 132.75688 180.42426 133.92433 179.80007 135.10742 179.23828 C 136.29052 178.6765 137.48892 178.17692 138.70312 177.74414 C 139.91733 177.31136 141.14588 176.94654 142.38867 176.65039 C 143.63147 176.35425 144.88934 176.12845 146.1582 175.97656 C 147.42706 175.82468 148.7076 175.74609 150 175.74609 C 151.2924 175.74609 152.57294 175.82468 153.8418 175.97656 C 155.11066 176.12845 156.36853 176.35425 157.61133 176.65039 C 158.85412 176.94654 160.08267 177.31136 161.29688 177.74414 C 162.51108 178.17692 163.70948 178.6765 164.89258 179.23828 C 166.07567 179.80007 167.24312 180.42426 168.39258 181.10742 C 169.54204 181.79059 170.67382 182.53316 171.78711 183.33008 C 172.78641 184.04539 173.76615 184.81996 174.73438 185.62109 C 175.62685 185.17592 176.51735 184.72279 177.39062 184.22656 C 185.71206 189.00942 195.15214 191.49946 204.75 191.44531 C 208.59762 191.48526 212.39989 191.05715 216.11719 190.28125 A 36.450001 36.450001 0 0 1 219.85547 186.54297 A 36.450001 36.450001 0 0 1 226.76562 182.19922 A 36.450001 36.450001 0 0 1 234.46875 179.50391 A 36.450001 36.450001 0 0 1 242.58008 178.58984 A 36.450001 36.450001 0 0 1 250.69141 179.50391 A 36.450001 36.450001 0 0 1 258.39453 182.19922 A 36.450001 36.450001 0 0 1 265.30469 186.54297 A 36.450001 36.450001 0 0 1 270.05078 191.28906 C 271.18468 191.35072 272.31945 191.41763 273.46094 191.40625 C 285.58092 191.43625 294.13002 189.77553 300 186.93555 L 300 186.92578 L 204.59961 111.43945 L 95.400391 111.43945 z " />
  <path
     d="M 273.42,27.5 C 260.86369,27.360763 248.66581,31.684243 239,39.7 229.35092,31.722329 217.18921,27.418081 204.67,27.55 c -9.57803,-0.05302 -18.99978,2.427481 -27.31,7.19 -16.9754,-9.646018 -37.7746,-9.646018 -54.75,0 C 114.28856,29.957132 104.84788,27.465842 95.25,27.52 82.729542,27.39089 70.567687,31.69873 60.92,39.68 51.265693,31.704679 39.10177,27.400903 26.58,27.53 14.42,27.53 5.87,29.2 0,32 v 134.78577 c 4.2,7 12.22,11.64 26.58,11.64 12.55129,0.15046 24.748609,-4.15865 34.42,-12.16 9.649078,7.97767 21.810793,12.28192 34.33,12.15 9.57803,0.053 18.99978,-2.42748 27.31,-7.19 16.9754,9.64602 37.7746,9.64602 54.75,0 8.32144,4.78286 17.76212,7.27415 27.36,7.22 12.53792,0.13017 24.71596,-4.18901 34.37,-12.19 9.65646,7.97151 21.81895,12.27478 34.34,12.15 12.16,0 20.7,-1.66 26.58,-4.5 V 39.15 C 295.79,32.11 287.78,27.51 273.42,27.51 Z"
     fill="#ffebd1"
     id="path32999"
     style="fill:#d4803c;fill-opacity:1"
     sodipodi:nodetypes="cccccccccccccccccccccc" />
  <path
     d="M 26.58,96.73 A 54.33,54.33 0 0 0 54,89.48 42.55,42.55 0 0 0 41.81,59.61 L 0,58.13 v 27 c 4.2,7 12.22,11.6 26.58,11.6 z m 219.5,-7.3 v 0.06 a 54.24,54.24 0 0 0 27.34,7.22 c 12.16,0 20.7,-1.66 26.58,-4.5 V 58.13 l -41.77,1.46 a 42.59,42.59 0 0 0 -12.15,29.84 z"
     fill="#e7bf9a"
     id="path32997"
     style="fill:#a15123;fill-opacity:1" />
  <path
     d="m 286.14,83.31 c -7.19904,18.39109 -27.94391,27.46402 -46.33499,20.26499 C 221.41392,96.375954 212.34096,75.631095 219.54,57.24 c 3.94,-10.08 21.6,-25.7 36.75,-37.77 13.90142,-17.1737021 27.82627,-12.9120749 28.5,11.15 2.93,19.14 5.3,42.6 1.35,52.7 z"
     id="path37667"
     style="fill:#d4803c;fill-opacity:1"
     sodipodi:nodetypes="csccccc" />
  <path
     d="M 279.1608,84.775514 A 31.315627,32.932571 0 1 1 220.83861,60.76701 c 3.4503,-9.282919 18.91531,-23.667761 32.18229,-34.78332 a 15.491282,16.291155 0 0 1 24.95769,10.268309 c 2.56583,17.626496 4.64125,39.231386 1.18221,48.532724 z"
     id="path40874"
     style="fill:#664f45;fill-opacity:1;stroke-width:0.898032"
     inkscape:transform-center-x="-13.380227"
     inkscape:transform-center-y="-37.76988" />
  <g
     fill="#231f20"
     id="g33029"
     style="fill:#533f36;fill-opacity:1"
     transform="translate(-5.6294721,4.8252618)">
    <path
       d="m 264.2,30.3 a 34.49,34.49 0 0 1 7,13.72 51.27,51.27 0 0 1 -1.06,30.36 38.54,38.54 0 0 1 -7.7,13.29 c -0.17,-2.68 0.1,-5.12 0.17,-7.58 l 0.4,-7.2 c 0.35,-4.7 0.5,-9.33 0.7,-13.93 0.2,-4.6 0.24,-9.24 0.3,-13.95 l 0.08,-7.2 c 0,-2.43 0.04,-4.9 0.12,-7.53 z"
       id="path33025"
       style="fill:#533f36;fill-opacity:1" />
    <path
       d="m 267.08,54.86 h 0.07 -0.35 c -0.23,0 -0.55,0.06 -0.83,0.08 l -0.92,0.14 c -0.3,0 -0.64,0.16 -1,0.23 a 5.42,5.42 0 0 0 -1,0.27 l -1,0.3 c -0.66,0.33 -1.37,0.5 -2,0.87 A 34.24,34.24 0 0 0 252,62.4 l -1,0.85 -0.94,1 -1.94,1.9 -3.7,4.18 -1.8,2.23 -1.83,2.26 -3.7,4.68 0.88,-6 c 0.34,-2 1,-3.9 1.57,-5.86 a 30,30 0 0 1 1.07,-2.87 l 1.2,-2.87 1.46,-2.78 0.76,-1.4 0.9,-1.33 a 32.81,32.81 0 0 1 9.26,-9.6 12.77,12.77 0 0 1 1.51,-0.94 l 1.57,-0.88 1.7,-0.73 a 12.72,12.72 0 0 1 1.76,-0.65 22.74,22.74 0 0 1 3.77,-0.85 l 2.06,-0.15 h 1.1 l 0.63,0.05 h 0.34 l 0.52,0.07 z"
       id="path33027"
       style="fill:#533f36;fill-opacity:1" />
  </g>
  <g
     id="g40038"
     transform="translate(-1.7688486)"
     inkscape:path-effect="#path-effect40040"
     class="UnoptimicedTransforms">
    <path
       d="m 278.95928,261.2792 a 48.526218,48.526218 0 0 1 5.80083,1.85275 46.568952,46.568952 0 0 1 5.58333,2.54603 33.399348,33.399348 0 0 1 5.25006,3.39523 19.348973,19.348973 0 0 1 4.54488,4.93467 10.527295,10.527295 0 0 1 1.45929,7.51836 11.813499,11.813499 0 0 1 -1.47811,3.69024 9.0313849,9.0313849 0 0 1 -3.03915,3.05303 9.5346819,9.5346819 0 0 1 -4.11413,1.33031 12.834073,12.834073 0 0 1 -3.8999,-0.22135 20.383528,20.383528 0 0 1 -3.42923,-1.04127 19.041403,19.041403 0 0 1 -3.21322,-1.59403 l 4.94249,-4.10796 a 24.87126,24.87126 0 0 1 1.33038,4.36731 20.020036,20.020036 0 0 1 0.47357,4.60992 13.225527,13.225527 0 0 1 -1.03931,5.06111 10.513315,10.513315 0 0 1 -3.54365,4.43185 12.316796,12.316796 0 0 1 -2.40968,1.30826 10.499334,10.499334 0 0 1 -2.68309,0.72938 12.582425,12.582425 0 0 1 -5.28175,-0.44486 18.174614,18.174614 0 0 1 -4.31101,-1.96892 22.704287,22.704287 0 0 1 -1.86843,-1.29023 18.705872,18.705872 0 0 1 -1.799,-1.53571 l 5.47068,-3.41644 a 21.348181,21.348181 0 0 1 0.64619,3.43344 22.466619,22.466619 0 0 1 0.10121,3.40116 16.119484,16.119484 0 0 1 -1.85405,6.82751 12.75019,12.75019 0 0 1 -5.21553,5.04826 13.057761,13.057761 0 0 1 -6.86216,1.63051 11.911362,11.911362 0 0 1 -6.47567,-2.49021 18.328399,18.328399 0 0 1 -4.22061,-4.68773 28.450261,28.450261 0 0 1 -2.72321,-5.37976 31.372179,31.372179 0 0 1 -1.67962,-5.65791 44.639647,44.639647 0 0 0 6.54532,9.34813 c 2.51874,2.6564 5.67493,4.63796 8.55574,4.28215 a 8.6678926,8.6678926 0 0 0 4.14492,-1.60822 7.1859626,7.1859626 0 0 0 2.68866,-3.19034 10.135842,10.135842 0 0 0 0.7616,-4.33233 14.148238,14.148238 0 0 0 -0.21212,-2.40069 13.784745,13.784745 0 0 0 -0.52548,-2.2385 l -3.91036,-11.16594 9.38103,7.74951 c 0.27024,0.22687 0.77519,0.62044 1.19212,0.91985 a 14.707457,14.707457 0 0 0 4.07944,2.02765 4.9071457,4.9071457 0 0 0 4.40301,-0.63718 3.4811375,3.4811375 0 0 0 1.23781,-1.52258 6.1653882,6.1653882 0 0 0 0.4996,-2.47651 14.665515,14.665515 0 0 0 -0.24933,-3.08 20.14586,20.14586 0 0 0 -0.84064,-3.07521 l -3.65836,-9.75952 8.60239,5.63767 a 17.797141,17.797141 0 0 0 2.1077,1.16202 13.519116,13.519116 0 0 0 2.25737,0.82696 5.4384036,5.4384036 0 0 0 3.63121,-0.0194 3.4671571,3.4671571 0 0 0 1.27036,-1.05479 5.7879154,5.7879154 0 0 0 0.95521,-1.7649 5.480345,5.480345 0 0 0 -0.353,-4.04797 15.378519,15.378519 0 0 0 -2.88044,-4.34224 42.892088,42.892088 0 0 0 -4.22503,-3.88644 91.837721,91.837721 0 0 0 -9.92113,-6.68409 z"
       fill="#6b6b87"
       id="path39494"
       style="fill:#a15123;fill-opacity:1;stroke-width:1.39805"
       inkscape:original-d="m 278.95928,261.2792 a 48.526218,48.526218 0 0 1 5.80083,1.85275 46.568952,46.568952 0 0 1 5.58333,2.54603 33.399348,33.399348 0 0 1 5.25006,3.39523 19.348973,19.348973 0 0 1 4.54488,4.93467 10.527295,10.527295 0 0 1 1.45929,7.51836 11.813499,11.813499 0 0 1 -1.47811,3.69024 9.0313849,9.0313849 0 0 1 -3.03915,3.05303 9.5346819,9.5346819 0 0 1 -4.11413,1.33031 12.834073,12.834073 0 0 1 -3.8999,-0.22135 20.383528,20.383528 0 0 1 -3.42923,-1.04127 19.041403,19.041403 45 0 1 -3.21322,-1.59403 l 4.94249,-4.10796 a 24.87126,24.87126 0 0 1 1.33038,4.36731 20.020036,20.020036 0 0 1 0.47357,4.60992 13.225527,13.225527 0 0 1 -1.03931,5.06111 10.513315,10.513315 0 0 1 -3.54365,4.43185 12.316796,12.316796 0 0 1 -2.40968,1.30826 10.499334,10.499334 0 0 1 -2.68309,0.72938 12.582425,12.582425 0 0 1 -5.28175,-0.44486 18.174614,18.174614 0 0 1 -4.31101,-1.96892 22.704287,22.704287 0 0 1 -1.86843,-1.29023 18.705872,18.705872 0 0 1 -1.799,-1.53571 l 5.47068,-3.41644 a 21.348181,21.348181 0 0 1 0.64619,3.43344 22.466619,22.466619 0 0 1 0.10121,3.40116 16.119484,16.119484 0 0 1 -1.85405,6.82751 12.75019,12.75019 0 0 1 -5.21553,5.04826 13.057761,13.057761 0 0 1 -6.86216,1.63051 11.911362,11.911362 0 0 1 -6.47567,-2.49021 18.328399,18.328399 0 0 1 -4.22061,-4.68773 28.450261,28.450261 0 0 1 -2.72321,-5.37976 31.372179,31.372179 0 0 1 -1.67962,-5.65791 44.639647,44.639647 0 0 0 6.54532,9.34813 c 2.51874,2.6564 5.67493,4.63796 8.55574,4.28215 a 8.6678926,8.6678926 0 0 0 4.14492,-1.60822 7.1859626,7.1859626 0 0 0 2.68866,-3.19034 10.135842,10.135842 0 0 0 0.7616,-4.33233 14.148238,14.148238 0 0 0 -0.21212,-2.40069 13.784745,13.784745 0 0 0 -0.52548,-2.2385 l -3.91036,-11.16594 9.38103,7.74951 c 0.27024,0.22687 0.77519,0.62044 1.19212,0.91985 a 14.707457,14.707457 0 0 0 4.07944,2.02765 4.9071457,4.9071457 45 0 0 4.40301,-0.63718 3.4811375,3.4811375 0 0 0 1.23781,-1.52258 6.1653882,6.1653882 0 0 0 0.4996,-2.47651 14.665515,14.665515 45 0 0 -0.24933,-3.08 20.14586,20.14586 0 0 0 -0.84064,-3.07521 l -3.65836,-9.75952 8.60239,5.63767 a 17.797141,17.797141 0 0 0 2.1077,1.16202 13.519116,13.519116 0 0 0 2.25737,0.82696 5.4384036,5.4384036 0 0 0 3.63121,-0.0194 3.4671571,3.4671571 0 0 0 1.27036,-1.05479 5.7879154,5.7879154 0 0 0 0.95521,-1.7649 5.480345,5.480345 0 0 0 -0.353,-4.04797 15.378519,15.378519 0 0 0 -2.88044,-4.34224 42.892088,42.892088 0 0 0 -4.22503,-3.88644 91.837721,91.837721 0 0 0 -9.92113,-6.68409 z" />
  </g>
  <path
     id="path40042"
     d="m 22.80957,261.2792 a 48.526218,48.526218 0 0 0 -5.80083,1.85275 46.568952,46.568952 0 0 0 -5.58333,2.54603 33.399348,33.399348 0 0 0 -5.25006,3.39523 19.348973,19.348973 0 0 0 -4.54488,4.93467 10.527295,10.527295 0 0 0 -1.45929,7.51836 11.813499,11.813499 0 0 0 1.47811,3.69024 9.0313849,9.0313849 0 0 0 3.03915,3.05303 9.5346819,9.5346819 0 0 0 4.11413,1.33031 12.834073,12.834073 0 0 0 3.8999,-0.22135 20.383528,20.383528 0 0 0 3.42923,-1.04127 19.041403,19.041403 0 0 0 3.21322,-1.59403 l -4.94249,-4.10796 a 24.87126,24.87126 0 0 0 -1.33038,4.36731 20.020036,20.020036 0 0 0 -0.47357,4.60992 13.225527,13.225527 0 0 0 1.03931,5.06111 10.513315,10.513315 0 0 0 3.54365,4.43185 12.316796,12.316796 0 0 0 2.40968,1.30826 10.499334,10.499334 0 0 0 2.68309,0.72938 12.582425,12.582425 0 0 0 5.28175,-0.44486 18.174614,18.174614 0 0 0 4.31101,-1.96892 22.704287,22.704287 0 0 0 1.86843,-1.29023 18.705872,18.705872 0 0 0 1.799,-1.53571 l -5.47068,-3.41644 a 21.348181,21.348181 0 0 0 -0.64619,3.43344 22.466619,22.466619 0 0 0 -0.10121,3.40116 16.119484,16.119484 0 0 0 1.85405,6.82751 12.75019,12.75019 0 0 0 5.21553,5.04826 13.057761,13.057761 0 0 0 6.86216,1.63051 11.911362,11.911362 0 0 0 6.47567,-2.49021 18.328399,18.328399 0 0 0 4.22061,-4.68773 28.450261,28.450261 0 0 0 2.72321,-5.37976 31.372179,31.372179 0 0 0 1.67962,-5.65791 44.639647,44.639647 0 0 1 -6.54532,9.34813 c -2.51874,2.6564 -5.67493,4.63796 -8.55574,4.28215 a 8.6678926,8.6678926 0 0 1 -4.14492,-1.60822 7.1859626,7.1859626 0 0 1 -2.68866,-3.19034 10.135842,10.135842 0 0 1 -0.7616,-4.33233 14.148238,14.148238 0 0 1 0.21212,-2.40069 13.784745,13.784745 0 0 1 0.52548,-2.2385 l 3.91036,-11.16594 -9.38103,7.74951 c -0.27024,0.22687 -0.77519,0.62044 -1.19212,0.91985 a 14.707457,14.707457 0 0 1 -4.07944,2.02765 4.9071457,4.9071457 0 0 1 -4.40301,-0.63718 3.4811375,3.4811375 0 0 1 -1.23781,-1.52258 6.1653882,6.1653882 0 0 1 -0.4996,-2.47651 14.665515,14.665515 0 0 1 0.24933,-3.08 20.14586,20.14586 0 0 1 0.84064,-3.07521 l 3.65836,-9.75952 -8.60239,5.63767 a 17.797141,17.797141 0 0 1 -2.1077,1.16202 13.519116,13.519116 0 0 1 -2.25737,0.82696 5.4384036,5.4384036 0 0 1 -3.63121,-0.0194 3.4671571,3.4671571 0 0 1 -1.27036,-1.05479 5.7879154,5.7879154 0 0 1 -0.95521,-1.7649 5.480345,5.480345 0 0 1 0.353,-4.04797 15.378519,15.378519 0 0 1 2.88044,-4.34224 42.892088,42.892088 0 0 1 4.22503,-3.88644 91.837721,91.837721 0 0 1 9.92113,-6.68409 z"
     style="fill:#a15123;fill-opacity:1;stroke-width:1.39805"
     fill="#6b6b87" />
  <g
     class="UnoptimicedTransforms"
     id="g40895"
     transform="matrix(-1,0,0,1,300,0)">
    <path
       id="path40885"
       d="m 286.14,83.31 c -7.19904,18.39109 -27.94391,27.46402 -46.33499,20.26499 C 221.41392,96.375954 212.34096,75.631095 219.54,57.24 c 3.94,-10.08 21.6,-25.7 36.75,-37.77 13.90142,-17.1737021 27.82627,-12.9120749 28.5,11.15 2.93,19.14 5.3,42.6 1.35,52.7 z"
       style="fill:#d4803c;fill-opacity:1" />
    <path
       id="path40887"
       d="M 279.1608,84.775514 A 31.315627,32.932571 0 1 1 220.83861,60.76701 c 3.4503,-9.282919 18.91531,-23.667761 32.18229,-34.78332 a 15.491282,16.291155 0 0 1 24.95769,10.268309 c 2.56583,17.626496 4.64125,39.231386 1.18221,48.532724 z"
       style="fill:#664f45;fill-opacity:1;stroke-width:0.898032" />
    <g
       transform="translate(-5.6294721,4.8252618)"
       id="g40893"
       style="fill:#533f36;fill-opacity:1"
       fill="#231f20">
      <path
         id="path40889"
         d="m 264.2,30.3 a 34.49,34.49 0 0 1 7,13.72 51.27,51.27 0 0 1 -1.06,30.36 38.54,38.54 0 0 1 -7.7,13.29 c -0.17,-2.68 0.1,-5.12 0.17,-7.58 l 0.4,-7.2 c 0.35,-4.7 0.5,-9.33 0.7,-13.93 0.2,-4.6 0.24,-9.24 0.3,-13.95 l 0.08,-7.2 c 0,-2.43 0.04,-4.9 0.12,-7.53 z"
         style="fill:#533f36;fill-opacity:1" />
      <path
         id="path40891"
         d="m 267.08,54.86 h 0.07 -0.35 c -0.23,0 -0.55,0.06 -0.83,0.08 l -0.92,0.14 c -0.3,0 -0.64,0.16 -1,0.23 a 5.42,5.42 0 0 0 -1,0.27 l -1,0.3 c -0.66,0.33 -1.37,0.5 -2,0.87 A 34.24,34.24 0 0 0 252,62.4 l -1,0.85 -0.94,1 -1.94,1.9 -3.7,4.18 -1.8,2.23 -1.83,2.26 -3.7,4.68 0.88,-6 c 0.34,-2 1,-3.9 1.57,-5.86 a 30,30 0 0 1 1.07,-2.87 l 1.2,-2.87 1.46,-2.78 0.76,-1.4 0.9,-1.33 a 32.81,32.81 0 0 1 9.26,-9.6 12.77,12.77 0 0 1 1.51,-0.94 l 1.57,-0.88 1.7,-0.73 a 12.72,12.72 0 0 1 1.76,-0.65 22.74,22.74 0 0 1 3.77,-0.85 l 2.06,-0.15 h 1.1 l 0.63,0.05 h 0.34 l 0.52,0.07 z"
         style="fill:#533f36;fill-opacity:1" />
    </g>
  </g>
  <g
     id="g41258"
     inkscape:path-effect="#path-effect41260"
     class="UnoptimicedTransforms">
    <ellipse
       style="fill:#d4803c;fill-opacity:1;fill-rule:evenodd"
       id="ellipse41253"
       cx="212.31847"
       cy="-147.61513"
       rx="8.0645161"
       ry="12.701612"
       transform="rotate(59.855667)"
       d="m 220.38298,-147.61513 a 8.0645161,12.701612 0 0 1 -8.06451,12.70161 8.0645161,12.701612 0 0 1 -8.06452,-12.70161 8.0645161,12.701612 0 0 1 8.06452,-12.70161 8.0645161,12.701612 0 0 1 8.06451,12.70161 z" />
    <ellipse
       style="fill:#d4803c;fill-opacity:1;fill-rule:evenodd"
       id="path41251"
       cx="235.41397"
       cy="-56.095814"
       rx="8.0645161"
       ry="12.701612"
       transform="rotate(37.234465)"
       d="m 243.47849,-56.095814 a 8.0645161,12.701612 0 0 1 -8.06452,12.701613 8.0645161,12.701612 0 0 1 -8.06452,-12.701613 8.0645161,12.701612 0 0 1 8.06452,-12.701612 8.0645161,12.701612 0 0 1 8.06452,12.701612 z" />
    <path
       d="m 215.32683,92.466502 a 22.293896,22.293896 0 0 1 7.01094,-4.574129 7.9216277,7.9216277 0 0 1 3.73143,-0.49214 6.0286361,6.0286361 0 0 1 3.10374,1.574549 c 1.70054,1.572687 1.6752,3.963209 0.76506,6.365812 a 24.669179,24.669179 0 0 1 -4.1127,6.741016 l -4.99121,5.92574 7.11554,-3.14674 a 48.602864,48.602864 0 0 1 8.96883,-3.15465 18.085908,18.085908 0 0 1 4.46418,-0.54422 4.6299925,4.6299925 0 0 1 3.39366,1.25394 1.7844762,1.7844762 0 0 1 0.52189,1.2914 4.0874152,4.0874152 0 0 1 -0.60861,1.75424 15.023361,15.023361 0 0 1 -2.88082,3.59496 64.277318,64.277318 0 0 1 -7.66466,6.27443 38.848531,38.848531 0 0 0 8.86305,-4.79939 17.073098,17.073098 0 0 0 3.83931,-3.70911 6.4988697,6.4988697 0 0 0 1.14448,-2.85732 4.5697062,4.5697062 0 0 0 -0.92408,-3.3325 5.9442352,5.9442352 0 0 0 -2.56487,-1.987421 9.8025623,9.8025623 0 0 0 -2.88965,-0.683473 18.724943,18.724943 0 0 0 -5.3427,0.354272 42.839488,42.839488 0 0 0 -9.79503,3.365732 l 2.12828,2.7676 a 30.432555,30.432555 0 0 0 2.58953,-3.78536 20.352675,20.352675 0 0 0 1.90885,-4.251233 11.261492,11.261492 0 0 0 0.51006,-4.92797 7.2343632,7.2343632 0 0 0 -2.656,-4.520444 7.9457423,7.9457423 0 0 0 -4.67643,-1.75007 9.3082144,9.3082144 0 0 0 -4.60181,1.198394 15.33685,15.33685 0 0 0 -3.56777,2.705748 20.135644,20.135644 0 0 0 -2.78248,3.348306 z"
       fill="#d49d7e"
       id="path40972"
       style="fill:#a15123;fill-opacity:1;stroke-width:1.20573"
       inkscape:original-d="m 215.32683,92.466502 a 22.293896,22.293896 0 0 1 7.01094,-4.574129 7.9216277,7.9216277 0 0 1 3.73143,-0.49214 6.0286361,6.0286361 0 0 1 3.10374,1.574549 c 1.70054,1.572687 1.6752,3.963209 0.76506,6.365812 a 24.669179,24.669179 0 0 1 -4.1127,6.741016 l -4.99121,5.92574 7.11554,-3.14674 a 48.602864,48.602864 0 0 1 8.96883,-3.15465 18.085908,18.085908 0 0 1 4.46418,-0.54422 4.6299925,4.6299925 0 0 1 3.39366,1.25394 1.7844762,1.7844762 0 0 1 0.52189,1.2914 4.0874152,4.0874152 0 0 1 -0.60861,1.75424 15.023361,15.023361 0 0 1 -2.88082,3.59496 64.277318,64.277318 0 0 1 -7.66466,6.27443 38.848531,38.848531 0 0 0 8.86305,-4.79939 17.073098,17.073098 0 0 0 3.83931,-3.70911 6.4988697,6.4988697 0 0 0 1.14448,-2.85732 4.5697062,4.5697062 0 0 0 -0.92408,-3.3325 5.9442352,5.9442352 0 0 0 -2.56487,-1.987421 9.8025623,9.8025623 0 0 0 -2.88965,-0.683473 18.724943,18.724943 0 0 0 -5.3427,0.354272 42.839488,42.839488 0 0 0 -9.79503,3.365732 l 2.12828,2.7676 a 30.432555,30.432555 0 0 0 2.58953,-3.78536 20.352675,20.352675 0 0 0 1.90885,-4.251233 11.261492,11.261492 0 0 0 0.51006,-4.92797 7.2343632,7.2343632 0 0 0 -2.656,-4.520444 7.9457423,7.9457423 0 0 0 -4.67643,-1.75007 9.3082144,9.3082144 0 0 0 -4.60181,1.198394 15.33685,15.33685 0 0 0 -3.56777,2.705748 20.135644,20.135644 0 0 0 -2.78248,3.348306 z" />
  </g>
  <g
     class="UnoptimicedTransforms"
     id="g41321"
     transform="matrix(-1,0,0,1,300,0)">
    <path
       transform="rotate(59.855667)"
       id="path41315"
       d="m 220.38298,-147.61513 a 8.0645161,12.701612 0 0 1 -8.06451,12.70161 8.0645161,12.701612 0 0 1 -8.06452,-12.70161 8.0645161,12.701612 0 0 1 8.06452,-12.70161 8.0645161,12.701612 0 0 1 8.06451,12.70161 z"
       style="fill:#d4803c;fill-opacity:1;fill-rule:evenodd" />
    <path
       transform="rotate(37.234465)"
       id="path41317"
       d="m 243.47849,-56.095814 a 8.0645161,12.701612 0 0 1 -8.06452,12.701613 8.0645161,12.701612 0 0 1 -8.06452,-12.701613 8.0645161,12.701612 0 0 1 8.06452,-12.701612 8.0645161,12.701612 0 0 1 8.06452,12.701612 z"
       style="fill:#d4803c;fill-opacity:1;fill-rule:evenodd" />
    <path
       id="path41319"
       d="m 215.32683,92.466502 a 22.293896,22.293896 0 0 1 7.01094,-4.574129 7.9216277,7.9216277 0 0 1 3.73143,-0.49214 6.0286361,6.0286361 0 0 1 3.10374,1.574549 c 1.70054,1.572687 1.6752,3.963209 0.76506,6.365812 a 24.669179,24.669179 0 0 1 -4.1127,6.741016 l -4.99121,5.92574 7.11554,-3.14674 a 48.602864,48.602864 0 0 1 8.96883,-3.15465 18.085908,18.085908 0 0 1 4.46418,-0.54422 4.6299925,4.6299925 0 0 1 3.39366,1.25394 1.7844762,1.7844762 0 0 1 0.52189,1.2914 4.0874152,4.0874152 0 0 1 -0.60861,1.75424 15.023361,15.023361 0 0 1 -2.88082,3.59496 64.277318,64.277318 0 0 1 -7.66466,6.27443 38.848531,38.848531 0 0 0 8.86305,-4.79939 17.073098,17.073098 0 0 0 3.83931,-3.70911 6.4988697,6.4988697 0 0 0 1.14448,-2.85732 4.5697062,4.5697062 0 0 0 -0.92408,-3.3325 5.9442352,5.9442352 0 0 0 -2.56487,-1.987421 9.8025623,9.8025623 0 0 0 -2.88965,-0.683473 18.724943,18.724943 0 0 0 -5.3427,0.354272 42.839488,42.839488 0 0 0 -9.79503,3.365732 l 2.12828,2.7676 a 30.432555,30.432555 0 0 0 2.58953,-3.78536 20.352675,20.352675 0 0 0 1.90885,-4.251233 11.261492,11.261492 0 0 0 0.51006,-4.92797 7.2343632,7.2343632 0 0 0 -2.656,-4.520444 7.9457423,7.9457423 0 0 0 -4.67643,-1.75007 9.3082144,9.3082144 0 0 0 -4.60181,1.198394 15.33685,15.33685 0 0 0 -3.56777,2.705748 20.135644,20.135644 0 0 0 -2.78248,3.348306 z"
       style="fill:#a15123;fill-opacity:1;stroke-width:1.20573"
       fill="#d49d7e" />
  </g>
</svg>
