<?xml version="1.0" encoding="UTF-8" standalone="no"?>
<svg
   viewBox="0 0 300 345"
   version="1.1"
   id="svg843"
   xml:space="preserve"
   xmlns="http://www.w3.org/2000/svg"
   xmlns:svg="http://www.w3.org/2000/svg"
   xmlns:rdf="http://www.w3.org/1999/02/22-rdf-syntax-ns#"
   xmlns:cc="http://creativecommons.org/ns#"
   xmlns:dc="http://purl.org/dc/elements/1.1/"><metadata
     id="metadata847"><rdf:RDF><cc:Work
         rdf:about=""><dc:format>image/svg+xml</dc:format><dc:type
           rdf:resource="http://purl.org/dc/dcmitype/StillImage" /></cc:Work></rdf:RDF></metadata><defs
     id="defs837"><linearGradient
       y2="161.16"
       x2="150"
       y1="356.11"
       x1="150"
       id="A"
       gradientUnits="userSpaceOnUse"><stop
         stop-color="#0bc2cf"
         offset="0"
         id="stop832"
         style="stop-color:#83eb5b;stop-opacity:1;" /><stop
         stop-color="#0b4fac"
         offset="1"
         id="stop834"
         style="stop-color:#179227;stop-opacity:1;" /></linearGradient></defs><g
     id="g309"
     transform="matrix(-1,0,0,1,300.44207,0)"><path
       d="M 263.62,345 H 36.38 A 36.38,36.38 0 0 1 0,308.62 v -49.48 h 300 v 49.48 A 36.38,36.38 0 0 1 263.62,345 Z"
       fill="url(#A)"
       id="path839"
       style="fill:url(#A)" /><path
       id="rect841"
       style="fill:#82ec5b"
       d="M 73.599609,136.68555 C 55.975765,133.38207 39.011633,127.04023 23.119141,118.80078 28.11784,140.53385 33.116535,162.26693 38.115234,184 28.965835,183.87892 13.714701,178.65879 8.4293097,181.76675 19.706034,217.67962 21.58224,255.69514 21.029297,293.08594 c 1.761173,6.74154 21.747824,5.34983 31.07845,5.28855 72.367013,-0.18972 144.760403,0.4854 217.110753,-0.36122 20.18049,-2.50795 33.90119,-23.84737 30.7815,-43.37353 0,-57.75296 0,-115.50592 0,-173.258881 C 285.27201,69.155533 274.51483,50.593134 256.92698,42.796507 237.86929,36.521482 218.8116,30.246454 199.75391,23.971429 c 3.51042,19.171632 7.02083,38.343267 10.53125,57.514899 -16.76752,19.028112 -30.70713,40.277572 -46,60.457032 -4.6609,-5.71006 -9.48003,-31.68667 -13.96375,-14.70422 -5.34811,8.70112 -10.70014,30.0392 -16.04575,30.67498 -12.31186,-30.22644 -5.99511,-63.578598 -2.65739,-94.939889 2.58729,-17.032005 6.35709,-33.898722 7.86444,-51.083751 -15.04415,8.947573 -17.34354,28.509391 -26.12895,42.43075 -12.8667,27.591871 -22.879698,56.86119 -39.754151,82.36432 z" /><path
       id="ellipse5299"
       style="fill:#4c6995;fill-opacity:1;fill-rule:evenodd;stroke-width:2.69542"
       d="m 274.76172,42.056641 c -54.65796,-3.5e-5 -98.96697,49.570502 -98.9668,110.718749 -1.7e-4,61.14825 44.30884,110.71879 98.9668,110.71875 8.52556,-0.0591 17.00856,-1.35035 25.23828,-3.8418 V 57.831424 c 0,-6.672386 -5.18959,-13.708671 -11.7784,-14.729049 -4.45553,-0.690007 -8.95254,-1.040105 -13.45988,-1.045734 z" /><path
       id="rect11049"
       style="opacity:1;fill:#324678;fill-opacity:1;stroke-width:23.3379;stroke-linejoin:bevel;paint-order:stroke fill markers;stop-color:#000000"
       d="m 177.54102,161.25586 c -0.36713,1.55152 -0.69434,3.11183 -0.94532,4.68744 6.09954,47.58247 47.70699,84.40801 98.16602,84.40798 5.4736,-0.033 10.92973,-0.50861 16.3125,-1.41951 C 296.05988,248.08809 300,243.41455 300,238.9867 v -69.51845 c -32.77494,12.45706 -72.54738,13.48514 -122.45898,-8.21239 z" /><path
       id="path12042"
       style="fill:#8fa1bd;fill-opacity:1;fill-rule:evenodd;stroke-width:2.69542"
       d="m 274.76172,42.056641 c -54.65791,-3.6e-5 -98.96697,49.570564 -98.9668,110.718749 -1e-5,3.18988 0.14844,6.33946 0.38477,9.46094 4.41298,-48.03172 49.49932,-85.794952 104.50586,-85.794924 4.98031,0.005 9.94807,0.327831 14.86718,0.960938 1.57936,0.203268 3.07499,0.757133 4.44727,1.548828 V 57.832031 c 0,-6.672379 -5.19049,-13.710091 -11.7793,-14.730469 -4.45552,-0.690006 -8.95165,-1.039292 -13.45898,-1.044921 z M 235.21094,254.27148 c 12.11618,5.91798 25.48517,9.22267 39.55078,9.22266 0.8458,-0.006 1.69039,-0.0461 2.53516,-0.0762 -15.04016,-0.42657 -29.28869,-3.64827 -42.08594,-9.14649 z" /><ellipse
       style="fill:#4c6995;fill-opacity:1;fill-rule:evenodd;stroke:none;stroke-width:1.46567;stroke-opacity:1"
       id="ellipse5297"
       cx="228.30748"
       cy="152.68677"
       rx="56.017288"
       ry="57.837536"
       transform="rotate(13.093326)" /><path
       id="ellipse10234"
       style="fill:#3c5484;fill-opacity:1;fill-rule:evenodd;stroke:none;stroke-width:1.46567;stroke-opacity:1"
       d="m 173.8303,139.62981 c -0.99226,4.27783 -1.50863,8.65857 -1.53908,13.05726 7e-5,31.94208 25.07886,57.83648 56.01567,57.8374 30.93801,3e-4 56.01826,-25.89503 56.01782,-57.83835 -0.005,-9.38898 -2.22376,-18.63555 -6.46458,-26.94101 -1.15969,27.3254 -40.82553,37.11122 -69.58012,37.68369 -23.9314,0.43432 -28.78808,-1.93993 -34.44971,-23.79899 z"
       transform="rotate(13.093326)" /><path
       id="path12057"
       style="fill:#324678;fill-opacity:1;fill-rule:evenodd;stroke:none;stroke-width:1.14662;stroke-opacity:1"
       d="m 231.90775,206.24796 c -6.10166,6.59155 -17.61987,8.6662 -29.74628,9.31435 -1.81203,0.0969 -3.28256,1.61355 -3.28256,3.4282 v 25.71241 c 0,3.45716 2.76882,5.7462 6.04404,4.6466 14.37723,-4.82693 25.98645,-16.07695 29.80559,-30.85053 1.07078,-4.15183 1.83491,-7.66659 1.8421,-11.3075 0.008,-4.05902 -1.92031,-3.90631 -4.66289,-0.94353 z" /><path
       id="ellipse11904"
       style="fill:#8fa1bd;fill-opacity:1;fill-rule:evenodd;stroke:none;stroke-width:1.46567;stroke-opacity:1"
       d="m 217.70598,95.895104 c -1.74585,0.347263 -16.44191,4.511726 -19.67725,8.456916 -3.23535,3.94519 19.24711,-2.52753 28.94334,-2.59505 29.63324,-0.10209 54.14168,23.46427 54.03612,53.63268 -0.0109,2.10407 3.02744,2.96359 4.80877,2.86671 1.78132,-0.0969 -1.547,-1.80102 -1.49225,-5.57024 -3.1e-4,-31.94268 -25.08018,-57.83712 -56.01757,-57.836959 -3.55787,2.57e-4 -7.10763,0.350487 -10.60116,1.045943 z"
       transform="rotate(13.093326)" /><ellipse
       style="fill:#4c6995;fill-opacity:1;fill-rule:evenodd;stroke:none;stroke-width:0.967992;stroke-opacity:1"
       id="path5295"
       cx="156.39999"
       cy="225.07144"
       rx="36.142857"
       ry="39.100002" /><path
       id="path11015"
       style="opacity:1;fill:#8fa1bd;fill-opacity:1;stroke-width:4.98042;stroke-linejoin:bevel;paint-order:stroke fill markers;stop-color:#000000"
       d="m 172.9658,205.994 c 3.65938,-1.97196 4.30255,-7.21025 2.18522,-10.25906 -9.04382,-13.0225 -37.7736,-7.4754 -38.01915,4.7136 -0.19111,9.48636 25.8184,10.94263 35.83393,5.54546 z" /><path
       id="rect9379"
       style="opacity:1;fill:#31436d;fill-opacity:0.550685;stroke-width:34.5692;stroke-linejoin:bevel;paint-order:stroke fill markers;stop-color:#000000"
       d="m 130.16016,198.30273 a 36.142857,39.100002 0 0 0 -9.27539,19.91602 38.930899,66.537291 0 0 0 10.15429,34.57031 36.142857,39.100002 0 0 0 25.36133,11.38282 36.142857,39.100002 0 0 0 36.14258,-39.09961 36.142857,39.100002 0 0 0 -6.57227,-22.46094 c -15.19007,18.60869 -27.6201,18.30384 -55.81054,-4.3086 z" /><path
       id="path12116"
       style="fill:#324678;fill-opacity:1;fill-rule:evenodd;stroke:none;stroke-width:0.989468;stroke-opacity:1"
       d="m 185.27011,220.46857 c -5.33618,5.04628 -14.66311,6.73412 -24.50889,7.29494 -1.81167,0.10319 -3.28232,1.61884 -3.28232,3.43349 v 20.88007 c 0,3.45716 2.77448,5.75142 6.02619,4.58647 12.03117,-4.31023 21.68637,-13.87108 24.90999,-26.34102 0.82471,-3.19772 1.43862,-5.95751 1.56547,-8.74762 0.18415,-4.0502 -1.78529,-3.87256 -4.71044,-1.10633 z" /><path
       id="rect5284"
       style="opacity:1;fill:#4c6995;fill-opacity:1;stroke-width:25;stroke-linejoin:bevel;paint-order:stroke fill markers;stop-color:#000000"
       d="m 131.42858,187.28571 c 53.41954,21.29368 47.24788,97.95396 13.8,128.8 C 109.13346,349.18547 69.868552,347.3675 28.914288,345 12.92247,344.07554 0,332.10423 0,316.08571 v -63.74285 c 0,-5.44395 2.2458641,-13.65862 5.2207579,-18.21744 40.6212491,-62.24928 83.6343791,-63.81 126.2078221,-46.83971 z" /><path
       id="path8453"
       style="opacity:1;fill:#324678;fill-opacity:1;stroke-width:25;stroke-linejoin:bevel;paint-order:stroke fill markers;stop-color:#000000"
       d="m 168.31836,273.89648 c -4.0802,15.1718 -17.77182,12.84782 -26.25485,8.02422 -40.5349,31.57322 -76.745607,43.6384 -122.737338,41.38008 -4.592751,-0.22552 -8.950786,-1.14911 -12.9008399,-2.64776 C 4.1629597,319.79467 2.0344199,318.74768 0.07226562,317.53516 0.83117137,332.81582 13.412417,344.10388 28.914062,345 c 40.954224,2.3675 80.219368,4.18566 116.314458,-28.91406 11.10723,-10.24322 19.18171,-25.54715 23.08984,-42.18946 z" /><g
       id="g13758"
       transform="rotate(-6.6307296,220.49843,425.35506)"><path
         style="color:#000000;fill:#3c5484;stroke-linejoin:bevel;paint-order:stroke fill markers"
         d="m 64.859859,19.862196 c -5.575157,-1.364428 -13.352477,3.608446 -14.540143,9.223915 -2.136977,10.103965 17.202091,25.76818 17.202091,25.76818 l 30.054365,52.072969 c 3.499718,25.58528 -3.321097,54.88793 -7.205296,80.47321 l 19.638894,-3.21736 c 1.85395,-26.28515 3.23112,-52.57031 2.6289,-78.85546 C 103.32892,85.55933 91.425685,66.342083 80.754195,47.274583 75.485161,38.120322 75.119429,22.373057 64.859859,19.862196 Z"
         id="path13749" /><path
         id="path13751"
         style="color:#000000;fill:#30446b;fill-opacity:1;stroke-width:1.15725;stroke-linejoin:bevel;paint-order:stroke fill markers"
         d="m 105.79883,101.16406 c -3.32382,0.0422 -6.561122,1.28549 -9.777346,3.06836 l 1.554688,2.69531 c 0.09882,0.72242 0.161482,1.45738 0.24414,2.18555 4.764538,-2.12197 9.637508,-2.83301 14.855468,-1.11914 -0.0159,-0.88863 -0.0168,-1.77739 -0.0371,-2.66602 -0.49617,-1.05357 -1.02678,-2.09988 -1.53711,-3.15039 -1.79799,-0.72967 -3.56203,-1.03576 -5.30273,-1.01367 z" /><path
         id="path13753"
         style="opacity:1;fill:#30446b;fill-opacity:0.720548;stroke-width:5;stroke-linejoin:bevel;paint-order:stroke fill markers;stop-color:#000000"
         d="m 79.445312,44.634766 c -4.148975,5.438736 -8.858341,7.513453 -13.724609,8.648437 0.738379,0.638545 1.800781,1.570313 1.800781,1.570313 l 1.775391,3.078125 c 4.963287,-1.397674 9.443789,-3.76083 13.080078,-7.8125 -0.534962,-0.946644 -1.093679,-1.897892 -1.623047,-2.84375 -0.475856,-0.826739 -0.901823,-1.720945 -1.308594,-2.640625 z" /></g><path
       style="color:#000000;fill:#3c5484;stroke-linejoin:bevel;paint-order:stroke fill markers"
       d="m 64.859859,19.862196 c -5.575157,-1.364428 -13.352477,3.608446 -14.540143,9.223915 -2.136977,10.103965 17.202091,25.76818 17.202091,25.76818 l 30.054365,52.072969 c 3.499718,25.58528 -3.321097,54.88793 -7.205296,80.47321 l 19.638894,-3.21736 c 1.85395,-26.28515 3.23112,-52.57031 2.6289,-78.85546 C 103.32892,85.55933 91.425685,66.342083 80.754195,47.274583 75.485161,38.120322 75.119429,22.373057 64.859859,19.862196 Z"
       id="path12232" /><path
       id="rect8510"
       style="opacity:1;fill:#8fa1bd;fill-opacity:1;stroke-width:16.3553;stroke-linejoin:bevel;paint-order:stroke fill markers;stop-color:#000000"
       d="M 87.484375,178.06641 C 59.566781,178.55944 31.878371,193.27395 5.2207031,234.125 2.5211858,238.26182 0.44167143,245.38862 0.07617187,250.74414 9.8392403,267.41335 14.608692,205.35673 108.54883,197.66016 c 7.12451,-0.58372 6.27885,-8.85071 2.28906,-16.94532 -7.79087,-1.8103 -15.581002,-2.7857 -23.353515,-2.64843 z" /><path
       id="rect10943"
       style="opacity:1;fill:#8fa1bd;fill-opacity:1;stroke-width:6.57107;stroke-linejoin:bevel;paint-order:stroke fill markers;stop-color:#000000"
       d="m 205.25747,159.51221 c 1.15649,-3.86274 -1.72028,-7.47085 -4.37616,-9.94361 -6.21449,-5.56164 -15.14083,-6.83112 -23.16025,-5.7527 -10.09092,1.45004 -19.86565,6.00945 -27.07565,13.27654 -3.74875,3.87613 -7.09635,9.33178 -5.69647,14.92737 0.48541,2.6876 2.29452,4.89709 5.23594,4.37733 11.57208,0.66461 23.32077,0.0945 34.61359,-2.65774 6.80153,-1.79415 13.93257,-4.46598 18.35662,-10.23828 0.89391,-1.21513 1.61318,-2.56099 2.10238,-3.98891 z" /><path
       id="path15687"
       style="color:#000000;fill:#466189;fill-opacity:1;stroke:none;stroke-width:7.7;stroke-linecap:round;stroke-linejoin:round;stroke-dasharray:none;stroke-opacity:1;paint-order:stroke fill markers"
       d="m 216.96875,177.30664 c -3.48751,-0.0773 -6.66556,2.30027 -7.4707,5.83398 -0.92016,4.03796 2.07163,5.26839 6.10937,6.18946 7.78229,1.58412 4.76223,-1.91029 13.91797,9.44336 10.97956,13.61528 20.16002,56.9006 21.51563,80.86133 0.18256,3.2267 1.14038,6.48664 -0.46875,9.03906 -14.28695,4.51325 -25.34568,4.65019 -34.83985,10.74414 0,0 -5.05977,5.70024 -4.72461,9.16992 5.41185,1.35453 10.72729,1.843 15.97071,1.68164 -0.31636,-0.37758 -0.61406,-0.70318 -0.93946,-1.10742 6.05696,-3.81653 10.5243,-10.84953 27.13477,-6.30469 3.00943,0.82342 6.82489,4.55496 10.10742,3.23633 3.00318,-1.20641 4.62891,-8.53516 4.62891,-8.53516 -3.42341,-23.26771 -16.3408,-82.69094 -25.19141,-106.26562 -0.51763,-1.37919 -1.42992,-2.57543 -2.62305,-3.43945 -15.77624,-11.4225 -17.3215,-9.3797 -21.61914,-10.35938 -0.50482,-0.115 -1.00959,-0.17646 -1.50781,-0.1875 z" /><path
       id="rect15695"
       style="opacity:1;fill:#374d79;fill-opacity:1;stroke-width:7.7;stroke-linecap:round;stroke-linejoin:round;paint-order:stroke fill markers;stop-color:#000000"
       d="m 211.00781,308.58789 c 0.006,0.0581 -8.9e-4,0.12088 0.008,0.17773 4.41597,8.43603 31.95747,21.11819 23.1543,26.26954 -24.45675,2.24562 -13.18931,0.44006 -32.85547,3.0039 -4.12736,-0.34941 -2.82422,2.8188 -2.82422,6.96094 h 40.2168 c 4.52582,-4.7e-4 10.22548,-0.99431 9.64258,-5.48242 -2.65433,-20.42663 -8.0436,-13.34109 -21.37109,-29.24805 -5.24342,0.16136 -10.55886,-0.32711 -15.97071,-1.68164 z" /><g
       id="g15685"><path
         style="color:#000000;fill:#4c6995;fill-opacity:1;stroke:none;stroke-width:7.7;stroke-linecap:round;stroke-linejoin:round;stroke-dasharray:none;stroke-opacity:1;paint-order:stroke fill markers"
         d="m 185.67578,190.63672 c -4.03857,-0.92004 -8.05834,1.60794 -8.97851,5.64648 -0.92016,4.03796 2.07145,5.26943 6.1092,6.1905 7.7823,1.58412 4.76239,-1.91134 13.91814,9.44232 10.97957,13.6153 20.16035,25.76756 21.51596,49.72831 0.18256,3.22671 1.65061,6.89227 -0.46891,9.03978 -2.03242,2.05925 -5.72942,0.77007 -8.66162,0.5633 -14.46496,-1.01998 -26.31342,-0.11181 -36.40106,5.99868 0,0 -5.24362,5.89717 -4.71558,9.34658 0.35986,2.35081 3.35248,3.42398 4.97207,5.11671 10.3819,10.85071 19.89147,20.80396 23.4938,34.14034 0.77177,2.85721 1.29108,8.64196 -0.66614,8.85381 -24.45678,2.64722 -54.31267,5.69903 -73.97885,2.07451 -4.12737,-0.34941 -7.93515,4.07982 -7.93515,8.22196 l 86.21946,-0.32857 c 4.52582,-4.7e-4 10.45702,-0.99773 9.87412,-5.48585 -2.71734,-20.91151 -12.92259,-34.761 -26.95644,-52.19535 6.05696,-3.81653 20.74771,-6.66847 37.35819,-2.12362 3.00943,0.82342 6.82421,4.55553 10.10674,3.23691 3.00318,-1.20641 4.62834,-8.53516 4.62834,-8.53516 -3.42341,-23.26774 -16.34078,-51.55811 -25.1914,-75.13281 -0.51763,-1.37919 -1.42992,-2.57543 -2.62305,-3.43946 -15.77626,-11.42251 -17.3215,-9.37969 -21.61914,-10.35937 z"
         id="path14597" /><path
         id="rect15556"
         style="opacity:1;fill:#3c5484;stroke-width:7.30114;stroke-linecap:round;stroke-linejoin:round;paint-order:stroke fill markers;stop-color:#000000"
         d="m 183.20508,287.22852 c -1.79972,5.62181 -7.84925,3.80646 -14.54102,0.86718 1.06005,1.39956 3.07201,2.32902 4.30078,3.61328 10.38189,10.8507 19.89182,20.80426 23.49414,34.14063 0.77177,2.85721 1.29121,8.64167 -0.66601,8.85351 -24.45676,2.64722 -54.31236,5.69874 -73.97852,2.07422 -4.12736,-0.34941 -7.93554,4.08052 -7.93554,8.22266 l 86.21875,-0.32812 c 4.52581,-4.7e-4 10.4579,-0.99822 9.875,-5.48633 -2.70467,-20.81399 -12.83479,-34.63703 -26.76758,-51.95703 z" /></g><path
       id="ellipse11968"
       style="fill:#8fa1bd;fill-opacity:1;fill-rule:evenodd;stroke:none;stroke-width:0.967992;stroke-opacity:1"
       d="m 156.40039,185.9707 c -6.34108,6e-5 -12.29396,1.77778 -17.47461,4.88086 1.60481,0.89457 3.14105,1.84833 4.61524,2.85352 4.04839,-1.57479 8.43168,-2.46786 13.02343,-2.47656 15.51224,0.002 27.05146,10.01039 32.16407,24.20898 0.77396,2.14945 -0.25062,7.53145 2.05078,6.89258 1.54482,-0.42884 1.25526,-3.51127 1.02343,-5.09766 -2.5727,-17.60523 -17.80391,-31.4447 -35.40234,-31.26172 z" /><path
       id="path12772"
       style="color:#000000;fill:#30446b;fill-opacity:1;stroke-width:1.15725;stroke-linejoin:bevel;paint-order:stroke fill markers"
       d="m 105.79883,101.16406 c -3.32382,0.0422 -6.561122,1.28549 -9.777346,3.06836 l 1.554688,2.69531 c 0.09882,0.72242 0.161482,1.45738 0.24414,2.18555 4.764538,-2.12197 9.637508,-2.83301 14.855468,-1.11914 -0.0159,-0.88863 -0.0168,-1.77739 -0.0371,-2.66602 -0.49617,-1.05357 -1.02678,-2.09988 -1.53711,-3.15039 -1.79799,-0.72967 -3.56203,-1.03576 -5.30273,-1.01367 z" /><path
       id="rect13520"
       style="opacity:1;fill:#30446b;fill-opacity:0.720548;stroke-width:5;stroke-linejoin:bevel;paint-order:stroke fill markers;stop-color:#000000"
       d="m 79.445312,44.634766 c -4.148975,5.438736 -8.858341,7.513453 -13.724609,8.648437 0.738379,0.638545 1.800781,1.570313 1.800781,1.570313 l 1.775391,3.078125 c 4.963287,-1.397674 9.443789,-3.76083 13.080078,-7.8125 -0.534962,-0.946644 -1.093679,-1.897892 -1.623047,-2.84375 -0.475856,-0.826739 -0.901823,-1.720945 -1.308594,-2.640625 z" /><path
       id="path15968"
       style="color:#000000;fill:#374c6c;fill-opacity:1;stroke:none;stroke-width:7.7;stroke-linecap:round;stroke-linejoin:round;stroke-dasharray:none;stroke-opacity:1;paint-order:stroke fill markers"
       d="m 300,261.14453 v 3.84961 c 0.11148,-1.60831 0.16602,-2.92187 0.16602,-2.92187 -0.0435,-0.29571 -0.11759,-0.62637 -0.16602,-0.92774 z" /><path
       id="path15966"
       style="color:#000000;fill:#3d5686;fill-opacity:1;stroke:none;stroke-width:7.7;stroke-linecap:round;stroke-linejoin:round;stroke-dasharray:none;stroke-opacity:1;paint-order:stroke fill markers"
       d="m 243.31055,160.2207 c -3.48752,-0.0773 -6.66556,2.30027 -7.47071,5.83399 -0.92016,4.03792 2.07163,5.27033 6.10938,6.1914 7.78226,1.58412 4.76226,-1.91221 13.91797,9.44141 18.78551,23.96532 38.15429,50.30577 39.625,70.06445 0.43855,5.89184 -5.13416,14.57531 -6.77539,18.56055 -5.6781,13.78755 -19.54902,27.81053 -25.04297,42.96875 l 8.56176,4.63055 C 261.74097,341.54603 294.39716,283.81926 300,276.55273 v -51.17187 c -10.0466,-17.44467 -25.02048,-35.40792 -30.93945,-51.17383 -0.51763,-1.37919 -1.42992,-2.57542 -2.62305,-3.43945 -15.77618,-11.42247 -17.3215,-9.3797 -21.61914,-10.35938 -0.50482,-0.115 -1.0096,-0.17646 -1.50781,-0.1875 z" /><path
       id="rect16438"
       style="opacity:1;fill:#30446b;fill-opacity:0.99726;stroke-width:7.7;stroke-linecap:round;stroke-linejoin:round;paint-order:stroke fill markers;stop-color:#000000"
       d="m 277.9278,312.10343 c -3.91393,3.91699 -9.9757,3.30817 -13.9875,0.30801 -0.41426,1.29004 -1.15109,3.41153 -1.49499,4.74872 0,0 -5.24288,5.89827 -4.71484,9.34765 4.41594,8.436 16.43401,9.23928 7.63086,14.39063 l -25.95508,-0.11719 c -2.4732,-0.0345 -3.53044,1.81659 -3.49609,4.21875 h 27.70898 c 3.17938,-1.8e-4 6.34503,-0.41715 9.41602,-1.24023 3.07131,-0.82227 6.02158,-2.04361 8.77539,-3.63282 2.75298,-1.59028 5.28562,-3.53458 7.5332,-5.7832 0.65846,-0.78638 1.28337,-1.60026 1.87305,-2.43945 -2.65248,-3.18002 -6.9806,3.69018 -17.14844,-8.94141 0.19708,-4.3817 3.14932,-7.74096 3.85944,-10.85946 z" /><ellipse
       cx="-100.36876"
       cy="249.37572"
       fill="#c59a74"
       id="circle352"
       transform="scale(-1,1)"
       style="fill:#3c5484;fill-opacity:1;stroke-width:1.23933"
       rx="45.743401"
       ry="44.61055" /><ellipse
       cx="-100.36876"
       cy="261.76141"
       fill="#ffffff"
       id="circle354"
       transform="scale(-1,1)"
       rx="45.743401"
       ry="44.61055"
       style="stroke-width:1.23933" /><path
       d="m 73.417677,252.22327 a 19.845135,19.353664 0 0 0 28.843813,-26.22486 34.372195,33.520955 0 1 1 -28.843813,26.22486 z m 48.073003,28.93528 a 8.1874327,7.9846681 0 1 0 -8.18743,-7.98468 8.1874327,7.9846681 0 0 0 8.32264,7.98468 z"
       fill="#414042"
       id="path356"
       style="stroke-width:1.48357" /></g></svg>
