<?xml version="1.0" encoding="UTF-8" standalone="no"?>
<svg
   viewBox="0 0 300 345"
   version="1.1"
   id="svg60941"
   sodipodi:docname="raven.svg"
   xml:space="preserve"
   inkscape:version="1.2 (dc2aedaf03, 2022-05-15)"
   xmlns:inkscape="http://www.inkscape.org/namespaces/inkscape"
   xmlns:sodipodi="http://sodipodi.sourceforge.net/DTD/sodipodi-0.dtd"
   xmlns:xlink="http://www.w3.org/1999/xlink"
   xmlns="http://www.w3.org/2000/svg"
   xmlns:svg="http://www.w3.org/2000/svg"><sodipodi:namedview
     id="namedview60943"
     pagecolor="#505050"
     bordercolor="#ffffff"
     borderopacity="1"
     inkscape:showpageshadow="0"
     inkscape:pageopacity="0"
     inkscape:pagecheckerboard="1"
     inkscape:deskcolor="#505050"
     showgrid="false"
     inkscape:zoom="0.94316065"
     inkscape:cx="169.64236"
     inkscape:cy="181.30527"
     inkscape:window-width="1366"
     inkscape:window-height="705"
     inkscape:window-x="-8"
     inkscape:window-y="-8"
     inkscape:window-maximized="1"
     inkscape:current-layer="svg60941" /><defs
     id="defs60891"><linearGradient
       inkscape:collect="always"
       id="linearGradient37067"><stop
         style="stop-color:#e4c166;stop-opacity:1;"
         offset="0.37931034"
         id="stop37063" /><stop
         style="stop-color:#d0a056;stop-opacity:1;"
         offset="1"
         id="stop37065" /></linearGradient><linearGradient
       id="A"
       x1="150"
       y1="356.11"
       x2="150"
       y2="161.16"
       gradientUnits="userSpaceOnUse"
       gradientTransform="translate(0,-0.16311766)"><stop
         offset="0.12582782"
         stop-color="#594a42"
         id="stop60886"
         style="stop-color:#bd7f46;stop-opacity:1;" /><stop
         offset="0.69"
         stop-color="#281813"
         id="stop60888"
         style="stop-color:#e3c066;stop-opacity:1;" /></linearGradient><linearGradient
       inkscape:collect="always"
       xlink:href="#linearGradient37067"
       id="linearGradient37069"
       x1="263.8353"
       y1="184.38956"
       x2="-39.632786"
       y2="302.27863"
       gradientUnits="userSpaceOnUse" /></defs><path
     style="opacity:1;fill:#342e3a;fill-opacity:1;stroke:none;stroke-width:2.858;stroke-linecap:butt;stroke-linejoin:round;stroke-dasharray:none;stroke-opacity:1;stop-color:#000000"
     d="M 121.83786,107.97014 C 54.173255,89.785165 10.774047,110.52593 10.896069,201.082 15.941444,205.60762 4.1106693,252.88703 9.2401318,257.66491 28.213527,275.33783 63.91441,249.81098 76.272481,247.63793 l 76.272479,-29.71656 c 23.48329,-25.61814 25.82919,-54.91235 16.83938,-86.17799 z"
     id="path51738"
     sodipodi:nodetypes="ccscccc" /><path
     id="path53306"
     style="opacity:1;fill:#030003;fill-opacity:0.259136;stroke:none;stroke-width:2.94347;stroke-linecap:butt;stroke-linejoin:round;stroke-dasharray:none;stroke-opacity:1;stop-color:#000000"
     d="m 85.560703,101.94727 c -46.511168,0.25246 -74.584677,28.3879 -74.483561,99.13476 5.351657,4.52562 -7.1976435,51.80416 -1.7567944,56.58203 0.7146724,0.62759 1.4571204,1.18737 2.2146394,1.70899 0,0 75.921432,-45.50407 88.031267,-84.2812 7.290276,-23.34434 -14.702983,-71.8803 -14.702983,-71.8803 -2.461361,-0.12965 3.064569,-1.27713 0.697432,-1.26428 z"
     sodipodi:nodetypes="ccscacc" /><path
     id="path52549"
     style="opacity:1;fill:#4b4851;fill-opacity:1;stroke:none;stroke-width:2.858;stroke-linecap:butt;stroke-linejoin:round;stroke-dasharray:none;stroke-opacity:1;stop-color:#000000"
     d="m 81.117188,101.94727 c -43.849232,0.25246 -70.316033,28.3879 -70.220704,99.13476 5.04537,4.52562 -6.785707,51.80416 -1.6562496,56.58203 0.6737701,0.62759 1.3737266,1.18737 2.0878906,1.70899 0,0 67.461481,-46.55766 80.992187,-82.68946 8.727758,-23.30622 -4.357421,-74.5332 -4.357421,-74.5332 -2.320492,-0.12965 -4.614043,-0.21597 -6.845703,-0.20312 z"
     sodipodi:nodetypes="ccscacc" /><path
     id="path53238"
     style="opacity:1;fill:#342e3a;fill-opacity:0.548173;stroke:none;stroke-width:2.858;stroke-linecap:butt;stroke-linejoin:round;stroke-dasharray:none;stroke-opacity:1;stop-color:#000000"
     d="m 23.167969,135.27344 c -8.015022,15.64034 -12.309968,37.24883 -12.271485,65.80859 5.045365,4.52562 -6.7857019,51.80417 -1.6562496,56.58203 0.6737694,0.62759 1.3737276,1.18737 2.0878906,1.70899 0,0 24.582931,-17.00763 47.050781,-38.41211 0,0 -16.53757,5.68666 -23.361328,1.88281 -7.115955,-3.96673 -11.140625,-21.75391 -11.140625,-21.75391 0,0 20.493148,-20.87597 14.855469,-30.77343 -3.075004,-5.39845 -14.578211,3.16867 -18.570313,-1.5918 -7.193668,-8.57824 3.00586,-33.45117 3.00586,-33.45117 z"
     sodipodi:nodetypes="ccsccacasc" /><path
     id="path58830"
     style="opacity:1;fill:#7f7b87;fill-opacity:1;stroke:none;stroke-width:1.65;stroke-linecap:butt;stroke-linejoin:round;stroke-dasharray:none;stroke-opacity:1;stop-color:#000000"
     d="m 44.761719,111.19922 c -4.746034,2.9149 -9.049312,6.53992 -12.861328,10.95312 -6.73174,11.09894 -1.711392,16.32184 3.4375,21.48047 10.420913,9.75952 3.42542,22.62942 -3.988434,35.33959 l 9.689605,9.68971 -13.679687,21.6582 c -1.782168,11.94838 2.705018,20.76207 13.082031,26.63086 6.656924,-5.56584 13.770441,-11.85264 20.59961,-18.52148 -2.70134,-5.96913 -8.151698,-11.05282 -10.312424,-17.22919 -5.51814,-5.88868 21.917273,-22.72517 13.109484,-23.93938 l -16.529482,-2.2787 c 1.776831,-17.24246 28.231404,-36.10685 17.097656,-49.58789 -4.277454,-5.17925 -14.91422,7.29596 -19.949219,2.84961 -4.259433,-3.76146 0.304688,-17.04492 0.304688,-17.04492 z"
     sodipodi:nodetypes="cccccccccscaac" /><path
     d="M 263.62,344.83688 H 36.38 C 16.287881,344.83688 0,328.549 0,308.45688 v -36.44454 l 300,-13.03546 v 49.48 c 0,20.09212 -16.28788,36.38 -36.38,36.38 z"
     fill="url(#A)"
     id="path60893"
     style="fill:url(#A)"
     sodipodi:nodetypes="sssccss" /><path
     id="path53854"
     style="opacity:1;fill:#030003;fill-opacity:0.23588042;stroke:none;stroke-width:2.858;stroke-linecap:butt;stroke-linejoin:round;stroke-dasharray:none;stroke-opacity:1;stop-color:#000000"
     d="M 108.87305 104.91797 L 91.259766 126.27734 C 91.259766 126.27734 108.96198 129.70535 111.42188 136.89062 C 114.19055 144.97786 100.81055 160.23633 100.81055 160.23633 C 125.03747 178.60617 155.48338 180.37036 173.63281 173.19922 C 175.19412 159.89813 173.49272 146.03119 169.38477 131.74414 L 121.83789 107.9707 C 119.62319 107.3755 117.43592 106.82477 115.27539 106.31641 C 113.11487 105.80804 110.98107 105.34204 108.87305 104.91797 z " /><path
     d="M 253.21957,186.01913 C 147.7132,213.36833 51.302513,223.24629 15.118971,249.38325 5.1038701,256.6176 -0.29719668,265.09756 -4.125e-7,275.53837 -4.125e-7,295.63049 16.287881,311.91837 36.38,311.91837 h 227.24 c 20.09212,0 36.38,-16.28788 36.38,-36.38 V 134.05002 c -16.439,18.88822 -26.95772,37.83606 -46.78043,51.96911 z"
     fill="#58595b"
     id="path395"
     style="fill:url(#linearGradient37069);fill-opacity:1"
     sodipodi:nodetypes="cscssscc" /><path
     id="path35763"
     style="opacity:1;fill:#bd7f46;fill-opacity:0.508306;stroke:none;stroke-width:2.858;stroke-linejoin:round;stroke-dasharray:none;stroke-opacity:1;stop-color:#000000"
     d="m 256.11914,181.93945 c -0.95997,1.36237 -1.90383,2.73144 -2.90039,4.08008 -0.12374,0.0321 -0.24543,0.0598 -0.36914,0.0918 -1.77825,5.36121 -3.15279,10.76711 -0.6543,16.60351 L 121.8418,249.53516 64.378906,273.74414 C 36.68405,288.69537 28.490412,284.99433 16.228516,285.18359 L 0.0625,273.97656 c -0.01438076,0.52284 -0.0776706,1.02954 -0.0625,1.5625 0,4.83292 0.96277967,9.43534 2.6738281,13.6543 2.5627734,3.59956 6.7181494,6.3303 14.3515629,7.16406 l 25.539062,-6.91601 52.673828,-7.44922 168.130859,-69.16797 c -5.06506,-9.49854 -11.46262,-18.77275 -7.25,-30.88477 z"
     sodipodi:nodetypes="ccccccccccccccc" /><path
     style="opacity:1;fill:#8c4018;fill-opacity:0.578073;stroke:none;stroke-width:3.6498;stroke-linejoin:round;stroke-dasharray:none;stroke-opacity:1;stop-color:#000000"
     d="m 29.825852,292.0902 44.329791,11.54078 c 103.134557,22.10359 98.480027,5.17929 153.962447,-4.16752 0,0 -40.52602,33.53242 -65.22935,35.86819 C 116.45827,339.72178 29.825852,292.0902 29.825852,292.0902 Z"
     id="path35553"
     sodipodi:nodetypes="cccac" /><path
     id="path32557"
     style="opacity:1;fill:#bc7e45;fill-opacity:1;stroke:none;stroke-width:2.858;stroke-linejoin:round;stroke-dasharray:none;stroke-opacity:1;stop-color:#000000"
     d="m 300,148.54688 c -17.88847,21.30539 -36.45155,42.68681 -42.54492,62.68164 l 27.40039,34.25 L 300,175.05664 Z" /><path
     id="path34439"
     style="opacity:1;fill:#b55926;fill-opacity:1;stroke:none;stroke-width:2.858;stroke-linejoin:round;stroke-dasharray:none;stroke-opacity:1;stop-color:#000000"
     d="m 299.18006,170.25197 c -2.89695,3.68413 -11.42687,23.6988 -12.30601,20.58094 -1.55003,-5.49713 -3.47867,-14.6173 -3.47867,-14.6173 -1.15926,-0.38642 -9.88162,23.69222 -24.89538,31.9172 -0.37736,1.03499 -0.73169,2.06785 -1.04492,3.09571 l 27.40039,34.25 3.67578,-17.09375 z"
     sodipodi:nodetypes="cscccccc" /><path
     id="path36843"
     style="opacity:1;fill:#d09f55;fill-opacity:1;stroke:none;stroke-width:2.858;stroke-linejoin:round;stroke-dasharray:none;stroke-opacity:1;stop-color:#000000"
     d="M 300 175.00391 L 287.84375 232.50977 L 300 266.11914 L 300 175.00391 z " /><path
     id="path32898"
     style="color:#000000;fill:#751a00;stroke-linejoin:round;stroke-width:3.90000038;stroke-dasharray:none"
     d="m 300,146.30664 c -18.21578,21.70275 -37.53664,43.58339 -43.91211,64.50391 a 1.4291429,1.4291429 0 0 0 0.25,1.31054 l 27.40234,34.25 a 1.4291429,1.4291429 0 0 0 2.51172,-0.59179 L 300,181.85156 v -13.58594 l -15.9082,73.97071 -25.00977,-31.26367 C 265.11042,192.04705 282.66389,171.40983 300,150.73633 Z" /><path
     style="opacity:1;fill:#ac4235;fill-opacity:1;stroke-width:7.55791;stroke-linejoin:round;stop-color:#000000"
     d="m 64.023364,284.26676 c 0,0 115.231026,24.21397 168.590996,6.45325 14.38242,-4.78716 32.40754,-20.13769 45.61398,-32.86552 10.36973,-9.99392 11.19065,-28.1661 2.65297,-39.76858 l -0.54188,-0.7364 c -8.53769,-11.6025 -23.93716,-12.86584 -35.82064,-4.7496 -49.94346,34.11063 -120.46822,47.63997 -180.495426,71.66685 z"
     id="path25427"
     sodipodi:nodetypes="caccc" /><path
     id="path31255"
     style="opacity:1;fill:#f4b728;fill-opacity:1;stroke:none;stroke-width:5.25;stroke-linejoin:round;stroke-dasharray:none;stroke-opacity:1;stop-color:#000000"
     d="m 241.49219,214.60352 c -21.8091,14.31033 -47.30264,24.93731 -74.01758,34.34179 l 2.92578,5.30078 -0.71289,20.03711 c 28.38637,-7.08211 58.23805,-20.75708 88,-34.02929 l -3.54297,-10.92188 z m -69.25196,60.73828 -80.539058,13.88672 c 23.243428,3.70483 57.590918,8.09194 89.183598,7.98046 l 1.69921,-8.81836 z" /><path
     id="path37056"
     style="opacity:1;fill:#7a1b00;fill-opacity:0.302326;stroke:none;stroke-width:2.858;stroke-linejoin:round;stroke-dasharray:none;stroke-opacity:1;stop-color:#000000"
     d="m 114.68164,266.38477 c -17.242606,5.6036 -34.34259,11.35221 -50.658202,17.88281 0,0 28.398007,5.95769 63.509762,9.79492 0,0 -23.23164,-8.54239 -23.45898,-18.49805 -0.10675,-4.67477 10.60742,-9.17968 10.60742,-9.17968 z"
     sodipodi:nodetypes="cccac" /><path
     id="path30419"
     style="opacity:1;fill:#e6660b;fill-opacity:1;stroke:none;stroke-width:5.25;stroke-linejoin:round;stroke-dasharray:none;stroke-opacity:1;stop-color:#000000"
     d="m 284.51758,224.78711 -27.09766,14.23828 c 7.03343,6.18911 15.91621,10.79392 20.84961,18.7832 8.49786,-8.23028 10.53662,-21.95763 6.24805,-33.02148 z m -71.57617,33.26367 -45.14649,16.55274 13.7793,15.82226 -2.36719,6.78711 c 19.99028,0.0295 38.96944,-1.68628 53.4082,-6.49219 0.32589,-0.10847 0.66267,-0.24998 0.99219,-0.36914 L 231,275.35547 Z" /><path
     id="path32051"
     style="opacity:1;fill:#fceecd;fill-opacity:0.750831;stroke:none;stroke-width:5.25;stroke-linejoin:round;stroke-dasharray:none;stroke-opacity:1;stop-color:#000000"
     d="m 261.26562,207.41406 c -5.67594,-0.12012 -11.54707,1.6347 -16.74609,5.18555 -8.18665,5.59136 -16.93602,10.62191 -26.0918,15.24414 14.77457,-4.94289 30.2692,-7.70013 36.16993,7.8457 -0.15656,-8.04496 -4.05648,-13.5624 -11.11719,-19.54297 12.0565,-3.64635 21.18486,-3.18165 31.82617,7.95899 5.54226,5.80233 15.91547,-7.13817 -7.73437,-15.71875 -2.04508,-0.58727 -4.15826,-0.92719 -6.30665,-0.97266 z m 22.98047,17.47852 -19.76757,13.06836 c 8.6765,-3.10428 16.71101,-4.6547 22.17773,0 0.17869,-4.30319 -0.45752,-8.65851 -1.9375,-12.68164 -0.16072,-0.12838 -0.30388,-0.25984 -0.47266,-0.38672 z m -75.0332,7.55273 -1.46094,0.48047 c -7.52924,3.44463 -15.27349,6.67451 -23.19531,9.72656 14.14826,-0.10385 25.2843,3.68861 26.76172,19.98243 2.53081,-9.79339 6.20472,-19.49265 -2.10547,-30.18946 z m 49.27539,9.13477 -39.86719,19.4375 c 14.78839,-5.40286 47.54244,-13.8364 58.94922,-2.54297 0.2129,-0.20414 0.44772,-0.41823 0.65821,-0.62109 0.23437,-0.22589 0.43748,-0.47687 0.6621,-0.71094 -3.49858,-5.90962 -11.97632,-9.31556 -20.40234,-15.5625 z m -93.4668,8.2168 c -9.58501,3.33933 -19.30711,6.54001 -29.07226,9.69921 16.42413,-1.9873 32.68216,-8.37257 34.29883,9.45703 2.48566,-9.61874 2.64048,-9.04713 -5.22657,-19.15624 z m 50.15821,12.13476 -31.94336,10.53125 c 17.46726,-1.36408 46.36811,-4.96893 48.09179,14.04102 2.53081,-9.79339 -7.83824,-13.87546 -16.14843,-24.57227 z m -45.63281,13.69141 -38.61329,9.82812 c 17.46728,-1.36408 48.47357,-10.58612 50.19727,8.42383 2.53081,-9.79339 -3.27379,-7.55514 -11.58398,-18.25195 z"
     sodipodi:nodetypes="sscccscscccccccccccccscccccccccccccc" /><path
     id="path27098"
     style="color:#000000;fill:#751a00;fill-opacity:1;stroke-linejoin:round"
     d="m 282.91992,221.35938 c -53.99139,38.34269 -122.027,56.66516 -196.703123,65.6875 l 0.158203,1.30468 c 4.188298,0.69813 8.798881,1.42619 13.83008,2.17188 69.52876,-9.56879 133.24051,-27.91752 184.83398,-64.2461 -0.56234,-1.70321 -1.26808,-3.34814 -2.11914,-4.91796 z" /><path
     style="color:#000000;fill:#751a00;fill-opacity:1;stroke-linejoin:round"
     d="m 168.80078,248.48438 c -1.83617,0.65019 -3.68979,1.28281 -5.53711,1.92187 1.87375,1.79794 3.46032,3.5973 4.51758,5.42969 1.34084,2.32388 1.92921,4.59121 1.53516,7.32226 -0.39406,2.73108 -1.86331,6.03743 -5.13672,10.05274 a 2.6252625,2.6252625 0 0 0 0.67383,3.90234 c 5.69281,3.45612 11.1398,6.9014 13.18945,10.33399 1.02482,1.71627 1.37111,3.28825 0.83594,5.45898 -0.30104,1.22103 -0.99068,2.67424 -2.08203,4.31055 2.0357,0.0172 4.05833,0.01 6.07226,-0.01 0.48155,-1.0253 0.85971,-2.0382 1.10742,-3.04297 0.84888,-3.44315 0.16644,-6.74169 -1.42578,-9.4082 -2.75153,-4.60803 -7.74582,-7.69462 -12.6875,-10.67578 2.48634,-3.55986 4.18706,-6.96067 4.65039,-10.17188 0.57047,-3.95371 -0.3963,-7.59427 -2.18555,-10.69531 -0.97799,-1.69503 -2.18821,-3.25395 -3.52734,-4.72851 z"
     id="path35539" /><path
     style="color:#000000;fill:#751a00;fill-opacity:1;stroke-linejoin:round"
     d="m 210.5957,231.61133 c -1.65277,0.77531 -3.30303,1.55208 -4.97851,2.30469 2.08747,2.21366 3.62469,4.50818 4.61719,6.87695 2.40486,5.73961 1.99986,12.16357 -1.03516,19.59961 a 2.6252625,2.6252625 0 0 0 1.52344,3.45508 c 13.16094,4.8535 17.37637,11.37517 19.0625,19.17773 0.56438,2.61171 0.76806,5.40188 0.83007,8.29102 0.66156,-0.2022 1.35615,-0.3814 2,-0.59571 1.0587,-0.35238 2.14153,-0.77863 3.23633,-1.24023 -0.12933,-2.53015 -0.39475,-5.06191 -0.93554,-7.56445 -1.8631,-8.62152 -7.43432,-16.67039 -20.05079,-22.00196 2.54942,-7.4184 2.94551,-14.62192 0.21094,-21.14844 -1.05631,-2.52106 -2.56788,-4.89995 -4.48047,-7.15429 z"
     id="path35537" /><path
     style="color:#000000;fill:#751a00;fill-opacity:1;stroke-linejoin:round"
     d="m 243.61523,213.19922 c -1.49879,1.01137 -3.01448,2.0066 -4.54882,2.98242 8.35376,6.33115 14.12301,14.54445 16.08203,26.17188 a 2.6252625,2.6252625 0 0 0 1.91015,2.0996 c 9.6627,2.58442 16.12386,7.34886 19.78125,14.71094 0.45469,-0.43345 0.94456,-0.88253 1.38868,-1.31054 0.81505,-0.78552 1.54892,-1.63623 2.24609,-2.51563 -4.33015,-7.35937 -11.25456,-12.61051 -20.52734,-15.4375 -2.32133,-11.45157 -8.26104,-20.06566 -16.33204,-26.70117 z"
     id="path29096" /><path
     style="opacity:1;fill:#e4c166;fill-opacity:1;stroke:none;stroke-width:2.858;stroke-linejoin:round;stroke-dasharray:none;stroke-opacity:1;stop-color:#000000"
     d="m 62.87612,301.87412 178.14901,-4.83662 c 0,0 -58.51861,26.28942 -89.75417,27.01635 -30.37011,0.70678 -88.39484,-22.17973 -88.39484,-22.17973 z"
     id="path35551"
     sodipodi:nodetypes="ccac" /><path
     style="opacity:1;fill:#d09f55;fill-opacity:1;stroke:none;stroke-width:2.858;stroke-linejoin:round;stroke-dasharray:none;stroke-opacity:1;stop-color:#000000"
     d="m 38.945683,293.89263 c 14.33396,4.51371 1.191459,-1.02655 48.436648,-4.58184 l -23.2365,-6.21822 -26.509246,8.18187 z"
     id="path37054"
     sodipodi:nodetypes="ccccc" /><path
     style="opacity:1;fill:#c18938;fill-opacity:1;stroke:none;stroke-width:1.43136;stroke-linecap:butt;stroke-linejoin:round;stroke-dasharray:none;stroke-opacity:1;stop-color:#000000"
     d="m 63.642755,234.63816 c -0.37007,3.38652 1.308914,8.19499 4.583447,9.13463 1.917435,0.55022 4.071244,-1.50124 5.111738,-3.11188 0.694995,-1.07583 -0.915629,-3.24043 0.340783,-3.73426 2.672392,-1.05037 3.913265,5.16379 6.815651,4.97901 2.805649,-0.17863 3.124401,-4.79135 5.793303,-5.60137 2.516522,-0.7638 5.831781,2.82837 7.837998,1.24475 3.180823,-2.51082 1.76446,-8.30287 -0.340782,-11.51394 -1.384255,-2.11136 -4.329878,-3.14894 -6.853433,-3.22439 -3.039463,-0.0909 -5.543075,2.56546 -8.4718,3.38349 -2.991953,0.83569 -6.507284,-0.0322 -9.193194,1.5286 -2.568889,1.49279 -5.300956,3.96182 -5.623711,6.91536 z"
     id="path56232"
     sodipodi:nodetypes="aaaaaaaaaaaa" /><path
     style="opacity:1;fill:none;fill-opacity:1;stroke:#751a00;stroke-width:2.858;stroke-linejoin:round;stroke-dasharray:none;stroke-opacity:1;stop-color:#000000"
     d="m 64.023364,284.26676 c 0,0 115.231026,24.21397 168.590996,6.45325 14.38242,-4.78716 32.40754,-20.13769 45.61398,-32.86552 10.36973,-9.99392 11.19065,-28.1661 2.65297,-39.76858 l -0.54188,-0.7364 c -8.53769,-11.6025 -23.93716,-12.86584 -35.82064,-4.7496 -49.94346,34.11063 -120.46822,47.63997 -180.495426,71.66685 z"
     id="path32061"
     sodipodi:nodetypes="caccc" /><path
     style="opacity:1;fill:#c18938;fill-opacity:1;stroke:none;stroke-width:1.44913;stroke-linecap:butt;stroke-linejoin:round;stroke-dasharray:none;stroke-opacity:1;stop-color:#000000"
     d="m 104.33141,229.14617 c -0.945,3.34389 1.30892,8.39976 4.58345,9.36288 1.91743,0.56397 4.07124,-1.53875 5.11174,-3.18964 0.69499,-1.10271 -0.91563,-3.32139 0.34078,-3.82756 2.67239,-1.07662 3.91326,5.29281 6.81565,5.10342 2.80565,-0.1831 3.1244,-4.91107 5.7933,-5.74133 2.51653,-0.78289 5.83178,2.89904 7.838,1.27585 3.18082,-2.57356 1.76446,-8.51033 -0.34078,-11.80164 -1.38426,-2.16412 -4.32988,-3.22762 -6.85343,-3.30496 -3.03947,-0.0932 -5.71388,2.16234 -8.4718,3.46804 -2.70516,1.28071 -5.31588,2.75785 -7.89789,4.27155 -2.35531,1.38081 -6.17652,1.75607 -6.91902,4.38339 z"
     id="path56849"
     sodipodi:nodetypes="aaaaaaaaaaaa" /><path
     id="path35515"
     style="color:#000000;fill:#751a00;stroke-linejoin:round;-inkscape-stroke:none"
     d="m 222.88086,193.46875 c -2.45085,0.57624 -4.92309,1.17564 -7.35742,1.73633 -37.46591,18.33328 -83.48384,38.37297 -104.9961,71.36914 l 8.625,-1.68555 c 21.98548,-33.72199 66.45712,-52.45973 103.72852,-71.41992 z m -93.60547,20.2207 c -2.0148,0.4223 -3.98206,0.84439 -5.96484,1.26367 -5.67833,3.27265 -11.31619,6.68478 -16.72852,10.28711 -24.543991,16.33602 -46.578119,36.64676 -47.140624,59.375 l 6.208985,-0.79882 c 0.5206,-21.03514 17.629756,-41.16235 41.894529,-57.3125 6.9467,-4.62359 14.31788,-8.85925 21.73047,-12.81446 z" /><path
     id="path35517"
     style="color:#000000;fill:#751a00;stroke-linejoin:round;-inkscape-stroke:none"
     d="M 64.144531 282.70312 C 64.144531 282.70312 57.197614 284.94686 48.453125 287.17383 C 39.708636 289.4008 29.126064 291.58601 22.216797 291.51367 C 16.29271 291.45161 7.8473407 289.7207 -0.001953125 287.7168 L -0.001953125 290.67773 C 7.7158933 292.63354 15.948105 294.30579 22.185547 294.37109 C 29.710124 294.44989 40.319366 292.19631 49.158203 289.94531 C 57.99704 287.69431 65.023438 285.42188 65.023438 285.42188 L 64.144531 282.70312 z " /><path
     id="path37049"
     style="opacity:1;fill:#d09f55;fill-opacity:1;stroke:none;stroke-width:2.858;stroke-linejoin:round;stroke-dasharray:none;stroke-opacity:1;stop-color:#000000"
     d="m 262.51486,272.92521 c -15.09585,18.85708 -33.44601,25.86786 -56.18478,38.99276 h 37.65234 c -8.32327,8.68062 -13.47212,-8.75984 18.53244,-38.99276 z"
     sodipodi:nodetypes="cccc" /><path
     style="color:#000000;fill:#751a00;stroke-linejoin:round;-inkscape-stroke:none"
     d="m 266.22867,267.4357 c -3.94391,4.3783 -24.1564,18.009 -28.27504,21.62746 -33.63828,29.55314 -52.52464,28.175 -86.42043,32.34504 -38.67454,4.75795 -73.681067,-15.32516 -113.861882,-31.80414 l -6.325615,3.45063 c 40.253645,16.50885 80.515697,31.10686 120.179687,31.21093 39.66399,0.10408 78.68232,-14.42748 115.94727,-55.79687 z"
     id="path35519"
     sodipodi:nodetypes="cssccscc" /><path
     id="path35541"
     style="color:#000000;fill:#751a00;fill-opacity:1;stroke-linejoin:round"
     d="m 132.84961,260.50781 c -1.7166,0.55399 -3.42917,1.11275 -5.14649,1.66602 0.20537,0.30485 0.40126,0.61142 0.57813,0.91797 1.34084,2.32387 1.92921,4.59122 1.53516,7.32226 -0.39406,2.73108 -1.86332,6.03743 -5.13672,10.05274 a 2.6252625,2.6252625 0 0 0 0.67383,3.90234 c 5.6928,3.45612 11.1398,6.9014 13.18945,10.33398 0.0943,0.15787 0.17714,0.31275 0.25976,0.46876 1.90333,0.1732 3.7979,0.33456 5.72266,0.49023 -0.30192,-1.30401 -0.80716,-2.53455 -1.47461,-3.65234 -2.75153,-4.60803 -7.74582,-7.69463 -12.6875,-10.67579 2.48634,-3.55985 4.18706,-6.96066 4.65039,-10.17187 0.56802,-3.93672 -0.38955,-7.56197 -2.16406,-10.6543 z" /><path
     style="color:#000000;fill:#751a00;stroke-linejoin:round;-inkscape-stroke:none"
     d="m 289.1023,229.99252 -2.26832,8.23223 c 30.0859,78.33599 -26.51997,76.20432 -81.76757,73.11705 l -1.13106,2.35928 c 32.1805,1.57647 62.30224,2.90302 79.79902,-7.22647 8.7484,-5.06474 14.48318,-13.06354 15.75586,-24.71484 1.27269,-11.65131 -2.12282,-31.60992 -10.38793,-51.76725 z"
     id="path35652"
     sodipodi:nodetypes="ccccssc" /><path
     style="color:#000000;fill:#751a00;stroke-linejoin:round;-inkscape-stroke:none"
     d="m 113.18839,221.31788 c -23.582457,12.66069 -48.724756,23.55202 -67.838781,35.06298 -9.557012,5.75548 -17.718537,11.48307 -23.664062,17.37891 -5.945526,5.89583 -9.730306,12.01935 -10.181641,18.5371 l 5.423276,0.34014 c 0.383236,-5.53434 1.097991,-11.22326 6.770084,-16.84795 5.672092,-5.62468 13.673063,-11.26756 23.126953,-16.96094 18.90778,-11.38675 43.327444,-24.13825 67.001361,-36.84805 z"
     id="path35654"
     sodipodi:nodetypes="cssccsscc" /><path
     id="path39335"
     style="opacity:1;fill:#bf0f00;fill-opacity:0.302326;stroke:none;stroke-width:2.50001;stroke-linejoin:round;stroke-dasharray:none;stroke-opacity:1;stop-color:#000000"
     d="M 199.04688 276.41211 C 196.30242 276.43859 193.74482 276.99 191.64453 278.30273 C 185.63662 282.05783 183.07854 291.24051 186.18359 297.14648 C 201.54384 296.83347 216.02999 295.36261 227.98633 292.09961 C 228.11509 287.94076 221.68216 283.68307 216.99609 281.33008 C 212.0273 278.83512 205.08468 276.35386 199.04688 276.41211 z " /><path
     style="opacity:1;fill:#bf0f00;fill-opacity:0.302326;stroke:none;stroke-width:1.95319;stroke-linejoin:round;stroke-dasharray:none;stroke-opacity:1;stop-color:#000000"
     d="m 238.82869,263.26026 c -5.4059,3.70751 -5.27818,8.94778 -4.38986,11.83462 1.20696,3.92232 4.94419,8.29338 12.59489,5.4676 8.35697,-3.08665 20.61533,-13.68676 20.65087,-18.68111 0.05,-7.02155 -17.57639,-6.35691 -28.8559,1.37889 z"
     id="path39337"
     sodipodi:nodetypes="aaaaa" /><path
     style="opacity:1;fill:#bf0f00;fill-opacity:0.302326;stroke:none;stroke-width:1.59675;stroke-linejoin:round;stroke-dasharray:none;stroke-opacity:1;stop-color:#000000"
     d="m 146.42027,260.01092 c -5.17588,0.58108 -7.77521,4.59187 -8.71057,7.13721 -1.27085,3.45834 -1.23479,8.29449 4.85353,9.30108 6.65035,1.09952 19.50737,-1.87465 22.08018,-5.63265 3.6171,-5.28337 -7.42357,-12.01807 -18.22314,-10.80564 z"
     id="path39339"
     sodipodi:nodetypes="aaaaa" /><path
     style="opacity:1;fill:#bf0f00;fill-opacity:0.302326;stroke:none;stroke-width:1.59675;stroke-linejoin:round;stroke-dasharray:none;stroke-opacity:1;stop-color:#000000"
     d="m 185.63814,248.37485 c -5.17588,0.58108 -7.77521,4.59187 -8.71057,7.13721 -1.27085,3.45834 -1.23479,8.29449 4.85353,9.30108 6.65035,1.09952 19.50737,-1.87465 22.08018,-5.63265 3.6171,-5.28337 -7.42357,-12.01807 -18.22314,-10.80564 z"
     id="path39341"
     sodipodi:nodetypes="aaaaa" /><path
     style="opacity:1;fill:#bf0f00;fill-opacity:0.302326;stroke:none;stroke-width:1.54238;stroke-linejoin:round;stroke-dasharray:none;stroke-opacity:1;stop-color:#000000"
     d="m 227.71422,231.22225 c -4.45379,1.22027 -6.25905,5.7475 -6.78082,8.5366 -0.7089,3.78953 -0.11637,8.87559 5.31864,9.21913 5.93672,0.37526 16.82248,-4.26713 18.6339,-8.52517 2.54667,-5.98638 -7.8788,-11.77668 -17.17172,-9.23056 z"
     id="path38388"
     sodipodi:nodetypes="aaaaa"
     inkscape:transform-center-x="1.7438535"
     inkscape:transform-center-y="-0.63592635" /><path
     id="path39398"
     style="opacity:1;fill:#4b4851;fill-opacity:1;fill-rule:evenodd"
     d="m 173.0918,38.396484 c -25.99173,0.04418 -49.42353,14.337828 -59.4668,36.275391 l -15.264258,4.035404 c -4.729326,1.25029 -6.101723,7.301657 -2.374466,10.469827 l 12.691454,10.787738 c 0.22073,5.220486 -0.65121,4.154566 1.05446,9.140346 l -7.38019,11.33697 c -1.59638,0.88232 -1.18507,3.28327 0.61396,3.58392 l 13.11142,2.19114 c 3.5846,7.07993 2.36819,6.733 8.65207,12.00737 l -11.09101,11.65871 c -2.91622,1.68398 -1.72148,6.14209 1.64603,6.14209 h 48.57295 c 3.05824,0.40496 6.14429,0.60861 9.23438,0.60938 35.67964,-5.5e-4 64.60341,-26.46891 64.60351,-59.119145 -1e-4,-32.650236 -28.92387,-59.118587 -64.60351,-59.119141 z"
     sodipodi:nodetypes="cccccccccccccccc" /><g
     transform="matrix(0.63056017,0,0,0.63056017,-103.74646,146.72209)"
     class="UnoptimicedTransforms"
     id="g1687"><path
       id="path1683"
       d="m 456.84697,-63.011673 a 36.450001,36.450001 0 0 1 -36.45,36.450001 36.450001,36.450001 0 0 1 -36.45,-36.450001 36.450001,36.450001 0 0 1 36.45,-36.450001 36.450001,36.450001 0 0 1 36.45,36.450001 z"
       style="fill:#ffffff" /><path
       id="path1685"
       d="m 449.62918,-74.328291 a 17.552745,17.552745 0 0 1 -25.32004,-23.59397 32.197737,32.197737 0 0 0 -4.4081,-0.318658 30.53806,30.53806 0 1 0 29.72814,23.89935 z m -42.77984,26.42206 a 7.2494697,7.2494697 0 1 1 7.24947,-7.236192 7.2361923,7.2361923 0 0 1 -7.24947,7.236192 z"
       style="fill:#343434;fill-opacity:1;stroke-width:1.32775" /></g><path
     id="path50487"
     style="opacity:1;fill:#2e2835;fill-opacity:0.67109632;stroke:none;stroke-width:2.98283;stroke-linecap:butt;stroke-linejoin:round;stroke-dasharray:none;stroke-opacity:1;stop-color:#000000"
     d="M 208.2832 47.947266 L 136.55664 48.865234 C 126.58083 55.158807 118.51069 64.000044 113.625 74.671875 L 98.361328 78.707031 C 95.206482 79.541077 93.558065 82.511983 93.908203 85.337891 C 99.418437 89.951931 107.74263 95.018404 120.00195 100.7168 L 133.01172 87.757812 L 135.20508 105.17188 C 171.09391 115.10039 206.30437 119.77615 237.64258 99.396484 C 237.664 98.770577 237.69531 98.146292 237.69531 97.515625 C 237.6953 94.734866 237.47037 92.002764 237.06445 89.324219 L 229.56836 82.300781 L 235.52539 82.300781 C 231.37137 67.990287 221.49934 55.820801 208.2832 47.947266 z " /><path
     id="path53925"
     style="opacity:1;fill:#030003;fill-opacity:0.23588;stroke:none;stroke-width:2.858;stroke-linecap:butt;stroke-linejoin:round;stroke-dasharray:none;stroke-opacity:1;stop-color:#000000"
     d="m 209.01758,111.61914 c 0,0 -11.96793,7.23868 -12.92848,13.36116 -1.30721,8.33198 11.18043,22.69743 11.18043,22.69743 3.36003,-1.92121 6.51714,-4.11046 9.42578,-6.54687 z"
     sodipodi:nodetypes="caccc" /><path
     style="opacity:1;fill:#ffa82c;fill-opacity:1;stroke:none;stroke-width:2.858;stroke-linejoin:round;stroke-dasharray:none;stroke-opacity:1;stop-color:#000000"
     d="m 230.02272,103.6776 c -5.72587,-0.0103 -12.16033,0.20066 -17.03841,3.31184 -5.75357,3.66955 -10.1641,10.14457 -12.01645,16.5749 -1.90132,17.91095 25.73383,29.78571 36.72745,33.07043 l 36.70165,13.6172 -32.9771,-59.50047 c -2.05701,-3.71146 -7.15519,-7.06628 -11.39714,-7.0739 z"
     id="path41582"
     sodipodi:nodetypes="cacccsc" /><path
     id="path45448"
     style="opacity:1;fill:#ffe682;fill-opacity:0.78737539;stroke:none;stroke-width:2.858;stroke-linecap:butt;stroke-linejoin:round;stroke-dasharray:none;stroke-opacity:1;stop-color:#000000"
     d="m 238.90625,107.64453 c 0.68236,7.63402 -15.99664,-4.08155 -17.99938,1.59919 -6.49229,18.4153 36.02737,30.4434 42.19665,40.63128 l -21.6836,-39.12305 c -0.60565,-1.09278 -1.4802,-2.1528 -2.51367,-3.10742 z"
     sodipodi:nodetypes="caccc" /><path
     id="path44736"
     style="opacity:1;fill:#ff831a;fill-opacity:1;stroke:none;stroke-width:2.858;stroke-linecap:butt;stroke-linejoin:round;stroke-dasharray:none;stroke-opacity:1;stop-color:#000000"
     d="m 210.72656,108.63281 c -4.64035,3.78436 -8.15638,9.37236 -9.75781,14.93164 -1.90132,17.91094 25.73295,29.7856 36.72656,33.07032 l 9.55078,3.54296 -3.4707,-3.96484 -20.31445,-14.00977 -8.05471,-14.18617 c -7.24349,-4.8375 -10.46723,-10.82349 -4.67967,-19.38414 z"
     sodipodi:nodetypes="cccccccc" /><path
     id="path42408"
     style="color:#000000;fill:#b15112;stroke-linecap:round;stroke-linejoin:round;fill-opacity:1"
     d="m 214.62695,121.75781 c -0.76972,0.17517 -1.2516,0.94128 -1.07617,1.71094 0,0 0.71831,3.16132 1.95117,6.90625 1.23287,3.74493 2.89412,8.06373 5.23047,10.70898 5.56978,6.30622 15.7964,13.02738 25.41016,18.68555 l 17.51562,6.49805 c -3.18044,-1.70889 -7.84838,-3.07679 -12.32698,-5.62419 -13.04781,-8.4586 -29.92112,-15.66194 -33.11638,-31.16097 -1.18649,-3.60407 -1.87695,-6.64648 -1.87695,-6.64648 -0.17427,-0.77052 -0.94066,-1.25345 -1.71094,-1.07813 z"
     sodipodi:nodetypes="scsscccccs" /><path
     style="color:#000000;fill:#b15112;stroke-linejoin:round;-inkscape-stroke:none;fill-opacity:1"
     d="m 226.16092,111.936 c -0.21213,0.16507 0.0168,0.80619 0.0168,0.80619 5.24313,-0.87962 3.58137,5.3223 6.41211,6.3164 0.77497,0.27215 1.97034,0.41396 2.45118,-0.25195 0.9411,-1.3033 0.066,-3.54338 -1.04102,-4.70898 -1.86667,-1.96536 -5.69991,-3.82631 -7.83908,-2.16166 z"
     id="path44730"
     sodipodi:nodetypes="acaaaaa" /><path
     style="opacity:1;fill:#e3c370;fill-opacity:1;stroke:none;stroke-width:2.858;stroke-linecap:butt;stroke-linejoin:round;stroke-dasharray:none;stroke-opacity:1;stop-color:#000000"
     d="M 141.45063,38.636979 96.265015,27.50429 121.80471,49.769668 98.884471,42.566163 C 91.560887,55.186376 81.187893,67.314748 126.38876,88.406647 l 12.44242,-12.442417 2.09653,16.7186 c 36.45567,10.12449 72.1816,14.56949 103.51251,-9.471115 L 231.16701,70.725317 h 30.12375 c 9.41225,-7.858368 3.90329,-16.371601 -5.89378,-24.229969 l -17.02647,0.654864 5.23892,-9.822961 z"
     id="path47341"
     sodipodi:nodetypes="cccccccccccccc" /><path
     style="opacity:1;fill:none;fill-opacity:1;stroke:#ba8831;stroke-width:2.858;stroke-linecap:butt;stroke-linejoin:round;stroke-dasharray:none;stroke-opacity:1;stop-color:#000000"
     d="M 141.45063,38.636979 96.265015,27.50429 121.80471,49.769668 98.884471,42.566163 C 91.560887,55.186376 81.187893,67.314748 126.38876,88.406647 l 12.44242,-12.442417 2.09653,16.7186 c 36.45567,10.12449 72.1816,14.56949 103.51251,-9.471115 L 231.16701,70.725317 h 30.12375 c 9.41225,-7.858368 3.90329,-16.371601 -5.89378,-24.229969 l -17.02647,0.654864 5.23892,-9.822961 z"
     id="path49295"
     sodipodi:nodetypes="cccccccccccccc" /><path
     style="opacity:1;fill:#cc8d1f;fill-opacity:0.431894;stroke:none;stroke-width:2.858;stroke-linecap:butt;stroke-linejoin:round;stroke-dasharray:none;stroke-opacity:1;stop-color:#000000"
     d="m 138.9336,39.695313 -12.40479,1.488575 2.48096,13.397168 -28.28291,-0.992383 6.94668,13.89336 19.35146,9.427637 11.9086,-9.923829 11.90859,15.878126 19.35147,0.992383 23.32099,9.923828 24.31338,-12.900977 12.90098,0.992383 -3.47334,-13.89336 20.84004,-5.954297 -2.48096,-7.442871 -13.89336,-2.977149 -26.79433,-16.870508 z"
     id="path49495"
     sodipodi:nodetypes="cccccccccccccccccc" /><path
     id="path48935"
     style="fill:#ba8831;fill-opacity:1;fill-rule:evenodd;stroke-width:0.956284"
     d="m 231.82188,53.270799 c 0,14.552586 -22.28263,18.764243 -49.76966,18.764245 -27.48703,10e-7 -49.76967,-4.211657 -49.76967,-18.764245 0,-14.55259 22.28264,-33.245746 49.76967,-33.245745 27.48703,2e-6 49.76966,18.693157 49.76966,33.245745 z"
     sodipodi:nodetypes="sssss" /><path
     id="path47275"
     style="fill:#e3c370;fill-opacity:1;fill-rule:evenodd;stroke-width:0.931891"
     d="m 231.82188,51.596394 c 0,13.819653 -22.28263,17.819192 -49.76966,17.819194 -27.48703,10e-7 -49.76967,-3.999539 -49.76967,-17.819194 0,-13.819656 22.28264,-31.571341 49.76967,-31.57134 27.48703,2e-6 49.76966,17.751686 49.76966,31.57134 z"
     sodipodi:nodetypes="sssss" /><path
     id="path48240"
     style="fill:#ba8831;fill-opacity:1;fill-rule:evenodd;stroke-width:0.931891"
     d="M 212.19336 27.5625 C 214.06394 33.126625 214.79492 38.699144 214.79492 43.083984 C 214.79492 56.903624 201.68036 66.796873 174.19336 66.796875 C 164.06291 66.796875 153.84923 66.335894 144.97656 65.070312 C 154.08921 68.263886 167.3214 69.416016 182.05273 69.416016 C 209.53974 69.416014 231.82227 65.415342 231.82227 51.595703 C 231.82227 43.473715 224.11962 33.99899 212.19336 27.5625 z " /><path
     id="path49069"
     style="color:#000000;fill:#ba8831;stroke-linejoin:round"
     d="M 130.61328 60.828125 L 95.4375 67.306641 C 96.44087 68.746977 97.731428 70.23293 99.34375 71.771484 L 131.09961 62.4375 L 130.61328 60.828125 z M 134.64648 67.660156 L 111.74219 80.783203 C 113.83514 82.022692 116.13198 83.297042 118.65234 84.605469 L 136.46875 69.861328 L 134.64648 67.660156 z " /><path
     style="color:#000000;fill:#ba8831;stroke-linejoin:round;-inkscape-stroke:none"
     d="m 155.95914,37.918982 c -0.80565,4.914205 -0.18375,15.227502 -0.18375,15.227502 0,0 1.41743,-9.870488 2.1582,-14.388672 0.74073,-4.518183 5.96937,-14.69654 5.96937,-14.69654 0,0 -7.13817,8.943505 -7.94382,13.85771 z"
     id="path49221"
     sodipodi:nodetypes="scccs" /><path
     style="color:#000000;fill:#ba8831;stroke-linejoin:round;-inkscape-stroke:none"
     d="m 167.63672,39.517578 c -0.80565,4.914205 0.7426,13.433199 0.7426,13.433199 0,0 1.33694,-8.452125 2.07771,-12.970308 0.74072,-4.518183 3.92805,-13.225809 3.92805,-13.225809 0,0 -5.94271,7.848713 -6.74836,12.762918 z"
     id="path49217"
     sodipodi:nodetypes="scccs" /><path
     style="color:#000000;fill:#ba8831;stroke-linejoin:round;-inkscape-stroke:none"
     d="m 178.68261,46.733398 c 0,0 -10.70604,-5.858566 -16.42089,-6.143554 -5.71485,-0.284989 -16.82911,3.645019 -16.82911,3.645019 0.50536,-0.04344 8.27039,-1.059229 16.11678,-0.553014 8.60715,0.555296 17.33129,2.655413 17.13322,3.051549 z"
     id="path49223"
     sodipodi:nodetypes="cscsc" /><path
     style="color:#000000;fill:#ba8831;stroke-linejoin:round;-inkscape-stroke:none"
     d="M 165.31641,28.371094 C 159.60156,28.086105 148.75,32.682617 148.75,32.682617 c 11.61937,-4.222249 22.35552,-1.599492 32.9873,1.832031 0,0 -10.70604,-5.858566 -16.42089,-6.143554 z"
     id="path49219"
     sodipodi:nodetypes="sccs" /><path
     style="color:#000000;fill:#ba8831;stroke-linejoin:round"
     d="m 190.62695,78.234375 -1.02116,0.338434 3.49599,21.390232 4.96853,0.599459 z"
     id="path49297"
     sodipodi:nodetypes="ccccc" /><path
     style="color:#000000;fill:#ba8831;stroke-linejoin:round;-inkscape-stroke:none"
     d="m 177.29102,81.929687 -5.84766,16.480469 2.69336,0.957031 4.34389,-17.422271 z"
     id="path49299"
     sodipodi:nodetypes="ccccc" /><path
     style="color:#000000;fill:#ba8831;stroke-linejoin:round"
     d="m 261.43164,52.275391 c -10.23833,-0.656978 -19.93146,1.047739 -20.54778,1.422126 -0.14769,0.08762 -0.71572,0.908463 0.26706,0.732731 3.14606,-0.562546 11.58979,-1.706335 22.16476,1.486382 z"
     id="path49301"
     sodipodi:nodetypes="ccscc" /><path
     style="color:#000000;fill:#ba8831;stroke-linejoin:round"
     d="m 267.36914,61.839844 c -4.8379,-1.973992 -15.34121,-1.123414 -16.13595,-0.161222 -0.79475,1.097079 9.90163,-0.458843 15.78206,2.883775 z"
     id="path49303"
     sodipodi:nodetypes="cccc" /><path
     style="color:#000000;fill:#ba8831;stroke-linejoin:round"
     d="m 211.56641,76.630859 -0.74281,0.478663 c 4.02033,5.731386 8.8694,10.357777 11.53592,17.894237 l 4.31228,-1.794452 z"
     id="path49305"
     sodipodi:nodetypes="ccccc" /><path
     id="path50127"
     style="opacity:1;fill:#cc8d1f;fill-opacity:0.2192691;stroke:none;stroke-width:2.858;stroke-linecap:butt;stroke-linejoin:round;stroke-dasharray:none;stroke-opacity:1;stop-color:#000000"
     d="M 137.70703 38.857422 C 134.24618 43.074195 132.2832 47.505636 132.2832 51.595703 C 132.2832 65.415344 154.56573 69.416017 182.05273 69.416016 C 209.53974 69.416014 231.82227 65.415342 231.82227 51.595703 C 231.82227 50.991182 231.76353 50.377519 231.67969 49.759766 C 190.70868 59.630652 150.88356 67.89881 137.70703 38.857422 z " /><path
     id="path54371"
     style="color:#000000;fill:#27222b;stroke-linejoin:round"
     d="M 53.451172 160.0293 C 49.19608 160.42845 25.484787 179.04416 10.917969 199.10547 C 10.914096 199.76929 10.89558 200.41055 10.896484 201.08203 C 12.018193 202.08819 12.278312 205.27658 12.103516 209.57227 C 26.504677 186.85542 53.322698 159.34739 54.048828 160.21875 C 53.951531 160.06263 53.748874 160.00137 53.451172 160.0293 z M 47.097656 192.16016 C 44.031258 192.2496 25.350567 208.6324 10.421875 226.21289 C 9.9222813 230.097 9.4243305 233.98018 8.9804688 237.73438 C 24.254048 216.14293 47.224276 191.39125 47.447266 192.2832 C 47.375144 192.19666 47.258 192.15548 47.097656 192.16016 z " /><path
     style="opacity:1;fill:#ffa82c;fill-opacity:1;stroke:none;stroke-width:4.5777;stroke-linecap:butt;stroke-linejoin:round;stroke-dasharray:none;stroke-opacity:1;stop-color:#000000"
     d="m 117.43571,211.98658 c -3.61779,-0.88525 -7.2925,-1.94061 -10.49751,-0.19863 -2.85866,1.55375 -3.92705,5.9408 -5.00695,7.98754 -5.859682,6.42173 1.97058,14.22495 6.43007,16.99331 1.24544,0.42545 2.02642,-0.79848 2.19387,-1.7916 -0.2583,-3.59513 -3.13562,-7.48369 3.40459,-10.31715 2.25867,0.19009 5.03179,0.84834 5.50959,3.16932 0.38982,1.93402 -0.46802,3.97448 -0.41877,5.94651 0.72577,0.92174 1.95265,-0.01 2.51765,-0.79383 1.56245,-1.71968 3.21745,-3.37467 4.71295,-5.1412 1.22145,-1.49321 0.93141,-3.24901 0.82736,-4.85489 -0.0944,-1.52584 -0.18887,-3.05166 -0.2833,-4.5775 2.49273,0.65432 4.0139,2.91789 3.92558,5.37657 -0.0985,1.07452 -0.61712,3.54528 1.38913,2.3358 1.42843,-2.28346 2.71459,-4.64299 4.07655,-6.96054 1.03467,-1.825 -0.88828,-5.71588 -2.70141,-6.16499 -4.50827,-3.70833 -12.07875,0.51366 -16.0794,-1.00872 z"
     id="path56011"
     sodipodi:nodetypes="cacccccsscccssccc" /><path
     style="opacity:1;fill:#ffa82c;fill-opacity:1;stroke:none;stroke-width:4.51064;stroke-linecap:butt;stroke-linejoin:round;stroke-dasharray:none;stroke-opacity:1;stop-color:#000000"
     d="m 80.196571,215.51475 c -3.16715,-1.27015 -6.360374,-2.72399 -9.55065,-1.20169 -2.845532,1.35779 -4.488327,5.85445 -5.785427,7.89727 -6.325385,6.17559 -0.366443,15.09465 3.282325,18.41805 1.071934,0.56375 1.971011,-0.64507 2.274969,-1.67003 0.311422,-3.79221 -1.722834,-8.13986 4.677535,-10.49043 2.032494,0.41305 4.463314,1.36532 4.546143,3.84301 0.06144,2.06379 -1.032039,4.12104 -1.287231,6.19247 0.522114,1.03468 1.783508,0.17515 2.418633,-0.59367 1.687747,-1.65439 3.450116,-3.23227 5.083886,-4.94207 1.342053,-1.44934 1.34457,-3.31691 1.494007,-5.00977 0.14604,-1.60805 0.292084,-3.21611 0.438109,-4.82417 2.175494,0.92167 3.219347,3.43793 2.764534,6.00636 -0.253366,1.11679 -1.102823,3.65714 0.912334,2.57943 1.651235,-2.25793 3.184198,-4.60907 4.779938,-6.909 1.222085,-1.81474 0.05921,-6.07449 -1.527233,-6.71677 -3.550232,-4.31312 -11.102237,-0.60485 -14.521872,-2.57899 z"
     id="path55859"
     sodipodi:nodetypes="cacccccsscccssccc" /><path
     id="path56222"
     style="opacity:1;fill:#ffd96f;fill-opacity:1;stroke:none;stroke-width:1.75631;stroke-linecap:butt;stroke-linejoin:round;stroke-dasharray:none;stroke-opacity:1;stop-color:#000000"
     d="m 73.636792,213.66241 c -0.99665,-0.01 -1.994663,0.17499 -2.991624,0.65071 -0.326474,0.15578 -0.635269,0.35629 -0.931374,0.58627 0,0 -1.004269,7.95819 1.320141,7.20775 4.153665,-1.34103 14.073528,3.26904 14.714632,0.91909 0.531801,-1.9493 -4.45642,-8.75404 7.588448,-3.67995 2.296114,0.96728 1.665247,7.28675 1.665247,7.28675 0.413589,-0.6083 0.824249,-1.21939 1.243218,-1.82325 1.222083,-1.81473 0.0584,-6.07275 -1.528036,-6.71503 -3.550228,-4.31312 -11.101903,-0.60585 -14.521535,-2.57999 -2.177413,-0.87323 -4.366486,-1.83228 -6.559117,-1.85235 z"
     sodipodi:nodetypes="sscsssccccs" /><g
     class="UnoptimicedTransforms"
     id="g58655"
     transform="matrix(-0.59597566,0.16363915,-0.16625164,-0.59361454,268.53859,202.51395)"><path
       transform="rotate(59.855667)"
       id="path58649"
       d="m 217.15002,-147.46857 c 0,7.0149 -0.37764,12.55504 -4.83155,12.55505 -4.45391,0 -8.06452,-5.6867 -8.06452,-12.70161 0,-7.01491 3.61061,-12.70161 8.06452,-12.70161 4.45391,1e-5 4.83155,5.83327 4.83155,12.84817 z"
       style="fill:#342e3a;fill-opacity:1;fill-rule:evenodd"
       sodipodi:nodetypes="sssss" /><path
       transform="rotate(37.234465)"
       id="path58651"
       d="m 243.47849,-56.095814 a 8.0645161,12.701612 0 0 1 -8.06452,12.701613 8.0645161,12.701612 0 0 1 -8.06452,-12.701613 8.0645161,12.701612 0 0 1 8.06452,-12.701612 8.0645161,12.701612 0 0 1 8.06452,12.701612 z"
       style="fill:#342e3a;fill-opacity:1;fill-rule:evenodd" /><path
       id="path58653"
       d="m 215.32683,92.466502 a 22.293896,22.293896 0 0 1 7.01094,-4.574129 7.9216277,7.9216277 0 0 1 3.73143,-0.49214 6.0286361,6.0286361 0 0 1 3.10374,1.574549 c 1.70054,1.572687 1.6752,3.963209 0.76506,6.365812 a 24.669179,24.669179 0 0 1 -4.1127,6.741016 l -4.99121,5.92574 7.11554,-3.14674 a 48.602864,48.602864 0 0 1 8.96883,-3.15465 18.085908,18.085908 0 0 1 4.46418,-0.54422 4.6299925,4.6299925 0 0 1 3.39366,1.25394 1.7844762,1.7844762 0 0 1 0.52189,1.2914 4.0874152,4.0874152 0 0 1 -0.60861,1.75424 15.023361,15.023361 0 0 1 -2.88082,3.59496 64.277318,64.277318 0 0 1 -7.66466,6.27443 38.848531,38.848531 0 0 0 8.86305,-4.79939 17.073098,17.073098 0 0 0 3.83931,-3.70911 6.4988697,6.4988697 0 0 0 1.14448,-2.85732 4.5697062,4.5697062 0 0 0 -0.92408,-3.3325 5.9442352,5.9442352 0 0 0 -2.56487,-1.987421 9.8025623,9.8025623 0 0 0 -2.88965,-0.683473 18.724943,18.724943 0 0 0 -5.3427,0.354272 42.839488,42.839488 0 0 0 -9.79503,3.365732 l 2.12828,2.7676 a 30.432555,30.432555 0 0 0 2.58953,-3.78536 20.352675,20.352675 0 0 0 1.90885,-4.251233 11.261492,11.261492 0 0 0 0.51006,-4.92797 7.2343632,7.2343632 0 0 0 -2.656,-4.520444 7.9457423,7.9457423 0 0 0 -4.67643,-1.75007 9.3082144,9.3082144 0 0 0 -4.60181,1.198394 15.33685,15.33685 0 0 0 -3.56777,2.705748 20.135644,20.135644 0 0 0 -2.78248,3.348306 z"
       style="fill:#27222b;fill-opacity:1;stroke-width:1.20573"
       fill="#d49d7e" /></g><g
     class="UnoptimicedTransforms"
     id="g58647"
     transform="matrix(-0.40016612,0.46903448,-0.46986746,-0.39675343,281.40478,126.96283)"><path
       transform="rotate(59.855667)"
       id="path58641"
       d="m 217.15002,-147.46857 c 0,7.0149 -0.37764,12.55504 -4.83155,12.55505 -4.45391,0 -8.06452,-5.6867 -8.06452,-12.70161 0,-7.01491 3.61061,-12.70161 8.06452,-12.70161 4.45391,1e-5 4.83155,5.83327 4.83155,12.84817 z"
       style="fill:#342e3a;fill-opacity:1;fill-rule:evenodd"
       sodipodi:nodetypes="sssss" /><path
       transform="rotate(37.234465)"
       id="path58643"
       d="m 243.47849,-56.095814 a 8.0645161,12.701612 0 0 1 -8.06452,12.701613 8.0645161,12.701612 0 0 1 -8.06452,-12.701613 8.0645161,12.701612 0 0 1 8.06452,-12.701612 8.0645161,12.701612 0 0 1 8.06452,12.701612 z"
       style="fill:#342e3a;fill-opacity:1;fill-rule:evenodd" /><path
       id="path58645"
       d="m 215.32683,92.466502 a 22.293896,22.293896 0 0 1 7.01094,-4.574129 7.9216277,7.9216277 0 0 1 3.73143,-0.49214 6.0286361,6.0286361 0 0 1 3.10374,1.574549 c 1.70054,1.572687 1.6752,3.963209 0.76506,6.365812 a 24.669179,24.669179 0 0 1 -4.1127,6.741016 l -4.99121,5.92574 7.11554,-3.14674 a 48.602864,48.602864 0 0 1 8.96883,-3.15465 18.085908,18.085908 0 0 1 4.46418,-0.54422 4.6299925,4.6299925 0 0 1 3.39366,1.25394 1.7844762,1.7844762 0 0 1 0.52189,1.2914 4.0874152,4.0874152 0 0 1 -0.60861,1.75424 15.023361,15.023361 0 0 1 -2.88082,3.59496 64.277318,64.277318 0 0 1 -7.66466,6.27443 38.848531,38.848531 0 0 0 8.86305,-4.79939 17.073098,17.073098 0 0 0 3.83931,-3.70911 6.4988697,6.4988697 0 0 0 1.14448,-2.85732 4.5697062,4.5697062 0 0 0 -0.92408,-3.3325 5.9442352,5.9442352 0 0 0 -2.56487,-1.987421 9.8025623,9.8025623 0 0 0 -2.88965,-0.683473 18.724943,18.724943 0 0 0 -5.3427,0.354272 42.839488,42.839488 0 0 0 -9.79503,3.365732 l 2.12828,2.7676 a 30.432555,30.432555 0 0 0 2.58953,-3.78536 20.352675,20.352675 0 0 0 1.90885,-4.251233 11.261492,11.261492 0 0 0 0.51006,-4.92797 7.2343632,7.2343632 0 0 0 -2.656,-4.520444 7.9457423,7.9457423 0 0 0 -4.67643,-1.75007 9.3082144,9.3082144 0 0 0 -4.60181,1.198394 15.33685,15.33685 0 0 0 -3.56777,2.705748 20.135644,20.135644 0 0 0 -2.78248,3.348306 z"
       style="fill:#27222b;fill-opacity:1;stroke-width:1.20573"
       fill="#d49d7e" /></g><path
     id="path56227"
     style="opacity:1;fill:#ffd96f;fill-opacity:1;stroke:none;stroke-width:1.75631;stroke-linecap:butt;stroke-linejoin:round;stroke-dasharray:none;stroke-opacity:1;stop-color:#000000"
     d="m 110.71504,210.85165 c -2.37254,-0.0202 -4.81622,1.0508 -6.0475,3.15047 -0.87376,1.31917 -1.45701,2.79837 -2.05628,4.25478 0.66457,1.12957 1.32914,2.25914 1.99371,3.38871 1.30282,-0.99582 2.60564,-1.99164 3.90845,-2.98746 3.25511,1.34257 6.70215,2.58109 10.27094,2.4699 1.22015,-0.0978 2.88467,-0.48519 3.20512,-1.86221 0.18835,-1.5728 -0.4497,-3.10078 -1.05844,-4.51822 3.67907,-0.53637 7.35813,-1.07274 11.0372,-1.60911 0.95632,2.80521 1.91265,5.61041 2.86897,8.41563 0.52052,-1.06411 1.3447,-2.00444 1.63374,-3.1634 0.16227,-1.91275 -0.77812,-3.89866 -2.27692,-5.07664 -1.33891,-0.75412 -2.66051,-1.69532 -4.26806,-1.79558 -3.86157,-0.52279 -7.63597,1.14156 -11.48982,0.72638 -2.53745,-0.60618 -5.08251,-1.41884 -7.72111,-1.39325 z"
     sodipodi:nodetypes="sscccaccccccs" /><g
     class="UnoptimicedTransforms"
     id="g41321"
     transform="matrix(0.52544074,0.18344381,0.20568232,-0.46862978,-35.8981,216.95859)"><path
       transform="rotate(59.855667)"
       id="path41315"
       d="m 220.38298,-147.61513 a 8.0645161,12.701612 0 0 1 -8.06451,12.70161 8.0645161,12.701612 0 0 1 -8.06452,-12.70161 8.0645161,12.701612 0 0 1 8.06452,-12.70161 8.0645161,12.701612 0 0 1 8.06451,12.70161 z"
       style="fill:#342e3a;fill-opacity:1;fill-rule:evenodd" /><path
       transform="rotate(37.234465)"
       id="path41317"
       d="m 243.47849,-56.095814 a 8.0645161,12.701612 0 0 1 -8.06452,12.701613 8.0645161,12.701612 0 0 1 -8.06452,-12.701613 8.0645161,12.701612 0 0 1 8.06452,-12.701612 8.0645161,12.701612 0 0 1 8.06452,12.701612 z"
       style="fill:#342e3a;fill-opacity:1;fill-rule:evenodd" /><path
       id="path41319"
       d="m 215.32683,92.466502 a 22.293896,22.293896 0 0 1 7.01094,-4.574129 7.9216277,7.9216277 0 0 1 3.73143,-0.49214 6.0286361,6.0286361 0 0 1 3.10374,1.574549 c 1.70054,1.572687 1.6752,3.963209 0.76506,6.365812 a 24.669179,24.669179 0 0 1 -4.1127,6.741016 l -4.99121,5.92574 7.11554,-3.14674 a 48.602864,48.602864 0 0 1 8.96883,-3.15465 18.085908,18.085908 0 0 1 4.46418,-0.54422 4.6299925,4.6299925 0 0 1 3.39366,1.25394 1.7844762,1.7844762 0 0 1 0.52189,1.2914 4.0874152,4.0874152 0 0 1 -0.60861,1.75424 15.023361,15.023361 0 0 1 -2.88082,3.59496 64.277318,64.277318 0 0 1 -7.66466,6.27443 38.848531,38.848531 0 0 0 8.86305,-4.79939 17.073098,17.073098 0 0 0 3.83931,-3.70911 6.4988697,6.4988697 0 0 0 1.14448,-2.85732 4.5697062,4.5697062 0 0 0 -0.92408,-3.3325 5.9442352,5.9442352 0 0 0 -2.56487,-1.987421 9.8025623,9.8025623 0 0 0 -2.88965,-0.683473 18.724943,18.724943 0 0 0 -5.3427,0.354272 42.839488,42.839488 0 0 0 -9.79503,3.365732 l 2.12828,2.7676 a 30.432555,30.432555 0 0 0 2.58953,-3.78536 20.352675,20.352675 0 0 0 1.90885,-4.251233 11.261492,11.261492 0 0 0 0.51006,-4.92797 7.2343632,7.2343632 0 0 0 -2.656,-4.520444 7.9457423,7.9457423 0 0 0 -4.67643,-1.75007 9.3082144,9.3082144 0 0 0 -4.60181,1.198394 15.33685,15.33685 0 0 0 -3.56777,2.705748 20.135644,20.135644 0 0 0 -2.78248,3.348306 z"
       style="fill:#27222b;fill-opacity:1;stroke-width:1.20573"
       fill="#d49d7e" /></g><g
     class="UnoptimicedTransforms"
     id="g59671"
     transform="matrix(-0.5339314,-0.30190062,0.23869295,-0.4975286,227.8566,235.26379)"><path
       transform="rotate(59.855667)"
       id="path59665"
       d="m 217.15002,-147.46857 c 0,7.0149 -0.37764,12.55504 -4.83155,12.55505 -4.45391,0 -8.06452,-5.6867 -8.06452,-12.70161 0,-7.01491 3.61061,-12.70161 8.06452,-12.70161 4.45391,1e-5 4.83155,5.83327 4.83155,12.84817 z"
       style="fill:#4b4851;fill-opacity:1;fill-rule:evenodd"
       sodipodi:nodetypes="sssss" /><path
       transform="rotate(37.234465)"
       id="path59667"
       d="m 243.47849,-56.095814 a 8.0645161,12.701612 0 0 1 -8.06452,12.701613 8.0645161,12.701612 0 0 1 -8.06452,-12.701613 8.0645161,12.701612 0 0 1 8.06452,-12.701612 8.0645161,12.701612 0 0 1 8.06452,12.701612 z"
       style="fill:#4b4851;fill-opacity:1;fill-rule:evenodd" /><path
       id="path59669"
       d="m 215.32683,92.466502 a 22.293896,22.293896 0 0 1 7.01094,-4.574129 7.9216277,7.9216277 0 0 1 3.73143,-0.49214 6.0286361,6.0286361 0 0 1 3.10374,1.574549 c 1.70054,1.572687 1.6752,3.963209 0.76506,6.365812 a 24.669179,24.669179 0 0 1 -4.1127,6.741016 l -4.99121,5.92574 7.11554,-3.14674 a 48.602864,48.602864 0 0 1 8.96883,-3.15465 18.085908,18.085908 0 0 1 4.46418,-0.54422 4.6299925,4.6299925 0 0 1 3.39366,1.25394 1.7844762,1.7844762 0 0 1 0.52189,1.2914 4.0874152,4.0874152 0 0 1 -0.60861,1.75424 15.023361,15.023361 0 0 1 -2.88082,3.59496 64.277318,64.277318 0 0 1 -7.66466,6.27443 38.848531,38.848531 0 0 0 8.86305,-4.79939 17.073098,17.073098 0 0 0 3.83931,-3.70911 6.4988697,6.4988697 0 0 0 1.14448,-2.85732 4.5697062,4.5697062 0 0 0 -0.92408,-3.3325 5.9442352,5.9442352 0 0 0 -2.56487,-1.987421 9.8025623,9.8025623 0 0 0 -2.88965,-0.683473 18.724943,18.724943 0 0 0 -5.3427,0.354272 42.839488,42.839488 0 0 0 -9.79503,3.365732 l 2.12828,2.7676 a 30.432555,30.432555 0 0 0 2.58953,-3.78536 20.352675,20.352675 0 0 0 1.90885,-4.251233 11.261492,11.261492 0 0 0 0.51006,-4.92797 7.2343632,7.2343632 0 0 0 -2.656,-4.520444 7.9457423,7.9457423 0 0 0 -4.67643,-1.75007 9.3082144,9.3082144 0 0 0 -4.60181,1.198394 15.33685,15.33685 0 0 0 -3.56777,2.705748 20.135644,20.135644 0 0 0 -2.78248,3.348306 z"
       style="fill:#27222b;fill-opacity:1;stroke-width:1.20573"
       fill="#d49d7e" /></g><g
     class="UnoptimicedTransforms"
     id="g59663"
     transform="matrix(-0.5339314,-0.30190062,0.23869295,-0.4975286,227.8566,235.26379)"><path
       transform="rotate(59.855667)"
       id="path59657"
       d="m 217.15002,-147.46857 c 0,7.0149 -0.37764,12.55504 -4.83155,12.55505 -4.45391,0 -8.06452,-5.6867 -8.06452,-12.70161 0,-7.01491 3.61061,-12.70161 8.06452,-12.70161 4.45391,1e-5 4.83155,5.83327 4.83155,12.84817 z"
       style="fill:#4b4851;fill-opacity:1;fill-rule:evenodd"
       sodipodi:nodetypes="sssss" /><path
       transform="rotate(37.234465)"
       id="path59659"
       d="m 243.47849,-56.095814 a 8.0645161,12.701612 0 0 1 -8.06452,12.701613 8.0645161,12.701612 0 0 1 -8.06452,-12.701613 8.0645161,12.701612 0 0 1 8.06452,-12.701612 8.0645161,12.701612 0 0 1 8.06452,12.701612 z"
       style="fill:#4b4851;fill-opacity:1;fill-rule:evenodd" /><path
       id="path59661"
       d="m 215.32683,92.466502 a 22.293896,22.293896 0 0 1 7.01094,-4.574129 7.9216277,7.9216277 0 0 1 3.73143,-0.49214 6.0286361,6.0286361 0 0 1 3.10374,1.574549 c 1.70054,1.572687 1.6752,3.963209 0.76506,6.365812 a 24.669179,24.669179 0 0 1 -4.1127,6.741016 l -4.99121,5.92574 7.11554,-3.14674 a 48.602864,48.602864 0 0 1 8.96883,-3.15465 18.085908,18.085908 0 0 1 4.46418,-0.54422 4.6299925,4.6299925 0 0 1 3.39366,1.25394 1.7844762,1.7844762 0 0 1 0.52189,1.2914 4.0874152,4.0874152 0 0 1 -0.60861,1.75424 15.023361,15.023361 0 0 1 -2.88082,3.59496 64.277318,64.277318 0 0 1 -7.66466,6.27443 38.848531,38.848531 0 0 0 8.86305,-4.79939 17.073098,17.073098 0 0 0 3.83931,-3.70911 6.4988697,6.4988697 0 0 0 1.14448,-2.85732 4.5697062,4.5697062 0 0 0 -0.92408,-3.3325 5.9442352,5.9442352 0 0 0 -2.56487,-1.987421 9.8025623,9.8025623 0 0 0 -2.88965,-0.683473 18.724943,18.724943 0 0 0 -5.3427,0.354272 42.839488,42.839488 0 0 0 -9.79503,3.365732 l 2.12828,2.7676 a 30.432555,30.432555 0 0 0 2.58953,-3.78536 20.352675,20.352675 0 0 0 1.90885,-4.251233 11.261492,11.261492 0 0 0 0.51006,-4.92797 7.2343632,7.2343632 0 0 0 -2.656,-4.520444 7.9457423,7.9457423 0 0 0 -4.67643,-1.75007 9.3082144,9.3082144 0 0 0 -4.60181,1.198394 15.33685,15.33685 0 0 0 -3.56777,2.705748 20.135644,20.135644 0 0 0 -2.78248,3.348306 z"
       style="fill:#27222b;fill-opacity:1;stroke-width:1.20573"
       fill="#d49d7e" /></g></svg>
