<?xml version="1.0" encoding="UTF-8" standalone="no"?>
<svg
   viewBox="0 0 300 345"
   version="1.1"
   id="svg58"
   sodipodi:docname="autumnCat.svg"
   xml:space="preserve"
   inkscape:version="1.2 (dc2aedaf03, 2022-05-15)"
   xmlns:inkscape="http://www.inkscape.org/namespaces/inkscape"
   xmlns:sodipodi="http://sodipodi.sourceforge.net/DTD/sodipodi-0.dtd"
   xmlns="http://www.w3.org/2000/svg"
   xmlns:svg="http://www.w3.org/2000/svg"><sodipodi:namedview
     id="namedview60"
     pagecolor="#505050"
     bordercolor="#ffffff"
     borderopacity="1"
     inkscape:showpageshadow="0"
     inkscape:pageopacity="0"
     inkscape:pagecheckerboard="1"
     inkscape:deskcolor="#505050"
     showgrid="false"
     inkscape:zoom="0.5805835"
     inkscape:cx="140.37602"
     inkscape:cy="-1.7224051"
     inkscape:window-width="1366"
     inkscape:window-height="705"
     inkscape:window-x="-8"
     inkscape:window-y="-8"
     inkscape:window-maximized="1"
     inkscape:current-layer="svg58" /><defs
     id="defs12"><inkscape:path-effect
       effect="mirror_symmetry"
       start_point="107.7832,87.6946"
       end_point="107.7832,126.58984"
       center_point="107.7832,107.14222"
       id="path-effect2802"
       is_visible="true"
       lpeversion="1.2"
       lpesatellites=""
       mode="vertical"
       discard_orig_path="false"
       fuse_paths="false"
       oposite_fuse="false"
       split_items="false"
       split_open="false"
       link_styles="false" /><linearGradient
       id="A"
       x1="150"
       y1="347.9"
       x2="150"
       y2="175.23"
       gradientUnits="userSpaceOnUse"><stop
         offset="0"
         stop-color="#4ab96d"
         id="stop2"
         style="stop-color:#e56000;stop-opacity:1;" /><stop
         offset="0.69"
         stop-color="#1a673d"
         id="stop4"
         style="stop-color:#b53100;stop-opacity:1;" /></linearGradient><linearGradient
       id="linear-gradient"
       x1="150"
       y1="356.10999"
       x2="150"
       y2="161.16"
       gradientUnits="userSpaceOnUse"
       gradientTransform="translate(1e-6)"><stop
         offset="0.13842976"
         stop-color="#ead9bb"
         id="stop16823"
         style="stop-color:#d65d00;stop-opacity:1;" /><stop
         offset="0.30776858"
         stop-color="#9e712c"
         id="stop16825"
         style="stop-color:#ba2f00;stop-opacity:1;" /></linearGradient></defs><path
     id="path16838"
     style="fill:url(#linear-gradient)"
     d="M 0 259.14062 L 0 262 L 0 301.67969 L 0 308.61914 A 36.38 36.38 0 0 0 36.380859 345 L 263.61914 345 A 36.38 36.38 0 0 0 300 308.61914 L 300 301.66992 L 300 262 L 300 259.14062 L 0 259.14062 z " /><path
     id="rect19431"
     style="opacity:1;fill:#292929;fill-opacity:1;stroke:none;stroke-width:22.7482;stroke-linecap:round;stroke-linejoin:round;stroke-dasharray:none;stroke-opacity:1;stop-color:#000000"
     d="M 241.51367 112.87891 A 11.35 11.35 0 0 0 230.28906 124.35352 A 11.35 11.35 0 0 0 241.76562 135.57812 C 241.76562 135.57812 247.64997 135.52932 254.26562 136.42969 C 260.88129 137.33009 267.60474 140.69006 267.19922 140.22656 C 273.19646 147.0812 277.25934 168.68567 277.29883 188.02734 C 277.33833 207.36902 274.93555 224.03125 274.93555 224.03125 A 11.35 11.35 0 0 0 284.53516 236.89648 A 11.35 11.35 0 0 0 297.39844 227.29688 C 297.39844 227.29688 297.48614 226.61523 297.50781 226.46094 L 300.03125 226.46094 L 300.03125 177.58398 L 299.83594 177.58398 C 299.24074 159.01036 296.49106 139.23242 284.2832 125.2793 C 276.16232 115.99742 265.83454 115.09523 257.32812 113.9375 C 248.82172 112.77977 241.51367 112.87891 241.51367 112.87891 z " /><path
     id="rect18"
     style="fill:#f66700"
     d="M 36.380001,177.58478 H 263.62 c 20.15452,0 36.38,16.22548 36.38,36.38 V 262.01 c 0,20.15452 -16.22548,36.38 -36.38,36.38 H 36.380001 C 16.22548,298.39 0,282.16452 0,262.01 v -48.04522 c 0,-20.15452 16.22548,-36.38 36.380001,-36.38 z"
     sodipodi:nodetypes="sssssssss" /><path
     id="path18724"
     style="opacity:1;fill:#d43e02;fill-opacity:0.53676468;stroke:none;stroke-width:2.3;stroke-linejoin:round;stroke-dasharray:none;stroke-opacity:1;stop-color:#000000"
     d="M 26.259766,179.03125 C 11.066039,183.39845 0,197.32927 0,213.96484 v 48.04493 c 0,7.9705 2.566181,15.30416 6.8808594,21.28515 1.5315798,0.10588 2.9973927,0.14132 4.3144526,0.041 6.166062,-0.46957 13.805586,-1.73785 17.22461,-6.89063 4.826874,-7.27454 -5.099563,-14.62389 6.027344,-31.00195 3.878257,-5.70853 -18.133009,0.66602 -19.806641,-6.0293 -1.279844,-5.11997 6.487748,-8.80973 11.195313,-11.19531 3.367927,-1.70672 9.090559,1.41196 11.195312,-1.72266 4.114048,-6.12706 -4.018362,-14.23894 -5.166016,-21.52929 -1.164153,-7.39518 2.86567,-16.47726 -1.722656,-22.39258 -1.007051,-1.2983 -2.348133,-2.46756 -3.882812,-3.54297 z m 263.607424,9.73633 c -8.08823,1.11746 -17.34285,3.45558 -21.17188,8.44726 -4.89208,6.37754 -1.14567,16.1576 0,24.11328 2.1752,15.10489 20.76528,30.83338 12.91797,43.92188 -4.49076,7.49012 -20.43442,2.79386 -24.11328,2.58398 -4.62109,-0.26364 3.21659,9.23889 6.88867,12.05664 5.4901,4.2128 14.67702,7.08911 23.64649,9.07813 C 295.3745,282.32168 300,272.73732 300,262.00977 v -48.04493 c 0,-9.80852 -3.86433,-18.66722 -10.13281,-25.19726 z"
     sodipodi:nodetypes="csscssssssssccssssscsscs" /><path
     style="opacity:1;fill:#d43e02;fill-opacity:1;stroke:none;stroke-width:2.27882;stroke-linejoin:round;stroke-dasharray:none;stroke-opacity:1;stop-color:#000000"
     d="m 18.956184,277.49293 -4.868685,-23.67211 c -0.473221,-2.30087 -1.207548,-2.28477 -2.015002,-0.0644 -3.4226262,9.41095 -10.6044424,15.06848 -8.151714,30.3458 1.7298717,10.77486 15.250128,23.74623 27.064042,23.08783 14.788105,-0.82418 26.728615,-9.49983 38.575971,-15.21278 2.097617,-1.01149 2.012483,-2.25778 -0.258867,-2.88545 -10.852387,-2.99894 -19.991805,-5.35919 -28.079798,-9.27886 7.332167,-5.13911 14.38112,-10.48477 18.730549,-17.79924 1.339685,-2.25296 -0.129335,-3.79345 -2.902132,-3.35969 -15.57482,2.43633 -33.373932,3.54684 -38.094364,18.83907 z"
     id="path18204"
     sodipodi:nodetypes="ccccccc" /><path
     style="opacity:1;fill:#d43e02;fill-opacity:1;stroke:none;stroke-width:2.22236;stroke-linejoin:round;stroke-dasharray:none;stroke-opacity:1;stop-color:#000000"
     d="m 92.488686,245.57525 c 0.549182,7.73416 1.314913,15.58757 -4.858538,19.6198 -0.208484,13.68501 4.667251,25.06439 19.110262,32.10513 1.4481,-7.87121 4.95709,-14.98584 1.6195,-24.61394 15.00749,10.16734 30.01497,15.82572 45.02245,20.33325 -2.67169,-15.26604 -9.35626,-28.46966 -24.94048,-37.09925 l 18.13853,-5.70759 c -15.18769,-12.72781 -32.86222,-15.674 -54.091724,-4.6374 z"
     id="path17301"
     sodipodi:nodetypes="cccccccc" /><path
     style="opacity:1;fill:#d43e02;fill-opacity:1;stroke:none;stroke-width:2.24441;stroke-linejoin:round;stroke-dasharray:none;stroke-opacity:1;stop-color:#000000"
     d="m 291.22291,239.6286 c 0,0 -5.66008,9.40079 -10.52393,11.42216 -9.09138,3.7783 -19.05773,12.00326 -19.99546,6.71891 -0.51518,-2.90324 4.92746,-13.31543 4.20957,-13.77378 -8.3848,4.16143 -15.60857,2.76347 -23.14255,2.85083 -1.94537,0.0225 -2.51894,-1.00097 -1.43844,-2.5505 4.71093,-6.75592 8.16106,-15.06429 18.61744,-14.74598 -10.10601,-1.33444 -14.29362,-6.71732 -18.99687,-11.74749 -1.99946,-2.13841 -1.13071,-2.55731 1.62239,-3.69253 10.37793,-4.27928 31.46468,6.20199 31.05559,7.37733 0,0 3.62762,-13.55453 6.31436,-13.43784 7.59279,0.3298 12.39445,10.5471 14.38269,17.80512 1.22951,4.48829 -2.10479,13.77377 -2.10479,13.77377 z"
     id="path17441"
     sodipodi:nodetypes="csscccccsccac" /><path
     id="path10737"
     style="opacity:1;fill:#d43e02;fill-opacity:1;stroke-width:2.88305;stroke-linejoin:round;stroke-opacity:0.68435;stop-color:#000000"
     d="m 228.94336,177.58398 c -5.13904,3.33221 -10.40144,6.75658 -16.22461,9.04883 l 0.43945,3.03516 c 28.13933,24.92241 59.66801,14.72278 80.88086,4.32031 -0.91658,-1.39648 -1.93611,-2.71408 -3.03125,-3.9668 -12.20265,-12.05868 -25.8763,-3.52343 -38.81445,-5.28515 -1.40857,-2.38434 -0.983,-4.76819 0.62109,-7.15235 z m -120.48633,5.3086 c -0.36147,-0.0371 -0.81106,0.007 -1.33984,0.14648 -13.735942,3.62665 -26.091533,9.30105 -33.550784,22.23438 -0.699479,1.21279 -1.682934,1.2078 -2.28125,-0.0449 l -4.814453,-10.08008 c -1.345283,-2.81691 -3.21391,-2.71105 -4.660156,0.0644 -3.225319,6.18972 -7.320245,11.81509 -3.552735,22.54102 1.205174,3.43107 5.718742,7.40677 9.689454,8.43359 15.151259,3.91805 30.301818,0.17745 45.453124,-3.03516 2.28481,-0.48445 2.44508,-1.61238 0.35156,-2.54101 l -9.98242,-4.42774 c -1.50268,-0.66656 -1.63593,-2.47985 -0.24219,-3.30468 l 18.42188,-10.90235 c 1.10665,-0.65492 0.60378,-2.15143 -0.73633,-2.1914 l -18.19141,-0.54297 c -1.38143,-0.0412 -2.22397,-1.32987 -1.55273,-2.375 l 7.55078,-11.75977 c 0.80547,-1.25411 0.52191,-2.10339 -0.5625,-2.21484 z m 81.35547,67.73633 c -6.27316,-0.11297 -12.51181,1.30633 -19.73438,1.72461 -2.12222,0.1229 -2.67781,1.20833 -1.23242,2.55859 l 16.56641,15.47656 c 1.51612,1.41633 0.93605,2.61049 -1.28906,2.75586 -6.24612,0.40811 -10.93336,1.2635 -15.53907,2.14453 -2.02717,0.38777 -2.43622,1.68873 -0.87695,2.875 4.06155,3.08999 10.73231,8.24843 16.94141,10.72071 10.38098,4.13339 22.05674,9.0385 32.89453,6.45117 8.3735,-1.99904 14.79005,-8.49557 18.86133,-15.55469 3.38671,-5.87218 2.96546,-13.05295 3.34179,-20.05859 0.10264,-1.9106 -1.2289,-2.47975 -3.09765,-1.45899 -5.18131,2.83013 -11.38246,5.13236 -13.79297,9.40039 -0.77172,1.36641 -1.75609,1.62461 -2.81836,0.4043 -12.15128,-13.9591 -21.22245,-17.27731 -30.22461,-17.43945 z"
     sodipodi:nodetypes="ccccccccscsccssssccccccccsssccsssssssssss" /><g
     id="g13625"><path
       style="opacity:1;fill:#f7a11a;fill-opacity:1;stroke-width:3.1;stroke-linejoin:round;stroke-opacity:0.68435;stop-color:#000000"
       d="M 252.17188,152.93164 C 238.7555,153.34039 227.32948,168.35038 212.71875,175 l 0.43945,3.50781 c 28.59019,29.27615 60.70362,16.63762 81.91615,4.4207 2.49726,-1.43825 2.17837,-3.02816 -0.66848,-3.47634 l -42.21251,-6.64553 c -2.74176,-5.36585 1.39137,-10.73096 7.85355,-16.09669 0.97943,-0.81326 0.88198,-1.93453 -0.30076,-2.40417 -2.61199,-1.03717 -5.12628,-1.44872 -7.57427,-1.37414 z"
       id="path7222" /><path
       style="opacity:1;fill:#f48a10;fill-opacity:1;stroke:none;stroke-width:1.87512;stroke-linejoin:round;stroke-dasharray:none;stroke-opacity:1;stop-color:#000000"
       d="m 218.84836,177.89636 c 0.99909,-7.82027 15.88361,-5.84364 23.3975,-3.45695 4.4817,1.42355 5.79077,8.12392 10.20777,9.73707 9.71513,3.5481 36.22416,-10.81489 30.96969,-1.90627 -4.05723,6.8788 -21.49363,10.13634 -33.01124,9.00165 -11.21842,-1.1052 -33.0118,-2.0407 -31.56372,-13.3755 z"
       id="path10681"
       sodipodi:nodetypes="aaassa" /><path
       style="color:#000000;fill:#9d3d05;stroke-width:1.10571;stroke-linejoin:round"
       d="m 216.47265,173.01048 -3.9912,2.30136 c 10.00089,12.95277 49.90877,14.06732 51.49638,12.09779 -0.54913,0.80593 -35.03723,-3.13158 -47.50518,-14.39915 z"
       id="path10237"
       sodipodi:nodetypes="cccc" /><path
       style="color:#000000;fill:#9d3d05;stroke-width:0.828675;stroke-linejoin:round"
       d="m 235.52119,182.38753 c 2.04249,5.70457 7.35938,8.59115 11.76505,12.26193 -5.48854,-3.03808 -11.41186,-5.3728 -15.57086,-10.56167 z"
       id="path10239"
       sodipodi:nodetypes="cccc" /></g><path
     style="opacity:1;fill:#d43e02;fill-opacity:1;stroke:none;stroke-width:2.39323;stroke-linejoin:round;stroke-dasharray:none;stroke-opacity:1;stop-color:#000000"
     d="m 221.6546,187.71537 c -6.10673,-10.23133 -26.26567,-21.60676 -34.36728,-25.88634 -1.87332,-0.98955 -3.82393,-0.20962 -4.32797,1.69584 l -4.09693,15.48814 a 8.5077996,7.7310807 2.3037985 0 1 -6.4726,5.7075 l -36.72284,6.96598 a 3.3121398,3.0097582 2.3037967 0 0 -1.33775,5.30529 l 25.37917,18.19074 a 4.2435387,3.8561252 2.3037957 0 1 -0.059,6.12018 l -12.97542,8.79046 c -5.2867,3.58158 -4.23174,7.01905 2.37772,7.35676 20.8848,1.06708 63.0751,1.06375 76.43112,-14.98725 7.69073,-9.24257 2.29375,-24.49042 -3.82822,-34.7473 z"
     id="path18064"
     sodipodi:nodetypes="acccccaa" /><path
     id="path2645"
     style="opacity:1;fill:#363636;fill-opacity:1;stroke-width:3.1;stroke-linejoin:round;stroke-opacity:0.68435;stop-color:#000000"
     class="UnoptimicedTransforms"
     d="m 83.119141,67.960938 c -2.890574,-0.105017 -5.499744,0.566025 -7.625,2.30664 -15.261991,12.499786 2.326158,62.410792 6.742187,78.488282 l -7.314489,-1.82905 c -5.135581,-1.2842 -9.899483,1.96188 -9.636875,7.24311 2.062344,41.47526 51.735786,54.89258 84.715036,54.89258 32.97925,0 82.6527,-13.41732 84.71503,-54.89259 0.26261,-5.28123 -4.50129,-8.5273 -9.63686,-7.24311 l -7.3145,1.82906 c 4.41603,-16.07749 22.00418,-65.988496 6.74219,-78.488282 -2.12526,-1.740615 -4.73442,-2.411657 -7.625,-2.30664 -12.70848,0.461705 -30.16526,15.351439 -36.46875,21.089843 -9.60147,-4.057138 -20.3296,-6.005859 -30.41211,-6.005859 -10.08251,0 -20.81064,1.948721 -30.41211,6.005859 C 113.2844,83.312377 95.827616,68.422643 83.119141,67.960938 Z" /><path
     id="path6898"
     style="opacity:1;fill:#292929;fill-opacity:1;stroke-width:3.1;stroke-linejoin:round;stroke-opacity:0.68435;stop-color:#000000"
     class="UnoptimicedTransforms"
     d="M 105.03125 77.431641 C 103.92174 83.260474 100.95489 88.239848 91.320312 90.173828 L 108.17773 95.701172 L 119.58789 89.050781 C 116.64245 86.369392 111.2248 81.703587 105.03125 77.431641 z M 194.96875 77.431641 C 188.7752 81.703587 183.35755 86.369392 180.41211 89.050781 L 191.82227 95.701172 L 208.67969 90.173828 C 199.04511 88.239848 196.07826 83.260474 194.96875 77.431641 z M 88.767578 107.33398 C 83.470759 114.6502 78.173726 115.77355 72.876953 114.81055 C 75.604888 126.90203 79.009416 137.71603 81.158203 145.07422 L 87.027344 126.18945 L 88.767578 107.33398 z M 211.23242 107.33398 L 212.97266 126.18945 L 218.8418 145.07422 C 220.99058 137.71603 224.39511 126.90203 227.12305 114.81055 C 221.82627 115.77355 216.52924 114.6502 211.23242 107.33398 z " /><path
     id="path2791"
     style="opacity:1;fill:#fb97ff;fill-opacity:1;stroke-width:1.92696;stroke-linejoin:round;stroke-opacity:0.68435;stop-color:#000000"
     d="m 91.464844,87.701172 c -1.796785,-0.06528 -3.419171,0.351624 -4.740235,1.433594 -7.002158,5.734866 -2.860079,24.165174 0.892579,37.455074 2.45716,-11.10135 6.094813,-17.78816 13.929692,-25.6914 1.91499,-1.931709 4.00671,-3.696585 6.23632,-5.302737 -4.98986,-3.769035 -11.30423,-7.712365 -16.318356,-7.894531 z m 117.070316,0 c 1.79678,-0.06528 3.41917,0.351624 4.74023,1.433594 7.00216,5.734866 2.86008,24.165174 -0.89258,37.455074 -2.45716,-11.10135 -6.09481,-17.78816 -13.92969,-25.6914 -1.91499,-1.931709 -4.00671,-3.696585 -6.23632,-5.302737 4.98986,-3.769035 11.30423,-7.712365 16.31836,-7.894531 z"
     inkscape:path-effect="#path-effect2802"
     inkscape:original-d="m 91.464844,87.701172 c -1.796785,-0.06528 -3.419171,0.351624 -4.740235,1.433594 -7.002158,5.734866 -2.860079,24.165174 0.892579,37.455074 2.45716,-11.10135 6.094813,-17.78816 13.929692,-25.6914 1.91499,-1.931709 4.00671,-3.696585 6.23632,-5.302737 -4.98986,-3.769035 -11.30423,-7.712365 -16.318356,-7.894531 z"
     class="UnoptimicedTransforms" /><g
     id="g5018"><circle
       cx="112.62804"
       cy="137.02499"
       r="19.799654"
       id="circle4379"
       style="fill:#1d1d1d;fill-opacity:1;stroke-width:0.5432" /><circle
       cx="112.62804"
       cy="142.94962"
       r="19.799654"
       id="circle44"
       style="fill:#ffffff;stroke-width:0.5432" /><path
       d="m 131.04721,137.13088 a 9.0924655,9.0924655 0 0 1 -13.20163,-12.32747 15.830938,15.830938 0 1 0 13.20852,12.32747 z m -22.02567,13.59396 a 3.7512442,3.7512442 0 1 1 3.75125,-3.75125 3.7512442,3.7512442 0 0 1 -3.77878,3.75125 z"
       id="path48"
       style="stroke-width:0.688302;fill:#252525;fill-opacity:1" /></g><path
     id="path36200"
     style="color:#000000;fill:#1a1a1a;fill-opacity:1;stroke-width:0.480581;stroke-linecap:round;-inkscape-stroke:none"
     d="m 149.76211,163.53175 a 1.5815726,1.5023727 0 0 0 -1.57364,1.51039 c 0.0141,2.70221 0.0283,5.40376 0.0395,7.54918 0.0112,2.14544 0.0774,3.08587 -1.09597,4.3116 -1.17366,1.226 -4.05456,2.70559 -6.21557,2.71248 -2.16079,0.007 -4.32344,-1.30631 -5.59535,-2.82866 -1.27171,-1.52209 -1.7459,-3.30352 -2.26801,-5.3664 a 1.5815726,1.5023727 0 0 0 -1.90782,-1.10969 1.5815726,1.5023727 0 0 0 -1.16819,1.81229 c 0.52212,2.06287 1.09194,4.40729 2.86701,6.53189 1.77489,2.12433 4.65777,3.97579 8.08295,3.96487 3.42498,-0.0109 6.66469,-1.73063 8.54523,-3.695 0.19667,-0.20545 0.36909,-0.41474 0.52774,-0.62574 0.15866,0.211 0.33109,0.42029 0.52776,0.62574 1.88054,1.96437 5.12024,3.6841 8.54522,3.695 3.42519,0.011 6.30807,-1.84054 8.08294,-3.96487 1.7751,-2.1246 2.34491,-4.46902 2.86703,-6.53189 a 1.5815726,1.5023727 0 0 0 -1.16818,-1.81229 1.5815726,1.5023727 0 0 0 -1.90783,1.10969 c -0.52211,2.06288 -0.9963,3.84431 -2.268,5.3664 -1.27193,1.52235 -3.43458,2.83554 -5.59537,2.82866 -2.161,-0.007 -5.04191,-1.48648 -6.21558,-2.71248 -1.17342,-1.22573 -1.10715,-2.16616 -1.09595,-4.3116 0.0112,-2.14542 0.0253,-4.84697 0.0395,-7.54918 a 1.5815726,1.5023727 0 0 0 -1.57365,-1.51039 1.5815726,1.5023727 0 0 0 -0.23787,0.0347 1.5815726,1.5023727 0 0 0 -0.23787,-0.0347 z" /><path
     id="rect2925"
     style="opacity:0.768293;fill:#fb97ff;fill-opacity:1;stroke-width:2.14533;stroke-linejoin:round;stroke-opacity:0.68435;stop-color:#000000"
     d="m 143.0653,155.46158 c 4.62644,-1.12997 9.25289,-1.16998 13.87933,-0.0414 3.21171,0.7835 3.71299,3.82009 1.31901,6.10688 l -3.93186,3.75579 a 6.2754806,6.2754806 0 0 1 -8.66935,0 l -3.93185,-3.75579 c -2.39398,-2.28679 -1.87754,-5.28097 1.33472,-6.06554 z"
     sodipodi:nodetypes="cccc" /><path
     style="opacity:1;fill:#292929;fill-opacity:1;stroke:none;stroke-width:2.24101;stroke-linejoin:round;stroke-dasharray:none;stroke-opacity:1;stop-color:#000000"
     d="m 154.06134,75.026964 c 2.35438,-0.116664 3.26356,1.064156 2.07948,2.86732 l -5.46991,8.32985 c -1.13302,1.725403 -0.48031,2.318083 1.70446,1.966383 4.26144,-0.685997 10.07757,-0.202657 16.27276,0.04208 2.29497,0.09066 3.25765,1.540357 2.15637,3.302202 l -3.23339,5.172902 17.62153,3.993539 c 3.31128,0.75043 3.7772,2.53864 1.00586,3.94177 -13.27795,6.72263 -26.39701,11.61367 -42.03404,3.03682 -1.82173,-0.9992 -2.75889,-0.42912 -2.18316,1.43474 l 2.59921,8.41464 c 0.72801,2.35687 -0.71495,3.72806 -3.1948,2.93591 -13.9028,-4.441 -26.79351,-20.481757 -23.90793,-32.120422 3.01326,-12.153596 23.19035,-12.820879 36.58356,-13.31773 z"
     id="path18831"
     sodipodi:nodetypes="cccccccccssssac" /><g
     transform="matrix(-0.98743702,0,0,0.98743702,301.30616,6.8706123)"
     class="UnoptimicedTransforms"
     id="g5010"><path
       id="path5004"
       d="m 135.43532,131.81032 a 20.051561,20.051561 0 0 1 -20.05156,20.05156 20.051561,20.051561 0 0 1 -20.051563,-20.05156 20.051561,20.051561 0 0 1 20.051563,-20.05156 20.051561,20.051561 0 0 1 20.05156,20.05156 z"
       style="fill:#1d1d1d;fill-opacity:1;stroke-width:0.550111" /><path
       id="path5006"
       d="m 135.43532,137.81032 a 20.051561,20.051561 0 0 1 -20.05156,20.05156 20.051561,20.051561 0 0 1 -20.051563,-20.05156 20.051561,20.051561 0 0 1 20.051563,-20.05156 20.051561,20.051561 0 0 1 20.05156,20.05156 z"
       style="fill:#ffffff;stroke-width:0.550111" /><path
       id="path5008"
       d="m 102.70847,131.91755 a 9.2081473,9.2081473 0 0 0 13.3696,-12.48432 16.032352,16.032352 0 1 1 -13.37657,12.48432 z m 22.3059,13.76691 a 3.7989706,3.7989706 0 1 0 -3.79897,-3.79898 3.7989706,3.7989706 0 0 0 3.82685,3.79898 z"
       style="stroke-width:0.697059;fill:#252525;fill-opacity:1" /></g><path
     id="path6554"
     style="opacity:1;fill:#1d1d1d;fill-opacity:0.47549018;stroke-width:3.1;stroke-linejoin:round;stroke-opacity:0.68435;stop-color:#000000"
     class="UnoptimicedTransforms"
     d="m 66.392578,149.95312 c -0.745624,1.17153 -1.188808,2.58007 -1.107422,4.2168 2.062342,41.47522 51.735624,54.89258 84.714844,54.89258 32.97922,0 82.65252,-13.41735 84.71484,-54.89258 0.0814,-1.63673 -0.3618,-3.04528 -1.10742,-4.2168 -7.75147,30.46963 -51.40176,48.42151 -83.60742,48.42151 -32.20567,0 -75.85594,-17.95189 -83.607422,-48.42151 z"
     sodipodi:nodetypes="cssscac" /><path
     style="opacity:1;fill:#f7a11a;fill-opacity:1;stroke-width:3.1;stroke-linejoin:round;stroke-opacity:0.68435;stop-color:#000000"
     d="m 189.8125,238.66406 c -6.27317,-0.13062 -12.51243,1.50941 -19.735,1.99301 -2.12223,0.14209 -2.67726,1.39753 -1.23186,2.95865 l 16.56737,17.8939 c 1.51613,1.63752 0.93589,3.01686 -1.28923,3.18494 -6.24612,0.47184 -10.93425,1.46275 -15.53996,2.48136 -2.02718,0.44833 -2.43648,1.95072 -0.87721,3.32225 4.06155,3.57255 11.6836,9.9531 16.94183,12.39636 10.19611,4.73768 22.05673,10.44843 32.89453,7.45703 8.37351,-2.31122 14.87957,-10.26212 18.86133,-17.98242 3.58028,-6.94186 2.9652,-15.0931 3.34153,-23.19279 0.10264,-2.20898 -1.22935,-2.86574 -3.0981,-1.68558 -5.18131,3.27211 -11.38142,5.93311 -13.79193,10.86768 -0.77172,1.5798 -1.75574,1.87868 -2.81801,0.4678 -12.15129,-16.13906 -21.22312,-19.97473 -30.22529,-20.16219 z"
     id="path13619" /><path
     style="opacity:1;fill:#f66700;fill-opacity:1;stroke:none;stroke-width:2.00418;stroke-linejoin:round;stroke-dasharray:none;stroke-opacity:1;stop-color:#000000"
     d="m 110.85714,211.2258 c 5.79886,-6.2042 7.46183,-12.98475 25.4066,-12.94009 l 0.49817,7.96314 12.95238,-0.99539 -1.49451,8.46083 z"
     id="path18545"
     sodipodi:nodetypes="cccccc" /><path
     style="opacity:1;fill:#f48a10;fill-opacity:1;stroke:none;stroke-width:1.80594;stroke-linejoin:round;stroke-dasharray:none;stroke-opacity:1;stop-color:#000000"
     d="m 225.78606,277.93494 c 4.03174,-4.59945 9.67764,-14.23966 4.66604,-17.74591 -4.62506,-3.23582 -8.27423,9.98828 -13.90922,9.65863 -5.75276,-0.33654 -3.32893,-8.19702 -7.12104,-14.56669 -3.85183,-6.46998 -13.91472,-11.42834 -18.98959,-8.5116 -5.81579,3.34257 13.57086,7.62494 4.12867,20.86939 -1.68751,2.36704 8.76517,-0.35238 8.34759,2.52446 -1.10003,7.57845 -21.26398,-7.34101 -22.97329,0.12366 -2.43368,10.62807 18.47608,14.02619 29.3731,14.39201 5.93146,0.19912 12.56569,-2.28102 16.47774,-6.74395 z"
     id="path10293"
     sodipodi:nodetypes="aassssaaaa" /><path
     style="color:#000000;fill:#9d3d05;stroke-width:1.10571;stroke-linejoin:round;-inkscape-stroke:none"
     d="m 234.8798,294.58961 7.63716,0.93744 c -4.81802,-15.63902 -41.76713,-37.86624 -43.94504,-36.57929 0.79708,-0.5619 28.58826,20.71485 36.30788,35.64185 z"
     id="path10229"
     sodipodi:nodetypes="cccc" /><path
     style="color:#000000;fill:#9d3d05;stroke-width:1.10872;stroke-linejoin:round;-inkscape-stroke:none"
     d="m 215.48621,269.75195 c -9.50157,2.92238 -20.05536,1.5649 -30.31633,1.39844 10.96362,1.35761 21.67677,3.53019 33.40626,2.39571 z"
     id="path10231"
     sodipodi:nodetypes="cccc" /><path
     style="opacity:1;fill:#e02816;fill-opacity:1;stroke:none;stroke-width:2.25377;stroke-linejoin:round;stroke-dasharray:none;stroke-opacity:1;stop-color:#000000"
     d="m 222.29555,183.64413 c -5.59334,-9.90652 -24.05753,-20.92081 -31.47804,-25.06453 -1.71583,-0.95814 -3.50245,-0.20297 -3.96412,1.642 l -3.7525,14.99644 a 7.794213,7.4840493 5.4653843 0 1 -5.92845,5.52631 l -33.63556,6.74483 a 3.034336,2.9135873 5.4653843 0 0 -1.22529,5.13686 l 23.24555,17.61326 a 3.8876144,3.7329103 5.4653843 0 1 -0.054,5.92588 l -11.88458,8.51139 c -4.84225,3.46788 -3.87598,6.79622 2.17782,7.12321 19.12903,1.0332 57.7724,1.02998 70.00559,-14.51146 7.04417,-8.94914 2.10091,-23.71293 -3.50639,-33.64419 z"
     id="path13209"
     sodipodi:nodetypes="acccccaa" /><path
     style="opacity:1;fill:#c61910;fill-opacity:1;stroke:none;stroke-width:2.10656;stroke-linejoin:round;stroke-dasharray:none;stroke-opacity:1;stop-color:#000000"
     d="m 219.87151,209.6922 c 5.10471,-10.74191 -17.30754,-42.48511 -18.29331,-30.6329 -0.50424,6.06265 -2.23253,17.18515 -14.77536,10.03369 -8.83175,-5.03554 -29.67693,-2.84454 -30.60612,5.90217 -1.16583,10.97434 35.19979,2.00122 36.23483,12.98479 0.67687,7.18279 -28.83428,7.23674 -21.81126,11.50924 8.43538,5.13172 43.06164,3.22782 49.25122,-9.79699 z"
     id="path15395"
     sodipodi:nodetypes="sssaass" /><path
     style="opacity:1;fill:#e02816;fill-opacity:1;stroke:none;stroke-width:2.3;stroke-linejoin:round;stroke-dasharray:none;stroke-opacity:1;stop-color:#000000"
     d="m 18.391913,274.65257 -4.691851,-25.02321 c -0.456034,-2.43218 -1.163689,-2.41517 -1.941816,-0.0682 -3.2983143,9.94809 -10.2192822,15.92852 -7.8556385,32.0778 1.6670416,11.38984 14.6962335,25.10156 26.0810585,24.40557 14.250991,-0.87121 25.757814,-10.04203 37.174866,-16.08105 2.02143,-1.06922 1.939388,-2.38664 -0.249465,-3.05013 -10.458221,-3.17011 -19.265689,-5.66508 -27.059921,-9.80847 7.065858,-5.43242 13.858788,-11.08319 18.050243,-18.81513 1.291027,-2.38155 -0.124637,-4.00997 -2.796725,-3.55146 -15.009132,2.57541 -32.161768,3.74929 -36.710751,19.91433 z"
     id="path13627"
     sodipodi:nodetypes="ccccccc" /><path
     style="opacity:1;fill:#c61910;fill-opacity:1;stroke:none;stroke-width:2.08916;stroke-linejoin:round;stroke-dasharray:none;stroke-opacity:1;stop-color:#000000"
     d="m 8.4144517,283.89225 c 0.1479859,-3.40313 5.6903973,-3.77055 8.7182433,-5.33109 7.108331,-3.66361 15.987274,-15.51533 22.069194,-9.40767 3.432034,3.44656 -4.132537,18.82213 5.674043,22.63675 5.391853,2.09733 -9.75522,8.10318 -15.477678,7.58682 -8.657731,-0.78122 -21.3614593,-6.80012 -20.9838023,-15.48481 z"
     id="path15397"
     sodipodi:nodetypes="aassaa" /><path
     style="opacity:1;fill:#e02816;fill-opacity:1;stroke:none;stroke-width:2.3;stroke-linejoin:round;stroke-dasharray:none;stroke-opacity:1;stop-color:#000000"
     d="m 157.10509,67.719841 c 2.36994,-0.122886 3.12167,1.120912 1.69717,3.020246 l -6.58058,8.774115 c -1.36307,1.817426 -0.78939,2.441717 1.44228,2.071259 4.3529,-0.722584 10.10459,-0.213466 16.26715,0.04432 2.28288,0.09549 3.05226,1.622511 1.71607,3.478322 l -3.92313,5.448794 17.08905,4.206534 c 3.21123,0.790457 3.43871,2.674034 0.48029,4.151999 -14.17432,7.08118 -27.94553,12.23307 -42.43896,3.19879 -1.6885,-1.0525 -2.70167,-0.45201 -2.37446,1.51126 l 1.47724,8.86342 c 0.41376,2.48258 -1.21203,3.9269 -3.58626,3.0925 -13.31066,-4.67786 -24.06257,-21.574134 -19.62514,-33.833539 4.63376,-12.801798 24.89983,-13.50467 38.35928,-14.02802 z"
     id="path13631"
     sodipodi:nodetypes="cccccccccssssac" /><path
     style="opacity:1;fill:#c61910;fill-opacity:1;stroke:none;stroke-width:2.3;stroke-linejoin:round;stroke-dasharray:none;stroke-opacity:1;stop-color:#000000"
     d="m 169.95493,99.51635 c -6.52176,5.88079 -26.15426,-9.265084 -35.11702,-3.927759 -3.0241,1.800852 0.20834,8.350299 -2.78461,8.559109 -7.55899,0.52736 -12.47386,-13.28047 -9.96628,-20.430889 2.31132,-6.590776 12.14148,-10.587001 18.93594,-8.969658 5.52722,1.315692 6.22973,9.66673 10.4646,13.454488 5.38098,4.812859 23.05661,7.176521 18.46737,11.314709 z"
     id="path14286"
     sodipodi:nodetypes="ssaaaas" /><path
     style="color:#000000;fill:#7c1604;stroke-linejoin:round;-inkscape-stroke:none;fill-opacity:1"
     d="m 113.02567,70.360427 -1.60111,2.65489 c 9.57494,11.07222 43.21777,22.60477 44.21709,21.21411 -0.45282,0.77886 -32.42598,-12.0694 -42.61598,-23.869 z"
     id="path13635"
     sodipodi:nodetypes="cccc" /><path
     style="color:#000000;fill:#7c1604;fill-opacity:1;stroke-width:1.6117;stroke-linejoin:round;-inkscape-stroke:none"
     d="m 126.28195,81.280026 2.73246,2.43668 c 4.59568,-2.942252 10.53837,-3.599374 16.02891,-5.023433 -6.42266,0.377521 -12.93601,0.494747 -18.76137,2.586753 z"
     id="path8831-8"
     sodipodi:nodetypes="cccc" /><path
     style="color:#000000;fill:#7c1604;stroke-width:1.18474;stroke-linejoin:round;-inkscape-stroke:none;fill-opacity:1"
     d="m 230.52229,220.65458 8.4423,-1.41216 c -11.7116,-13.66888 -60.06374,-23.95497 -61.81168,-22.04836 0.60115,-0.78573 38.90359,11.36172 53.36938,23.46052 z"
     id="path13797"
     sodipodi:nodetypes="cccc" /><path
     style="color:#000000;fill:#7c1604;fill-opacity:1;stroke-width:1.41203;stroke-linejoin:round;-inkscape-stroke:none"
     d="m 212.04985,204.7329 c -4.88747,8.30511 -13.74768,8.84507 -21.50232,11.54596 9.16507,-0.66014 18.75137,0.29084 26.62835,-5.29586 z"
     id="path14006"
     sodipodi:nodetypes="cccc" /><path
     style="color:#000000;fill:#7c1604;fill-opacity:1;stroke-width:1.05171;stroke-linejoin:round;-inkscape-stroke:none"
     d="m 200.72597,204.25026 c -1.61828,-6.00497 -9.20543,-9.83798 -15.13152,-14.27542 7.81563,4.01427 16.51669,7.41547 21.6248,13.30439 z"
     id="path14146"
     sodipodi:nodetypes="cccc" /><path
     style="color:#000000;fill:#7c1604;fill-opacity:1;stroke-width:1.18474;stroke-linejoin:round;-inkscape-stroke:none"
     d="m 12.09064,310.32838 -8.1562459,2.59659 C 8.1165393,295.41756 34.983136,272.66854 37.408589,273.56722 36.515092,273.14247 19.439979,292.96096 12.09064,310.32838 Z"
     id="path14148"
     sodipodi:nodetypes="cccc" /><path
     style="color:#000000;fill:#7c1604;fill-opacity:1;stroke-width:1.41203;stroke-linejoin:round;-inkscape-stroke:none"
     d="m 17.503024,290.86174 c 9.170181,2.96141 16.151806,-2.52054 23.742473,-5.65282 -7.289345,5.59463 -13.823332,12.67337 -23.422395,13.72979 z"
     id="path14150"
     sodipodi:nodetypes="cccc" /><path
     style="opacity:1;fill:#d43e02;fill-opacity:1;stroke:none;stroke-width:2.3;stroke-linejoin:round;stroke-dasharray:none;stroke-opacity:1;stop-color:#000000"
     d="m 7.6771593,188.29243 c -1.1064673,-1.26453 -4.254876,7.37467 7.2730987,17.77868 7.641041,6.89605 29.496454,-1.21217 29.496454,-1.21217 z"
     id="path18619"
     sodipodi:nodetypes="cscc" /><path
     style="opacity:1;fill:#8d3935;fill-opacity:1;stroke:none;stroke-width:2.3;stroke-linejoin:round;stroke-dasharray:none;stroke-opacity:1;stop-color:#000000"
     d="M 37.290208,206.15153 C 20.295985,207.0713 7.2663904,200.06182 -0.35179442,182.22951 4.7879858,180.2486 9.1024168,177.16722 16.886132,178.71156 2.1936649,168.49982 5.0211957,151.28008 3.5179442,135.79265 c 14.4461448,3.35513 33.6747288,-0.68078 38.6973858,17.23792 -2.619859,-9.08302 0.0714,-18.82993 4.925122,-28.84714 17.744935,7.57004 33.515214,26.56579 35.705762,45.79907 0.802202,7.04342 -8.969386,19.2829 -8.969386,19.2829 z"
     id="path15473"
     sodipodi:nodetypes="ccccccacc" /><path
     style="opacity:1;fill:#8d3935;fill-opacity:1;stroke:none;stroke-width:2.3;stroke-linejoin:round;stroke-dasharray:none;stroke-opacity:1;stop-color:#000000"
     d="m 87.245016,240.62738 c 0.596473,7.62729 1.428143,15.37218 -5.276916,19.3487 -0.226437,13.49591 5.069156,24.71805 20.75587,31.66149 1.57281,-7.76244 5.38397,-14.77876 1.75897,-24.27381 16.29981,10.02684 32.59962,15.60704 48.89943,20.05228 -2.90176,-15.0551 -10.16195,-28.07627 -27.08817,-36.58662 l 19.70048,-5.62871 c -16.49552,-12.55195 -35.69205,-15.45742 -58.749664,-4.57333 z"
     id="path15676"
     sodipodi:nodetypes="cccccccc" /><path
     style="opacity:1;fill:#8d3935;fill-opacity:1;stroke:none;stroke-width:2.3;stroke-linejoin:round;stroke-dasharray:none;stroke-opacity:1;stop-color:#000000"
     d="m 197.00487,312.39344 h 2.11077 c 19.09189,-9.21021 38.11866,-19.76367 58.74967,-24.9774 8.56385,-2.1642 16.91534,-5.68796 26.38458,-2.46256 8.72462,27.11952 -10.11223,35.86473 -28.84714,44.67789 l -1.75897,-11.25742 c -21.06478,14.75923 -38.12026,-1.21945 -56.63891,-5.98051 z"
     id="path15678"
     sodipodi:nodetypes="ccacccc" /><path
     style="opacity:1;fill:#8d3935;fill-opacity:1;stroke:none;stroke-width:2.3;stroke-linejoin:round;stroke-dasharray:none;stroke-opacity:1;stop-color:#000000"
     d="m 294.45193,234.64688 c 0,0 -5.67617,9.84428 -10.55383,11.96101 -9.11723,3.95655 -19.1119,12.56953 -20.05228,7.03589 -0.51665,-3.04021 4.94146,-13.94362 4.22153,-14.42357 -8.40863,4.35774 -15.65293,2.89383 -23.20832,2.98531 -1.9509,0.0236 -2.52609,-1.04819 -1.44253,-2.67082 4.72433,-7.07465 8.18426,-15.77497 18.67035,-15.44165 -10.13473,-1.39739 -14.33423,-7.03422 -19.05086,-12.30168 -2.00513,-2.2393 -1.13392,-2.67796 1.62701,-3.86674 10.40742,-4.48116 31.55408,6.49459 31.14383,7.72535 0,0 3.63793,-14.19397 6.3323,-14.07177 7.61438,0.34535 12.42968,11.04467 14.42357,18.6451 1.233,4.70003 -2.11077,14.42357 -2.11077,14.42357 z"
     id="path15680"
     sodipodi:nodetypes="csscccccsccac" /><path
     style="opacity:1;fill:#7c2d29;fill-opacity:1;stroke:none;stroke-width:1.94433;stroke-linejoin:round;stroke-dasharray:none;stroke-opacity:1;stop-color:#000000"
     d="m 292.29646,221.09612 c -0.72957,-3.29449 -3.15933,-7.54163 -6.52798,-7.73686 -3.64286,-0.21113 -4.40519,6.75652 -7.97863,7.49508 -3.02085,0.62435 -6.28125,-5.0525 -8.70397,-3.1431 -2.8659,2.25868 3.79541,8.30608 1.20888,10.87996 -1.94553,1.93602 -7.48796,-3.60564 -8.17912,-0.94941 -2.32021,8.91684 17.25629,14.65825 25.52808,10.59984 5.31645,-2.60842 5.93313,-11.36372 4.65274,-17.14551 z"
     id="path17008"
     sodipodi:nodetypes="aaaaaaaa" /><path
     style="color:#000000;fill:#542220;fill-opacity:1;stroke-width:1.18474;stroke-linejoin:round;-inkscape-stroke:none"
     d="m 69.936024,195.16806 2.10218,8.29744 C 54.81349,198.2397 25.275597,162.31619 26.318285,159.94906 c -0.47763,0.86639 26.722929,26.84013 43.617739,35.219 z"
     id="path15684"
     sodipodi:nodetypes="cccc" /><path
     style="color:#000000;fill:#542220;fill-opacity:1;stroke-width:2.43395;stroke-linejoin:round;-inkscape-stroke:none"
     d="m 48.274258,185.94102 -1.190709,-4.94772 c -9.003601,-0.5654 -17.516273,-4.76404 -26.193728,-7.74309 8.869477,4.90415 17.60003,10.17018 27.384437,12.69081 z"
     id="path15755"
     sodipodi:nodetypes="cccc" /><path
     style="color:#000000;fill:#542220;fill-opacity:1;stroke-width:2.14605;stroke-linejoin:round;-inkscape-stroke:none"
     d="M 54.737112,190.03764 50.452447,187.903 c 2.415209,-6.7574 1.23683,-14.07946 1.264728,-21.21198 1.728078,7.76383 3.843578,15.51777 3.019937,23.34662 z"
     id="path15895"
     sodipodi:nodetypes="cccc" /><path
     style="color:#000000;fill:#542220;fill-opacity:1;stroke-width:0.9416;stroke-linejoin:round;-inkscape-stroke:none"
     d="m 78.2346,246.6446 -4.616406,-5.41995 c 15.961755,0.68733 52.726506,20.64898 52.695096,22.47681 0.0903,-0.68546 -31.289359,-14.11639 -48.07869,-17.05686 z"
     id="path15897"
     sodipodi:nodetypes="cccc" /><path
     style="color:#000000;fill:#542220;fill-opacity:1;stroke-width:1.92441;stroke-linejoin:round;-inkscape-stroke:none"
     d="m 90.163356,248.94095 4.397976,-1.40089 c 1.592615,5.72904 6.246948,9.52265 9.873548,13.96592 -5.304443,-3.71805 -10.902788,-7.18354 -14.271524,-12.56503 z"
     id="path15899"
     sodipodi:nodetypes="cccc" /><path
     style="color:#000000;fill:#542220;fill-opacity:1;stroke-width:0.9416;stroke-linejoin:round;-inkscape-stroke:none"
     d="m 292.96789,263.42904 6.27929,-3.35523 c 4.63596,33.59297 -38.00845,49.5246 -41.28224,45.99053 2.90424,1.95779 40.80704,-17.48676 35.00295,-42.6353 z"
     id="path15901"
     sodipodi:nodetypes="cccc" /><path
     style="opacity:1;fill:#5e1916;fill-opacity:0.360294;stroke:none;stroke-width:2.02225;stroke-linejoin:round;stroke-dasharray:none;stroke-opacity:1;stop-color:#000000"
     d="m 66.00689,184.91428 c 6.745995,-9.49166 10.587595,-28.93793 0.602273,-34.92904 -8.41992,-5.05187 -15.943704,14.83207 -25.748941,14.30877 -11.870156,-0.63351 -19.635196,-27.66585 -29.150729,-20.54148 -6.6412295,4.97235 4.200829,16.19793 8.027528,23.55908 3.541822,6.81315 16.289098,11.42382 13.579201,18.60853 -4.391656,11.64353 -21.164571,-1.61139 -21.921842,0.62169 -2.3686581,6.98481 11.563474,10.78334 18.904241,11.49839 12.621705,1.22945 28.361697,-2.78926 35.708269,-13.12594 z"
     id="path16051"
     sodipodi:nodetypes="aaaaassaa" /><path
     style="opacity:1;fill:#f66700;fill-opacity:1;stroke:none;stroke-width:2.3;stroke-linejoin:round;stroke-dasharray:none;stroke-opacity:1;stop-color:#000000"
     d="m 28.284271,213.34422 c 5.347358,-6.76505 5.72942,-14.94877 17.778685,-19.79899 l 4.848732,1.21218 4.04061,-8.88934 30.708638,5.65685 z"
     id="path18617"
     sodipodi:nodetypes="cccccc" /><path
     style="opacity:1;fill:#5e1916;fill-opacity:0.360294;stroke:none;stroke-width:2.2044;stroke-linejoin:round;stroke-dasharray:none;stroke-opacity:1;stop-color:#000000"
     d="m 97.615857,245.91852 c 5.259783,-5.10973 14.024113,-11.23893 20.063563,-7.28048 3.87237,2.53808 0.20897,10.15923 2.22929,14.56096 3.28893,7.1657 18.88467,10.43759 15.23344,17.39227 -5.67943,10.81794 -24.57028,-16.37023 -33.43927,-8.4939 -3.552062,3.15449 4.60956,13.06328 0.37155,14.96544 -5.346022,2.39946 -10.968963,-7.53732 -11.889521,-13.75203 -0.935013,-6.31229 3.048768,-13.1351 7.430948,-17.39226 z"
     id="path16431"
     sodipodi:nodetypes="aaaaaaaa" /><path
     style="opacity:1;fill:#5e1916;fill-opacity:0.360294;stroke:none;stroke-width:2.06438;stroke-linejoin:round;stroke-dasharray:none;stroke-opacity:1;stop-color:#000000"
     d="m 279.48964,293.76266 c -8.83636,-5.02632 -20.01814,6.30317 -29.93088,10.10119 -10.26985,3.93484 -41.59818,4.31171 -37.21135,6.51689 27.35069,13.74871 40.29514,3.24772 46.51419,5.21352 2.18999,0.69224 -1.89079,6.12202 0.80894,6.84274 8.97046,2.39478 15.37175,-9.91767 19.01015,-16.94393 1.87158,-3.61428 4.77998,-9.47161 0.80895,-11.73041 z"
     id="path16433"
     sodipodi:nodetypes="asssaaa" /><path
     style="color:#000000;fill:#542220;stroke-width:0.769036;stroke-linejoin:round;-inkscape-stroke:none;fill-opacity:1"
     d="m 300.84491,239.74665 5.25518,-1.01138 c -6.53057,-9.32165 -35.73574,-16.13838 -36.90227,-14.82122 0.4075,-0.54222 23.34815,7.6022 31.64709,15.8326 z"
     id="path16523"
     sodipodi:nodetypes="cccc" /><g
     id="g18615"><path
       style="opacity:1;fill:#f7a11a;fill-opacity:1;stroke-width:3.1;stroke-linejoin:round;stroke-opacity:0.68435;stop-color:#000000"
       d="m 107.11711,170.84481 c -13.735953,4.19301 -26.090944,10.75309 -33.550202,25.70618 -0.69948,1.4022 -1.682798,1.39785 -2.281114,-0.0506 l -4.814786,-11.65613 c -1.345284,-3.25681 -3.214301,-3.13366 -4.660549,0.0753 -3.225322,7.15637 -7.320639,13.66031 -3.553125,26.06129 1.205175,3.9669 5.71928,8.56327 9.689996,9.75044 15.151275,4.52993 30.302178,0.20461 45.4535,-3.50969 2.28481,-0.56011 2.44501,-1.86341 0.35149,-2.93707 l -9.98265,-5.11957 c -1.50268,-0.77064 -1.63516,-2.86768 -0.24141,-3.82131 l 18.42065,-12.60376 c 1.10665,-0.75719 0.60376,-2.4878 -0.73635,-2.534 l -18.19133,-0.62709 c -1.38144,-0.0476 -2.22445,-1.53846 -1.55321,-2.7468 l 7.55225,-13.59512 c 1.07396,-1.93328 0.21196,-3.03769 -1.90316,-2.39203 z"
       id="path13617" /><path
       style="opacity:1;fill:#f16700;fill-opacity:0.387255;stroke:none;stroke-width:1.5;stroke-linejoin:round;stroke-dasharray:none;stroke-opacity:1;stop-color:#000000"
       d="m 59.77071,209.91244 c -1.159423,-4.34457 0.586898,-11.18854 4.861732,-12.5833 3.016644,-0.98425 4.84456,5.40132 8.007559,5.14771 8.213479,-0.65856 14.639368,-19.78238 18.302993,-16.58708 2.09032,1.82311 -4.357872,5.7936 0.571969,9.43748 4.081017,3.01647 16.682097,-4.57659 18.874957,0 1.56507,3.26637 -18.188395,5.55582 -19.160942,13.44126 -0.323586,2.62365 10.687672,2.02579 9.437482,5.43369 -1.640377,4.47152 -19.144847,5.37765 -28.884411,5.43371 -5.595106,0.0322 -10.683124,-4.7464 -12.011339,-9.72347 z"
       id="path8841"
       sodipodi:nodetypes="aasssssssa" /><path
       style="color:#000000;fill:#9d3d05;stroke-linejoin:round"
       d="m 41.376953,222.96094 1.341797,2.79492 c 14.509816,-1.93356 42.60498,-23.73955 41.990234,-25.33789 0.402912,0.80582 -27.876652,20.49406 -43.332031,22.54297 z"
       id="path7407"
       sodipodi:nodetypes="cccc" /><path
       style="color:#000000;fill:#9d3d05;stroke-linejoin:round"
       d="m 72.044922,209.78516 -1.205054,1.67606 c 6.989137,0.8471 13.645333,-0.63639 20.421849,-1.27763 -6.405598,0.12096 -12.811197,0.98414 -19.216795,-0.39843 z"
       id="path8829"
       sodipodi:nodetypes="cccc" /><path
       style="color:#000000;fill:#9d3d05;stroke-linejoin:round"
       d="m 76.174681,207.16808 1.985475,-1.10363 c -0.785837,-3.29331 0.04224,-6.90941 0.328565,-10.41715 -1.089831,3.84026 -2.350695,7.68052 -2.31404,11.52078 z"
       id="path8831"
       sodipodi:nodetypes="cccc" /></g><path
     id="path19538"
     style="opacity:1;fill:#363636;fill-opacity:1;stroke:none;stroke-width:22.7;stroke-linecap:round;stroke-linejoin:round;stroke-dasharray:none;stroke-opacity:1;stop-color:#000000"
     d="M 241.51367 112.87891 A 11.35 11.35 0 0 0 238.0293 113.4707 C 238.0148 113.47557 238.0008 113.48141 237.98633 113.48633 A 11.35 11.35 0 0 0 234.92578 115.08789 C 234.88688 115.11651 234.84907 115.14668 234.81055 115.17578 A 11.35 11.35 0 0 0 232.44141 117.59961 C 232.41195 117.64041 232.38048 117.6795 232.35156 117.7207 A 11.35 11.35 0 0 0 230.81445 120.82422 C 230.81172 120.8329 230.8074 120.84092 230.80469 120.84961 A 11.35 11.35 0 0 0 230.28906 124.35352 A 11.35 11.35 0 0 0 230.64062 126.42969 C 230.12747 119.76762 240.89364 118.30569 246.73438 117.33984 C 258.72474 115.35708 272.06999 117.42891 282.95703 123.87109 C 282.88233 123.79582 282.81135 123.70878 282.73633 123.63477 C 282.21252 123.11801 281.68068 122.63145 281.14258 122.17383 C 280.60447 121.71621 280.06019 121.28746 279.50977 120.88477 C 278.95934 120.48207 278.40258 120.10589 277.8418 119.75391 C 277.28101 119.40192 276.71566 119.07502 276.14648 118.76953 C 273.30061 117.24208 270.36124 116.26927 267.45312 115.58789 C 266.28988 115.31534 265.13199 115.08879 263.98633 114.89258 C 262.84066 114.69637 261.70805 114.53055 260.5957 114.37695 C 259.48335 114.22336 258.39143 114.08222 257.32812 113.9375 C 255.20153 113.64807 253.14892 113.43671 251.26758 113.2832 C 249.38624 113.12969 247.67562 113.03457 246.23047 112.97461 C 243.34016 112.85468 241.51367 112.87891 241.51367 112.87891 z M 230.83398 127.56641 A 11.35 11.35 0 0 0 230.86133 127.72266 C 230.88468 127.79384 230.901 127.86674 230.92578 127.9375 C 230.88811 127.8108 230.8645 127.68991 230.83398 127.56641 z " /></svg>
