<?xml version="1.0" encoding="UTF-8" standalone="no"?>
<!-- Created with Inkscape (http://www.inkscape.org/) -->

<svg
   width="300"
   height="345"
   viewBox="0 0 79.374998 91.28125"
   version="1.1"
   id="svg1"
   inkscape:export-filename="cheese.svg"
   inkscape:export-xdpi="96"
   inkscape:export-ydpi="96"
   xmlns:inkscape="http://www.inkscape.org/namespaces/inkscape"
   xmlns:sodipodi="http://sodipodi.sourceforge.net/DTD/sodipodi-0.dtd"
   xmlns:xlink="http://www.w3.org/1999/xlink"
   xmlns="http://www.w3.org/2000/svg"
   xmlns:svg="http://www.w3.org/2000/svg"
   xmlns:serif="http://www.serif.com/">
  <sodipodi:namedview
     id="namedview1"
     pagecolor="#505050"
     bordercolor="#ffffff"
     borderopacity="1"
     inkscape:showpageshadow="0"
     inkscape:pageopacity="0"
     inkscape:pagecheckerboard="1"
     inkscape:deskcolor="#505050"
     inkscape:document-units="px">
    <inkscape:page
       x="0"
       y="0"
       width="79.375"
       height="91.28125"
       id="page2"
       margin="0"
       bleed="0" />
  </sodipodi:namedview>
  <defs
     id="defs1">
    <linearGradient
       id="linearGradient4"
       x1="150"
       y1="356.10999"
       x2="150"
       y2="161.16"
       gradientUnits="userSpaceOnUse">
      <stop
         offset="0"
         stop-color="#573321"
         id="stop3"
         style="stop-color:#ffcd10;stop-opacity:1;" />
      <stop
         offset="0.60832083"
         stop-color="#7d4f33"
         id="stop4"
         style="stop-color:#88b83b;stop-opacity:1;" />
    </linearGradient>
    <linearGradient
       inkscape:collect="always"
       xlink:href="#_Linear2"
       id="linearGradient8"
       gradientUnits="userSpaceOnUse"
       gradientTransform="matrix(-2.5059,-23.5892,23.1805,-2.46248,54.3736,86.1405)"
       x1="0"
       y1="0"
       x2="1"
       y2="0" />
    <linearGradient
       id="_Linear2"
       x1="0"
       y1="0"
       x2="1"
       y2="0"
       gradientUnits="userSpaceOnUse"
       gradientTransform="matrix(-2.5059,-23.5892,23.1805,-2.46248,54.3736,86.1405)">
      <stop
         offset="0"
         style="stop-color:#ffe000;stop-opacity:1"
         id="stop3-3" />
      <stop
         offset="1"
         style="stop-color:#7bb441;stop-opacity:1"
         id="stop4-9" />
    </linearGradient>
    <linearGradient
       inkscape:collect="always"
       xlink:href="#linearGradient4"
       id="linearGradient1"
       gradientUnits="userSpaceOnUse"
       x1="43.951038"
       y1="83.850357"
       x2="44.647545"
       y2="60.183659" />
  </defs>
  <g
     inkscape:label="Layer 1"
     inkscape:groupmode="layer"
     id="layer1">
    <g
       id="g8"
       transform="matrix(0.26458333,0,0,0.26458333,0,0.23098125)"
       style="clip-rule:evenodd;fill-rule:evenodd;stroke-linejoin:round;stroke-miterlimit:2">
      <path
         id="path44-9"
         serif:id="5"
         d="m 300,165.054 v 36.581 c -0.423,5.379 -1.819,9.785 -3.71,13.696 2.007,3.575 2.99,7.735 3.71,12.045 v 80.371 c 0,19.958 -16.423,36.38 -36.38,36.38 H 36.38 C 16.423,344.127 0,327.705 0,307.747 V 240.675 C 2.2187648,188.56643 -1.7980948,158.45452 12.09807,120.75966 14.877,113.22151 22.665,106.268 25.823,100.947 c 2.148,-3.618 5.167,-5.856 6.443,-9.085 3.339,-8.458 3.75,-15.367 2.115,-22.625 -0.506,-2.246 -0.998,-3.484 -1.48,-3.982 C 31.285,63.59 28.855,62.37 27.474,62.577 25.828,62.824 24.9,62.835 24.049,62.57 20.771,61.551 19.185,60.561 18.708,59.046 16.243,51.232 13.747,45.076 13.422,40.16 c -0.444,-6.705 5.767,-8.471 12.664,-10.407 7.546,-2.117 15.2,-4.891 21.309,-7.819 6.013,-2.881 12.189,-1.105 14.536,0.441 7.688,5.061 13.936,9.133 20.539,14.426 5.087,4.079 4.487,10.084 3.854,14.482 -0.477,3.317 -1.518,8.674 -2.588,11.618 -1.795,4.938 -6.771,5.473 -12.444,6.387 -1.652,0.266 -2.184,0.867 -2.258,1.927 -0.216,3.117 -0.113,6.5 0.551,10.352 8.349,2.873 14.686,7.882 18.336,15.748 13.808,9.257 12.886,22.254 18.918,36.652 9.01,15.75 35.295,22.737 59.552,16.535 25.053,-6.405 41.826,-17.221 50.647,-37.614 6.032,-13.945 10.33,-19.256 19.776,-20.885 -0.006,-0.809 0.181,-1.518 0.397,-1.93 0.415,-0.793 1.102,-0.924 1.894,-0.758 2.287,0.478 4.501,0.009 5.251,-0.018 2.429,-0.086 3.699,-0.01 5.773,1.046 1.254,0.639 2.302,1.311 3.176,1.732 0.654,0.316 1.299,0.887 1.281,1.696 -0.011,0.522 -0.06,0.894 -0.12,1.224 12.062,5.468 19.608,16.144 23.227,31.523 0.433,0.214 0.965,0.561 1.579,1.015 1.72,1.274 2.636,2.146 3.946,2.255 1.892,0.158 2.59,1.318 2.566,2.51 -0.023,1.166 -0.107,2.072 -0.431,2.637 9.576,7.861 13.297,18.439 14.647,30.119 z"
         style="fill:#febb15"
         sodipodi:nodetypes="ccccsssscaccccccccccccccccccccccccccccccccccc" />
      <path
         id="path45-5"
         serif:id="4"
         d="m 300,165.054 v 36.581 c -0.423,5.379 -1.819,9.785 -3.71,13.696 2.007,3.575 2.99,7.735 3.71,12.045 v 42.84 c 0,19.958 -16.423,36.38 -36.38,36.38 H 36.38 C 16.423,306.596 0,290.174 0,270.216 V 240.675 C 0.25228632,193.90787 0.39912776,162.57259 10.526552,125.30931 13.712491,113.58683 28.329669,94.144451 32.266,91.862 35.605,83.404 36.016,76.495 34.381,69.237 33.875,66.991 33.383,65.753 32.901,65.255 31.285,63.59 28.855,62.37 27.474,62.577 25.828,62.824 24.9,62.835 24.049,62.57 20.771,61.551 19.185,60.561 18.708,59.046 16.243,51.232 13.747,45.076 13.422,40.16 c -0.444,-6.705 5.767,-8.471 12.664,-10.407 7.546,-2.117 15.2,-4.891 21.309,-7.819 6.013,-2.881 12.189,-1.105 14.536,0.441 7.688,5.061 13.936,9.133 20.539,14.426 5.087,4.079 4.487,10.084 3.854,14.482 -0.477,3.317 -1.518,8.674 -2.588,11.618 -1.795,4.938 -6.771,5.473 -12.444,6.387 -1.652,0.266 -2.184,0.867 -2.258,1.927 -0.216,3.117 -0.113,6.5 0.551,10.352 8.349,2.873 14.686,7.882 18.336,15.748 13.808,9.257 12.886,22.254 18.918,36.652 9.01,15.75 35.295,22.737 59.552,16.535 25.053,-6.405 41.826,-17.221 50.647,-37.614 6.032,-13.945 10.33,-19.256 19.776,-20.885 -0.006,-0.809 0.181,-1.518 0.397,-1.93 0.415,-0.793 1.102,-0.924 1.894,-0.758 2.287,0.478 4.501,0.009 5.251,-0.018 2.429,-0.086 3.699,-0.01 5.773,1.046 1.254,0.639 2.302,1.311 3.176,1.732 0.654,0.316 1.299,0.887 1.281,1.696 -0.011,0.522 -0.06,0.894 -0.12,1.224 12.062,5.468 19.608,16.144 23.227,31.523 0.433,0.214 0.965,0.561 1.579,1.015 1.72,1.274 2.636,2.146 3.946,2.255 1.892,0.158 2.59,1.318 2.566,2.51 -0.023,1.166 -0.107,2.072 -0.431,2.637 9.576,7.861 13.297,18.439 14.647,30.119 z"
         style="fill:#ffcd10"
         sodipodi:nodetypes="ccccsssscscccccccccccccccccccccccccccccccccc" />
      <path
         id="path46-3"
         serif:id="Stem Gradient 1"
         d="M 69.585,81.567 C 77.934,84.44 30.99,95.091 32.266,91.862 35.605,83.404 36.016,76.495 34.381,69.237 33.875,66.991 33.383,65.753 32.901,65.255 31.285,63.59 28.855,62.37 27.474,62.577 25.828,62.824 24.9,62.835 24.049,62.57 20.771,61.551 19.185,60.561 18.708,59.046 16.243,51.232 13.747,45.076 13.422,40.16 c -0.444,-6.705 5.767,-8.471 12.664,-10.407 7.546,-2.117 15.2,-4.891 21.309,-7.819 6.013,-2.881 12.189,-1.105 14.536,0.441 7.688,5.061 13.936,9.133 20.539,14.426 5.087,4.079 4.487,10.084 3.854,14.482 -0.477,3.317 -1.518,8.674 -2.588,11.618 -1.795,4.938 -6.771,5.473 -12.444,6.387 -1.652,0.266 -2.184,0.867 -2.258,1.927 -0.216,3.117 -0.113,6.5 0.551,10.352 z"
         style="fill:url(#linearGradient1)" />
      <path
         id="path47-3"
         serif:id="3"
         d="m 69.021,76.85 c 0.097,1.496 0.279,3.063 0.564,4.717 8.349,2.873 15.715245,7.196175 21.079624,13.61407 8.983493,10.74777 10.142376,24.38793 16.174376,38.78593 9.01,15.75 35.295,22.737 59.552,16.535 25.053,-6.405 41.826,-17.221 50.647,-37.614 6.032,-13.945 10.33,-19.256 19.776,-20.885 -0.006,-0.809 0.181,-1.518 0.397,-1.93 0.415,-0.793 1.102,-0.924 1.894,-0.758 2.287,0.478 4.501,0.009 5.251,-0.018 2.429,-0.086 3.699,-0.01 5.773,1.046 1.254,0.639 2.302,1.311 3.176,1.732 0.625,0.301 1.24,0.836 1.279,1.588 l -0.083,-0.005 c -6.772,-3.131 -11.424,0.721 -13,8.536 -1.754,8.701 -1.895,19.389 -0.939,30.854 0.753,9.031 -0.571,17.229 -4.386,25.138 3.159,-3.826 6.226,-8.771 8.771,-12.765 9.81,-15.394 22.684,-18.146 37.315,-13.653 -7.065,-1.649 -13.156,9.351 -14.483,15.697 -1.434,6.86 -1.941,21.172 -4.84,31.618 -4.625,16.67 -17.17,30.04 -44.737,43.77 -14.679,7.31 -37.572,6.182 -54.051,4.306 -8.405,-0.956 -34.01,-4.1 -53.243,-16.421 4.509,7.329 11.329,14.696 21.421,19.989 20.441,10.722 39.683,13.49 69.47,10.829 14.654,-1.309 30.367,-8.762 38.911,-21.199 3.921,-5.707 7.762,-9.526 11.746,-12.664 11.584,-9.122 22.786,-9.326 33.681,-2.359 -6.207,2.538 -11.726,8.251 -15.352,18.731 -11.404,32.964 -28.403,50.743 -56.568,62.805 -19.589,8.39 -43.715,10.383 -64.217,8.389 C 104.72,290.854 66.726,273.833 43.439,240.412 23.888,212.353 22.863,170.192 32.685,139.429 c 3.979,-12.467 10.575,-22.01 18.067,-30.328 4.609,-5.117 6.548,-8.567 6.56,-14.948 0.009,-4.895 -0.02,-10.961 0.091,-17.303 z"
         style="fill:#ffe000"
         sodipodi:nodetypes="ccaccccccccscccscccccccccccccccccccccc" />
      <path
         style="fill:#ffe000"
         d="m 236.176,158.186 c 3.159,-3.826 6.226,-8.771 8.771,-12.765 9.81,-15.394 22.684,-18.146 37.315,-13.653 -7.065,-1.649 -13.156,9.351 -14.483,15.697 -1.434,6.86 -1.941,21.172 -4.84,31.618 -4.625,16.67 -17.17,30.04 -44.737,43.77 -14.679,7.31 -37.572,6.182 -54.051,4.306 -8.405,-0.956 -34.01,-4.1 -53.243,-16.421 -8.863,-16.782 -11.678,-32.709 -14.889,-60.806 -3.651,-31.945 -19.535,-39.798 -20.926,-42.235 -4.968,-8.71 -5.21,-17.42 -5.508,-26.13 0.447,5.125 3.378,9.825 6.778,10.898 3.853,1.216 7.705,2.76 11.558,4.85 13.808,9.257 12.886,22.254 18.918,36.652 5.479,19.571 10.354,32.575 24.469,40.539 22.202,12.526 41.923,14.472 72.311,5.119 15.29,-4.706 24.854,-11.764 32.557,-21.439 z"
         id="path48-3" />
      <path
         id="path49-8"
         serif:id="1"
         d="m 110.908,210.738 c 4.509,7.329 11.329,14.696 21.421,19.989 20.441,10.722 39.683,13.49 69.47,10.829 14.654,-1.309 30.367,-8.762 38.911,-21.199 3.921,-5.707 7.762,-9.526 11.746,-12.664 11.584,-9.122 22.786,-9.326 33.681,-2.359 -6.207,2.538 -11.726,8.251 -15.352,18.731 -11.404,32.964 -28.403,50.743 -56.568,62.805 -19.589,8.39 -43.715,10.383 -64.217,8.389 C 104.72,290.854 66.726,273.833 43.439,240.412 23.888,212.353 22.863,170.192 32.685,139.429 c 3.979,-12.467 10.575,-22.01 18.067,-30.328 4.609,-5.117 6.548,-8.567 6.56,-14.948 0.009,-4.895 -0.02,-10.961 0.091,-17.303 h 11.618 c 0.097,1.496 0.279,3.063 0.564,4.717 0.298,8.71 0.54,17.42 5.508,26.13 1.391,2.437 17.275,10.29 20.926,42.235 3.211,28.097 6.026,44.024 14.889,60.806 z"
         style="fill:#ffe000"
         sodipodi:nodetypes="ccccccccccccccccccc" />
      <path
         style="fill:#ffcf00"
         d="m 211.754,162.492 c -2.229,-2.69 0.51,-6.618 4.18,-10.307 5.322,-5.35 8.568,-5.952 11.01,-3.607 2.202,2.115 -0.272,7.147 -4.769,10.879 -4.775,3.963 -8.749,5.053 -10.421,3.035 z"
         id="path50-5" />
      <path
         style="fill:#ffcf00"
         d="m 219.77,166.672 c 1.997,-1.518 3.532,-1.984 3.894,-1.317 0.407,0.751 0.183,1.907 -2.004,3.664 -1.929,1.55 -3.759,1.979 -4.123,1.203 -0.444,-0.946 0.386,-2.146 2.233,-3.55 z"
         id="path51-8" />
      <path
         style="fill:#ffcf00;stroke-width:1.43316"
         d="m 137.23346,201.22478 c -1.6682,0.73808 -4.27225,1.04477 -6.3188,-2.05085 -1.6854,-2.55103 -2.10675,-5.18805 -0.40989,-5.99062 1.55498,-0.73807 3.42239,1.00895 5.41592,3.77495 1.08203,1.50195 2.61265,3.69182 1.31277,4.26652 z"
         id="path52-9" />
      <path
         style="fill:#ffcf00;stroke-width:1.43316"
         d="m 123.69296,208.69298 c -2.30309,2.85629 -10.71575,0.55607 -13.0475,-3.93976 -2.17124,-4.18626 -5.54203,-11.03104 -2.70867,-14.19689 2.15977,-2.41058 8.19051,1.74559 13.45881,5.90892 3.3063,3.75775 6.03648,7.58859 2.29736,12.22773 z"
         id="path53-6" />
      <path
         style="fill:#ffcf00"
         d="m 219.776,248.727 c -1.152,-1.084 1.569,-2.838 2.703,-3.39 1.527,-0.742 3.399,-0.987 4.26,0.046 0.84,1.008 -1.087,3.13 -2.519,3.711 -1.392,0.564 -3.65,0.38 -4.444,-0.367 z"
         id="path54-0" />
      <path
         style="fill:#ffcf00"
         d="m 204.248,258.301 c -0.397,-1.624 2.417,-3.876 5.542,-4.856 2.472,-0.774 7.592,-0.501 7.788,1.42 0.235,2.321 -2.381,4.546 -6.184,5.268 -4.392,0.834 -6.664,0.144 -7.146,-1.832 z"
         id="path55-4" />
      <path
         style="fill:#ffcf00;stroke-width:1.50302"
         d="m 85.164024,134.39853 c -2.398825,0.0511 -6.055681,-1.494 -7.572231,-5.50858 -1.484987,-3.92439 -1.384285,-8.09979 0.601209,-8.77765 1.289594,-0.44039 3.644831,2.10423 7.229542,8.08927 1.295606,2.16435 1.366248,6.16239 -0.25852,6.19696 z"
         id="path56-2" />
      <path
         style="fill:#ffcf00;stroke-width:1.50302"
         d="m 83.149441,163.83224 c -3.780103,-0.36674 -5.344751,-4.51508 -5.335732,-9.20903 0.009,-4.44293 2.589709,-11.72809 4.647347,-11.61837 3.736516,0.1984 5.55818,5.02161 6.541158,11.87689 0.431367,3.01958 -2.051627,9.31725 -5.852773,8.95051 z"
         id="path57-3" />
      <path
         style="fill:#febb15;stroke-width:2.15686"
         d="m 277.17503,264.95424 c 3.16412,-0.11 5.95941,5.11393 8.5951,12.64569 1.61549,4.61784 1.35667,12.00079 -3.45745,12.54863 -4.48412,0.51118 -7.80138,-5.46333 -8.2004,-11.16392 -0.41843,-5.97236 0.0367,-13.92471 3.06275,-14.0304 z"
         id="path58-3" />
      <path
         style="fill:#febb15;stroke-width:2.15686"
         d="m 285.86934,257.84091 c -2.55804,0.87137 -4.71921,-0.69667 -5.63156,-3.55667 -1.26608,-3.9751 -0.80883,-5.84078 0.29549,-6.91706 1.11941,-1.08706 3.66882,1.26393 5.92921,4.44745 1.61118,2.26902 1.48392,5.31883 -0.59314,6.02628 z"
         id="path59-7" />
      <path
         style="fill:#febb15;stroke-width:1.71209"
         d="m 58.47465,289.9205 c -2.439722,2.36097 -6.007709,1.23271 -8.235132,-2.3524 -2.138395,-3.44643 -3.321446,-6.24569 -1.371381,-8.16665 1.564846,-1.5443 4.646601,-0.97589 8.135831,2.28392 3.064634,2.86261 4.158656,5.63448 1.470682,8.23513 z"
         id="path60-0" />
      <path
         style="fill:#febb15;stroke-width:1.71209"
         d="m 38.183011,291.39118 c -5.91012,5.35883 -14.018558,2.46198 -18.235425,-7.2541 -3.734059,-8.60666 -4.641464,-16.04567 -0.979313,-18.62578 3.384793,-2.38836 10.596098,0.86803 17.612226,9.50892 4.846914,5.96833 7.195896,11.29806 1.602512,16.37096 z"
         id="path61-0" />
      <path
         id="path62-10"
         serif:id="Shadow 1"
         d="m 277.693,126.518 c 0.433,0.214 1.311,4.333 -0.283,4.019 -12.627,-2.486 -23.753,1.216 -32.463,14.884 -2.545,3.994 -5.612,8.939 -8.771,12.765 -7.703,9.675 -17.267,16.733 -32.557,21.439 -30.388,9.353 -50.109,7.407 -72.311,-5.119 -14.115,-7.964 -18.99,-20.968 -24.469,-40.539 3.966,6.933 11.28,12.168 20.294,15.328 -9.156,-3.178 -8.827,7.027 -3.124,12.78 8.564,8.639 26.596,20.541 53.242,18.174 30.195,-2.682 50.936,-13.987 65.528,-39.419 7.74,-13.491 20.326,-16.236 34.797,-14.8 z"
         style="fill:#dc9e00;fill-opacity:0.25"
         sodipodi:nodetypes="ccccccccccccc" />
      <path
         id="path63-3"
         serif:id="Shadow 2"
         d="m 298.855,208.452 c -0.658,2.49 -1.539,4.757 -2.565,6.879 -2.524,-4.131 -5.959,-7.416 -10.153,-9.997 -10.895,-6.967 -22.097,-6.763 -33.681,2.359 -3.984,3.138 -7.825,6.957 -11.746,12.664 -8.544,12.437 -24.257,19.89 -38.911,21.199 -29.787,2.661 -49.029,-0.107 -69.47,-10.829 -10.092,-5.293 -16.912,-12.66 -21.421,-19.989 -8.863,-16.782 -11.678,-32.709 -14.889,-60.806 -3.651,-31.945 -19.535,-39.798 -20.926,-42.235 -4.968,-8.71 -5.21,-17.42 -5.508,-26.13 0.458,0.157 0.911,0.322 1.357,0.492 0.253,1.666 0.524,3.468 0.666,4.573 1.054,8.18 1.639,11.387 3.058,14.743 1.179,2.788 5.222,5.213 7.508,6.826 7.641,5.393 14.784,18.263 17.423,29.846 2.64,11.586 6.016,38.143 10.478,52.21 6.812,21.473 15.662,32.534 39.925,39.796 40.206,12.033 72.763,3.278 85.346,-17.553 10.513,-17.403 27.734,-22.108 42.981,-18.156 11.102,2.877 17.43,7.8 20.528,14.108 z"
         style="fill:#dc9e00;fill-opacity:0.25" />
      <path
         style="fill:#b56938;stroke-width:1.29683"
         d="m 235.31558,94.464418 c -0.84165,-1.054323 -1.42522,-1.953027 -1.30332,-3.270607 0.0635,-0.68732 0.21917,-1.552306 0.54597,-2.181269 0.6108,-1.174929 1.54841,-1.21513 2.66498,-0.968733 2.13459,0.469453 4.22119,0.298271 6.0588,-0.03112 3.14092,-0.561527 5.34035,-0.02853 7.54236,1.029684 1.75202,0.84294 3.53387,1.872623 5.2392,2.786889 1.24496,0.667868 1.60288,1.479684 1.27219,3.120175 -0.26326,1.309799 -0.59395,2.191644 -2.02954,2.181269 -1.71311,-0.01297 -5.03041,0.02723 -7.84453,0.60562 -2.76484,0.566715 -5.34164,0.714554 -7.42176,-0.333286 -1.87781,-0.946686 -3.6817,-1.631413 -4.72435,-2.938618 z"
         id="path79-0" />
      <path
         style="fill:#b56938;stroke-width:1.24714"
         d="m 268.19998,135.30634 c -1.1748,-0.47641 -1.2409,-0.82311 -1.27457,-2.47681 -0.0237,-1.15236 0.0237,-2.45063 0.0362,-3.67656 0.0137,-1.34067 0.40656,-2.05902 2.07523,-2.3309 1.22968,-0.20079 2.85844,-0.55248 4.62438,-1.16482 1.84951,-0.64228 3.54312,-1.13739 5.13446,0.32799 1.00769,0.92787 4.74161,3.04925 6.66345,3.49448 1.52275,0.35419 2.51547,1.27831 2.47557,3.13156 -0.0162,0.73955 0.0636,1.57139 0.0561,2.03907 -0.015,0.96278 -0.64727,1.81707 -2.13136,1.6749 -0.95156,-0.091 -2.17999,0.0561 -3.71397,0.61983 -0.85803,0.31427 -1.92308,0.27437 -4.15172,0.25441 -1.29203,-0.0112 -3.98335,0.1297 -5.67945,-0.36416 -1.55643,-0.45271 -2.82227,-1.00644 -4.11431,-1.52899 z"
         id="path78-0" />
      <path
         style="fill:#b56938;stroke-width:1.2887"
         d="m 271.7358,207.03012 c -0.89307,-0.99746 -1.47299,-2.3738 -1.37376,-3.48981 0.0735,-0.81833 0.0889,-1.61346 0.1031,-2.6238 0.0193,-1.31963 -0.0735,-1.92404 1.63665,-2.43565 1.35443,-0.40594 3.00397,-0.43043 4.5633,-0.93173 1.81578,-0.58508 3.08774,-0.12114 4.66511,1.20364 1.13406,0.95364 7.06725,3.49626 9.45264,3.90349 1.39051,0.23841 2.79133,1.71655 2.68179,3.4331 -0.0773,1.19721 0.43816,1.92017 0.65852,2.39957 0.47296,1.03225 0.076,2.1895 -1.17658,3.76172 -1.52454,1.91373 -2.86608,2.03358 -8.70004,1.88151 -1.4369,-0.0374 -2.25652,-0.28867 -4.75016,-1.31706 -3.23464,-1.3338 -4.42154,-2.04903 -7.76057,-5.78498 z"
         id="path64-3" />
      <path
         style="fill:#a1592a;stroke-width:1.29683"
         d="m 257.40838,93.425657 c 0.0778,0.416282 0.0506,0.912968 -0.0726,1.523776 -0.26326,1.309799 -0.59395,2.191644 -2.02954,2.181269 -1.71311,-0.01297 -5.03041,0.02723 -7.84453,0.60562 -2.76484,0.566715 -5.34164,0.714554 -7.42176,-0.333286 -1.87781,-0.946686 -3.6817,-1.631413 -4.72435,-2.938618 -0.84165,-1.054323 -1.42522,-1.953027 -1.30332,-3.270607 0.0635,-0.68732 0.21917,-1.552306 0.54597,-2.181269 0.41498,-0.798848 0.9817,-1.072479 1.65216,-1.089338 -0.82997,0.125793 -1.16196,0.60562 -0.0259,1.326658 2.08271,1.324064 2.69871,1.838906 3.1098,2.812826 0.166,0.391642 0.59654,0.714553 1.32536,0.892219 0.47724,0.116715 1.41485,0.508358 2.56902,1.434295 0.26715,0.21268 0.27104,0.644525 2.59626,0.13487 0.92983,-0.203602 2.0853,-0.284006 3.62464,-0.107637 1.08156,0.123199 2.58588,-0.204899 3.67781,-0.405908 1.03098,-0.190634 2.13718,-0.325504 3.40807,-0.21657 0.45519,0.0389 0.81312,-0.106341 0.91297,-0.3683 z"
         id="path65-8" />
      <path
         style="fill:#a1592a;stroke-width:1.24714"
         d="m 286.76984,130.02596 c 0.75327,0.51507 1.19102,1.34068 1.16483,2.58532 -0.0162,0.73955 0.0636,1.57139 0.0561,2.03907 -0.015,0.96278 -0.64727,1.81707 -2.13136,1.6749 -0.95156,-0.091 -2.17999,0.0561 -3.71397,0.61983 -0.85803,0.31427 -1.92308,0.27437 -4.15172,0.25441 -1.29203,-0.0112 -3.98335,0.1297 -5.67945,-0.36416 -1.55643,-0.45271 -2.82227,-1.00644 -4.11431,-1.52899 -1.1748,-0.47641 -1.2409,-0.82311 -1.27457,-2.47681 -0.0237,-1.15236 0.0237,-2.45063 0.0362,-3.67656 0.0137,-1.34067 0.40656,-2.05902 2.07523,-2.3309 -1.0663,0.26814 -1.46039,0.72459 -0.0287,1.68738 0.6535,0.43899 0.87798,0.94533 1.53398,1.97546 1.06879,1.6774 1.27956,2.13884 2.67884,2.23736 0.56371,0.0399 1.08127,0.3941 2.75742,0.46768 2.66513,0.11723 5.31405,-0.0674 7.59506,-0.72833 0.83433,-0.2407 1.85449,-1.37808 2.96444,-1.27332 0.9154,0.0848 1.27333,-0.32177 0.23197,-1.16234 z"
         id="path66-3" />
      <path
         style="fill:#a1592a;stroke-width:1.2887"
         d="m 293.4672,205.76203 c 0.005,0.10825 0.004,0.21779 -0.003,0.32733 -0.0773,1.19721 0.43816,1.92017 0.65852,2.39957 0.47296,1.03225 0.076,2.1895 -1.17658,3.76172 -1.52454,1.91373 -2.86608,2.03358 -8.70004,1.88151 -1.4369,-0.0374 -2.25652,-0.28867 -4.75016,-1.31706 -3.23464,-1.3338 -4.42154,-2.04903 -7.76057,-5.78498 -0.89307,-0.99746 -1.47299,-2.3738 -1.37376,-3.48981 0.0735,-0.81833 0.0889,-1.61346 0.1031,-2.6238 0.018,-1.24231 -0.0632,-1.85058 1.35314,-2.34544 -0.4794,0.23068 -0.60182,0.80157 -0.0889,1.97687 0.25001,0.78353 0.37888,1.89826 0.36728,3.3996 -0.005,0.6959 0.83508,1.19978 2.42147,1.5168 1.26293,0.25259 1.59928,0.90725 6.50667,3.69342 0.94333,0.5361 1.94723,0.73585 5.82236,1.24747 0.49228,0.0657 1.9962,-0.20877 2.3725,-0.56188 0.79513,-0.74615 1.79001,-1.5967 3.03361,-2.00651 0.65208,-0.21392 1.19205,-0.82606 1.21395,-2.07481 z"
         id="path67-6" />
      <path
         id="path70-0"
         serif:id="Stem Gradient 1"
         d="M 32.901,65.255 C 31.285,63.59 28.855,62.37 27.474,62.577 25.828,62.824 24.9,62.835 24.049,62.57 20.771,61.551 19.185,60.561 18.708,59.046 16.243,51.232 13.747,45.076 13.422,40.16 c -0.444,-6.705 5.767,-8.471 12.664,-10.407 7.546,-2.117 15.2,-4.891 21.309,-7.819 6.013,-2.881 12.189,-1.105 14.536,0.441 7.688,5.061 13.936,9.133 20.539,14.426 5.087,4.079 4.487,10.084 3.854,14.482 -0.477,3.317 -1.518,8.674 -2.588,11.618 -1.795,4.938 -6.771,5.473 -12.444,6.387 -1.652,0.266 -2.184,0.867 -2.258,1.927 -0.216,3.117 -0.113,6.5 0.551,10.352 3.673,1.264 -3.354,4.033 -12.269,6.463 0.009,-8.174 0.081,-18.071 0.749,-27 0.137,-1.84 0.018,-3.605 0.834,-5.597 -3.035,-0.149 -4.902,-0.08 -7.02,1.79 -0.851,0.75 -0.881,1.642 -0.757,3.028 0.198,2.213 -3.783,2.966 -4.277,1.03 -0.58,-2.277 0.025,-3.59 0.387,-5.233 0,0 -0.315,-0.31 -0.796,-0.539 -0.421,-0.2 -1.793,-0.114 -2.72,-0.103 -1.862,0.023 -3.251,0.423 -3.387,1.668 -0.388,3.556 0.786,4.506 1.633,5.591 1.432,1.835 -0.964,7.834 -3.168,2.195 -1.311,-3.356 -0.565,-5.98 -2.433,-10.06 -1.208,0.126 -1.568,0.201 -2.258,0.575 -1.392,0.754 -1.738,0.676 -2.34,0.616 -1.08,-0.108 -1.408,0.166 -1.766,0.575 -0.6,0.684 -0.957,1.326 -1.375,2.073 -0.445,0.794 -0.374,1.567 0.041,2.197 0.268,0.408 0.486,0.737 0.559,1.059 0.297,1.32 2.116,1.558 3.679,3.36 z"
         style="fill:url(#linearGradient8)"
         sodipodi:nodetypes="ccccccccccccccccccsccccccccccccccc" />
      <g
         id="g76">
        <path
           id="path71-4"
           serif:id="6"
           d="m 58.899,55.433 c -2.976,-0.146 -4.829,-0.083 -6.896,1.682 -0.708,-0.226 -1.699,-0.38 -2.35,-0.41 -1.148,-0.054 -1.513,-0.226 -2.421,-0.657 0,0 -0.315,-0.31 -0.796,-0.539 -0.421,-0.2 -1.793,-0.114 -2.72,-0.103 -1.008,0.013 -1.877,0.136 -2.484,0.443 -1.218,-0.88 -2.907,-1.144 -4.871,-1.049 -1.208,0.126 -1.568,0.201 -2.258,0.575 -1.392,0.754 -1.738,0.676 -2.34,0.616 -1.08,-0.108 -1.408,0.166 -1.766,0.575 -0.6,0.684 -0.957,1.326 -1.375,2.073 -0.445,0.794 -0.374,1.567 0.041,2.197 0.268,0.408 0.486,0.737 0.559,1.059 0.297,1.32 2.116,1.558 3.679,3.36 C 31.285,63.59 28.855,62.37 27.474,62.577 25.828,62.824 24.9,62.835 24.049,62.57 20.771,61.551 19.185,60.561 18.708,59.046 16.243,51.232 13.747,45.076 13.422,40.16 c -0.444,-6.705 5.767,-8.471 12.664,-10.407 7.546,-2.117 15.2,-4.891 21.309,-7.819 6.013,-2.881 12.189,-1.105 14.536,0.441 7.688,5.061 13.936,9.133 20.539,14.426 5.087,4.079 4.487,10.084 3.854,14.482 -0.477,3.317 -1.518,8.674 -2.588,11.618 -1.795,4.938 -6.771,5.473 -12.444,6.387 -1.417,0.228 -2.01,0.702 -2.196,1.502 0.369,-2.27 1.357,-4.369 0.738,-5.681 -0.764,-1.619 -1.502,-2.941 -2.35,-3.843 -1.118,-1.188 -2.895,-2.246 -3.677,-3.234 -1.278,-1.616 -2.478,-2.366 -4.908,-2.599 z"
           style="fill:#7bb441" />
        <path
           id="path72-0"
           serif:id="5"
           d="m 61.569,22.153 c 0.13,0.074 0.25,0.148 0.362,0.222 7.688,5.061 13.936,9.133 20.539,14.426 5.087,4.079 4.487,10.084 3.854,14.482 -0.173,1.204 -0.421,2.678 -0.717,4.208 C 85.176,54.032 83.979,52.871 82.243,51.92 79.469,50.401 78.104,50.528 76.442,49.561 73.572,47.892 71.22,46.682 69.07,45.335 68.01,44.67 67.203,44.51 65.876,44.155 64.648,43.827 63.657,43.113 62.779,42.008 61.897,40.895 60.71,40.147 59.536,39.339 58.939,38.928 58.789,38.031 58.799,36.931 58.812,35.401 58.54,33.84 58.504,32.852 58.442,31.189 58.419,30.316 59.29,28.428 l 0.295,-2.015 z"
           style="fill:#85bd4c" />
        <path
           id="path73-9"
           serif:id="4"
           d="m 15.461,49.15 c -1.074,-3.392 -1.866,-6.367 -2.039,-8.99 -0.444,-6.705 5.767,-8.471 12.664,-10.407 7.546,-2.117 15.2,-4.891 21.309,-7.819 0.303,-0.144 0.606,-0.278 0.909,-0.4 0.615,0.345 1.23,0.862 1.845,1.783 0.871,1.305 1.881,2.656 3.194,5.013 0.424,0.761 0.843,1.642 0.836,2.998 -0.008,1.566 0.086,3.79 -0.197,6.684 -0.093,0.953 -0.879,1.617 -2.113,2.261 -2.749,1.435 -4.401,2.33 -9.387,3.047 -5.493,0.789 -6.458,0.497 -12.68,2.457 -2.696,0.85 -5.37,0.976 -10.222,1.327 -1.458,0.105 -2.678,0.292 -4.119,2.046 z"
           style="fill:#74a244" />
        <path
           id="path74-2"
           serif:id="3"
           d="m 48.304,21.534 c 5.429,-2.187 10.826,-0.785 13.265,0.619 l -1.984,4.26 -0.295,2.015 c -0.871,1.888 -0.848,2.761 -0.786,4.424 0.036,0.988 0.308,2.549 0.295,4.079 -0.01,1.1 0.14,1.997 0.737,2.408 1.174,0.808 2.361,1.556 3.243,2.669 0.878,1.105 1.869,1.819 3.097,2.147 1.327,0.355 2.134,0.515 3.194,1.18 2.15,1.347 4.502,2.557 7.372,4.226 1.662,0.967 3.027,0.84 5.801,2.359 1.736,0.951 2.933,2.112 3.364,3.571 -0.52,2.682 -1.19,5.535 -1.871,7.41 -0.091,0.249 -0.19,0.488 -0.296,0.716 -0.118,-2.755 -0.491,-5.069 -0.608,-6.241 -0.186,-1.875 -0.916,-2.077 -1.721,-2.556 -2.094,-1.246 -4.489,-2.021 -6.34,-2.9 -5.281,-2.507 -12.177,-4.498 -17.398,-6.866 -2.655,-1.205 -3.11,-1.055 -4.275,-0.751 -3.234,0.841 -7.083,1.682 -8.552,1.818 -4.337,0.401 -6.939,1.161 -12.434,2.949 -2.369,0.771 -2.808,1.522 -4.423,1.818 -0.953,0.175 -2.565,-0.034 -3.293,0.295 -2.126,0.963 -3.997,0.073 -5.16,0.049 -1.287,-0.026 -2.006,0.575 -2.549,1.657 -0.434,-1.3 -0.847,-2.545 -1.226,-3.739 1.441,-1.754 2.661,-1.941 4.119,-2.046 4.852,-0.351 7.526,-0.477 10.222,-1.327 6.222,-1.96 7.187,-1.668 12.68,-2.457 4.986,-0.717 6.638,-1.612 9.387,-3.047 1.234,-0.644 2.02,-1.308 2.113,-2.261 0.283,-2.894 0.189,-5.118 0.197,-6.684 0.007,-1.356 -0.412,-2.237 -0.836,-2.998 -1.313,-2.357 -2.323,-3.708 -3.194,-5.013 -0.615,-0.921 -1.23,-1.438 -1.845,-1.783 z"
           style="fill:#73ac3b" />
        <path
           id="path75-4"
           serif:id="2"
           d="m 48.304,21.534 c 5.429,-2.187 10.826,-0.785 13.265,0.619 l -1.984,4.26 -0.295,2.015 c -0.871,1.888 -0.848,2.761 -0.786,4.424 0.036,0.988 0.308,2.549 0.295,4.079 -0.01,1.1 0.14,1.997 0.737,2.408 1.174,0.808 2.361,1.556 3.243,2.669 0.878,1.105 1.869,1.819 3.097,2.147 1.327,0.355 2.134,0.515 3.194,1.18 2.15,1.347 4.502,2.557 7.372,4.226 1.662,0.967 3.027,0.84 5.801,2.359 1.736,0.951 2.933,2.112 3.364,3.571 -0.52,2.682 -1.19,5.535 -1.871,7.41 -0.091,0.249 -0.19,0.488 -0.296,0.716 -0.118,-2.755 -0.491,-5.069 -0.608,-6.241 -0.186,-1.875 -0.916,-2.077 -1.721,-2.556 -2.094,-1.246 -4.489,-2.021 -6.34,-2.9 -5.281,-2.507 -12.177,-4.498 -17.398,-6.866 -2.655,-1.205 -3.11,-1.055 -4.275,-0.751 -3.234,0.841 -7.083,1.682 -8.552,1.818 -4.337,0.401 -6.939,1.161 -12.434,2.949 -2.369,0.771 -2.808,1.522 -4.423,1.818 -0.953,0.175 -2.565,-0.034 -3.293,0.295 -2.126,0.963 -3.997,0.073 -5.16,0.049 -1.287,-0.026 -2.006,0.575 -2.549,1.657 -0.434,-1.3 -0.847,-2.545 -1.226,-3.739 1.441,-1.754 2.661,-1.941 4.119,-2.046 4.852,-0.351 7.526,-0.477 10.222,-1.327 6.222,-1.96 7.187,-1.668 12.68,-2.457 4.986,-0.717 6.638,-1.612 9.387,-3.047 1.234,-0.644 2.02,-1.308 2.113,-2.261 0.283,-2.894 0.189,-5.118 0.197,-6.684 0.007,-1.356 -0.412,-2.237 -0.836,-2.998 -1.313,-2.357 -2.323,-3.708 -3.194,-5.013 -0.615,-0.921 -1.23,-1.438 -1.845,-1.783 z"
           style="fill:#73ac3b" />
        <path
           id="path76-9"
           serif:id="1"
           d="m 82.243,65.435 c -2.383,2.641 -6.447,3.128 -10.951,3.853 -1.417,0.228 -2.01,0.702 -2.196,1.502 0.369,-2.27 1.357,-4.369 0.738,-5.681 -0.133,-0.282 -0.265,-0.555 -0.397,-0.818 0.549,0.329 1.175,0.598 1.943,0.751 2.154,0.431 4.105,0.504 5.996,0.59 1.84,0.084 3.504,0.02 4.867,-0.197 z M 28.622,58.639 c -0.445,0.794 -0.374,1.567 0.041,2.197 0.268,0.408 0.486,0.737 0.559,1.059 0.297,1.32 2.116,1.558 3.679,3.36 -1.616,-1.665 -4.046,-2.885 -5.427,-2.678 -1.646,0.247 -2.574,0.258 -3.425,-0.007 -3.278,-1.019 -4.864,-2.009 -5.341,-3.524 -0.606,-1.921 -1.214,-3.741 -1.791,-5.468 2.152,3.846 3.714,3.756 5.268,4.24 2.204,0.687 4.363,1.052 6.437,0.821 z"
           style="fill:#6c9e3a" />
      </g>
    </g>
  </g>
</svg>
