<?xml version="1.0" encoding="UTF-8" standalone="no"?>
<!-- Created with Inkscape (http://www.inkscape.org/) -->

<svg
   width="300"
   height="345"
   viewBox="0 0 79.374998 91.28125"
   version="1.1"
   id="svg1"
   inkscape:export-filename="pinkDonut.svg"
   inkscape:export-xdpi="96"
   inkscape:export-ydpi="96"
   xmlns:inkscape="http://www.inkscape.org/namespaces/inkscape"
   xmlns:sodipodi="http://sodipodi.sourceforge.net/DTD/sodipodi-0.dtd"
   xmlns:xlink="http://www.w3.org/1999/xlink"
   xmlns="http://www.w3.org/2000/svg"
   xmlns:svg="http://www.w3.org/2000/svg">
  <sodipodi:namedview
     id="namedview1"
     pagecolor="#505050"
     bordercolor="#ffffff"
     borderopacity="1"
     inkscape:showpageshadow="0"
     inkscape:pageopacity="0"
     inkscape:pagecheckerboard="1"
     inkscape:deskcolor="#505050"
     inkscape:document-units="px">
    <inkscape:page
       x="0"
       y="0"
       width="79.375"
       height="91.28125"
       id="page2"
       margin="0"
       bleed="0" />
  </sodipodi:namedview>
  <defs
     id="defs1">
    <linearGradient
       inkscape:collect="always"
       xlink:href="#linearGradient313"
       id="linearGradient314"
       x1="151.48154"
       y1="277.931"
       x2="151.48154"
       y2="337.92139"
       gradientUnits="userSpaceOnUse" />
    <linearGradient
       id="linearGradient313"
       inkscape:collect="always">
      <stop
         style="stop-color:#f99314;stop-opacity:1;"
         offset="0"
         id="stop313" />
      <stop
         style="stop-color:#f4a845;stop-opacity:1;"
         offset="1"
         id="stop314" />
    </linearGradient>
    <inkscape:path-effect
       effect="fillet_chamfer"
       id="path-effect212"
       is_visible="true"
       lpeversion="1"
       nodesatellites_param="F,0,0,1,0,0,0,1 @ F,0,0,1,0,0,0,1 @ F,0,0,1,0,0,0,1 @ F,0,0,1,0,12.7708,0,1 @ F,0,0,1,0,12.770825,0,1 @ F,0,0,1,0,0,0,1"
       radius="0"
       unit="px"
       method="auto"
       mode="F"
       chamfer_steps="1"
       flexible="false"
       use_knot_distance="true"
       apply_no_radius="true"
       apply_with_radius="true"
       only_selected="false"
       hide_knots="false" />
    <inkscape:path-effect
       effect="fillet_chamfer"
       id="path-effect177"
       is_visible="true"
       lpeversion="1"
       nodesatellites_param="F,0,0,1,0,27.6603,0,1 @ F,0,0,1,0,0,0,1 @ F,0,0,1,0,27.660284,0,1 @ F,0,0,1,0,0,0,1 @ F,0,0,1,0,0,0,1"
       radius="0"
       unit="px"
       method="auto"
       mode="F"
       chamfer_steps="1"
       flexible="false"
       use_knot_distance="true"
       apply_no_radius="true"
       apply_with_radius="true"
       only_selected="false"
       hide_knots="false" />
  </defs>
  <g
     inkscape:label="Layer 1"
     inkscape:groupmode="layer"
     id="layer1">
    <g
       id="g327"
       inkscape:export-filename="lunch pack/baoBun.svg"
       inkscape:export-xdpi="96"
       inkscape:export-ydpi="96"
       transform="matrix(0.26458333,0,0,0.26458333,3.3922478e-6,0)">
      <path
         class="cls-1"
         d="M 263.62,345 H 36.38 C 16.28788,345 0,328.71212 0,308.62 v -60.58916 a 12.735403,12.735403 135.07951 0 1 12.770751,-12.73535 l 274.458449,0.76176 a 12.806324,12.806324 45.079505 0 1 12.77078,12.80627 L 300,308.62 c 10e-6,20.09212 -16.28788,36.38 -36.38,36.38 z"
         id="path2-3-8"
         style="opacity:1;fill:url(#linearGradient314);fill-opacity:1"
         sodipodi:nodetypes="sssccss"
         inkscape:path-effect="#path-effect212"
         inkscape:original-d="M 263.62,345 H 36.38 C 16.28788,345 0,328.71212 0,308.62 V 235.26004 L 299.99998,236.0927 300,308.62 c 10e-6,20.09212 -16.28788,36.38 -36.38,36.38 z" />
      <path
         id="rect325"
         style="opacity:1;fill:#d3751e;fill-opacity:1;stroke:none;stroke-width:6.21009;stroke-linecap:round;stroke-linejoin:round;stroke-dasharray:none;stroke-opacity:1"
         d="M 190.04297,306.13867 V 345 h 56.9375 v -38.86133 z" />
      <path
         id="rect176"
         style="opacity:1;fill:#834913;fill-opacity:1;stroke-width:26.2451;stroke-linejoin:round"
         d="m 24.92511,121.72885 c 20.499233,-14.92024 59.035257,-33.113817 125.07487,-33.113817 66.0397,0 104.57574,18.193627 125.07495,33.113877 12.29701,8.95032 19.78218,31.54278 19.78218,46.81913 v 82.27589 H 5.1428485 v -82.27587 c 0,-15.27636 7.4851965,-37.86886 19.7822615,-46.81921 z"
         sodipodi:nodetypes="cscccc"
         inkscape:path-effect="#path-effect177"
         inkscape:original-d="m 5.1428485,140.88776 c 0,0 32.9177085,-52.272727 144.8571315,-52.272727 111.93942,0 144.85713,52.272727 144.85713,52.272727 V 250.82393 H 5.1428485 Z" />
      <path
         class="cls-1"
         d="M 258.47714,313.28571 H 41.522857 c -20.09212,0 -36.3799999,-16.28788 -36.3799999,-36.38 v -55.93472 c 0,0 -0.3592442,39.85295 144.8571329,39.85295 144.44432,0 144.85713,-39.02029 144.85713,-39.02029 l 2e-5,55.10206 c 10e-6,20.09212 -16.28788,36.38 -36.38,36.38 z"
         id="path313"
         style="opacity:1;fill:#bb620b;fill-opacity:1"
         sodipodi:nodetypes="ssscscss" />
      <path
         id="path314"
         style="opacity:1;fill:#de8e31;fill-opacity:1;stroke:none;stroke-width:3.994;stroke-linejoin:round"
         d="m 44.285156,110.04102 c -7.723199,3.87207 -14.135474,7.88531 -19.359375,11.6875 -12.297062,8.95034 -19.7832029,31.54395 -19.7832029,46.82031 v 62.46484 l 22.2499999,2.07422 C 22.880732,226.68796 5.3836181,217.74636 13.524314,161.2938 c 4.436729,-30.76699 15.981303,-36.38531 28.268836,-45.62267 2.675189,-2.01111 -0.95649,-2.81152 2.492006,-5.63011 z"
         sodipodi:nodetypes="cssccssc" />
      <path
         id="path317"
         d="m 44.285156,110.04102 c -7.723199,3.87207 -14.135474,7.88531 -19.359375,11.6875 -12.297062,8.95034 -19.7832029,31.54395 -19.7832029,46.82031 v 62.46484 l 22.2499999,2.07422 C 22.880732,226.68796 5.3836181,217.74636 13.524314,161.2938 c 4.536595,-31.45952 22.232591,-38.67652 35.251611,-48.22248 2.668218,-1.95642 10.591613,-9.91102 -4.490769,-3.0303 z"
         style="opacity:1;fill:#de8e31;fill-opacity:1;stroke:none;stroke-width:3.994;stroke-linejoin:round"
         transform="matrix(-1,0,0,1,300,0)"
         sodipodi:nodetypes="cssccssc" />
      <path
         id="path175"
         style="opacity:1;fill:#f9ead5;stroke-linejoin:round"
         d="m 180.70117,24.349609 c -1.53968,-0.04279 -3.19935,0.206844 -4.95312,0.789063 -19.56351,6.494709 -35.9011,16.21647 -48.43164,29.74414 l -1.0293,-11.791015 c -0.51598,-5.907544 -5.08238,-8.264748 -10.07813,-5.070313 -48.778936,31.84872 -99.870902,88.873136 -96.623042,150.005856 1.369982,25.78643 16.364773,48.20642 40.11914,63.38672 23.754367,15.18031 55.461482,24.0703 90.294922,24.07032 34.83343,0 66.54056,-8.89001 90.29492,-24.07032 23.75437,-15.1803 40.11914,-37.56392 40.11914,-63.38672 0,-24.93088 -11.67359,-57.67042 -32.0625,-86.12304 C 234.3103,82.309778 215.56805,64.694542 192.91211,55.623047 192.28968,49.890124 191.87906,44.103825 191.8418,38.224609 191.7911,30.2206 187.37315,24.535017 180.70117,24.349609 Z"
         sodipodi:nodetypes="ssccssssssscss" />
      <path
         id="path318"
         style="opacity:1;fill:#edd3ae;fill-opacity:1;stroke-linejoin:round"
         d="m 34.300781,125.1543 c -10.094536,19.80121 -15.873132,41.07121 -14.714843,62.87304 1.369982,25.78643 16.364773,48.20642 40.11914,63.38672 23.754367,15.18031 55.461482,24.07029 90.294922,24.07032 34.83343,0 66.54056,-8.89001 90.29492,-24.07032 23.75437,-15.1803 40.11914,-37.56392 40.11914,-63.38672 0,-14.59013 -4.02457,-31.85656 -11.42773,-49.37109 0.37114,9.91507 -0.37997,19.76089 -2.31641,28.9082 -4.29791,20.30238 -14.64021,38.68684 -35.89258,50.86914 C 209.52498,230.61591 181.15669,237.75 149.99219,237.75 118.82768,237.74998 90.459401,230.61591 69.207031,218.43359 47.954661,206.25129 34.540137,188.25826 33.314453,167.56445 32.585179,155.25178 32.83457,140.5987 34.300781,125.1543 Z"
         sodipodi:nodetypes="cssssscsssssc" />
      <path
         class="cls-1"
         d="M 258.47714,295.28571 H 41.522857 c -20.09212,0 -38.7186618,-16.42445 -36.3799999,-36.38 l 6.8682099,-58.60569 c 0,0 -7.2274541,42.52392 137.988923,42.52392 144.44432,0 137.98892,-44.7438 137.98892,-44.7438 l 6.86823,60.82557 c 2.25441,19.96524 -16.28788,36.38 -36.38,36.38 z"
         id="path327"
         style="opacity:1;fill:#de8e31;fill-opacity:1"
         sodipodi:nodetypes="ssscscss" />
      <path
         class="cls-1"
         d="M 258.47714,303.28571 H 41.522857 c -20.09212,0 -36.3799999,-16.28788 -36.3799999,-36.38 v -55.93472 c 0,0 -0.3592442,39.85295 144.8571329,39.85295 144.44432,0 144.85713,-39.02029 144.85713,-39.02029 l 2e-5,55.10206 c 10e-6,20.09212 -16.28788,36.38 -36.38,36.38 z"
         id="path145"
         style="opacity:1;fill:#f5a43c;fill-opacity:1"
         sodipodi:nodetypes="ssscscss" />
      <path
         id="path319"
         style="opacity:1;fill:#f5e0c4;fill-opacity:1;stroke:none;stroke-width:3.994;stroke-linejoin:round"
         d="m 190.56836,31.613281 c -11.88576,1.737005 -28.12785,2.40685 -37.76758,10.427735 -12.60227,10.485907 -22.06198,28.103374 -21.01953,44.464843 1.24064,19.472031 13.79421,41.182171 31.5293,49.316411 5.19626,2.38328 14.41224,2.68454 16.97851,-2.42383 6.3336,-12.60754 -30.06046,-27.08745 -20.21289,-37.191409 9.92629,-10.184735 26.3383,27.547429 37.99805,19.404299 7.34442,-5.12932 -3.23242,-26.679689 -3.23242,-26.679689 0,0 21.31242,30.922629 37.18945,29.914059 7.23447,-0.45956 15.10961,-6.31108 18.83398,-13.30468 -0.82963,-1.21581 -1.65274,-2.4353 -2.51367,-3.63672 -1.75515,-2.449318 -3.58385,-4.867549 -5.48437,-7.242191 -1.90053,-2.374641 -3.8732,-4.706143 -5.91602,-6.980468 -2.04282,-2.274325 -4.15585,-4.492259 -6.33789,-6.640625 -2.18203,-2.148367 -4.43182,-4.225891 -6.75,-6.222657 -2.31818,-1.996765 -4.705,-3.9129 -7.15625,-5.732421 -7.35373,-5.458566 -15.29894,-10.06108 -23.79492,-13.462891 -0.31122,-2.866462 -0.56879,-5.746439 -0.75391,-8.644531 -0.18511,-2.898092 -0.29777,-5.814299 -0.3164,-8.753907 -0.0156,-2.467835 -0.48941,-4.67755 -1.27344,-6.611328 z" />
      <path
         style="opacity:1;fill:#f5e0c4;fill-opacity:1;stroke:none;stroke-width:3.994;stroke-linejoin:round"
         d="m 115.61116,48.508181 c 0,0 -25.558594,27.141017 -29.913373,44.465833 -2.640929,10.506526 -4.475828,24.728126 3.233878,32.338786 4.427727,4.37084 14.187525,6.0084 18.594805,1.61694 9.19499,-9.16197 -4.49848,-25.88794 -3.23388,-38.806544 1.33797,-13.668081 11.31857,-39.615015 11.31857,-39.615015 z"
         id="path320"
         sodipodi:nodetypes="caaaac" />
      <path
         style="fill:#eed0a5;fill-opacity:1;stroke-linecap:round;stroke-linejoin:round"
         d="m 94.26821,123.01953 c 0.644213,1.55414 4.982099,2.29207 6.53648,1.64844 1.5549,-0.64345 4.08301,-2.93675 3.4396,-4.49167 -8.418429,-20.332382 -1.21842,-42.199314 -4.04354,-43.344813 -2.82512,-1.145499 -14.900215,24.529103 -5.93254,46.188043 z"
         id="path321"
         sodipodi:nodetypes="ccccc" />
      <path
         style="fill:#eed0a5;fill-opacity:1;stroke-linecap:round;stroke-linejoin:round"
         d="m 140.40008,95.105469 c 3.07395,12.473691 8.60619,19.906251 16.27474,31.347281 3.10371,4.53001 13.91204,-1.42873 9.80342,-7.72659 -10.99902,-7.50451 -18.51533,-24.626276 -18.62658,-25.077723 -1.11056,-4.506552 -0.71722,-12.754643 0.12696,-19.582031 0.84417,-6.827387 3.30937,-12.274646 -0.96881,-12.963867 -5.13749,-0.827659 -8.34811,26.949192 -6.60973,34.00293 z"
         id="path322"
         sodipodi:nodetypes="cccssac" />
      <path
         style="fill:#eed0a5;fill-opacity:1;stroke-linecap:round;stroke-linejoin:round"
         d="m 172.47656,46.9375 c -1.64226,-0.366017 -3.27034,0.668369 -3.63672,2.310547 -2.76458,12.416119 -1.7356,35.766242 9.45207,44.712776 3.11091,2.488581 11.51794,-4.82478 8.40746,-7.313822 -6.66452,-5.329472 -11.46076,-11.236271 -12.64078,-17.768095 -1.18001,-6.531823 -0.41634,-13.156164 0.73047,-18.30664 0.36469,-1.642214 -0.67047,-3.269262 -2.3125,-3.634766 z"
         id="path323"
         sodipodi:nodetypes="ccccscc" />
      <path
         style="fill:#eed0a5;fill-opacity:1;stroke-linecap:round;stroke-linejoin:round"
         d="m 194.19336,62.431641 c -0.77116,0.241709 -1.41471,0.779874 -1.78906,1.496093 -0.77887,1.491809 -0.20085,3.33256 1.29101,4.111328 15.89104,8.29633 23.76667,22.7665 30.22108,36.799748 1.55636,3.38616 11.68382,-1.2243 10.13597,-4.58973 -6.85527,-14.904836 -20.19394,-28.558103 -37.53674,-37.612361 -0.7163,-0.373497 -1.55159,-0.447261 -2.32226,-0.205078 z"
         id="path324"
         sodipodi:nodetypes="ccccccc" />
      <path
         id="rect326"
         style="opacity:1;fill:#d3751e;fill-opacity:1;stroke:none;stroke-width:6.21009;stroke-linecap:round;stroke-linejoin:round;stroke-dasharray:none;stroke-opacity:1"
         d="m 238.10742,243.84375 c -14.78137,2.93806 -33.44293,5.20478 -56.93945,6.2793 v 53.16211 h 56.93945 z" />
      <path
         id="rect327"
         style="opacity:1;fill:#d3751e;fill-opacity:1;stroke:none;stroke-width:5.2799;stroke-linecap:round;stroke-linejoin:round;stroke-dasharray:none;stroke-opacity:1"
         d="m 5.1425781,210.9707 v 55.93555 c 0,20.09212 16.2887389,36.37891 36.3808599,36.37891 h 2.105468 v -64.0586 C 5.0601034,227.46048 5.1425781,210.9707 5.1425781,210.9707 Z" />
    </g>
  </g>
</svg>
