<?xml version="1.0" encoding="UTF-8" standalone="no"?>
<svg
   viewBox="0 0 300 345"
   version="1.1"
   id="svg60941"
   sodipodi:docname="beaver_2.svg"
   xml:space="preserve"
   inkscape:version="1.2 (dc2aedaf03, 2022-05-15)"
   xmlns:inkscape="http://www.inkscape.org/namespaces/inkscape"
   xmlns:sodipodi="http://sodipodi.sourceforge.net/DTD/sodipodi-0.dtd"
   xmlns="http://www.w3.org/2000/svg"
   xmlns:svg="http://www.w3.org/2000/svg"><sodipodi:namedview
     id="namedview60943"
     pagecolor="#505050"
     bordercolor="#ffffff"
     borderopacity="1"
     inkscape:showpageshadow="0"
     inkscape:pageopacity="0"
     inkscape:pagecheckerboard="1"
     inkscape:deskcolor="#505050"
     showgrid="false"
     inkscape:zoom="1.5270345"
     inkscape:cx="109.68973"
     inkscape:cy="185.98139"
     inkscape:window-width="1366"
     inkscape:window-height="705"
     inkscape:window-x="-8"
     inkscape:window-y="-8"
     inkscape:window-maximized="1"
     inkscape:current-layer="g613" /><defs
     id="defs60891"><inkscape:path-effect
       effect="mirror_symmetry"
       start_point="58.398504,147.88372"
       end_point="58.398504,173.20372"
       center_point="58.398504,160.54372"
       id="path-effect1954"
       is_visible="true"
       lpeversion="1.2"
       lpesatellites=""
       mode="vertical"
       discard_orig_path="false"
       fuse_paths="false"
       oposite_fuse="false"
       split_items="true"
       split_open="false"
       link_styles="false" /><inkscape:path-effect
       effect="mirror_symmetry"
       start_point="94.283733,174.03836"
       end_point="94.283733,259.76583"
       center_point="94.283733,216.9021"
       id="path-effect16010"
       is_visible="true"
       lpeversion="1.2"
       lpesatellites=""
       mode="vertical"
       discard_orig_path="false"
       fuse_paths="false"
       oposite_fuse="false"
       split_items="true"
       split_open="false"
       link_styles="false" /><inkscape:path-effect
       effect="mirror_symmetry"
       start_point="56.179099,258.88379"
       end_point="56.179099,280.23841"
       center_point="56.179099,269.5611"
       id="path-effect15340"
       is_visible="true"
       lpeversion="1.2"
       lpesatellites="#g15348"
       mode="vertical"
       discard_orig_path="false"
       fuse_paths="false"
       oposite_fuse="false"
       split_items="true"
       split_open="false"
       link_styles="false" /><inkscape:path-effect
       effect="mirror_symmetry"
       start_point="150,266.19929"
       end_point="150,290.44009"
       center_point="150,278.31969"
       id="path-effect2068"
       is_visible="true"
       lpeversion="1.2"
       lpesatellites="#path2070"
       mode="vertical"
       discard_orig_path="false"
       fuse_paths="false"
       oposite_fuse="false"
       split_items="true"
       split_open="false"
       link_styles="false" /><inkscape:path-effect
       effect="mirror_symmetry"
       start_point="94.283733,174.03836"
       end_point="94.283733,259.76583"
       center_point="94.283733,216.9021"
       id="path-effect1936"
       is_visible="true"
       lpeversion="1.2"
       lpesatellites=""
       mode="vertical"
       discard_orig_path="false"
       fuse_paths="false"
       oposite_fuse="false"
       split_items="true"
       split_open="false"
       link_styles="false" /><linearGradient
       id="A"
       x1="150"
       y1="356.11"
       x2="150"
       y2="161.16"
       gradientUnits="userSpaceOnUse"
       gradientTransform="translate(0,-0.16311766)"><stop
         offset="0"
         stop-color="#594a42"
         id="stop60886"
         style="stop-color:#bd6231;stop-opacity:1;" /><stop
         offset="0.69"
         stop-color="#281813"
         id="stop60888"
         style="stop-color:#783714;stop-opacity:1;" /></linearGradient><inkscape:path-effect
       effect="mirror_symmetry"
       start_point="144.07484,240.58228"
       end_point="144.07484,257.26541"
       center_point="144.07484,248.92385"
       id="path-effect8586"
       is_visible="true"
       lpeversion="1.2"
       lpesatellites=""
       mode="vertical"
       discard_orig_path="false"
       fuse_paths="false"
       oposite_fuse="false"
       split_items="false"
       split_open="false"
       link_styles="false" /></defs><path
     d="M 263.62,344.83688 H 36.38 A 36.38,36.38 0 0 1 0,308.45688 v -49.48 h 300 v 49.48 a 36.38,36.38 0 0 1 -36.38,36.38 z"
     fill="url(#A)"
     id="path60893"
     style="fill:url(#A)" /><path
     d="M 150,60.158363 C 57.42,60.158363 -4.125e-7,113.69837 -4.125e-7,196.53837 v 67 A 36.38,36.38 0 0 0 36.38,299.91837 h 227.24 a 36.38,36.38 0 0 0 36.38,-36.38 v -67 c 0,-82.84 -57.42,-136.380007 -150,-136.380007 z"
     fill="#58595b"
     id="path395"
     style="fill:#bd6231;fill-opacity:1" /><path
     id="rect2149"
     style="fill:#fbfbfa;fill-opacity:1;stroke:none;stroke-width:0.924158;stroke-linecap:round;stop-color:#000000"
     d="m 134.07227,256.16016 c -2.74317,-0.0883 -5.04132,2.55107 -4.72657,5.24724 0.0161,7.40305 -0.0322,14.80811 0.0243,22.20989 0.1892,2.60554 2.77841,4.55043 5.32707,4.24013 3.95681,-0.0268 7.91816,0.0547 11.872,-0.0429 1.52806,0.14672 2.8756,-1.86643 3.59258,-2.03111 1.06799,1.71801 3.15985,2.22793 5.0561,2.07401 3.80974,-0.0335 7.62613,0.0687 11.4315,-0.0542 2.50454,-0.31282 4.29673,-2.83177 4.00503,-5.2952 -0.0161,-7.36834 0.0322,-14.7387 -0.0243,-22.10577 -0.18928,-2.6056 -2.7777,-4.55244 -5.32707,-4.24206 -3.95681,0.0268 -7.91816,-0.0547 -11.872,0.0429 -1.52805,-0.14672 -2.8756,1.86642 -3.59258,2.0311 -1.06799,-1.71801 -3.15985,-2.22792 -5.0561,-2.074 -3.56999,0 -7.13997,0 -10.70996,0 z" /><path
     d="m 188.8381,262.73625 c -12.32724,18.97532 -25.69801,5.95087 -38.8381,0 -13.30799,10.09003 -26.38749,13.81086 -38.83811,0 0,0 -27.141692,-66.2573 38.83811,-66.2573 65.9798,0 38.8381,66.24685 38.8381,66.24685 v 0.005 z"
     id="path8805"
     style="fill:#d4916a;fill-opacity:1;stroke-width:0.885192"
     sodipodi:nodetypes="cccsccc" /><path
     id="path7158"
     style="fill:#c1ac77;fill-opacity:0.321078;stroke-width:0.258629;stroke-linecap:round;stop-color:#000000"
     class="UnoptimicedTransforms"
     d="m 145.49219,262.13477 c -0.2379,-0.002 -0.47467,0.006 -0.70899,0.0254 h -10.71093 c -2.74317,-0.0883 -5.04132,2.5519 -4.72657,5.24804 0.01,4.38009 -0.003,8.76023 -0.004,13.14063 5.5734,3.3824 11.83394,-0.91126 20.26562,-6.67578 0.0622,-0.0425 0.12734,-0.0696 0.19141,-0.10352 0.0641,0.0339 0.1292,0.061 0.1914,0.10352 8.43169,5.76452 14.69222,10.05818 20.26563,6.67578 -0.001,-4.3804 -0.0139,-8.76054 -0.004,-13.14063 0.31475,-2.69614 -1.98339,-5.33634 -4.72656,-5.24804 h -10.71094 c -1.8745,-0.15216 -3.93685,0.3466 -5.01562,2.01757 -0.94392,-1.4621 -2.64138,-2.02659 -4.30664,-2.04296 z"
     transform="translate(0,-6)" /><path
     d="m 150,255.28082 c 0,1.49402 -0.35194,16.00872 -0.64018,17.29863 -3.44823,15.43149 -36.51003,18.6542 -37.11939,7.44154"
     stroke="#414042"
     stroke-width="5.00618"
     id="path62641"
     style="fill:none;stroke:#2b292f;stroke-linecap:round;stroke-miterlimit:10;stroke-opacity:1"
     sodipodi:nodetypes="csc"
     class="UnoptimicedTransforms"
     transform="translate(0,-16)"
     inkscape:original-d="m 150,255.28082 c 0,1.49402 -0.35194,16.00872 -0.64018,17.29863 -3.44823,15.43149 -36.51003,18.6542 -37.11939,7.44154"
     inkscape:path-effect="#path-effect2068" /><circle
     cx="57.419998"
     cy="201.80209"
     r="38.863735"
     id="circle70730"
     style="fill:#893d15;fill-opacity:1;stroke-width:1.06622" /><circle
     cx="57.419998"
     cy="209.80209"
     r="38.863735"
     id="circle64330"
     style="fill:#ffffff;fill-opacity:1;stroke-width:1.06622" /><path
     transform="matrix(-0.94798201,0,0,0.94798201,291.66336,0.746726)"
     id="path1890"
     d="m 208.74439,218.85942 a 31.330471,31.330471 0 1 0 31.33047,-31.33048 32.578871,32.578871 0 0 0 -4.38035,0.30662 18.058003,18.058003 0 0 1 -26.22737,24.47522 31.483783,31.483783 0 0 0 -0.72275,6.54864 z m 37.03587,12.9987 a 7.45755,7.45755 0 1 1 7.44661,7.45755 7.4356482,7.4356482 0 0 1 -7.44661,-7.45755 z"
     style="fill:#2b292f;fill-opacity:1;stroke-width:1.09509"
     class="UnoptimicedTransforms" /><path
     class="UnoptimicedTransforms"
     id="path2070"
     d="m 150,255.28082 c 0,1.49402 -0.35194,16.00872 -0.64018,17.29863 -3.44823,15.43149 -36.51003,18.6542 -37.11939,7.44154"
     style="fill:none;stroke:#2b292f;stroke-linecap:round;stroke-miterlimit:10;stroke-opacity:1"
     stroke="#414042"
     stroke-width="5.00618"
     transform="matrix(-1,0,0,1,300,-16)" /><path
     id="rect3636"
     style="fill:#e8e1cf;fill-opacity:1;stroke:#e8e1cf;stroke-width:0.412;stroke-linecap:round;stroke-dasharray:none;stroke-opacity:1;stop-color:#000000"
     d="m 150,270.15234 -4.14062,17.70508 h 0.0684 c 1.7415,0 3.25264,-0.93497 4.07227,-2.33008 0.81963,1.39511 2.33077,2.33008 4.07227,2.33008 h 0.0684 z" /><path
     id="rect7197"
     style="fill:#2b292f;fill-opacity:1;stroke-width:0.285336;stroke-linecap:round;stop-color:#000000"
     d="m 132.67059,215.41698 h 34.65881 a 9.763219,9.763219 0 0 1 9.29872,12.73881 l -3.36136,10.50427 a 18.323314,18.323314 0 0 1 -17.45157,12.73881 H 144.1848 a 18.323314,18.323314 0 0 1 -17.45157,-12.73881 l -3.36136,-10.50427 a 9.7632196,9.7632196 0 0 1 9.29872,-12.73881 z"
     sodipodi:nodetypes="ccccc" /><path
     d="m 294.25341,112.64447 c -10.27237,16.0317 -26.92181,13.40554 -42.96075,3.12854 C 235.25372,105.496 225.93169,91.45018 236.19013,75.440218 a 34.484372,34.484372 0 1 1 58.06328,37.204252 z"
     fill="#2f2c38"
     id="path7880"
     style="fill:#bd6231;fill-opacity:1;stroke-width:0.860389" /><path
     d="m 274.35585,108.58085 c -5.70017,8.89603 -32.99679,-8.594382 -27.29663,-17.490415 5.70017,-8.896033 16.43764,-12.193679 23.97174,-7.366177 7.5341,4.827502 9.02969,15.95331 3.32489,24.856592 z"
     fill="#15141a"
     id="path7884"
     style="fill:#893d15;fill-opacity:1;stroke-width:0.860389" /><g
     transform="matrix(-0.72443267,0.46418287,0.46418287,0.72443267,4.09515,-280.59129)"
     class="UnoptimicedTransforms"
     id="g8751"><path
       id="path8747"
       d="m 244.96107,385.85923 c 0,22.13 -17.94,30 -40.08,30 -22.14,0 -40.07,-7.9 -40.07,-30 a 40.08,40.08 0 1 1 80.15,0 z"
       style="fill:#bd6231;fill-opacity:1"
       fill="#2f2c38" /><path
       id="path8749"
       d="m 222.94107,394.35923 c 0,12.28 -37.68,12.28 -37.68,0 0,-12.28 8.44,-22.24 18.84,-22.24 10.4,0 18.84,9.95 18.84,22.24 z"
       style="fill:#893d15;fill-opacity:1"
       fill="#15141a" /></g><path
     d="m 130.43043,79.761803 a 69.210874,69.210874 0 0 0 -8.58959,10.682328 c -2.35412,3.713183 -4.05726,7.758338 -3.99737,11.464329 a 11.136368,11.136368 0 0 0 1.29395,5.10291 7.0126041,7.0126041 0 0 0 3.17842,3.24454 10.761481,10.761481 0 0 0 4.90542,0.91932 27.366797,27.366797 0 0 0 5.91557,-0.8616 l 4.63804,-1.11191 0.14959,4.66835 a 22.614545,22.614545 0 0 0 0.72477,5.04124 12.74618,12.74618 0 0 0 2.04782,4.16955 10.90482,10.90482 0 0 0 3.46929,2.93345 8.5672849,8.5672849 0 0 0 1.97551,0.79115 7.7734055,7.7734055 0 0 0 2.16006,0.093 c 3.06316,-0.23419 6.44238,-2.32533 9.39592,-4.83638 a 68.020054,68.020054 0 0 0 8.40247,-8.76187 35.096098,35.096098 0 0 1 -2.41436,5.79139 36.386153,36.386153 0 0 1 -3.36014,5.42446 26.462656,26.462656 0 0 1 -4.55358,4.81588 16.34069,16.34069 0 0 1 -6.43054,3.36341 13.231329,13.231329 0 0 1 -3.95386,0.35258 13.462877,13.462877 0 0 1 -3.89397,-0.89433 16.53916,16.53916 0 0 1 -6.28401,-4.35762 18.215129,18.215129 0 0 1 -3.75444,-6.5515 25.481333,25.481333 0 0 1 -0.881,-3.52411 32.449833,32.449833 0 0 1 -0.35481,-3.5034 l 4.78965,3.581 a 29.770489,29.770489 0 0 1 -7.80141,1.09218 17.057388,17.057388 0 0 1 -8.5024,-2.05103 13.948026,13.948026 0 0 1 -5.91644,-6.96599 16.858918,16.858918 0 0 1 -1.14313,-8.35631 20.210855,20.210855 0 0 1 2.58709,-7.586951 30.343846,30.343846 0 0 1 4.57452,-5.935841 40.44376,40.44376 0 0 1 5.52198,-4.653725 38.591375,38.591375 0 0 1 6.10098,-3.578539 z"
     fill="#aa7750"
     id="path8775"
     style="stroke-width:1.10261;fill:#893d15;fill-opacity:1" /><g
     id="g15338"
     transform="matrix(1,0,0,-1,0,533.12219)"
     inkscape:path-effect="#path-effect15340"
     class="UnoptimicedTransforms"><circle
       style="fill:#673418;fill-opacity:1;fill-rule:evenodd;stroke-width:0.704545"
       id="path14465"
       cx="36.138603"
       cy="263.97604"
       r="5.0922575"
       d="m 41.230861,263.97604 a 5.0922575,5.0922575 0 0 1 -5.092258,5.09226 5.0922575,5.0922575 0 0 1 -5.092257,-5.09226 5.0922575,5.0922575 0 0 1 5.092257,-5.09225 5.0922575,5.0922575 0 0 1 5.092258,5.09225 z" /><circle
       style="fill:#673418;fill-opacity:1;fill-rule:evenodd;stroke-width:0.704545"
       id="circle14605"
       cx="51.086842"
       cy="275.14615"
       r="5.0922575"
       d="m 56.179099,275.14615 a 5.0922575,5.0922575 0 0 1 -5.092257,5.09226 5.0922575,5.0922575 0 0 1 -5.092258,-5.09226 5.0922575,5.0922575 0 0 1 5.092258,-5.09226 5.0922575,5.0922575 0 0 1 5.092257,5.09226 z" /><circle
       style="fill:#673418;fill-opacity:1;fill-rule:evenodd;stroke-width:0.704545"
       id="circle14607"
       cx="21.190361"
       cy="275.14615"
       r="5.0922575"
       d="m 26.282619,275.14615 a 5.0922575,5.0922575 0 0 1 -5.092258,5.09226 5.0922575,5.0922575 0 0 1 -5.092257,-5.09226 5.0922575,5.0922575 0 0 1 5.092257,-5.09226 5.0922575,5.0922575 0 0 1 5.092258,5.09226 z" /></g><g
     transform="rotate(-180,150,266.5611)"
     class="UnoptimicedTransforms"
     id="g15348"><path
       id="path15342"
       d="m 41.230861,263.97604 a 5.0922575,5.0922575 0 0 1 -5.092258,5.09226 5.0922575,5.0922575 0 0 1 -5.092257,-5.09226 5.0922575,5.0922575 0 0 1 5.092257,-5.09225 5.0922575,5.0922575 0 0 1 5.092258,5.09225 z"
       style="fill:#673418;fill-opacity:1;fill-rule:evenodd;stroke-width:0.704545" /><path
       id="path15344"
       d="m 56.179099,275.14615 a 5.0922575,5.0922575 0 0 1 -5.092257,5.09226 5.0922575,5.0922575 0 0 1 -5.092258,-5.09226 5.0922575,5.0922575 0 0 1 5.092258,-5.09226 5.0922575,5.0922575 0 0 1 5.092257,5.09226 z"
       style="fill:#673418;fill-opacity:1;fill-rule:evenodd;stroke-width:0.704545" /><path
       id="path15346"
       d="m 26.282619,275.14615 a 5.0922575,5.0922575 0 0 1 -5.092258,5.09226 5.0922575,5.0922575 0 0 1 -5.092257,-5.09226 5.0922575,5.0922575 0 0 1 5.092257,-5.09226 5.0922575,5.0922575 0 0 1 5.092258,5.09226 z"
       style="fill:#673418;fill-opacity:1;fill-rule:evenodd;stroke-width:0.704545" /></g><path
     id="path16012"
     d="M 203.71627,201.8021 A 38.863735,38.863735 0 0 0 242.58,240.66583 38.863735,38.863735 0 0 0 281.44374,201.8021 38.863735,38.863735 0 0 0 242.58,162.93836 38.863735,38.863735 0 0 0 203.71627,201.8021 Z"
     style="fill:#893d15;fill-opacity:1;stroke-width:1.06622" /><path
     id="path16014"
     d="M 203.71627,209.8021 A 38.863735,38.863735 0 0 0 242.58,248.66583 38.863735,38.863735 0 0 0 281.44374,209.8021 38.863735,38.863735 0 0 0 242.58,170.93836 38.863735,38.863735 0 0 0 203.71627,209.8021 Z"
     style="fill:#ffffff;fill-opacity:1;stroke-width:1.06622" /><path
     transform="matrix(-0.94798201,0,0,0.94798201,463.50994,0.746726)"
     class="UnoptimicedTransforms"
     id="path16016"
     d="m 208.74439,218.85942 a 31.330471,31.330471 0 1 0 31.33047,-31.33048 32.578871,32.578871 0 0 0 -4.38035,0.30662 18.058003,18.058003 0 0 1 -26.22737,24.47522 31.483783,31.483783 0 0 0 -0.72275,6.54864 z m 37.03587,12.9987 a 7.45755,7.45755 0 1 1 7.44661,7.45755 7.4356482,7.4356482 0 0 1 -7.44661,-7.45755 z"
     style="fill:#2b292f;fill-opacity:1;stroke-width:1.09509" /><path
     id="ellipse229"
     style="fill:#893d15;fill-opacity:1"
     class="cls-4 UnoptimicedTransforms"
     d="m 46.762423,148.84769 a 18.85,12.66 0 0 0 -7.214797,-0.96421 18.85,12.66 0 0 0 -18.849097,12.66042 18.85,12.66 0 0 0 18.851026,12.65916 18.85,12.66 0 0 0 18.84865,-12.65853 18.85,12.66 0 0 0 -11.635782,-11.69684 z m 137.154687,32.21272 a 18.85,12.66 26.434348 0 0 -15.62631,5.29395 18.85,12.66 26.434348 0 0 11.24271,19.72591 18.85,12.66 26.434348 0 0 22.51556,-2.94363 18.85,12.66 26.434348 0 0 -11.24226,-19.72781 18.85,12.66 26.434348 0 0 -6.8897,-2.34842 z"
     transform="rotate(-13.217174,-25.894252,-3)" /><g
     id="g4323"><path
       id="rect373"
       style="fill:#3f312f;fill-opacity:1;stroke-width:1.073;stroke-linejoin:round;stop-color:#000000;stroke:#3f312f;stroke-opacity:1;stroke-dasharray:none"
       d="M 300 267.85547 C 294.96948 289.28111 282.15814 308.0428 252.71484 288.96289 C 240.82001 281.25477 229.85048 275.14688 215.49805 274.69531 C 210.7139 274.54478 205.57656 274.99336 199.94336 276.15625 C 176.89963 289.27325 170.25772 322.53489 182.57227 344.83594 L 263.61914 344.83594 A 36.38 36.38 0 0 0 300 308.45703 L 300 267.85547 z " /><path
       id="path2305"
       style="fill:#5a3a35;fill-opacity:1;stroke-width:1.373;stroke-linejoin:round;stop-color:#000000;stroke:#5a3a35;stroke-opacity:1;stroke-dasharray:none"
       d="M 300 267.86133 C 294.96823 289.28433 282.15542 308.04103 252.71484 288.96289 C 240.82003 281.25478 229.85046 275.14688 215.49805 274.69531 C 210.7139 274.54478 205.57655 274.99336 199.94336 276.15625 C 194.09477 279.4854 189.30704 284.1152 185.61328 289.53125 C 188.07519 287.50118 190.77665 285.68702 193.73438 284.15625 C 199.93001 282.99336 205.58195 282.54478 210.84375 282.69531 C 226.62915 283.14688 238.69293 289.25478 251.77539 296.96289 C 278.47656 312.69508 292.72424 302.70968 300 286.71484 L 300 267.86133 z " /><path
       id="path2528"
       style="color:#000000;fill:#100d0e;fill-opacity:0.35809;stroke-width:6.80273;stroke-linejoin:round"
       d="M 220.26953 275.07227 L 230.74414 287.67578 L 212.4043 309.74805 L 194.06445 287.67578 L 204.26953 275.39258 C 204.25891 275.39415 204.24891 275.39491 204.23828 275.39648 C 202.8369 275.60421 201.4093 275.85363 199.94336 276.15625 C 199.22439 276.56551 198.52094 276.99387 197.83398 277.44141 C 197.83324 277.44189 197.83278 277.44287 197.83203 277.44336 C 197.14587 277.89044 196.47632 278.35646 195.82227 278.83984 C 195.27928 279.24114 194.75319 279.66276 194.23242 280.08789 C 194.12483 280.17573 194.01094 280.25687 193.9043 280.3457 C 193.67374 280.53773 193.45658 280.74287 193.23047 280.93945 C 192.84688 281.27299 192.45864 281.60099 192.08789 281.94727 C 192.08387 281.95102 192.0802 281.95522 192.07617 281.95898 C 191.48544 282.51108 190.91151 283.07921 190.35352 283.66211 C 189.79959 284.24077 189.2637 284.83425 188.74219 285.44141 C 188.52464 285.69465 188.32126 285.95882 188.10938 286.2168 C 187.80548 286.58679 187.49535 286.95069 187.20312 287.33008 C 186.71408 287.96502 186.24139 288.61369 185.78516 289.27344 C 185.78227 289.27761 185.77828 289.28098 185.77539 289.28516 C 185.32315 289.93957 184.88858 290.60623 184.46875 291.2832 C 184.04349 291.96894 183.63404 292.66604 183.24219 293.37305 C 182.85033 294.08005 182.47548 294.79705 182.11719 295.52344 C 181.9363 295.89015 181.77191 296.26542 181.59961 296.63672 C 181.42415 297.01479 181.24076 297.38892 181.07422 297.77148 C 180.75645 298.5015 180.4551 299.23936 180.16992 299.98438 C 179.96491 300.51997 179.77795 301.06291 179.58984 301.60547 C 179.50832 301.84062 179.41819 302.07223 179.33984 302.30859 C 179.2257 302.65297 179.1269 303.00279 179.01953 303.34961 C 178.88457 303.78547 178.74338 304.21877 178.61914 304.6582 C 178.40062 305.43111 178.19892 306.20966 178.01367 306.99219 L 190.35938 292.13477 L 208.70117 314.20508 L 190.35938 336.2793 L 176.49023 319.58594 C 176.49003 319.60743 176.49041 319.6289 176.49023 319.65039 C 176.48372 320.43803 176.49495 321.22588 176.52148 322.01172 C 176.52507 322.11857 176.53291 322.22523 176.53711 322.33203 C 176.56569 323.05537 176.60351 323.77773 176.66016 324.49805 C 176.66675 324.58224 176.67662 324.66586 176.68359 324.75 C 176.7451 325.48884 176.81907 326.22481 176.91016 326.95898 C 176.91889 327.0295 176.93045 327.09946 176.93945 327.16992 C 177.03556 327.92061 177.14437 328.66983 177.27148 329.41406 C 177.27338 329.42516 177.27544 329.43617 177.27734 329.44727 L 186.65625 340.73633 L 183.24805 344.83594 L 197.47266 344.83594 L 194.06445 340.73633 L 212.4043 318.66211 L 230.74414 340.73438 L 227.33398 344.83594 L 241.56055 344.83594 L 238.15234 340.73438 L 256.49219 318.66211 L 274.83203 340.73633 L 272.44336 343.61133 A 36.38 36.38 0 0 0 273.18555 343.41211 A 36.38 36.38 0 0 0 284.77148 337.68945 L 296.29688 323.82031 A 36.38 36.38 0 0 0 299.95703 308.78906 L 288.51562 291.17969 C 287.03398 292.5857 285.41034 293.76988 283.63086 294.68945 L 296.875 314.20703 L 278.53516 336.2793 L 260.19531 314.20508 L 274.45703 296.85547 C 272.38158 296.85684 270.16594 296.58547 267.79297 295.98438 L 256.49219 309.74805 L 238.15234 287.67578 L 242.29883 282.68555 C 240.57656 281.74414 238.85054 280.83511 237.09961 280.02734 L 234.44727 283.21875 L 229.30273 277.02344 C 226.68732 276.21611 223.98983 275.59093 221.16992 275.19141 C 220.94934 275.16123 220.73178 275.12519 220.50977 275.09766 C 220.4306 275.08749 220.34889 275.08208 220.26953 275.07227 z M 234.44727 292.13477 L 252.78711 314.20508 L 234.44727 336.27734 L 216.10742 314.20508 L 234.44727 292.13477 z " /></g><g
     transform="matrix(-1,0,0,1,298,-11.1)"
     class="UnoptimicedTransforms"
     id="g613"><path
       id="path607"
       d="M 94.283733,212.9021 A 38.863735,38.863735 0 0 1 55.419998,251.76583 38.863735,38.863735 0 0 1 16.556263,212.9021 38.863735,38.863735 0 0 1 55.419998,174.03836 38.863735,38.863735 0 0 1 94.283733,212.9021 Z"
       style="fill:#893d15;fill-opacity:1;stroke-width:1.06622" /><path
       id="path609"
       d="M 94.283733,220.9021 A 38.863735,38.863735 0 0 1 55.419998,259.76583 38.863735,38.863735 0 0 1 16.556263,220.9021 38.863735,38.863735 0 0 1 55.419998,182.03836 38.863735,38.863735 0 0 1 94.283733,220.9021 Z"
       style="fill:#ffffff;fill-opacity:1;stroke-width:1.06622" /><path
       transform="matrix(0.94798201,0,0,0.94798201,-165.50994,11.846726)"
       class="UnoptimicedTransforms"
       id="path611"
       d="m 208.74439,218.85942 a 31.330471,31.330471 0 1 0 31.33047,-31.33048 32.578871,32.578871 0 0 0 -4.38035,0.30662 18.058003,18.058003 0 0 1 -26.22737,24.47522 31.483783,31.483783 0 0 0 -0.72275,6.54864 z m 37.03587,12.9987 a 7.45755,7.45755 0 1 1 7.44661,7.45755 7.4356482,7.4356482 0 0 1 -7.44661,-7.45755 z"
       style="fill:#2b292f;fill-opacity:1;stroke-width:1.09509" /></g></svg>
