<?xml version="1.0" encoding="UTF-8" standalone="no"?>
<svg
   viewBox="0 0 300 345"
   version="1.1"
   id="svg843"
   xml:space="preserve"
   sodipodi:docname="blossomBee.svg"
   inkscape:version="1.4 (e7c3feb1, 2024-10-09)"
   xmlns:inkscape="http://www.inkscape.org/namespaces/inkscape"
   xmlns:sodipodi="http://sodipodi.sourceforge.net/DTD/sodipodi-0.dtd"
   xmlns:xlink="http://www.w3.org/1999/xlink"
   xmlns="http://www.w3.org/2000/svg"
   xmlns:svg="http://www.w3.org/2000/svg"
   xmlns:rdf="http://www.w3.org/1999/02/22-rdf-syntax-ns#"
   xmlns:cc="http://creativecommons.org/ns#"
   xmlns:dc="http://purl.org/dc/elements/1.1/"><sodipodi:namedview
     id="namedview1"
     pagecolor="#505050"
     bordercolor="#ffffff"
     borderopacity="1"
     inkscape:showpageshadow="0"
     inkscape:pageopacity="0"
     inkscape:pagecheckerboard="1"
     inkscape:deskcolor="#505050"
     inkscape:zoom="0.17717018"
     inkscape:cx="-750.69066"
     inkscape:cy="301.96955"
     inkscape:window-width="1472"
     inkscape:window-height="808"
     inkscape:window-x="0"
     inkscape:window-y="38"
     inkscape:window-maximized="0"
     inkscape:current-layer="svg843" /><metadata
     id="metadata847"><rdf:RDF><cc:Work
         rdf:about=""><dc:format>image/svg+xml</dc:format><dc:type
           rdf:resource="http://purl.org/dc/dcmitype/StillImage" /></cc:Work></rdf:RDF></metadata><defs
     id="defs837"><inkscape:path-effect
       effect="mirror_symmetry"
       start_point="150,0.42125678"
       end_point="150,345.42126"
       center_point="150,172.92126"
       id="path-effect217"
       is_visible="true"
       lpeversion="1.2"
       lpesatellites="#g218"
       mode="vertical"
       discard_orig_path="false"
       fuse_paths="false"
       oposite_fuse="false"
       split_items="true"
       split_open="false"
       link_styles="false" /><inkscape:path-effect
       effect="fillet_chamfer"
       id="path-effect204"
       is_visible="true"
       lpeversion="1"
       nodesatellites_param="F,0,0,1,0,3.765092,0,1 @ F,0,0,1,0,2.0518643,0,1 @ F,0,0,1,0,3.8030317,0,1 @ F,0,0,1,0,0,0,1"
       radius="0"
       unit="px"
       method="auto"
       mode="F"
       chamfer_steps="1"
       flexible="false"
       use_knot_distance="true"
       apply_no_radius="true"
       apply_with_radius="true"
       only_selected="false"
       hide_knots="false" /><inkscape:path-effect
       effect="mirror_symmetry"
       start_point="150,0"
       end_point="150,345"
       center_point="150,172.5"
       id="path-effect185"
       is_visible="true"
       lpeversion="1.2"
       lpesatellites=""
       mode="vertical"
       discard_orig_path="false"
       fuse_paths="false"
       oposite_fuse="false"
       split_items="true"
       split_open="false"
       link_styles="false" /><linearGradient
       y2="161.16"
       x2="150"
       y1="356.11"
       x1="150"
       id="linearGradient183"
       gradientUnits="userSpaceOnUse"><stop
         stop-color="#0bc2cf"
         offset="0"
         id="stop182"
         style="stop-color:#419a12;stop-opacity:1;" /><stop
         stop-color="#0b4fac"
         offset="0.54744524"
         id="stop183"
         style="stop-color:#024b4b;stop-opacity:1;" /></linearGradient><linearGradient
       y2="161.16"
       x2="150"
       y1="356.11"
       x1="150"
       id="A"
       gradientUnits="userSpaceOnUse"><stop
         stop-color="#0bc2cf"
         offset="0"
         id="stop832"
         style="stop-color:#ea1d21;stop-opacity:1;" /><stop
         stop-color="#0b4fac"
         offset="0.54744524"
         id="stop834"
         style="stop-color:#4b0209;stop-opacity:1;" /></linearGradient><linearGradient
       inkscape:collect="always"
       xlink:href="#linearGradient183"
       id="linearGradient182"
       gradientUnits="userSpaceOnUse"
       gradientTransform="translate(0.11626,-0.1152975)"
       x1="150"
       y1="356.11"
       x2="150"
       y2="161.16" /><linearGradient
       id="A-7"
       x1="150"
       y1="356.10999"
       x2="150"
       y2="161.16"
       gradientUnits="userSpaceOnUse"><stop
         offset="0.11111111"
         stop-color="#995b3c"
         id="stop2"
         style="stop-color:#d2d2d3;stop-opacity:1;" /><stop
         offset="0.42696145"
         stop-color="#51291b"
         id="stop4"
         style="stop-color:#a4a4a5;stop-opacity:1;" /></linearGradient><linearGradient
       id="linearGradient14215"><stop
         style="stop-color:#1b5f63;stop-opacity:1;"
         offset="0.44217688"
         id="stop14211" /><stop
         style="stop-color:#2698a3;stop-opacity:1;"
         offset="1"
         id="stop14213" /></linearGradient><linearGradient
       xlink:href="#linearGradient14215"
       id="linearGradient14217"
       x1="152.82039"
       y1="251.41016"
       x2="150.05249"
       y2="338.30457"
       gradientUnits="userSpaceOnUse"
       gradientTransform="translate(-365.55339,-4.0540541)" /><inkscape:path-effect
       effect="mirror_symmetry"
       start_point="123.58142,237.36858"
       end_point="123.58142,306.37196"
       center_point="123.58142,271.87027"
       id="path-effect1690"
       is_visible="true"
       lpeversion="1.2"
       lpesatellites=""
       mode="vertical"
       discard_orig_path="false"
       fuse_paths="false"
       oposite_fuse="false"
       split_items="true"
       split_open="false"
       link_styles="false" /><inkscape:path-effect
       effect="mirror_symmetry"
       start_point="125.26241,283.83594"
       end_point="125.26241,345"
       center_point="125.26241,314.41797"
       id="path-effect14860"
       is_visible="true"
       lpeversion="1.2"
       lpesatellites=""
       mode="vertical"
       discard_orig_path="false"
       fuse_paths="false"
       oposite_fuse="false"
       split_items="true"
       split_open="false"
       link_styles="false" /><inkscape:path-effect
       effect="mirror_symmetry"
       start_point="128.10742,150.11693"
       end_point="128.10742,208.27734"
       center_point="128.10742,179.19713"
       id="path-effect10915"
       is_visible="true"
       lpeversion="1.2"
       lpesatellites=""
       mode="vertical"
       discard_orig_path="false"
       fuse_paths="false"
       oposite_fuse="false"
       split_items="true"
       split_open="false"
       link_styles="false" /><inkscape:path-effect
       effect="mirror_symmetry"
       start_point="120.19538,264.93359"
       end_point="120.19538,310.66"
       center_point="120.19538,287.79679"
       id="path-effect9662"
       is_visible="true"
       lpeversion="1.2"
       lpesatellites=""
       mode="vertical"
       discard_orig_path="false"
       fuse_paths="false"
       oposite_fuse="false"
       split_items="true"
       split_open="false"
       link_styles="false" /><inkscape:path-effect
       effect="mirror_symmetry"
       start_point="120.21738,219.11743"
       end_point="120.21738,310.66078"
       center_point="120.21738,264.8891"
       id="path-effect9659"
       is_visible="true"
       lpeversion="1.2"
       lpesatellites=""
       mode="vertical"
       discard_orig_path="false"
       fuse_paths="false"
       oposite_fuse="false"
       split_items="true"
       split_open="false"
       link_styles="false" /><inkscape:path-effect
       effect="mirror_symmetry"
       start_point="120.21738,219.11743"
       end_point="120.21738,310.66078"
       center_point="120.21738,264.8891"
       id="path-effect7211"
       is_visible="true"
       lpeversion="1.2"
       lpesatellites=""
       mode="vertical"
       discard_orig_path="false"
       fuse_paths="false"
       oposite_fuse="false"
       split_items="true"
       split_open="false"
       link_styles="false" /><inkscape:path-effect
       effect="mirror_symmetry"
       start_point="72.488544,294.60088"
       end_point="72.488544,348.50261"
       center_point="72.488544,321.55174"
       id="path-effect1995"
       is_visible="true"
       lpeversion="1.2"
       lpesatellites=""
       mode="vertical"
       discard_orig_path="false"
       fuse_paths="false"
       oposite_fuse="false"
       split_items="false"
       split_open="false"
       link_styles="false" /><linearGradient
       id="A-9"
       x1="150"
       y1="356.11"
       x2="150"
       y2="161.16"
       gradientUnits="userSpaceOnUse"><stop
         offset="0"
         stop-color="#594a42"
         id="stop2-4"
         style="stop-color:#7b3a3e;stop-opacity:1;" /><stop
         offset="0.3111878"
         stop-color="#281813"
         id="stop4-3"
         style="stop-color:#3a1616;stop-opacity:1;" /></linearGradient><inkscape:path-effect
       effect="mirror_symmetry"
       start_point="123.58142,237.36858"
       end_point="123.58142,306.37196"
       center_point="123.58142,271.87027"
       id="path-effect1690-6"
       is_visible="true"
       lpeversion="1.2"
       lpesatellites=""
       mode="vertical"
       discard_orig_path="false"
       fuse_paths="false"
       oposite_fuse="false"
       split_items="true"
       split_open="false"
       link_styles="false" /><inkscape:path-effect
       effect="mirror_symmetry"
       start_point="125.26241,283.83594"
       end_point="125.26241,345"
       center_point="125.26241,314.41797"
       id="path-effect14860-3"
       is_visible="true"
       lpeversion="1.2"
       lpesatellites=""
       mode="vertical"
       discard_orig_path="false"
       fuse_paths="false"
       oposite_fuse="false"
       split_items="true"
       split_open="false"
       link_styles="false" /><inkscape:path-effect
       effect="mirror_symmetry"
       start_point="128.10742,150.11693"
       end_point="128.10742,208.27734"
       center_point="128.10742,179.19713"
       id="path-effect10915-6"
       is_visible="true"
       lpeversion="1.2"
       lpesatellites=""
       mode="vertical"
       discard_orig_path="false"
       fuse_paths="false"
       oposite_fuse="false"
       split_items="true"
       split_open="false"
       link_styles="false" /><inkscape:path-effect
       effect="mirror_symmetry"
       start_point="120.19538,264.93359"
       end_point="120.19538,310.66"
       center_point="120.19538,287.79679"
       id="path-effect9662-3"
       is_visible="true"
       lpeversion="1.2"
       lpesatellites=""
       mode="vertical"
       discard_orig_path="false"
       fuse_paths="false"
       oposite_fuse="false"
       split_items="true"
       split_open="false"
       link_styles="false" /><inkscape:path-effect
       effect="mirror_symmetry"
       start_point="120.21738,219.11743"
       end_point="120.21738,310.66078"
       center_point="120.21738,264.8891"
       id="path-effect9659-0"
       is_visible="true"
       lpeversion="1.2"
       lpesatellites=""
       mode="vertical"
       discard_orig_path="false"
       fuse_paths="false"
       oposite_fuse="false"
       split_items="true"
       split_open="false"
       link_styles="false" /><inkscape:path-effect
       effect="mirror_symmetry"
       start_point="120.21738,219.11743"
       end_point="120.21738,310.66078"
       center_point="120.21738,264.8891"
       id="path-effect7211-8"
       is_visible="true"
       lpeversion="1.2"
       lpesatellites=""
       mode="vertical"
       discard_orig_path="false"
       fuse_paths="false"
       oposite_fuse="false"
       split_items="true"
       split_open="false"
       link_styles="false" /><inkscape:path-effect
       effect="mirror_symmetry"
       start_point="72.488544,294.60088"
       end_point="72.488544,348.50261"
       center_point="72.488544,321.55174"
       id="path-effect1995-4"
       is_visible="true"
       lpeversion="1.2"
       lpesatellites=""
       mode="vertical"
       discard_orig_path="false"
       fuse_paths="false"
       oposite_fuse="false"
       split_items="false"
       split_open="false"
       link_styles="false" /><linearGradient
       id="A-0"
       x1="150"
       y1="356.11"
       x2="150"
       y2="161.16"
       gradientUnits="userSpaceOnUse"><stop
         offset="0"
         stop-color="#594a42"
         id="stop2-46"
         style="stop-color:#36363a;stop-opacity:1;" /><stop
         offset="0.3111878"
         stop-color="#281813"
         id="stop4-4"
         style="stop-color:#19191c;stop-opacity:1;" /></linearGradient></defs><g
     id="g220"
     transform="translate(-0.116725)"><path
       id="path186"
       d="m 228,210.66667 c 0,0 45.00043,-31.15628 56.66667,-54.66667 7.55957,-15.23442 13.83862,-35.57394 6,-50.66667 -7.33245,-14.118131 -27.00995,-27.994406 -42,-22.666663 -34.45278,12.245161 -42,101.333333 -42,101.333333 z"
       style="opacity:1;fill:#e8bbff;fill-opacity:1;stroke:none;stroke-width:5.095;stroke-linejoin:round;stroke-opacity:1"
       transform="matrix(-1,0,0,1,300,0)" /><path
       style="opacity:1;fill:#e8bbff;fill-opacity:1;stroke:none;stroke-width:5.095;stroke-linejoin:round;stroke-opacity:1"
       d="m 228,210.66667 c 0,0 45.00043,-31.15628 56.66667,-54.66667 7.55957,-15.23442 13.83862,-35.57394 6,-50.66667 -7.33245,-14.118131 -27.00995,-27.994406 -42,-22.666663 -34.45278,12.245161 -42,101.333333 -42,101.333333 z"
       id="path185"
       sodipodi:nodetypes="caaacc" /><path
       d="m 263.73626,344.8847 h -227.24 a 36.38,36.38 0 0 1 -36.38,-36.38 v -49.48 h 300 v 49.48 a 36.38,36.38 0 0 1 -36.38,36.38 z"
       fill="url(#A)"
       id="path137"
       style="display:inline;fill:url(#linearGradient182)" /><path
       id="path203"
       style="display:inline;fill:#caa1eb;fill-opacity:1"
       d="m 0.11626,197.30664 v 72.58783 c 0,20.15448 16.22638,36.38085 36.38086,36.38085 H 263.7354 c 20.15448,0 36.38086,-16.22637 36.38086,-36.38085 v -54.63343 z"
       sodipodi:nodetypes="csssscc" /><path
       id="path139"
       style="display:inline;fill:#e8bbff;fill-opacity:1"
       d="m 44.91016,155.91552 c -3.06111,5.92084 -9.19104,8.76591 -14.81145,5.16319 -4.24046,-2.71815 -8.31373,-5.63695 -12.24502,-8.72612 -10.33453,-8.12076 -17.73743,-5.205 -17.73743,7.94642 v 101.59546 c 0,20.15448 16.22638,36.38085 36.38086,36.38085 H 263.7354 c 20.15448,0 36.38086,-16.22637 36.38086,-36.38085 v -83.64106 c 0,-17.96412 -7.70708,-19.96046 -20.19794,-7.07806 -10.06182,10.37722 -21.47671,18.34617 -35.41229,21.48663 -7.53695,1.69849 -11.85039,-4.48303 -9.88601,-11.9712 5.32716,-20.30705 -179.67918,-44.17675 -189.70986,-24.77526 z"
       sodipodi:nodetypes="sssssssssssss" /><path
       style="opacity:1;fill:#caa1eb;fill-opacity:1;stroke:none;stroke-width:5.04267;stroke-linejoin:round;stroke-opacity:1"
       d="m 56.565657,193.05304 c -3.942269,17.10268 -8.902314,22.85726 -1.324891,37.13888 4.657314,8.77791 20.048308,26.52459 25.567315,35.09149 l 17.324441,10.42669 c 33.276968,-3.60141 72.538818,-3.69954 106.905808,4.44428 l 38.17695,-45.70127 1.16831,-41.71433 -85.79773,-39.26403 -88.88889,11.87348 z"
       id="path210"
       sodipodi:nodetypes="cscccccccc" /><path
       id="path192"
       style="opacity:1;fill:#caa1eb;fill-opacity:1;stroke:none;stroke-width:5.095;stroke-linejoin:round;stroke-opacity:1"
       d="m 291.52148,107.22461 c 0,0 -0.1201,18.57187 -3.81638,30.48072 -7.49395,24.14444 -47.72691,64.08243 -50.40916,61.06491 l 19.13179,-10.50266 C 267.84439,178.23974 279.50952,166.39164 284.66602,156 c 7.25032,-14.61121 13.28622,-33.90503 6.85546,-48.77539 z M 11.839844,148.74023 c 1.241014,2.55051 2.494783,4.97774 3.630859,6.79493 13.239573,21.17708 46.824219,58.49023 46.824219,58.49023 l 25.691406,-15.54101 c 0,0 -38.837126,-13.63008 -54.384766,-26.46485 -5.607888,-4.62938 -12.046385,-13.06318 -17.363281,-20.76172 -1.537535,-1.06479 -3.027116,-1.9692 -4.398437,-2.51758 z m 7.523437,68.4336 c -7.277551,0.0874 -15.522759,0.98108 -19.2460935,1.40625 v 2.65234 c 5.1339466,-0.65765 16.0588865,-1.80956 22.1796875,-0.625 19.398362,3.75419 54.054687,24.32422 54.054687,24.32422 l -9.458984,-20.26953 c 0,0 -29.091738,-6.66881 -43.919922,-7.43164 -1.084744,-0.0558 -2.304848,-0.0723 -3.609375,-0.0566 z M 249.18945,232.2832 c -9.56213,-0.0629 -19.25839,0.74883 -29.13867,2.75391 l -6.98633,1.74609 c 30.63044,-0.90776 60.29334,2.29769 87.05274,17.8418 v -15.21875 c -16.73026,-3.97011 -33.60429,-7.00917 -50.92774,-7.12305 z M 92.568359,255.74414 C 85.281405,269.1885 78.23909,282.75535 75.103516,298.27539 h 3.029296 c 4.401176,-14.57272 11.43729,-27.64048 21.191407,-39.1543 z m 81.074221,13.24805 c 14.84427,7.09612 26.4497,16.68313 34.13867,29.2832 h 5.05859 c -5.90825,-10.86721 -11.72703,-21.76255 -28.34375,-29.2832 z"
       sodipodi:nodetypes="csccsccsccsccsccsccsssccccsccccccccccc" /><path
       style="opacity:1;fill:#ffd32d;fill-opacity:1;stroke:none;stroke-width:5.095;stroke-linejoin:round;stroke-opacity:1"
       d="m 56.565657,187.87879 c -6.365308,28.19065 9.744025,50.76264 24.242424,73.73737 l 20.938899,8.18431 c 33.27697,-3.67655 66.91633,-3.36673 101.28332,4.947 l 37.37374,-47.47474 -6.06061,-45.45455 -75.75757,-34.34343 -88.88889,12.12121 z"
       id="path184"
       sodipodi:nodetypes="ccccccccc" /><path
       style="opacity:1;fill:#f5c7ff;fill-opacity:1;stroke:none;stroke-width:5.095;stroke-linejoin:round;stroke-opacity:1"
       d="m 10.198494,168.85246 c -9.56661497,2.82604 -6.9597139,16.81333 -7.6361208,28.68852 -0.4780817,8.39333 35.9622178,15.98361 35.9622178,15.98361 l 4.589891,-4.5082 c 0,0 -14.860564,-45.49762 -32.915988,-40.16393 z"
       id="path195"
       sodipodi:nodetypes="ascca" /><path
       style="opacity:1;fill:#f5c7ff;fill-opacity:1;stroke:none;stroke-width:5.095;stroke-linejoin:round;stroke-opacity:1"
       d="m 59.42623,254.09836 c 0,0 -16.770455,-19.73212 -28.278689,-24.59016 -6.062107,-2.55903 -14.161921,-5.23593 -19.672131,-1.63935 -3.8710345,2.52667 -4.6817205,8.49536 -4.5081969,13.11476 0.5191543,13.82049 5.6083159,29.45701 16.3934429,38.11475 6.832252,5.48458 18.244091,9.31926 25.819672,4.91803 9.114671,-5.29541 10.245902,-29.91803 10.245902,-29.91803 z"
       id="path196"
       sodipodi:nodetypes="caaaaac" /><path
       style="opacity:1;fill:#f5c7ff;fill-opacity:1;stroke:none;stroke-width:6.00133;stroke-linejoin:round;stroke-opacity:1"
       d="m 133.27146,274.25572 c 19.83492,-1.25415 61.69164,9.33028 49.3051,17.26632 -6.89616,4.41836 -70.37416,3.66893 -83.439383,2.55797 -17.08436,-1.4527 16.944043,-18.73736 34.134283,-19.82429 z"
       id="path197"
       sodipodi:nodetypes="assa" /><path
       style="opacity:1;fill:#f5c7ff;fill-opacity:1;stroke:none;stroke-width:5.095;stroke-linejoin:round;stroke-opacity:1"
       d="m 238.0805,261.91951 c 0,0 -3.43743,20.86084 3.40557,26.62538 7.26812,6.12266 20.12476,3.2841 28.48297,-1.23839 10.27683,-5.56063 24.32006,-17.46353 20.43343,-28.48297 -5.91293,-16.76443 -51.39318,-14.24148 -51.39318,-14.24148 z"
       id="path198"
       sodipodi:nodetypes="caaacc" /><path
       style="opacity:1;fill:#f5c7ff;fill-opacity:1;stroke:none;stroke-width:4.76222;stroke-linejoin:round;stroke-opacity:1"
       d="m 258.85927,200.92879 c 6.43819,-9.004 14.21497,-20.97264 24.61324,-22.29102 2.68533,-0.34047 5.84038,1.42448 7.30284,4.02477 6.68759,11.89073 11.73465,33.43447 0.81142,42.41486 -10.39174,8.54342 -33.28501,3.40159 -39.4401,-8.56056 -2.58839,-5.03044 3.42207,-10.98614 6.7126,-15.58805 z"
       id="path199"
       sodipodi:nodetypes="aaaaaa" /><path
       style="opacity:1;fill:#ffaf14;fill-opacity:1;stroke:none;stroke-width:5.64577;stroke-linejoin:round;stroke-opacity:1"
       d="m 98.149759,254.25757 3.542451,7.02647 c 0.51798,1.02742 1.74909,1.47023 2.80283,1.00814 l 7.90817,-3.46797 c 0.83257,-0.3651 0.59,-1.60599 -0.31877,-1.63069 0,0 -5.20802,0.6337 -7.59835,-0.20657 -1.98585,-0.69808 -5.031451,-3.81612 -5.031451,-3.81612 -0.73603,-0.55823 -1.72074,0.26187 -1.30488,1.08674 z"
       id="path205"
       sodipodi:nodetypes="cccccasc" /><path
       style="opacity:1;fill:#ffaf14;fill-opacity:1;stroke:none;stroke-width:5.64577;stroke-linejoin:round;stroke-opacity:1"
       d="m 202.29924,251.37097 -3.54245,7.02647 c -0.51798,1.02742 -1.74909,1.47023 -2.80283,1.00814 l -7.90817,-3.46797 c -0.83257,-0.3651 -0.59,-1.60599 0.31877,-1.63069 0,0 5.20802,0.6337 7.59835,-0.20657 1.98585,-0.69808 5.03145,-3.81612 5.03145,-3.81612 0.73603,-0.55823 1.72074,0.26187 1.30488,1.08674 z"
       id="path206"
       sodipodi:nodetypes="cccccasc" /><path
       style="opacity:1;fill:#ffaf14;fill-opacity:1;stroke:none;stroke-width:5.64577;stroke-linejoin:round;stroke-opacity:1"
       d="m 236.73223,221.88643 -3.54245,7.02647 c -0.51798,1.02742 -1.74909,1.47023 -2.80283,1.00814 l -7.90817,-3.46797 c -0.83257,-0.3651 -0.59,-1.60599 0.31877,-1.63069 0,0 5.20802,0.6337 7.59835,-0.20657 1.98585,-0.69808 5.03145,-3.81612 5.03145,-3.81612 0.73603,-0.55823 1.72074,0.26187 1.30488,1.08674 z"
       id="path209"
       sodipodi:nodetypes="cccccasc" /><path
       style="opacity:1;fill:#ffaf14;fill-opacity:1;stroke:none;stroke-width:5.64577;stroke-linejoin:round;stroke-opacity:1"
       d="m 63.510574,222.50498 3.54245,7.02647 c 0.51798,1.02742 1.74909,1.47023 2.80283,1.00814 l 7.90817,-3.46797 c 0.83257,-0.3651 0.59,-1.60599 -0.31877,-1.63069 0,0 -5.20802,0.6337 -7.59835,-0.20657 -1.98585,-0.69808 -5.03145,-3.81612 -5.03145,-3.81612 -0.73603,-0.55823 -1.72074,0.26187 -1.30488,1.08674 z"
       id="path207"
       sodipodi:nodetypes="cccccasc" /><path
       style="opacity:1;fill:#ffaf14;fill-opacity:1;stroke:none;stroke-width:4.1012;stroke-linejoin:round;stroke-opacity:1"
       d="m 182.29395,262.40225 -4.70012,3.2532 c -0.68725,0.47569 -1.62652,0.33074 -2.13842,-0.32999 l -3.84164,-4.95875 c -0.40445,-0.52205 0.18121,-1.22958 0.76963,-0.92978 0,0 3.10295,2.21275 4.91989,2.50661 1.50948,0.24414 4.53543,-0.68779 4.53543,-0.68779 0.66346,-0.10061 1.00699,0.76458 0.45523,1.1465 z"
       id="path208"
       sodipodi:nodetypes="cccccasc" /><path
       style="opacity:1;fill:#ffaf14;fill-opacity:1;stroke:none;stroke-width:4.1012;stroke-linejoin:round;stroke-opacity:1"
       d="m 119.79607,261.78369 4.70012,3.2532 c 0.68725,0.47569 1.62652,0.33074 2.13842,-0.32999 l 3.84164,-4.95875 c 0.40445,-0.52205 -0.18121,-1.22958 -0.76963,-0.92978 0,0 -3.10295,2.21275 -4.91989,2.50661 -1.50948,0.24414 -4.53543,-0.68779 -4.53543,-0.68779 -0.66346,-0.10061 -1.00699,0.76458 -0.45523,1.1465 z"
       id="path204"
       sodipodi:nodetypes="cccccasc" /><path
       id="path152"
       style="display:inline;fill:#6d07ce;fill-opacity:0.34252;stroke-width:12.7137;stroke-linecap:round;stroke-linejoin:round;paint-order:stroke fill markers;stop-color:#000000"
       d="m 88.753038,171.29217 c -0.63247,16.12964 -20.717241,14.0996 -11.860361,27.65804 -0.46066,6.26161 -4.679997,9.72201 -11.951197,8.78262 -9.42445,0.67118 -16.527124,3.16425 -16.3855,9.4713 0.244246,10.87717 24.942038,8.76908 28.963259,15.04935 -1.563377,8.94084 -10.767859,17.81986 -5.984499,24.51167 6.941,6.80468 1.13361,22.34522 13.13942,23.10375 9.0947,2.86464 19.40517,-5.19229 20.20862,-9.82297 19.7113,-0.2201 54.33912,1.47971 75.55464,2.25778 5.5031,0.20182 14.28692,1.92984 19.01478,2.75868 5.389,6.36848 19.88041,9.34 24.09355,0.7684 -0.2213,-10.55249 6.74458,-19.41915 9.8221,-29.08939 2.95284,-5.36371 -17.83737,-16.98711 -15.91391,-16.60452 9.20412,1.89888 31.99139,-5.17356 32.22323,-11.07549 0.85569,-10.06491 -5.83826,-7.12222 -17.71159,-7.79829 -13.42022,-0.76415 -11.86511,1.13223 -10.00753,-7.52971 -2.46953,-8.61359 6.67686,-15.18871 7.81426,-23.75315 2.94121,-8.89552 -18.85849,-9.27005 -19.08212,-18.60065 -57.55534,1e-5 -64.38181,9.91257 -121.937152,9.91258 z"
       sodipodi:nodetypes="cccaccccscccccscccc" /><g
       id="g183"
       style="opacity:1"><path
         id="path153"
         style="color:#000000;fill:#242424;fill-opacity:1;stroke-width:0.925943;stroke-linecap:round;stroke-linejoin:round;paint-order:stroke fill markers"
         class="UnoptimicedTransforms"
         d="m 58.21001,165.00384 c -4.38714,-0.44966 -15.36056,1.00185 -6.36221,4.68897 8.2352,2.90911 -11.40776,3.71462 -2.31524,7.08207 7.14087,4.56329 -2.63325,10.75776 -1.53692,16.69528 3.26131,4.9316 12.66202,11.45202 4.81397,17.4784 -10.97781,4.67914 2.18181,15.95352 9.34444,10.09703 7.16529,-2.49024 6.55892,-11.01467 3.83273,-16.58753 -4.58676,-7.44385 0.80559,-16.07715 9.45597,-16.16242 23.00138,4.87935 23.39549,-22.49506 3.73799,-20.53447 -7.7164,2.22328 -13.33273,-3.14786 -20.97073,-2.75733 z m 183.8125,0 c -8.28066,0.23608 -15.09867,4.814 -23.53613,2.80905 -32.86798,10.90597 5.70083,18.20479 12.19667,22.33628 8.20342,3.02977 4.51344,12.2984 2.31301,18.16175 -3.44599,7.41392 3.81809,14.91176 11.39266,13.95862 7.98323,0.34222 9.83497,-9.87847 2.12583,-12.21612 -6.95406,-6.83001 4.24177,-11.75006 5.76516,-17.43293 -0.0904,-5.63489 -9.0283,-13.06387 -0.349,-16.39399 5.23765,-3.80041 -12.4357,-3.53668 -2.83027,-6.99583 9.22736,-4.24024 -4.05474,-4.05488 -7.07793,-4.22683 z" /><path
         id="path154"
         style="fill:#e98a0f;fill-opacity:1;stroke-width:17.6699;stroke-linecap:round;stroke-linejoin:round;paint-order:stroke fill markers;stop-color:#000000"
         d="m 150.11626,36.685483 c -11.53022,0.248766 -18.43453,10.604357 -26.27983,17.527538 -3.00504,4.705157 -12.64535,10.582849 -11.08037,0.319162 2.04615,-11.520844 -9.78884,-2.779337 -13.411,1.168845 -18.89858,16.098314 -28.76981,41.286892 -27.42802,65.912482 -0.25427,14.50244 -0.10298,29.40863 5.76156,42.96782 10.97766,28.48365 39.75674,49.14709 70.41319,49.50595 30.36558,1.22949 59.97142,-17.53145 72.53534,-45.07493 6.78765,-13.64919 8.19223,-29.06392 7.68835,-44.08451 1.11334,-19.24802 -3.14681,-39.147476 -14.55805,-54.951016 -6.33074,-8.642029 -14.06687,-16.918098 -23.71969,-21.718385 -6.15269,0.540504 1.24826,16.349251 -7.67649,11.402131 -10.33519,-7.998547 -18.11604,-21.542951 -32.24499,-22.975087 z" /><path
         id="path155"
         style="color:#000000;fill:#242424;fill-opacity:1;stroke-linejoin:round;paint-order:stroke fill markers"
         d="m 151.53423,59.40814 c -14.15419,0.335161 -28.01508,3.081197 -41.67578,6.679687 v 25.917969 c 11.71956,-3.169777 23.5872,-5.73622 35.64648,-7.234375 13.72387,-1.202734 27.26043,1.943003 40.58203,5.050781 V 63.96478 c -11.37062,-2.578815 -22.88138,-4.42044 -34.55273,-4.55664 z m 0,36.24414 c -14.15821,0.35355 -28.01352,3.092189 -41.67578,6.68359 v 25.91992 c 11.72003,-3.16976 23.58613,-5.74099 35.64648,-7.24023 13.72387,-1.20274 27.26042,1.943 40.58203,5.05078 v -25.85547 c -9.72503,-2.161251 -19.55055,-3.796117 -29.52148,-4.445309 -1.67584,-0.08103 -3.35342,-0.121854 -5.03125,-0.113281 z" /><path
         id="path156"
         style="fill:#bdb5b4;fill-opacity:1;stroke:none;stroke-width:7.6979;stroke-linecap:square;stroke-linejoin:round;stroke-dasharray:none;stroke-opacity:1;paint-order:stroke fill markers;stop-color:#000000"
         class="UnoptimicedTransforms"
         d="m 52.31743,95.249936 c -15.65877,0.366497 -33.95411,7.481994 -39.04534,23.664094 -3.4783,14.01383 9.3925,25.09491 21.14448,29.64839 24.24542,10.27784 50.91036,7.40315 76.55806,8.28451 5.82304,0.29995 11.5976,-0.66417 17.39358,-1.06965 -8.82335,-12.4415 -16.85939,-25.47683 -26.31066,-37.44556 C 89.42089,104.74478 71.19412,94.919541 52.31743,95.249936 Z m 195.59766,0 c -23.96608,-0.182881 -46.28851,14.744244 -58.45257,34.895924 -5.86607,8.54382 -11.73214,17.08764 -17.59821,25.63146 16.34917,2.0328 32.83351,0.54117 49.25559,0.67296 19.80918,-0.33562 41.30909,-2.87809 57.37424,-15.49862 8.81217,-6.69131 12.32997,-20.11527 5.10211,-29.27238 -8.02437,-11.18683 -22.38587,-16.065739 -35.68116,-16.429344 z" /><path
         id="path157"
         style="fill:#eecf45;fill-opacity:1;stroke-width:20.1269;stroke-linejoin:round;stroke-opacity:0.402542;paint-order:stroke fill markers;stop-color:#000000"
         d="m 163.7647,121.67572 c -0.56696,-0.0797 -1.17825,-0.18689 -1.73047,-0.25782 -0.9779,-0.12559 -1.93283,-0.23748 -2.85938,-0.33398 -0.92654,-0.0965 -1.82476,-0.17694 -2.69336,-0.24219 -0.86859,-0.0653 -1.70767,-0.11466 -2.51171,-0.14648 -0.80405,-0.0318 -1.57374,-0.0467 -2.30664,-0.043 -0.73517,0.004 -1.5084,0.0262 -2.31446,0.0664 -0.80606,0.0402 -1.64525,0.0975 -2.51562,0.17188 -0.87038,0.0744 -1.77112,0.1652 -2.69922,0.27148 -0.92811,0.10629 -1.88404,0.22926 -2.86328,0.36524 -1.43656,0.19947 -2.97087,0.45938 -4.5,0.7168 -0.57837,9.99282 -1.61325,20.01452 -2.91797,30.05273 h 32.52734 c -0.94534,-10.20701 -1.94988,-20.41396 -2.61523,-30.62109 z" /><path
         id="path158"
         style="fill:#b48c00;fill-opacity:0.59322;stroke-width:20.1269;stroke-linejoin:round;stroke-opacity:0.402542;paint-order:stroke fill markers;stop-color:#000000"
         d="m 163.07524,96.27728 c -7.97401,-0.91127 -16.04719,-0.791719 -24.00585,0.217144 -1.05883,0.123607 -2.4867,-0.03587 -1.94737,1.450686 0.27063,8.09935 0.11681,16.20972 -0.35146,24.29898 6.8197,-1.18179 13.77871,-2.03924 20.70053,-1.32248 2.1048,0.1872 4.20678,0.41946 6.29361,0.75415 -0.5511,-8.45294 -0.85185,-16.92723 -0.68946,-25.39848 z" /><path
         id="path159"
         style="fill:#eecf45;fill-opacity:1;stroke-width:20.1269;stroke-linejoin:round;stroke-opacity:0.402542;paint-order:stroke fill markers;stop-color:#000000"
         d="m 163.56743,85.40228 c -0.50089,-0.06971 -1.04393,-0.165677 -1.5332,-0.228516 -0.9779,-0.125591 -1.93283,-0.23748 -2.85938,-0.333984 -0.92654,-0.0965 -1.82476,-0.17694 -2.69336,-0.242187 -0.86859,-0.06525 -1.70767,-0.114661 -2.51171,-0.146485 -0.80405,-0.03182 -1.57374,-0.04674 -2.30664,-0.04297 -0.73517,0.0038 -1.5084,0.02622 -2.31446,0.06641 -0.80606,0.04019 -1.64525,0.09752 -2.51562,0.171875 -0.87038,0.07436 -1.77112,0.165198 -2.69922,0.271484 -0.92811,0.106286 -1.88404,0.229261 -2.86328,0.365235 -1.55257,0.215581 -3.20357,0.492465 -4.86328,0.77539 0.31739,3.559576 0.53413,7.124507 0.67187,10.695313 0.2166,-0.02913 0.43628,-0.0637 0.65234,-0.0918 1.1925,-0.155067 2.37646,-0.29409 3.55079,-0.416016 1.17432,-0.121925 2.33958,-0.226524 3.49218,-0.3125 1.15261,-0.08598 2.29258,-0.153956 3.41992,-0.201172 1.12735,-0.04722 2.24131,-0.07443 3.33985,-0.08008 1.09629,-0.0056 2.20858,0.0094 3.33398,0.04492 1.1254,0.03554 2.26312,0.09207 3.41407,0.166016 1.15095,0.07395 2.31534,0.165798 3.48828,0.27539 0.43143,0.04031 0.87061,0.0938 1.30468,0.138672 0.0694,-3.624816 0.22998,-7.250188 0.49219,-10.875 z" /><path
         id="path160"
         style="fill:#7a620f;fill-opacity:1;stroke-width:20.1269;stroke-linejoin:round;stroke-opacity:0.402542;paint-order:stroke fill markers;stop-color:#000000"
         d="m 167.24517,60.52728 c -8.66581,-1.219839 -17.47957,-1.503237 -26.18319,-0.502326 -2.86367,0.305973 -5.71958,0.689888 -8.559,1.172251 1.89276,8.18019 3.1598,16.499835 3.9043,24.861328 7.16055,-1.250571 14.47248,-2.154643 21.73723,-1.320586 1.81283,0.175032 3.62431,0.375441 5.42292,0.664334 0.60339,-8.367526 1.77526,-16.701146 3.67774,-24.875001 z" /><path
         id="path161"
         style="fill:#f1ff6b;fill-opacity:0.59322;stroke-width:20.1269;stroke-linejoin:round;stroke-opacity:0.402542;paint-order:stroke fill markers;stop-color:#000000"
         d="m 149.81548,36.685483 c -4.44341,0.169436 -8.67567,2.076596 -12.2849,4.581341 -2.69847,2.099873 -4.99427,4.664743 -7.50258,6.981253 -1.52313,0.814129 -0.0836,2.384593 0.0443,3.634854 0.90155,3.079989 1.70776,6.187627 2.43072,9.314271 9.50613,-1.608353 19.2133,-2.310505 28.82814,-1.343002 1.97615,0.178991 3.94905,0.396587 5.91405,0.673077 0.93549,-4.025408 2.02448,-8.016615 3.31445,-11.943359 -3.09399,-2.996596 -6.11465,-6.16127 -9.924,-8.266889 -3.30209,-1.865585 -6.94952,-3.613519 -10.82014,-3.631546 z" /><g
         id="g164"
         class="UnoptimicedTransforms"
         transform="matrix(1,0,0,0.94906692,0.11626,7.7998226)"
         style="display:inline"><path
           id="path162"
           style="fill:#d8d8d8;fill-opacity:1;stroke:none;stroke-width:11.4446;stroke-linecap:square;stroke-linejoin:round;stroke-dasharray:none;stroke-opacity:1;paint-order:stroke fill markers;stop-color:#000000"
           d="M 15.691998,95.112498 C -4.3686144,54.147491 38.780331,16.949109 80.279642,30.524838 c 22.715788,7.43106 43.174968,35.53689 48.459798,65.36281 l 10.54529,59.514182 -16.24189,-2.64518 -48.928668,-14.91677 C 48.478115,130.02423 24.891833,113.8991 15.691998,95.112498 Z m 268.616002,0 c 20.06061,-40.965007 -23.08833,-78.163389 -64.58764,-64.58766 -22.71579,7.43106 -43.17497,35.53689 -48.4598,65.36281 l -10.54529,59.514182 16.24189,-2.64518 48.92867,-14.91677 c 25.63605,-7.81565 49.22234,-23.94078 58.42217,-42.727382 z" /><path
           id="path163"
           style="fill:#cdcac9;fill-opacity:1;stroke:none;stroke-width:11.4446;stroke-linecap:square;stroke-linejoin:round;stroke-dasharray:none;stroke-opacity:1;paint-order:stroke fill markers;stop-color:#000000"
           d="M 14.833984,56.005859 C 9.3779476,67.308929 8.7735694,80.986632 15.691406,95.113281 24.891232,113.89986 48.47725,130.0242 74.113281,137.83984 l 48.929689,14.91602 16.24219,2.64648 -2.31446,-13.06445 -10.21093,-1.66211 -48.927739,-14.91797 C 52.196,117.94217 28.609982,101.81784 19.410156,83.03125 14.807439,73.632217 13.565018,64.440542 14.833984,56.005859 Z m 270.332036,0 c 5.45603,11.30307 6.06041,24.980773 -0.85743,39.107422 -9.19982,18.786579 -32.78584,34.910919 -58.42187,42.726559 l -48.92969,14.91602 -16.24219,2.64648 2.31446,-13.06445 10.21093,-1.66211 48.92774,-14.91797 c 25.63603,-7.81564 49.22205,-23.93997 58.42187,-42.72656 4.60272,-9.399033 5.84514,-18.590708 4.57618,-27.025391 z" /><path
           id="path164"
           style="fill:#eeeeee;fill-opacity:1;fill-rule:evenodd;stroke-width:0.735473"
           d="M 23.900688,76.206394 C 23.104215,76.05877 22.303037,75.978491 21.500798,75.965922 9.4388783,75.965021 -0.3395986,90.943876 -0.33976623,109.42171 c 2.0297e-4,18.47747 9.77833853,33.45613 21.84002123,33.45569 1.936135,-7.4e-4 3.86361,-0.39588 5.731745,-1.17504 7.861467,-19.94278 8.793921,-42.206874 1.053728,-58.005472 -1.298414,-2.650205 -2.777028,-5.13956 -4.38504,-7.490494 z M 131.23057,189.90481 c 0.10152,0.80365 0.13554,1.60812 0.10189,2.40975 -0.69361,12.04196 -16.21064,20.94175 -34.657831,19.87799 -18.446804,-1.06411 -32.837604,-11.68847 -32.142669,-23.73011 0.112217,-1.93289 0.617685,-3.83441 1.503116,-5.65458 20.362347,-6.70015 42.643194,-6.34912 57.969914,2.28789 2.57105,1.44885 4.97113,3.06835 7.22558,4.80906 z"
           transform="matrix(0.6864479,-0.76620412,0.72717899,0.72328714,0,-8.3398967)" /></g><path
         id="path165"
         style="fill:#eecf45;fill-opacity:1;stroke-width:11.9996;stroke-linecap:round;stroke-linejoin:round;paint-order:stroke fill markers;stop-color:#000000"
         d="m 85.90895,167.30292 c 21.10077,-43.39359 107.07133,-41.17546 128.1721,0 17.21447,33.59184 -22.37597,93.72642 -64.08605,93.72642 -41.71007,0 -80.59248,-59.78106 -64.08605,-93.72642 z" /><path
         style="color:#000000;fill:#242424;fill-opacity:1;stroke-linecap:round;stroke-linejoin:round;paint-order:stroke fill markers"
         d="m 97.79595,219.58782 c -3.80455,-0.82286 -7.73433,0.47734 -10.74532,2.82205 -5.15065,3.49473 -10.35061,6.91972 -15.46949,10.45938 -3.56777,2.75656 -5.47714,7.59935 -4.54599,12.02653 2.76779,6.39551 5.66056,12.77041 7.74356,19.42855 0.6508,2.69102 -0.52265,6.02098 1.69774,8.15664 4.44307,2.92176 10.43065,2.35848 15.02085,0.066 2.82072,-1.39761 5.34154,-4.01476 5.35344,-7.34394 0.23404,-5.76941 -1.74946,-11.3568 -3.89659,-16.62694 3.5528,-2.45758 7.23745,-4.73623 10.69434,-7.32412 4.75963,-3.99396 5.66022,-11.65001 1.94547,-16.63428 -1.82941,-2.59455 -4.67979,-4.43318 -7.79801,-5.02989 z"
         id="path166" /><path
         id="path167"
         style="fill:#3b3737;fill-opacity:1;fill-rule:evenodd;stroke-width:0.999997"
         d="m 95.3565,219.35735 c -4.07977,-0.19775 -7.20118,2.33301 -10.33226,4.41766 -3.35865,2.26247 -6.7173,4.52495 -10.07595,6.78742 -2.61718,3.76536 -4.74967,10.4402 -0.07,13.61359 7.08468,3.49099 15.16797,-0.96286 20.82392,-5.10382 4.58769,-3.67044 8.82004,-8.41608 10.01954,-14.25781 -2.24508,-3.35355 -6.26008,-5.50727 -10.36524,-5.45704 z" /><g
         class="UnoptimicedTransforms"
         id="g169"
         transform="matrix(-1,0,0,1,300.11626,-0.1152975)"><path
           id="path168"
           d="m 97.679687,219.70312 c -3.804547,-0.82286 -7.734327,0.47734 -10.745323,2.82205 -5.150647,3.49473 -10.350608,6.91972 -15.469482,10.45938 -3.567776,2.75656 -5.477147,7.59935 -4.545998,12.02653 2.767793,6.39551 5.660559,12.77041 7.74356,19.42855 0.650803,2.69102 -0.522649,6.02098 1.697745,8.15664 4.443071,2.92176 10.430648,2.35848 15.020847,0.066 2.820724,-1.39761 5.341537,-4.01476 5.353445,-7.34394 0.234034,-5.76941 -1.749462,-11.3568 -3.89659,-16.62694 3.552796,-2.45758 7.237449,-4.73623 10.694339,-7.32412 4.75963,-3.99396 5.66022,-11.65001 1.94547,-16.63428 -1.82941,-2.59455 -4.67979,-4.43318 -7.798013,-5.02989 z"
           style="color:#000000;fill:#242424;fill-opacity:1;stroke-linecap:round;stroke-linejoin:round;paint-order:stroke fill markers" /><path
           id="path169"
           d="m 95.240233,219.47265 c -4.07977,-0.19775 -7.201174,2.33301 -10.33226,4.41766 -3.358649,2.26247 -6.717293,4.52495 -10.075944,6.78742 -2.617181,3.76536 -4.749671,10.4402 -0.07002,13.61359 7.084676,3.49099 15.167966,-0.96286 20.823922,-5.10382 4.587689,-3.67044 8.820039,-8.41608 10.019539,-14.25781 -2.24508,-3.35355 -6.260085,-5.50727 -10.365241,-5.45704 z"
           style="fill:#3b3737;fill-opacity:1;fill-rule:evenodd;stroke-width:0.999997" /></g><path
         id="path170"
         style="fill:#eba121;fill-opacity:1;stroke-width:11.9996;stroke-linecap:round;stroke-linejoin:round;paint-order:stroke fill markers;stop-color:#000000"
         d="m 149.99517,135.58978 c -26.76781,-0.27727 -53.53556,10.01612 -64.08594,31.71289 -16.50641,33.94532 22.37591,93.72656 64.08594,93.72656 41.71003,0 81.30039,-60.13475 64.08593,-93.72656 -10.55037,-20.58771 -37.31813,-31.43563 -64.08593,-31.71289 z m 0.0234,10.46875 c 21.58006,0.21336 43.16037,8.56154 51.66602,24.40429 13.87821,25.84974 -18.03963,72.125 -51.66602,72.125 -33.62639,0 -64.97339,-46.00323 -51.66601,-72.125 8.50565,-16.69621 30.08596,-24.61766 51.66601,-24.40429 z" /><path
         id="path171"
         style="color:#000000;fill:#000000;stroke-linecap:round;stroke-linejoin:round;paint-order:stroke fill markers"
         d="m 126.28814,109.29876 a 11.5,11.5 0 0 0 -11.5,11.5 11.5,11.5 0 0 0 4.52929,9.11133 c -1.89431,12.18326 1.24342,23.48567 8.65821,33.17969 a 4,4 0 0 0 5.60742,0.74804 4,4 0 0 0 0.74804,-5.60742 c -6.10046,-7.97569 -8.70438,-16.32351 -7.35351,-25.98047 a 11.5,11.5 0 0 0 10.81055,-11.45117 11.5,11.5 0 0 0 -11.5,-11.5 z" /><ellipse
         style="fill:#ffe5e5;fill-opacity:1;fill-rule:evenodd"
         id="ellipse171"
         cx="128.09485"
         cy="117.51328"
         rx="6.4071426"
         ry="5.9142857" /><g
         class="UnoptimicedTransforms"
         id="g173"
         transform="matrix(-1,0,0,1,300.11626,-0.1152975)"
         style="display:inline"><path
           id="path172"
           d="m 126.17188,109.41406 a 11.5,11.5 0 0 0 -11.5,11.5 11.5,11.5 0 0 0 4.52929,9.11133 c -1.89431,12.18326 1.24342,23.48567 8.65821,33.17969 a 4,4 0 0 0 5.60742,0.74804 4,4 0 0 0 0.74804,-5.60742 c -6.10046,-7.97569 -8.70438,-16.32351 -7.35351,-25.98047 a 11.5,11.5 0 0 0 10.81055,-11.45117 11.5,11.5 0 0 0 -11.5,-11.5 z"
           style="color:#000000;fill:#000000;stroke-linecap:round;stroke-linejoin:round;paint-order:stroke fill markers" /><path
           id="path173"
           d="m 134.38572,117.62857 a 6.4071426,5.9142857 0 0 1 -6.40714,5.91429 6.4071426,5.9142857 0 0 1 -6.40715,-5.91429 6.4071426,5.9142857 0 0 1 6.40715,-5.91429 6.4071426,5.9142857 0 0 1 6.40714,5.91429 z"
           style="fill:#ffe5e5;fill-opacity:1;fill-rule:evenodd" /></g><ellipse
         style="fill:#1b1b1b;fill-opacity:1;fill-rule:evenodd;stroke-width:0.730044"
         id="ellipse177"
         cx="101.67037"
         cy="200.8275"
         rx="29.927061"
         ry="36.614368" /><path
         style="fill:#0d0d0d;fill-opacity:1;fill-rule:evenodd;stroke-width:0.730044"
         d="m 72.00291,205.27088 a 29.92706,36.614367 0 0 0 29.66797,32.17051 29.92706,36.614367 0 0 0 29.20584,-29.06266 34.850053,32.737262 0 0 1 -28.38503,13.84506 34.850053,32.737262 0 0 1 -30.48878,-16.95291 z"
         id="path178" /><path
         id="path179"
         style="fill:#ffffff;fill-opacity:1;fill-rule:evenodd;stroke-width:0.74968"
         d="m 109.16504,175.42782 a 12.473874,14.183945 0 0 0 -12.47417,14.18428 12.473874,14.183945 0 0 0 12.47417,14.18428 12.473874,14.183945 0 0 0 12.47417,-14.18428 12.473874,14.183945 0 0 0 -12.47417,-14.18428 z m -17.4059,32.32737 a 6.0918924,6.9270431 0 0 0 -6.09223,6.92548 6.0918924,6.9270431 0 0 0 6.09223,6.92743 6.0918924,6.9270431 0 0 0 6.09224,-6.92743 6.0918924,6.9270431 0 0 0 -6.09224,-6.92548 z" /><path
         id="path180"
         d="m 168.63508,200.8275 a 29.92706,36.614367 0 0 0 29.92706,36.61437 29.92706,36.614367 0 0 0 29.92706,-36.61437 29.92706,36.614367 0 0 0 -29.92706,-36.61437 29.92706,36.614367 0 0 0 -29.92706,36.61437 z"
         style="fill:#1b1b1b;fill-opacity:1;fill-rule:evenodd;stroke-width:0.730044" /><path
         id="path181"
         d="m 228.22961,205.27088 a 29.92706,36.614367 0 0 1 -29.66797,32.17051 29.92706,36.614367 0 0 1 -29.20584,-29.06266 34.850053,32.737262 0 0 0 28.38503,13.84506 34.850053,32.737262 0 0 0 30.48878,-16.95291 z"
         style="fill:#0d0d0d;fill-opacity:1;fill-rule:evenodd;stroke-width:0.730044" /><path
         id="path182"
         d="m 202.09145,175.42782 a 12.473874,14.183945 0 0 0 -12.47417,14.18428 12.473874,14.183945 0 0 0 12.47417,14.18428 12.473874,14.183945 0 0 0 12.47417,-14.18428 12.473874,14.183945 0 0 0 -12.47417,-14.18428 z m -17.4059,32.32737 a 6.0918924,6.9270431 0 0 0 -6.09224,6.92548 6.0918924,6.9270431 0 0 0 6.09224,6.92743 6.0918924,6.9270431 0 0 0 6.09224,-6.92743 6.0918924,6.9270431 0 0 0 -6.09224,-6.92548 z"
         style="fill:#ffffff;fill-opacity:1;fill-rule:evenodd;stroke-width:0.74968" /></g><g
       id="g219"><path
         style="fill:#28711f;fill-opacity:1;stroke-width:7.25798;stroke-linecap:round;stroke-linejoin:round;paint-order:stroke fill markers;stop-color:#000000"
         d="m 23.157304,287.45448 c -4.967537,11.10102 1.577989,28.82429 3.531787,36.44052 2.008924,7.83114 6.379011,14.42406 10.510946,21.03468 H 110.43143 C 106.03093,325.0213 88.604763,305.23524 52.741409,298.64058 45.851251,297.3736 31.442267,287.65492 23.157304,287.45448 Z"
         id="path130-7" /><path
         style="color:#000000;fill:#1f5e15;fill-opacity:1;stroke-width:1.30939;stroke-linecap:round;stroke-linejoin:round;paint-order:stroke fill markers"
         d="m 44.056452,315.25606 c 1.45691,10.82947 11.986252,18.74527 19.607039,26.03487 3.593578,5.0644 9.549209,3.37928 14.755527,3.63875 2.973501,-1.26364 -10.792072,-6.89589 -14.102716,-9.64224 -8.68607,-4.60142 -14.919738,-12.03833 -20.25985,-20.03138 z"
         id="path131-7" /></g><g
       transform="matrix(-1,0,0,1,300,-0.42125678)"
       id="g218"><path
         id="path217"
         d="m 23.157304,287.87574 c -4.967537,11.10102 1.577989,28.82429 3.531787,36.44052 2.008924,7.83114 6.379011,14.42406 10.510946,21.03468 h 73.231393 c -4.4005,-19.90838 -21.826667,-39.69444 -57.690021,-46.2891 -6.890158,-1.26698 -21.299142,-10.98566 -29.584105,-11.1861 z"
         style="fill:#28711f;fill-opacity:1;stroke-width:7.25798;stroke-linecap:round;stroke-linejoin:round;paint-order:stroke fill markers;stop-color:#000000" /><path
         id="path218"
         d="m 44.056452,315.67732 c 1.45691,10.82947 11.986252,18.74527 19.607039,26.03487 3.593578,5.0644 9.549209,3.37928 14.755527,3.63875 2.973501,-1.26364 -10.792072,-6.89589 -14.102716,-9.64224 -8.68607,-4.60142 -14.919738,-12.03833 -20.25985,-20.03138 z"
         style="color:#000000;opacity:1;fill:#1f5e15;fill-opacity:1;stroke-width:1.30939;stroke-linecap:round;stroke-linejoin:round;paint-order:stroke fill markers" /></g></g></svg>
