<?xml version="1.0" encoding="UTF-8" standalone="no"?>
<svg
   viewBox="0 0 300 345"
   version="1.1"
   id="svg47"
   sodipodi:docname="blackBear.svg"
   xml:space="preserve"
   inkscape:version="1.2 (dc2aedaf03, 2022-05-15)"
   xmlns:inkscape="http://www.inkscape.org/namespaces/inkscape"
   xmlns:sodipodi="http://sodipodi.sourceforge.net/DTD/sodipodi-0.dtd"
   xmlns="http://www.w3.org/2000/svg"
   xmlns:svg="http://www.w3.org/2000/svg"><sodipodi:namedview
     id="namedview49"
     pagecolor="#505050"
     bordercolor="#ffffff"
     borderopacity="1"
     inkscape:showpageshadow="0"
     inkscape:pageopacity="0"
     inkscape:pagecheckerboard="1"
     inkscape:deskcolor="#505050"
     showgrid="false"
     inkscape:zoom="1.1289699"
     inkscape:cx="-36.759172"
     inkscape:cy="197.52519"
     inkscape:window-width="1366"
     inkscape:window-height="705"
     inkscape:window-x="-8"
     inkscape:window-y="-8"
     inkscape:window-maximized="1"
     inkscape:current-layer="svg47" /><defs
     id="defs7"><linearGradient
       id="A"
       x1="150"
       y1="356.11"
       x2="150"
       y2="161.16"
       gradientUnits="userSpaceOnUse"><stop
         offset="0"
         stop-color="#995b3c"
         id="stop2"
         style="stop-color:#4b4851;stop-opacity:1;" /><stop
         offset="0.69"
         stop-color="#51291b"
         id="stop4"
         style="stop-color:#181825;stop-opacity:1;" /></linearGradient></defs><g
     id="g4365"><circle
       cx="1.0198646"
       cy="99.087021"
       r="35.146698"
       id="circle39"
       style="fill:#4b4851;fill-opacity:1;stroke-width:0.876914"
       transform="rotate(-30)" /><path
       d="m 69.053629,83.154572 c 5.38425,9.325794 -23.231052,25.846848 -28.615301,16.521053 -5.38425,-9.325794 -3.349289,-20.585902 4.556371,-25.150237 7.905661,-4.564336 18.670296,-0.704203 24.05893,8.629184 z"
       id="path45"
       style="fill:#d27335;fill-opacity:1;stroke-width:0.876914" /></g><g
     transform="matrix(-0.75942945,-0.4384568,-0.4384568,0.75942945,314.8084,82.381561)"
     class="UnoptimicedTransforms"
     id="g4359"><path
       id="path4355"
       d="M 102.84,40.080002 A 40.080002,40.080002 0 0 1 62.759998,80.160004 40.080002,40.080002 0 0 1 22.679996,40.080002 40.080002,40.080002 0 0 1 62.759998,0 40.080002,40.080002 0 0 1 102.84,40.080002 Z"
       style="fill:#4b4851;fill-opacity:1" /><path
       id="path4357"
       d="m 82.38,48.58 c 0,12.28 -37.68,12.28 -37.68,0 0,-12.28 8.43,-22.24 18.84,-22.24 10.41,0 18.84,9.95 18.84,22.24 z"
       style="fill:#d27335;fill-opacity:1" /></g><path
     d="M263.62,345H36.38A36.38,36.38,0,0,1,0,308.62V259.14H300v49.48A36.38,36.38,0,0,1,263.62,345Z"
     fill="url(#A)"
     id="path9" /><path
     id="rect948"
     style="fill:#4b4851;fill-opacity:1"
     d="M 98.869141 83.644531 C 44.096042 83.644531 -1.9810536e-16 127.74057 0 182.51367 L 0 199.52148 C 0 202.94754 0.17289789 206.33169 0.50976562 209.66602 L 0 209.66602 L 0 262.00977 C 0 282.16425 16.22638 298.39062 36.380859 298.39062 L 98.869141 298.39062 L 201.13086 298.39062 L 263.61914 298.39062 C 283.77362 298.39062 300 282.16425 300 262.00977 L 300 209.66602 L 299.49023 209.66602 C 299.8271 206.33169 300 202.94754 300 199.52148 L 300 182.51367 C 300 127.74057 255.90396 83.644531 201.13086 83.644531 L 98.869141 83.644531 z " /><path
     d="m 207.85091,234.1789 c -2.73337,-14.75163 -8.34838,-30.05592 -17.42487,-41.84876 -15.8142,-20.54692 -65.22,-20.51862 -80.96803,0.0772 -9.00185,11.77293 -14.571349,27.02635 -17.30319,41.72885 -4.89153,26.32572 23.60867,58.84956 48.87507,60.02776 5.88334,0.27434 11.90165,0.28209 17.78655,0.021 25.26042,-1.12083 53.91062,-33.69018 49.03447,-60.00605 z"
     fill="#c68366"
     id="path13"
     style="fill:#d27335;fill-opacity:1;stroke-width:0.891281" /><path
     d="m 119.92638,214.507 c 0,14.52 17.47771,28.14 30.08241,28.14 12.60471,0 30.08241,-15.4 30.08241,-28.14 0,-12.74 -60.18241,-14.52 -60.18241,0 z"
     id="path15"
     style="stroke-width:0.937878;fill:#242424;fill-opacity:1" /><g
     id="g6190"><circle
       cx="60.860054"
       cy="195.59955"
       r="35.028763"
       id="circle19"
       style="fill:#2f2d33;fill-opacity:1;stroke-width:0.961009" /><g
       fill="#ffffff"
       id="g27"
       transform="matrix(0.96100854,0,0,0.96100854,5.6789452,13.06559)"><circle
         cx="57.419998"
         cy="200.06"
         r="36.450001"
         id="circle25" /></g><path
       d="m 95.48316,200.08985 a 16.97921,16.97921 0 0 1 -24.652631,-23.02026 29.562591,29.562591 0 1 0 24.665483,23.02026 z m -41.130561,25.39812 a 7.017902,7.017902 0 1 1 7.005047,-7.00505 7.0050487,7.0050487 0 0 1 -7.056461,7.00505 z"
       id="path29"
       style="fill:#2d2d2d;fill-opacity:1;stroke-width:1.28532" /><ellipse
       cx="-153.34895"
       cy="50.614906"
       rx="13.338739"
       ry="19.860603"
       transform="rotate(-101.14648)"
       id="ellipse33"
       style="fill:#d27335;fill-opacity:1;stroke-width:1.05361" /></g><path
     class="cls-8"
     d="M 171.61632,264.53502 C 150,264.53502 150,239.52183 150,239.52183 c 0,0 0,25.01319 -21.61632,25.01319"
     id="path5340"
     style="fill:none;stroke:#242424;stroke-width:10.029;stroke-linecap:round;stroke-miterlimit:10;stroke-opacity:1;stroke-dasharray:none" /><g
     class="UnoptimicedTransforms"
     id="g6178"
     transform="matrix(-1,0,0,1,300,0)"><path
       id="path6168"
       d="M 95.888817,195.59955 A 35.028763,35.028763 0 0 1 60.860054,230.62831 35.028763,35.028763 0 0 1 25.831291,195.59955 35.028763,35.028763 0 0 1 60.860054,160.57079 35.028763,35.028763 0 0 1 95.888817,195.59955 Z"
       style="fill:#2f2d33;fill-opacity:1;stroke-width:0.961009" /><g
       transform="matrix(0.96100854,0,0,0.96100854,5.6789452,13.06559)"
       id="g6172"
       fill="#ffffff"><path
         id="path6170"
         d="M 93.869999,200.06 A 36.450001,36.450001 0 0 1 57.419998,236.51 36.450001,36.450001 0 0 1 20.969997,200.06 36.450001,36.450001 0 0 1 57.419998,163.61 36.450001,36.450001 0 0 1 93.869999,200.06 Z" /></g><path
       id="path6174"
       d="m 37.714916,200.08985 a 16.97921,16.97921 0 0 0 24.652631,-23.02026 29.562591,29.562591 0 1 1 -24.665483,23.02026 z m 41.130561,25.39812 a 7.017902,7.017902 0 1 0 -7.005047,-7.00505 7.0050487,7.0050487 0 0 0 7.056461,7.00505 z"
       style="fill:#2d2d2d;fill-opacity:1;stroke-width:1.28532" /><path
       transform="rotate(-101.14648)"
       id="path6176"
       d="m -140.01021,50.614906 a 13.338739,19.860603 0 0 1 -13.33874,19.860604 13.338739,19.860603 0 0 1 -13.33874,-19.860604 13.338739,19.860603 0 0 1 13.33874,-19.860603 13.338739,19.860603 0 0 1 13.33874,19.860603 z"
       style="fill:#d27335;fill-opacity:1;stroke-width:1.05361" /></g><path
     id="path18831"
     style="fill:#292929;fill-opacity:1;stroke:none;stroke-width:3.2749;stroke-linejoin:round;stroke-dasharray:none;stroke-opacity:1;stop-color:#000000"
     d="M 98.869141 83.644531 C 92.369234 83.644531 86.026151 84.284586 79.882812 85.470703 C 75.44857 93.5656 73.56876 101.7524 77.324219 109.02539 C 85.488237 124.83615 114.41273 129.49999 133.24805 120.29883 C 136.60771 118.65762 136.80169 115.67589 133.77344 113.80664 L 122.96094 107.13281 C 120.56614 105.65458 120.99998 104.07196 123.86914 103.32812 C 137.23329 99.86349 146.00396 92.758165 152.42578 83.644531 L 98.869141 83.644531 z " /><path
     style="fill:#e02816;fill-opacity:1;stroke:none;stroke-width:3.36111;stroke-linejoin:round;stroke-dasharray:none;stroke-opacity:1;stop-color:#000000"
     d="m 99.017755,45.963897 c 2.364955,-2.542307 4.348155,-1.92903 4.681325,1.619401 l 1.53916,16.392191 c 0.3188,3.395405 1.51996,3.503844 3.50208,0.827923 3.86616,-5.219414 10.38181,-10.495916 17.08633,-16.467784 2.48367,-2.212225 4.75759,-1.303417 5.14145,2.10717 l 1.1271,10.01372 21.94833,-12.695812 c 4.12434,-2.385684 6.17322,-0.53203 4.49422,4.107504 -8.04442,22.228855 -17.52096,41.913198 -41.39029,46.630512 -2.7808,0.54957 -3.26512,2.242878 -1.03515,4.083468 l 10.0675,8.30955 c 2.81983,2.32746 2.50474,5.57667 -0.78488,7.06387 -18.4426,8.33782 -45.948934,0.55503 -53.083705,-17.51842 C 64.860797,81.564106 85.418776,60.209106 99.017726,45.963876 Z"
     id="path13631"
     sodipodi:nodetypes="cccccccccssssac" /><path
     style="fill:#c61910;fill-opacity:1;stroke:none;stroke-width:3.36111;stroke-linejoin:round;stroke-dasharray:none;stroke-opacity:1;stop-color:#000000"
     d="m 143.04464,68.107161 c -1.18034,13.130332 -36.30871,16.301677 -40.56899,31.308992 -1.43745,5.063577 8.24481,9.030047 5.30968,12.300017 -7.41295,8.25866 -25.834896,-2.03265 -30.080762,-12.492345 -3.913555,-9.641042 2.544646,-24.044831 11.218098,-29.153603 7.055779,-4.155929 15.819054,4.37317 23.896974,4.265352 10.26413,-0.137006 31.05562,-15.467969 30.225,-6.228413 z"
     id="path14286"
     sodipodi:nodetypes="ssaaaas" /><path
     style="color:#000000;fill:#7c1604;fill-opacity:1;stroke-width:1.46135;stroke-linejoin:round;-inkscape-stroke:none"
     d="m 55.372138,93.642269 0.874397,4.563944 c 20.674949,2.532127 67.009295,-18.863568 66.719595,-21.417318 0.27419,1.321767 -45.575447,19.566016 -67.593992,16.853374 z"
     id="path13635"
     sodipodi:nodetypes="cccc" /><path
     style="color:#000000;fill:#7c1604;fill-opacity:1;stroke-width:2.35526;stroke-linejoin:round;-inkscape-stroke:none"
     d="m 79.75748,92.267642 5.205098,-0.07763 C 86.949497,84.267486 92.544258,77.506334 96.928073,70.35547 90.561665,77.294519 83.850059,84.037572 79.75748,92.267642 Z"
     id="path8831-8"
     sodipodi:nodetypes="cccc" /><path
     id="path8697"
     style="fill:#292929;fill-opacity:1;stroke-width:3.00431;stroke-linejoin:round;stroke-opacity:0.68435;stop-color:#000000"
     d="M 194.70117 83.644531 C 195.31591 84.770093 195.66348 85.956373 195.66602 87.222656 L 160.2168 102.19922 C 157.82609 103.20923 158.28051 104.73954 161.23633 105.53906 C 185.18607 112.01712 218.37585 116.7647 232.14258 88.595703 C 222.39319 85.396973 211.97709 83.644531 201.13086 83.644531 L 194.70117 83.644531 z " /><g
     id="g13625"
     transform="matrix(-1.0303939,0.23499208,0.23499208,1.0303939,417.49005,-159.14413)"><path
       style="opacity:1;fill:#f7a11a;fill-opacity:1;stroke-width:3.1;stroke-linejoin:round;stroke-opacity:0.68435;stop-color:#000000"
       d="M 252.17188,152.93164 C 238.7555,153.34039 227.32948,168.35038 212.71875,175 l 0.43945,3.50781 c 28.59019,29.27615 60.70362,16.63762 81.91615,4.4207 2.49726,-1.43825 2.17837,-3.02816 -0.66848,-3.47634 l -42.21251,-6.64553 c -2.74176,-5.36585 1.39137,-10.73096 7.85355,-16.09669 0.97943,-0.81326 0.88198,-1.93453 -0.30076,-2.40417 -2.61199,-1.03717 -5.12628,-1.44872 -7.57427,-1.37414 z"
       id="path7222" /><path
       style="opacity:1;fill:#f48a10;fill-opacity:1;stroke:none;stroke-width:1.87512;stroke-linejoin:round;stroke-dasharray:none;stroke-opacity:1;stop-color:#000000"
       d="m 218.84836,177.89636 c 0.99909,-7.82027 15.88361,-5.84364 23.3975,-3.45695 4.4817,1.42355 5.79077,8.12392 10.20777,9.73707 9.71513,3.5481 36.22416,-10.81489 30.96969,-1.90627 -4.05723,6.8788 -21.49363,10.13634 -33.01124,9.00165 -11.21842,-1.1052 -33.0118,-2.0407 -31.56372,-13.3755 z"
       id="path10681"
       sodipodi:nodetypes="aaassa" /><path
       style="color:#000000;fill:#9d3d05;stroke-width:1.10571;stroke-linejoin:round"
       d="m 207.47708,165.60602 -3.9912,2.30136 c 0.93126,1.20612 11.11739,9.71406 12.51219,10.72195 13.5842,9.81611 46.53998,10.56643 47.97976,8.7803 -0.50796,0.74551 -30.05676,-2.56784 -44.35325,-11.98743 -1.15869,-0.76343 -11.21276,-8.97144 -12.1475,-9.81618 z"
       id="path10237"
       sodipodi:nodetypes="ccscsc" /><path
       style="color:#000000;fill:#9d3d05;stroke-width:0.828675;stroke-linejoin:round"
       d="m 235.52119,182.38753 c 2.04249,5.70457 7.35938,8.59115 11.76505,12.26193 -5.48854,-3.03808 -11.41186,-5.3728 -15.57086,-10.56167 z"
       id="path10239"
       sodipodi:nodetypes="cccc" /></g><path
     style="fill:#231818;fill-opacity:0.641196;stroke-width:3.09017;stroke-linejoin:round;stroke-opacity:0.68435;stop-color:#000000"
     d="m 140.69756,171.23105 c -6.41523,0.99412 -12.52211,3.66023 -19.81019,5.40564 -2.14148,0.51285 -2.51317,1.80153 -0.79833,3.02344 l 19.65596,14.00578 c 1.79877,1.28171 1.42053,2.69232 -0.82182,3.24813 -6.2945,1.56024 -10.92047,3.33478 -15.45815,5.12087 -1.99724,0.78613 -2.18219,2.2829 -0.38056,3.30483 4.69283,2.66195 13.44951,7.35055 19.18765,8.72901 11.12671,2.67295 24.10072,5.97145 34.6865,1.20516 8.17881,-3.68254 13.58187,-12.37705 16.44726,-20.40319 2.57647,-7.21685 0.68909,-14.83221 -0.17965,-22.57539 -0.23692,-2.11176 -1.69633,-2.49681 -3.4189,-1.04535 -4.77601,4.02433 -10.68512,7.65105 -12.37946,12.75713 -0.54245,1.6347 -1.49936,2.09331 -2.80043,0.94551 -14.88274,-13.12967 -24.72387,-15.14813 -33.92988,-13.72157 z"
     id="path12101" /><path
     style="fill:#f66700;fill-opacity:1;stroke-width:3.14394;stroke-linejoin:round;stroke-opacity:0.68435;stop-color:#000000"
     d="m 136.58717,164.58783 c -6.64041,0.99412 -12.96165,3.66023 -20.50557,5.40564 -2.21665,0.51285 -2.60139,1.80153 -0.82634,3.02344 l 20.34592,14.00578 c 1.86191,1.28171 1.4704,2.69232 -0.85067,3.24813 -6.51544,1.56024 -11.3038,3.33478 -16.00076,5.12087 -2.06735,0.78613 -2.25879,2.2829 -0.39392,3.30483 4.85756,2.66195 13.92161,7.35055 19.86118,8.72901 11.51728,2.67295 24.9467,5.97145 35.90408,1.20516 8.46589,-3.68254 14.05862,-12.37705 17.02459,-20.40319 2.66691,-7.21685 0.71328,-14.83221 -0.18595,-22.57539 -0.24524,-2.11176 -1.75588,-2.49681 -3.53892,-1.04535 -4.94366,4.02433 -11.06019,7.65105 -12.81401,12.75713 -0.56148,1.6347 -1.55199,2.09331 -2.89872,0.94551 -15.40517,-13.12967 -25.59174,-15.14813 -35.12091,-13.72157 z"
     id="path13619" /><path
     style="fill:#d24100;fill-opacity:0.614618;stroke:none;stroke-width:1.83154;stroke-linejoin:round;stroke-dasharray:none;stroke-opacity:1;stop-color:#000000"
     d="m 180.83201,195.39445 c 3.5182,-5.0774 7.93291,-15.21959 2.08345,-17.6494 -5.39829,-2.2424 -7.13243,10.94044 -13.13128,11.6322 -6.12423,0.70622 -4.82464,-7.17513 -9.84556,-12.53593 -5.09999,-5.44522 -16.51201,-8.35104 -21.40024,-4.68248 -5.6019,4.20417 15.54044,4.80783 7.69671,19.04229 -1.40184,2.54397 9.19269,-1.89593 9.21248,0.90487 0.0522,7.37816 -23.61285,-3.1678 -24.22182,4.21111 -0.86704,10.50596 21.74098,10.00019 33.29816,8.405 6.2908,-0.8683 12.89436,-4.40098 16.3081,-9.32766 z"
     id="path10293"
     sodipodi:nodetypes="aassssaaaa" /><path
     style="color:#000000;fill:#9d3d05;stroke-width:1.12138;stroke-linejoin:round"
     d="m 193.09336,209.55763 8.20883,-0.47255 c -7.58701,-13.96259 -50.13346,-28.443 -52.22564,-26.83524 0.75116,-0.67455 33.48196,14.53706 44.01681,27.30779 z"
     id="path10229"
     sodipodi:nodetypes="cccc" /><path
     style="color:#000000;fill:#9d3d05;stroke-width:1.12443;stroke-linejoin:round"
     d="m 168.65385,189.47485 c -9.55842,4.46277 -20.91213,5.057 -31.76624,6.72778 11.78619,-0.66713 23.43852,-0.51729 35.63401,-3.68268 z"
     id="path10231"
     sodipodi:nodetypes="cccc" /></svg>
