<?xml version="1.0" encoding="UTF-8" standalone="no"?>
<svg
   viewBox="0 0 300 345"
   version="1.1"
   id="svg53"
   xml:space="preserve"
   sodipodi:docname="monarchButterfly.svg"
   inkscape:version="1.2 (dc2aedaf03, 2022-05-15)"
   xmlns:inkscape="http://www.inkscape.org/namespaces/inkscape"
   xmlns:sodipodi="http://sodipodi.sourceforge.net/DTD/sodipodi-0.dtd"
   xmlns:xlink="http://www.w3.org/1999/xlink"
   xmlns="http://www.w3.org/2000/svg"
   xmlns:svg="http://www.w3.org/2000/svg"><sodipodi:namedview
     id="namedview194"
     pagecolor="#505050"
     bordercolor="#ffffff"
     borderopacity="1"
     inkscape:showpageshadow="0"
     inkscape:pageopacity="0"
     inkscape:pagecheckerboard="1"
     inkscape:deskcolor="#505050"
     showgrid="false"
     inkscape:zoom="0.72753623"
     inkscape:cx="119.58167"
     inkscape:cy="233.66534"
     inkscape:window-width="1366"
     inkscape:window-height="705"
     inkscape:window-x="-8"
     inkscape:window-y="-8"
     inkscape:window-maximized="1"
     inkscape:current-layer="svg53" /><defs
     id="defs7"><inkscape:path-effect
       effect="mirror_symmetry"
       start_point="482.50196,26.652005"
       end_point="482.50195,88.926422"
       center_point="482.50196,57.789214"
       id="path-effect3185"
       is_visible="true"
       lpeversion="1.2"
       lpesatellites=""
       mode="free"
       discard_orig_path="false"
       fuse_paths="false"
       oposite_fuse="false"
       split_items="true"
       split_open="false"
       link_styles="false" /><inkscape:path-effect
       effect="mirror_symmetry"
       start_point="474.68646,19.977483"
       end_point="497.99714,80.757889"
       center_point="486.3418,50.367686"
       id="path-effect2816"
       is_visible="true"
       lpeversion="1.2"
       lpesatellites=""
       mode="free"
       discard_orig_path="false"
       fuse_paths="false"
       oposite_fuse="false"
       split_items="false"
       split_open="false"
       link_styles="false" /><inkscape:path-effect
       effect="fillet_chamfer"
       id="path-effect1093"
       is_visible="true"
       lpeversion="1"
       nodesatellites_param="F,0,0,1,0,0,0,1 @ F,0,0,1,0,0,0,1 @ F,0,0,1,0,0,0,1 @ F,0,0,1,0,0,0,1 @ F,0,0,1,0,0,0,1 @ F,0,0,1,0,0,0,1 @ F,0,0,1,0,1.9438394,0,1 @ F,0,0,1,0,2.6727791,0,1 @ F,0,0,1,0,0,0,1 @ F,0,0,1,0,2.4297992,0,1 @ F,0,0,1,0,1.92968,0,1 @ F,0,0,1,0,0,0,1 @ F,0,0,1,0,0,0,1 @ F,0,0,1,0,0,0,1 @ F,0,0,1,0,0,0,1 @ F,0,0,1,0,0,0,1"
       unit="px"
       method="auto"
       mode="F"
       radius="0"
       chamfer_steps="1"
       flexible="false"
       use_knot_distance="true"
       apply_no_radius="true"
       apply_with_radius="true"
       only_selected="false"
       hide_knots="false" /><inkscape:path-effect
       effect="mirror_symmetry"
       start_point="484.50197,24.345523"
       end_point="484.50197,89.870774"
       center_point="484.50197,57.108148"
       id="path-effect1031"
       is_visible="true"
       lpeversion="1.2"
       lpesatellites=""
       mode="free"
       discard_orig_path="false"
       fuse_paths="false"
       oposite_fuse="false"
       split_items="true"
       split_open="false"
       link_styles="false" /><inkscape:path-effect
       effect="fillet_chamfer"
       id="path-effect1029"
       is_visible="true"
       lpeversion="1"
       nodesatellites_param="F,0,0,1,0,6.4215069,0,1 @ F,0,0,1,0,0,0,1 @ F,0,0,1,0,0,0,1"
       unit="px"
       method="auto"
       mode="F"
       radius="0"
       chamfer_steps="1"
       flexible="false"
       use_knot_distance="true"
       apply_no_radius="true"
       apply_with_radius="true"
       only_selected="false"
       hide_knots="false" /><inkscape:path-effect
       effect="fillet_chamfer"
       id="path-effect1023"
       is_visible="true"
       lpeversion="1"
       nodesatellites_param="F,0,0,1,0,9.3884482,0,1 @ F,0,0,1,0,0,0,1 @ F,0,0,1,0,0,0,1"
       unit="px"
       method="auto"
       mode="F"
       radius="0"
       chamfer_steps="1"
       flexible="false"
       use_knot_distance="true"
       apply_no_radius="true"
       apply_with_radius="true"
       only_selected="false"
       hide_knots="false" /><linearGradient
       id="linearGradient9964"><stop
         style="stop-color:#ffed10;stop-opacity:0.79487181;"
         offset="0"
         id="stop9960" /><stop
         style="stop-color:#e5c203;stop-opacity:0;"
         offset="1"
         id="stop9962" /></linearGradient><linearGradient
       id="linearGradient9948"><stop
         style="stop-color:#ffbe1f;stop-opacity:0.89230764;"
         offset="0"
         id="stop9944" /><stop
         style="stop-color:#ffbe1f;stop-opacity:0;"
         offset="1"
         id="stop9946" /></linearGradient><linearGradient
       xlink:href="#linearGradient2713"
       id="linearGradient2715"
       x1="-1.6174366"
       y1="204.63475"
       x2="301.61743"
       y2="204.63475"
       gradientUnits="userSpaceOnUse"
       gradientTransform="translate(-2.4204247e-6)" /><linearGradient
       id="linearGradient2713"><stop
         style="stop-color:#ef1f00;stop-opacity:1;"
         offset="0"
         id="stop2709" /><stop
         style="stop-color:#f95e0c;stop-opacity:1;"
         offset="0.5"
         id="stop3131" /><stop
         style="stop-color:#f11d00;stop-opacity:1;"
         offset="1"
         id="stop2711" /></linearGradient><linearGradient
       id="A"
       x1="150"
       y1="356.10999"
       x2="150"
       y2="161.16"
       gradientUnits="userSpaceOnUse"><stop
         offset="0"
         stop-color="#995b3c"
         id="stop2"
         style="stop-color:#ff9016;stop-opacity:1;" /><stop
         offset="0.69"
         stop-color="#51291b"
         id="stop4"
         style="stop-color:#c20000;stop-opacity:1;" /></linearGradient><radialGradient
       xlink:href="#linearGradient9948"
       id="radialGradient9950"
       cx="117.61364"
       cy="280.11362"
       fx="117.61364"
       fy="280.11362"
       r="27.84091"
       gradientTransform="matrix(1.3979592,0,0,0.81632653,-45.953154,48.040367)"
       gradientUnits="userSpaceOnUse" /><radialGradient
       xlink:href="#linearGradient9948"
       id="radialGradient9956"
       gradientUnits="userSpaceOnUse"
       gradientTransform="matrix(1.3979592,0,0,0.81632653,-45.953154,48.040367)"
       cx="117.61364"
       cy="280.11362"
       fx="117.61364"
       fy="280.11362"
       r="27.84091" /><linearGradient
       xlink:href="#linearGradient9964"
       id="linearGradient9968"
       x1="23.863638"
       y1="156.25"
       x2="107.95454"
       y2="208.52272"
       gradientUnits="userSpaceOnUse"
       gradientTransform="matrix(-1.0416666,0,0,0.83704832,164.3466,15.587674)" /></defs><path
     d="M 263.62,345 H 36.38 A 36.38,36.38 0 0 1 6.9999999e-7,308.62 V 259.14 H 300 v 49.48 A 36.38,36.38 0 0 1 263.62,345 Z"
     fill="url(#A)"
     id="path9"
     style="fill:url(#A)" /><path
     id="path13"
     style="fill:url(#linearGradient2715);fill-opacity:1;stroke-width:0.840729"
     d="M 139.05664 110.88867 C 87.108778 110.88867 2.8010866 137.31883 1.6054688 174.01562 L 0 223.31055 L 0 280.59375 C 4.607739 290.90881 18.598086 298.38086 34.771484 298.38086 L 262.01172 298.38086 C 282.10382 298.38086 299.55434 286.86458 299.8125 272.66602 L 300 262.34961 L 300 165.45898 C 287.72637 133.27455 205.53828 110.88867 157.72656 110.88867 L 139.05664 110.88867 z " /><path
     id="rect6881"
     style="fill:#de1f00;fill-opacity:1;stroke-width:9.266;stroke-linecap:square;stroke-linejoin:round;stop-color:#000000"
     class="UnoptimicedTransforms"
     d="M 0 232.41406 L 0 280.59375 C 7.2473565 286.6848 19.575242 298.38086 34.771484 298.38086 L 71.765625 298.38086 L 91.601562 291.26953 L 91.601562 273.33008 C 57.353136 264.97375 23.064347 254.60595 0 232.41406 z M 300 232.4375 C 269.16739 264.99618 235.45189 272.68884 192.04297 278.64648 L 192.04297 285.4043 L 228.23438 298.38086 L 262.01172 298.38086 C 282.10378 298.38086 299.55434 286.86454 299.8125 272.66602 L 300 262.36328 L 300 232.4375 z " /><path
     id="path9958"
     style="fill:url(#linearGradient9968);fill-rule:evenodd;stroke-width:0.933768"
     d="m 4.5454557,228.17892 c 0,26.00376 56.2497283,6.18275 93.5132563,6.18275 37.263528,0 48.532198,-30.59213 48.532198,-56.59589 0,-26.00375 -30.20806,-47.08396 -67.471589,-47.08396 -37.263532,0 -74.5738653,71.49335 -74.5738653,97.4971 z"
     class="UnoptimicedTransforms" /><path
     id="path349"
     d="m 154.16806,85.995407 a 28.927094,29.730627 0 0 0 28.92709,29.730623 28.927094,29.730627 0 0 0 28.9271,-29.730623 28.927094,29.730627 0 0 0 -28.9271,-29.730627 28.927094,29.730627 0 0 0 -28.92709,29.730627 z"
     style="fill:#277e37;fill-opacity:1;fill-rule:evenodd;stroke-width:0.977509" /><path
     id="path351"
     d="m 156.87099,73.224609 c 34.5993,26.954301 45.34822,16.45097 50.75691,1.068029 1.47951,3.428239 2.2493,7.118433 2.26332,10.849786 -8e-5,15.321766 -12.47351,27.742616 -27.86065,27.743226 -15.38789,4.7e-4 -27.86251,-12.42071 -27.8626,-27.743226 4.1e-4,-4.123257 0.92382,-8.194578 2.70302,-11.917815 z"
     style="fill:#155826;fill-opacity:0.489407;stroke-width:4.84219;stroke-linecap:round;stroke-linejoin:round;stop-color:#000000" /><path
     id="path353"
     d="m 173.65076,66.173592 a 12.052956,8.8388348 0 0 0 12.05296,8.838834 12.052956,8.8388348 0 0 0 12.05296,-8.838834 12.052956,8.8388348 0 0 0 -12.05296,-8.838835 12.052956,8.8388348 0 0 0 -12.05296,8.838835 z"
     style="fill:#59b738;fill-opacity:1;fill-rule:evenodd;stroke-width:0.807573" /><ellipse
     style="fill:#109529;fill-opacity:1;fill-rule:evenodd;stroke-width:0.977509"
     id="path2471"
     cx="116.90485"
     cy="85.995407"
     rx="28.927094"
     ry="29.730627" /><path
     id="rect3077"
     style="fill:#0f754b;fill-opacity:1;stroke-width:4.84219;stroke-linecap:round;stroke-linejoin:round;stop-color:#000000"
     d="m 143.12901,73.224609 c -34.5993,26.954301 -45.34822,16.45097 -50.756912,1.068029 -1.479505,3.428239 -2.249298,7.118433 -2.263321,10.849786 8.3e-5,15.321766 12.473513,27.742616 27.860653,27.743226 15.38789,4.7e-4 27.86251,-12.42071 27.8626,-27.743226 -4.1e-4,-4.123257 -0.92382,-8.194578 -2.70302,-11.917815 z" /><ellipse
     style="fill:#4fcc23;fill-opacity:1;fill-rule:evenodd;stroke-width:0.807573"
     id="path3707"
     cx="114.29628"
     cy="66.173592"
     rx="12.052956"
     ry="8.8388348" /><path
     id="rect3185"
     style="fill:#ff9016;stroke-width:7.37318;stroke-linecap:round;stroke-linejoin:round;stop-color:#000000;fill-opacity:1"
     d="m 127.76172,224.98828 c -0.93913,2.33701 -1.92708,4.57385 -2.90039,6.83984 C 93.680469,293.0428 57.712772,311.57874 0,276.57031 v 3.97657 c 7.7585346,7.69208 19.738058,17.83398 34.771484,17.83398 H 262.01172 c 20.34016,0 36.89381,-11.5178 35.64258,-21.09766 -57.18575,33.30765 -91.98691,12.91959 -123.625,-45.50586 -0.96583,-2.24972 -1.94675,-4.46939 -2.87891,-6.78906 z" /><path
     id="rect6269"
     style="fill:#dd4a0b;fill-opacity:1;stroke-width:9.31999;stroke-linecap:square;stroke-linejoin:round;stop-color:#000000"
     d="m 127.76172,224.98828 c -0.93913,2.14656 -1.92708,4.20111 -2.90039,6.28243 -16.08462,29.00414 -61.216626,59.3149 -82.173331,66.09372 4.806845,6.24733 32.055212,-2.25732 46.441104,-16.05893 16.955347,-16.26671 48.095997,-26.68505 60.055717,-14.48078 9.96341,-9.99228 49.5582,-5.66216 64.27489,13.41482 16.64818,21.58074 60.83753,23.16029 60.83753,14.43739 -27.62244,-2.16883 -80.14771,-29.32519 -100.26794,-63.45286 -0.96583,-2.06638 -1.94675,-4.10516 -2.87891,-6.23579 z" /><path
     style="fill:url(#radialGradient9956);fill-opacity:1;fill-rule:evenodd;stroke-width:1.12733"
     id="path9942"
     d="M 157.38637,276.7045 A 38.920456,22.727272 0 0 1 118.46591,299.43177 38.920456,22.727272 0 0 1 79.545456,276.7045 38.920456,22.727272 0 0 1 118.46591,253.97723 38.920456,22.727272 0 0 1 157.38637,276.7045 Z"
     class="UnoptimicedTransforms"
     transform="matrix(1,0,0,1.1625,0,-48.657665)" /><path
     class="UnoptimicedTransforms"
     id="path9973"
     d="m 4.5454557,228.17892 c 0,26.00376 56.2497283,6.18275 93.5132563,6.18275 37.263528,0 48.532198,-30.59213 48.532198,-56.59589 0,-26.00375 -30.20806,-47.08396 -67.471589,-47.08396 -37.263532,0 -74.5738653,71.49335 -74.5738653,97.4971 z"
     style="fill:url(#linearGradient9968);fill-rule:evenodd;stroke-width:0.933768"
     transform="matrix(-1,0,0,1,300,0)" /><path
     id="path9878"
     style="opacity:0.432866;fill:#ffc013;fill-opacity:0.90557939;stroke-width:2;stroke-linejoin:round;stop-color:#000000"
     class="UnoptimicedTransforms"
     d="M 95.974609 123.87695 C 80.734969 124.50655 57.501636 138.10971 44.998047 142.22461 C 63.936497 143.95863 84.022938 144.19747 101.10156 153.60156 C 105.56479 155.31724 107.15544 158.17005 103.02734 161.49219 C 89.956076 179.28477 69.889624 190.17264 49.417969 197.27344 C 39.699231 200.78705 29.810775 203.80882 20.087891 207.31055 C 33.903651 208.10356 47.691495 210.15828 61.558594 209.46289 C 46.288581 224.34512 36.513528 243.87801 29.695312 263.85352 C 41.695318 252.96442 48.383069 237.07254 61.826172 227.68945 C 66.796291 224.02265 73.066781 224.71306 78.804688 225.3457 C 122.9944 217.80132 153.45434 216.96232 113.36328 187.76367 C 114.65565 170.96417 113.56545 156.6503 110.72852 141.60742 C 111.38482 127.7933 105.11839 123.49919 95.974609 123.87695 z M 204.02539 123.87695 C 194.88161 123.49919 188.61518 127.7933 189.27148 141.60742 C 186.43455 156.6503 185.34435 170.96417 186.63672 187.76367 C 146.54566 216.96232 177.0056 217.80132 221.19531 225.3457 C 226.93322 224.71306 233.20371 224.02265 238.17383 227.68945 C 251.61693 237.07254 258.30468 252.96442 270.30469 263.85352 C 263.48647 243.87801 253.71142 224.34512 238.44141 209.46289 C 252.30851 210.15828 266.09635 208.10356 279.91211 207.31055 C 270.18923 203.80882 260.30077 200.78705 250.58203 197.27344 C 230.11038 190.17264 210.04392 179.28477 196.97266 161.49219 C 192.84456 158.17005 194.43521 155.31724 198.89844 153.60156 C 215.97706 144.19747 236.0635 143.95863 255.00195 142.22461 C 242.49836 138.10971 219.26503 124.50655 204.02539 123.87695 z " /><path
     id="path7687"
     style="color:#000000;fill:#1c1010;stroke-linecap:square;stroke-linejoin:round"
     d="M 110.71289 178.52344 L 108.98438 181.88672 C 100.93664 197.54285 81.574999 203.5754 59.878906 204.32031 C 38.182816 205.06523 14.805962 200.40826 1.1445312 196.07422 L 0 195.71094 L 0 203.62109 C 3.8797729 204.81641 8.3768249 206.01143 13.289062 207.11133 C 15.1967 209.25676 16.263513 211.40292 15.263672 213.54883 C 7.8751699 219.01637 3.1592528 224.04224 0 229.08008 L 0 247.73828 C 1.9321318 237.70813 5.2805503 229.85392 19.855469 219.06836 L 36.457031 210.92969 C 40.899155 211.40334 45.441431 211.73092 50.015625 211.875 C 50.449335 213.45708 50.530613 215.43577 47.787109 218.94141 C 28.978801 239.96803 28.404593 267.32264 21.121094 287.76562 C 17.886014 292.6069 27.382673 294.96836 28.699219 291.58008 C 30.86301 264.2049 37.423406 241.63696 53.701172 222.00586 C 56.091935 219.14927 67.101081 213.31208 75.689453 210.3457 C 78.524758 209.86504 81.305998 209.26377 84.013672 208.5293 C 84.026625 208.52983 84.043779 208.52674 84.056641 208.52734 L 84.074219 208.51367 C 97.679273 204.81162 109.34614 197.73166 115.71289 185.3457 L 117.44141 181.98242 L 110.71289 178.52344 z " /><path
     style="fill:none;fill-opacity:1;stroke:#1c1010;stroke-width:8.366;stroke-linecap:square;stroke-linejoin:round;stroke-dasharray:none;stroke-opacity:1;stop-color:#000000"
     d="M 111.39827,163.77398 C 93.441032,140.60454 62.732954,145.31234 34.55181,144.63548"
     id="path7622" /><path
     class="UnoptimicedTransforms"
     id="path9954"
     d="M 157.38637,276.7045 A 38.920456,22.727272 0 0 1 118.46591,299.43177 38.920456,22.727272 0 0 1 79.545456,276.7045 38.920456,22.727272 0 0 1 118.46591,253.97723 38.920456,22.727272 0 0 1 157.38637,276.7045 Z"
     style="fill:url(#radialGradient9950);fill-opacity:1;fill-rule:evenodd;stroke-width:1.12733"
     transform="matrix(-1,0,0,1.1625,300,-48.657665)" /><path
     id="path3883"
     style="color:#000000;fill:#1c1010;fill-opacity:1;stroke-width:0.97881;stroke-linecap:round;stroke-linejoin:round"
     d="M 125.5293 222.57812 C 124.94666 222.56753 124.34781 222.64392 123.74609 222.81836 C 117.88399 225.87876 116.09813 232.90981 111.96094 237.73047 C 100.03817 254.59324 85.768343 271.30168 65.890625 279.75586 C 27.945349 298.54935 12.700599 274.27815 0 258.83594 L 0 280.22656 C 0.16708541 280.7973 0.37401465 281.36228 0.671875 281.91602 C 19.581549 302.88595 38.662917 299.83968 58.806641 294.68945 C 81.50665 291.24229 99.388906 275.02713 113.22266 257.04883 C 119.89003 248.69951 126.09175 239.9579 131.37891 230.74805 C 132.92507 226.92742 129.6077 222.65228 125.5293 222.57812 z M 174.4707 222.57812 C 170.3923 222.65232 167.07493 226.92742 168.62109 230.74805 C 173.90825 239.9579 180.10997 248.69951 186.77734 257.04883 C 199.31475 274.64123 215.94246 290.71258 241.19336 294.68945 C 259.49175 298.99009 287.91889 302.19673 298.36914 282.79688 C 299.13407 282.30466 299.62018 281.81288 300 281.31641 L 300 274.39453 C 299.90343 273.8036 299.82812 273.1874 299.8125 272.52344 L 299.96289 260.69336 C 281.99398 288.19065 257.20754 291.2025 234.10938 279.75586 C 214.23163 271.30168 199.96183 254.59324 188.03906 237.73047 C 183.90187 232.90981 182.11601 225.87876 176.25391 222.81836 C 175.65219 222.644 175.05334 222.56755 174.4707 222.57812 z " /><path
     id="path7902"
     style="fill:#1c1010;fill-opacity:1;stroke-width:0.840729"
     d="m 150,104.45898 -18.86719,6.66993 C 78.978594,113.55861 2.7424112,139.11974 1.6054688,174.01562 L 0,223.31055 v 18.6582 l 1.6054688,-32.09766 c 0.9852311,-19.6876 28.4882972,-47.41516 62.9785152,-67.68164 12.513782,-7.3531 37.379206,-9.97807 44.308596,2.15625 3.07361,5.38232 5.50097,12.5442 7.61914,21.98438 h 66.97656 c 1.94768,-8.68036 4.15663,-15.43481 6.88867,-20.65039 6.45568,-12.32415 30.96563,-10.84297 43.69727,-4.00586 32.53392,17.47127 59.35455,40.5855 65.92578,59.05469 V 165.08594 C 288.53902,135.58921 217.70582,114.42022 169.39844,111.31641 Z" /><path
     id="rect6090"
     style="fill:#1c1010;fill-opacity:1;stroke-width:8.87152;stroke-linecap:square;stroke-linejoin:round;stop-color:#000000"
     d="M 127.76172 224.98828 C 126.82259 227.32529 125.83464 229.56214 124.86133 231.82812 C 123.56409 234.37488 122.24468 236.73253 120.92969 239.13086 C 130.57148 251.60007 138.82788 264.90092 145.11523 279.38281 L 145.11523 298.38086 L 154.38086 298.38086 L 154.38086 280.57812 C 160.44522 266.22182 168.48369 252.52294 178.39062 239.44727 C 176.93207 236.94132 175.47287 234.44315 174.0293 231.77734 C 173.06347 229.52763 172.08255 227.30795 171.15039 224.98828 L 127.76172 224.98828 z " /><path
     id="path4739"
     d="m 154.16806,85.995407 a 28.927094,29.730627 0 0 0 28.92709,29.730623 28.927094,29.730627 0 0 0 28.9271,-29.730623 28.927094,29.730627 0 0 0 -28.9271,-29.730627 28.927094,29.730627 0 0 0 -28.92709,29.730627 z"
     style="fill:#109529;fill-opacity:1;fill-rule:evenodd;stroke-width:0.977509" /><path
     id="path4741"
     d="m 156.87099,73.224609 c 34.5993,26.954301 45.34822,16.45097 50.75691,1.068029 1.47951,3.428239 2.2493,7.118433 2.26332,10.849786 -8e-5,15.321766 -12.47351,27.742616 -27.86065,27.743226 -15.38789,4.7e-4 -27.86251,-12.42071 -27.8626,-27.743226 4.1e-4,-4.123257 0.92382,-8.194578 2.70302,-11.917815 z"
     style="fill:#0f754b;fill-opacity:1;stroke-width:4.84219;stroke-linecap:round;stroke-linejoin:round;stop-color:#000000" /><path
     id="path4743"
     d="m 175.65076,66.173592 a 12.052956,8.8388348 0 0 0 12.05296,8.838834 12.052956,8.8388348 0 0 0 12.05296,-8.838834 12.052956,8.8388348 0 0 0 -12.05296,-8.838835 12.052956,8.8388348 0 0 0 -12.05296,8.838835 z"
     style="fill:#4fcc23;fill-opacity:1;fill-rule:evenodd;stroke-width:0.807573" /><path
     id="path9167"
     style="color:#000000;display:none;fill:#28201e;fill-opacity:1;stroke:none;stroke-width:2.519;stroke-linecap:round;stroke-linejoin:round;stroke-dasharray:none;stroke-opacity:1;paint-order:fill markers stroke"
     class="UnoptimicedTransforms"
     d="m 124.84766,21.115234 c -2.74234,0.163486 -4.84369,3.3516 -4.74805,6.791016 0.1048,3.768645 6.56851,4.512072 7.92383,7.746094 3.61163,8.618008 5.41613,17.142405 5.30859,27.699218 -0.0165,1.6186 1.31678,2.850519 2.97852,2.75 1.66176,-0.100781 3.02239,-1.494669 3.03906,-3.113281 0.11337,-11.129127 -1.86035,-20.423863 -5.60938,-29.541015 -1.46587,-3.564832 -2.32874,-7.96278 -5.19335,-10.710938 -1.06953,-1.026046 -2.13953,-1.521652 -3.14258,-1.611328 -0.18807,-0.01681 -0.37382,-0.02064 -0.55664,-0.0098 z m 50.30468,0 c -0.18282,-0.01087 -0.36857,-0.007 -0.55664,0.0098 -1.00305,0.08968 -2.07305,0.585282 -3.14258,1.611328 -2.86461,2.748158 -3.72748,7.146106 -5.19335,10.710938 -3.74903,9.117152 -5.72275,18.411888 -5.60938,29.541015 0.0167,1.618612 1.3773,3.0125 3.03906,3.113281 1.66174,0.100519 2.99502,-1.1314 2.97852,-2.75 -0.10754,-10.556813 1.69696,-19.08121 5.30859,-27.699218 1.35532,-3.234022 7.81903,-3.977449 7.92383,-7.746094 0.0956,-3.439416 -2.00571,-6.62753 -4.74805,-6.791016 z" /><ellipse
     style="fill:#28201e;fill-opacity:1;fill-rule:evenodd"
     id="path2052"
     cx="150"
     cy="102.79894"
     rx="51.425949"
     ry="45.801235" /><path
     id="path7317"
     style="fill:#342a28;fill-opacity:1;fill-rule:evenodd;stroke-width:0.496667"
     d="m 181.39026,86.335345 c -1.42006,12.310953 -16.14938,17.600845 -26.40999,16.374675 -10.61716,-1.26879 -24.06991,-10.605178 -22.64985,-22.916131 1.42006,-12.310952 1.9861,-23.13875 16.18911,-21.470518 14.20301,1.668234 34.29079,15.701019 32.87073,28.011974 z" /><path
     id="ellipse4755"
     style="fill:#4d4443;fill-rule:evenodd;stroke-width:0.323226;fill-opacity:1"
     d="m 172.81852,80.571952 c -0.92416,8.011852 -10.50986,11.454455 -17.18736,10.656482 -6.90955,-0.825713 -15.66447,-6.901748 -14.74031,-14.913598 0.92416,-8.01185 1.29253,-15.058476 10.53572,-13.972807 9.24318,1.08567 22.31611,10.218072 21.39195,18.229923 z" /><path
     id="rect1098"
     style="opacity:1;fill:#28201e;fill-opacity:1;stroke-width:6.266;stroke-linecap:round;stroke-linejoin:round;stop-color:#000000;stroke:#1c1010;stroke-opacity:1;stroke-dasharray:none"
     d="m 149.36328,118.92188 c -17.26325,-0.34609 -32.92473,13.2707 -36.34059,29.95465 -1.61997,7.26095 -0.85768,14.74595 -0.93318,22.11671 0.97327,19.22914 5.15458,38.36269 12.55142,56.14464 3.45735,8.18794 9.75735,16.33823 19.08799,17.75456 8.8628,1.66784 19.144,-0.28312 24.89437,-7.77632 7.87099,-10.13402 10.84473,-22.97869 14.11294,-35.14072 3.3997,-13.99099 4.91496,-28.42667 4.51556,-42.80797 0.61234,-15.04328 -7.94064,-30.16482 -21.6534,-36.66503 -5.00521,-2.5354 -10.64475,-3.65716 -16.23511,-3.58052 z" /><path
     id="path6138"
     style="opacity:1;fill:#342a28;fill-opacity:1;stroke:none;stroke-width:3.97746;stroke-linecap:round;stroke-linejoin:round;stroke-dasharray:none;stroke-opacity:1;stop-color:#000000"
     d="m 149.46606,125.95561 c -10.95817,-0.21969 -20.89959,8.42383 -23.06787,19.01428 -1.02831,4.60903 -0.54443,9.36027 -0.59235,14.039 0.61779,12.20605 3.27196,24.35144 7.96725,35.63886 2.19461,5.19745 6.19366,10.37101 12.11646,11.27004 5.62583,1.0587 12.15201,-0.17971 15.80216,-4.93616 4.99626,-6.43276 6.8839,-14.58615 8.95846,-22.30623 2.15802,-8.88105 3.11986,-18.04437 2.86633,-27.17317 0.3887,-9.549 -5.04047,-19.14769 -13.7449,-23.27382 -3.17715,-1.60939 -6.75696,-2.32145 -10.30554,-2.2728 z" /><ellipse
     style="fill:#4d4443;fill-opacity:1;fill-rule:evenodd"
     id="path7246"
     cx="150.66196"
     cy="148.25136"
     rx="18.079435"
     ry="16.472374" /><path
     id="path347"
     style="fill:#070505;fill-opacity:1"
     class="UnoptimicedTransforms"
     d="m 0,294.61914 c -0.67110067,14.17798 -0.24521663,30.47012 11.360978,40.53331 10.034746,9.85804 24.849095,10.68039 38.073463,9.84496 72.638449,-0.0871 145.283869,0.19103 217.917939,-0.14312 20.12711,-1.52662 35.42798,-22.01497 32.64762,-41.73117 -0.0762,-3.81769 0.19798,-12.91364 -0.24859,-3.54325 -1.80159,16.2064 -15.97265,32.91864 -33.36482,30.99323 -6.47779,-2.54351 -10.77456,-20.67554 -17.02441,-7.41187 -7.18898,9.23559 -22.73745,10.89307 -29.33148,0.15312 -3.4108,-11.607 -11.24669,-9.79727 -16.83144,-1.23723 -9.64105,9.12475 -22.88706,18.76796 -36.8446,13.66615 -9.23382,-2.20317 -16.27394,-13.92008 -24.20128,-3.70417 -10.42591,6.44006 -24.81862,7.16151 -34.40962,-1.27063 -8.622117,-2.84818 -16.687682,-21.6457 -25.010354,-11.23931 -4.949384,9.39747 -18.117764,15.83332 -27.128807,8.04188 C 51.643883,322.65215 43.016998,312.20747 40.45843,324.33326 32.968651,336.17704 16.428855,329.22713 9.5891065,320.30147 3.3914401,313.30067 -0.03279814,303.95438 0,294.61914 Z"
     transform="matrix(1,0,0,0.98409996,0,5.4879867)" /><path
     id="path4150"
     style="color:#000000;fill:#070505;stroke-linecap:square;stroke-linejoin:round;fill-opacity:1"
     d="M 145.11523 298.38086 L 145.11523 328.97656 L 145.11523 333.60938 L 154.38086 333.60938 L 154.38086 328.97656 L 154.38086 298.38086 L 145.11523 298.38086 z " /><path
     id="path4152"
     style="color:#000000;fill:#070505;stroke-linecap:square;stroke-linejoin:round"
     d="m 41.048828,298.38086 v 30.5957 4.63282 h 9.265625 v -4.63282 -30.5957 z m 42.587891,0 v 30.5957 4.63282 h 9.265625 v -4.63282 -30.5957 z"
     class="UnoptimicedTransforms" /><path
     id="path5836"
     style="color:#000000;fill:#1c1010;fill-opacity:1;stroke-linecap:square;stroke-linejoin:round"
     class="UnoptimicedTransforms"
     d="m 92.902344,277.11719 c -2.733425,4.03451 -10.412623,5.08572 -9.265625,10.76276 0,3.5003 0,7.00061 0,10.50091 3.088542,0 6.177083,0 9.265625,0 0,-7.08789 0,-14.17578 0,-21.26367 z m 114.195316,0 c 0,7.08789 0,14.17578 0,21.26367 3.08854,0 6.17708,0 9.26562,0 0,-4.66797 0,-9.33594 0,-14.00391 -3.29549,-2.1401 -6.37497,-4.60128 -9.26562,-7.25976 z M 41.048828,293.2207 c 0.02408,2.71768 -0.937631,6.42115 3.065123,5.16016 1.985365,-0.6653 6.927166,1.62583 6.200502,-1.7515 1.383679,-4.9639 -6.539221,-1.62439 -9.265625,-3.40866 z m 217.902342,0 c -4.02449,0.73212 -11.85073,-0.22551 -8.82775,5.16015 2.94259,0 5.88517,0 8.82775,0 0,-1.72005 0,-3.4401 0,-5.16015 z" /><path
     class="UnoptimicedTransforms"
     id="path5989"
     d="m 41.048828,298.38086 v 30.5957 4.63282 h 9.265625 v -4.63282 -30.5957 z m 42.587891,0 v 30.5957 4.63282 h 9.265625 v -4.63282 -30.5957 z"
     style="color:#000000;fill:#070505;stroke-linecap:square;stroke-linejoin:round"
     transform="matrix(-1,0,0,1,300,0)" /><path
     id="path55589"
     style="color:#000000;fill:#1c1010;stroke-linecap:square;stroke-linejoin:round"
     d="M 189.28711 178.52344 L 182.55859 181.98242 L 184.28711 185.3457 C 190.65386 197.73166 202.32073 204.81162 215.92578 208.51367 L 215.94336 208.52734 C 215.95622 208.52674 215.97337 208.52983 215.98633 208.5293 C 218.694 209.26377 221.47524 209.86504 224.31055 210.3457 C 232.89892 213.31208 243.90807 219.14927 246.29883 222.00586 C 262.5766 241.63696 269.13699 264.2049 271.30078 291.58008 C 272.61733 294.96836 282.11398 292.6069 278.87891 287.76562 C 271.5954 267.32264 271.0212 239.96803 252.21289 218.94141 C 249.46939 215.43577 249.55066 213.45708 249.98438 211.875 C 254.55857 211.73092 259.10084 211.40334 263.54297 210.92969 L 280.14453 219.06836 C 294.71945 229.85392 298.06787 237.70813 300 247.73828 L 300 229.08008 C 296.84074 224.04224 292.12483 219.01637 284.73633 213.54883 C 283.73649 211.40292 284.8033 209.25676 286.71094 207.11133 C 291.62318 206.01143 296.12023 204.81641 300 203.62109 L 300 195.71094 L 298.85547 196.07422 C 285.19403 200.40826 261.81719 205.06523 240.12109 204.32031 C 218.42501 203.5754 199.06336 197.54285 191.01562 181.88672 L 189.28711 178.52344 z " /><path
     id="path55591"
     d="m 188.60173,163.77398 c 17.95724,-23.16944 48.66532,-18.46164 76.84646,-19.1385"
     style="fill:none;fill-opacity:1;stroke:#1c1010;stroke-width:8.366;stroke-linecap:square;stroke-linejoin:round;stroke-dasharray:none;stroke-opacity:1;stop-color:#000000" /><ellipse
     style="fill:#ffcaca;fill-opacity:1;fill-rule:evenodd;stroke-width:0.642455"
     id="ellipse78856"
     cx="45.586494"
     cy="333.79254"
     rx="6.479435"
     ry="6.9097528" /><ellipse
     style="fill:#ffcaca;fill-opacity:1;fill-rule:evenodd;stroke-width:0.642455"
     id="ellipse78858"
     cx="87.771843"
     cy="333.79254"
     rx="6.479435"
     ry="6.9097528" /><ellipse
     style="fill:#ffcaca;fill-opacity:1;fill-rule:evenodd;stroke-width:0.642455"
     id="ellipse78860"
     cx="209.50671"
     cy="333.79254"
     rx="6.479435"
     ry="6.9097528" /><ellipse
     style="fill:#ffcaca;fill-opacity:1;fill-rule:evenodd;stroke-width:0.642455"
     id="path78854"
     cx="253.29912"
     cy="333.79254"
     rx="6.479435"
     ry="6.9097528" /><path
     id="ellipse78864"
     style="fill:#ffcaca;fill-opacity:1;fill-rule:evenodd;stroke-width:0.696408"
     class="UnoptimicedTransforms"
     d="M 57.408203 130.15039 A 5.9214961 8.8840524 60.611687 0 0 50.183594 133.00781 A 5.9214961 8.8840524 60.611687 0 0 48.191406 142.42188 A 5.9214961 8.8840524 60.611687 0 0 59.710938 140.79297 A 5.9214961 8.8840524 60.611687 0 0 61.705078 131.37891 A 5.9214961 8.8840524 60.611687 0 0 57.408203 130.15039 z M 242.5918 130.15039 A 8.8840524 5.9214961 29.388313 0 0 238.29492 131.37891 A 8.8840524 5.9214961 29.388313 0 0 240.28906 140.79297 A 8.8840524 5.9214961 29.388313 0 0 251.80859 142.42188 A 8.8840524 5.9214961 29.388313 0 0 249.81641 133.00781 A 8.8840524 5.9214961 29.388313 0 0 242.5918 130.15039 z M 33.863281 143.0625 A 5.9214961 8.8840524 60.611687 0 0 26.638672 145.91992 A 5.9214961 8.8840524 60.611687 0 0 24.646484 155.33008 A 5.9214961 8.8840524 60.611687 0 0 36.169922 153.70312 A 5.9214961 8.8840524 60.611687 0 0 38.160156 144.29102 A 5.9214961 8.8840524 60.611687 0 0 33.863281 143.0625 z M 266.13672 143.0625 A 8.8840524 5.9214961 29.388313 0 0 261.83984 144.29102 A 8.8840524 5.9214961 29.388313 0 0 263.83008 153.70312 A 8.8840524 5.9214961 29.388313 0 0 275.35352 155.33008 A 8.8840524 5.9214961 29.388313 0 0 273.36133 145.91992 A 8.8840524 5.9214961 29.388313 0 0 266.13672 143.0625 z " /><path
     id="path2653"
     style="fill:#ed7f05;fill-opacity:1;stroke-width:2.51388;stroke-linejoin:round;stop-color:#000000"
     d="m 466.76133,70.115691 6.2426,-1.644398 -0.004,0.01331 13.75993,-22.709614 -28.51213,-8.611139 z m 47.34465,-18.157759 -5.74123,2.951675 0.0119,0.0072 -25.41675,-7.684457 15.44181,-25.468484 z"
     sodipodi:nodetypes="cccccc"
     inkscape:path-effect="#path-effect2816"
     inkscape:original-d="m 466.76133,70.115691 6.2426,-1.644398 -0.004,0.01331 13.75993,-22.709614 -28.51213,-8.611139 z"
     class="UnoptimicedTransforms"
     transform="matrix(0.92479444,0.39987057,-0.35467982,0.94115196,-281.95592,-205.26062)" /><path
     id="rect973"
     style="fill:#fbc43f;fill-opacity:1;stroke-width:2.45014;stroke-linejoin:round;stop-color:#000000"
     d="m 149.94531,3.4062499 c -0.0566,0.1165454 -0.11329,0.2330641 -0.16992,0.3496094 -1.95942,2.3838233 -3.1159,5.8066511 -4.65234,8.6171867 -2.89243,6.064744 -5.67895,12.186474 -8.4375,18.322266 -0.50851,1.046563 -1.01493,2.094063 -1.52344,3.140626 l -0.31836,-0.07422 c -4.35277,-1.4015 -8.72443,-2.745954 -13.14063,-3.90039 -1.74664,-0.02948 -5.70833,-2.218713 -6.66991,-0.683593 l -0.20704,-0.04883 c 0.0237,0.109529 0.0532,0.217098 0.0781,0.326172 -0.0318,0.09961 -0.0641,0.198819 -0.0781,0.320312 1.97582,7.620083 6.26587,14.24688 8.81641,21.638673 0.59319,2.898896 3.52289,7.052168 0.1621,8.566405 l -0.10155,4.97461 c 1.87694,2.796919 9.12756,4.926875 17.70703,5.814453 2.49008,0.279072 5.07947,0.425152 7.68359,0.447265 0.30198,0.0038 0.60404,0.0013 0.90625,0.0019 0.30221,-6.8e-4 0.60427,0.0019 0.90625,-0.0019 2.60412,-0.02211 5.19351,-0.168193 7.68359,-0.447265 8.57947,-0.887578 15.83009,-3.017534 17.70703,-5.814453 l -0.10155,-4.97461 c -3.36079,-1.514237 -0.43108,-5.667509 0.1621,-8.566405 2.55054,-7.391793 6.84059,-14.01859 8.81641,-21.638673 -0.014,-0.121493 -0.0463,-0.220703 -0.0781,-0.320312 0.0249,-0.109074 0.0544,-0.216643 0.0781,-0.326172 l -0.20704,0.04883 c -0.96158,-1.53512 -4.92328,0.654106 -6.66991,0.683593 -4.4162,1.154436 -8.78786,2.49889 -13.14063,3.90039 l -0.31836,0.07422 c -0.50851,-1.046563 -1.01493,-2.094063 -1.52344,-3.140626 -2.75855,-6.135792 -5.54508,-12.257522 -8.43749,-18.322266 -1.53645,-2.8105356 -2.69293,-6.2333634 -4.65235,-8.6171867 -0.0567,-0.1165453 -0.1133,-0.233064 -0.16992,-0.3496094 -0.0192,0.021472 -0.0356,0.046693 -0.0547,0.068358 -0.019,-0.021664 -0.0355,-0.046886 -0.0547,-0.068358 z" /><g
     id="g1925"
     transform="matrix(0.99729925,0,0,1.0682533,-333.24757,-25.116721)"><ellipse
       style="fill:none;fill-opacity:1;fill-rule:evenodd;stroke:#ffe2ce;stroke-width:2.59326;stroke-dasharray:none;stroke-opacity:1"
       id="ellipse1918"
       cx="484.50195"
       cy="60.387386"
       rx="11.590384"
       ry="12.912096" /><ellipse
       style="fill:#f10e4d;fill-opacity:1;fill-rule:evenodd;stroke:#cb5300;stroke-width:1.2994;stroke-dasharray:none;stroke-opacity:1"
       id="path1150"
       cx="484.50195"
       cy="58.539021"
       rx="11.590384"
       ry="12.912096" /><ellipse
       style="fill:#ff3f97;fill-opacity:1;fill-rule:evenodd;stroke-width:0.662211"
       id="ellipse1152"
       cx="484.50195"
       cy="58.539021"
       rx="9.1715221"
       ry="10.217398" /><path
       id="ellipse1154"
       style="mix-blend-mode:normal;fill:#ffa3e9;fill-opacity:1;fill-rule:evenodd;stroke-width:0.686441"
       d="m 493.67348,55.747957 c -2.10065,6.170066 -16.24239,6.170065 -18.34305,0 -1.3749,-4.038365 5.16962,-8.324567 9.17152,-8.324568 4.0019,-10e-7 10.54643,4.2862 9.17153,8.324568 z"
       sodipodi:nodetypes="aaaa" /><ellipse
       style="fill:#ffa3e9;fill-opacity:1;fill-rule:evenodd;stroke-width:0.924184"
       id="path1640"
       cx="489.5545"
       cy="65.051216"
       rx="3.0315354"
       ry="2.8069775" /></g><g
     id="g3477"
     transform="matrix(0.99729925,0,0,1.0682533,-333.24757,-25.116721)"><path
       class="cls-16"
       d="m 465.98488,66.90387 c 1.11161,4.573248 1.65622,8.370611 -2.92449,9.482216 a 8.5272799,8.5272799 0 0 1 -4.02864,-16.569631 c 4.58071,-1.111605 5.84153,2.514167 6.95313,7.087415 z"
       id="path2983"
       style="fill:#1f479e;fill-opacity:1;stroke-width:0.746044" /><path
       class="cls-2"
       d="m 462.8888,74.312085 c 3.42434,-0.954936 2.29035,-3.640694 1.33542,-7.072495 -0.95494,-3.431801 -1.37272,-6.31153 -4.79706,-5.356594 a 6.4532783,6.4532783 0 1 0 3.46164,12.429089 z"
       id="path2985"
       style="fill:#2e86ba;fill-opacity:1;stroke-width:0.746044" /><ellipse
       class="cls-17"
       cx="322.01239"
       cy="337.88376"
       rx="2.1336851"
       ry="2.0963829"
       transform="rotate(-38.34)"
       id="ellipse2987"
       style="fill:#c5eafa;fill-opacity:1;stroke-width:0.746044" /></g><g
     class="UnoptimicedTransforms"
     id="g3193"
     transform="matrix(-0.99729925,-3.4307934e-7,-3.202918e-7,1.0682533,631.14472,-25.116555)"><path
       class="cls-16"
       id="path3187"
       d="m 463.98488,66.90387 c 1.11161,4.573248 1.65622,8.370611 -2.92449,9.482216 a 8.5272799,8.5272799 0 0 1 -4.02864,-16.569631 c 4.58071,-1.111605 5.84153,2.514167 6.95313,7.087415 z"
       style="fill:#1f479e;fill-opacity:1;stroke-width:0.746044" /><path
       class="cls-2"
       id="path3189"
       d="m 460.8888,74.312085 c 3.42434,-0.954936 2.29035,-3.640694 1.33542,-7.072495 -0.95494,-3.431801 -1.37272,-6.31153 -4.79706,-5.356594 a 6.4532783,6.4532783 0 1 0 3.46164,12.429089 z"
       style="fill:#2e86ba;fill-opacity:1;stroke-width:0.746044" /><path
       transform="rotate(-38.34)"
       class="cls-17"
       id="path3191"
       d="m 322.57738,336.6431 a 2.1336851,2.0963829 0 0 1 -2.13368,2.09638 2.1336851,2.0963829 0 0 1 -2.13369,-2.09638 2.1336851,2.0963829 0 0 1 2.13369,-2.09639 2.1336851,2.0963829 0 0 1 2.13368,2.09639 z"
       style="fill:#c5eafa;fill-opacity:1;stroke-width:0.746044" /></g><path
     id="path3905"
     style="fill:#ed7f05;fill-opacity:1;stroke-width:2.45014;stroke-linejoin:round;stop-color:#000000"
     d="m 123.7832,61.054688 c -0.0267,1.30013 -0.0534,2.60026 -0.0801,3.90039 2.00395,2.456705 5.26626,3.288838 8.17994,4.156174 10.47593,2.557525 21.49308,2.727247 32.10396,0.90348 3.9254,-0.799053 8.08031,-1.601628 11.36202,-4.043198 1.09078,-0.538096 0.9786,-1.622732 0.91484,-2.623125 -0.0157,-0.764574 -0.0314,-1.529147 -0.0471,-2.293721 -2.14256,2.46972 -5.50041,3.299545 -8.52378,4.164795 -10.68513,2.514561 -21.91036,2.62195 -32.68773,0.604789 -3.65447,-0.810936 -7.54026,-1.623265 -10.53109,-4.014717 -0.25414,-0.228147 -0.49082,-0.477653 -0.69096,-0.754867 z"
     sodipodi:nodetypes="ccccccccccccccc" /></svg>
