<?xml version="1.0" encoding="UTF-8" standalone="no"?>
<svg
   id="Layer_1"
   data-name="Layer 1"
   viewBox="0 0 300 345"
   version="1.1"
   sodipodi:docname="Lazy Candy Corn V3.svg"
   inkscape:version="1.2 (dc2aedaf03, 2022-05-15)"
   xml:space="preserve"
   xmlns:inkscape="http://www.inkscape.org/namespaces/inkscape"
   xmlns:sodipodi="http://sodipodi.sourceforge.net/DTD/sodipodi-0.dtd"
   xmlns="http://www.w3.org/2000/svg"
   xmlns:svg="http://www.w3.org/2000/svg"
   xmlns:rdf="http://www.w3.org/1999/02/22-rdf-syntax-ns#"
   xmlns:cc="http://creativecommons.org/ns#"
   xmlns:dc="http://purl.org/dc/elements/1.1/"><sodipodi:namedview
     id="namedview69"
     pagecolor="#505050"
     bordercolor="#ffffff"
     borderopacity="1"
     inkscape:showpageshadow="0"
     inkscape:pageopacity="0"
     inkscape:pagecheckerboard="1"
     inkscape:deskcolor="#505050"
     showgrid="false"
     inkscape:zoom="4.9623769"
     inkscape:cx="180.86091"
     inkscape:cy="268.41976"
     inkscape:window-width="1366"
     inkscape:window-height="705"
     inkscape:window-x="-8"
     inkscape:window-y="-8"
     inkscape:window-maximized="1"
     inkscape:current-layer="Layer_1" /><defs
     id="defs9"><style
       id="style2">.cls-1{fill:url(#linear-gradient);}.cls-2{fill:#f7aa74;}.cls-3{fill:#f49849;}.cls-4{fill:#d25927;}.cls-5{fill:#e17f34;}.cls-6{fill:#fff;}.cls-7{fill:#414042;}.cls-8{fill:none;stroke:#231f20;stroke-linecap:round;stroke-miterlimit:10;stroke-width:10px;}.cls-9{fill:#231f20;}.cls-10{fill:#b84f29;}</style><linearGradient
       id="linear-gradient"
       x1="150"
       y1="356.11"
       x2="150"
       y2="161.16"
       gradientUnits="userSpaceOnUse"><stop
         offset="0"
         stop-color="#f49849"
         id="stop4"
         style="stop-color:#fffb20;stop-opacity:1;" /><stop
         offset="0.69"
         stop-color="#d25927"
         id="stop6"
         style="stop-color:#f17800;stop-opacity:1;" /></linearGradient></defs><title
     id="title11">candy_corn</title><path
     class="cls-1"
     d="M 263.62,345 H 36.38 A 36.38,36.38 0 0 1 0,308.62 v -49.48 h 300 v 49.48 A 36.38,36.38 0 0 1 263.62,345 Z"
     id="path13"
     style="fill:url(#linear-gradient)" /><path
     id="rect17"
     style="display:inline;fill:#fffb20;fill-opacity:1"
     class="cls-3"
     d="M 150 1.3183594 C 131.54579 1.3183594 113.09152 6.4764988 100 16.791016 C 55.811409 51.606215 2.1916068 150.69154 1.5566406 210.41211 C 0.55241218 213.75104 1.5094915e-17 217.29016 0 220.96484 L 0 262.00977 C 0 282.16427 16.226359 298.39062 36.380859 298.39062 L 263.61914 298.39062 C 283.77364 298.39062 300 282.16427 300 262.00977 L 300 220.96484 C 300 217.29016 299.44759 213.75104 298.44336 210.41211 C 297.80839 150.69154 244.18859 51.606215 200 16.791016 C 186.90848 6.4764988 168.45421 1.3183594 150 1.3183594 z " /><rect
     class="cls-3"
     y="77.709999"
     width="300"
     height="220.67999"
     rx="36.380001"
     id="rect554"
     x="0"
     style="display:none" /><metadata
     id="metadata557"><rdf:RDF><cc:Work
         rdf:about=""><dc:title>candy_corn</dc:title></cc:Work></rdf:RDF></metadata><path
     id="rect2588"
     style="opacity:1;fill:#f9f6df;fill-opacity:1;stroke:none;stroke-width:3.638;stroke-linejoin:round;paint-order:stroke markers fill;stop-color:#000000"
     d="M 150 1.3183594 C 131.54581 1.3183594 113.09151 6.4765087 100 16.791016 C 82.216266 30.80242 62.949997 55.287931 46.179688 83.363281 L 253.82031 83.363281 C 237.05 55.287931 217.78373 30.80242 200 16.791016 C 186.90849 6.4765087 168.45419 1.3183594 150 1.3183594 z " /><path
     id="path6926"
     style="display:none;opacity:1;fill:#000000;fill-opacity:0.497549;stroke-width:3.5564;stroke-linejoin:round;paint-order:stroke markers fill;stop-color:#000000"
     d="m 61.351502,157.78711 a 48.646493,46.49535 0 0 0 -48.647271,46.49414 48.646493,46.49535 0 0 0 0.153262,2.04102 c 32.39961,-3.48144 64.70407,-5.51065 96.928757,-6.31641 A 48.646493,46.49535 0 0 0 61.351502,157.78711 Z" /><path
     id="path14890"
     d="m 238.6485,157.78711 a 48.646493,46.49535 0 0 1 48.64727,46.49414 48.646493,46.49535 0 0 1 -0.15326,2.04102 c -32.39961,-3.48144 -64.70407,-5.51065 -96.92876,-6.31641 a 48.646493,46.49535 0 0 1 48.43475,-42.21875 z"
     style="display:none;fill:#000000;fill-opacity:0.497549;stroke-width:3.5564;stroke-linejoin:round;paint-order:stroke markers fill;stop-color:#000000" /><path
     class="cls-3"
     d="m 185.05504,191.669 c -2.9e-4,5.2272 1.32246,7.19317 6.21389,7.25019 29.73368,-3.28199 71.07219,1.8675 97.34159,5.51407 4.84211,0.002 7.26326,5.39158 7.38652,0.21906 v -0.49423 l -1.29058,0.32478 c -13.66037,-5.53489 -40.00743,-17.65211 -94.28049,-8.30671 -10.24623,-10.9789 -3.19434,-15.41869 0.81907,-30.92872 7.7331,-10.20051 -4.39556,-18.33985 -4.49839,-10.3848 z"
     id="path31546"
     style="display:none;fill:#893700;fill-opacity:1;stroke-width:0.838784"
     sodipodi:nodetypes="cccccccccc" /><path
     id="rect14051"
     style="display:inline;opacity:1;fill:#512700;fill-opacity:1;stroke:none;stroke-width:5.44032;stroke-linecap:round;stroke-linejoin:round;stroke-dasharray:none;stroke-opacity:1;paint-order:stroke markers fill;stop-color:#000000"
     d="m 81.456639,270.62002 c 43.690721,-55.51754 89.164071,-61.67131 137.086721,0 v 7.53788 c -46.41744,9.38425 -91.99072,7.79439 -137.086721,0 z"
     sodipodi:nodetypes="ccccc" /><path
     style="fill:none;fill-rule:evenodd;stroke:#512700;stroke-width:5.12635;stroke-linecap:round;stroke-dasharray:none;stroke-opacity:1"
     id="path21022"
     sodipodi:type="arc"
     sodipodi:cx="370.03149"
     sodipodi:cy="-93.825722"
     sodipodi:rx="16.787821"
     sodipodi:ry="18.895527"
     sodipodi:start="2.0133944"
     sodipodi:end="3.4682903"
     sodipodi:arc-type="arc"
     d="m 362.84146,-76.75093 a 16.787821,18.895527 0 0 1 -8.70983,-23.138689"
     sodipodi:open="true"
     transform="matrix(0.41919376,0.9078968,-0.81118037,0.58479604,0,4)"
     class="UnoptimicedTransforms" /><path
     style="fill:none;fill-rule:evenodd;stroke:#512700;stroke-width:5.83288;stroke-linecap:round;stroke-dasharray:none;stroke-opacity:1"
     id="path21789"
     sodipodi:type="arc"
     sodipodi:cx="370.03149"
     sodipodi:cy="-93.825722"
     sodipodi:rx="16.787821"
     sodipodi:ry="18.895527"
     sodipodi:start="2.0133944"
     sodipodi:end="3.4682903"
     sodipodi:arc-type="arc"
     d="m 362.84146,-76.75093 a 16.787821,18.895527 0 0 1 -8.70983,-23.138689"
     sodipodi:open="true"
     transform="matrix(-0.41919376,0.9078968,0.81118037,0.58479604,299.83799,4)"
     class="UnoptimicedTransforms" /><path
     class="cls-3"
     d="m 115.35141,191.669 c 2.9e-4,5.2272 -1.32246,7.19317 -6.21389,7.25019 -29.733681,-3.28199 -71.072186,1.8675 -97.341586,5.51407 -4.8421114,0.002 -7.2632684,5.39158 -7.3865244,0.21906 v -0.49423 l 1.290583,0.32478 c 13.6603644,-5.53489 40.0074304,-17.65211 94.2804834,-8.30671 10.246234,-10.9789 3.194344,-15.41869 -0.819068,-30.92872 -7.733099,-10.20051 4.395562,-18.33985 4.498392,-10.3848 z"
     id="path9989"
     style="display:none;fill:#893700;fill-opacity:1;stroke-width:0.838784"
     sodipodi:nodetypes="cccccccccc" /><path
     id="path4874"
     style="opacity:1;fill:#b9540e;fill-opacity:1;stroke-width:5.872;stroke-linecap:round;stroke-linejoin:round;paint-order:stroke markers fill;stop-color:#000000"
     d="M 148.24023,70.908203 C 115.99869,70.827364 83.92409,73.143759 52.019531,77.876953 24.353456,121.2974 1.9653283,175.97374 1.5566406,214.41211 c -0.98444214,3.27314 -1.51971555,6.74283 -1.5410156,10.33984 104.154095,-41.09104 203.812385,-37.80235 299.970705,0.0254 -0.0188,-3.60627 -0.55617,-7.08424 -1.54297,-10.36523 -0.40593,-38.17855 -22.49139,-92.38629 -49.89844,-135.664063 -33.60623,-5.057378 -67.04664,-7.756456 -100.30469,-7.839844 z" /><path
     id="path7291"
     style="opacity:1;fill:#ebd6af;fill-opacity:1;stroke-width:5.872;stroke-linecap:round;stroke-linejoin:round;paint-order:stroke markers fill;stop-color:#000000"
     d="M 148.24023 62.908203 C 116.95864 62.829771 85.835565 65.027805 54.871094 69.480469 C 25.906362 113.55002 1.9792748 170.66203 1.5566406 210.41211 C 0.95486509 212.41294 0.57790842 214.50407 0.32226562 216.63477 C 104.25448 175.71483 203.71065 178.983 299.67969 216.66016 C 299.42449 214.52065 299.0475 212.42078 298.44336 210.41211 C 298.02346 170.91942 274.39871 114.29548 245.6875 70.34375 C 213.04354 65.559979 180.55504 62.989226 148.24023 62.908203 z " /><path
     class="cls-9"
     id="path7415"
     d="m 194.52485,191.15892 c -10.67179,25.01884 3.21291,48.67215 28.23176,59.34394 25.01885,10.67179 51.65333,4.33132 62.33572,-20.71238 10.6824,-25.04371 -3.43557,-48.15016 -28.45441,-58.82195 -25.01885,-10.67179 -51.44658,-4.81603 -62.11307,20.19039 z"
     style="fill:#ffffff;stroke-width:1.35121" /><path
     id="path7417"
     d="m 204.43088,197.48022 a 41.514362,41.514362 0 0 0 41.51436,41.51437 41.514362,41.514362 0 0 0 41.51436,-41.51437 41.514362,41.514362 0 0 0 -41.51436,-41.51436 41.514362,41.514362 0 0 0 -41.51436,41.51436 z"
     style="fill:#200c0c;fill-opacity:1;fill-rule:evenodd;stroke-width:0.936364" /><path
     class="cls-9"
     id="path11635"
     d="m 105.47515,191.15892 c 10.67179,25.01884 -3.21291,48.67215 -28.23176,59.34394 -25.01885,10.67179 -51.65333,4.33132 -62.33572,-20.71238 -10.6824,-25.04371 3.43557,-48.15016 28.45441,-58.82195 25.01885,-10.67179 51.44658,-4.81603 62.11307,20.19039 z"
     style="fill:#ffffff;stroke-width:1.35121" /><path
     id="path11637"
     d="M 95.56912,197.48022 A 41.514362,41.514362 0 0 1 54.05476,238.99459 41.514362,41.514362 0 0 1 12.5404,197.48022 41.514362,41.514362 0 0 1 54.05476,155.96586 41.514362,41.514362 0 0 1 95.56912,197.48022 Z"
     style="fill:#200c0c;fill-opacity:1;fill-rule:evenodd;stroke-width:0.936364" /><path
     id="rect1829"
     style="opacity:1;fill:#f06708;stroke-width:5.872;stroke-linecap:round;stroke-linejoin:round;paint-order:stroke markers fill;stop-color:#000000"
     d="M 148.24023,66.908203 C 115.99869,66.827364 83.92409,69.143759 52.019531,73.876953 24.353456,117.2974 1.2030464,172.1262 0.79435874,210.56457 L 0.015625,220.75195 C 104.16972,179.66091 203.82801,182.9496 299.98633,220.77734 L 299.3581,210.1072 C 298.95217,171.92865 275.95197,118.02582 248.54492,74.748047 214.93869,69.690669 181.49828,66.991591 148.24023,66.908203 Z"
     sodipodi:nodetypes="sccccccs" /><ellipse
     style="fill:#ffffff;fill-opacity:1;fill-rule:evenodd;stroke-width:0.721684"
     id="path33699"
     cx="113.87905"
     cy="4.5263305"
     rx="16.881548"
     ry="46.832684"
     transform="rotate(34.744702)" /><path
     id="path2441"
     style="display:inline;opacity:1;fill:#da6262;fill-opacity:1;stroke:#da6262;stroke-width:0.4;stroke-linecap:round;stroke-linejoin:round;stroke-dasharray:none;stroke-opacity:1;paint-order:stroke markers fill;stop-color:#000000"
     d="M 149.85352 257.63672 C 127.12407 257.72897 104.39457 265.52475 99.611328 280.93555 C 132.83408 285.37649 166.34115 286.12282 200.27734 281.28906 C 196.006 265.40014 172.93792 257.54302 149.85352 257.63672 z " /><path
     class="cls-9"
     id="path7421"
     d="m 232.96137,141.6713 c 7.47878,0.0436 27.58578,8.05417 35.31038,13.48531 20.23643,14.22815 21.30156,30.41139 19.56639,62.40401 -57.81418,-23.79092 -88.55382,-21.52046 -95.43203,-22.98537 -2.30277,-28.19356 4.27261,-60.44492 40.55526,-52.90395 z"
     style="fill:none;fill-opacity:1;stroke:#b9540e;stroke-width:5.39228;stroke-linecap:round;stroke-linejoin:round;stroke-dasharray:none;stroke-opacity:1"
     sodipodi:nodetypes="csccc" /><path
     id="path7423"
     d="m 215.316,233.64969 a 10.269857,9.5852003 0 0 0 10.26986,9.5852 10.269857,9.5852003 0 0 0 10.26986,-9.5852 10.269857,9.5852003 0 0 0 -10.26986,-9.5852 10.269857,9.5852003 0 0 0 -10.26986,9.5852 z"
     style="fill:#ffffff;fill-opacity:1;fill-rule:evenodd;stroke-width:0.488889" /><path
     id="rect10854"
     style="fill:#f06708;stroke-width:4.251;stroke-linecap:round;stroke-linejoin:round;paint-order:stroke markers fill;stop-color:#000000"
     d="m 257.09192,132.16697 33.79612,39.22764 1.94399,46.77458 c -13.56226,-6.57556 -32.71063,-14.20004 -60.07059,-21.99305 9.63372,-18.77561 50.39591,-28.09797 24.33048,-64.00917 z"
     sodipodi:nodetypes="ccccc" /><path
     class="cls-9"
     id="path11639"
     d="m 67.03863,141.6713 c -7.47878,0.0436 -27.58578,8.05417 -35.31038,13.48531 -20.23643,14.22815 -21.30156,30.41139 -19.56639,62.40401 57.81418,-23.79092 88.55382,-21.52046 95.43203,-22.98537 2.30277,-28.19356 -4.27261,-60.44492 -40.55526,-52.90395 z"
     style="fill:none;fill-opacity:1;stroke:#b9540e;stroke-width:5.39228;stroke-linecap:round;stroke-linejoin:round;stroke-dasharray:none;stroke-opacity:1" /><path
     id="path11641"
     d="m 84.684,233.64969 a 10.269857,9.5852003 0 0 1 -10.26986,9.5852 10.269857,9.5852003 0 0 1 -10.26986,-9.5852 10.269857,9.5852003 0 0 1 10.26986,-9.5852 10.269857,9.5852003 0 0 1 10.26986,9.5852 z"
     style="fill:#ffffff;fill-opacity:1;fill-rule:evenodd;stroke-width:0.488889" /><path
     id="path11643"
     d="M 42.90808,132.16697 9.11196,171.39461 7.16797,218.16919 C 20.73023,211.59363 39.8786,203.96915 67.23856,196.17614 57.60484,177.40053 16.84265,168.07817 42.90808,132.16697 Z"
     style="fill:#f06708;stroke-width:4.251;stroke-linecap:round;stroke-linejoin:round;paint-order:stroke markers fill;stop-color:#000000" /><ellipse
     style="fill:#ffffff;fill-opacity:1;fill-rule:evenodd;stroke-width:0.575"
     id="path33703"
     cx="47.015034"
     cy="128.94466"
     rx="9.3945856"
     ry="10.736669" /></svg>
