<?xml version="1.0" encoding="UTF-8" standalone="no"?>
<svg
   id="Layer_1"
   data-name="Layer 1"
   viewBox="0 0 300 345"
   version="1.1"
   sodipodi:docname="Candy Apple Critter V2.svg"
   xml:space="preserve"
   inkscape:version="1.2 (dc2aedaf03, 2022-05-15)"
   xmlns:inkscape="http://www.inkscape.org/namespaces/inkscape"
   xmlns:sodipodi="http://sodipodi.sourceforge.net/DTD/sodipodi-0.dtd"
   xmlns:xlink="http://www.w3.org/1999/xlink"
   xmlns="http://www.w3.org/2000/svg"
   xmlns:svg="http://www.w3.org/2000/svg"><sodipodi:namedview
     id="namedview123"
     pagecolor="#505050"
     bordercolor="#ffffff"
     borderopacity="1"
     inkscape:showpageshadow="0"
     inkscape:pageopacity="0"
     inkscape:pagecheckerboard="1"
     inkscape:deskcolor="#505050"
     showgrid="false"
     inkscape:zoom="1.4295642"
     inkscape:cx="82.542638"
     inkscape:cy="214.05125"
     inkscape:window-width="1366"
     inkscape:window-height="705"
     inkscape:window-x="-8"
     inkscape:window-y="-8"
     inkscape:window-maximized="1"
     inkscape:current-layer="Layer_1" /><defs
     id="defs25"><inkscape:path-effect
       effect="mirror_symmetry"
       start_point="109.94993,166.03624"
       end_point="109.94993,185.69355"
       center_point="109.94993,175.86489"
       id="path-effect1551"
       is_visible="true"
       lpeversion="1.2"
       lpesatellites=""
       mode="vertical"
       discard_orig_path="false"
       fuse_paths="false"
       oposite_fuse="false"
       split_items="false"
       split_open="false"
       link_styles="false" /><linearGradient
       inkscape:collect="always"
       id="linearGradient1399"><stop
         style="stop-color:#863f25;stop-opacity:1;"
         offset="0"
         id="stop1395" /><stop
         style="stop-color:#863f25;stop-opacity:0;"
         offset="1"
         id="stop1397" /></linearGradient><linearGradient
       inkscape:collect="always"
       id="linearGradient22906"><stop
         style="stop-color:#863f25;stop-opacity:1;"
         offset="0"
         id="stop22902" /><stop
         style="stop-color:#863f25;stop-opacity:0;"
         offset="1"
         id="stop22904" /></linearGradient><inkscape:path-effect
       effect="mirror_symmetry"
       start_point="109.94993,166.03624"
       end_point="109.94993,185.69355"
       center_point="109.94993,175.86489"
       id="path-effect18805"
       is_visible="true"
       lpeversion="1.2"
       lpesatellites=""
       mode="vertical"
       discard_orig_path="false"
       fuse_paths="false"
       oposite_fuse="false"
       split_items="false"
       split_open="false"
       link_styles="false" /><inkscape:path-effect
       effect="mirror_symmetry"
       start_point="274.2459,178.39346"
       end_point="274.2459,266.21703"
       center_point="274.2459,222.30524"
       id="path-effect13582"
       is_visible="true"
       lpeversion="1.2"
       lpesatellites="#g330"
       mode="vertical"
       discard_orig_path="false"
       fuse_paths="false"
       oposite_fuse="false"
       split_items="true"
       split_open="false"
       link_styles="false" /><style
       id="style2">.cls-1{fill:url(#linear-gradient);}.cls-2{fill:#dae6f5;}.cls-3{fill:url(#radial-gradient);}.cls-4{fill:url(#radial-gradient-2);}.cls-5{fill:#9cb9db;}.cls-6{fill:#fff;}.cls-7{fill:#414042;}.cls-8,.cls-9{fill:none;stroke-linecap:round;stroke-miterlimit:10;stroke-width:6px;}.cls-8{stroke:#8aa9ce;}.cls-9{stroke:#436789;}.cls-10{fill:#c1956a;}.cls-11{fill:#dcbf9a;}.cls-12{fill:#d8ac80;}.cls-13{fill:#b6cbe9;}</style><linearGradient
       id="linear-gradient"
       x1="150"
       y1="354.17419"
       x2="150"
       y2="244.09882"
       gradientUnits="userSpaceOnUse"><stop
         offset="0"
         stop-color="#9dc6ea"
         id="stop4"
         style="stop-color:#8d432a;stop-opacity:1;" /><stop
         offset="0.62367505"
         stop-color="#416eb5"
         id="stop6"
         style="stop-color:#522313;stop-opacity:1;" /></linearGradient><linearGradient
       inkscape:collect="always"
       xlink:href="#linearGradient1399"
       id="linearGradient22908"
       x1="55.016605"
       y1="313.78622"
       x2="76.932159"
       y2="319.22742"
       gradientUnits="userSpaceOnUse" /><linearGradient
       inkscape:collect="always"
       xlink:href="#linearGradient22906"
       id="linearGradient22968"
       gradientUnits="userSpaceOnUse"
       x1="55.016605"
       y1="313.78622"
       x2="76.932159"
       y2="319.22742" /></defs><path
     class="cls-1"
     d="M 263.62,345 H 36.38 A 36.38,36.38 0 0 1 0,308.62 v -49.48 h 300 v 49.48 A 36.38,36.38 0 0 1 263.62,345 Z"
     id="path27"
     style="fill:url(#linear-gradient)" /><path
     id="path29"
     style="fill:#8d432a;fill-opacity:1;stroke-width:0.981994"
     class="cls-2"
     d="M 102.24414 74.990234 C 46.736671 74.269289 1.4585218 116.71097 0.10546875 174.46875 L 0 174.46875 L 0 215.63672 L 0 248.9375 L 0 291.29883 C 0 310.67384 16.2888 326.38086 36.380859 326.38086 L 263.61914 326.38086 C 283.7112 326.38086 300 310.67384 300 291.29883 L 300 235.39258 L 300 215.63672 L 300 174.46875 L 299.86328 174.46875 C 298.34136 109.82715 241.81727 64.368769 177.51562 77.138672 C 167.64045 79.099822 158.46071 82.117462 150 86.072266 C 141.53929 82.117462 132.35955 79.099822 122.48438 77.138672 C 115.63116 75.77767 108.86541 75.076233 102.24414 74.990234 z " /><rect
     style="opacity:1;fill:#a76437;fill-opacity:1;stroke:none;stroke-width:1.8875;stroke-linecap:round;stroke-linejoin:round;stroke-dasharray:none;stroke-opacity:1;paint-order:markers stroke fill;stop-color:#000000"
     id="rect22962"
     width="196.66333"
     height="6.096271"
     x="58.359444"
     y="320.28461" /><g
     id="g13580"
     class="UnoptimicedTransforms"
     transform="translate(0,10)"
     inkscape:path-effect="#path-effect13582"><circle
       class="cls-5"
       cx="235.44086"
       cy="215.18004"
       r="36.786575"
       id="circle35"
       style="fill:#522313;fill-opacity:1;stroke-width:1.00923"
       d="m 272.22743,215.18004 a 36.786575,36.786575 0 0 1 -36.78657,36.78657 36.786575,36.786575 0 0 1 -36.78658,-36.78657 36.786575,36.786575 0 0 1 36.78658,-36.78658 36.786575,36.786575 0 0 1 36.78657,36.78658 z" /><circle
       class="cls-6"
       cx="237.45932"
       cy="229.43045"
       r="36.786575"
       id="circle13244"
       style="fill:#a76438;fill-opacity:1;stroke-width:1.00923"
       d="m 274.2459,229.43045 a 36.786575,36.786575 0 0 1 -36.78658,36.78658 36.786575,36.786575 0 0 1 -36.78658,-36.78658 36.786575,36.786575 0 0 1 36.78658,-36.78657 36.786575,36.786575 0 0 1 36.78658,36.78657 z" /><circle
       class="cls-6"
       cx="235.44086"
       cy="225.39351"
       r="36.786575"
       id="circle39"
       style="stroke-width:1.00923"
       d="m 272.22743,225.39351 a 36.786575,36.786575 0 0 1 -36.78657,36.78657 36.786575,36.786575 0 0 1 -36.78658,-36.78657 36.786575,36.786575 0 0 1 36.78658,-36.78658 36.786575,36.786575 0 0 1 36.78657,36.78658 z" /><path
       class="cls-7 UnoptimicedTransforms"
       d="m 275.35852,220.29887 a 17.931405,17.931405 0 0 1 -25.88015,-24.09911 31.882939,31.882939 0 0 0 -4.4966,-0.32982 31.102357,31.102357 0 1 0 31.10236,31.10236 31.663057,31.663057 0 0 0 -0.72561,-6.67343 z m -43.70162,26.96856 a 7.3990406,7.3990406 0 1 1 7.39905,-7.38804 7.3880465,7.3880465 0 0 1 -7.39905,7.38804 z"
       id="path43"
       style="stroke-width:1.09941"
       transform="matrix(1.086739,0,0,1.086739,-29.988344,-21.6525)"
       inkscape:original-d="m 275.35852,220.29887 a 17.931405,17.931405 0 0 1 -25.88015,-24.09911 31.882939,31.882939 0 0 0 -4.4966,-0.32982 31.102357,31.102357 0 1 0 31.10236,31.10236 31.663057,31.663057 0 0 0 -0.72561,-6.67343 z m -43.70162,26.96856 a 7.3990406,7.3990406 0 1 1 7.39905,-7.38804 7.3880465,7.3880465 0 0 1 -7.39905,7.38804 z" /></g><path
     class="cls-8"
     d="m 173.64899,253.53063 c 0,0 -2.68556,16.55264 -23.64899,16.55264 -20.96345,0 -23.64899,-16.55264 -23.64899,-16.55264"
     id="path332"
     style="stroke:#a76437;stroke-opacity:1" /><path
     class="cls-8"
     d="m 173.64899,250.64811 c 0,0 -2.68556,16.55263 -23.64899,16.55263 -20.96345,0 -23.64899,-16.55263 -23.64899,-16.55263"
     id="path47"
     style="stroke:#662915;stroke-opacity:1" /><path
     id="path9291"
     style="opacity:1;fill:#a76437;fill-opacity:1;stroke:#a76437;stroke-width:6.01799994;stroke-linecap:round;stroke-linejoin:round;stroke-dasharray:none;stroke-opacity:1;paint-order:markers stroke fill;stop-color:#000000"
     d="M 102.24414,80.990234 C 66.438727,80.525184 34.897237,98.02994 16.642578,126.00781 c 14.506731,18.88264 36.199633,34.03741 58.925781,37.23047 33.506031,4.70766 61.128381,-35.64907 94.962891,-35.85351 26.79189,-0.16189 49.68337,34.52446 75.5332,27.48046 15.46554,-4.2143 25.28565,-19.67132 32.90821,-35.02148 C 256.54551,90.621089 218.62155,74.975293 177.51562,83.138672 167.64044,85.099824 158.46072,88.117458 150,92.072266 c -8.46072,-3.954808 -17.64044,-6.972442 -27.51562,-8.933594 -6.85322,-1.361003 -13.61896,-2.062439 -20.24024,-2.148438 z" /><path
     id="rect8681"
     style="opacity:1;fill:#c9281f;stroke-width:2.61837;stroke-linecap:round;stroke-linejoin:round;paint-order:markers stroke fill;stop-color:#000000"
     d="M 102.24414 74.990234 C 66.438727 74.525184 34.897237 92.029943 16.642578 120.00781 C 31.149309 138.89045 52.842211 154.04522 75.568359 157.23828 C 109.07439 161.94594 136.69674 121.58921 170.53125 121.38477 C 197.32314 121.22288 220.21462 155.90923 246.06445 148.86523 C 261.52999 144.65093 271.3501 129.19391 278.97266 113.84375 C 256.54551 84.621089 218.62155 68.975293 177.51562 77.138672 C 167.64044 79.099824 158.46072 82.117458 150 86.072266 C 141.53928 82.117458 132.35956 79.099824 122.48438 77.138672 C 115.63116 75.777669 108.86542 75.076233 102.24414 74.990234 z " /><path
     id="path13584"
     style="fill:#f2d6d5;fill-rule:evenodd"
     d="m 97.520757,93.445183 c 2.652413,8.237147 -9.544507,9.404597 -24.540332,14.233367 -14.995827,4.82876 -27.111951,11.49026 -29.764369,3.25312 -2.652418,-8.23715 6.861317,-20.358868 21.857147,-25.187628 14.995829,-4.828759 29.795136,-0.536006 32.447554,7.701141 z"
     sodipodi:nodetypes="sssss" /><path
     id="path14001"
     style="fill:#a21a12;fill-opacity:1;fill-rule:evenodd;stroke-width:1.77706"
     d="M 165.74414 80.121094 C 160.25922 81.777044 154.98962 83.739959 150 86.072266 C 145.02506 83.746819 139.77203 81.7879 134.30469 80.134766 A 24.105913 18.882965 0 0 0 125.89453 94.414062 A 24.105913 18.882965 0 0 0 150 113.29688 A 24.105913 18.882965 0 0 0 174.10547 94.414062 A 24.105913 18.882965 0 0 0 165.74414 80.121094 z " /><rect
     style="opacity:1;fill:#c19579;fill-opacity:1;stroke:none;stroke-width:4.06932;stroke-linecap:round;stroke-linejoin:round;stroke-dasharray:none;stroke-opacity:1;paint-order:markers stroke fill;stop-color:#000000"
     id="rect14886"
     width="16.070606"
     height="101.24483"
     x="125.86742"
     y="23.768299"
     ry="8.0353031"
     transform="rotate(-9.1187604)"
     inkscape:transform-center-x="8.8388348"
     inkscape:transform-center-y="-47.408296" /><path
     id="path15894"
     style="fill:#74130d;fill-opacity:1;fill-rule:evenodd;stroke-width:0.420408"
     d="m 164.88476,91.509831 c 0,2.337268 -6.34055,11.637989 -14.56118,11.637989 -8.22062,0 -15.20834,-9.300721 -15.20834,-11.637989 0,-2.337267 6.66413,4.93733 14.88476,4.93733 8.22063,0 14.88476,-7.274597 14.88476,-4.93733 z"
     sodipodi:nodetypes="sssss" /><path
     id="rect16195"
     style="opacity:1;fill:#a76437;fill-opacity:1;stroke:none;stroke-width:3.135;stroke-linecap:round;stroke-linejoin:round;stroke-dasharray:none;stroke-opacity:1;paint-order:markers stroke fill;stop-color:#000000"
     d="m 109.94993,166.03624 -2.94905,19.65731 -37.840105,-15.72675 z m 90.76236,23.59265 -6.99684,18.60513 40.70869,4.69112 z"
     sodipodi:nodetypes="cccc"
     class="UnoptimicedTransforms"
     transform="rotate(-14.570925,118.44535,194.30756)"
     inkscape:path-effect="#path-effect1551"
     inkscape:original-d="M 109.94993,166.03624 107.00088,185.69355 69.160775,169.9668 Z" /><path
     id="rect21443"
     style="opacity:1;fill:#a76437;fill-opacity:1;stroke:none;stroke-width:3.135;stroke-linecap:round;stroke-linejoin:round;stroke-dasharray:none;stroke-opacity:1;paint-order:markers stroke fill;stop-color:#000000"
     d="M 0 251.06055 L 0 291.29883 C 0 310.6738 16.28884 326.38086 36.380859 326.38086 L 73.304688 326.38086 A 100.21295 126.33348 0 0 1 2.375 251.06055 L 0 251.06055 z M 299.50391 251.06055 A 100.21295 126.33348 0 0 1 228.57422 326.38086 L 263.61914 326.38086 C 283.71116 326.38086 300 310.6738 300 291.29883 L 300 251.06055 L 299.50391 251.06055 z " /><path
     id="path21852"
     style="opacity:1;fill:url(#linearGradient22908);fill-opacity:1;stroke:none;stroke-width:3.135;stroke-linecap:round;stroke-linejoin:round;stroke-dasharray:none;stroke-opacity:1;paint-order:markers stroke fill;stop-color:#000000"
     d="m 0,241.06055 v 40.23828 c 0,19.37495 46.517764,39.91865 66.609763,39.91865 H 103.53359 C 58.101089,318.12335 2.4824093,284.6786 2.375,241.06055 Z"
     sodipodi:nodetypes="cssccc"
     class="UnoptimicedTransforms" /><path
     class="cls-5"
     id="path22974"
     d="m 27.77257,225.18004 a 36.786575,36.786575 0 0 0 36.78657,36.78657 36.786575,36.786575 0 0 0 36.78658,-36.78657 36.786575,36.786575 0 0 0 -36.78658,-36.78658 36.786575,36.786575 0 0 0 -36.78657,36.78658 z"
     style="fill:#522313;fill-opacity:1;stroke-width:1.00923" /><path
     class="cls-6"
     id="path22976"
     d="M 25.7541,239.43045 A 36.786575,36.786575 0 0 0 62.54068,276.21703 36.786575,36.786575 0 0 0 99.32726,239.43045 36.786575,36.786575 0 0 0 62.54068,202.64388 36.786575,36.786575 0 0 0 25.7541,239.43045 Z"
     style="fill:#a76438;fill-opacity:1;stroke-width:1.00923" /><path
     class="cls-6"
     id="path22978"
     d="m 27.77257,235.39351 a 36.786575,36.786575 0 0 0 36.78657,36.78657 36.786575,36.786575 0 0 0 36.78658,-36.78657 36.786575,36.786575 0 0 0 -36.78658,-36.78658 36.786575,36.786575 0 0 0 -36.78657,36.78658 z"
     style="stroke-width:1.00923" /><path
     transform="matrix(-1.086739,0,0,1.086739,329.98834,-11.6525)"
     class="cls-7 UnoptimicedTransforms"
     id="path22980"
     d="m 275.35852,220.29887 a 17.931405,17.931405 0 0 1 -25.88015,-24.09911 31.882939,31.882939 0 0 0 -4.4966,-0.32982 31.102357,31.102357 0 1 0 31.10236,31.10236 31.663057,31.663057 0 0 0 -0.72561,-6.67343 z m -43.70162,26.96856 a 7.3990406,7.3990406 0 1 1 7.39905,-7.38804 7.3880465,7.3880465 0 0 1 -7.39905,7.38804 z"
     style="stroke-width:1.09941" /><ellipse
     style="fill:#f2d6d5;fill-opacity:1;fill-rule:evenodd;stroke-width:0.518485"
     id="path23126"
     cx="13.350515"
     cy="140.90207"
     rx="9.8268251"
     ry="6.1768613"
     transform="rotate(-18.687185)" /><path
     id="path22966"
     style="opacity:1;fill:url(#linearGradient22968);fill-opacity:1;stroke:none;stroke-width:3.135;stroke-linecap:round;stroke-linejoin:round;stroke-dasharray:none;stroke-opacity:1;paint-order:markers stroke fill;stop-color:#000000"
     d="m 0,241.06055 v 40.23828 c 0,19.37495 46.517764,39.91865 66.609763,39.91865 H 103.53359 C 58.101089,318.12335 2.4824093,284.6786 2.375,241.06055 Z"
     sodipodi:nodetypes="cssccc"
     class="UnoptimicedTransforms"
     transform="matrix(-1,0,0,1,300,0)" /><g
     transform="matrix(-1,0,0,1,300,10)"
     class="UnoptimicedTransforms"
     id="g330"><path
       class="cls-5"
       id="path322"
       d="m 272.22743,215.18004 a 36.786575,36.786575 0 0 1 -36.78657,36.78657 36.786575,36.786575 0 0 1 -36.78658,-36.78657 36.786575,36.786575 0 0 1 36.78658,-36.78658 36.786575,36.786575 0 0 1 36.78657,36.78658 z"
       style="fill:#522313;fill-opacity:1;stroke-width:1.00923" /><path
       class="cls-6"
       id="path324"
       d="m 274.2459,229.43045 a 36.786575,36.786575 0 0 1 -36.78658,36.78658 36.786575,36.786575 0 0 1 -36.78658,-36.78658 36.786575,36.786575 0 0 1 36.78658,-36.78657 36.786575,36.786575 0 0 1 36.78658,36.78657 z"
       style="fill:#a76438;fill-opacity:1;stroke-width:1.00923" /><path
       class="cls-6"
       id="path326"
       d="m 272.22743,225.39351 a 36.786575,36.786575 0 0 1 -36.78657,36.78657 36.786575,36.786575 0 0 1 -36.78658,-36.78657 36.786575,36.786575 0 0 1 36.78658,-36.78658 36.786575,36.786575 0 0 1 36.78657,36.78658 z"
       style="stroke-width:1.00923" /><path
       transform="matrix(1.086739,0,0,1.086739,-29.988344,-21.6525)"
       class="cls-7 UnoptimicedTransforms"
       id="path328"
       d="m 275.35852,220.29887 a 17.931405,17.931405 0 0 1 -25.88015,-24.09911 31.882939,31.882939 0 0 0 -4.4966,-0.32982 31.102357,31.102357 0 1 0 31.10236,31.10236 31.663057,31.663057 0 0 0 -0.72561,-6.67343 z m -43.70162,26.96856 a 7.3990406,7.3990406 0 1 1 7.39905,-7.38804 7.3880465,7.3880465 0 0 1 -7.39905,7.38804 z"
       style="stroke-width:1.09941" /></g></svg>
