<svg id="Layer_1" data-name="Layer 1" xmlns="http://www.w3.org/2000/svg" xmlns:xlink="http://www.w3.org/1999/xlink" viewBox="0 0 300 345"><defs><linearGradient id="linear-gradient" x1="150" y1="356.11" x2="150" y2="161.16" gradientUnits="userSpaceOnUse"><stop offset="0" stop-color="#114f30"/><stop offset="0.69" stop-color="#0b2b1a"/></linearGradient><linearGradient id="linear-gradient-2" x1="17.43" y1="348.94" x2="17.43" y2="162.49" gradientUnits="userSpaceOnUse"><stop offset="0" stop-color="#c68c3c"/><stop offset="0.69" stop-color="#90321c"/></linearGradient></defs><path d="M263.62,345H36.38A36.38,36.38,0,0,1,0,308.62V259.14H300v49.48A36.38,36.38,0,0,1,263.62,345Z" fill="url(#linear-gradient)"/><rect y="45" width="300" height="253.39" rx="36.38" fill="#114f30"/><path d="M14.86,101A60.78,60.78,0,0,0,0,114V145.5c.32.36.64.72,1,1.08a20.41,20.41,0,0,0,13.57,6.11l1-22,7.7,21.33c7.54-1.66,14.23-5.94,16.58-10.81C50.59,118.92,14.86,101,14.86,101Z" fill="#0a351d"/><path d="M235.53,106.44l7.7,21.32c7.54-1.66,14.23-5.93,16.58-10.8,10.79-22.32-24.94-40.27-24.94-40.27S198.22,98.26,221,122.3a20.41,20.41,0,0,0,13.57,6.11Z" fill="#0a351d"/><path d="M237.67,78.24c-1.24,11.27,2.14,23.31,18.83,29.33a22.2,22.2,0,0,0,5.34,1.19C262.1,94,244.62,82.31,237.67,78.24Z" fill="#0e2215"/><path d="M265.8,80.9l16.46,15.59c6-4.87,10-11.7,10-17.1-.4-24.79-40.39-24.77-40.39-24.77s-23,35.75,8.11,47a20.38,20.38,0,0,0,14.87-.64Z" fill="#0a351d"/><path d="M172.78,70l-2.71,22.5c7.48,1.91,15.38,1.1,19.67-2.19,19.66-15.1-4.18-47.19-4.18-47.19s-42.44,2.8-32.9,34.51A20.44,20.44,0,0,0,162,89.17Z" fill="#0a351d"/><path d="M187.36,45.74c-6.17,9.52-8.57,21.79,3.64,34.67a21.88,21.88,0,0,0,4.23,3.46C202.08,70.84,191.73,52.51,187.36,45.74Z" fill="#0e2215"/><path d="M211.29,60.77,219,82.09c7.54-1.66,14.23-5.93,16.58-10.8C246.35,49,210.63,31,210.63,31S174,52.59,196.75,76.63a20.44,20.44,0,0,0,13.58,6.11Z" fill="#0a351d"/><path d="M123.21,133.13l-2.71,22.5c7.48,1.91,15.38,1.1,19.67-2.19,19.67-15.1-4.18-47.19-4.18-47.19s-42.44,2.8-32.89,34.51a20.4,20.4,0,0,0,9.38,11.56Z" fill="#0a351d"/><path d="M137.79,108.89c-6.17,9.52-8.56,21.79,3.64,34.67a22.19,22.19,0,0,0,4.23,3.46C152.51,134,142.17,115.66,137.79,108.89Z" fill="#0e2215"/><path d="M161.72,123.92l7.7,21.32c7.54-1.66,14.23-5.93,16.58-10.8,10.79-22.32-24.94-40.27-24.94-40.27s-36.65,21.57-13.87,45.61a20.41,20.41,0,0,0,13.57,6.11Z" fill="#0a351d"/><path d="M92.83,113.24l7.69,21.33c7.54-1.66,14.23-5.94,16.58-10.81,10.79-22.32-24.94-40.27-24.94-40.27S55.51,105.06,78.29,129.1a20.41,20.41,0,0,0,13.57,6.11Z" fill="#0a351d"/><path d="M95,85c-1.24,11.27,2.14,23.31,18.83,29.33a21.73,21.73,0,0,0,5.34,1.19C119.39,100.85,101.91,89.12,95,85Z" fill="#0e2215"/><path d="M123.09,87.7l16.46,15.59c6-4.87,10-11.69,10-17.1-.4-24.79-40.38-24.76-40.38-24.76s-23,35.74,8.1,47a20.46,20.46,0,0,0,14.88-.65Z" fill="#0a351d"/><path d="M30.07,76.78,27.36,99.29c7.48,1.91,15.38,1.09,19.67-2.2C66.69,82,42.85,49.91,42.85,49.91S.41,52.7,10,84.41A20.41,20.41,0,0,0,19.33,96Z" fill="#0a351d"/><path d="M44.65,52.55c-6.17,9.51-8.56,21.78,3.64,34.66a21.94,21.94,0,0,0,4.23,3.47C59.37,77.65,49,59.31,44.65,52.55Z" fill="#0e2215"/><path d="M68.58,67.57l7.7,21.33C83.82,87.24,90.51,83,92.86,78.09c10.79-22.32-24.94-40.27-24.94-40.27S31.26,59.39,54,83.43a20.44,20.44,0,0,0,13.58,6.11Z" fill="#0a351d"/><path d="M239.06,273.4l7.7,21.32c7.54-1.65,14.22-5.93,16.58-10.8,10.78-22.32-24.95-40.27-24.95-40.27s-36.65,21.57-13.87,45.61a20.44,20.44,0,0,0,13.57,6.11Z" fill="#0a351d"/><path d="M241.19,245.2c-1.23,11.27,2.14,23.31,18.83,29.33a21.73,21.73,0,0,0,5.34,1.19C265.62,261,248.14,249.28,241.19,245.2Z" fill="#0e2215"/><path d="M269.32,247.86l16.46,15.59c6-4.87,10.05-11.69,10-17.1-.4-24.79-40.38-24.76-40.38-24.76s-23.05,35.74,8.1,47a20.46,20.46,0,0,0,14.88-.65Z" fill="#0a351d"/><path d="M176.3,236.94l-2.71,22.51c7.49,1.91,15.38,1.09,19.67-2.2,19.67-15.09-4.18-47.19-4.18-47.19s-42.44,2.8-32.89,34.51a20.41,20.41,0,0,0,9.38,11.56Z" fill="#0a351d"/><path d="M190.88,212.71c-6.17,9.51-8.56,21.78,3.64,34.66a22.24,22.24,0,0,0,4.23,3.47C205.6,237.81,195.26,219.47,190.88,212.71Z" fill="#0e2215"/><path d="M214.81,227.73l7.7,21.32c7.54-1.65,14.23-5.93,16.58-10.8C249.88,215.93,214.15,198,214.15,198s-36.65,21.57-13.87,45.61a20.41,20.41,0,0,0,13.57,6.11Z" fill="#0a351d"/><path d="M87,269.73l-2.71,22.51c7.48,1.91,15.38,1.09,19.67-2.2,19.66-15.09-4.18-47.18-4.18-47.18s-42.44,2.79-32.9,34.5a20.48,20.48,0,0,0,9.39,11.57Z" fill="#0a351d"/><path d="M101.56,245.5C95.39,255,93,267.28,105.2,280.16a21.87,21.87,0,0,0,4.23,3.47C116.28,270.6,105.94,252.26,101.56,245.5Z" fill="#0e2215"/><path d="M125.49,260.52l7.7,21.33c7.54-1.66,14.23-5.94,16.58-10.8,10.79-22.33-24.94-40.28-24.94-40.28S88.18,252.34,111,276.38a20.41,20.41,0,0,0,13.57,6.11Z" fill="#0a351d"/><path d="M0,262v46.61a36.39,36.39,0,0,0,20.68,32.83,164.92,164.92,0,0,0,14.19-43.06v0A36.39,36.39,0,0,1,0,262Z" fill="url(#linear-gradient-2)"/><path d="M69.66,264.68c20.73-8,38.6-13.88,55-19.57,23.66-8.21,37.71-.84,48.68,4.77,13.27,6.78,23.32,25,25.53,24.34s3.74-5.28,3.41-12.6-17.54-24.72-17.54-24.72,16.85-7.2,29.62-8.73c15.36-1.84,30.81,1.11,42.69,1.45s23.18-1.36,26.07-3.06,2.73-15.66,0-16.34-11.57,4.76-25,5.1S233.4,208,205.83,209.2s-43.9,0-60.86-.33-62.72-.18-94.21-1.55c-19.43-.84-38.78-7.25-50.76-12V262a36.39,36.39,0,0,0,34.87,36.35C34.89,273.87,54.54,270.53,69.66,264.68Z" fill="#c68c3c"/><path d="M105.85,208.5c-14.7-.13-30.9-.36-45.3-.81a18.73,18.73,0,0,0,2.74,2.83c-5.11,2.81-10.54,8.21-12.51,18.59-.15.8-.27,1.58-.35,2.35a.77.77,0,0,0,0,.15c-.08.73-.12,1.45-.14,2.15a1.69,1.69,0,0,1,0,.23c0,.68,0,1.35.05,2,0,.09,0,.18,0,.27.05.63.12,1.26.21,1.87,0,.09,0,.19.05.28.1.6.22,1.18.36,1.76,0,.09,0,.18.07.27.15.57.32,1.13.51,1.67l.09.25c.2.54.41,1.07.64,1.58a1.47,1.47,0,0,1,.1.22c.25.51.5,1,.78,1.51l.1.16c.28.5.59,1,.91,1.45a.36.36,0,0,0,.07.1q.49.74,1.05,1.41h0c.37.45.75.89,1.15,1.31l.07.07c.38.4.78.79,1.18,1.16l.13.12c.39.36.8.7,1.21,1l.17.14c.41.32.82.62,1.24.91l.21.14c.41.28.83.54,1.26.8l.22.13c.42.24.85.48,1.28.7l.1,0c-7-.67-15.36-2.7-21.89-7.89-6.92-5.49-10.77-13.68-11.46-24.35-.43-6.69,1.22-11.81,5.06-15.66a18.32,18.32,0,0,1,1.8-1.58A182.34,182.34,0,0,1-2.18,194.38c-.07,1.58-.1,3.16-.1,4.73,0,39.87,17.83,66.72,48.78,75.49,6.82-4.67,15.56-7,23.16-9.92,14.74-5.7,28-10.31,40.37-14.55a37.3,37.3,0,0,0-3-26.73l5.71,2.74a1.57,1.57,0,0,0,.7.17,1.6,1.6,0,0,0,1-.33,1.64,1.64,0,0,0,.63-1.56A25,25,0,0,0,105.85,208.5Z" fill="#aa6e29"/><path d="M200.31,209.41c-24.29.82-39.54-.23-55.34-.54-2.68-.06-6.07-.1-10-.13,4.41,4.87,10.22,6.81,18.09,9.42l1.6.53c13.43,4.48,20.25,20.59,20.32,20.76a1.61,1.61,0,0,0,1.29,1l.4,0a5.3,5.3,0,0,0,3.68-1.91c2.53-2.6,4.71-7.56,4.84-13.61l8,8.71c1.38-.49,2.87-1,4.43-1.5a10.2,10.2,0,0,0,2.14-5,10.36,10.36,0,0,0-.47-4.59,17,17,0,0,1,2.67,2,1.66,1.66,0,0,0,1.47.44,1.64,1.64,0,0,0,1.18-1,13.13,13.13,0,0,0-1-10.48A15.14,15.14,0,0,0,200.31,209.41Z" fill="#aa6e29"/><path d="M197,258.13a1,1,0,0,0-1.47.58c-.6,1.7-1.59,4.93-1,6.4A35.7,35.7,0,0,0,196.7,269a1.06,1.06,0,0,0,1.94-.33c.68-3.29,1.59-8.72.33-9.47C198.19,258.76,197.52,258.39,197,258.13Z" fill="#aa6e29"/><path d="M89.62,236c-2.3,3.58-10.38,0-8.05-7,5-14.84,28.21.11,17.05,15.06-9.9,13.28-41.17,5.11-36.58-19s31-21.73,42.77-12.76c18.56,14.17,13.4,56-26,56S12.89,243.62,12.89,196.9,44.17,98.6,99.83,98.6s84.52,49.24,84.52,49.24L211,177.41,207,195c-9.25,3.62-47.89,3.25-81.08,1.44C82.24,194,38,188.47,40,219.24c2.46,38.3,46.38,31,46.38,31" fill="#8dc63f" stroke="#518d40" stroke-linecap="round" stroke-linejoin="round" stroke-width="3"/><path d="M201.78,196.18l.75-.12.62-.11.57-.11,1-.23.35-.09.7-.19.3-.09c.3-.1.59-.19.84-.29L211,177.41l-26.67-29.57a110.17,110.17,0,0,0-20-23.45,29.92,29.92,0,0,0,4.49,13.06,24.79,24.79,0,0,1,3.92,15.26,53.56,53.56,0,0,0-.08,6.77,26.29,26.29,0,0,1-27,27.81c-6.61-.22-13.28-.52-19.74-.87C82.24,184,38,178.5,40,209.27c.07,1.2.19,2.35.35,3.46,4.51-23.42,45.31-18.54,85.56-16.34,27.19,1.48,58,2,73.38.14h0c.7-.09,1.37-.18,2-.28Z" fill="#518d40" opacity="0.5"/><path d="M53,181s-8.33-16.09,7.33-33.45,42-18.72,46.63,1.36-15.48,42.38-13.44,47.49,22.13,5.62,25.19,24.17l-10.61-5.1-32.73-7.92s-2.28-.43-5.34-4.73,1-12.21,5.45-17.31,10.89-24.18,10.89-24.18" fill="#8dc63f" stroke="#518d40" stroke-linecap="round" stroke-linejoin="round" stroke-width="3"/><path d="M142,157.11s-13.4,14.69-9,32.83c4.25,17.64,11.06,19.26,24.34,23.68s19.74,20.09,19.74,20.09c2.73.34,7.83-7.15,6.3-17l10.55,11.48s7.32-5.13.17-13.64c0,0,6,3.18,7.66,4.88,0,0,5.21-13.28-17.39-17.7-20.93-4.1-24.41,2.43-27.88-11.77a34.09,34.09,0,0,1-.11-14.73" fill="#8dc63f" stroke="#518d40" stroke-linecap="round" stroke-linejoin="round" stroke-width="3"/><line x1="135.46" y1="167.56" x2="132.1" y2="159.34" fill="none" stroke="#518d40" stroke-linecap="round" stroke-linejoin="round" stroke-width="3"/><path d="M179.62,177.41a18.91,18.91,0,0,0-4.33-.88,4.34,4.34,0,0,0-1.63.27,3.19,3.19,0,0,0-1.13.89,2.76,2.76,0,0,0-.62,1.26,4.09,4.09,0,0,0,.06,1.69,21.67,21.67,0,0,0,1.52,4.18,7.52,7.52,0,0,1-3.72-3.32,5.43,5.43,0,0,1-.7-2.81,5,5,0,0,1,1.15-2.91,5.13,5.13,0,0,1,2.6-1.69,5.33,5.33,0,0,1,2.93.14A7.19,7.19,0,0,1,179.62,177.41Z" fill="#518d40"/><path d="M164.9,124.94a13.79,13.79,0,0,0-4.5-1.4,4.88,4.88,0,0,0-2.05.21,3.3,3.3,0,0,0-1.44,1.11,5.89,5.89,0,0,0-.83,1.83,5.2,5.2,0,0,0-.22,1.89,4.52,4.52,0,0,0,.48,1.72,5.79,5.79,0,0,0,.49.79,5.53,5.53,0,0,0,.56.63l5.42,4.91L156,134.29a4.18,4.18,0,0,0-.93-.2,5.68,5.68,0,0,0-1-.05,3.77,3.77,0,0,0-1.78.51,4.25,4.25,0,0,0-1.38,1.36,5.9,5.9,0,0,0-.83,2,4.06,4.06,0,0,0,.11,2.07,6.36,6.36,0,0,0,1.14,2,14.18,14.18,0,0,0,3.95,3.1,11.45,11.45,0,0,1-4.82-2.22,6.83,6.83,0,0,1-1.82-2.21,5.81,5.81,0,0,1-.62-3,9.55,9.55,0,0,1,.76-2.9,6.1,6.1,0,0,1,2-2.48,6.17,6.17,0,0,1,3.06-1.14,7.59,7.59,0,0,1,1.58,0,7.28,7.28,0,0,1,1.59.33L155.5,134a6.28,6.28,0,0,1-1.07-1.16,7.54,7.54,0,0,1-.76-1.29,6.67,6.67,0,0,1-.63-3,7.18,7.18,0,0,1,.66-2.86,9.59,9.59,0,0,1,1.59-2.34,4.72,4.72,0,0,1,2.62-1.4,5.64,5.64,0,0,1,2.76.22A10.59,10.59,0,0,1,164.9,124.94Z" fill="#518d40"/><path d="M134.43,147.88a7.17,7.17,0,0,1-2-3.53,5.32,5.32,0,0,1,1-4.36,6.22,6.22,0,0,1,4-2.38,7.64,7.64,0,0,1,2.34,0,8,8,0,0,1,2.26.71l-1.91,2.19a8.8,8.8,0,0,1-1.14-2.3,7.16,7.16,0,0,1-.4-2.6,5.65,5.65,0,0,1,2.67-4.61,4.38,4.38,0,0,1,2.72-.6,6.55,6.55,0,0,1,2.33.79,10.25,10.25,0,0,1,3.28,3,16.52,16.52,0,0,0-3.85-1.63,3.31,3.31,0,0,0-3.13.4,3.66,3.66,0,0,0-.87,1.23,3.35,3.35,0,0,0-.26,1.44,5.31,5.31,0,0,0,.33,1.6,8.16,8.16,0,0,0,.74,1.51l3,4.6L140.68,141a7.14,7.14,0,0,0-1.4-.48,5.78,5.78,0,0,0-1.48-.13,4.27,4.27,0,0,0-2.65,1.14,3.85,3.85,0,0,0-1.32,2.75A9.16,9.16,0,0,0,134.43,147.88Z" fill="#518d40"/><path d="M102,108.69a37.14,37.14,0,0,0-5.74.49,12.34,12.34,0,0,0-2.61.72,3.78,3.78,0,0,0-1.78,1.32,2.4,2.4,0,0,0-.12,1.85,3.28,3.28,0,0,0,.18.53,1.74,1.74,0,0,0,.22.36,2.62,2.62,0,0,0,.7.66,11.29,11.29,0,0,0,4.68,1.52l4.8.65L98.05,119a6.86,6.86,0,0,0-2.86,2.51,2.6,2.6,0,0,0-.3,1.54,4.17,4.17,0,0,0,.66,1.74,5.58,5.58,0,0,0,1.34,1.47,3.44,3.44,0,0,0,1.83.6,7.88,7.88,0,0,0,4.3-1.48,7.07,7.07,0,0,1-4.18,2.84,4.71,4.71,0,0,1-2.83-.34,6.5,6.5,0,0,1-2.24-1.76,6.63,6.63,0,0,1-1.38-2.59,5.1,5.1,0,0,1,.31-3.18,7.18,7.18,0,0,1,1.74-2.4,10.26,10.26,0,0,1,2.32-1.63l.51,2.82a14.43,14.43,0,0,1-3.16-.66,9.3,9.3,0,0,1-3-1.58,5.4,5.4,0,0,1-1.26-1.45,4.39,4.39,0,0,1-.41-.94,8,8,0,0,1-.21-.88,4.63,4.63,0,0,1,.82-3.7,5.4,5.4,0,0,1,3-1.79,12.7,12.7,0,0,1,3.09-.33A21.6,21.6,0,0,1,102,108.69Z" fill="#518d40"/><path d="M93.89,123.37a11.52,11.52,0,0,1-6.26,1.28,6.74,6.74,0,0,1-3.42-1.26,5.43,5.43,0,0,1-2-3.4,6.22,6.22,0,0,1,.5-3.82A7.39,7.39,0,0,1,85,113.45a10.71,10.71,0,0,1,6.11-2,28.65,28.65,0,0,0-4.52,3.77,6.64,6.64,0,0,0-1.31,2.07,4.06,4.06,0,0,0-.2,2.13,3.07,3.07,0,0,0,.89,1.77,5.36,5.36,0,0,0,2.09,1.16A27.29,27.29,0,0,0,93.89,123.37Z" fill="#518d40"/><path d="M28,172.3A18.26,18.26,0,0,0,25.9,177a4.85,4.85,0,0,0-.11,2.22,2.45,2.45,0,0,0,1,1.53,2.87,2.87,0,0,0,3.42.33,11.13,11.13,0,0,0,3.36-3l1.88-2.47.78,3a12.47,12.47,0,0,0,1.51,3.59,3.85,3.85,0,0,0,1.12,1.15,1.64,1.64,0,0,0,.64.23,3.63,3.63,0,0,0,.87,0,4.27,4.27,0,0,0,3-2.09A13.33,13.33,0,0,0,45,177.41a10.21,10.21,0,0,1-.59,4.61,6.28,6.28,0,0,1-1.33,2.14,5.28,5.28,0,0,1-2.31,1.41,6.12,6.12,0,0,1-1.37.21,3.91,3.91,0,0,1-1.55-.24,5.53,5.53,0,0,1-2.3-1.7,12.32,12.32,0,0,1-2.27-4.53l2.66.5A13.64,13.64,0,0,1,34,182a10.16,10.16,0,0,1-2.56,1.72,5.88,5.88,0,0,1-3.41.51,4.74,4.74,0,0,1-1.67-.63,6.54,6.54,0,0,1-1.31-1,4.78,4.78,0,0,1-1.34-3.13,6.29,6.29,0,0,1,.72-3A12.14,12.14,0,0,1,28,172.3Z" fill="#518d40"/><path d="M34.87,187a9,9,0,0,1-.59,3,8,8,0,0,1-1.65,2.73,5,5,0,0,1-3.29,1.66,5.09,5.09,0,0,1-2-.25,4.68,4.68,0,0,1-1.73-1,6,6,0,0,1-1.76-3.18,11,11,0,0,1-.2-3.16A14.68,14.68,0,0,1,25.36,181c.19,2,.32,3.86.61,5.64s.79,3.49,1.66,4.18a2.7,2.7,0,0,0,1.57.59,3.16,3.16,0,0,0,1.83-.61A20.84,20.84,0,0,0,34.87,187Z" fill="#518d40"/><path d="M89.62,236c-2.3,3.58-10.38,0-8.05-7,5-14.84,28.21.11,17.05,15.06-9.9,13.28-41.17,5.11-36.58-19s31-21.73,42.77-12.76c18.56,14.17,13.4,56-26,56" fill="#8dc63f" stroke="#518d40" stroke-linecap="round" stroke-linejoin="round" stroke-width="3"/><path d="M73.21,247.77s21.64,1,25.79-20.43c0,0,7.34,13.91-4.18,20.17A22.88,22.88,0,0,1,73.21,247.77Z" fill="#518d40" opacity="0.5"/><ellipse cx="92.2" cy="145.62" rx="6.59" ry="8.65" transform="translate(-79.33 162.53) rotate(-63.29)" fill="#c0d95e"/><path d="M145.48,122.45c-2.36,3.74-7.27,3.72-12.59,1s-8.32-7-6.66-10.72,7.27-3.72,12.59-1S147.83,118.71,145.48,122.45Z" fill="#c0d95e"/><path d="M123.12,111.09a3.89,3.89,0,0,1-5.53,1.55,4,4,0,0,1-2-5.37c1-2.15,3.43-2.6,5.53-1.54S124.43,108.86,123.12,111.09Z" fill="#c0d95e"/><path d="M285.29,203.33a1.51,1.51,0,0,1-1-.42l-7-6.7a1.5,1.5,0,0,1,.71-2.55l10.22-2.32a1.24,1.24,0,0,1,.33,0,1.49,1.49,0,0,1,1.42,2l-3.24,9a1.5,1.5,0,0,1-1.07,1A2,2,0,0,1,285.29,203.33Z" fill="#e2c2a6"/><path d="M288.52,192.8h0m0,0-3.23,9-7-6.7,10.22-2.33m0-3h-.15a2.61,2.61,0,0,0-.57.09l-10.17,2.31a3,3,0,0,0-1.41,5.09l7,6.7a3,3,0,0,0,2.08.84,3.25,3.25,0,0,0,.69-.08,3,3,0,0,0,2.13-1.91l3.2-8.91a3,3,0,0,0,.22-1.13,3,3,0,0,0-3-3Zm0,6h0Z" fill="#8c694b"/><path d="M273,206.06a1.48,1.48,0,0,1-1.1-.48l-6.59-7.09A1.53,1.53,0,0,1,265,197a1.5,1.5,0,0,1,1.18-1l10.34-1.74.25,0a1.5,1.5,0,0,1,1.38,2.09l-3.75,8.82a1.51,1.51,0,0,1-1.13.9Z" fill="#e2c2a6"/><path d="M276.72,195.73h0m0,0L273,204.56l-6.6-7.1,10.35-1.73m0-3h-.14l-.41.05-10.29,1.73a3,3,0,0,0-1.7,5l6.59,7.09a3,3,0,0,0,2.2,1,2.94,2.94,0,0,0,.51-.05,3,3,0,0,0,2.25-1.78l3.7-8.71a2.94,2.94,0,0,0,.29-1.29,3,3,0,0,0-3-3Zm0,6Z" fill="#8c694b"/><path d="M261.24,207.64a1.46,1.46,0,0,1-1.09-.47l-6.65-7a1.51,1.51,0,0,1,.83-2.51l10.33-1.81.26,0a1.51,1.51,0,0,1,1.39,2.08l-3.69,8.85a1.48,1.48,0,0,1-1.11.9A1.23,1.23,0,0,1,261.24,207.64Z" fill="#e2c2a6"/><path d="M264.92,197.29h0m0,0-3.68,8.85-6.65-7,10.33-1.81m0-3h-.14l-.43.05-10.27,1.8a3,3,0,0,0-1.67,5l6.65,7a3,3,0,0,0,2.18.94,3.27,3.27,0,0,0,.54,0,3,3,0,0,0,2.23-1.8l3.64-8.74a3,3,0,0,0-2.68-4.27Zm0,6h0Z" fill="#8c694b"/><path d="M248.38,209a1.49,1.49,0,0,1-1.15-.53L241,201a1.49,1.49,0,0,1,1-2.45l10.42-1.22h.18a1.5,1.5,0,0,1,1.22.64,1.48,1.48,0,0,1,.12,1.52l-4.19,8.63a1.5,1.5,0,0,1-1.16.83Z" fill="#e2c2a6"/><path d="M252.57,198.83h0m0,0-4.19,8.63-6.23-7.41,10.42-1.22m0-3h-.11l-.29,0-10.37,1.21a3,3,0,0,0-2,4.9l6.23,7.42a3,3,0,0,0,2.29,1.07l.37,0a3,3,0,0,0,2.33-1.67l4.14-8.52a2.94,2.94,0,0,0,.36-1.42,3,3,0,0,0-3-3Zm0,6Z" fill="#8c694b"/><path d="M236,210.45a1.5,1.5,0,0,1-1.2-.61L229,202.08a1.49,1.49,0,0,1,1.12-2.39l10.55-.61a1.49,1.49,0,0,1,1.31,2.23l-4.68,8.37a1.49,1.49,0,0,1-1.21.76Z" fill="#e2c2a6"/><path d="M240.64,200.58h0m0,0L236,209l-5.79-7.77,10.47-.6m0-3h-.2l-10.44.61a3,3,0,0,0-2.23,4.79l5.79,7.76A3,3,0,0,0,236,212h.2a3,3,0,0,0,2.42-1.53l4.63-8.27a3,3,0,0,0-2.55-4.56Zm0,6h0Z" fill="#8c694b"/><path d="M223.36,211.11a1.46,1.46,0,0,1-1.25-.68l-5.33-8.08a1.47,1.47,0,0,1-.07-1.54A1.5,1.5,0,0,1,218,200h10.48a1.5,1.5,0,0,1,1.32.78,1.52,1.52,0,0,1-.05,1.53l-5.16,8.08a1.51,1.51,0,0,1-1.25.7Z" fill="#e2c2a6"/><path d="M228.51,201.52h0m0,0-5.15,8.09L218,201.52h10.48m0-3H218a3,3,0,0,0-2.51,4.66l5.33,8.08a3,3,0,0,0,2.51,1.35h0a3,3,0,0,0,2.51-1.39l5.1-8a3,3,0,0,0,.53-1.7,3,3,0,0,0-3-3Zm0,6h0Z" fill="#8c694b"/><path d="M208.2,207.87a1.6,1.6,0,0,1-.53-.09,1.49,1.49,0,0,1-.93-1.09l-2.06-9.46a1.51,1.51,0,0,1,1.47-1.82,1.66,1.66,0,0,1,.54.1l9.78,3.79a1.5,1.5,0,0,1,.35,2.61l-7.73,5.67A1.44,1.44,0,0,1,208.2,207.87Z" fill="#e2c2a6"/><path d="M206.15,196.91l9.78,3.79-7.73,5.67-2-9.46m0-3a3,3,0,0,0-2.93,3.64l2.05,9.46a3,3,0,0,0,1.87,2.17,3,3,0,0,0,2.84-.39l7.73-5.67a3,3,0,0,0-.7-5.22l-9.78-3.79a3.08,3.08,0,0,0-1.08-.2Z" fill="#8c694b"/><path d="M195.77,201.76a1.55,1.55,0,0,1-.83-.25,1.5,1.5,0,0,1-.67-1.26l.08-9.69a1.53,1.53,0,0,1,.8-1.31,1.45,1.45,0,0,1,.7-.17,1.48,1.48,0,0,1,.84.25l8.71,5.85a1.51,1.51,0,0,1-.24,2.62l-8.79,3.83A1.41,1.41,0,0,1,195.77,201.76Z" fill="#e2c2a6"/><path d="M195.85,190.58l8.71,5.84-8.79,3.84.08-9.68m0-3a3,3,0,0,0-3,3l-.08,9.68a3,3,0,0,0,3,3A3,3,0,0,0,197,203l8.79-3.84a3,3,0,0,0,.47-5.24l-8.7-5.84a3,3,0,0,0-1.68-.51Z" fill="#8c694b"/><path d="M176.3,110.13s.46-8.34,7.08-6.47,3,9.2,3,9.2" fill="#7cbb52" stroke="#518d40" stroke-linecap="round" stroke-linejoin="round" stroke-width="3"/><path d="M188.1,113.06s1-8.3,7.45-6,2.51,9.35,2.51,9.35" fill="#7cbb52" stroke="#518d40" stroke-linecap="round" stroke-linejoin="round" stroke-width="3"/><path d="M199.26,117.2s.88-8.31,7.4-6.11,2.58,9.34,2.58,9.34" fill="#7cbb52" stroke="#518d40" stroke-linecap="round" stroke-linejoin="round" stroke-width="3"/><path d="M210.91,121.61s1.35-8.24,7.73-5.67,2,9.47,2,9.47" fill="#7cbb52" stroke="#518d40" stroke-linecap="round" stroke-linejoin="round" stroke-width="3"/><path d="M222.26,125.64s1.83-8.15,8.05-5.21S231.8,130,231.8,130" fill="#7cbb52" stroke="#518d40" stroke-linecap="round" stroke-linejoin="round" stroke-width="3"/><path d="M233.42,130.48s2.3-8,8.34-4.74.93,9.64.93,9.64" fill="#7cbb52" stroke="#518d40" stroke-linecap="round" stroke-linejoin="round" stroke-width="3"/><path d="M243.74,136.4s2.24-8.05,8.3-4.8,1,9.63,1,9.63" fill="#7cbb52" stroke="#518d40" stroke-linecap="round" stroke-linejoin="round" stroke-width="3"/><path d="M254.5,142.67s2.7-7.91,8.57-4.31.45,9.67.45,9.67" fill="#7cbb52" stroke="#518d40" stroke-linecap="round" stroke-linejoin="round" stroke-width="3"/><path d="M264.23,148.84s4.26-7.19,9.27-2.47-1.54,9.56-1.54,9.56" fill="#7cbb52" stroke="#518d40" stroke-linecap="round" stroke-linejoin="round" stroke-width="3"/><path d="M272.19,156.67s5.36-6.41,9.55-.94-3.07,9.18-3.07,9.18" fill="#7cbb52" stroke="#518d40" stroke-linecap="round" stroke-linejoin="round" stroke-width="3"/><path d="M279.21,166.27s5.32-6.44,9.54-1-3,9.21-3,9.21" fill="#7cbb52" stroke="#518d40" stroke-linecap="round" stroke-linejoin="round" stroke-width="3"/><path d="M285.32,176s6.23-5.55,9.58.46-4.36,8.64-4.36,8.64" fill="#7cbb52" stroke="#518d40" stroke-linecap="round" stroke-linejoin="round" stroke-width="3"/><path d="M289.4,189.94s-6.38-27.13-39.32-47.3-73.78-31.15-73.78-31.15-5.88,19.15,8.93,32.17c0,0-8.93,30.76,15.32,47.42s40.5,5.18,56.68,5.18C281.23,196.26,289.4,189.94,289.4,189.94Z" fill="#8dc63f"/><path d="M176.3,111.49S183.65,143,211,145.71c19.4,1.91,24.11-7.73,44.85-1" fill="none" stroke="#7cbb52" stroke-linecap="round" stroke-linejoin="round" stroke-width="3"/><path d="M183.45,145.62s-3.29,34.32,36,42.61c24,5.06,37.53-13,69.95,1.71" fill="none" stroke="#7cbb52" stroke-linecap="round" stroke-linejoin="round" stroke-width="3"/><circle cx="238.23" cy="165.14" r="17.26" fill="#7cbb52" stroke="#518d40" stroke-linecap="round" stroke-linejoin="round" stroke-width="3"/><circle cx="240.45" cy="164.91" r="4.78" fill="#7cbb52" stroke="#518d40" stroke-linecap="round" stroke-linejoin="round" stroke-width="3"/><line x1="250.15" y1="152.66" x2="243.43" y2="161.18" fill="none" stroke="#518d40" stroke-linecap="round" stroke-linejoin="round" stroke-width="3"/><line x1="244.03" y1="168.07" x2="251.48" y2="176.2" fill="none" stroke="#518d40" stroke-linecap="round" stroke-linejoin="round" stroke-width="3"/><line x1="236.7" y1="167.86" x2="223.55" y2="174.21" fill="none" stroke="#518d40" stroke-linecap="round" stroke-linejoin="round" stroke-width="3"/><path d="M176.3,111.49s40.85,11,73.78,31.15,39.32,47.3,39.32,47.3-8.17,6.32-32.17,6.32c-9.38,0-18.78,3.86-29.75,3.86-7.95,0-16.73-2-26.93-9-24.25-16.66-15.32-47.42-15.32-47.42-14.81-13-8.93-32.17-8.93-32.17m0-3a3,3,0,0,0-2.86,2.12c-.26.84-5.91,20,8.47,34.05a58.36,58.36,0,0,0-1.09,16.71c1.12,13.71,7.36,24.84,18,32.19,9.5,6.52,18.6,9.56,28.63,9.56a83.89,83.89,0,0,0,16.63-2.1,68.61,68.61,0,0,1,13.12-1.76c24.74,0,33.64-6.66,34-6.95a3,3,0,0,0,1.08-3.06c-.27-1.15-7.05-28.58-40.67-49.17-32.92-20.16-74.16-31.37-74.58-31.48a3,3,0,0,0-.78-.11Z" fill="#518d40"/></svg>