<?xml version="1.0" encoding="UTF-8" standalone="no"?>
<!-- Created with Inkscape (http://www.inkscape.org/) -->

<svg
   width="300"
   height="345"
   viewBox="0 0 79.374998 91.28125"
   version="1.1"
   id="svg1"
   inkscape:export-filename="bananas.svg"
   inkscape:export-xdpi="96"
   inkscape:export-ydpi="96"
   xmlns:inkscape="http://www.inkscape.org/namespaces/inkscape"
   xmlns:sodipodi="http://sodipodi.sourceforge.net/DTD/sodipodi-0.dtd"
   xmlns:xlink="http://www.w3.org/1999/xlink"
   xmlns="http://www.w3.org/2000/svg"
   xmlns:svg="http://www.w3.org/2000/svg">
  <sodipodi:namedview
     id="namedview1"
     pagecolor="#505050"
     bordercolor="#ffffff"
     borderopacity="1"
     inkscape:showpageshadow="0"
     inkscape:pageopacity="0"
     inkscape:pagecheckerboard="1"
     inkscape:deskcolor="#505050"
     inkscape:document-units="px">
    <inkscape:page
       x="0"
       y="0"
       width="79.375"
       height="91.28125"
       id="page2"
       margin="0"
       bleed="0" />
  </sodipodi:namedview>
  <defs
     id="defs1">
    <linearGradient
       inkscape:collect="always"
       xlink:href="#linear-gradient"
       id="linearGradient26"
       gradientUnits="userSpaceOnUse"
       x1="150"
       y1="356.10999"
       x2="150"
       y2="161.16"
       gradientTransform="translate(-2767.8132,5.3712984)" />
    <linearGradient
       id="linear-gradient"
       x1="150"
       y1="356.10999"
       x2="150"
       y2="161.16"
       gradientUnits="userSpaceOnUse">
      <stop
         offset="0.08547008"
         stop-color="#573321"
         id="stop2"
         style="stop-color:#e5a55e;stop-opacity:1;" />
      <stop
         offset="0.1794872"
         stop-color="#573321"
         id="stop31"
         style="stop-color:#e29c51;stop-opacity:1;" />
      <stop
         offset="0.29344732"
         stop-color="#7d4f33"
         id="stop1"
         style="stop-color:#db8b3b;stop-opacity:1;" />
    </linearGradient>
    <inkscape:path-effect
       effect="fillet_chamfer"
       id="path-effect30"
       is_visible="true"
       lpeversion="1"
       nodesatellites_param="F,0,0,1,0,0,0,1 @ F,0,0,1,0,0,0,1 @ F,0,0,1,0,13.368566,0,1 @ F,0,0,1,0,0,0,1 @ F,0,0,1,0,0,0,1 @ F,0,0,1,0,0,0,1 @ F,0,0,1,0,0,0,1 @ F,0,0,1,0,0,0,1 @ F,0,0,1,0,13.562035,0,1"
       radius="0"
       unit="px"
       method="auto"
       mode="F"
       chamfer_steps="1"
       flexible="false"
       use_knot_distance="true"
       apply_no_radius="true"
       apply_with_radius="true"
       only_selected="false"
       hide_knots="false" />
  </defs>
  <g
     inkscape:label="Layer 1"
     inkscape:groupmode="layer"
     id="layer1">
    <g
       id="g32"
       transform="matrix(0.26458333,0,0,0.26458333,719.55556,87.909984)">
      <g
         id="g1"
         transform="translate(48.232787,-337.62951)">
        <path
           class="cls-1"
           d="m -2504.1932,350.3713 h -227.24 a 36.38,36.38 0 0 1 -36.38,-36.38 v -49.48 h 300 v 49.48 a 36.38,36.38 0 0 1 -36.38,36.38 z"
           id="path2"
           style="fill:url(#linearGradient26)" />
        <path
           id="path33"
           style="fill:#cf7922;fill-opacity:1;stroke-width:14.4651"
           d="m -2745.6978,191.38506 h 255.7692 c 12.2519,0 22.1154,9.86346 22.1154,22.11539 v 57.91845 c 0,12.25192 -10.2534,19.04895 -22.1154,22.11539 -85.2564,22.03963 -170.5128,18.93691 -255.7692,0 -11.9605,-2.65662 -22.1154,-9.86347 -22.1154,-22.11539 v -57.91845 c 0,-12.25193 9.8635,-22.11539 22.1154,-22.11539 z"
           sodipodi:nodetypes="sssssssss" />
        <path
           id="rect23"
           style="fill:#8c4e35;stroke-width:14.4651"
           d="m -2745.6978,181.33283 h 255.7692 c 12.2519,0 22.1154,9.86346 22.1154,22.11539 v 57.91845 c 0,12.25192 -10.2534,19.04895 -22.1154,22.11539 -85.2564,22.03963 -170.5128,18.93691 -255.7692,0 -11.9605,-2.65662 -22.1154,-9.86347 -22.1154,-22.11539 v -57.91845 c 0,-12.25193 9.8635,-22.11539 22.1154,-22.11539 z"
           sodipodi:nodetypes="sssssssss" />
        <path
           id="path27"
           style="fill:#7d3a21;fill-opacity:1;stroke-width:14.868"
           d="m -2767.8125,180.03906 v 64.80664 c 0,7.49011 6.0708,13.88781 13.5586,13.74805 16.8899,-0.31524 32.356,-3.23876 43.4394,-14.19922 l 23.6993,31.30469 c 5.5273,4.4647 13.4218,4.4647 18.9492,0 l 46.9609,-30.63086 c 9.5375,7.25924 48.4829,35.46865 71.086,30.07813 13.568,-3.23581 26.748,-32.17969 26.748,-32.17969 12.6996,8.61546 25.9668,15.95357 42.2578,16.48828 7.3647,0.24173 13.3008,-7.03276 13.3008,-14.41602 v -65 z" />
        <path
           id="rect26"
           style="fill:#5fc32e;fill-opacity:1;stroke-width:14.868"
           d="m 0,148.66862 h 300 v 64.99895 c 0,7.38326 -5.93621,14.65876 -13.30093,14.41703 -16.29105,-0.53471 -29.55765,-7.87447 -42.25726,-16.48993 0,0 -13.18007,28.94505 -26.74816,32.18086 -25.89244,6.175 -73.26593,-31.76546 -73.26593,-31.76546 0,0 -39.35238,34.21349 -61.141959,28.60235 -12.532419,-3.22728 -22.846494,-31.38996 -22.846494,-31.38996 -11.189045,14.136 -28.171244,17.65121 -46.88036,18.00041 C 6.0711233,227.36263 0,220.96421 0,213.4741 Z"
           sodipodi:nodetypes="ccccacaccc"
           inkscape:path-effect="#path-effect30"
           inkscape:original-d="m 0,148.66862 h 300 v 78.36752 c -22.68611,4.22795 -39.57139,-4.59597 -55.55819,-15.44147 0,0 -13.18007,28.94505 -26.74816,32.18086 -25.89244,6.175 -73.26593,-31.76546 -73.26593,-31.76546 0,0 -39.35238,34.21349 -61.141959,28.60235 C 70.753342,237.38514 60.439267,209.22246 60.439267,209.22246 46.594581,226.71354 23.880473,227.94401 0,227.03614 Z"
           transform="translate(-2767.8132,15.371298)" />
        <path
           id="path26"
           style="fill:#3ead3c;fill-opacity:1;stroke-width:14.868"
           d="m -2767.8132,144.74102 v 46.78653 c 3.3892,33.31822 29.1845,35.82819 54.2285,39.37109 2.2201,-1.82743 4.3065,-3.89863 6.211,-6.30468 0,0 10.3132,28.16334 22.8457,31.39062 21.7895,5.61114 61.1425,-28.60351 61.1425,-28.60351 0,0 47.3732,37.94062 73.2657,31.76562 13.568,-3.23581 26.748,-32.18164 26.748,-32.18164 2.569,1.74281 5.1787,3.39565 7.8145,4.98828 19.1975,-6.68457 41.7273,-8.70417 47.7441,-33.8418 v -53.37051 z"
           sodipodi:nodetypes="ccccscsccccc" />
        <path
           style="fill:#ffd12b;fill-opacity:1;stroke-width:14.868"
           d="m -2759.735,169.92675 41.6959,48.9222 30.9237,40.85057 c 5.5273,4.4647 13.4216,4.4647 18.949,0 l 62.6273,-40.85057 91.2609,-36.71654 z"
           id="path23"
           sodipodi:nodetypes="ccccccc" />
        <path
           id="path29"
           style="fill:#eba40c;fill-opacity:1;stroke-width:15.7182"
           d="m -2508.2076,180.70452 -251.5274,-10.77777 31.299,36.72345 c 46.9431,5.69288 91.349,7.69743 138.4536,6.28925 z"
           sodipodi:nodetypes="ccccc" />
        <path
           id="rect25"
           style="fill:#ad2a22;fill-opacity:1;stroke-width:15.7182"
           d="m -2740.5203,108.25592 h 245.4142 c 15.1203,0 27.2929,12.17263 27.2929,27.2929 v 18.49111 c 0,15.12027 -12.3001,25.33348 -27.2929,27.2929 -82.0484,10.72296 -163.8532,10.72296 -245.4142,0 -14.9913,-1.97093 -27.2929,-12.17263 -27.2929,-27.2929 v -18.49111 c 0,-15.12027 12.1726,-27.2929 27.2929,-27.2929 z"
           sodipodi:nodetypes="sssssssss" />
        <path
           id="rect27"
           style="fill:#d74629;fill-opacity:1;stroke-width:14.868"
           d="m -2685.5202,108.25607 c 6.8151,26.70353 6.673,52.90931 0.1777,78.66211 46.2437,3.3351 92.5648,3.23394 138.9648,-0.30665 -4.0856,-25.26047 -5.1652,-51.18898 -0.6738,-78.35546 z" />
        <path
           id="rect28"
           style="fill:#ff7050;stroke-width:14.868"
           d="m -2646.2155,108.25607 c 13.2641,25.96582 12.3978,53.21547 7.246,80.85546 13.7571,0.30848 27.5202,0.31428 41.2911,0.0156 -7.3921,-31.56239 2.7527,-56.10896 12.3613,-80.87109 z" />
        <path
           id="path31"
           style="fill:#730a05;fill-opacity:0.652249;stroke-width:14.868"
           d="m -2693.4792,23.698393 c -35.5617,6.169847 -66.0134,25.468214 -72.8574,59.486328 h 0.1291 l -1.6057,14.847656 v 39.309063 c 100,22.26377 200,22.26377 300,0 V 98.032377 l -1.5139,-14.847656 h 0.037 c -6.844,-34.018114 -37.3907,-52.791985 -72.8574,-59.486328 -49.773,-9.394649 -100.2551,-8.861702 -151.3321,0 z"
           sodipodi:nodetypes="sccccccccss"
           transform="translate(0,8)" />
        <path
           id="rect29"
           style="fill:#e8a55f;fill-opacity:1;stroke-width:14.868"
           d="m -2693.4792,23.698393 c -35.5617,6.169847 -66.0134,25.468214 -72.8574,59.486328 h 0.1291 l -1.6057,14.847656 v 39.309063 c 100,22.26377 200,22.26377 300,0 V 98.032377 l -1.5139,-14.847656 h 0.037 c -6.844,-34.018114 -37.3907,-52.791985 -72.8574,-59.486328 -49.773,-9.394649 -100.2551,-8.861702 -151.3321,0 z"
           sodipodi:nodetypes="sccccccccss" />
        <path
           id="path30"
           style="fill:#e09345;fill-opacity:1;stroke-width:14.868"
           d="m -2749.9577,51.392782 c -8.0638,8.638781 -13.8457,19.199708 -16.3789,31.791016 v 0.04333 l -1.4731,14.804326 V 137.342 c 25.6061,5.7009 51.2122,9.91984 76.8184,12.70118 -43.2936,-20.00391 -65.9388,-51.290246 -58.9629,-98.650398 z m 264.289,0 c 6.9759,47.360152 -15.6693,78.646488 -58.9629,98.650398 25.6062,-2.78134 51.2123,-7.00028 76.8184,-12.70118 V 98.031454 l -1.4765,-14.847656 h -1e-4 c -2.5332,-12.591308 -8.3151,-23.152235 -16.3789,-31.791016 z"
           sodipodi:nodetypes="cccccccccccccc" />
        <path
           id="path46"
           style="fill:#e09345;fill-opacity:1;stroke-width:13.0922"
           d="m -2649.2273,28.650595 c -8.2162,0.146562 -17.7803,3.173865 -21.9511,8.095703 -5.7426,6.776508 -0.4274,19.636641 8.4238,20.380859 11.4288,0.960942 30.704,-14.351113 27.0781,-23.123047 -1.5863,-3.837721 -7.1604,-5.467508 -13.5508,-5.353515 z m 61.6407,0 c -5.8837,0.09918 -10.8761,1.755652 -12.3633,5.353515 -3.6259,8.771934 15.6493,24.083989 27.0781,23.123047 8.8512,-0.744218 14.1663,-13.604351 8.4238,-20.380859 -4.1708,-4.921838 -13.7349,-7.949141 -21.9511,-8.095703 -0.3994,-0.0071 -0.7953,-0.0066 -1.1875,0 z m 69.5957,15.169922 c -0.8071,0.01096 -1.6189,0.121438 -2.4219,0.341797 -11.0603,3.034994 -23.8809,24.05119 -17.4551,31.037109 6.4258,6.985927 28.4381,-4.037956 32.3848,-14.806641 2.77,-7.558088 -4.7061,-16.678173 -12.5078,-16.572265 z m -196.3809,4.080078 c -7.8018,-0.105908 -15.2778,9.014178 -12.5078,16.572265 3.9467,10.768685 25.959,21.792568 32.3848,14.806641 6.4257,-6.985919 -6.3948,-28.002115 -17.4551,-31.037109 -0.8031,-0.220359 -1.6148,-0.330841 -2.4219,-0.341797 z m 83.0449,13.375 c -8.4761,0.02958 -15.2623,11.332752 -10.8672,18.730469 5.8582,9.860161 29.52,16.651189 34.5528,8.603515 5.0327,-8.04767 -11.4298,-26.351665 -22.8594,-27.302734 -0.2766,-0.02302 -0.5527,-0.0322 -0.8262,-0.03125 z m 59.3653,25.541015 c -7.0047,0.0024 -14.3545,6.605481 -13.3907,13.75781 1.5317,11.3664 20.6487,26.87731 28.4297,21.44141 7.7811,-5.4359 -0.206,-28.723619 -10.3515,-34.072266 -1.4733,-0.77669 -3.0711,-1.127517 -4.6875,-1.126954 z m -99.0469,5.712891 c -1.6164,-5.63e-4 -3.2142,0.350263 -4.6875,1.126953 -10.1456,5.348647 -18.1326,28.636366 -10.3516,34.072266 7.7811,5.4359 26.8981,-10.07502 28.4297,-21.4414 0.9638,-7.152338 -6.386,-13.755383 -13.3906,-13.757819 z m -52.7168,5.765625 c -8.9353,-0.03506 -23.2404,12.794504 -24.5567,22.562504 -1.1862,8.80287 10.2227,16.77125 18.0801,12.6289 10.1456,-5.34864 18.1326,-28.63442 10.3516,-34.07031 -1.0942,-0.764423 -2.4129,-1.115356 -3.875,-1.121094 z m 202.8476,6.527344 c -1.4621,0.006 -2.7807,0.35667 -3.875,1.1211 -7.781,5.43588 0.206,28.72167 10.3516,34.07031 7.8574,4.14235 19.2663,-3.82604 18.0801,-12.62891 -1.3163,-9.768 -15.6214,-22.59756 -24.5567,-22.5625 z m -94.6523,11.86133 c -11.4803,0.0541 -27.383,8.29274 -26.334,16.23242 1.2433,9.40999 25.5908,13.04205 35.0098,6.49805 7.2946,-5.0681 5.4719,-18.86361 -2.8887,-21.86328 -1.6868,-0.6052 -3.6611,-0.87721 -5.7871,-0.86719 z" />
        <path
           id="path45"
           style="fill:#ffe5ca;fill-opacity:1;stroke-width:13.0922"
           d="m -2649.2273,22.650595 c -8.2162,0.146562 -17.7803,3.173865 -21.9511,8.095703 -5.7426,6.776508 -0.4274,19.636641 8.4238,20.380859 11.4288,0.960942 30.704,-14.351113 27.0781,-23.123047 -1.5863,-3.837721 -7.1604,-5.467508 -13.5508,-5.353515 z m 61.6407,0 c -5.8837,0.09918 -10.8761,1.755652 -12.3633,5.353515 -3.6259,8.771934 15.6493,24.083989 27.0781,23.123047 8.8512,-0.744218 14.1663,-13.604351 8.4238,-20.380859 -4.1708,-4.921838 -13.7349,-7.949141 -21.9511,-8.095703 -0.3994,-0.0071 -0.7953,-0.0066 -1.1875,0 z m 69.5957,15.169922 c -0.8071,0.01096 -1.6189,0.121438 -2.4219,0.341797 -11.0603,3.034994 -23.8809,24.05119 -17.4551,31.037109 6.4258,6.985927 28.4381,-4.037956 32.3848,-14.806641 2.77,-7.558088 -4.7061,-16.678173 -12.5078,-16.572265 z m -196.3809,4.080078 c -7.8018,-0.105908 -15.2778,9.014178 -12.5078,16.572265 3.9467,10.768685 25.959,21.792568 32.3848,14.806641 6.4257,-6.985919 -6.3948,-28.002115 -17.4551,-31.037109 -0.8031,-0.220359 -1.6148,-0.330841 -2.4219,-0.341797 z m 83.0449,13.375 c -8.4761,0.02958 -15.2623,11.332752 -10.8672,18.730469 5.8582,9.860161 29.52,16.651189 34.5528,8.603515 5.0327,-8.04767 -11.4298,-26.351665 -22.8594,-27.302734 -0.2766,-0.02302 -0.5527,-0.0322 -0.8262,-0.03125 z m 59.3653,25.541015 c -7.0047,0.0024 -14.3545,6.605481 -13.3907,13.757813 1.5317,11.366397 20.6487,26.877307 28.4297,21.441407 7.7811,-5.4359 -0.206,-28.723619 -10.3515,-34.072266 -1.4733,-0.77669 -3.0711,-1.127517 -4.6875,-1.126954 z m -99.0469,5.712891 c -1.6164,-5.63e-4 -3.2142,0.350263 -4.6875,1.126953 -10.1456,5.348647 -18.1326,28.636366 -10.3516,34.072266 7.7811,5.4359 26.8981,-10.07502 28.4297,-21.44141 0.9638,-7.152328 -6.386,-13.755373 -13.3906,-13.757809 z m -52.7168,5.765625 c -8.9353,-0.03506 -23.2404,12.794504 -24.5567,22.562504 -1.1862,8.80287 10.2227,16.77125 18.0801,12.6289 10.1456,-5.34864 18.1326,-28.63442 10.3516,-34.07031 -1.0942,-0.764423 -2.4129,-1.115356 -3.875,-1.121094 z m 202.8476,6.527344 c -1.4621,0.0057 -2.7807,0.356671 -3.875,1.121094 -7.781,5.435886 0.206,28.721676 10.3516,34.070316 7.8574,4.14235 19.2663,-3.82604 18.0801,-12.62891 -1.3163,-9.768 -15.6214,-22.59756 -24.5567,-22.5625 z m -94.6523,11.86133 c -11.4803,0.0541 -27.383,8.29274 -26.334,16.23242 1.2433,9.40999 25.5908,13.04205 35.0098,6.49805 7.2946,-5.0681 5.4719,-18.86361 -2.8887,-21.86328 -1.6868,-0.6052 -3.6611,-0.87721 -5.7871,-0.86719 z" />
      </g>
    </g>
  </g>
</svg>
