<?xml version="1.0" encoding="UTF-8" standalone="no"?>
<svg
   viewBox="0 0 300 345"
   version="1.1"
   id="svg49"
   sodipodi:docname="chipmunk.svg"
   inkscape:version="1.2 (dc2aedaf03, 2022-05-15)"
   xml:space="preserve"
   xmlns:inkscape="http://www.inkscape.org/namespaces/inkscape"
   xmlns:sodipodi="http://sodipodi.sourceforge.net/DTD/sodipodi-0.dtd"
   xmlns:xlink="http://www.w3.org/1999/xlink"
   xmlns="http://www.w3.org/2000/svg"
   xmlns:svg="http://www.w3.org/2000/svg"><sodipodi:namedview
     id="namedview51"
     pagecolor="#505050"
     bordercolor="#ffffff"
     borderopacity="1"
     inkscape:showpageshadow="0"
     inkscape:pageopacity="0"
     inkscape:pagecheckerboard="1"
     inkscape:deskcolor="#505050"
     showgrid="false"
     inkscape:zoom="1.1521565"
     inkscape:cx="170.54975"
     inkscape:cy="240.41873"
     inkscape:window-width="1366"
     inkscape:window-height="705"
     inkscape:window-x="-8"
     inkscape:window-y="-8"
     inkscape:window-maximized="1"
     inkscape:current-layer="svg49" /><defs
     id="defs9"><inkscape:path-effect
       effect="fillet_chamfer"
       id="path-effect518"
       is_visible="true"
       lpeversion="1"
       nodesatellites_param="F,0,0,1,0,14.446023,0,1 @ F,0,0,1,0,0,0,1 @ F,0,0,1,0,0,0,1 @ F,0,0,1,0,0,0,1 @ F,0,0,1,0,0,0,1 @ F,0,0,1,0,0,0,1 @ F,0,0,1,0,9.1375716,0,1"
       unit="px"
       method="auto"
       mode="F"
       radius="0"
       chamfer_steps="1"
       flexible="false"
       use_knot_distance="true"
       apply_no_radius="true"
       apply_with_radius="true"
       only_selected="false"
       hide_knots="false" /><inkscape:path-effect
       effect="fillet_chamfer"
       id="path-effect516"
       is_visible="true"
       lpeversion="1"
       nodesatellites_param="F,0,0,1,0,0,0,1 @ F,0,0,1,0,0,0,1 @ F,0,0,1,0,0,0,1 @ F,0,0,1,0,0,0,1 @ F,0,0,1,0,0,0,1 @ F,0,0,1,0,0,0,1 @ F,0,0,1,0,8.6856225,0,1"
       unit="px"
       method="auto"
       mode="F"
       radius="0"
       chamfer_steps="1"
       flexible="false"
       use_knot_distance="true"
       apply_no_radius="true"
       apply_with_radius="true"
       only_selected="false"
       hide_knots="false" /><inkscape:path-effect
       effect="fillet_chamfer"
       id="path-effect465"
       is_visible="true"
       lpeversion="1"
       nodesatellites_param="F,0,1,1,0,10.232922,0,1 @ F,0,0,1,0,0,0,1 @ F,0,0,1,0,0,0,1 @ F,0,0,1,0,0,0,1 @ F,0,0,1,0,0,0,1 @ F,0,0,1,0,0,0,1 @ F,0,0,1,0,10.232922,0,1"
       unit="px"
       method="auto"
       mode="F"
       radius="0"
       chamfer_steps="1"
       flexible="false"
       use_knot_distance="true"
       apply_no_radius="true"
       apply_with_radius="true"
       only_selected="false"
       hide_knots="false" /><linearGradient
       inkscape:collect="always"
       id="linearGradient19184"><stop
         style="stop-color:#c86741;stop-opacity:1;"
         offset="0"
         id="stop19180" /><stop
         style="stop-color:#a24e2e;stop-opacity:0.60179641"
         offset="1"
         id="stop19182" /></linearGradient><inkscape:path-effect
       effect="mirror_symmetry"
       start_point="123.90983,197.04316"
       end_point="123.90983,275.86042"
       center_point="123.90983,236.45179"
       id="path-effect11294"
       is_visible="true"
       lpeversion="1.2"
       lpesatellites=""
       mode="vertical"
       discard_orig_path="false"
       fuse_paths="false"
       oposite_fuse="false"
       split_items="false"
       split_open="false"
       link_styles="false" /><linearGradient
       id="A"
       x1="150"
       y1="356.11"
       x2="150"
       y2="161.16"
       gradientUnits="userSpaceOnUse"><stop
         offset="0"
         stop-color="#bfe7fb"
         id="stop2"
         style="stop-color:#e57d52;stop-opacity:1;" /><stop
         offset="0.69"
         stop-color="#4cc9f5"
         id="stop4"
         style="stop-color:#8c3817;stop-opacity:1;" /></linearGradient><inkscape:path-effect
       effect="mirror_symmetry"
       start_point="149.61791,248.23889"
       end_point="149.61791,282.57673"
       center_point="149.61791,265.40781"
       id="path-effect37428"
       is_visible="true"
       lpeversion="1.2"
       lpesatellites=""
       mode="vertical"
       discard_orig_path="false"
       fuse_paths="false"
       oposite_fuse="false"
       split_items="false"
       split_open="false"
       link_styles="false" /><inkscape:path-effect
       effect="bspline"
       id="path-effect36202"
       is_visible="true"
       lpeversion="1"
       weight="33.333333"
       steps="2"
       helper_size="0"
       apply_no_weight="true"
       apply_with_weight="true"
       only_selected="false" /><inkscape:path-effect
       effect="bspline"
       id="path-effect36208"
       is_visible="true"
       lpeversion="1"
       weight="33.333333"
       steps="2"
       helper_size="0"
       apply_no_weight="true"
       apply_with_weight="true"
       only_selected="false" /><linearGradient
       inkscape:collect="always"
       xlink:href="#linearGradient19184"
       id="linearGradient19186"
       x1="176.6237"
       y1="37.735989"
       x2="199.08624"
       y2="107.05106"
       gradientUnits="userSpaceOnUse"
       gradientTransform="matrix(1,0,0,0.99387693,0,0.67860067)" /></defs><g
     id="g339"
     transform="translate(0.01584381,-0.405265)"><path
       d="M 263.62,345 H 36.38 A 36.38,36.38 0 0 1 0,308.62 v -49.48 h 300 v 49.48 A 36.38,36.38 0 0 1 263.62,345 Z"
       fill="url(#A)"
       id="path11"
       style="fill:url(#A)" /><path
       id="path31"
       style="fill:#f6c3aa;fill-opacity:0.445274"
       d="m 57.818359,288.05273 c 1.503112,3.26251 4.144029,6.58676 7.455079,9.93165 l -7.455079,0.41601 c 7.917673,8.56855 29.207352,17.80612 41.726563,27.60156 3.516928,3.11063 6.449348,6.12369 8.310548,8.99024 1.68886,3.28191 1.77698,6.61849 -0.54688,10.00781 l 1.64844,0.0156 c -0.16195,0.26546 -0.29725,0.53418 -0.49805,0.79493 l 42.12696,-0.40039 42.125,0.40039 c -0.2008,-0.26075 -0.3361,-0.52947 -0.49805,-0.79493 L 193.86133,345 c -2.32385,-3.38932 -2.23574,-6.7259 -0.54688,-10.00781 1.8612,-2.86655 4.79362,-5.87961 8.31055,-8.99024 12.51921,-9.79544 33.80889,-19.03301 41.72656,-27.60156 l -7.45703,-0.41601 c 3.31112,-3.34494 5.9539,-6.66909 7.45703,-9.93165 l -92.76562,5.17383 z" /><path
       id="path13354"
       style="opacity:1;fill:#c86741;fill-opacity:1;stroke:none;stroke-width:2.99081;stroke-dasharray:none;stroke-opacity:1;stop-color:#000000"
       d="m 114.40391,14.944943 c 1.65276,21.075165 21.00255,42.844054 72.18194,23.16196 8.43998,-3.245769 22.25491,-3.5429 27.75403,3.536434 18.24046,23.481975 -49.6912,40.276344 -65.79886,61.472533 l 56.08007,7.53172 c 5.32964,3.31063 104.73715,-39.587822 74.27149,-89.631393 -2.91703,-4.791574 -8.80876,-10.207885 -14.57,-14.8215908 -3.93866,-3.1541496 -11.37455,-5.51600543 -16.42109,-5.51600543 h -117.4457 c -7.97832,0 -16.67178,6.36177003 -16.05188,14.26634223 z"
       inkscape:path-effect="#path-effect518"
       inkscape:original-d="M 116.00977,0.67860077 C 108.68992,23.419386 123.31422,62.43932 186.58585,38.106903 c 8.43998,-3.245769 22.25491,-3.5429 27.75403,3.536434 18.24046,23.481975 -49.6912,40.276344 -65.79886,61.472533 l 56.08007,7.53172 c 5.32964,3.31063 104.73715,-39.587822 74.27149,-89.631393 C 274.6884,14.110321 264.30514,5.9067343 257.03906,0.67860077 Z" /><path
       id="path19178"
       style="opacity:1;fill:url(#linearGradient19186);fill-opacity:1;stroke:none;stroke-width:2.99081;stroke-dasharray:none;stroke-opacity:1;stop-color:#000000"
       d="m 114.30564,10.735097 c -0.69661,22.185246 17.67529,48.371261 72.28021,27.371806 8.43998,-3.245769 22.25491,-3.5429 27.75403,3.536434 18.24046,23.481975 -49.6912,40.276344 -65.79886,61.472533 l 56.08007,7.53172 c 5.32964,3.31063 104.73715,-39.587822 74.27149,-89.631393 C 276.11932,16.460782 270.65736,11.340695 265.17501,6.882463 260.79096,3.3173648 252.45762,0.67860077 246.80614,0.67860077 H 126.24269 c -5.65148,0 -11.76025,4.42604343 -11.93705,10.05649623 z"
       inkscape:path-effect="#path-effect465"
       inkscape:original-d="M 116.00977,0.67860077 C 108.68992,23.419386 123.31422,62.43932 186.58585,38.106903 c 8.43998,-3.245769 22.25491,-3.5429 27.75403,3.536434 18.24046,23.481975 -49.6912,40.276344 -65.79886,61.472533 l 56.08007,7.53172 c 5.32964,3.31063 104.73715,-39.587822 74.27149,-89.631393 C 274.6884,14.110321 264.30514,5.9067343 257.03906,0.67860077 Z" /><path
       id="path13744"
       style="opacity:1;fill:#70361c;fill-opacity:1;stroke:none;stroke-width:2.99081;stroke-dasharray:none;stroke-opacity:1;stop-color:#000000"
       d="m 134.03906,0.67860077 c -1.3702,0 0.92156,8.12530543 30.41625,12.05201723 29.57186,3.936986 88.49478,-13.5524972 97.76417,18.077456 10.5165,35.88548 -82.48901,76.496826 -82.48901,76.496826 l 24.89062,3.34269 c 5.32964,3.31063 104.73712,-39.587873 74.27149,-89.631393 C 275.91591,16.126659 269.84166,10.586566 263.96939,5.9126277 260.21656,2.9256278 253.15037,0.67860077 248.35344,0.67860077 Z"
       sodipodi:nodetypes="csaccscc"
       inkscape:path-effect="#path-effect516"
       inkscape:original-d="m 134.03906,0.67860077 c -1.3702,0 0.92156,8.12530543 30.41625,12.05201723 29.57186,3.936986 88.49478,-13.5524972 97.76417,18.077456 10.5165,35.88548 -82.48901,76.496826 -82.48901,76.496826 l 24.89062,3.34269 c 5.32964,3.31063 104.73712,-39.587873 74.27149,-89.631393 C 274.6884,14.110328 264.30514,5.9067291 257.03906,0.67860077 Z" /><path
       id="rect879"
       style="display:inline;fill:#c86741;fill-opacity:1;stroke-width:0.914647"
       d="M 85.097656,86.410156 C 37.954025,86.410156 0,115.9466 0,152.63672 v 41.01367 8.52539 59.83399 c 0,20.15448 16.22638,36.38085 36.380859,36.38085 H 263.61914 C 283.77362,298.39062 300,282.16425 300,262.00977 v -59.83399 -8.52539 -41.01367 C 300,115.9466 262.04598,86.410156 214.90234,86.410156 Z" /><path
       id="path10494"
       style="opacity:1;fill:#70361c;fill-opacity:1;stroke:none;stroke-width:3;stroke-dasharray:none;stroke-opacity:1;stop-color:#000000"
       class="UnoptimicedTransforms"
       d="M 27.193359,104.12109 C 10.486081,116.19805 0,133.40894 0,152.63672 v 12.16211 c 6.693449,18.71073 31.607007,13.73539 52.78125,13.62109 l 5.736328,-24.0957 C 31.658529,149.44705 26.757912,128.71095 27.193359,104.12109 Z m 245.613281,0 c 0.43545,24.58986 -4.46517,45.32596 -31.32422,50.20313 l 5.73633,24.0957 c 21.17424,0.1143 46.0878,5.08964 52.78125,-13.62109 v -12.16211 c 0,-19.22778 -10.48608,-36.43867 -27.19336,-48.51563 z" /><g
       id="g10301"><path
         style="fill:#e57d52;fill-opacity:1;stroke-width:2;stop-color:#000000"
         d="M 114.95712,107.95974 C 87.897635,52.599677 62.979057,75.695628 44.983224,81.469617 43.814481,104.2329 50.351543,124.10651 80.969804,134.94967 Z"
         id="path3778"
         sodipodi:nodetypes="cccc" /><path
         id="path3986"
         style="fill:#934c2b;fill-opacity:1;stroke-width:2;stop-color:#000000"
         d="M 80.400196,77.51163 C 69.249606,73.054465 52.804043,82.968673 45.411922,86.092916 46.111947,105.62368 55.823914,120.83739 82.969957,130.4509 L 107.22135,119.37993 C 98.352031,92.378577 95.79039,83.66347 80.400196,77.51163 Z"
         sodipodi:nodetypes="accca" /><path
         id="path3912"
         style="fill:#f6c3aa;fill-opacity:1;stroke-width:1.75679;stop-color:#000000"
         d="m 77.320295,87.183025 c -6.961253,0.03889 -17.260347,3.988311 -23.270351,6.953242 0.56914,18.534843 17.141961,29.447843 39.212467,38.571143 L 105.2221,119.80146 C 98.011088,94.176968 87.668076,87.125215 77.320295,87.183025 Z"
         sodipodi:nodetypes="scccs" /><path
         style="fill:#eead8e;fill-opacity:1;stroke-width:2;stop-color:#000000"
         d="m 101.07857,110.62096 c 0,0 -9.033936,-11.770365 -15.727256,-13.253312 -7.26824,-1.610325 -20.750151,-1.568999 -21.558717,5.831452 -0.602195,5.51162 18.304376,-0.64248 14.541856,8.73493 -1.85919,4.6337 1.298997,9.74819 2.952512,15.12103 z"
         id="path4127"
         sodipodi:nodetypes="casscc" /></g><g
       class="UnoptimicedTransforms"
       id="g10291"
       transform="matrix(-1,0,0,1,300,0)"><path
         id="path10283"
         d="M 114.95712,107.95974 C 87.897635,52.599677 62.979057,75.695628 44.983224,81.469617 43.814481,104.2329 50.351543,124.10651 80.969804,134.94967 Z"
         style="opacity:1;fill:#e57d52;fill-opacity:1;stroke-width:2;stop-color:#000000" /><path
         id="path10285"
         d="M 80.400196,77.51163 C 69.249606,73.054465 52.804043,82.968673 45.411922,86.092916 46.111947,105.62368 55.823914,120.83739 82.969957,130.4509 L 107.22135,119.37993 C 98.352031,92.378577 95.79039,83.66347 80.400196,77.51163 Z"
         style="opacity:1;fill:#934c2b;fill-opacity:1;stroke-width:2;stop-color:#000000" /><path
         id="path10287"
         d="m 77.320295,87.183025 c -6.961253,0.03889 -17.260347,3.988311 -23.270351,6.953242 0.56914,18.534843 17.141961,29.447843 39.212467,38.571143 L 105.2221,119.80146 C 98.011088,94.176968 87.668076,87.125215 77.320295,87.183025 Z"
         style="opacity:1;fill:#f6c3aa;fill-opacity:1;stroke-width:1.75679;stop-color:#000000" /><path
         id="path10289"
         d="m 101.07857,110.62096 c 0,0 -9.033936,-11.770365 -15.727256,-13.253312 -7.26824,-1.610325 -20.750151,-1.568999 -21.558717,5.831452 -0.602195,5.51162 18.304376,-0.64248 14.541856,8.73493 -1.85919,4.6337 1.298997,9.74819 2.952512,15.12103 z"
         style="opacity:1;fill:#eead8e;fill-opacity:1;stroke-width:2;stop-color:#000000" /></g><path
       id="path1052"
       style="opacity:1;fill:#e57d52;fill-opacity:1;stroke-width:2;stop-color:#000000"
       class="UnoptimicedTransforms"
       d="M 57.729281,140.69955 C 44.251604,159.3489 36.096499,181.24402 30.447266,203.39258 2.9518005,216.56251 -10.127139,257.01713 9.744165,281.7929 c 16.019095,19.65064 44.754774,20.00634 67.286282,13.91089 26.322713,0.6759 47.725903,23.17492 75.842373,23.45767 21.12779,-3.72222 44.52497,-9.45578 58.38109,-27.17123 23.14263,8.42075 52.42075,12.23372 73.05453,-4.22478 19.40235,-15.33616 19.32237,-44.9567 6.69236,-64.52729 -4.46561,-12.10485 -20.74306,-14.69945 -23.23676,-26.56175 -9.62483,-34.95165 -27.99787,-71.26794 -62.41577,-87.1905 -18.83513,-9.31949 -48.51154,-15.811757 -72.61628,-11.414048 -28.28974,5.161228 -56.987207,16.199968 -75.002709,42.627688 z"
       sodipodi:nodetypes="ccccccccccac" /><path
       id="path10837"
       style="opacity:1;fill:#da6c3f;fill-opacity:1;stroke:none;stroke-width:3;stroke-dasharray:none;stroke-opacity:1;stop-color:#000000"
       class="UnoptimicedTransforms"
       d="m 2.5488281,229.73047 c -4.1383858,14.54491 -2.89313581,48.62478 13.1425779,58.03515 20.63374,16.45848 49.912111,12.64536 73.054688,4.22461 0.990719,1.26666 2.042994,2.45573 3.126953,3.60352 L 109.75977,264.19141 C 65.61302,304.52326 6.2527844,277.65416 2.5488281,229.73047 Z m 294.9023419,0 c -3.70395,47.92369 -63.06419,74.79279 -107.21094,34.46094 l 17.88672,31.40234 c 1.08396,-1.14779 2.13624,-2.33686 3.12696,-3.60352 23.14257,8.42075 52.42094,12.23387 73.05468,-4.22461 16.03572,-9.41037 17.28097,-43.49024 13.14258,-58.03515 z" /><path
       id="path2469"
       style="opacity:1;fill:#70361c;fill-opacity:1;stroke-width:2;stop-color:#000000"
       class="UnoptimicedTransforms"
       d="m 112.15039,103.04492 c -7.81866,2.413 -15.445552,5.48491 -22.656249,9.40235 -21.868296,18.53882 -25.974193,38.69247 -34.015625,58.48828 l 53.480464,57.97851 c 0,0 10.82372,-16.19366 11.4961,-25.49023 1.70035,-23.50978 -20.11891,-44.41175 -19.49219,-67.97461 0.30383,-11.42301 11.1875,-32.4043 11.1875,-32.4043 z m 75.69922,0 c 0,0 10.88367,20.98129 11.1875,32.4043 0.62672,23.56286 -21.19254,44.46483 -19.49219,67.97461 0.67238,9.29657 11.4961,25.49023 11.4961,25.49023 l 53.48046,-57.97851 c -8.04143,-19.79581 -12.14733,-39.94946 -34.01562,-58.48828 -7.2107,-3.91744 -14.83759,-6.98935 -22.65625,-9.40235 z" /><path
       style="opacity:1;fill:#bf410f;fill-opacity:0.281863;stroke:none;stroke-width:3;stroke-dasharray:none;stroke-opacity:1;stop-color:#000000"
       d="m 96.248001,197.04316 c 8.996649,16.45095 19.509259,32.37809 27.661829,61.38651 l -17.05181,17.43075 c 3.85575,-16.11605 -35.976633,-19.14797 -54.565798,-25.38826 z m 107.472309,0 c -8.99665,16.45095 -19.50926,32.37809 -27.66183,61.38651 l 17.05181,17.43075 c -3.85575,-16.11605 35.97664,-19.14797 54.5658,-25.38826 z"
       id="path10914"
       sodipodi:nodetypes="ccccc"
       inkscape:path-effect="#path-effect11294"
       inkscape:original-d="m 96.248001,197.04316 c 8.996649,16.45095 19.509259,32.37809 27.661829,61.38651 l -17.05181,17.43075 c 3.85575,-16.11605 -35.976633,-19.14797 -54.565798,-25.38826 z"
       class="UnoptimicedTransforms" /><path
       id="path1760"
       style="opacity:1;fill:#f6c3aa;fill-opacity:1;stroke-width:2;stop-color:#000000"
       class="UnoptimicedTransforms"
       d="m 62.152344,154.45117 c -5.439715,0.15966 -10.253247,1.36379 -14.751953,3.0918 -1.896888,3.61014 -3.652627,7.29463 -5.283203,11.03711 -0.72963,1.67464 -1.424946,3.36411 -2.105469,5.06054 -0.220372,0.55158 -0.437002,1.10452 -0.652344,1.65821 -0.976982,2.50133 -1.895588,5.02586 -2.775391,7.56445 -0.345726,1.00234 -0.707498,1.99875 -1.039062,3.00586 -0.361048,1.09153 -0.698039,2.19063 -1.042969,3.28711 -0.374392,1.1954 -0.739399,2.39349 -1.095703,3.59375 -1.052881,3.53339 -2.05079,7.08188 -2.958984,10.64258 -1.424016,0.68208 -2.784804,1.48025 -4.128907,2.30273 -0.503402,0.31313 -1.0126,0.61704 -1.503906,0.94922 -0.970816,0.64513 -1.906485,1.3409 -2.830078,2.05469 -0.01027,0.008 -0.02099,0.0154 -0.03125,0.0234 -0.880023,0.68981 -1.739072,1.40903 -2.578125,2.15234 5.771386,46.68008 61.035265,58.30017 80.83594,38.3125 36.38049,-36.72409 -13.983321,-90.13018 -23.042971,-92.70898 -5.547063,-1.57898 -10.495547,-2.16002 -15.015625,-2.02735 z m 175.695316,0 c -4.52009,-0.13267 -9.46856,0.44837 -15.01563,2.02735 -9.05965,2.5788 -59.42346,55.98489 -23.04297,92.70898 19.73874,19.92515 74.70644,8.43071 80.76758,-37.88477 -5.58948,-4.16893 -11.38491,-7.92893 -12.79297,-14.62695 -3.55722,-12.9177 -8.31926,-26.01497 -14.63476,-38.20703 -0.16943,-0.31203 -0.36423,-0.61163 -0.5293,-0.92578 -4.49871,-1.72801 -9.31224,-2.93214 -14.75195,-3.0918 z" /><g
       id="g1695"><circle
         cx="225.3342"
         cy="218.44997"
         r="32.162907"
         id="circle15"
         style="fill:#b65c30;fill-opacity:1;stroke-width:0.882384" /><circle
         cx="225.3342"
         cy="227.37968"
         r="32.162907"
         id="circle21"
         style="fill:#ffffff;stroke-width:0.882384" /><path
         d="m 244.77227,217.79078 a 14.437285,14.437285 0 0 1 -20.82596,-19.40624 26.482918,26.482918 0 0 0 -3.62569,-0.2621 25.117819,25.117819 0 1 0 24.45165,19.65742 z m -35.18679,21.73238 a 5.9627517,5.9627517 0 1 1 5.96275,-5.95184 5.951831,5.951831 0 0 1 -5.96275,5.95184 z"
         id="path1672"
         style="fill:#343434;fill-opacity:1;stroke-width:1.09208" /></g><g
       transform="matrix(-0.88238426,0,0,0.88238426,445.61747,282.9802)"
       class="UnoptimicedTransforms"
       id="g1687"><path
         id="path1681"
         d="m 456.84697,-73.131668 a 36.450001,36.450001 0 0 1 -36.45,36.450001 36.450001,36.450001 0 0 1 -36.45,-36.450001 36.450001,36.450001 0 0 1 36.45,-36.450002 36.450001,36.450001 0 0 1 36.45,36.450002 z"
         style="fill:#b65c30;fill-opacity:1" /><path
         id="path1683"
         d="m 456.84697,-63.011673 a 36.450001,36.450001 0 0 1 -36.45,36.450001 36.450001,36.450001 0 0 1 -36.45,-36.450001 36.450001,36.450001 0 0 1 36.45,-36.450001 36.450001,36.450001 0 0 1 36.45,36.450001 z"
         style="fill:#ffffff" /><path
         id="path1685"
         d="m 386.8558,-73.878718 a 16.361676,16.361676 0 0 0 23.60191,-21.992964 30.012908,30.012908 0 0 1 4.10898,-0.297035 28.465851,28.465851 0 1 1 -27.71089,22.277622 z m 39.87695,24.629149 a 6.7575454,6.7575454 0 1 0 -6.75755,-6.745169 6.745169,6.745169 0 0 0 6.75755,6.745169 z"
         style="fill:#343434;fill-opacity:1;stroke-width:1.23765" /></g><path
       id="path2449"
       style="opacity:1;fill:#f6c3aa;fill-opacity:1;stroke-width:2;stop-color:#000000"
       class="UnoptimicedTransforms"
       d="m 150,255.59375 c -8.20462,0.0681 -16.51548,0.65272 -22.44336,2.3125 -20.76462,5.81397 -42.513735,21.69409 -38.601562,39.56641 21.188062,5.39496 40.161522,21.45055 63.917972,21.68945 21.12777,-3.72222 44.52475,-9.45644 58.38086,-27.17188 0.0701,0.0255 0.14654,0.0449 0.21679,0.0703 -0.95456,-15.60211 -20.38682,-28.93506 -39.02734,-34.1543 -5.92788,-1.65978 -14.23874,-2.2444 -22.44336,-2.3125 z" /><path
       id="path10231"
       style="opacity:1;fill:#f39bdf;fill-opacity:1;stroke-width:3.53135;stop-color:#000000"
       d="m 125.65933,259.57872 c 0,2e-5 5.05454,10.42605 24.34067,15.63918 19.28613,-5.21313 24.34067,-15.63916 24.34067,-15.63918 0,0 -16.22693,-3.78042 -24.34067,-3.72563 -8.11374,-0.0547 -24.34067,3.72563 -24.34067,3.72563 z"
       sodipodi:nodetypes="ccccc" /><path
       style="color:#000000;fill:#272727;stroke-width:1.07624"
       d="m 124.24881,258.53526 c 0,0 2.72342,5.14596 8.0759,8.64178 5.35248,3.49581 11.83023,7.17226 17.67529,7.17226 5.84506,0 12.32281,-3.67645 17.67529,-7.17226 5.35248,-3.49582 8.07589,-8.64178 8.07589,-8.64178 -8.40512,5.09434 -15.90797,12.28466 -25.75118,11.48999 -11.03458,-0.94303 -18.47864,-6.49833 -25.75119,-11.48999 z"
       id="path6271"
       sodipodi:nodetypes="csssccc" /><g
       id="g37426"
       inkscape:path-effect="#path-effect37428"
       class="UnoptimicedTransforms"
       transform="matrix(0.7750939,0,0,0.6693213,33.792721,108.1101)"
       style="fill:none;fill-opacity:1;stroke:#2a2a2a;stroke-opacity:1"><path
         style="opacity:1;fill:none;fill-opacity:1;stroke:#2a2a2a;stroke-width:6.415;stroke-linecap:round;stroke-dasharray:none;stroke-opacity:1;stop-color:#000000;stop-opacity:1"
         d="m 149.53377,248.23889 c 0.0288,5.76908 0.0577,11.5374 0.0804,16.11792 0.0227,4.58051 0.0393,7.97345 -3.05771,11.3791 -3.09704,3.40565 -9.3035,6.82171 -14.96783,6.84074 -5.66433,0.019 -10.7805,-3.36019 -13.87002,-7.25295 -3.08951,-3.89276 -4.14832,-8.29664 -5.2072,-12.70082 m 37.76736,-14.38399 c -0.0288,5.76908 -0.0577,11.5374 -0.0804,16.11792 -0.0227,4.58051 -0.0393,7.97345 3.05771,11.3791 3.09704,3.40565 9.3035,6.82171 14.96783,6.84074 5.66433,0.019 10.7805,-3.36019 13.87002,-7.25295 3.08951,-3.89276 4.14832,-8.29664 5.2072,-12.70082"
         id="path36200"
         inkscape:path-effect="#path-effect36202"
         inkscape:original-d="m 149.53377,248.23889 c 0.0298,5.76908 0.0581,11.5374 0.0865,17.30535 0.0167,3.39308 0.0342,6.78602 0.0498,10.17894 -6.21001,3.41957 -12.41648,6.83563 -18.6279,10.25287 -5.11805,-3.38012 -10.23422,-6.75935 -15.35435,-10.14153 -1.05802,-4.40375 -2.11683,-8.80763 -3.17643,-13.21164"
         sodipodi:nodetypes="cccccc" /><path
         style="opacity:1;fill:none;fill-opacity:1;stroke:#2a2a2a;stroke-width:4.004;stroke-linecap:round;stroke-dasharray:none;stroke-opacity:1;stop-color:#000000;stop-opacity:1"
         d="m 102.8829,268.6609 c 2.58793,-3.31634 5.17547,-6.63218 8.30327,-7.90247 3.12781,-1.2703 6.79497,-0.49359 10.46229,0.28315 m 75.28118,7.61932 c -2.58793,-3.31634 -5.17547,-6.63218 -8.30327,-7.90247 -3.12781,-1.2703 -6.79497,-0.49359 -10.46229,0.28315"
         id="path36204"
         inkscape:path-effect="#path-effect36208"
         inkscape:original-d="m 102.8829,268.6609 c 2.58726,-3.31687 5.1748,-6.6327 7.76411,-9.94943 3.667,0.77651 7.33416,1.55321 11.00145,2.33011"
         sodipodi:nodetypes="ccc" /></g><path
       id="path10306"
       style="opacity:1;fill:none;fill-opacity:1;stroke:#70361c;stroke-width:3;stroke-dasharray:none;stroke-opacity:1;stop-color:#000000"
       class="UnoptimicedTransforms"
       d="M 57.729281,140.69955 C 44.251604,159.3489 36.096499,181.24402 30.447266,203.39258 2.9518005,216.56251 -10.127139,257.01713 9.744165,281.7929 c 16.019095,19.65064 44.754774,20.00634 67.286282,13.91089 26.322713,0.6759 47.725903,23.17492 75.842373,23.45767 21.12779,-3.72222 44.52497,-9.45578 58.38109,-27.17123 23.14263,8.42075 52.42075,12.23372 73.05453,-4.22478 19.40235,-15.33616 19.32237,-44.9567 6.69236,-64.52729 -4.46561,-12.10485 -20.74306,-14.69945 -23.23676,-26.56175 -9.62483,-34.95165 -27.99787,-71.26794 -62.41577,-87.1905 -18.83513,-9.31949 -48.51154,-15.811757 -72.61628,-11.414048 -28.28974,5.161228 -56.987207,16.199968 -75.002709,42.627688 z"
       sodipodi:nodetypes="ccccccccccac" /><g
       id="g16158"
       transform="matrix(0.88104083,0.3305591,-0.29292171,0.78072568,285.47844,9.0427124)"
       inkscape:transform-center-x="1.5157166"
       inkscape:transform-center-y="-8.3364411"><path
         id="path14176"
         style="opacity:1;fill:#bd5d2e;fill-opacity:1;stroke-width:3.64634;stop-color:#000000"
         d="m -106.71235,443.13411 c 18.169308,17.20384 36.077374,18.3282 53.677507,0.50079 3.885473,-3.93564 6.805482,-14.55258 6.805482,-22.80319 v -14.15068 c 0,-8.25061 -3.519442,-16.24175 -7.893641,-17.4699 -17.22498,-4.83621 -34.449971,-5.13951 -51.674948,-0.13298 -4.37059,1.27034 -7.8808,9.3523 -7.8808,17.6029 v 14.15069 c 0,8.25062 3.02313,18.56869 6.9664,22.30241 z"
         sodipodi:nodetypes="ccccc" /><path
         id="path14937"
         style="opacity:1;fill:#8e3107;fill-opacity:0.387255;stroke-width:3.11718;stop-color:#000000"
         d="m -79.960938,385.45312 c -8.612483,-0.0545 -17.22541,1.12174 -25.837892,3.625 -4.37058,1.27034 -7.88086,9.35293 -7.88086,17.60352 v 5.82422 c 1.35854,1.19888 2.96019,2.04531 4.6875,2.33594 19.353891,3.25638 38.708612,3.05967 58.062502,-0.0859 1.73224,-0.28154 3.338624,-1.11743 4.701172,-2.30664 v -5.76758 c 0,-8.2506 -3.520336,-16.24255 -7.894531,-17.4707 -8.612481,-2.41811 -17.225407,-3.70328 -25.837891,-3.75782 z" /><path
         id="rect14067"
         style="opacity:1;fill:#552816;fill-opacity:1;stroke-width:3;stop-color:#000000"
         d="m -80.710938,356.19336 c -2.309191,0 -4.169921,1.85878 -4.169921,4.16797 v 5.61719 c -8.326956,0.85417 -16.707901,3.47567 -25.138671,7.75586 -4.43063,2.24936 -7.82813,8.46694 -7.82813,13.4375 v 8.52539 c 0,4.97055 3.9447,9.8382 8.85547,10.60351 19.353891,3.01618 38.708612,2.83348 58.062502,-0.0801 4.914826,-0.73989 8.869141,-5.55288 8.869141,-10.52343 v -8.52539 c 0,-4.97056 -3.280789,-11.36727 -7.646484,-13.73829 -8.379009,-4.55065 -16.821063,-7.04418 -25.320313,-7.62695 v -5.44531 c 0,-2.30919 -1.858776,-4.16797 -4.167968,-4.16797 z" /><path
         id="path15861"
         style="opacity:1;fill:#481d0c;fill-opacity:1;stroke:none;stroke-width:3;stroke-dasharray:none;stroke-opacity:1;stop-color:#000000"
         d="m -46.517578,376.06055 c 0,0 -5.000954,10.79278 -9.564453,14.23633 -14.110827,10.64781 -50.445309,16.36132 -50.445309,16.36132 18.532367,2.6289 37.065348,2.35238 55.597652,-0.4375 4.914822,-0.73989 8.869141,-5.55289 8.869141,-10.52343 v -8.52539 c 0,-3.65722 -1.779492,-8.08158 -4.457031,-11.11133 z"
         sodipodi:nodetypes="cacsssc" /></g><path
       id="path18639"
       style="fill:none;fill-opacity:1;stroke:#481d0c;stroke-width:3.03;stroke-dasharray:none;stroke-opacity:1;stop-color:#000000"
       d="m 108.50391,260.16992 c -1.50422,-0.002 -2.85988,0.80608 -3.36719,2.1582 l -1.64453,4.38477 c -7.586585,-2.08568 -15.73832,-2.80869 -24.419924,-2.25391 -4.562448,0.29155 -9.378001,4.0217 -10.833985,7.90235 l -2.496093,6.65625 c -0.95792,2.55314 -0.391711,5.6314 1.271484,8.07422 -0.297367,0.61251 -0.577302,1.23641 -0.81836,1.8789 l -1.705078,4.54883 -2.4375,6.5 c -2.416783,6.44146 -2.776977,15.49636 -0.396484,19.71485 10.968513,19.43749 26.418038,26.23518 47.14648,18.13476 4.5761,-1.78828 10.25901,-9.11323 12.67579,-15.55469 l 2.45507,-6.54297 1.68946,-4.5039 c 0.24607,-0.65587 0.45019,-1.32267 0.63086,-1.99219 1.76932,-0.45068 3.38434,-1.35806 4.58203,-2.5957 0.36729,-0.37955 0.69452,-0.78826 0.97656,-1.22461 0.28204,-0.43635 0.51917,-0.89969 0.70117,-1.38477 l 2.4961,-6.65625 c 0.0822,-0.21912 0.15424,-0.44747 0.2207,-0.67968 0.0181,-0.0631 0.0339,-0.12744 0.0508,-0.19141 0.047,-0.1779 0.0908,-0.35877 0.12891,-0.54297 0.0144,-0.0697 0.0298,-0.13846 0.043,-0.20898 0.0447,-0.23992 0.0832,-0.48206 0.11329,-0.73047 0.0464,-0.38133 0.0716,-0.77348 0.084,-1.16993 0.002,-0.0637 0.003,-0.12737 0.004,-0.1914 0.0141,-0.81281 -0.0413,-1.64647 -0.16602,-2.48047 -0.008,-0.0523 -0.017,-0.104 -0.0254,-0.15625 -0.1367,-0.85472 -0.34421,-1.70373 -0.62305,-2.52344 -0.006,-0.0184 -0.0132,-0.0363 -0.0195,-0.0547 -0.56565,-1.64155 -1.40853,-3.15894 -2.52343,-4.32422 -6.04927,-6.32257 -12.75675,-11.05974 -20.07422,-14.32422 l 1.5957,-4.25 c 0.67641,-1.80284 -0.41667,-3.8695 -2.45117,-4.63282 l -1.33594,-0.5 c -0.50862,-0.19082 -1.02594,-0.28241 -1.52734,-0.2832 z" /><path
       id="rect18636"
       style="opacity:1;fill:#d26e46;fill-opacity:1;stroke:none;stroke-width:3;stroke-linejoin:round;stroke-dasharray:none;stroke-opacity:1;stop-color:#000000"
       d="m 72.591797,294.63672 c -5.898392,-0.0786 -11.304785,1.07993 -17.980469,7.51953 -0.756448,0.7297 -29.387055,-2.19261 -35.258119,8.36336 -2.664248,4.79022 9.290638,11.92919 5.215422,15.59485 -3.174268,2.85526 -13.857817,-8.89467 -11.650662,-5.32149 4.102232,6.64114 7.238586,10.95781 13.904297,13.74219 13.16957,5.50114 31.174802,1.92788 42.667968,-3.57813 6.550614,-3.1382 19.722877,-10.29596 16.546875,-14.17773 l -8.974609,-2.49024 5.160156,-12.68554 c -0.483534,-3.0624 -8.709674,2.97175 -10.882812,5.05468 -3.813052,3.65479 1.751433,-10.74385 3.816406,-11.92382 -0.867795,-0.0499 -1.721826,-0.0864 -2.564453,-0.0977 z"
       sodipodi:nodetypes="ssaassscccscs" /><path
       style="color:#000000;fill:#70361c;stroke-linejoin:round"
       d="m 70.365234,292.99023 c -7.149374,-0.0428 -18.321879,11.06954 -18.321879,11.06954 0,0 5.423513,-3.5035 8.291827,-4.6317 3.47111,-2.01163 7.726445,-3.24283 11.682396,-3.13315 -1.632806,3.51139 -3.926883,7.30334 -3.458984,11.29492 2.484192,3.54527 5.456898,-1.83824 7.967045,-2.88298 1.501691,-1.14246 4.437481,-2.84041 2.657534,0.007 -1.214053,2.9852 -2.428105,5.97039 -3.642157,8.95559 -0.470701,2.52932 2.439814,2.40859 4.048327,3.02655 1.758427,0.49755 3.544249,0.9651 5.285698,1.48124 -1.383362,3.05347 -4.641883,4.7062 -7.295474,6.53578 -8.944646,5.59936 -19.044537,9.4621 -29.600831,10.4199 -7.265764,0.6608 -14.93522,0.40183 -21.668755,-2.66568 -5.733238,-3.74333 -11.048137,-8.5718 -11.048137,-8.5718 0,0 2.775285,7.01768 8.670717,11.01298 6.395907,3.42819 13.913265,4.07513 21.063743,3.81828 13.860546,-0.62571 27.254866,-5.93491 38.432115,-14.02854 2.357294,-1.87254 5.61755,-4.59604 4.46168,-7.96709 -0.859477,-2.07664 -3.44284,-1.87793 -5.252408,-2.60122 -1.1188,-0.31038 -2.2376,-0.62075 -3.3564,-0.93112 1.499915,-3.83109 3.208913,-7.6013 4.580559,-11.46982 -0.365377,-3.92353 -5.160571,-2.56967 -7.271964,-0.9501 -1.612557,0.57207 -5.491265,5.06165 -3.545581,1.07731 0.431778,-3.1933 4.349164,-5.57857 3.167799,-8.37968 -1.810213,-0.7826 -3.915248,-0.39641 -5.84687,-0.48668 z"
       id="path17019"
       sodipodi:nodetypes="cccccccccccccccccccccccccc" /><path
       id="rect18936"
       style="opacity:1;fill:#d26e46;fill-opacity:1;stroke:none;stroke-width:3.03;stroke-linejoin:round;stroke-dasharray:none;stroke-opacity:1;stop-color:#000000"
       d="m 123.66992,303.19727 c -4.63929,0.12235 -9.3916,1.42778 -12.44922,3.14257 2.06498,1.17998 14.25786,7.77814 8.97852,7.61914 -3.81322,-0.11484 -15.48343,-1.15282 -15.90234,1.83204 l 10.17968,5.79882 -7.54101,0.0527 c -3.17601,3.88176 10.59197,11.44969 17.14257,14.58789 9.27404,2.81685 18.91012,6.05083 28.65626,8.76953 h 54.54296 c 2.45616,-5.52315 1.37415,-12.80738 6.95313,-15.55469 11.96626,-5.89264 25.82367,-14.48855 -30.33203,-13.47851 -1.78127,-0.0512 -40.76381,0.12499 -48.46094,-8.81055 -2.60136,-3.01989 -7.12828,-4.08134 -11.76758,-3.95898 z" /><path
       id="path17021"
       style="color:#000000;fill:#70361c;stroke-linejoin:round"
       d="m 125.52344,301.54883 c -0.63348,-0.0238 -1.26747,-0.0215 -1.89649,0.004 -4.66303,0.56582 -11.25188,0.6699 -14.05078,4.78125 0.7924,2.82553 8.16843,4.46948 7.49414,5.87891 -4.32549,-0.0432 -9.09161,-0.81095 -13.07031,1.29102 -2.83301,1.82201 -0.46149,4.26199 1.71094,4.98437 0.9506,0.64405 3.91837,1.81473 1.23437,1.50977 -5.2037,2.71989 0.69596,8.72677 3.95508,10.55468 9.15428,6.20323 19.36838,10.67558 29.74219,14.44727 h 10.8164 c -7.83854,-2.14469 -15.48883,-5.02086 -22.79101,-8.41016 -6.90501,-3.33901 -14.18722,-6.52862 -19.66797,-12.03515 -2.03533,-2.08354 1.75494,-1.03752 2.98047,-1.30274 1.99838,0.51302 5.81941,-0.76017 3.31055,-3.08984 -2.58659,-1.47331 -5.17318,-2.94661 -7.75977,-4.41992 4.56535,-0.87382 9.21913,-0.0889 13.81641,-0.16211 4.67603,-2.4995 -1.69654,-6.42647 -4.22852,-7.70313 -4.91301,-1.98451 3.85656,-2.72322 6.00977,-3.01367 4.4197,-0.30338 9.28487,0.76162 12.13867,4.41211 5.62081,3.96211 12.75726,4.55481 19.33984,5.76367 13.10332,2.06847 26.39022,2.13283 39.61719,1.75782 4.46268,-0.0959 8.92579,-0.21896 13.38672,-0.37696 -16.39763,-1.47565 -32.84514,-2.42842 -49.21485,-4.18945 -7.16586,-1.05698 -14.73003,-1.79821 -21.07421,-5.57031 -2.9297,-3.51329 -7.36449,-4.9447 -11.79883,-5.11133 z" /><path
       id="path19031"
       style="opacity:1;fill:#be5c35;fill-opacity:1;stroke:none;stroke-width:3.02071;stroke-linejoin:round;stroke-dasharray:none;stroke-opacity:1;stop-color:#000000"
       d="m 114.35352,13.894059 c 1.08478,21.390873 20.20041,44.22215 72.23242,24.212162 8.43997,-3.245767 22.25479,-3.542522 27.7539,3.536804 3.864,4.97434 3.83154,9.646318 1.27344,14.125865 0,0 27.50478,-7.403863 26.75723,-18.101178 C 241.35183,23.090685 217.42634,19.982622 202.82812,18.248093 181.05071,15.660549 160.03916,37.3172 138.63057,32.581275 128.63949,30.371086 114.35352,13.894059 114.35352,13.894059 Z"
       sodipodi:nodetypes="csscaaac" /></g></svg>
