<?xml version="1.0" encoding="UTF-8" standalone="no"?>
<svg
   id="Layer_1"
   data-name="Layer 1"
   viewBox="0 0 300 345"
   version="1.1"
   sodipodi:docname="cornucopia.svg"
   xml:space="preserve"
   inkscape:version="1.2 (dc2aedaf03, 2022-05-15)"
   xmlns:inkscape="http://www.inkscape.org/namespaces/inkscape"
   xmlns:sodipodi="http://sodipodi.sourceforge.net/DTD/sodipodi-0.dtd"
   xmlns:xlink="http://www.w3.org/1999/xlink"
   xmlns="http://www.w3.org/2000/svg"
   xmlns:svg="http://www.w3.org/2000/svg"><sodipodi:namedview
     id="namedview129"
     pagecolor="#505050"
     bordercolor="#ffffff"
     borderopacity="1"
     inkscape:showpageshadow="0"
     inkscape:pageopacity="0"
     inkscape:pagecheckerboard="1"
     inkscape:deskcolor="#505050"
     showgrid="false"
     inkscape:zoom="1.7577085"
     inkscape:cx="138.8171"
     inkscape:cy="175.22815"
     inkscape:window-width="1366"
     inkscape:window-height="705"
     inkscape:window-x="-8"
     inkscape:window-y="-8"
     inkscape:window-maximized="1"
     inkscape:current-layer="Layer_1" /><defs
     id="defs33"><linearGradient
       inkscape:collect="always"
       id="linearGradient16352"><stop
         style="stop-color:#da6d13;stop-opacity:0;"
         offset="0"
         id="stop16350" /><stop
         style="stop-color:#da6d13;stop-opacity:1;"
         offset="1"
         id="stop16348" /></linearGradient><linearGradient
       inkscape:collect="always"
       id="linearGradient15928"><stop
         style="stop-color:#da5914;stop-opacity:1;"
         offset="0"
         id="stop15926" /><stop
         style="stop-color:#da6d13;stop-opacity:1;"
         offset="1"
         id="stop15924" /></linearGradient><linearGradient
       inkscape:collect="always"
       id="linearGradient12322"><stop
         style="stop-color:#c77d36;stop-opacity:1;"
         offset="0"
         id="stop12318" /><stop
         style="stop-color:#d0aa52;stop-opacity:1;"
         offset="1"
         id="stop12320" /></linearGradient><linearGradient
       inkscape:collect="always"
       id="linearGradient11393"><stop
         style="stop-color:#f42525;stop-opacity:1;"
         offset="0"
         id="stop11389" /><stop
         style="stop-color:#d40c0c;stop-opacity:1;"
         offset="1"
         id="stop11391" /></linearGradient><linearGradient
       inkscape:collect="always"
       id="linearGradient6740"><stop
         style="stop-color:#ac722d;stop-opacity:1;"
         offset="0"
         id="stop6736" /><stop
         style="stop-color:#a4681e;stop-opacity:1;"
         offset="1"
         id="stop6738" /></linearGradient><style
       id="style2">.cls-1,.cls-5{fill:none;}.cls-2{fill:url(#linear-gradient);}.cls-3{fill:#25afe5;}.cls-4{fill:#e7bf9a;}.cls-5{stroke:#994e23;stroke-linecap:round;stroke-miterlimit:10;stroke-width:3.66px;}.cls-6{fill:#8e1a4c;}.cls-7{fill:url(#linear-gradient-2);}.cls-8{fill:url(#linear-gradient-3);}.cls-9{fill:url(#linear-gradient-4);}.cls-10{fill:url(#linear-gradient-5);}.cls-11{fill:url(#linear-gradient-6);}.cls-12{fill:url(#linear-gradient-7);}.cls-13{fill:url(#linear-gradient-8);}.cls-14{fill:url(#linear-gradient-9);}.cls-15{fill:url(#linear-gradient-10);}.cls-16{fill:url(#linear-gradient-11);}.cls-17{fill:url(#linear-gradient-12);}.cls-18{fill:url(#linear-gradient-13);}.cls-19{fill:url(#linear-gradient-14);}.cls-20{fill:url(#linear-gradient-15);}.cls-21{fill:url(#linear-gradient-16);}.cls-22{fill:url(#linear-gradient-17);}.cls-23{fill:url(#linear-gradient-18);}.cls-24{fill:#f7941d;}.cls-25{fill:#15141a;}.cls-26{clip-path:url(#clip-path);}.cls-27{fill:#fff;}.cls-28{fill:#231f20;}</style><linearGradient
       id="linear-gradient"
       x1="150"
       y1="356.11"
       x2="150"
       y2="161.16"
       gradientUnits="userSpaceOnUse"><stop
         offset="0"
         stop-color="#e7bf9a"
         id="stop4"
         style="stop-color:#9f4848;stop-opacity:1;" /><stop
         offset="0.40523177"
         stop-color="#b7785f"
         id="stop6"
         style="stop-color:#500505;stop-opacity:1;" /></linearGradient><linearGradient
       inkscape:collect="always"
       xlink:href="#linearGradient6740"
       id="linearGradient6742"
       x1="26.683275"
       y1="63.628048"
       x2="52.615482"
       y2="210.38606"
       gradientUnits="userSpaceOnUse" /><inkscape:path-effect
       effect="fillet_chamfer"
       id="path-effect59895"
       is_visible="true"
       lpeversion="1"
       nodesatellites_param="F,0,0,1,0,1.8052026,0,1 @ F,0,0,1,0,0,0,1 @ F,0,0,1,0,0,0,1 @ F,0,0,1,0,0,0,1 @ F,0,0,1,0,0,0,1"
       unit="px"
       method="auto"
       mode="F"
       radius="0"
       chamfer_steps="1"
       flexible="false"
       use_knot_distance="true"
       apply_no_radius="true"
       apply_with_radius="true"
       only_selected="false"
       hide_knots="false" /><linearGradient
       inkscape:collect="always"
       xlink:href="#linearGradient11393"
       id="linearGradient11395"
       x1="-0.57785434"
       y1="275.68869"
       x2="0.36168396"
       y2="334.72211"
       gradientUnits="userSpaceOnUse" /><linearGradient
       inkscape:collect="always"
       xlink:href="#linearGradient12322"
       id="linearGradient12324"
       x1="191.3542"
       y1="288.86401"
       x2="151.05884"
       y2="154.01552"
       gradientUnits="userSpaceOnUse"
       gradientTransform="translate(0,-3.505801)" /><linearGradient
       inkscape:collect="always"
       xlink:href="#linearGradient15928"
       id="linearGradient15930"
       x1="102.15086"
       y1="125.32439"
       x2="102.45454"
       y2="113.06521"
       gradientUnits="userSpaceOnUse" /><linearGradient
       inkscape:collect="always"
       xlink:href="#linearGradient16352"
       id="linearGradient16354"
       x1="268.50171"
       y1="288.72324"
       x2="281.17737"
       y2="195.46869"
       gradientUnits="userSpaceOnUse" /><linearGradient
       inkscape:collect="always"
       xlink:href="#linearGradient11393"
       id="linearGradient632"
       gradientUnits="userSpaceOnUse"
       x1="-0.57785434"
       y1="275.68869"
       x2="0.36168396"
       y2="334.72211"
       gradientTransform="matrix(0.77725364,0.36799846,-0.39712355,0.7627837,211.78258,24.054688)" /><clipPath
       clipPathUnits="userSpaceOnUse"
       id="clipPath1202"><path
         id="path1204"
         style="fill:#ff0000;fill-rule:evenodd"
         d="m 217.63763,227.50725 c 0,35.36056 -25.33823,83.15179 -62.00142,73.6425 -31.95604,-8.28841 -74.50011,-37.48619 -74.654765,-72.63023 -0.155606,-35.36022 30.198695,-65.03823 68.075025,-65.03823 37.87633,0 68.58116,28.6654 68.58116,64.02596 z"
         sodipodi:nodetypes="sssss" /></clipPath><clipPath
       clipPathUnits="userSpaceOnUse"
       id="clipPath1806"><rect
         style="opacity:1;fill:#b9322a;fill-opacity:1;stroke:none;stroke-width:3.04203;stroke-linejoin:round;stroke-opacity:0.68435;stop-color:#000000"
         id="rect1808"
         width="203.45285"
         height="265.93845"
         x="90.912865"
         y="47.462841"
         transform="matrix(0.99801311,0.06300667,-0.06756845,0.99771464,0,0)" /></clipPath></defs><path
     class="cls-2"
     d="M 263.62,345 H 36.38 A 36.38,36.38 0 0 1 0,308.62 v -49.48 h 300 v 49.48 A 36.38,36.38 0 0 1 263.62,345 Z"
     id="path35"
     style="fill:url(#linear-gradient)" /><rect
     class="cls-3"
     y="45"
     width="300"
     height="253.39"
     rx="36.380001"
     id="rect37"
     x="0"
     style="fill:#9e3c3c;fill-opacity:1" /><path
     id="path26059"
     style="fill:#350000;fill-opacity:0.282392;stroke:none;stroke-width:14.2005;stroke-linejoin:round;stroke-dasharray:none;stroke-opacity:1;stop-color:#000000"
     d="m 205.41481,232.29628 c -5.46376,1.01618 -12.37335,1.56038 -17.02997,3.45684 -2.34356,17.89876 -4.68711,35.79751 -7.03067,53.69627 -7.75628,13.7488 12.48777,21.96003 22.37369,15.11322 -1.04441,5.92046 4.37812,10.70384 9.4788,12.40263 4.22118,2.59357 10.46006,0.14306 13.28856,-0.23446 4.67,-0.70637 -3.53938,2.72618 -2.58439,6.02238 -2.48161,4.83487 1.18407,8.68917 5.34785,10.85066 6.43626,4.48811 15.74613,6.07059 22.40836,1.18457 3.78409,-2.66153 7.35673,-5.90243 8.32719,-10.63511 0.65946,-6.10398 7.87873,-3.7613 11.57614,-7.18798 4.46646,-3.22717 2.01789,-9.40611 -0.32122,-13.18076 1.51366,-2.70205 5.96439,-6.40988 4.80231,-10.85159 -0.82884,-5.16283 -5.84657,-8.3823 -10.41467,-9.99145 5.75927,-3.39702 11.65588,-9.89582 9.67582,-17.08054 -2.76041,-6.50258 -10.91982,-7.40516 -17.11003,-7.66734 -2.59298,-0.53903 -9.44843,1.66349 -4.98856,-2.09849 3.24863,-4.009 3.58376,-10.74284 -1.02024,-13.91017 -6.36797,-4.59628 -14.86645,-3.87447 -22.12834,-2.36698 -3.88564,-0.18172 -10.9028,5.46683 -11.81675,0.26297 0.21899,-6.17569 -8.11399,-7.54607 -12.83393,-7.78467 z" /><path
     style="opacity:1;fill:#3c1806;fill-opacity:1;stroke:none;stroke-width:2.68803;stroke-linejoin:round;stroke-dasharray:none;stroke-opacity:1;stop-color:#000000"
     d="m 149.42634,305.5235 -80.049826,-31.68979 -5.336655,-87.9553 44.027401,-62.73283 54.70072,-8.4075 c 105.95764,85.89731 14.55731,119.74502 19.56919,178.261 -5.09167,4.95827 -12.5171,7.56615 -32.91083,12.52442 z"
     id="path6795"
     sodipodi:nodetypes="ccccccc" /><g
     id="g10737"
     transform="matrix(0.70108941,0.70108941,-0.70108941,0.70108941,492.24434,-75.424162)"><ellipse
       style="display:inline;fill:#49921f;fill-opacity:1;fill-rule:evenodd;stroke-width:1.66522"
       id="ellipse61977"
       cx="77.985344"
       cy="420.2363"
       rx="35.120483"
       ry="94.26857"
       transform="scale(-1,1)" /><path
       id="ellipse58282"
       style="fill:#6eb436;fill-opacity:1;fill-rule:evenodd;stroke-width:2.11797"
       d="m -77.746588,289.71632 c 8.723621,0.004 15.986788,13.39756 20.797665,24.72243 4.745829,11.17174 7.09802,25.58437 6.381608,38.9302 -1.865217,34.7465 -27.190873,95.66161 -27.190873,95.66161 0,0 -25.328942,-60.91467 -27.190892,-95.66161 -0.71547,-13.35206 1.64071,-27.77142 6.391857,-38.94497 4.814928,-11.32353 12.085501,-24.71165 20.810635,-24.70766 z"
       sodipodi:nodetypes="aaacaaa" /><ellipse
       style="display:inline;fill:#ecca06;fill-opacity:1;fill-rule:evenodd;stroke-width:1.64363"
       id="path58280"
       cx="77.985344"
       cy="405.74023"
       rx="35.120483"
       ry="91.841057"
       transform="scale(-1,1)" /><path
       id="path69673"
       style="fill:#ffe73a;fill-opacity:1;fill-rule:evenodd;stroke-width:1.58404"
       d="m -77.985504,313.89942 a 35.120482,91.841055 0 0 1 15.988687,10.08852 27.015756,42.481546 0 0 1 1.841516,15.39994 27.015756,42.481546 0 0 1 -27.014188,42.4834 27.015756,42.481546 0 0 1 -22.069371,-18.01242 35.120482,91.841055 0 0 1 31.253356,-49.95944 z" /><path
       id="path10562"
       style="opacity:1;fill:#a3651c;fill-opacity:0.584718;stroke-width:1.50739;stroke-linejoin:round;stop-color:#000000"
       d="m -83.974609,317.16797 c -0.04621,0.003 -0.09605,0.0135 -0.150391,0.0332 -0.02332,2.05206 -2.369301,3.34427 -3.820312,4.52735 -1.384148,1.242 -3.274404,0.74366 -4.81836,0.88671 a 35.120483,91.841057 0 0 0 -2.675781,3.45118 c 1.177315,0.80595 3.807021,0.57753 1.589844,2.13867 -1.110365,1.66431 -3.114259,2.18411 -4.644532,3.15039 a 35.120483,91.841057 0 0 0 -2.044919,4.21484 c 5e-5,7e-4 -5e-5,10e-4 0,0.002 0.52449,0.0508 0.2443,0.4239 -0.42188,0.96679 a 35.120483,91.841057 0 0 0 -2.54492,6.31055 c 2.27595,-0.41231 4.295087,-4.63422 5.953126,-1.56055 1.005867,1.85635 6.033579,1.80895 2.761718,3.79492 -2.099156,2.16457 -5.651294,2.85722 -8.185544,1.0293 -0.45441,-0.25239 -0.90153,-0.63995 -1.30664,-0.94531 a 35.120483,91.841057 0 0 0 -1.38868,4.13672 c 1.1959,1.64757 4.54871,2.01402 5.35352,2.49609 -1.38542,3.01402 -5.2556,2.71061 -7.11914,4.25391 a 35.120483,91.841057 0 0 0 -0.91016,3.56054 c 1.4e-4,7.1e-4 -1.3e-4,10e-4 0,0.002 1.61659,-0.25342 0.67755,1.81339 0.92578,2.80859 -0.32189,1.53156 0.4382,2.71012 1.68555,3.58399 2.58356,2.61346 6.798828,2.93619 9.878908,1.02929 2.014069,-0.69343 3.748249,-4.0812 5.267578,-1.21094 2.532379,2.67544 6.760669,3.1862 9.898438,1.29688 1.982535,-0.67534 3.676019,-3.88929 5.191406,-1.12695 2.602628,2.64178 6.857056,2.94406 9.951172,1.00586 1.991667,-0.71814 3.70491,-4.02269 5.210937,-1.16993 2.544889,2.6885 6.795995,3.17704 9.9375,1.26758 1.210642,-0.78675 2.90303,-1.57613 3.767579,-2.69726 a 35.120483,91.841057 0 0 0 -0.886719,-4.3418 c -1.997048,2.67135 -5.628157,5.01896 -8.964844,3.30078 -1.436254,-0.71053 -4.404542,-2.85174 -3.9375,-3.76953 2.618852,-0.68648 6.113527,-2.10895 7.162109,-4.56836 v -3.64844 c 1.014982,-0.27911 2.437087,-0.62135 3.208985,-1.28906 a 35.120483,91.841057 0 0 0 -1.113281,-3.62695 c -3.258685,1.89443 -6.972362,-0.2714 -9.105469,-2.83985 2.179709,-0.68385 5.986236,-1.98315 6.59375,-4.13671 a 35.120483,91.841057 0 0 0 -1.375,-3.27344 c -2.043341,2.58611 -5.857923,4.30994 -8.904297,2.36718 -1.510149,-1.0412 -5.602257,-3.53719 -1.939453,-4.0996 2.208739,-0.69168 4.087233,-4.39147 5.742187,-1.17383 1.108907,1.17601 3.423915,2.20636 4.806641,2.22851 a 35.120483,91.841057 0 0 0 -3.134766,-6.14062 c -2.120148,-1.4158 -1.96174,-2.32426 -2.117187,-3.4375 a 35.120483,91.841057 0 0 0 -2.97461,-3.94531 c -2.063382,-1.0782 -3.876756,-2.84261 -5.05664,-4.77735 -0.955968,1.31241 -2.670773,3.57805 -4.507813,4.54688 -3.065589,2.04252 -6.926424,0.25948 -9.066406,-2.27735 -1.225838,-0.6395 -1.078364,-2.37886 -1.771484,-2.33398 z m 15.267578,5.88672 c 1.199706,2.16921 4.700855,3.40818 5.941406,4.18359 -1.996271,2.68151 -5.571993,5.12844 -8.960937,3.4707 -1.486935,-0.69764 -4.469562,-2.85998 -4.044922,-3.81054 2.69722,-0.47121 5.011343,-2.12182 7.064453,-3.84375 z m -15.16211,0.21484 c 1.251794,2.19879 4.877603,3.35019 6.177735,4.00391 -1.996885,2.67373 -5.574068,5.09504 -8.949219,3.43164 -1.493415,-0.7043 -4.428787,-2.84568 -4.056641,-3.8125 2.59208,-0.44171 4.838053,-1.98576 6.828125,-3.62305 z m -8.134765,8.36719 c 1.451838,2.45724 5.317051,3.82735 7.041015,4.19726 -1.969652,2.53254 -5.48873,4.64016 -8.671875,3.02735 -1.477475,-0.74519 -4.156683,-2.60336 -4.005859,-3.74805 2.106871,-0.72677 3.948124,-2.05174 5.636719,-3.47656 z m 15.082031,0.21484 c 1.39978,2.37909 5.261002,3.5962 6.869141,3.98047 -2.022217,2.66969 -5.805895,4.75431 -9.025391,2.86133 -1.54352,-0.98734 -5.791337,-3.58224 -2.042969,-4.0625 1.526141,-0.71599 2.906055,-1.70609 4.199219,-2.7793 z m 8.214844,7.95899 c 0.890635,2.13944 5.008971,3.1304 5.167969,4.26367 -2.021473,2.50077 -5.725098,4.16422 -8.716797,2.32422 -1.321288,-0.85578 -4.996369,-3.04738 -1.640625,-3.27539 1.924469,-0.75605 3.620242,-1.98643 5.189453,-3.3125 z m -15.16211,0.21484 c 1.499641,1.75025 3.4541,3.30414 5.794922,3.6543 -1.971939,2.54012 -5.550601,4.57565 -8.701172,2.90039 -1.325156,-0.76795 -5.451305,-3.15683 -2.074218,-3.4336 1.839235,-0.71513 3.469487,-1.87022 4.980468,-3.12109 z m -8.134765,7.55078 c 1.451838,2.45724 5.317052,3.82736 7.041015,4.19727 -1.96965,2.53254 -5.488728,4.64016 -8.671875,3.02734 -1.477474,-0.74518 -4.156683,-2.60336 -4.005859,-3.74805 2.106869,-0.72677 3.948123,-2.05174 5.636719,-3.47656 z m 30.246094,0 c 1.453512,2.4576 5.316486,3.83826 7.042968,4.21094 -1.968737,2.53605 -5.494207,4.64049 -8.675781,3.01953 -1.47757,-0.74893 -4.157772,-2.61025 -4.007813,-3.75586 2.108073,-0.72566 3.951402,-2.04923 5.640626,-3.47461 z m -15.164063,0.21485 c 1.39979,2.37907 5.261002,3.59618 6.869141,3.98046 -2.022221,2.66968 -5.805896,4.7543 -9.025391,2.86133 -1.543522,-0.98733 -5.791336,-3.58223 -2.042969,-4.0625 1.526137,-0.71599 2.906048,-1.70611 4.199219,-2.77929 z M -98.951172,355.75 c 1.199408,2.16932 4.701239,3.40951 5.941406,4.18359 -1.998444,2.68327 -5.576084,5.13474 -8.968754,3.47657 -1.48896,-0.69789 -4.47307,-2.86347 -4.04687,-3.81446 2.7012,-0.46892 5.01858,-2.12148 7.074218,-3.8457 z m 30.244141,0 c 1.199989,2.16914 4.700381,3.41001 5.941406,4.18555 -1.996219,2.68155 -5.572405,5.12702 -8.960937,3.46875 -1.486837,-0.69789 -4.469522,-2.85803 -4.044922,-3.8086 2.697178,-0.47129 5.011695,-2.12344 7.064453,-3.8457 z m -15.16211,0.21484 c 1.251792,2.19879 4.877594,3.35019 6.177735,4.00391 -1.996999,2.67364 -5.573671,5.09621 -8.949219,3.43359 -1.493469,-0.70392 -4.428877,-2.84575 -4.056641,-3.8125 2.593301,-0.44264 4.836906,-1.98703 6.828125,-3.625 z" /><path
       id="rect67412"
       style="fill:#c17c05;stroke-width:7.87784;stroke-linejoin:round;stop-color:#000000"
       d="m -43.817727,390.36405 a 35.120482,86.991158 0 0 1 0.952242,19.9302 35.120482,86.991158 0 0 1 -23.050462,81.66695 h -24.139108 a 35.120482,86.991158 0 0 1 -23.050465,-81.66695 35.120482,86.991158 0 0 1 0.79222,-18.35618 c 23.757786,15.66963 46.548205,14.42948 68.495573,-1.57402 z" /><path
       id="path71691"
       style="color:#000000;fill:#ac6b03;stroke-width:6.21217;stroke-linejoin:round"
       d="m -99.601051,411.26474 c 16.407598,3.95152 31.768337,1.35657 47.520103,1.57534 l -0.06036,9.23604 c -15.240239,-0.21165 -31.029224,2.51584 -48.440862,-1.67749 z m -1.437539,29.69594 c 16.975436,12.99488 32.284093,5.12593 49.303911,0.3732 l 1.130617,9.08675 c -16.429522,4.58788 -34.018585,13.4817 -53.241398,-1.23357 z" /><path
       style="opacity:1;fill:#61a82e;fill-opacity:1;stroke:none;stroke-width:2.77784;stroke-linejoin:round;stroke-dasharray:none;stroke-opacity:1;stop-color:#000000"
       d="m -94.725628,479.5847 c -1.11763,-46.29011 -10.898132,-94.26193 14.6758,-135.37045 31.02284,45.58392 18.22808,91.16786 22.01371,136.75178 z"
       id="path9605"
       sodipodi:nodetypes="cccc" /><path
       id="path73652"
       style="fill:#167710;fill-opacity:1;stroke-width:0.303001;stroke-linecap:round;stroke-linejoin:round;stop-color:#000000"
       class="UnoptimicedTransforms"
       d="m 66.913664,38.406441 a 6.3177821,12.080822 0 0 0 -1.612929,8.054289 6.3177821,12.080822 0 0 0 4.472127,11.547099 c -0.521945,-1.715317 -0.780338,-3.651099 -0.198195,-6.286438 1.0464,-4.737014 -0.469269,-9.451144 -2.661003,-13.31495 z"
       transform="matrix(-5.5589892,0,0,7.602219,320.14061,52.53654)" /><path
       id="path74422"
       style="mix-blend-mode:normal;fill:#167710;fill-opacity:1;stroke:none;stroke-width:2.19726;stroke-linecap:round;stroke-linejoin:round;stroke-opacity:1;stop-color:#000000"
       d="m -102.01168,466.93281 c 16.063486,10.51041 31.996039,10.34825 47.813639,0.82346 a 34.932465,125.82208 0 0 1 -23.788102,33.7028 34.932465,125.82208 0 0 1 -24.025537,-34.52626 z" /><path
       style="opacity:1;fill:none;fill-opacity:1;stroke:#772210;stroke-width:2.77784;stroke-linejoin:round;stroke-dasharray:none;stroke-opacity:0.378738;stop-color:#000000"
       d="m -94.725628,479.5847 c -1.11763,-46.29011 -10.898132,-94.26193 14.6758,-135.37045 31.02284,45.58392 18.22808,91.16786 22.01371,136.75178 z"
       id="path10715"
       sodipodi:nodetypes="cccc" /><path
       id="rect59840"
       style="fill:#61a82e;fill-opacity:1;stroke-width:0.303001;stroke-linecap:round;stroke-linejoin:round;stop-color:#000000"
       d="m 65.657605,36.380731 c 2.809244,4.169243 5.154642,9.739194 3.917257,15.340787 -0.807074,3.653592 3.99e-4,5.962455 0.887731,8.203617 h -0.319317 c -3.538944,-2.297725 -7.459425,-6.6813 -6.31615,-11.138212 0.760143,-2.963317 1.017067,-7.049529 0.855302,-12.071337 -0.0321,-0.996425 0.418139,-1.161563 0.975177,-0.334855 z"
       sodipodi:nodetypes="csccsc"
       inkscape:path-effect="#path-effect59895"
       inkscape:original-d="m 64.60845,34.91198 c 3.228973,4.271754 6.355607,10.520705 4.966412,16.809538 -0.807074,3.653592 3.99e-4,5.962455 0.887731,8.203617 h -0.319317 c -3.538944,-2.297725 -7.459425,-6.6813 -6.31615,-11.138212 0.849216,-3.310558 1.07037,-8.022592 0.781324,-13.874943 z"
       class="UnoptimicedTransforms"
       transform="matrix(-5.0762908,0,0,7.602219,289.42895,52.53654)" /><path
       id="rect60846"
       style="fill:#61a82e;stroke-width:2.10221;stroke-linecap:round;stroke-linejoin:round;stop-color:#000000"
       d="m -63.62323,395.77837 c 8.737184,9.91973 17.375909,19.21933 25.896682,0.64429 0.744433,10.02192 1.787854,19.04548 3.150519,27.00096 5.803591,33.88239 -14.099246,67.2083 -32.063934,84.67608 h -1.618545 c 4.50435,-17.03778 8.601054,-34.59043 4.504116,-62.36581 -2.493839,-16.90709 -2.117808,-33.77562 0.131172,-49.95551 z"
       sodipodi:nodetypes="ccsccsc" /><path
       id="path61046"
       style="fill:#49921f;fill-opacity:1;stroke-width:2.99707;stroke-linecap:round;stroke-linejoin:round;stop-color:#000000"
       d="m -33.689369,431.12751 c 1.902223,31.14932 -16.350271,60.83103 -32.950594,76.97219 h -1.618545 c 4.50435,-17.03779 8.601054,-34.59044 4.504116,-62.36582 -0.709904,-4.81281 -1.182511,-9.62223 -1.450656,-14.41387 10.606671,9.28317 21.116263,14.84645 31.515679,-0.1925 z" /><path
       id="path74420"
       style="fill:#167710;fill-opacity:1;stroke-width:0.303001;stroke-linecap:round;stroke-linejoin:round;stop-color:#000000"
       class="UnoptimicedTransforms"
       d="m 66.913664,38.406441 a 6.3177821,12.080822 0 0 0 -1.612929,8.054289 6.3177821,12.080822 0 0 0 4.472127,11.547099 c -0.521945,-1.715317 -0.780338,-3.651099 -0.198195,-6.286438 1.0464,-4.737014 -0.469269,-9.451144 -2.661003,-13.31495 z"
       transform="matrix(5.5589892,0,0,7.602219,-477.17908,52.53654)" /><g
       class="UnoptimicedTransforms"
       id="g61484"
       transform="matrix(5.0762908,0,0,7.602219,-445.41795,52.53654)"><path
         class="UnoptimicedTransforms"
         id="path61478"
         d="m 65.657605,36.380731 c 2.809244,4.169243 5.154642,9.739194 3.917257,15.340787 -0.807074,3.653592 3.99e-4,5.962455 0.887731,8.203617 h -0.319317 c -3.538944,-2.297725 -7.459425,-6.6813 -6.31615,-11.138212 0.760143,-2.963317 1.017067,-7.049529 0.855302,-12.071337 -0.0321,-0.996425 0.418139,-1.161563 0.975177,-0.334855 z"
         style="opacity:1;fill:#61a82e;fill-opacity:1;stroke-width:0.303001;stroke-linecap:round;stroke-linejoin:round;stop-color:#000000" /><path
         id="path61480"
         d="m 69.549243,45.150216 c -1.721175,1.304847 -3.422954,2.528121 -5.101497,0.08475 -0.146649,1.318289 -0.352197,2.505253 -0.620634,3.551721 -1.143274,4.456908 2.77747,8.840616 6.31641,11.138338 h 0.318844 c -0.887331,-2.241159 -1.694358,-4.550045 -0.887285,-8.203633 0.491272,-2.223967 0.417196,-4.442863 -0.02584,-6.571175 z"
         style="opacity:1;fill:#61a82e;stroke-width:0.338401;stroke-linecap:round;stroke-linejoin:round;stop-color:#000000" /></g><path
       id="rect62100"
       style="fill:#49921f;stroke:#49921f;stroke-width:2.19726;stroke-linecap:round;stroke-linejoin:round;stroke-opacity:1;stop-color:#000000"
       d="m -102.01168,470.95565 c 16.063486,10.51042 31.996039,10.34825 47.813639,0.82346 a 34.932465,125.82208 0 0 1 -23.788102,33.70281 34.932465,125.82208 0 0 1 -24.025537,-34.52627 z" /></g><g
     id="g15922"
     transform="matrix(1.0065477,-0.06581552,0.06816665,1.0425048,2.9058231,4.2438052)"
     clip-path="url(#clipPath1806)"><path
       id="path6347"
       style="display:inline;fill:#593b1e;fill-opacity:1;stroke:none;stroke-width:5.70694;stroke-linecap:round;stroke-linejoin:round;stroke-dasharray:none;stroke-opacity:1;stop-color:#000000"
       d="m 247.09654,139.88736 0.63142,-12.04659 c 0.68748,-13.11617 -40.81075,-4.32509 -43.36732,15.15567 -2.55652,19.48077 -3.33182,28.49167 1.11885,33.97392 4.45092,5.48231 30.47572,8.68053 35.0485,3.34439 4.57286,-5.33617 -16.82922,-14.4178 -18.41404,-29.96072 -1.58496,-15.54287 24.71789,-5.41651 24.98259,-10.46667 z"
       sodipodi:nodetypes="sszzzzs" /><path
       id="path6349"
       style="fill:url(#linearGradient15930);fill-opacity:1;fill-rule:evenodd;stroke-width:0.244861"
       class="UnoptimicedTransforms"
       d="m 89.048894,104.56089 c -0.04779,-1.3e-4 -0.09577,6.1e-4 -0.143675,0.002 -0.696691,0.0171 -1.403307,0.17396 -2.070995,0.49914 -2.136603,1.04058 -4.32633,4.43495 -4.020277,7.52132 1.25e-4,5.10772 2.721831,9.62037 6.882746,12.3404 1.411675,0.92283 4.070201,1.42479 5.75919,1.42479 h 7.141007 c 1.45491,0 3.74077,-0.43435 4.9776,-1.19756 4.36193,-2.69162 7.24038,-7.31499 7.24051,-12.56763 0.30605,-3.08637 -1.88406,-6.48074 -4.02065,-7.52132 -0.66769,-0.32518 -1.37431,-0.48204 -2.071,-0.49914 -1.53273,-0.0376 -3.01849,0.60031 -3.94286,1.60945 -0.89847,-0.96617 -3.40979,-1.54629 -5.966205,-1.59009 -2.556422,0.0438 -5.067367,0.62392 -5.965837,1.59009 -0.895482,-0.97761 -2.318057,-1.60713 -3.799554,-1.61131 z"
       transform="matrix(5.1343598,0,0,5.9444728,-291.17956,-453.44732)" /><path
       id="path6351"
       style="display:inline;fill:#af3e12;fill-opacity:0.86711;stroke-width:1.1441;stroke-linecap:round;stroke-linejoin:round;stop-color:#000000"
       class="UnoptimicedTransforms"
       d="m 89.048521,104.56052 3.73e-4,3.7e-4 c -0.04779,-1.3e-4 -0.09577,4.7e-4 -0.143675,0.002 -0.696689,0.0171 -1.403309,0.17396 -2.070995,0.49914 -2.136599,1.04058 -4.32633,4.43496 -4.020277,7.52131 1.32e-4,5.38811 3.028946,10.11388 7.580927,12.77167 1.067171,0.6231 3.00724,0.9939 4.243953,0.9939 h 8.162603 c 1.33989,0 3.44336,-0.40074 4.59166,-1.08882 4.46311,-2.67435 7.4214,-7.35224 7.42153,-12.67712 0.30605,-3.08635 -1.88407,-6.48074 -4.02065,-7.52131 -0.66769,-0.32518 -1.37431,-0.48204 -2.07099,-0.49914 -1.45539,-0.0357 -2.86741,0.53825 -3.7977,1.46019 1.58253,5.25325 1.55273,10.27119 0.41577,15.01472 -4.4599,5.29321 -8.891442,4.6436 -12.91767,0.11129 -1.157248,-4.7505 -1.206199,-9.77682 0.362536,-15.04003 -0.898247,-0.94065 -2.288795,-1.54394 -3.737395,-1.54803 z"
       transform="matrix(5.1343598,0,0,5.9444728,-291.17956,-453.44732)" /><path
       id="path6353"
       style="fill:url(#linearGradient16354);fill-opacity:1;fill-rule:evenodd;stroke-width:1.36245"
       d="m 166.02947,168.11205 c -0.24584,-0.001 -0.49222,0.003 -0.73761,0.0139 -3.57708,0.10175 -7.20506,1.03414 -10.63326,2.96711 -10.97,6.18571 -22.21296,26.3657 -20.64157,44.71246 1.7e-4,8.01092 0.97695,15.77368 2.80164,23.16166 6.10744,12.87849 15.28985,23.92362 24.88223,20.17014 14.95929,-5.85348 12.29722,-33.04371 14.36749,-52.26188 0.34074,-9.38294 3.8013,-22.82127 6.39066,-32.42138 -4.45516,-3.89439 -10.38033,-6.31719 -16.42958,-6.33697 z m 100.43291,0.003 c -6.01322,-0.0266 -11.83847,2.29454 -16.30726,6.11787 2.7509,10.03369 5.15636,21.48995 6.33526,32.64047 1.84492,17.44987 -0.18922,43.73059 13.92405,50.21521 8.45984,3.88689 17.79882,-2.93861 23.9019,-15.28251 1.97971,-7.67221 4.00543,-17.64848 4.0056,-26.00482 1.57141,-18.34669 -9.67351,-38.52469 -20.64345,-44.71021 -3.42814,-1.93302 -7.05628,-2.86543 -10.63326,-2.96709 -0.19477,-0.003 -0.38899,-0.008 -0.58284,-0.008 z" /></g><path
     id="path2081"
     style="opacity:1;fill:url(#linearGradient6742);fill-opacity:1;stroke-width:3.03;stroke-linejoin:round;stop-color:#000000"
     d="M 36.380859,45 C 19.337739,45 5.1447256,56.619188 1.15625,72.388672 0.60871381,76.153625 0.30253305,80.073842 0,83.998047 V 259.14062 c 2.4578032,8.65585 3.1524768,17.95232 8.0507812,25.72071 6.6581048,8.25517 16.8508168,13.52929 28.3300778,13.52929 H 96.203125 C 42.858933,230.02856 59.828679,175.33865 109.84375,127.07422 L 89.023438,118.45898 C 92.15429,98.872672 80.862163,101.95247 71.076172,102.66406 80.995096,87.89281 69.305823,83.926457 65.332031,76.101562 71.381261,70.085549 73.208955,66.17989 86.152344,56.716797 111.96163,68.354737 127.81933,65.895177 130.66406,45 H 42.357422 Z"
     sodipodi:nodetypes="sccccsccccccccs" /><path
     id="path16358"
     style="opacity:1;fill:#551708;fill-opacity:0.345515;stroke-width:3.6403;stroke-linejoin:round;stop-color:#000000"
     d="m 202.45312,161.32422 c -0.27798,4.59169 1.65234,9.84566 -4.68868,9.55686 -4.8115,0.33832 -14.86008,-4.42883 -17.95067,-4.24769 -7.93473,-9.53431 -18.53811,-1.67493 -28.2376,6.55365 -5.07076,4.11488 -8.87425,9.59553 -11.78154,15.39667 1.05735,10.59503 6.00063,20.70831 13.49414,28.24219 -0.79075,9.52575 -4.13807,18.96528 -10.58621,26.14732 -5.357,4.86584 -0.75283,10.86644 1.56579,16.00799 7.2017,13.93351 17.89129,26.44846 31.53665,34.36488 7.74544,3.70492 16.42798,4.56745 24.9076,4.2845 22.31951,-7.35516 36.28317,-34.0461 28.73193,-56.44835 -2.39845,-7.52231 -8.53724,-13.02685 -15.56092,-16.20809 -4.89131,-3.85956 -14.11692,-8.82413 -10.89693,-16.14151 5.5164,-13.04688 8.14775,-28.36647 2.57301,-41.84997 -0.83941,-1.9849 -1.87186,-3.89251 -3.10657,-5.65845 z"
     sodipodi:nodetypes="ccccccccccccccc" /><path
     id="rect7140"
     style="fill:#591111;fill-opacity:0.292359;stroke-width:4.79997;stroke-linecap:round;stroke-linejoin:round;stroke-miterlimit:9.4;paint-order:stroke fill markers"
     d="m 115.8523,145.52705 c -6.49142,0.624 -12.81478,7.11912 -16.728909,9.81549 -0.657155,-2.45616 -1.20268,-6.15163 -4.600061,-5.80427 -3.34819,1.05086 -7.721392,2.55738 -8.331035,6.56948 -0.572003,3.64262 5.348238,9.783 -5.232266,6.35965 -31.887108,8.39481 -31.235373,55.93643 -5.730427,71.60486 11.251248,7.99922 28.168598,7.49833 37.929798,-2.6875 18.04094,-2.41835 28.7223,-20.91864 32.1231,-37.28586 4.25158,-18.6218 -1.13442,-46.02525 -23.41976,-49.02275 l -6.01044,0.4509 z" /><path
     id="path6713"
     style="opacity:1;fill:#8a4619;fill-opacity:1;stroke:none;stroke-width:2.73;stroke-linejoin:round;stroke-dasharray:none;stroke-opacity:1;stop-color:#000000"
     d="m 89.429688,110.48828 c 0,0 -33.402808,9.5624 -48.296178,18.16612 -14.993898,8.6618 -40.1328872,32.98402 -40.1328872,32.98402 L 0,183.36523 c 21.288438,-34.40838 51.981072,-52.63669 88.305263,-66.9974 0.0839,-1.41961 1.232775,-4.76205 1.124425,-5.87955 z"
     sodipodi:nodetypes="cacccc" /><g
     id="g25707"><path
       style="opacity:1;fill:#563489;fill-opacity:1;stroke:none;stroke-width:13.8514;stroke-linejoin:round;stroke-dasharray:none;stroke-opacity:1;stop-color:#000000"
       d="m 194.23311,230.9981 c 10.36534,-1.28166 23.21402,-8.51476 26.32725,7.5834 15.64208,-5.34865 21.56438,-4.43476 25.07495,-3.233 10.1671,3.48047 8.86851,12.81123 3.72047,18.39978 28.87063,-2.46583 24.13255,16.94185 12.34087,24.26685 13.81779,3.30592 13.7007,13.64571 4.93636,19.67691 9.6603,11.80839 1.75895,14.99288 -8.22725,16.72336 -7.2861,23.81909 -23.28845,17.0683 -30.78,8.55737 -3.75543,-4.26642 6.92094,-15.38241 6.92094,-15.38241 -9.32022,3.03239 -13.88542,4.92815 -26.10718,-10.44042 -14.90149,0.76691 -21.31985,-2.16128 -20.7882,-10.03475 z"
       id="path20889"
       sodipodi:nodetypes="ccsccccscccc" /><path
       style="opacity:1;fill:#4b2682;fill-opacity:1;stroke:none;stroke-width:14.5629;stroke-linejoin:round;stroke-dasharray:none;stroke-opacity:1;stop-color:#000000"
       d="m 194.62278,226.61047 c 10.97521,-1.33799 24.57988,-8.88899 27.87629,7.9167 16.56243,-5.58373 22.83318,-4.62967 26.55031,-3.37509 10.76531,3.63344 9.39031,13.3743 3.93937,19.20847 30.56932,-2.57421 25.55246,17.68647 13.06699,25.33341 12.26602,3.95796 12.52588,14.66995 5.2268,20.54174 6.80097,12.4906 1.00867,15.69249 -8.71132,17.45837 -7.76994,24.92505 -26.7258,19.91658 -32.59104,8.93348 -4.79038,-8.97034 5.81754,-16.51168 7.32816,-16.05849 -9.42903,3.02466 -18.45314,7.90111 -30.60704,-5.61521 -0.5666,-0.63012 -2.04949,-0.74621 -2.6259,-1.46085 -15.77826,0.80062 -16.9846,-6.0795 -16.42167,-14.29902 z"
       id="path18342"
       sodipodi:nodetypes="ccsccccscsccc" /><path
       style="opacity:1;fill:#442276;fill-opacity:1;stroke:none;stroke-width:2.025;stroke-linejoin:round;stroke-dasharray:none;stroke-opacity:1;stop-color:#000000"
       d="m 209.85915,293.30986 c 4.16016,9.75914 9.72284,16.83013 25,5.28169 0.71629,11.85665 -6.48102,11.27765 -11.97183,13.38028 -8.42871,-3.3021 -17.37741,-6.23277 -13.02817,-18.66197 z"
       id="path22400"
       sodipodi:nodetypes="cccc" /><ellipse
       style="fill:#5f368d;fill-opacity:1;fill-rule:evenodd;stroke-width:1.66849"
       id="path22539"
       cx="210.76585"
       cy="230.78622"
       rx="11.645113"
       ry="6.8736806" /><ellipse
       style="fill:none;fill-rule:evenodd;stroke:#3e1c72;stroke-width:2.025;stroke-dasharray:none;stroke-opacity:1"
       id="ellipse21162"
       cx="210.38731"
       cy="236.09155"
       rx="12.789606"
       ry="12.437493" /><ellipse
       style="fill:none;fill-rule:evenodd;stroke:#3e1c72;stroke-width:2.04973;stroke-dasharray:none;stroke-opacity:1"
       id="ellipse21164"
       cx="199.64787"
       cy="288.02817"
       rx="13.305412"
       ry="12.249074" /><ellipse
       style="fill:none;fill-rule:evenodd;stroke:#3e1c72;stroke-width:1.69543;stroke-dasharray:none;stroke-opacity:1"
       id="ellipse21166"
       ry="9.9614325"
       rx="11.193828"
       cy="273.59152"
       cx="227.28871" /><ellipse
       style="fill:none;fill-rule:evenodd;stroke:#3e1c72;stroke-width:1.34375;stroke-dasharray:none;stroke-opacity:1"
       id="ellipse21168"
       cx="240.84506"
       cy="288.38028"
       rx="8.7288218"
       ry="8.0245953" /><path
       style="opacity:1;fill:#2b0b5c;fill-opacity:0.418605;stroke:none;stroke-width:2.025;stroke-linejoin:round;stroke-dasharray:none;stroke-opacity:1;stop-color:#000000"
       d="m 233.80282,300 -3.87324,10.21127 25.35211,-2.8169 c -0.42912,-3.82776 -2.89636,-7.81857 1.40845,-11.26761 -6.02519,-3.1592 -2.63895,-7.51749 -4.35868,-11.75305 l 11.40093,-10.07794 c -6.57516,1.06159 -9.43888,-3.45361 -13.15409,-8.68389 l 4.54163,-11.27581 c -4.9102,8.47195 -7.02342,18.51483 -19.97268,13.20555 4.20586,3.3885 1.57617,6.97827 0.75287,13.16075 9.05605,-2.67513 14.65174,1.9634 13.30602,7.61156 -1.7111,7.18174 -8.03304,12.55319 -20.00957,0.96323 z"
       id="path22404"
       sodipodi:nodetypes="ccccccccccscc" /><ellipse
       style="fill:#5f368d;fill-opacity:1;fill-rule:evenodd"
       id="ellipse25530"
       cx="241.27017"
       cy="286.84824"
       rx="5.8740258"
       ry="4.8950214" /><ellipse
       style="fill:#5f368d;fill-opacity:1;fill-rule:evenodd;stroke-width:1.35081"
       id="ellipse25546"
       cx="264.84918"
       cy="283.88025"
       rx="8.0175724"
       ry="6.5439038" /><ellipse
       style="fill:#5f368d;fill-opacity:1;fill-rule:evenodd;stroke-width:1.30848"
       id="ellipse25534"
       cx="264.35452"
       cy="260.13635"
       rx="7.5229077"
       ry="6.5439038" /><ellipse
       style="fill:#5f368d;fill-opacity:1;fill-rule:evenodd;stroke-width:1.30848"
       id="ellipse25536"
       cx="226.75999"
       cy="270.68921"
       rx="7.5229077"
       ry="6.5439038" /><ellipse
       style="fill:#5f368d;fill-opacity:1;fill-rule:evenodd;stroke-width:1.2098"
       id="ellipse25540"
       cx="223.95691"
       cy="296.24686"
       rx="7.3580194"
       ry="5.7194629" /><ellipse
       style="fill:#5f368d;fill-opacity:1;fill-rule:evenodd;stroke-width:1.66849"
       id="ellipse25542"
       cx="247.37103"
       cy="314.54944"
       rx="11.645113"
       ry="6.8736806" /><ellipse
       style="fill:#5f368d;fill-opacity:1;fill-rule:evenodd;stroke-width:1.32817"
       id="ellipse25544"
       cx="240.00864"
       cy="237.62823"
       rx="8.0631151"
       ry="6.2905645" /><path
       id="ellipse21148"
       style="fill:none;fill-rule:evenodd;stroke:#3e1c72;stroke-width:2.38164;stroke-dasharray:none;stroke-opacity:1"
       d="m 240.0625,230.35352 c -8.87664,1.3e-4 -16.07243,4.82181 -16.07227,10.76953 -1.6e-4,5.94772 7.19563,10.7694 16.07227,10.76953 8.87664,-1.3e-4 16.07243,-4.82181 16.07227,-10.76953 1.6e-4,-5.94772 -7.19563,-10.7694 -16.07227,-10.76953 z M 264.5,251.82227 c -1.12796,0.0387 -2.27236,0.23004 -3.39844,0.56835 -6.52481,1.9591 -11.02379,8.31713 -10.04883,14.20118 0.97584,5.88346 7.05563,9.06458 13.58008,7.10547 6.52481,-1.9591 11.02379,-8.31713 10.04883,-14.20118 -0.78397,-4.72823 -4.92987,-7.85296 -10.18164,-7.67382 z m -1.98047,23.61523 c -6.50885,2.07721 -10.99656,8.81839 -10.02344,15.05664 0.40542,2.53199 1.68843,4.70313 3.64258,6.16406 -2.41943,2.81128 -2.53407,6.90393 -0.29297,10.45899 3.15012,4.99285 7.54447,6.88661 12.69157,4.80511 5.14639,-2.08174 6.76492,-7.81609 3.61524,-12.80859 -0.98234,-1.54076 -0.0229,-2.42257 -1.65446,-3.44965 4.08182,-3.15902 5.72933,-7.54587 4.54183,-11.48899 -1.46756,-4.87306 -7.41422,-10.21077 -12.52035,-8.73757 z m -40.44922,12.85352 c -4.85474,0.0558 -9.2719,2.69833 -11.30273,6.76171 -2.86422,5.73269 -0.14297,12.43176 6.07812,14.96289 6.22124,2.53139 13.58678,-0.064 16.45118,-5.79687 2.86422,-5.73269 0.14296,-12.43176 -6.07813,-14.96289 -1.61493,-0.65667 -3.37075,-0.98572 -5.14844,-0.96484 z m 25.63672,18.79492 c -5.45658,0.0559 -15.05272,1.02532 -18.00642,4.60719 -6.07846,7.37116 1.49655,15.67785 7.53718,18.42225 7.06457,3.2096 18.8055,-1.83024 22.02577,-7.53338 3.22077,-5.70376 1.22335,-12.01641 -5.76942,-14.53512 -1.81516,-0.65375 -3.7888,-0.98147 -5.78711,-0.96094 z"
       sodipodi:nodetypes="ccccccccccccccccccaccccccccsacsc" /><ellipse
       style="fill:#5f368d;fill-opacity:1;fill-rule:evenodd;stroke-width:0.787242"
       id="ellipse25538"
       cx="266.56305"
       cy="298.98935"
       rx="4.8410997"
       ry="3.6809595" /></g><path
     id="path25709"
     style="opacity:1;fill:#230855;fill-opacity:0.345515;stroke-width:3.6403;stroke-linejoin:round;stop-color:#000000"
     d="m 210.90625,222.93555 c -4.56617,1.93297 -9.3219,3.4672 -13.76108,5.66728 -17.73915,9.89802 -35.47829,19.79603 -53.21744,29.69405 6.95143,13.88249 17.4666,26.1573 30.66428,34.42739 7.86654,4.1455 15.09914,7.24878 23.87385,6.95792 6.40469,-6.36407 8.11552,-12.28457 16.55106,-12.33932 6.74658,-0.0438 1.73513,-14.34536 1.07827,-16.53357 0.16538,-5.36025 10.05197,-8.45245 14.43548,-10.24861 20.27087,-8.30609 -6.44027,-5.20384 -7.64159,-18.78806 -0.57444,-1.13376 3.53865,-6.76667 2.78923,-7.76931 -2.85452,-3.81907 -6.86818,-6.69443 -11.20192,-8.68285 -1.23365,-0.72702 -2.42475,-1.52571 -3.57014,-2.38492 z"
     sodipodi:nodetypes="cccccscscscc" /><g
     id="g1252"
     transform="matrix(0.68337423,-0.21274689,0.19543228,0.74391877,86.474366,-27.660936)"><rect
       style="fill:#931f1f;fill-opacity:1;stroke-width:5.96197;stroke-linecap:round;stroke-linejoin:round;stroke-miterlimit:9.4;paint-order:stroke fill markers"
       id="rect1244"
       width="16.084686"
       height="32.264133"
       x="-69.354866"
       y="231.38647"
       ry="5.4445724" /><g
       id="g1250"
       transform="matrix(1.0599406,0,0,1.0599406,-131.16429,-133.42884)"><ellipse
         class="cls-2"
         cx="189.24603"
         cy="366.33307"
         id="ellipse1246"
         style="fill:#72ee41;fill-opacity:1;stroke-width:0.866669"
         rx="37.703808"
         ry="48.026234"
         transform="matrix(0.97049807,0.2411089,-0.27763138,0.96068768,0,0)" /><ellipse
         class="cls-2"
         cx="62.815327"
         cy="398.06403"
         id="ellipse1248"
         style="fill:#72ee41;fill-opacity:1;stroke-width:0.866669"
         rx="37.703808"
         ry="48.026234"
         transform="matrix(-0.97049807,0.2411089,0.27763139,0.96068768,0,0)" /></g></g><path
     id="path6242"
     style="opacity:1;fill:#8a4619;fill-opacity:1;stroke:none;stroke-width:2.73;stroke-linejoin:round;stroke-dasharray:none;stroke-opacity:1;stop-color:#000000"
     d="M 85.299934,51.841981 C 72.508146,60.015002 50.254886,66.593108 32.508439,63.618146 l 25.457474,4.714917 9.205962,5.811468 c 4.669279,-4.9807 7.531634,-9.05733 18.980469,-17.427734 21.385576,9.643196 35.909806,9.567604 41.888676,-2.615235 -11.3501,6.199441 -25.10959,6.616326 -42.741086,-2.259581 z"
     sodipodi:nodetypes="ccccccc" /><path
     id="path6708"
     style="opacity:1;fill:#8a4619;fill-opacity:1;stroke:none;stroke-width:2.73;stroke-linejoin:round;stroke-dasharray:none;stroke-opacity:1;stop-color:#000000"
     d="M 69.091797,81.228516 C 75.511951,92.272045 53.213615,98.956958 30.18949,107.5468 l 41.931604,-6.59758 C 78.049557,90.905966 73.410163,86.14819 69.091797,81.228516 Z"
     sodipodi:nodetypes="cccc" /><path
     id="path6197"
     style="color:#000000;fill:#53230c;stroke-linejoin:round;-inkscape-stroke:none"
     d="M 36.380859 45 C 16.226359 45 -1.3831461e-16 61.226359 0 81.380859 L 0 262.00977 C 0 263.25426 0.064713865 264.48368 0.18554688 265.69531 C 0.85597983 268.75384 1.5190369 271.85629 2.3847656 274.92383 C 7.5779977 288.65695 20.785418 298.39062 36.380859 298.39062 L 97.535156 298.39062 A 1.3651365 1.3651365 0 0 0 97.279297 297.55078 C 70.759051 263.56435 61.847193 233.214 65.617188 205.37891 C 69.387183 177.54381 85.9134 152.06348 110.79102 128.05664 A 1.3651365 1.3651365 0 0 0 110.36523 125.8125 L 90.462891 117.57812 C 91.063083 113.18224 91.016086 109.75619 90.21875 107.21875 C 89.348882 104.45048 87.57596 102.62719 85.4375 101.69727 C 81.882402 100.15128 77.592279 100.67355 73.482422 101.08984 C 75.043416 98.30325 76.075019 95.746346 76.28125 93.507812 C 76.545543 90.639045 75.788731 88.183915 74.599609 86.101562 C 72.400577 82.250685 68.978718 79.432203 67.054688 76.253906 C 72.427591 70.738224 74.776363 66.842133 86.375 58.275391 C 99.0356 63.887336 109.42794 66.242812 117.33203 64.386719 C 121.36885 63.438767 124.74628 61.343561 127.22266 58.113281 C 129.69902 54.883001 131.28207 50.571792 132.01562 45.183594 A 1.3651365 1.3651365 0 0 0 132.00195 45 L 36.380859 45 z M 36.380859 46.365234 L 42.357422 46.365234 L 128.94141 46.365234 C 128.1752 50.588888 126.91456 54.025081 125.05469 56.451172 C 122.95113 59.19513 120.21638 60.904425 116.70703 61.728516 C 109.68833 63.376694 99.48916 61.23374 86.712891 55.472656 A 1.3651365 1.3651365 0 0 0 85.347656 55.615234 C 72.309263 65.147787 70.306388 69.228167 64.369141 75.132812 A 1.3651365 1.3651365 0 0 0 64.115234 76.71875 C 66.304634 81.029952 70.248414 83.987586 72.228516 87.455078 C 73.218566 89.188824 73.771985 90.983958 73.5625 93.257812 C 73.353015 95.531668 72.338152 98.336025 69.943359 101.90234 A 1.3651365 1.3651365 0 0 0 71.175781 104.02539 C 76.172957 103.66202 81.316695 102.88227 84.349609 104.20117 C 85.866067 104.86062 86.940619 105.89643 87.613281 108.03711 C 88.285944 110.17779 88.439185 113.46836 87.675781 118.24414 A 1.3651365 1.3651365 0 0 0 88.501953 119.7207 L 107.44922 127.56055 C 83.137353 151.40119 66.715044 176.919 62.910156 205.01172 C 59.111558 233.058 68.024522 263.5286 93.527344 297.02539 L 36.380859 297.02539 C 25.348736 297.02539 15.579903 291.97106 9.1699219 284.06055 C 4.5804346 276.7332 3.8163754 267.73103 1.3652344 258.99023 L 1.3652344 84.064453 C 1.6645885 80.18196 1.9702272 76.33342 2.5 72.666016 C 6.3590906 57.518217 19.979356 46.365234 36.380859 46.365234 z " /><path
     id="rect7157"
     style="fill:#4b0e0e;fill-opacity:0.262458;stroke-width:5.09103;stroke-linecap:round;stroke-linejoin:round;stroke-miterlimit:9.4;paint-order:stroke fill markers"
     d="m 122.50535,201.77916 c -2.15132,0.005 -4.2718,1.53474 -5.01683,3.75977 l -1.40629,4.19921 a 33.67694,44.016395 11.46435 0 0 -18.146633,-6.29688 33.67694,44.016395 11.46435 0 0 -36.445147,45.16603 33.67694,44.016395 11.46435 0 0 31.675504,42.08788 33.67694,44.016395 11.46435 0 0 2.850707,-0.2871 31.863609,46.521328 38.242689 0 0 2.063486,1.32031 31.863609,46.521328 38.242689 0 0 53.846713,-24.12305 31.863609,46.521328 38.242689 0 0 -3.39515,-53.53712 31.863609,46.521328 38.242689 0 0 -19.4093,-1.72459 l 1.36423,-4.07422 c 0.85147,-2.54289 -0.42524,-5.00365 -2.86268,-5.51564 l -4.19934,-0.88085 c -0.30467,-0.0639 -0.61194,-0.0944 -0.91928,-0.0937 z" /><g
     id="g576"
     transform="matrix(0.84305086,0.16973902,-0.16973902,0.84305086,211.78258,24.054688)"><rect
       style="fill:#931f1f;fill-opacity:1;stroke-width:5.96197;stroke-linecap:round;stroke-linejoin:round;stroke-miterlimit:9.4;paint-order:stroke fill markers"
       id="rect9586"
       width="16.084686"
       height="32.264133"
       x="-69.354866"
       y="231.38647"
       ry="5.4445724" /><path
       id="circle8671"
       style="fill:url(#linearGradient11395);fill-opacity:1;stroke-width:0.918618"
       class="cls-2"
       d="M -22.772658 254.5562 A 51.899207 39.198195 53.999706 0 0 -30.208578 317.35568 A 51.899207 39.198195 53.999706 0 0 31.573684 342.72606 A 51.899207 39.198195 53.999706 0 0 34.381612 340.9822 A 39.963795 50.904957 0 0 0 37.420727 341.25972 A 39.963795 50.904957 0 0 0 77.384194 290.35468 A 39.963795 50.904957 0 0 0 37.420618 239.44827 A 39.963795 50.904957 0 0 0 9.3956141 254.24384 A 51.899207 39.198195 53.999706 0 0 -22.772658 254.5562 z "
       transform="matrix(0.97049807,0.2411089,-0.27763137,0.96068768,0,0)" /><path
       id="path10884"
       style="opacity:1;fill:#cb1c1c;fill-opacity:1;stroke:none;stroke-width:12.5935;stroke-linejoin:round;stroke-dasharray:none;stroke-opacity:1;stop-color:#000000"
       d="m -88.854867,238.42152 c 5.001652,-0.33415 25.033158,7.03724 22.560498,18.9325 -0.743797,3.57819 5.032343,-10.96917 5.032343,-10.96917 -0.0686,0.0429 -0.137143,0.0861 -0.205613,0.12944 -8.69229,-6.35222 -18.152019,-9.29602 -27.387228,-8.09277 z"
       sodipodi:nodetypes="csccc" /></g><path
     id="path8780"
     style="opacity:1;fill:#5b0707;fill-opacity:0.262458;stroke:none;stroke-width:10.83;stroke-linejoin:round;stroke-dasharray:none;stroke-opacity:1;stop-color:#000000"
     d="M 161.35742 261.24805 C 157.56602 266.7809 143.07002 286.77564 131.11719 287.30859 C 120.24891 287.79319 115.32795 270.77941 104.8125 267.99023 C 94.414442 265.23221 72.751953 271.68945 72.751953 271.68945 L 101.90039 296.9668 A 43.826607 34.303901 81.819803 0 0 103.07031 296.8125 A 34.3039 43.826607 30.947559 0 0 105.3457 298.13281 A 34.3039 43.826607 30.947559 0 0 156.62305 274.00977 A 34.3039 43.826607 30.947559 0 0 161.35742 261.24805 z " /><path
     style="opacity:1;fill:#682615;fill-opacity:0.68106306;stroke:none;stroke-width:10.83;stroke-linejoin:round;stroke-dasharray:none;stroke-opacity:1;stop-color:#000000"
     d="M 119.82512,130.63288 C 41.940412,232.78367 97.101336,302.78124 147.54937,305.43659 111.30245,291.11645 82.487318,273.34637 58.737806,241.52986 l 23.02522,-85.52225 z"
     id="path6104"
     sodipodi:nodetypes="ccccc" /><path
     style="opacity:1;fill:#a4681e;fill-opacity:1;stroke-width:3.03;stroke-linejoin:round;stop-color:#000000"
     d="m 142.55356,128.5142 c 0,0 -38.84927,10.89874 -50.217729,25.91883 -16.746389,28.3124 -23.139784,85.15088 -1.619927,112.31493 15.874046,18.7148 63.177146,37.79829 63.177146,37.79829 -6.02463,11.83534 -15.9618,14.37837 -33.47849,-1.07995 -13.3194,3.67445 -26.638795,11.83778 -39.958193,-13.49939 -14.849863,-4.50969 -33.937199,-3.5356 -25.378854,-38.33827 -18.960494,-17.32884 -17.904,-33.78738 -3.779829,-49.67776 -9.604512,-17.38389 -5.142154,-28.14808 9.719561,-34.01846 0.07023,-20.15187 6.367537,-35.90815 30.77861,-38.87825 -2.248204,-21.44138 23.785535,-20.55491 48.057835,-21.05905 z"
     id="path3556"
     sodipodi:nodetypes="cccccccccccc" /><path
     id="path6718"
     style="opacity:1;fill:#8a4619;fill-opacity:1;stroke:none;stroke-width:2.73;stroke-linejoin:round;stroke-dasharray:none;stroke-opacity:1;stop-color:#000000"
     d="m 118.63159,122.64085 c -7.78417,0.69632 -20.045002,1.90603 -26.883543,5.68923 -3.154021,1.75194 0.435031,-0.0284 2.621845,0.77604 12.210768,-2.33579 29.513148,-1.66628 34.183968,3.60327 4.61788,-3.32627 9.19344,0.0377 11.2912,-5.60908 -5.83803,-3.68858 -16.8988,-4.71748 -21.21347,-4.45946 z m -5.61597,17.09353 c 0,0 -30.430097,-1.85607 -41.789058,6.49218 -6.19588,4.55365 -8.634791,13.72529 -10.185534,20.69727 11.163582,-5.74904 26.745508,-20.09892 30.356979,-10.74374 4.238605,-9.28018 13.068443,-11.92885 21.617613,-16.44571 z m -28.440038,31.32934 c -12.478491,1.73681 -26.256852,2.00453 -38.11236,16.20102 -0.009,4.96397 3.405852,7.70112 3.753575,12.58487 C 60.353544,190.3207 70.344692,180.42781 82.921875,177 c 1.209463,-4.09128 0.0062,-1.99978 1.653707,-5.93628 z m -6.252801,44.49333 c -11.727094,-2.43969 -28.084877,-1.65908 -35.520047,19.64803 2.573525,6.86819 8.729936,11.24074 13.330078,16.68164 0.620162,-12.0249 2.437533,-23.67824 20.96875,-30.14453 -0.180609,-5.52455 0.735727,-0.68048 1.221219,-6.18514 z m 5.515183,39.58133 c -7.191406,10.63021 -16.269605,16.30758 -23.461011,26.93779 6.186777,2.96071 14.030903,6.75787 20.920996,7.81791 -4.839246,4.89109 -3.304601,-32.454 2.540015,-34.7557 z m 11.136645,15.9417 c 2.324096,9.91104 -3.517227,19.95873 17.404301,34.80859 4.50804,-1.03791 9.45378,-1.81176 5.86282,-6.93641 -5.36291,-4.93005 -6.13366,-9.8601 -5.23978,-14.79015 -6.3375,-3.87394 -12.53206,-8.06203 -18.027341,-13.08203 z m 30.968751,20.42969 c 3.90784,9.28095 7.4222,18.85046 20.49805,21.4082 3.99543,-2.24576 11.34595,-9.61055 2.70289,-10.38053 -7.86796,-3.38864 -15.56154,-7.15906 -23.20094,-11.02767 z"
     sodipodi:nodetypes="cccccccacccccccccccccccccccccccccc" /><path
     style="opacity:1;fill:none;fill-opacity:1;stroke-width:2.53;stroke-linejoin:round;stop-color:#000000;stroke:#53230c;stroke-opacity:1;stroke-dasharray:none"
     d="m 142.55356,128.5142 c 0,0 -38.84927,10.89874 -50.217729,25.91883 -16.746389,28.3124 -23.139784,85.15088 -1.619927,112.31493 15.874046,18.7148 63.177146,37.79829 63.177146,37.79829 -6.02463,11.83534 -15.9618,14.37837 -33.47849,-1.07995 -13.3194,3.67445 -26.638795,11.83778 -39.958193,-13.49939 -14.849863,-4.50969 -33.937199,-3.5356 -25.378854,-38.33827 -18.960494,-17.32884 -17.904,-33.78738 -3.779829,-49.67776 -9.604512,-17.38389 -5.142154,-28.14808 9.719561,-34.01846 0.07023,-20.15187 6.367537,-35.90815 30.77861,-38.87825 -2.248204,-21.44138 23.785535,-20.55491 48.057835,-21.05905 z"
     id="path3828"
     sodipodi:nodetypes="cccccccccccc" /><path
     style="opacity:1;fill:none;fill-opacity:1;stroke:#53230c;stroke-width:2.53;stroke-linejoin:round;stroke-dasharray:none;stroke-opacity:1;stop-color:#000000"
     d="m 120.46538,303.51628 c -5.30776,-6.16707 -10.17432,-12.45447 -8.70551,-20.4697"
     id="path4654"
     sodipodi:nodetypes="cc" /><path
     style="opacity:1;fill:none;fill-opacity:1;stroke:#53230c;stroke-width:2.53;stroke-linejoin:round;stroke-dasharray:none;stroke-opacity:1;stop-color:#000000"
     d="m 80.467106,289.63453 c -6.469671,-19.2398 -1.178165,-27.33507 3.764543,-34.11617"
     id="path4656"
     sodipodi:nodetypes="cc" /><path
     style="color:#000000;fill:#53230c;stroke-linejoin:round;-inkscape-stroke:none"
     d="m 76.658203,219.30469 c -16.761025,7.46959 -22.898148,18.21869 -23.056979,31.54193 l 2.12805,1.32421 c 0.0059,-0.49579 0.554881,-0.23025 0.577261,-0.71914 0.545933,-11.92591 5.914509,-22.94183 21.380965,-29.8345 z"
     id="path4658"
     sodipodi:nodetypes="cccscc" /><path
     style="color:#000000;fill:#53230c;stroke-linejoin:round;-inkscape-stroke:none"
     d="m 82.095703,175.76758 c -9.232675,3.86947 -16.970569,9.09133 -22.560547,14.0664 -2.794988,2.48754 -5.052454,4.91085 -6.699219,7.09961 -1.646764,2.18877 -2.707134,4.1016 -3.023437,5.83008 l 0.821004,1.25962 c 0.05056,-0.27629 1.729388,-1.27951 1.877631,-1.63652 0.38464,-0.92632 1.251039,-2.47597 2.346287,-3.93169 1.517369,-2.01678 3.669477,-4.33842 6.359375,-6.73242 5.379796,-4.78802 12.909244,-9.87281 21.857422,-13.62305 z"
     id="path4660"
     sodipodi:nodetypes="cssccssscc" /><path
     style="color:#000000;fill:#53230c;stroke-linejoin:round;-inkscape-stroke:none"
     d="m 92.626953,152.43359 c -9.022856,0.11526 -24.736507,4.60372 -33.632812,16.20118 l 2.948948,0.10986 c 8.195723,-10.68416 22.528248,-13.67518 30.717067,-13.77979 z"
     id="path4662"
     sodipodi:nodetypes="ccccc" /><path
     style="color:#000000;fill:#53230c;stroke-linejoin:round;-inkscape-stroke:none"
     d="m 109.99609,126.44336 c -7.0517,-0.48808 -13.993911,0.15938 -20.134762,1.83984 l 2.079673,1.97084 c 11.658159,-3.1903 25.275129,-1.98134 37.834389,3.48229 l 1.00977,-2.32031 c -6.57717,-2.86126 -13.73736,-4.48458 -20.78907,-4.97266 z"
     id="path4664"
     sodipodi:nodetypes="sccccs" /><path
     id="path6175"
     style="color:#000000;fill:#53230c;stroke-linejoin:round"
     d="m 39.244141,63.056641 c -14.238565,-0.09616 -27.291016,3.722656 -27.291016,3.722656 0,0 23.571759,-0.339674 33.757813,1.029297 8.475702,1.139105 15.390541,4.93408 19.789873,9.811869 -0.09607,-0.170998 -0.206212,-0.335084 -0.294922,-0.509766 1.080063,-1.074132 2.073639,-3.051299 2.971845,-4.034525 C 61.164809,65.407802 49.882086,63.12848 39.244141,63.056641 Z m 34.441406,34.86914 C 39.835566,99.100068 16.080605,110.39527 0,125.56445 v 6.60547 c 15.295184,-14.78757 38.232021,-24.61483 73.316557,-28.3722 -4.489311,1.02184 -0.685502,-3.4109 0.36899,-5.871939 z M 89.375,115.60938 C 36.795078,130.1858 13.825159,155.62906 0,182.87891 v 6.66015 C 13.147345,161.7075 43.774071,127.91064 92.270043,120.84573 l -3.246605,-2.26061 c 0.163414,-1.0223 0.264468,-2.07338 0.351562,-2.97574 z"
     sodipodi:nodetypes="scscccsccccccccccc" /><path
     class="UnoptimicedTransforms"
     id="path578"
     d="m 65.657605,36.380731 c 2.809244,4.169243 4.208152,5.947151 2.970767,11.548744 l -3.054463,3.169289 c -0.48079,-1.332924 -2.108876,-0.900269 -1.746783,-2.311841 0.760142,-2.963317 1.017067,-7.049529 0.855302,-12.071337 -0.0321,-0.996425 0.418139,-1.161563 0.975177,-0.334855 z"
     style="fill:#61a82e;fill-opacity:1;stroke-width:0.303001;stroke-linecap:round;stroke-linejoin:round;stop-color:#000000"
     transform="matrix(3.5589337,3.5589337,-5.3298352,5.3298352,143.13372,-350.86916)"
     sodipodi:nodetypes="sccsss" /><g
     id="g547"
     transform="matrix(1.0380806,0,0,1.0557674,-11.327914,-4.4634156)"><path
       id="path3250"
       style="opacity:1;fill:url(#linearGradient12324);fill-opacity:1;stroke-width:3.6775;stroke-linejoin:round;stop-color:#000000"
       d="m 159.64351,137.26056 c -2.7647,0.0512 -5.70929,0.45541 -8.83245,1.25161 -35.50406,9.05121 -30.49212,49.48906 -10.57717,70.21649 -0.18944,9.50907 -1.92087,18.58811 -7.00245,26.10627 -18.2226,26.96025 20.14329,70.43154 53.45707,61.9387 35.8627,-9.14263 40.40495,-63.9218 14.87961,-77.58871 -6.51315,-3.48731 -11.3711,-8.40528 -15.16169,-14.07363 0.19444,-2.71317 0.59844,-5.31052 1.32747,-7.7231 8.53052,-28.22956 -1.36481,-60.62307 -28.09039,-60.12763 z" /><path
       id="path13330"
       style="opacity:1;fill:#b37233;fill-opacity:1;stroke:none;stroke-width:10.83;stroke-linejoin:round;stroke-dasharray:none;stroke-opacity:1;stop-color:#000000"
       d="m 138.10156,224.14459 c -1.09221,3.79531 -2.64616,7.39769 -4.87109,10.68945 -18.22258,26.96023 20.14524,70.43229 53.45898,61.93946 16.15808,-4.11925 25.93556,-17.50735 29.49219,-32.22071 -41.484,22.44611 -70.87024,16.78271 -78.08008,-40.4082 z"
       sodipodi:nodetypes="ccscc" /><path
       id="path12389"
       style="opacity:1;fill:#bd7736;fill-opacity:1;stroke:none;stroke-width:10.83;stroke-linejoin:round;stroke-dasharray:none;stroke-opacity:1;stop-color:#000000"
       d="m 128.52373,189.45181 c 2.62477,8.22437 5.84161,16.67409 11.71065,22.78257 -1.01436,3.037 -0.73703,6.02115 -0.73633,8.93359 -1.09947,-4.23134 29.86281,-3.03441 29.86281,-3.03441 -0.55067,0.81217 -34.12887,-14.23081 -40.83713,-28.68175 z"
       sodipodi:nodetypes="ccccc" /><ellipse
       style="fill:#97752f;fill-opacity:1;fill-rule:evenodd;stroke-width:0.772373"
       id="path5223"
       cx="162.6095"
       cy="144.46033"
       rx="8.5107737"
       ry="5.6864438"
       transform="matrix(1,0,-0.06651902,0.99778516,0,0)" /><path
       style="color:#000000;fill:#452824;stroke-linejoin:round"
       d="m 148.86491,125.75441 -0.81488,0.34352 c -2.03565,0.85815 -2.70328,3.10753 -2.20087,5.2486 0.83397,3.55407 0.51606,7.68495 0.6476,11.96721 0.0678,2.20704 2.07697,3.79729 4.27367,3.56314 l 5.05483,-0.5388 c 2.1967,-0.23415 3.76362,-2.20336 3.37951,-4.37865 -0.88635,-5.01946 -2.24484,-9.58305 -4.67482,-14.28403 -1.01415,-1.96193 -3.62939,-2.77915 -5.66504,-1.92099 z"
       id="path3519"
       sodipodi:nodetypes="ccccc" /></g><path
     style="opacity:1;fill:#ffffff;fill-opacity:0.88372093;stroke:none;stroke-width:8.66833;stroke-linejoin:round;stroke-dasharray:none;stroke-opacity:1;stop-color:#000000"
     d="m 119.46993,225.96248 c -5.56319,4.46302 8.49942,16.69232 16.85234,16.99361 5.34854,0.19292 13.40689,1.37601 11.69348,-10.07029 -2.56674,-17.14681 -20.00875,-13.7721 -28.54582,-6.92332 z"
     id="path9682"
     sodipodi:nodetypes="sass" /><path
     style="opacity:1;fill:#ffffff;fill-opacity:0.84053159;stroke:none;stroke-width:5.87991;stroke-linejoin:round;stroke-dasharray:none;stroke-opacity:1;stop-color:#000000"
     d="m 99.4109,174.41745 c -1.02796,5.07025 11.6739,0.96513 16.22649,-4.05308 2.91511,-3.21326 7.69064,-7.72383 1.86451,-10.91273 -8.72767,-4.77702 -16.51351,7.1852 -18.091,14.96581 z"
     id="path11493"
     sodipodi:nodetypes="sass" /><g
     id="g641"
     style="opacity:1"
     clip-path="url(#clipPath1202)"><rect
       style="fill:#931f1f;fill-opacity:1;stroke-width:5.12711;stroke-linecap:round;stroke-linejoin:round;stroke-miterlimit:9.4;paint-order:stroke fill markers"
       id="rect622"
       width="13.832326"
       height="27.746143"
       x="152.72113"
       y="180.76534"
       ry="4.6821618"
       transform="rotate(11.383682)" /><path
       id="path624"
       style="fill:url(#linearGradient632);fill-opacity:1;stroke-width:0.7897"
       class="cls-2"
       d="m 92.992187,209.84571 a 43.82661,34.3039 81.819806 0 0 -30.718748,45.16601 43.82661,34.3039 81.819806 0 0 37.945311,42.08789 43.82661,34.3039 81.819806 0 0 2.875,-0.29688 34.303901,43.826609 30.947556 0 0 2.25195,1.33008 34.303901,43.826609 30.947556 0 0 51.27735,-24.12304 34.303901,43.826609 30.947556 0 0 -10.84571,-53.53711 34.303901,43.826609 30.947556 0 0 -27.6582,0.97266 43.82661,34.3039 81.819806 0 0 -25.126953,-11.59961 z" /><path
       id="path626"
       style="fill:#cb1c1c;fill-opacity:1;stroke:none;stroke-width:10.83;stroke-linejoin:round;stroke-dasharray:none;stroke-opacity:1;stop-color:#000000"
       d="m 96.403973,209.97402 c 4.273367,0.56727 19.909727,10.18185 15.806067,19.79045 -1.23442,2.89035 6.10441,-8.39338 6.10441,-8.39338 -0.0651,0.0245 -0.13023,0.0493 -0.19531,0.0742 -6.24982,-6.83067 -13.72518,-10.91813 -21.715167,-11.4713 z"
       sodipodi:nodetypes="csccc" /><path
       id="path630"
       style="opacity:1;fill:#5b0707;fill-opacity:0.262458;stroke:none;stroke-width:10.83;stroke-linejoin:round;stroke-dasharray:none;stroke-opacity:1;stop-color:#000000"
       d="M 161.35742 261.24805 C 157.56602 266.7809 143.07002 286.77564 131.11719 287.30859 C 120.24891 287.79319 115.32795 270.77941 104.8125 267.99023 C 94.414442 265.23221 72.751953 271.68945 72.751953 271.68945 L 101.90039 296.9668 A 43.826607 34.303901 81.819803 0 0 103.07031 296.8125 A 34.3039 43.826607 30.947559 0 0 105.3457 298.13281 A 34.3039 43.826607 30.947559 0 0 156.62305 274.00977 A 34.3039 43.826607 30.947559 0 0 161.35742 261.24805 z " /></g></svg>
