<?xml version="1.0" encoding="UTF-8" standalone="no"?>
<svg
   inkscape:version="1.2 (dc2aedaf03, 2022-05-15)"
   xml:space="preserve"
   sodipodi:docname="Crow V2.svg"
   version="1.1"
   viewBox="0 0 300 345"
   data-name="Layer 1"
   id="Layer_1"
   xmlns:inkscape="http://www.inkscape.org/namespaces/inkscape"
   xmlns:sodipodi="http://sodipodi.sourceforge.net/DTD/sodipodi-0.dtd"
   xmlns:xlink="http://www.w3.org/1999/xlink"
   xmlns="http://www.w3.org/2000/svg"
   xmlns:svg="http://www.w3.org/2000/svg"><sodipodi:namedview
     id="namedview65"
     pagecolor="#505050"
     bordercolor="#ffffff"
     borderopacity="1"
     inkscape:showpageshadow="0"
     inkscape:pageopacity="0"
     inkscape:pagecheckerboard="1"
     inkscape:deskcolor="#505050"
     showgrid="false"
     inkscape:zoom="1.5432796"
     inkscape:cx="98.815538"
     inkscape:cy="198.27905"
     inkscape:window-width="1366"
     inkscape:window-height="705"
     inkscape:window-x="-8"
     inkscape:window-y="-8"
     inkscape:window-maximized="1"
     inkscape:current-layer="Layer_1" /><defs
     id="defs11"><linearGradient
       inkscape:collect="always"
       id="linearGradient11380"><stop
         style="stop-color:#1a191d;stop-opacity:1.0"
         offset="0.132626"
         id="stop11376" /><stop
         style="stop-color:#1a191d;stop-opacity:0.07111111"
         offset="0.85145891"
         id="stop11378" /></linearGradient><inkscape:path-effect
       effect="fillet_chamfer"
       id="path-effect10602"
       is_visible="true"
       lpeversion="1"
       nodesatellites_param="F,0,0,1,0,0,0,1 @ F,0,0,1,0,0,0,1 @ F,0,0,1,0,15.227759,0,1"
       unit="px"
       method="auto"
       mode="F"
       radius="0"
       chamfer_steps="1"
       flexible="false"
       use_knot_distance="true"
       apply_no_radius="true"
       apply_with_radius="true"
       only_selected="false"
       hide_knots="false" /><inkscape:path-effect
       effect="fillet_chamfer"
       id="path-effect10596"
       is_visible="true"
       lpeversion="1"
       nodesatellites_param="F,0,0,1,0,0,0,1 @ F,0,0,1,0,0,0,1 @ F,0,0,1,0,15.227759,0,1"
       unit="px"
       method="auto"
       mode="F"
       radius="0"
       chamfer_steps="1"
       flexible="false"
       use_knot_distance="true"
       apply_no_radius="true"
       apply_with_radius="true"
       only_selected="false"
       hide_knots="false" /><style
       id="style2">.cls-1{fill:url(#linear-gradient);}.cls-2{fill:#2fa04a;}.cls-3{fill:#238250;}.cls-4,.cls-7{fill:#1a673d;}.cls-5{fill:#ce2235;}.cls-6{fill:#8c141c;}.cls-7{fill-opacity:0.6;}.cls-8{fill:#67b146;}.cls-9{fill:#fff;}.cls-10{fill:#414042;}.cls-11{fill:#4ab96d;}</style><linearGradient
       id="linear-gradient"
       x1="150"
       y1="356.11"
       x2="150"
       y2="161.16"
       gradientUnits="userSpaceOnUse"><stop
         offset="0"
         stop-color="#1f8e58"
         id="stop4"
         style="stop-color:#26272c;stop-opacity:1;" /><stop
         offset="0.4746137"
         stop-color="#104931"
         id="stop6"
         style="stop-color:#1c1c22;stop-opacity:1;" /></linearGradient><radialGradient
       inkscape:collect="always"
       xlink:href="#linearGradient11380"
       id="radialGradient11382"
       cx="152.664"
       cy="137.32088"
       fx="152.664"
       fy="137.32088"
       r="56.002369"
       gradientTransform="matrix(1,0,0,0.52831343,-2.6640015,75.077704)"
       gradientUnits="userSpaceOnUse" /></defs><path
     class="cls-1"
     d="M 263.62,345 H 36.38 A 36.38,36.38 0 0 1 0,308.62 v -49.48 h 300 v 49.48 A 36.38,36.38 0 0 1 263.62,345 Z"
     id="path13"
     style="display:inline;fill:url(#linear-gradient)" /><path
     id="path31968"
     style="display:inline;fill:#33353b;fill-rule:evenodd"
     d="M 14.240234,253.06055 C 7.4932379,254.63073 1.6434643,261.38503 0,267.85516 c 0.02762912,14.43134 -0.05530888,28.89125 0.0415563,43.30466 0.07173546,5.37384 2.7498995,10.22752 6.2161684,14.16683 5.2020443,6.09461 11.6217653,11.89507 19.5956943,13.85279 3.154868,0.97696 7.125333,-0.48751 7.330043,-4.16718 1.383525,-8.38021 -0.06618,-16.9391 -1.870245,-25.14618 -1.883436,-7.90167 -4.743803,-15.74813 -9.856186,-22.16676 2.779543,-10.13561 5.054149,-22.31461 -0.928789,-31.7412 -1.43616,-1.9186 -3.833927,-3.22618 -6.288008,-2.89757 z" /><path
     id="path31960"
     style="display:inline;fill:#1a191d;fill-opacity:1;stroke-width:2.10312;stroke-linecap:round;stroke-linejoin:round;paint-order:markers stroke fill;stop-color:#000000"
     d="m 30.3125,261.24609 c -0.276659,0.3985 -0.572425,0.80206 -0.908203,1.21875 -17.242591,21.39751 14.498098,66.59363 -2.935547,70.33789 -6.403322,1.37526 -16.004788,-5.0427 -25.1796875,-14.64843 a 36.38,36.38 0 0 0 8.9238285,15.61132 c 0.451036,0.43401 0.902682,0.8596 1.353515,1.2754 a 36.38,36.38 0 0 0 22.875,9.70312 c 12.820635,-6.87251 -15.541994,-49.14539 0.960938,-69.625 5.972464,-7.41165 2.430961,-11.93314 -5.089844,-13.87305 z" /><path
     id="rect3385"
     style="display:inline;opacity:1;fill:#33353b;fill-opacity:1;stroke:none;stroke-width:7.31;stroke-linecap:round;stroke-linejoin:round;stroke-opacity:1;paint-order:fill markers stroke;stop-color:#000000;stop-opacity:1"
     class="UnoptimicedTransforms"
     d="M 25.199219,5.3850634 C -4.7061079,6.2466681 0.21234233,100.98505 0,113.59014 v 150.86914 c 0,20.1545 16.226359,36.38086 36.380859,36.38086 H 263.61914 C 283.77364,300.84014 300,284.61378 300,264.45928 V 113.59014 C 299.7735,100.14471 305.38496,-6.7488676 268.34375,6.5178759 238.51697,19.883469 210.22759,40.938581 178.97461,67.035454 H 121.02539 C 89.77241,40.938581 61.483031,19.883469 31.65625,6.5178759 29.341174,5.6887044 27.192907,5.327623 25.199219,5.3850634 Z"
     transform="translate(0,-2.4495165)" /><path
     id="path4658"
     d="m 276.40097,285.91173 c -9.38242,14.76888 -12.88852,48.61275 -7.83109,52.49119 5.05743,3.87844 18.5265,-3.65847 27.90891,-18.42735 9.38242,-14.76888 -2.3931,-36.98896 -7.45052,-40.86739 -5.05743,-3.87844 -3.24489,-7.96532 -12.6273,6.80355 z"
     style="fill:#33353b;fill-rule:evenodd;stroke-width:1.12042"
     sodipodi:nodetypes="sssss" /><path
     id="path32186"
     d="m 269.6875,261.24609 c 0.27666,0.3985 0.57242,0.80206 0.9082,1.21875 17.24259,21.39751 -14.4981,66.59363 2.93555,70.33789 6.40332,1.37526 16.00479,-5.0427 25.17969,-14.64843 a 36.38,36.38 0 0 1 -8.92383,15.61132 c -0.45104,0.43401 -0.90268,0.8596 -1.35352,1.2754 a 36.38,36.38 0 0 1 -22.875,9.70312 c -12.82063,-6.87251 15.542,-49.14539 -0.96093,-69.625 -5.97247,-7.41165 -2.43097,-11.93314 5.08984,-13.87305 z"
     style="fill:#1a191d;fill-opacity:1;stroke-width:2.10312;stroke-linecap:round;stroke-linejoin:round;paint-order:markers stroke fill;stop-color:#000000" /><path
     id="path19852"
     style="opacity:1;fill:#26272c;fill-opacity:1;stroke-width:4.56839;stroke-linecap:round;stroke-linejoin:round;paint-order:markers stroke fill;stop-color:#000000;stop-opacity:1"
     d="m 87.5,147.5 -18.333984,69.78711 5.941406,-0.2793 c -5.998489,24.62366 -22.599314,58.39563 -26.701172,81.38281 h 199.76563 c 0.80202,-28.97704 -27.29917,-56.19581 -22.53711,-88.47656 l 6.03125,-0.28515 -19.24119,-61.6344 z"
     sodipodi:nodetypes="ccccccccc" /><path
     id="ellipse20795"
     style="display:inline;fill:#33353b;fill-opacity:1;fill-rule:evenodd;stroke-width:1.33456"
     d="m 76.005861,210.92578 c -7.65064,2.01258 -10.562469,9.82838 -13.6688,15.02525 -4.416056,9.79508 -8.358592,20.48178 -5.648466,29.55093 6.051379,2.60189 -1.023581,10.21223 2.084756,15.18458 0.799154,7.12006 11.705655,9.38691 18.492759,2.17488 11.846881,-10.25085 19.767528,-23.45915 21.508171,-35.86426 2.442899,-7.9203 -7.829472,-10.39221 -15.197775,-4.01951 -4.416154,2.25445 -11.535699,10.06733 -7.081252,2.0341 2.424635,-7.67459 5.144046,-16.12756 1.899826,-22.78581 -0.501718,-0.66991 -1.274691,-1.26452 -2.389219,-1.30016 z m 151.716799,0.41797 c -9.43611,1.53492 -6.83665,11.5396 -6.15603,16.16408 1.08022,5.08848 2.80511,9.96497 4.89821,14.66795 -4.61344,-5.63426 -9.61936,-12.08488 -18.72278,-13.59181 -10.17497,1.53954 -6.55162,12.15589 -5.23872,16.74577 4.13171,10.71458 9.03568,21.89726 19.83259,28.68403 2.23264,2.6011 15.79527,0.13593 7.7523,-1.90873 -1.48009,-2.57816 -4.11449,-5.21849 0.58844,-2.60514 7.72351,-2.78655 15.19663,-9.35159 20.11372,-14.83567 3.48003,-10.84823 -1.18404,-20.5999 -5.92929,-29.14713 -4.05131,-5.68263 -8.34945,-12.56812 -17.13844,-14.17335 z"
     sodipodi:nodetypes="csccssscccccscsscssscsss" /><path
     id="path6173"
     style="display:inline;opacity:0.610778;fill:#1a191d;fill-opacity:1;stroke:#1a191d;stroke-width:7.25096;stroke-linecap:round;stroke-linejoin:round;stroke-dasharray:none;stroke-opacity:1;paint-order:stroke markers fill;stop-color:#000000;stop-opacity:1"
     d="m 91.705356,145.16569 c 2.977189,12.00658 10.165274,23.07135 20.713684,28.92787 5.75472,3.72199 13.74403,3.75703 17.70761,10.27485 11.00053,14.42806 13.80625,33.22001 17.98333,50.6606 4.89574,4.95789 5.89997,-5.39956 6.46,-8.89155 2.99321,-16.75244 7.3351,-34.7514 19.91734,-46.51471 3.74254,-3.88288 9.25313,-4.61146 13.56026,-7.63757 9.73652,-5.57017 18.52156,-14.83864 20.24702,-26.81949 -38.86309,0 -77.72616,0 -116.589244,0 z" /><path
     id="rect4028"
     style="display:inline;opacity:1;fill:#33353b;fill-opacity:1;stroke:#1a191d;stroke-width:7.331;stroke-linecap:round;stroke-linejoin:round;stroke-dasharray:none;stroke-opacity:1;paint-order:stroke markers fill;stop-color:#000000;stop-opacity:1"
     d="m 130.10779,47.690095 c 12.23118,-2.461376 31.7973,-6.668016 54.05631,6.37992 31.24351,18.314526 36.81527,80.698695 20.75443,99.041605 -23.76285,27.13928 -85.0746,29.45326 -107.144357,3.19669 C 72.931314,126.75255 90.741463,55.612086 130.10779,47.690095 Z"
     sodipodi:nodetypes="sssas" /><ellipse
     style="fill:url(#radialGradient11382);fill-opacity:1;fill-rule:evenodd;stroke-width:0.905855;opacity:0.50731707"
     id="path11374"
     cx="150"
     cy="147.62617"
     rx="56.002369"
     ry="29.586802" /><path
     id="path10598"
     style="opacity:1;fill:#a64307;fill-opacity:1;stroke:#a64307;stroke-width:3.101;stroke-linecap:round;stroke-linejoin:round;stroke-dasharray:none;stroke-opacity:1;paint-order:markers stroke fill;stop-color:#000000;stop-opacity:1"
     d="m 121.77776,167.04292 c 33.52823,-34.97067 56.44448,0 56.44448,0 -19.12844,13.82904 -21.25958,36.52235 -25.0718,58.33898 -1.44714,8.28172 -4.11544,8.14325 -5.47179,-0.15665 -4.20683,-25.74283 -9.96993,-49.25371 -25.90089,-58.18233 z"
     sodipodi:nodetypes="cccc"
     inkscape:path-effect="#path-effect10602"
     inkscape:original-d="m 121.77776,167.04292 c 33.52823,-34.97067 56.44448,0 56.44448,0 -23.55764,17.03116 -21.3352,47.50692 -28.22224,73.232 -4.68392,-31.1849 -9.21987,-62.58199 -28.22224,-73.232 z" /><path
     id="rect10248"
     style="opacity:1;fill:#fa7924;stroke-width:2.40057;stroke-linecap:round;stroke-linejoin:round;paint-order:markers stroke fill;stop-color:#000000;fill-opacity:1.0;stop-opacity:1.0"
     d="m 121.77776,165.04292 c 33.52823,-34.97067 56.44448,0 56.44448,0 -19.12844,13.82904 -21.25958,36.52235 -25.0718,58.33898 -1.44714,8.28172 -4.11544,8.14325 -5.47179,-0.15665 -4.20683,-25.74283 -9.96993,-49.25371 -25.90089,-58.18233 z"
     sodipodi:nodetypes="cccc"
     inkscape:path-effect="#path-effect10596"
     inkscape:original-d="m 121.77776,165.04292 c 33.52823,-34.97067 56.44448,0 56.44448,0 -23.55764,17.03116 -21.3352,47.50692 -28.22224,73.232 -4.68392,-31.1849 -9.21987,-62.58199 -28.22224,-73.232 z" /><ellipse
     style="fill:#34363b;fill-opacity:1.0;fill-rule:evenodd;stroke-width:0.975305"
     id="path20799"
     cx="44.421486"
     cy="288.63635"
     rx="8.0578508"
     ry="15.909091" /><path
     id="rect11816"
     style="display:inline;fill:#1a191d;fill-opacity:1;stroke:none;stroke-width:1.40077;stroke-linecap:round;stroke-linejoin:round;stroke-opacity:1;paint-order:markers stroke fill;stop-color:#000000;stop-opacity:1;opacity:1"
     d="M 14.814453 34.470703 C 10.116667 54.847506 12.157622 89.406314 20.121094 94.308594 C 27.91376 99.105723 30.648896 74.331419 38.605469 58.863281 C 36.158985 71.733781 36.13125 85.056824 38.041016 97.996094 C 39.301443 104.97205 40.844069 112.37553 45.478516 117.97461 C 47.967621 121.26869 53.277727 122.43747 56.242188 119.08398 C 61.195109 113.93357 63.410393 106.90119 66.328125 100.53125 C 70.984482 89.87952 75.44915 78.402508 84.566406 70.701172 C 87.762913 67.890335 91.826721 66.552652 95.837891 65.414062 C 99.137147 64.456887 102.00314 61.079518 100.79883 57.527344 C 100.2626 55.481715 99.093498 53.664771 97.800781 52.017578 C 90.434845 53.500289 84.467256 58.698681 80.363281 64.791016 C 72.535181 75.942827 69.098259 89.374339 62.40625 101.13086 C 60.457401 104.375 57.297047 108.32724 53.009766 107.26953 C 47.633137 105.68941 45.218963 99.960849 43.480469 95.115234 C 39.545356 82.689654 39.035257 69.43673 39.949219 56.505859 C 42.472077 52.267172 45.467633 48.961555 49.263672 47.712891 C 55.270952 45.736859 55.210232 40.810945 52.072266 35.587891 C 51.772327 35.717166 51.458826 35.840075 51.121094 35.951172 C 33.778003 41.655996 32.488604 89.016847 21.978516 82.546875 C 15.409706 78.503139 12.867326 54.270427 14.814453 34.470703 z M 285.18555 34.470703 C 287.13264 54.270427 284.59031 78.503139 278.02148 82.546875 C 267.51139 89.016847 266.22199 41.655996 248.87891 35.951172 C 248.54117 35.840075 248.22767 35.717166 247.92773 35.587891 C 244.78979 40.810945 244.72903 45.736859 250.73633 47.712891 C 254.53708 48.963111 257.5358 52.275037 260.06055 56.521484 C 261.76711 78.295682 257.72922 102.41821 248.46289 106.74219 C 232.30441 114.28224 230.32197 59.089773 203.6582 52.441406 C 203.13896 52.311935 202.66035 52.168239 202.19922 52.017578 C 197.3748 58.104492 197.27987 63.845582 206.51562 66.148438 C 233.1794 72.7968 235.16182 127.99122 251.32031 120.45117 C 262.24281 115.35442 265.89397 82.777363 261.43164 58.941406 C 269.35829 74.414578 272.09891 99.097918 279.87891 94.308594 C 287.84238 89.406314 289.88331 54.847506 285.18555 34.470703 z M 20.136719 118.04688 C 19.817503 118.03398 19.281459 118.32745 18.496094 118.99414 C 18.250114 119.20294 18.003568 119.40443 17.759766 119.59766 C 17.568808 119.90245 17.364551 120.21348 17.164062 120.52344 C 17.165833 120.44781 17.165981 120.36598 17.167969 120.29102 C 17.133239 120.26462 17.098607 120.24618 17.064453 120.23828 L 17.064453 120.23633 C 16.772478 120.16735 16.50628 120.77858 16.285156 121.85352 C 11.623178 128.74913 4.9976595 136.21508 0 136.64453 L 0 144.2207 C 5.1192307 142.58368 11.455442 134.99042 15.71875 128.40039 C 15.488712 138.12652 17.054927 153.28005 23.037109 154.96484 C 27.35763 156.18166 33.50548 150.33519 38.445312 143.8457 C 36.695489 156.87284 36.6411 187.27575 40.634766 208.48047 C 35.069779 227.26186 24.647262 252.48975 15.630859 251.4375 C 5.4599481 250.25051 3.2235664 214.39528 4.2402344 195.13477 C 1.6576566 207.64238 2.4115697 259.23988 14.648438 260.66797 C 24.665486 261.837 36.475923 230.51209 41.355469 211.70898 C 43.678173 222.24216 47.09779 229.8792 52.027344 230.49805 C 57.23933 231.15234 62.828345 224.2092 68.052734 214.16211 C 70.946035 213.18814 73.497676 212.99754 75.222656 214.13086 C 80.453951 217.56798 77.291035 232.70019 74.111328 241.88477 C 74.136468 241.92047 74.165153 241.949 74.195312 241.9668 C 74.514371 242.15751 75.108779 241.35501 75.826172 239.89844 C 77.785098 239.98284 80.989342 235.80381 83.080078 235.09766 C 86.688907 233.03386 91.051911 229.83646 95.345703 231.64648 C 98.80109 235.00186 97.304949 240.4862 96.753906 244.71094 C 96.249873 247.57462 95.290332 250.45491 94.548828 253.17578 C 97.105163 250.43385 97.734684 246.20418 98.892578 242.65625 C 99.957182 237.63959 101.58456 232.00357 99.220703 227.13672 C 96.160292 223.74927 91.268701 226.69645 88.042969 228.36914 C 84.174742 230.76411 80.294809 233.41389 77.162109 236.74805 C 80.533585 227.94626 84.613269 210.75371 78.986328 207.05664 C 78.168795 206.5195 77.16698 206.27747 76.03125 206.27344 C 74.654197 206.26844 73.080422 206.61687 71.398438 207.2207 C 83.172406 180.84991 91.959244 141.93459 87.787109 145.09375 C 81.0993 170.95901 66.923471 209.6046 54.841797 208.08789 C 43.463341 206.65947 39.956014 168.54272 40.160156 141.5 C 45.709739 133.60604 48.978584 125.89042 44.636719 129.57617 C 44.390739 129.78497 44.146149 129.9845 43.902344 130.17773 C 38.777152 138.35823 30.095428 148.66261 24.490234 147.08398 C 19.548949 145.69235 17.618476 135.10081 17.224609 125.97461 C 19.837739 121.56215 21.20352 118.09 20.136719 118.04688 z M 279.86328 118.04688 C 278.79648 118.09 280.16226 121.56215 282.77539 125.97461 C 282.38152 135.10081 280.45104 145.69235 275.50977 147.08398 C 269.90456 148.66261 261.22285 138.35823 256.09766 130.17773 C 255.85386 129.9845 255.60926 129.78497 255.36328 129.57617 C 251.02142 125.89042 254.29026 133.60604 259.83984 141.5 C 260.04398 168.54272 256.53666 206.65947 245.1582 208.08789 C 233.07655 209.6046 218.90068 170.95901 212.21289 145.09375 C 208.04076 141.93459 216.82759 180.84991 228.60156 207.2207 C 226.91958 206.61687 225.3458 206.26855 223.96875 206.27344 C 222.83302 206.27744 221.83121 206.5195 221.01367 207.05664 C 215.3871 210.75348 219.46654 227.94379 222.83789 236.74609 C 219.8547 233.57692 216.18518 231.03701 212.53516 228.70703 C 209.16866 226.91722 204.04889 223.62207 200.7793 227.13672 C 198.47388 231.80243 199.9746 237.23121 200.95898 242.06641 C 202.1381 245.81604 202.78636 250.26587 205.45117 253.17578 C 204.88733 250.97767 204.05019 248.63743 203.58594 246.33008 C 202.81069 241.78446 201.29327 236.42995 203.9707 232.24609 C 207.82731 229.25765 212.71926 232.7453 216.27539 234.6875 C 218.62836 235.43448 222.01327 239.91635 224.14844 239.8457 C 224.87766 241.33651 225.48174 242.15984 225.80469 241.9668 C 225.83489 241.949 225.86357 241.92047 225.88867 241.88477 C 222.70898 232.70019 219.54606 217.56798 224.77734 214.13086 C 226.50233 212.99749 229.05396 213.18809 231.94727 214.16211 C 237.17165 224.2092 242.76066 231.15234 247.97266 230.49805 C 252.9022 229.8792 256.32182 222.24216 258.64453 211.70898 C 263.52408 230.51209 275.33451 261.837 285.35156 260.66797 C 297.58843 259.23988 298.34233 207.64238 295.75977 195.13477 C 296.77641 214.39528 294.54006 250.25051 284.36914 251.4375 C 275.35274 252.48975 264.93023 227.26186 259.36523 208.48047 C 263.3589 187.27575 263.30452 156.87284 261.55469 143.8457 C 266.49452 150.33519 272.64237 156.18166 276.96289 154.96484 C 282.94507 153.28005 284.51129 138.12652 284.28125 128.40039 C 288.54456 134.99042 294.88078 142.58368 300 144.2207 L 300 136.64453 C 295.00234 136.21508 288.37683 128.74913 283.71484 121.85352 C 283.49372 120.77858 283.22752 120.16735 282.93555 120.23633 L 282.93555 120.23828 C 282.90136 120.24618 282.86673 120.26462 282.83203 120.29102 C 282.83402 120.36598 282.83417 120.44781 282.83594 120.52344 C 282.63545 120.21348 282.43119 119.90245 282.24023 119.59766 C 281.99643 119.40443 281.74989 119.20294 281.50391 118.99414 C 280.71854 118.32745 280.1825 118.03398 279.86328 118.04688 z " /><path
     id="path13838"
     style="fill:#1a191d;fill-opacity:1;stroke:none;stroke-width:1.40077;stroke-linecap:round;stroke-linejoin:round;stroke-opacity:1;paint-order:markers stroke fill;stop-color:#000000;stop-opacity:1"
     d="M 39.060547 264.96875 C 26.357356 286.4086 10.022703 308.50464 1.5273438 305.63867 C 0.97287101 305.45162 0.47233559 305.21952 0 304.96484 L 0 308.61914 A 36.38 36.38 0 0 0 2.0742188 320.05078 C 14.035435 317.61532 32.79657 286.81201 43.46875 264.96875 L 39.060547 264.96875 z " /><path
     id="path17340"
     style="fill:#34363b;fill-rule:evenodd;stroke-width:0.946336;fill-opacity:1.0"
     d="m 50.780113,296.83658 c -10e-7,7.52429 -4.414215,13.62393 -9.859424,13.62393 -5.445209,0 -12.073832,-6.76396 -12.073833,-14.28825 1e-6,-7.52429 6.628624,-12.95961 12.073833,-12.95961 5.445209,0 9.859423,6.09964 9.859424,13.62393 z"
     sodipodi:nodetypes="sssss" /><path
     id="path17828"
     style="fill:#34363b;fill-opacity:1;fill-rule:evenodd;stroke-width:0.946336"
     d="m 249.21989,296.83658 c -0.0967,5.71859 2.99082,12.89863 9.35206,13.6062 6.67569,-0.0574 11.74173,-6.64589 12.50542,-12.87009 1.06044,-7.54109 -6.23221,-15.71295 -13.98508,-14.08325 -5.47356,1.70342 -7.89187,8.08424 -7.8724,13.34714 z"
     sodipodi:nodetypes="sssss" /><path
     id="path17338"
     style="fill:#1a191d;stroke:none;stroke-width:1.11611;stroke-linecap:round;stroke-linejoin:round;paint-order:markers stroke fill;stop-color:#000000;fill-opacity:1.0;stop-opacity:1.0"
     d="M 52.564453 285.10352 C 52.531689 285.10582 52.496977 285.11722 52.460938 285.13672 C 51.287756 294.17467 47.613082 308.19618 41.785156 308.89258 C 36.363328 309.54045 29.818814 298.73496 26.259766 290.41211 C 26.061992 290.19768 25.863541 289.97721 25.666016 289.74805 C 18.939029 281.94305 32.271403 317.56518 41.986328 316.4043 C 50.638678 315.3704 54.551884 284.9514 52.564453 285.10352 z M 247.43555 285.10352 C 245.44811 284.9514 249.36132 315.3704 258.01367 316.4043 C 267.72859 317.56518 278.50823 279.70868 271.78125 287.51367 C 271.58372 287.74283 271.38527 287.9633 271.1875 288.17773 C 267.62845 296.50059 263.63667 309.54045 258.21484 308.89258 C 252.38692 308.19618 248.71224 294.17467 247.53906 285.13672 C 247.50306 285.11722 247.46835 285.10582 247.43555 285.10352 z " /><path
     id="path17822"
     style="fill:#34363b;fill-opacity:1;fill-rule:evenodd;stroke-width:1.39641"
     d="m 284.05859,263.37293 c 5.08762,-0.61372 10.94863,-2.5235 15.66668,4.99494 L 300,310.51172 c -6.75054,2.43165 -19.79252,-5.88756 -24.82704,-18.14464 -5.22286,-12.77855 -18.97189,-32.45097 -12.20979,-35.67288 0.71273,-0.33911 20.29801,6.7789 21.09542,6.67873 z"
     sodipodi:nodetypes="cccccc" /><path
     id="path17824"
     style="display:inline;fill:#1a191d;fill-opacity:1;stroke:none;stroke-width:1.40077;stroke-linecap:round;stroke-linejoin:round;stroke-opacity:1;paint-order:markers stroke fill;stop-color:#000000;stop-opacity:1"
     d="M 259.64453 271.14453 C 270.63484 292.31838 287.24114 318.12865 298.10742 320.0918 A 36.38 36.38 0 0 0 300 308.61914 L 300 304.96484 C 299.52766 305.21952 299.02713 305.45162 298.47266 305.63867 C 290.79515 308.22873 276.71735 290.42021 264.69922 271.14453 L 259.64453 271.14453 z " /><path
     id="rect18488"
     style="opacity:0.8;fill:#121114;fill-opacity:1;stroke-width:1.34023;stroke-linecap:round;stroke-linejoin:round;paint-order:markers stroke fill;stop-color:#000000;stop-opacity:1"
     class="UnoptimicedTransforms"
     d="m 110.31836,298.39062 c -7.24674,15.47917 -14.49349,30.95833 -21.740235,46.4375 1.852214,0 3.704427,0 5.556641,0 7.246744,-15.47917 14.493494,-30.95833 21.740234,-46.4375 -1.85221,0 -3.70443,0 -5.55664,0 z m 24,0 c -2.69922,15.47917 -5.39844,30.95833 -8.09766,46.4375 1.85221,0 3.70443,0 5.55664,0 2.69922,-15.47917 5.39844,-30.95833 8.09766,-46.4375 -1.85221,0 -3.70443,0 -5.55664,0 z m 29.80664,0 c 2.69922,15.47917 5.39844,30.95833 8.09766,46.4375 1.85221,0 3.70443,0 5.55664,0 -2.69922,-15.47917 -5.39844,-30.95833 -8.09766,-46.4375 -1.85221,0 -3.70443,0 -5.55664,0 z m 24,0 c 7.24674,15.47917 14.49349,30.95833 21.74023,46.4375 1.85222,0 3.70443,0 5.55665,0 -7.24675,-15.47917 -14.49349,-30.95833 -21.74024,-46.4375 -1.85221,0 -3.70443,0 -5.55664,0 z"
     transform="translate(-2)" /><path
     id="path8478"
     style="opacity:0.454;fill:#1a191d;fill-opacity:1;stroke:#1a191d;stroke-width:3.487;stroke-linecap:round;stroke-linejoin:round;stroke-dasharray:none;stroke-opacity:1;paint-order:markers stroke fill;stop-color:#000000"
     d="m 101.68359,249.42773 c -6.019656,-1.13877 -8.164843,16.77356 -11.835505,6.16425 -4.651644,-13.04444 -15.230214,3.39472 -19.058425,8.88522 -9.121693,2.01543 -15.56712,-12.10467 -26.182996,-9.3701 -7.80918,1.56329 -8.401815,11.24266 -7.838265,17.68124 0.561545,11.22037 3.367974,22.16122 6.307773,32.95385 3.131957,-6.63173 1.256481,-14.91134 6.29653,-21.07405 2.472836,-5.48381 15.130299,-13.24437 14.789318,-2.55632 -3.116852,5.38548 -0.01563,15.32428 -9.690891,14.10377 0.764991,5.53546 10.135736,7.13366 7.651243,14.4624 2.636193,7.70073 7.591358,-7.25646 13.26172,-0.7521 6.212484,5.35502 18.160965,1.2067 18.075253,-7.6486 0.668093,-8.65424 -3.590119,-16.60133 -5.625255,-24.70071 0.258859,-8.78561 7.479217,-14.51827 15.98255,-12.60156 9.09736,-0.73951 7.90199,-14.79812 -0.33669,-15.4704 l -1.05222,0.0227 -0.74414,-0.0996 z m 96.63282,0 c -8.24164,-1.30005 -12.36251,12.43501 -3.83131,15.03615 8.08357,-0.16142 16.70535,1.76331 17.55041,11.61584 -0.66131,8.4043 -6.06697,16.16869 -5.58163,24.95976 -0.71217,8.34708 8.7514,13.52285 15.92391,10.37183 4.62802,-4.92403 10.39132,-1.80689 13.70497,2.02776 3.24393,-4.43135 1.01124,-11.81699 8.23184,-13.90657 5.03693,-6.13349 -10.30463,-2.28043 -6.66676,-10.7216 0.0447,-4.42055 -5.09821,-12.61207 3.06405,-12.37928 6.97485,2.80729 11.39708,9.22737 13.62436,16.20386 0.48438,3.74271 1.51867,18.81313 3.79064,8.63322 3.05055,-12.64886 6.79935,-25.92884 4.38678,-38.97466 -2.19412,-10.19834 -14.84079,-7.79842 -21.1612,-3.02743 -4.80205,5.64085 -13.58847,9.07343 -16.25177,-0.49334 -2.88622,-6.51254 -14.49054,-13.24508 -15.20812,-1.76547 -5.0101,8.22565 -5.22715,-9.52077 -11.57617,-7.58007 z M 82.707031,285.44922 c 4.090461,5.20262 -6.767797,17.72594 -7.134265,8.23055 1.474443,-3.51055 5.365204,-4.85231 7.134265,-8.23055 z m 134.585939,0 c 2.69499,2.81504 12.53467,12.19258 3.44685,11.38412 -3.70322,-2.34617 -4.39643,-7.43639 -3.44685,-11.38412 z" /><path
     id="path16249"
     style="fill:#a64307;fill-opacity:1;stroke-width:2.08707;stroke-linecap:round;stroke-linejoin:round;paint-order:markers stroke fill;stop-color:#000000"
     d="m 79.354207,265.46001 c 1.899108,1.11382 3.798215,2.22764 5.697323,3.34146 4.301559,9.17505 8.543112,18.85854 8.353571,29.19922 0.02396,4.61377 -3.259508,9.69997 -8.190918,9.94428 -7.579861,0.51368 -14.643135,-3.06573 -20.950768,-6.86981 -4.058167,-2.37089 -8.135383,-4.77946 -11.775747,-7.7572 -1.654283,-2.24424 1.677623,-2.34039 3.162297,-1.98904 6.798388,0.51488 13.456965,2.41373 20.297299,2.41517 3.295809,-0.0383 6.473952,-2.539 6.751327,-5.93097 0.801037,-7.61956 -1.543342,-15.04669 -3.344384,-22.35311 z"
     sodipodi:nodetypes="cccccccc" /><path
     id="rect16056"
     style="fill:#fa7924;fill-opacity:1;stroke-width:2.08707;stroke-linecap:round;stroke-linejoin:round;paint-order:markers stroke fill;stop-color:#000000"
     d="m 82.463793,277.71496 c -1.604352,-2.90684 -2.649114,-6.38306 -5.617118,-8.24737 -8.39282,-7.34082 -17.075459,-15.0961 -27.964372,-18.39952 -3.874548,-0.96873 -8.879053,0.41268 -10.31794,4.49609 -3.187868,7.68672 -1.658828,16.17375 -0.592234,24.13271 1.338369,7.87944 3.142322,15.6824 5.464405,23.33091 1.924689,0.40283 0.411943,-3.41839 0.978718,-4.63824 0.89341,-7.16135 2.077204,-14.87014 6.967926,-20.52547 3.489028,-4.27391 9.28902,-5.86403 14.623427,-5.33135 5.782428,0.49457 11.259937,2.73126 16.457188,5.18224 z"
     sodipodi:nodetypes="ccccc" /><path
     id="path16253"
     style="fill:#e45909;fill-opacity:1;stroke-width:2.08707;stroke-linecap:round;stroke-linejoin:round;paint-order:markers stroke fill;stop-color:#000000"
     d="m 64.492188,267.20312 c -7.356962,-0.39765 -14.39667,4.46086 -17.282724,11.12702 -1.535448,2.51955 -4.518902,4.9301 -7.630826,3.92087 -2.423648,-1.69038 -0.334565,2.37651 -0.444367,3.55265 1.185992,5.87621 2.535381,11.73321 4.440846,17.42286 1.614109,0.17102 0.278106,-2.94873 0.780833,-4.01848 0.805366,-7.0593 1.826599,-14.56629 6.254195,-20.39258 2.647462,-3.65119 6.915225,-5.95815 11.402947,-6.27373 6.695118,-0.55912 13.210993,1.82379 19.173801,4.62698 2.096951,-0.20875 -0.903378,-2.77287 -1.00414,-4.0027 -1.055793,-2.07031 -2.930991,-3.82819 -5.285046,-4.21438 -3.371387,-1.02862 -6.868895,-1.74107 -10.405519,-1.74851 z" /><path
     id="path18359"
     style="fill:#a64307;fill-opacity:1;stroke-width:1.78905;stroke-linecap:round;stroke-linejoin:round;paint-order:markers stroke fill;stop-color:#000000"
     d="m 71.81249,273.73783 c 3.602804,-7.24313 10.247395,-12.49535 17.405121,-15.97676 2.573367,-1.26464 5.236705,-2.34142 7.948671,-3.27023 1.569982,-1.92181 4.912938,-1.35928 6.009578,0.78839 0.92717,1.53779 0.11813,3.90315 -1.73826,4.22234 -2.721857,0.58072 -5.388686,1.47891 -7.801902,2.88723 -3.424623,1.95937 -6.397508,4.85968 -8.03808,8.48378 -1.645518,1.77007 -1.031321,4.45549 -2.233743,6.43869 -1.536182,1.05536 -3.024109,-0.66533 -4.519151,-0.95221 -2.372822,-0.79519 -4.68109,-1.76658 -7.032234,-2.62123 z"
     sodipodi:nodetypes="czzcc" /><path
     id="path16608"
     style="fill:#fa7f2e;fill-opacity:1;fill-rule:evenodd;stroke-width:0.912268"
     d="m 80.915303,283.54231 c -7.150157,7.6254 -12.088179,17.07919 -15.409305,26.92113 -1.213995,3.83032 -3.11126,-1.03996 -3.268941,-2.87709 -0.525741,-4.7317 -0.466798,-9.52279 -0.532702,-14.28264 -0.07255,-9.75416 1.838032,-19.63782 6.561764,-28.2431 3.833026,-6.8444 8.1766,-13.80396 14.785401,-18.28938 2.954486,-2.48059 6.543167,1.05079 6.689996,4.16889 2.850851,11.43774 -0.82542,24.05635 -8.826213,32.60219 z"
     sodipodi:nodetypes="scssscs" /><path
     id="path8163"
     style="fill:#e45909;fill-opacity:1;fill-rule:evenodd;stroke-width:0.912268"
     d="m 86.21875,246.0625 c 3.295377,12.18494 -1.01032,25.68797 -9.882797,34.47437 -5.860482,6.55591 -10.00046,14.43379 -13.177927,22.58198 -1.484345,2.67875 -1.185854,5.97631 0.551462,8.44165 1.911946,1.81719 1.770861,-2.79287 2.732112,-3.78906 3.291193,-8.47028 7.506354,-16.74373 13.793062,-23.40519 4.171595,-4.54409 7.534528,-9.90012 9.12992,-15.89874 1.795642,-6.45969 1.912779,-13.54032 -0.419305,-19.87757 -0.534707,-1.13983 -1.430917,-2.25772 -2.726527,-2.52744 z" /><path
     id="path8863"
     d="m 220.64579,265.46001 c -1.8991,1.11382 -3.79821,2.22764 -5.69732,3.34146 -4.30156,9.17505 -8.54311,18.85854 -8.35357,29.19922 -0.024,4.61377 3.25951,9.69997 8.19092,9.94428 7.57986,0.51368 14.64313,-3.06573 20.95076,-6.86981 4.05817,-2.37089 8.13539,-4.77946 11.77575,-7.7572 1.65428,-2.24424 -1.67762,-2.34039 -3.1623,-1.98904 -6.79838,0.51488 -13.45696,2.41373 -20.29729,2.41517 -3.29581,-0.0383 -6.47396,-2.539 -6.75133,-5.93097 -0.80104,-7.61956 1.54334,-15.04669 3.34438,-22.35311 z"
     style="fill:#a64307;fill-opacity:1;stroke-width:2.08707;stroke-linecap:round;stroke-linejoin:round;paint-order:markers stroke fill;stop-color:#000000" /><path
     id="path8865"
     d="m 217.53621,277.71496 c 1.62266,-3.09247 2.88102,-6.66914 6.01075,-8.59176 8.35526,-7.30043 17.04578,-15.00306 27.93714,-18.13905 3.91837,-0.87641 8.8557,0.79682 10.09753,4.94091 3.06165,7.85801 1.44418,16.43542 0.3194,24.51028 -1.32476,7.62841 -3.08806,15.18297 -5.33756,22.59244 -2.20127,-0.56562 -0.14505,-3.96135 -1.10662,-5.64865 -0.9122,-7.33119 -2.43032,-15.22802 -7.87996,-20.6468 -4.67829,-4.5324 -11.81988,-5.03401 -17.86353,-3.52591 -4.23741,0.95772 -8.26045,2.66273 -12.17715,4.50854 z"
     style="fill:#fa7924;fill-opacity:1;stroke-width:2.08707;stroke-linecap:round;stroke-linejoin:round;paint-order:markers stroke fill;stop-color:#000000" /><path
     id="path8867"
     d="m 235.50781,267.20312 c 7.25512,-0.37919 14.24892,4.31116 17.14016,10.89184 1.47905,2.51031 4.30218,5.00004 7.42098,4.26814 0.92061,-0.17478 2.07923,-1.51768 1.4419,0.1727 -1.35148,6.97341 -2.82724,13.94594 -5.08597,20.69072 -1.27528,0.93859 -0.56592,-2.34587 -0.73089,-3.15417 -0.0877,-2.30793 -0.5633,-4.58915 -0.8542,-6.88794 -1.07074,-6.69722 -3.41007,-13.84805 -9.15138,-17.97927 -5.32433,-3.65091 -12.28106,-3.18515 -18.19481,-1.41455 -2.99645,0.84699 -5.8767,2.04003 -8.68049,3.37812 -2.17813,0.41766 0.54689,-2.40196 0.6982,-3.38822 1.01994,-2.20235 2.76216,-4.26322 5.265,-4.72831 3.47293,-1.08276 7.08054,-1.84129 10.7315,-1.84906 z"
     style="fill:#e45909;fill-opacity:1;stroke-width:2.08707;stroke-linecap:round;stroke-linejoin:round;paint-order:markers stroke fill;stop-color:#000000" /><path
     id="path8869"
     d="m 228.18751,273.73783 c -3.59924,-7.24637 -10.24997,-12.49158 -17.40512,-15.97676 -2.57339,-1.26466 -5.23669,-2.34141 -7.94867,-3.27023 -1.42224,-1.72347 -4.33196,-1.48954 -5.63543,0.26313 -1.16718,1.29217 -0.97881,3.5494 0.56671,4.44927 1.38546,0.62605 2.96532,0.67025 4.3718,1.27634 5.17396,1.76519 9.96342,5.32702 12.26558,10.393 1.64891,1.76776 1.02917,4.45658 2.23374,6.43869 1.23504,0.93882 2.6119,-0.24206 3.78276,-0.71221 2.62483,-0.83029 5.17639,-1.91893 7.76863,-2.86123 z"
     style="fill:#a64307;fill-opacity:1;stroke-width:1.78905;stroke-linecap:round;stroke-linejoin:round;paint-order:markers stroke fill;stop-color:#000000" /><path
     id="path8871"
     d="m 219.0847,283.54231 c 7.15015,7.6254 12.08818,17.07919 15.4093,26.92113 1.214,3.83032 3.11126,-1.03996 3.26894,-2.87709 0.52574,-4.7317 0.4668,-9.52279 0.5327,-14.28264 0.0726,-9.75416 -1.83803,-19.63782 -6.56176,-28.2431 -3.83303,-6.8444 -8.1766,-13.80396 -14.7854,-18.28938 -2.95449,-2.48059 -6.54317,1.05079 -6.69,4.16889 -2.85085,11.43774 0.82542,24.05635 8.82622,32.60219 z"
     style="fill:#fa7f2e;fill-opacity:1;fill-rule:evenodd;stroke-width:0.912268" /><path
     id="path8873"
     d="m 213.78125,246.0625 c -3.29538,12.18494 1.01032,25.68797 9.8828,34.47437 5.86048,6.55591 10.00046,14.43379 13.17792,22.58198 1.48435,2.67875 1.18586,5.97631 -0.55146,8.44165 -1.91194,1.81719 -1.77086,-2.79287 -2.73211,-3.78906 -3.29119,-8.47028 -7.50635,-16.74373 -13.79306,-23.40519 -4.1716,-4.54409 -7.53453,-9.90012 -9.12992,-15.89874 -1.79564,-6.45969 -1.91278,-13.54032 0.4193,-19.87757 0.53471,-1.13983 1.43092,-2.25772 2.72653,-2.52744 z"
     style="fill:#e45909;fill-opacity:1;fill-rule:evenodd;stroke-width:0.912268" /><path
     id="path9355"
     style="fill:#f9f9f9;fill-opacity:1;fill-rule:evenodd;stroke-width:0.649347"
     d="m 101.45703,121.73242 c -7.540892,4.58 -9.719591,14.76971 -4.867186,22.75977 4.852296,7.98964 14.898356,10.75466 22.439456,6.17578 -9.48648,-7.37687 -16.00036,-16.61207 -17.57227,-28.93555 z m 97.08594,0 c -1.57191,12.32348 -8.08579,21.55868 -17.57227,28.93555 7.5411,4.57888 17.58715,1.81386 22.43946,-6.17578 4.8524,-7.99006 2.6737,-18.17977 -4.86719,-22.75977 z"
     sodipodi:insensitive="true" /></svg>
