<?xml version="1.0" encoding="UTF-8" standalone="no"?>
<svg
   viewBox="0 0 300 345"
   version="1.1"
   id="svg41427"
   sodipodi:docname="deer_2.svg"
   inkscape:version="1.2 (dc2aedaf03, 2022-05-15)"
   xmlns:inkscape="http://www.inkscape.org/namespaces/inkscape"
   xmlns:sodipodi="http://sodipodi.sourceforge.net/DTD/sodipodi-0.dtd"
   xmlns:xlink="http://www.w3.org/1999/xlink"
   xmlns="http://www.w3.org/2000/svg"
   xmlns:svg="http://www.w3.org/2000/svg">
  <sodipodi:namedview
     id="namedview41429"
     pagecolor="#505050"
     bordercolor="#ffffff"
     borderopacity="1"
     inkscape:showpageshadow="0"
     inkscape:pageopacity="0"
     inkscape:pagecheckerboard="1"
     inkscape:deskcolor="#505050"
     showgrid="false"
     inkscape:zoom="0.94627404"
     inkscape:cx="61.293027"
     inkscape:cy="165.91388"
     inkscape:window-width="1366"
     inkscape:window-height="705"
     inkscape:window-x="-8"
     inkscape:window-y="-8"
     inkscape:window-maximized="1"
     inkscape:current-layer="svg41427" />
  <defs
     id="defs41385">
    <inkscape:path-effect
       effect="mirror_symmetry"
       start_point="150,289.72989"
       end_point="150,299.7704"
       center_point="150,294.75014"
       id="path-effect433"
       is_visible="true"
       lpeversion="1.2"
       lpesatellites=""
       mode="free"
       discard_orig_path="false"
       fuse_paths="false"
       oposite_fuse="false"
       split_items="false"
       split_open="false"
       link_styles="false" />
    <inkscape:path-effect
       effect="bspline"
       id="path-effect431"
       is_visible="true"
       lpeversion="1"
       weight="33.333333"
       steps="2"
       helper_size="0"
       apply_no_weight="true"
       apply_with_weight="true"
       only_selected="false" />
    <linearGradient
       id="linearGradient55605"
       x1="262.25"
       y1="237.53"
       x2="277.17999"
       y2="292.04001"
       gradientUnits="userSpaceOnUse">
      <stop
         offset="0"
         stop-color="#ecf7fe"
         stop-opacity=".1"
         id="stop55601"
         style="stop-color:#f8c597;stop-opacity:0;" />
      <stop
         offset="1"
         stop-color="#f27ba5"
         id="stop55603" />
    </linearGradient>
    <inkscape:path-effect
       effect="mirror_symmetry"
       start_point="150,288.82302"
       end_point="150,296.44483"
       center_point="150,292.63392"
       id="path-effect48122"
       is_visible="true"
       lpeversion="1.2"
       lpesatellites=""
       mode="vertical"
       discard_orig_path="false"
       fuse_paths="false"
       oposite_fuse="false"
       split_items="true"
       split_open="false"
       link_styles="false" />
    <linearGradient
       id="A"
       x1="150"
       y1="356.11"
       x2="150"
       y2="161.16"
       gradientUnits="userSpaceOnUse">
      <stop
         offset="0"
         stop-color="#f49849"
         id="stop41380" />
      <stop
         offset=".69"
         stop-color="#d25927"
         id="stop41382" />
    </linearGradient>
    <linearGradient
       id="C"
       x1="42.75"
       y1="230.25"
       x2="19.530001"
       y2="297.5"
       xlink:href="#B"
       gradientTransform="translate(-2.5423699,-9.98473)" />
    <linearGradient
       id="B"
       x1="262.25"
       y1="237.53"
       x2="277.17999"
       y2="292.04001"
       gradientUnits="userSpaceOnUse">
      <stop
         offset="0"
         stop-color="#ecf7fe"
         stop-opacity=".1"
         id="stop55322"
         style="stop-color:#f8c597;stop-opacity:0;" />
      <stop
         offset="1"
         stop-color="#f27ba5"
         id="stop55324" />
    </linearGradient>
    <linearGradient
       inkscape:collect="always"
       xlink:href="#linearGradient55605"
       id="linearGradient55534"
       gradientUnits="userSpaceOnUse"
       x1="262.25"
       y1="237.53"
       x2="277.17999"
       y2="292.04001"
       gradientTransform="translate(-2.5423699,-9.98473)" />
  </defs>
  <g
     id="g55315"
     transform="matrix(-1.0198637,0.32964279,0.2926221,0.90532741,278.41636,-3.1068207)"
     class="UnoptimicedTransforms">
    <path
       id="path55305"
       style="fill:#c2541f;fill-opacity:1;stroke-width:0.23949;stroke-linecap:round;stop-color:#000000"
       d="M 1.1868136,6.1342385 C 2.3574046,3.2036312 5.6402273,0.84197855 8.7742225,0.47209144 37.26661,-2.8906982 66.342005,15.480077 87.843087,34.475549 102.61969,47.530176 117.73233,85.520386 117.73233,85.520386 L 70.067063,114.26483 c 0,0 -37.273798,11.7082 -50.175803,1.05937 C -7.6180173,91.495132 1.5418678,35.742363 1.1868136,6.1342385 Z"
       sodipodi:nodetypes="caacccc" />
    <path
       id="path55307"
       style="opacity:1;fill:#fcc295;fill-opacity:1;stroke-width:0.23949;stroke-linecap:round;stop-color:#000000"
       d="M 1.1835938,6.9394531 C 12.305628,38.100736 -7.381874,91.700253 19.890625,115.32422 c 12.901992,10.64882 50.175781,-1.0586 50.175781,-1.0586 l 7.883013,-4.02479 C 77.017544,94.187853 63.369141,63.898438 63.369141,63.898438 c 0,0 -30.271029,-19.64186 -39.401078,-34.411284 C 20.803915,18.200219 17.991206,4.7603653 1.1835938,6.9394531 Z"
       sodipodi:nodetypes="ccccccc" />
    <path
       id="path55313"
       style="fill:#fc8c6c;fill-opacity:1;fill-rule:evenodd"
       d="M 9.7033845,32.973402 A 52.229477,47.006531 0 0 0 -12.10597,71.046957 52.229477,47.006531 0 0 0 27.224456,116.50522 c 2.325823,-15.0041 2.658302,-31.618949 2.658302,-31.618949 0,0 -18.936008,-30.717379 -20.8580247,-47.974231 0.2212626,-1.293378 0.4551774,-2.614184 0.6786512,-3.938638 z"
       transform="rotate(-25.367968)" />
    <path
       class="cls-10"
       d="m 71.29299,89.167338 a 53.666413,53.666413 0 0 0 -3.591462,-9.852507 44.32574,44.32574 0 0 0 -5.233991,-8.71476 45.801958,45.801958 0 0 0 -6.950135,-6.90613 c -0.600164,-0.49323 -1.215143,-0.997498 -1.937311,-1.51251 -0.722169,-0.515012 -1.350074,-1.017391 -2.066577,-1.493623 L 47.162496,57.745593 C 41.311951,53.847429 35.308895,49.628281 30.591904,43.729349 a 32.659696,32.659696 0 0 1 -5.569827,-9.748305 27.434145,27.434145 0 0 1 -1.39249,-10.886715 56.867063,56.867063 0 0 0 4.803199,9.200181 45.645192,45.645192 0 0 0 6.513985,7.445145 c 4.695883,4.48934 10.510545,8.141898 16.182886,12.356553 1.47019,1.026247 2.857449,2.117421 4.298303,3.213968 0.713019,0.542754 1.481522,1.103807 2.122647,1.696672 0.359342,0.290767 0.714908,0.555681 1.0651,0.87419 l 1.067283,0.979491 a 31.131223,31.131223 0 0 1 6.628638,9.223943 48.480053,48.480053 0 0 1 4.981362,21.082866 z"
       id="path55309"
       style="fill:#9a411d;fill-opacity:1;stroke-width:1.30639" />
    <path
       id="path55311"
       style="opacity:1;fill:#c2541f;fill-opacity:1;stroke-width:0.4;stroke-linecap:round;stop-color:#000000"
       d="m 3.0653597,53.238281 c 0.3191097,23.884269 0.9223984,48.310569 16.8252653,62.085939 6.12504,5.05538 17.729215,5.05482 28.244141,3.67773 l 3.61914,-1.92773 C 18.059158,111.40589 6.0315638,87.346793 3.0653597,53.238281 Z"
       sodipodi:nodetypes="ccccc" />
  </g>
  <path
     d="M263.62,345H36.38A36.38,36.38,0,0,1,0,308.62V259.14H300v49.48A36.38,36.38,0,0,1,263.62,345Z"
     fill="url(#A)"
     id="path41387" />
  <path
     d="M150 58.62C57.42 58.62 0 112.16 0 195v67a36.38 36.38 0 0 0 36.38 36.38h227.24A36.38 36.38 0 0 0 300 262v-67c0-82.84-57.42-136.38-150-136.38z"
     fill="#f49849"
     id="path41389" />
  <g
     id="g55299"
     transform="matrix(1.0198637,0.32964279,-0.2926221,0.90532741,21.583641,-3.1068207)"
     class="UnoptimicedTransforms">
    <path
       id="rect52491"
       style="fill:#c2541f;fill-opacity:1;stroke-width:0.23949;stroke-linecap:round;stop-color:#000000"
       d="M 1.1868136,6.1342385 C 2.3574046,3.2036312 5.6402273,0.84197855 8.7742225,0.47209144 37.26661,-2.8906982 66.342005,15.480077 87.843087,34.475549 102.61969,47.530176 117.73233,85.520386 117.73233,85.520386 L 70.067063,114.26483 c 0,0 -37.273798,11.7082 -50.175803,1.05937 C -7.6180173,91.495132 1.5418678,35.742363 1.1868136,6.1342385 Z"
       sodipodi:nodetypes="caacccc" />
    <path
       id="path53979"
       style="opacity:1;fill:#fcc295;fill-opacity:1;stroke-width:0.23949;stroke-linecap:round;stop-color:#000000"
       d="M 1.1835938,6.9394531 C 12.305628,38.100736 -7.381874,91.700253 19.890625,115.32422 c 12.901992,10.64882 50.175781,-1.0586 50.175781,-1.0586 l 7.883013,-4.02479 C 77.017544,94.187853 63.369141,63.898438 63.369141,63.898438 c 0,0 -30.271029,-19.64186 -39.401078,-34.411284 C 20.803915,18.200219 17.991206,4.7603653 1.1835938,6.9394531 Z"
       sodipodi:nodetypes="ccccccc" />
    <path
       id="path55151"
       style="fill:#fc8c6c;fill-opacity:1;fill-rule:evenodd"
       d="M 9.7033845,32.973402 A 52.229477,47.006531 0 0 0 -12.10597,71.046957 52.229477,47.006531 0 0 0 27.224456,116.50522 c 2.325823,-15.0041 2.658302,-31.618949 2.658302,-31.618949 0,0 -18.936008,-30.717379 -20.8580247,-47.974231 0.2212626,-1.293378 0.4551774,-2.614184 0.6786512,-3.938638 z"
       transform="rotate(-25.367968)" />
    <path
       class="cls-10"
       d="m 71.29299,89.167338 a 53.666413,53.666413 0 0 0 -3.591462,-9.852507 44.32574,44.32574 0 0 0 -5.233991,-8.71476 45.801958,45.801958 0 0 0 -6.950135,-6.90613 c -0.600164,-0.49323 -1.215143,-0.997498 -1.937311,-1.51251 -0.722169,-0.515012 -1.350074,-1.017391 -2.066577,-1.493623 L 47.162496,57.745593 C 41.311951,53.847429 35.308895,49.628281 30.591904,43.729349 a 32.659696,32.659696 0 0 1 -5.569827,-9.748305 27.434145,27.434145 0 0 1 -1.39249,-10.886715 56.867063,56.867063 0 0 0 4.803199,9.200181 45.645192,45.645192 0 0 0 6.513985,7.445145 c 4.695883,4.48934 10.510545,8.141898 16.182886,12.356553 1.47019,1.026247 2.857449,2.117421 4.298303,3.213968 0.713019,0.542754 1.481522,1.103807 2.122647,1.696672 0.359342,0.290767 0.714908,0.555681 1.0651,0.87419 l 1.067283,0.979491 a 31.131223,31.131223 0 0 1 6.628638,9.223943 48.480053,48.480053 0 0 1 4.981362,21.082866 z"
       id="path51946"
       style="fill:#9a411d;fill-opacity:1;stroke-width:1.30639" />
    <path
       id="rect53985"
       style="opacity:1;fill:#c2541f;fill-opacity:1;stroke-width:0.4;stroke-linecap:round;stop-color:#000000"
       d="m 3.0653597,53.238281 c 0.3191097,23.884269 0.9223984,48.310569 16.8252653,62.085939 6.12504,5.05538 17.729215,5.05482 28.244141,3.67773 l 3.61914,-1.92773 C 18.059158,111.40589 6.0315638,87.346793 3.0653597,53.238281 Z"
       sodipodi:nodetypes="ccccc" />
  </g>
  <path
     id="path49569"
     style="fill:#c2541f;fill-opacity:1;stroke-width:5.16688;stroke-linecap:round;stop-color:#000000"
     class="UnoptimicedTransforms"
     d="m 147.05492,58.619141 c -73.602407,0 -124.532445,35.201832 -141.1739055,92.673829 16.3537235,-12.83583 50.8663995,-20.74834 60.6522075,1.98871 14.120063,32.80758 35.957718,38.53774 45.158798,66.31988 h 35.3629 35.3629 c 9.20108,-27.78214 31.03874,-33.5123 45.15879,-66.31988 9.78582,-22.73705 44.29849,-14.82454 60.65221,-1.98871 -16.64146,-57.471997 -67.5715,-92.673829 -141.1739,-92.673829 z"
     transform="matrix(1.0198387,0,0,1,0.02770443,0)"
     sodipodi:nodetypes="scscccscs" />
  <path
     id="circle43196"
     style="fill:#fcc295;fill-opacity:1;stroke-width:1.39218"
     class="cls-5 UnoptimicedTransforms"
     d="m 55.566406,131.02148 a 43.166817,59.653542 0 0 0 -43.166015,59.65235 43.166817,59.653542 0 0 0 43.166015,59.65429 43.166817,59.653542 0 0 0 43.166016,-59.65429 43.166817,59.653542 0 0 0 -43.166016,-59.65235 z m 188.867184,0 a 43.166817,59.653542 0 0 0 -43.16601,59.65235 43.166817,59.653542 0 0 0 43.16601,59.65429 43.166817,59.653542 0 0 0 43.16602,-59.65429 43.166817,59.653542 0 0 0 -43.16602,-59.65235 z"
     transform="translate(0,8)" />
  <path
     d="M94.5 298.4h111.27s25.92-98.33-55.78-98.33-55.78 98.33-55.78 98.33z"
     fill="#fcc295"
     id="path41391" />
  <path
     d="M94.22 298.4h111.56V345H94.22z"
     fill="#f7aa74"
     id="path41393" />
  <path
     d="M119.77 77.46l-18.24 40.42s30.57 4.35 49.85-19.22l-1.3 31.28s39.43-10.75 39.43-45"
     fill="#f49849"
     id="path41417"
     style="fill:#c2541f;fill-opacity:1" />
  <g
     id="g55576"
     transform="translate(2.5423641)">
    <ellipse
       cx="269.08765"
       cy="261.83527"
       rx="17.59"
       ry="13.87"
       fill="url(#B)"
       id="ellipse55338"
       style="fill:url(#linearGradient55534)" />
    <ellipse
       cx="25.827625"
       cy="261.83527"
       rx="17.59"
       ry="13.87"
       fill="url(#C)"
       id="ellipse55340"
       style="fill:url(#C)" />
  </g>
  <circle
     class="cls-5"
     cx="55.566372"
     cy="217.16124"
     r="36.450001"
     id="circle41753"
     style="fill:#f7aa74;fill-opacity:1" />
  <circle
     class="cls-6"
     cx="55.566372"
     cy="227.28125"
     r="36.450001"
     id="circle41757"
     style="fill:#ffffff" />
  <path
     class="cls-7"
     d="m 88.260344,219.64253 a 18.037318,18.037318 0 0 1 -26.190849,-24.44875 31.903062,31.903062 0 0 0 -4.408596,-0.30813 31.274956,31.274956 0 1 0 30.599445,24.75688 z m -43.777827,26.96116 a 7.4424677,7.4424677 0 1 1 7.442468,-7.44246 7.4424677,7.4424677 0 0 1 -7.442468,7.44246 z"
     id="path41759"
     style="fill:#414042;stroke-width:1.18511" />
  <path
     class="cls-5"
     id="path43185"
     d="m 207.98363,217.16124 a 36.450001,36.450001 0 0 0 36.45,36.45 36.450001,36.450001 0 0 0 36.45,-36.45 36.450001,36.450001 0 0 0 -36.45,-36.45 36.450001,36.450001 0 0 0 -36.45,36.45 z"
     style="fill:#f7aa74;fill-opacity:1" />
  <path
     class="cls-6"
     id="path43187"
     d="m 207.98363,227.28125 a 36.450001,36.450001 0 0 0 36.45,36.45 36.450001,36.450001 0 0 0 36.45,-36.45 36.450001,36.450001 0 0 0 -36.45,-36.45 36.450001,36.450001 0 0 0 -36.45,36.45 z"
     style="fill:#ffffff" />
  <path
     class="cls-7"
     id="path43189"
     d="m 272.91605,219.64253 a 18.037318,18.037318 0 0 1 -26.19084,-24.44875 31.903062,31.903062 0 0 0 -4.4086,-0.30813 31.274956,31.274956 0 1 0 30.59944,24.75688 z m -43.77782,26.96116 a 7.4424677,7.4424677 0 1 1 7.44247,-7.44246 7.4424677,7.4424677 0 0 1 -7.44247,7.44246 z"
     style="fill:#414042;stroke-width:1.18511" />
  <path
     d="m 131.00243,296.44483 74.76757,1.16871 c 0,0 -23.86093,19.64834 -55.77,19.64834 -31.90903,0 -55.79,-19.64834 -55.79,-19.64834 z"
     fill="#fcc295"
     id="path48116"
     inkscape:transform-center-y="10.570597"
     style="stroke-width:0.292548"
     sodipodi:nodetypes="ccscc"
     inkscape:transform-center-x="-1.3040515e-06" />
  <path
     d="m 175.68277,290.09395 c -21.84119,7.07856 -25.10816,-9.91378 -25.59682,-15.15551 C 150,274.01649 150,256.239 150,256.239 c 0,0 0,18.12179 -0.17678,19.5266 -0.75253,5.98032 -4.70864,21.05945 -25.506,14.32835"
     fill="none"
     stroke="#414042"
     stroke-linecap="round"
     stroke-miterlimit="10"
     stroke-width="6.78093"
     id="path352"
     sodipodi:nodetypes="cscsc"
     style="stroke:#2e2e2e;stroke-opacity:1" />
  <path
     d="m 120.91917,78.617849 a 126.86,126.86 0 0 1 -3.24,10.7 l -3.8,10.45 c -1.32,3.450001 -2.73,6.880001 -4.23,10.260001 -1.5,3.38 -3.06,6.73 -4.85,10 l -1.8,-3.27 a 50.42,50.42 0 0 0 6.57,0.28 65,65 0 0 0 6.69,-0.47 60,60 0 0 0 13,-3.1 55.82,55.82 0 0 0 6.09,-2.66 48.82,48.82 0 0 0 15.37,-12.440001 l 4.42,-5.37 -0.3,6.92 -1.3,31.240001 -2.95,-2.36 c 2.3,-0.82 4.74,-1.9 7,-3 2.26,-1.1 4.6,-2.3 6.82,-3.62 a 62.86,62.86 0 0 0 12.18,-9.18 43.26,43.26 0 0 0 8.85,-12.16 67.88,67.88 0 0 0 5.21,-14.680001 27.71,27.71 0 0 1 0.63,8.24 18.3,18.3 0 0 1 -0.23,2.09 c -0.1,0.7 -0.2,1.4 -0.33,2.08 a 31.93,31.93 0 0 1 -1.18,4.060001 32.75,32.75 0 0 1 -1.66,3.91 c -0.68,1.24 -1.35,2.5 -2.14,3.67 a 42.69,42.69 0 0 1 -5.22,6.66 56.62,56.62 0 0 1 -13.23,10.24 65.41,65.41 0 0 1 -7.48,3.65 53.49,53.49 0 0 1 -8,2.61 l -3.08,0.87 1.42,-34.520001 4.15,1.580001 a 54.12,54.12 0 0 1 -10.59,9.86 55.44,55.44 0 0 1 -6.21,3.76 61,61 0 0 1 -6.64,2.91 64.66,64.66 0 0 1 -14,3.33 66.46,66.46 0 0 1 -7.18,0.51 h -3.62 c -1.2,0 -2.37,-0.12 -3.7,-0.28 l -2.910003,-0.23 1.100003,-3 c 1.25,-3.5 2.72,-6.88 4.27,-10.24 1.55,-3.36 3.2,-6.67 4.9,-10.000001 1.7,-3.33 3.43,-6.58 5.33,-9.76 1.9,-3.18 3.76,-6.44 5.87,-9.54 z"
     id="path50876"
     style="fill:#9a411d;fill-opacity:1" />
  <path
     id="path51393"
     style="fill:#ffdfdf;fill-opacity:1;fill-rule:evenodd;stroke-width:0.86314"
     class="UnoptimicedTransforms"
     d="m 74.554688,77.664062 c -6.128036,-0.06496 -11.0131,2.407365 -12.289063,6.847657 -1.855945,6.458599 0.319114,13.048246 10.167969,16.671871 9.848851,3.62364 18.808115,3.17346 20.664062,-3.285152 1.855947,-6.458604 0.210189,-14.895904 -9.638672,-18.519532 -3.077766,-1.132382 -6.118826,-1.685314 -8.904296,-1.714844 z m 150.890622,0 c -2.78547,0.02953 -5.82653,0.582462 -8.90429,1.714844 -9.84886,3.623628 -11.49462,12.060928 -9.63868,18.519532 1.85595,6.458612 10.81522,6.908792 20.66407,3.285152 9.84885,-3.623625 12.02391,-10.213272 10.16797,-16.671871 -1.27597,-4.440292 -6.16103,-6.912626 -12.28907,-6.847657 z M 46.775391,97.501953 c -3.632511,0.05551 -7.47507,1.605665 -8.716797,4.505857 -1.762394,4.11628 2.335811,9.88339 6.36914,11.82813 3.948984,1.90407 10.91539,1.55477 12.94336,-2.33203 2.229268,-4.27263 -1.669061,-11.10078 -6.03711,-13.136722 -1.299766,-0.60582 -2.907453,-0.890466 -4.558593,-0.865235 z m 206.449219,0 c -1.65114,-0.02523 -3.25883,0.259415 -4.55859,0.865235 -4.36805,2.035942 -8.26638,8.864092 -6.03711,13.136722 2.02797,3.8868 8.99437,4.2361 12.94336,2.33203 4.03332,-1.94474 8.13153,-7.71185 6.36914,-11.82813 -1.24173,-2.900192 -5.08429,-4.450347 -8.7168,-4.505857 z M 75.986328,110.73828 c -1.943759,0.0379 -3.938467,0.71791 -5.164062,1.9043 -1.809882,1.75198 -2.125774,5.55537 -0.56836,7.53515 2.060503,2.61932 7.290897,3.73125 9.867188,1.61719 2.465912,-2.02349 2.58961,-7.31873 0.324218,-9.56445 -1.068883,-1.0596 -2.743903,-1.52563 -4.458984,-1.49219 z m 148.027342,0 c -1.71508,-0.0334 -3.3901,0.43259 -4.45898,1.49219 -2.26539,2.24572 -2.1417,7.54096 0.32422,9.56445 2.57629,2.11406 7.80668,1.00213 9.86718,-1.61719 1.55742,-1.97978 1.24153,-5.78317 -0.56836,-7.53515 -1.22559,-1.18639 -3.2203,-1.8664 -5.16406,-1.9043 z"
     transform="translate(0,6)" />
  <path
     id="rect42036"
     style="fill:#2e2e2e;stroke-width:4.004;stroke-linecap:round;stop-color:#000000"
     d="m 135.03982,233.25663 h 29.92035 c 5.75082,0 10.38054,4.62972 10.38054,10.38053 v 4.88496 c 0,5.75081 -4.62972,20.76106 -25.34071,20.76106 -20.71099,0 -25.34071,-15.01025 -25.34071,-20.76106 v -4.88496 c 0,-5.75081 4.62972,-10.38053 10.38053,-10.38053 z"
     sodipodi:nodetypes="sssscsss" />
</svg>
