<?xml version="1.0" encoding="UTF-8" standalone="no"?>
<svg
   id="Layer_1"
   data-name="Layer 1"
   viewBox="0 0 300 345"
   version="1.1"
   sodipodi:docname="Dolphin_2_edit2.svg"
   xml:space="preserve"
   inkscape:version="1.2 (dc2aedaf03, 2022-05-15)"
   inkscape:export-filename="Dolphin_2_edit2.png"
   inkscape:export-xdpi="96"
   inkscape:export-ydpi="96"
   xmlns:inkscape="http://www.inkscape.org/namespaces/inkscape"
   xmlns:sodipodi="http://sodipodi.sourceforge.net/DTD/sodipodi-0.dtd"
   xmlns="http://www.w3.org/2000/svg"
   xmlns:svg="http://www.w3.org/2000/svg"><sodipodi:namedview
     id="namedview207"
     pagecolor="#505050"
     bordercolor="#ffffff"
     borderopacity="1"
     inkscape:showpageshadow="0"
     inkscape:pageopacity="0"
     inkscape:pagecheckerboard="1"
     inkscape:deskcolor="#505050"
     showgrid="false"
     inkscape:zoom="1.2782552"
     inkscape:cx="30.901498"
     inkscape:cy="197.14373"
     inkscape:window-width="1366"
     inkscape:window-height="705"
     inkscape:window-x="-8"
     inkscape:window-y="-8"
     inkscape:window-maximized="1"
     inkscape:current-layer="Layer_1" /><defs
     id="defs139"><inkscape:path-effect
       effect="bspline"
       id="path-effect11054"
       is_visible="true"
       lpeversion="1"
       weight="33.333333"
       steps="2"
       helper_size="0"
       apply_no_weight="true"
       apply_with_weight="true"
       only_selected="false" /><inkscape:path-effect
       effect="fillet_chamfer"
       id="path-effect7615"
       is_visible="false"
       lpeversion="1"
       nodesatellites_param="F,0,0,1,0,6.9584584,0,1 @ F,0,0,1,0,9.3190537,0,1 @ F,0,0,1,0,0,0,1 @ F,0,0,1,0,0,0,1 @ F,0,0,1,0,0,0,1 @ F,0,0,1,0,0,0,1 @ F,0,0,1,0,0,0,1 @ F,0,0,1,0,0,0,1 @ F,0,0,1,0,0,0,1 @ F,0,0,1,0,0,0,1 @ F,0,0,1,0,0,0,1 | F,0,0,1,0,0,0,1 @ F,0,0,1,0,0,0,1 @ F,0,0,1,0,0,0,1 @ F,0,0,1,0,0,0,1 @ F,0,0,1,0,0,0,1 @ F,0,0,1,0,0,0,1 @ F,0,0,1,0,0,0,1 @ F,0,0,1,0,0,0,1"
       unit="px"
       method="auto"
       mode="F"
       radius="0"
       chamfer_steps="1"
       flexible="false"
       use_knot_distance="true"
       apply_no_radius="true"
       apply_with_radius="true"
       only_selected="false"
       hide_knots="false" /><inkscape:path-effect
       effect="mirror_symmetry"
       start_point="281.62,240.82"
       end_point="281.62,249.97937"
       center_point="281.62,245.39968"
       id="path-effect3472"
       is_visible="true"
       lpeversion="1.2"
       lpesatellites="#path3474"
       mode="vertical"
       discard_orig_path="false"
       fuse_paths="false"
       oposite_fuse="false"
       split_items="true"
       split_open="false"
       link_styles="false" /><style
       id="style132">.cls-1{fill:url(#linear-gradient);}.cls-2{fill:#9bd4ee;}.cls-3{fill:#416eb5;}.cls-4{fill:#15141a;}.cls-5{fill:#fff;}.cls-6{fill:#3d5d80;}.cls-7{fill:#1e4059;}.cls-8{fill:#fbf0ee;}.cls-9{fill:#c4ada9;}.cls-10{fill:#4c0000;}.cls-11{fill:#280e0e;}.cls-12{fill:#cf1f3d;}.cls-13,.cls-14{fill:none;stroke-linecap:round;stroke-miterlimit:10;stroke-width:6px;}.cls-13{stroke:#1a4687;}.cls-14{stroke:#032657;}.cls-15{fill:#182a38;}</style><linearGradient
       id="linear-gradient"
       x1="150"
       y1="356.11"
       x2="150"
       y2="161.16"
       gradientUnits="userSpaceOnUse"><stop
         offset="0.07"
         stop-color="#416eb5"
         id="stop134" /><stop
         offset="0.54"
         stop-color="#032657"
         id="stop136" /></linearGradient></defs><path
     class="cls-1"
     d="M 263.62,345 H 36.38 A 36.38,36.38 0 0 1 0,308.62 v -49.48 h 300 v 49.48 A 36.38,36.38 0 0 1 263.62,345 Z"
     id="path141"
     style="fill:url(#linear-gradient)" /><rect
     class="cls-2"
     y="45"
     width="300"
     height="253.39"
     rx="36.380001"
     id="rect143"
     x="0" /><rect
     class="cls-3"
     y="211"
     width="300"
     height="87.389999"
     rx="36.380001"
     id="rect145"
     x="0" /><path
     class="cls-13"
     d="m 18.38,274.82 3.82,3.39 a 23,23 0 0 0 30.46,0 l 3.83,-3.39 3.83,3.39 a 23,23 0 0 0 30.46,0 l 3.82,-3.39 3.83,3.39 a 23,23 0 0 0 30.46,0 l 3.83,-3.39"
     id="path187" /><path
     class="cls-13"
     d="m 167.28,274.82 3.82,3.39 a 23,23 0 0 0 30.47,0 l 3.82,-3.39 3.83,3.39 a 23,23 0 0 0 30.46,0 l 3.82,-3.39 3.83,3.39 a 23,23 0 0 0 30.46,0 l 3.83,-3.39"
     id="path189" /><path
     class="cls-14"
     d="m 92.83,318.21 3.82,3.38 a 23,23 0 0 0 30.46,0 l 3.83,-3.39 3.83,3.39 a 23,23 0 0 0 30.46,0 l 3.82,-3.39 3.83,3.39 a 23,23 0 0 0 30.46,0 l 3.83,-3.39"
     id="path191" /><path
     class="cls-3"
     d="m 265.5614,201.00188 c -5.77,6 -15.48,4.55 -15.48,4.55 0,0 -1.9,-9.64 3.88,-15.67 a 8.0345255,8.0345255 0 1 1 11.6,11.12 z"
     id="path197" /><path
     class="cls-3"
     d="m 282.2114,206.85188 c -5,2.49 -10.87,-0.68 -10.87,-0.68 0,0 1,-6.55 6.07,-9 a 5.4202952,5.4202952 0 1 1 4.8,9.72 z"
     id="path199" /><path
     id="rect1018"
     style="opacity:1;fill:#4e7197;fill-opacity:1;stroke-width:1.17516;stroke-linecap:round;paint-order:stroke fill markers;stop-color:#000000"
     d="m 178.45792,49.495043 c -17.89262,-0.300386 -29.30297,8.469984 -37.81242,20.25375 -0.18572,-0.0031 -0.37172,-0.01474 -0.55738,-0.0167 -31.55457,-0.332892 -62.677383,15.090679 -80.564099,47.624067 -7.533978,13.70325 -4.61425,40.63694 3.165444,58.00213 l -3.526901,6.34339 c -8.404798,15.11664 -11.948449,31.7953 -7.801,37.14869 3.9313,3.71432 21.828303,3.49426 34.664352,-10.98068 5.00551,-5.64466 10.006481,-13.53125 13.692469,-21.46455 4.276265,-3.54609 10.382575,-8.12847 17.585825,-12.19986 8.47139,14.5681 22.87699,26.79756 42.94162,22.5668 5.10736,-1.07692 6.3863,-6.22186 3.16269,-10.33772 l -9.60289,-12.26039 1.35275,-9.43797 c 0.70501,0.0843 1.40959,0.12971 2.11473,0.25051 31.889,5.4631 37.89853,45.98096 31.37431,78.12161 -3.07684,15.1576 42.27198,16.90096 47.16899,4.43404 7.73777,-19.69915 10.89862,-67.67911 0.90392,-101.25624 -8.5484,-28.71829 -25.97212,-49.665112 -46.98736,-62.320672 l -2.55312,-13.955506 4.81606,-5.772173 c 4.84399,-5.804214 2.96941,-12.64232 -4.47996,-13.884528 -3.19319,-0.532474 -6.20816,-0.810153 -9.05803,-0.857998 z"
     sodipodi:nodetypes="sccscscsccsccccssscccss" /><path
     id="path6605"
     style="opacity:1;fill:#fbf0ee;fill-opacity:1;stroke-width:1.17516;stroke-linecap:round;paint-order:stroke fill markers;stop-color:#000000"
     d="m 162.24414,147.38672 c -1.91514,-0.0205 -3.46039,0.74678 -4.34961,2.66797 -1.23088,2.65935 -1.99704,7.72083 -2.73633,14.68164 0.70501,0.0843 1.4101,0.1292 2.11524,0.25 4.82844,0.82719 9.05405,2.47014 12.74218,4.7539 0.009,0.003 0.0208,0.005 0.0293,0.008 0.0223,0.0143 0.0422,0.0306 0.0645,0.0449 5.63108,3.51184 9.97469,8.5537 13.21093,14.57812 0.15732,0.29042 0.30744,0.58491 0.45899,0.87891 0.28909,0.56523 0.5695,1.13756 0.83984,1.71875 0.20897,0.44629 0.41644,0.8926 0.61328,1.3457 0.0957,0.22148 0.18423,0.44835 0.27735,0.67188 1.41064,3.36972 2.50093,6.90376 3.32031,10.51367 0.0331,0.14495 0.0673,0.28818 0.0996,0.43359 0.39387,1.78438 0.72293,3.58157 0.99414,5.38477 0.0444,0.29245 0.0854,0.58516 0.12695,0.87891 0.24022,1.71589 0.43313,3.42942 0.57617,5.13671 0.13079,1.55193 0.19754,3.1201 0.25586,4.69141 0.0204,0.54163 0.0776,1.09756 0.0898,1.63477 0.003,0.10619 10e-4,0.21217 0.004,0.31836 0.002,0.11463 0.002,0.22906 0.004,0.34375 0.0607,2.70974 -0.039,5.41349 -0.20703,8.11328 -0.21639,3.75072 -0.59289,7.48451 -1.15625,11.14843 -0.33599,2.30892 -0.71161,4.61258 -1.11914,6.90625 0.30939,2.51616 1.47668,4.41549 3.13867,5.87305 2.17116,1.76078 5.32409,3.0897 8.96094,3.99805 0.005,0.001 0.0104,0.003 0.0156,0.004 0.83621,0.19512 1.66548,0.35676 2.48047,0.50782 0.16139,0.0303 0.31972,0.063 0.48242,0.0918 0.66077,0.11808 1.29425,0.22208 1.91602,0.32227 0.51159,0.0698 1.03882,0.10863 1.55859,0.16406 2.66478,0.21346 5.42062,0.33855 8.18945,0.28711 4.74254,-0.17236 9.28587,-0.92786 12.95704,-2.27148 2.2414,-0.90284 4.34985,-2.12148 6.24804,-3.75391 0.33124,-0.40895 0.63491,-0.83464 0.90821,-1.26172 0.17323,-0.29597 0.33955,-0.59421 0.46289,-0.9082 0.26717,-0.68018 0.51362,-1.4729 0.76953,-2.21875 0.13715,-1.58893 -0.93439,-2.49099 -4.25782,-1.31836 -15.88173,2.43653 -29.67903,-22.9682 -27.9082,-34.48633 0.42303,-18.8955 -9.23998,-37.93961 -22.72656,-50.57812 -4.63417,-4.34276 -13.70379,-11.49303 -19.44922,-11.55469 z m -44.0293,15.25586 c -7.51213,4.42867 -16.98527,7.54876 -21.845699,14.98242 -4.871316,13.99124 -22.243565,23.45807 -36.991986,28.32133 -3.017744,0.99509 -6.995544,0.38066 -9.53145,-0.1561 -1.988416,4.17197 -0.866598,8.83174 0.849607,11.93243 0.962677,1.28274 2.269087,2.1225 3.78711,2.60937 0.007,0.002 0.01444,0.004 0.02148,0.006 0.178732,0.0569 0.368838,0.0927 0.552735,0.14063 2.060246,0.4352 4.708692,0.52829 7.689453,0.14257 1.8449,-0.27083 3.61727,-0.68082 5.11914,-1.07421 3.108553,-0.9076 6.385109,-2.3539 9.607422,-4.39844 3.34293,-2.16723 6.326612,-4.83925 9.007813,-7.84375 3.204782,-3.70142 6.361539,-8.28639 9.185547,-13.19531 0.467307,-0.82745 0.962205,-1.64544 1.40625,-2.47852 0.928708,-1.74237 1.808851,-3.49249 2.646484,-5.22656 1.867514,-1.54863 4.138074,-3.30996 6.642584,-5.125 2.59794,-2.10282 5.24868,-4.13915 7.74219,-5.14453 1.05681,-0.64705 2.0894,-1.3013 3.20117,-1.92969 0.59873,1.02963 1.23465,2.04364 1.89258,3.04492 z"
     sodipodi:nodetypes="cscscccccccccccccccccccccccccccccccscccsscccacssccccccsccccccc" /><path
     id="rect12464"
     style="opacity:1;fill:#4e7197;fill-opacity:1;stroke-width:1.46752;stroke-linecap:round;paint-order:stroke fill markers;stop-color:#000000"
     d="m 222.50026,218.14795 c 16.20846,2.59365 33.83848,9.97314 48.23417,30.69446 l 0.73082,13.15478 h -48.23418 z"
     sodipodi:nodetypes="ccccc" /><path
     id="path12571"
     style="opacity:1;fill:#fbf0ee;fill-opacity:1;stroke-width:1.1619;stroke-linecap:round;paint-order:stroke fill markers;stop-color:#000000"
     d="m 203.05926,218.14795 c -10.16053,2.59365 -21.21218,9.97314 -30.23635,30.69446 l -0.45811,13.15478 h 30.23633 z"
     sodipodi:nodetypes="ccccc" /><path
     id="path16465"
     style="opacity:1;fill:#374f91;fill-opacity:1;stroke-width:2.63211;stroke-linecap:round;paint-order:stroke fill markers;stop-color:#000000"
     d="m 131.50371,153.92214 c -5.95576,3.05344 -17.55296,10.03284 -23.66461,15.62158 l -1.20664,0.24215 c -3.08544,0.61712 3.2341,4.61692 6.04565,7.20843 0.62181,-0.39319 1.28796,-0.77581 1.93102,-1.16488 2.60727,-8.16663 10.88061,-16.96434 16.89458,-21.90728 z"
     sodipodi:nodetypes="cccccc" /><path
     id="rect9416"
     style="opacity:1;fill:#bfb1ae;fill-opacity:1;stroke:none;stroke-width:1.33429;stroke-linecap:round;paint-order:stroke fill markers;stop-color:#000000"
     d="m 162.24573,147.38609 c -1.91514,-0.0205 -3.4613,0.74673 -4.35053,2.66793 -1.23088,2.65935 -1.99753,7.72117 -2.73682,14.68198 2.5911,2.97769 12.50142,4.9248 16.35554,6.27141 7.33975,4.17082 19.33225,31.98348 18.54728,36.19018 4.83571,-10.36766 13.64372,0.83427 14.35793,2.32129 0.42302,-18.89551 -9.23888,-37.93951 -22.72545,-50.57803 -4.63417,-4.34274 -13.70252,-11.4931 -19.44795,-11.55476 z m -44.03134,15.25606 c -6.49325,3.82801 -14.44533,6.6839 -19.623305,12.18733 2.310225,4.16787 0.98818,9.01678 0,13.80311 0.37285,-0.74302 0.77023,-1.48828 1.1273,-2.22745 5.628575,-3.46346 13.102035,-11.51037 18.397885,-10.84084 0.34342,0.59692 0.71643,1.1805 1.08763,1.7661 z"
     sodipodi:nodetypes="ssccccssccccccc" /><path
     id="rect9822"
     style="opacity:1;fill:#416eb5;stroke-width:1.02298;stroke-linecap:round;paint-order:stroke fill markers;stop-color:#000000"
     d="m 165.68703,243.95999 c 8.32282,7.50373 33.37307,5.96756 38.38887,-1.33996 11.61649,12.80996 26.15714,8.80111 38.61693,-0.50992 14.38246,5.60463 28.50456,15.6955 32.0297,-1.05411 l 19.60686,25.86438 -134.49727,-3.53553 z"
     sodipodi:nodetypes="ccccccc" /><path
     class="cls-13 UnoptimicedTransforms"
     d="m 167.28,240.82 3.82,3.39 a 23,23 0 0 0 30.47,0 l 3.82,-3.39 3.83,3.39 a 23,23 0 0 0 30.46,0 l 3.82,-3.39 3.83,3.39 a 23,23 0 0 0 30.46,0 l 3.83,-3.39"
     id="path3470"
     inkscape:path-effect="#path-effect3472"
     inkscape:original-d="m 167.28,240.82 3.82,3.39 a 23,23 0 0 0 30.47,0 l 3.82,-3.39 3.83,3.39 a 23,23 0 0 0 30.46,0 l 3.82,-3.39 3.83,3.39 a 23,23 0 0 0 30.46,0 l 3.83,-3.39"
     sodipodi:insensitive="true" /><path
     class="cls-13 UnoptimicedTransforms"
     id="path3474"
     d="m 167.28,240.82 3.82,3.39 a 23,23 0 0 0 30.47,0 l 3.82,-3.39 3.83,3.39 a 23,23 0 0 0 30.46,0 l 3.82,-3.39 3.83,3.39 a 23,23 0 0 0 30.46,0 l 3.83,-3.39"
     transform="matrix(-1,0,0,1,300,0)"
     sodipodi:insensitive="true" /><ellipse
     class="cls-8"
     cx="51.597084"
     cy="167.6709"
     rx="9.1815376"
     ry="10.059057"
     transform="rotate(-12.44)"
     id="ellipse7646"
     style="fill:#315073;fill-opacity:1;stroke-width:0.432276" /><ellipse
     class="cls-8"
     cx="53.365578"
     cy="169.57747"
     rx="9.1815376"
     ry="10.059057"
     transform="rotate(-12.44)"
     id="ellipse4231"
     style="fill:#2f2c38;stroke-width:0.432276" /><circle
     class="cls-9"
     cx="90.607124"
     cy="150.51254"
     r="3.7521539"
     id="circle4233"
     style="fill:#ffffff;stroke-width:0.432276" /><ellipse
     class="cls-12"
     cx="-131.2309"
     cy="-35.920197"
     rx="9.7670059"
     ry="13.244328"
     transform="matrix(-0.54555848,-0.83807276,-0.83807276,0.54555848,0,0)"
     id="ellipse4255"
     style="fill:#eeeef2;fill-opacity:1;stroke-width:0.610056" /><circle
     class="cls-12"
     cx="-121.34895"
     cy="78.168961"
     r="5.3509922"
     id="circle4259"
     style="fill:#eeeef2;fill-opacity:1;stroke-width:0.384411"
     transform="scale(-1,1)" /><ellipse
     class="cls-12"
     cx="-108.52564"
     cy="93.394783"
     rx="4.3259397"
     ry="5.8660922"
     transform="matrix(-0.91344328,-0.40696606,-0.40696606,0.91344328,0,0)"
     id="ellipse10672"
     style="fill:#32455c;fill-opacity:1;stroke-width:0.270203" /><path
     id="ellipse10812"
     style="fill:#36597f;fill-opacity:1;stroke-width:0.270203"
     class="cls-12"
     d="m 62.40698,123.84648 a 4.3259394,5.8660926 24.014389 0 0 -5.235671,3.87037 4.3259394,5.8660926 24.014389 0 0 1.56569,7.11866 4.3259394,5.8660926 24.014389 0 0 1.473841,0.26722 4.3259394,5.8660926 24.014389 0 1 -1.235852,-6.93496 4.3259394,5.8660926 24.014389 0 1 4.884946,-3.86829 4.3259394,5.8660926 24.014389 0 0 -0.348625,-0.18163 4.3259394,5.8660926 24.014389 0 0 -1.104329,-0.27137 z" /><path
     id="path10915"
     style="color:#000000;fill:#2f2c38;fill-opacity:1;stroke-width:1.2237;stroke-linecap:round;paint-order:stroke fill markers"
     d="m 98.068345,167.27202 c -0.79913,0.0617 -1.397128,0.75916 -1.33604,1.55832 1.19442,1.59879 2.9526,7.09272 3.07564,10.41768 0.210705,5.69355 -1.33159,8.99054 -0.84143,8.59443 4.731915,-6.17047 4.025485,-14.83271 0.66253,-19.23438 -0.0616,-0.80014 -0.76064,-1.39854 -1.5607,-1.33605 z"
     sodipodi:nodetypes="ccsccc" /><path
     style="opacity:1;fill:none;fill-opacity:1;stroke:#2f2c38;stroke-width:1.68015;stroke-linecap:round;stroke-dasharray:none;stroke-opacity:1;paint-order:stroke fill markers;stop-color:#000000"
     d="m 93.913337,171.8419 c 1.036646,-1.63754 2.073463,-3.27535 3.449647,-3.99589 1.376184,-0.72053 3.090096,-0.52357 4.802686,-0.32677"
     id="path11052"
     inkscape:path-effect="#path-effect11054"
     inkscape:original-d="m 93.913337,171.8419 c 1.03807,-1.63664 2.07489,-3.27445 3.110518,-4.91354 1.71519,0.19819 3.429105,0.39515 5.141815,0.59088"
     sodipodi:nodetypes="ccc" /><path
     id="rect16242"
     style="opacity:1;fill:#374f91;fill-opacity:1;stroke-width:1.46752;stroke-linecap:round;paint-order:stroke fill markers;stop-color:#000000"
     d="m 144.18603,65.262573 c -1.23331,1.437231 -2.41667,2.929908 -3.54053,4.48622 -0.18572,-0.0031 -0.37173,-0.01474 -0.55738,-0.0167 -1.40979,-0.01487 -2.81628,0.03953 -4.2232,0.08768 7.60878,0.873887 10.44073,3.045712 17.92192,4.713767 -3.609,-4.344913 -6.36044,-7.068746 -9.60081,-9.270966 z" /><path
     id="path16456"
     style="opacity:1;fill:#374f91;fill-opacity:1;stroke-width:2.03631;stroke-linecap:round;paint-order:stroke fill markers;stop-color:#000000"
     d="m 245.67189,225.78951 c -0.48985,-0.26485 -0.98068,-0.52278 -1.47174,-0.7724 -0.51754,-0.2631 -1.03457,-0.51737 -1.55317,-0.76406 -0.51859,-0.2467 -1.03796,-0.48522 -1.55734,-0.71605 -0.51936,-0.23081 -1.03956,-0.45464 -1.55942,-0.67011 -0.0592,-0.0246 -0.11829,-0.0467 -0.17745,-0.0709 -1.80805,2.74844 -3.55572,5.9222 -5.50079,9.89725 5.09766,-2.50947 8.36698,-4.77499 11.81991,-6.90365 z" /></svg>
