<?xml version="1.0" encoding="UTF-8" standalone="no"?>
<!-- Created with Inkscape (http://www.inkscape.org/) -->

<svg
   width="300"
   height="345"
   viewBox="0 0 79.374998 91.28125"
   version="1.1"
   id="svg1"
   inkscape:export-filename="halfSandwich.svg"
   inkscape:export-xdpi="96"
   inkscape:export-ydpi="96"
   xmlns:inkscape="http://www.inkscape.org/namespaces/inkscape"
   xmlns:sodipodi="http://sodipodi.sourceforge.net/DTD/sodipodi-0.dtd"
   xmlns:xlink="http://www.w3.org/1999/xlink"
   xmlns="http://www.w3.org/2000/svg"
   xmlns:svg="http://www.w3.org/2000/svg">
  <sodipodi:namedview
     id="namedview1"
     pagecolor="#505050"
     bordercolor="#ffffff"
     borderopacity="1"
     inkscape:showpageshadow="0"
     inkscape:pageopacity="0"
     inkscape:pagecheckerboard="1"
     inkscape:deskcolor="#505050"
     inkscape:document-units="px">
    <inkscape:page
       x="0"
       y="0"
       width="79.375"
       height="91.28125"
       id="page2"
       margin="0"
       bleed="0" />
  </sodipodi:namedview>
  <defs
     id="defs1">
    <linearGradient
       id="linear-gradient-6"
       x1="150"
       y1="356.10999"
       x2="150"
       y2="161.16"
       gradientUnits="userSpaceOnUse">
      <stop
         offset="0.08547008"
         stop-color="#573321"
         id="stop2-5"
         style="stop-color:#f5b57b;stop-opacity:1;" />
      <stop
         offset="0.1794872"
         stop-color="#573321"
         id="stop31-9"
         style="stop-color:#ea9c49;stop-opacity:1;" />
      <stop
         offset="0.29344732"
         stop-color="#7d4f33"
         id="stop1-5"
         style="stop-color:#db8b3b;stop-opacity:1;" />
    </linearGradient>
    <linearGradient
       inkscape:collect="always"
       xlink:href="#linear-gradient-6"
       id="linearGradient134"
       gradientUnits="userSpaceOnUse"
       x1="150"
       y1="356.10999"
       x2="150"
       y2="161.16"
       gradientTransform="translate(-1006.4516,-6.4516129)" />
    <inkscape:path-effect
       effect="fillet_chamfer"
       id="path-effect135"
       is_visible="true"
       lpeversion="1"
       nodesatellites_param="F,0,0,1,0,0,0,1 @ F,0,0,1,0,0,0,1 @ F,0,0,1,0,0,0,1 @ F,0,0,1,0,0,0,1 @ F,0,0,1,0,0,0,1 @ F,0,0,1,0,12.245235,0,1 @ F,0,0,1,0,0,0,1 @ F,0,0,1,0,8.673336,0,1 @ F,0,0,1,0,7.3300749,0,1 @ F,0,0,1,0,0,0,1 @ F,0,0,1,0,0,0,1 @ F,0,0,1,0,0,0,1 @ F,0,0,1,0,0,0,1 @ F,0,0,1,0,0,0,1 @ F,0,0,1,0,0,0,1 @ F,0,0,1,0,0,0,1 @ F,0,0,1,0,0,0,1 @ F,0,0,1,0,0,0,1 @ F,0,0,1,0,0,0,1 @ F,0,0,1,0,0,0,1 | F,0,0,1,0,0,0,1 @ F,0,0,1,0,0,0,1 @ F,0,0,1,0,0,0,1 @ F,0,0,1,0,0,0,1 @ F,0,0,1,0,0,0,1 @ F,0,0,1,0,0,0,1 @ F,0,0,1,0,0,0,1"
       radius="0"
       unit="px"
       method="auto"
       mode="F"
       chamfer_steps="1"
       flexible="false"
       use_knot_distance="true"
       apply_no_radius="true"
       apply_with_radius="true"
       only_selected="false"
       hide_knots="false" />
  </defs>
  <g
     inkscape:label="Layer 1"
     inkscape:groupmode="layer"
     id="layer1">
    <g
       id="g138"
       transform="matrix(0.26458333,0,0,0.26458333,266.29836,1.7069885)">
      <path
         class="cls-1"
         d="m -742.8316,338.54839 h -227.24 a 36.38,36.38 0 0 1 -36.38,-36.38 v -49.48 h 300 v 49.48 a 36.38,36.38 0 0 1 -36.38,36.38 z"
         id="path111"
         style="fill:url(#linearGradient134)" />
      <path
         id="path112"
         style="fill:#f5b57b;fill-opacity:1;stroke:none;stroke-width:14.8796;stroke-opacity:1"
         d="m -960.42993,81.981358 c -28.36096,16.957539 -46.02167,33.558602 -46.02167,87.801612 v 29.66211 c 0,6.28359 0.6099,12.41689 1.7305,18.36524 h -1.7305 v 50.17382 c 0,16.27291 13.10013,29.37305 29.37304,29.37305 h 68.53907 104.17578 68.53906 c 16.27291,0 29.37305,-13.10014 29.37305,-29.37305 v -50.17382 h -1.73047 c 1.12056,-5.94835 1.73047,-12.08165 1.73047,-18.36524 v -29.66211 c 0,-54.24301 -15.72389,-68.7196 -42.77851,-85.639511 -59.69148,-37.330929 -150.77378,-38.291937 -211.19982,-2.162101 z m 103.97833,64.842632 c 43.93538,1.4e-4 79.55209,21.91792 79.55273,48.95508 10e-4,27.03792 -35.61611,48.95689 -79.55273,48.95703 -43.93738,5.2e-4 -79.5558,-21.91864 -79.55469,-48.95703 6.4e-4,-27.03763 35.61855,-48.9556 79.55469,-48.95508 z"
         sodipodi:nodetypes="assccssccssccssaaccccc" />
      <path
         id="path138"
         style="opacity:0.67619;fill:#cf7c35;fill-opacity:1;stroke:none;stroke-width:14.868;stroke-opacity:1"
         d="m -1005.2879,265.65386 c 0.035,12.38173 -1.5874,27.25519 9.87168,35.49434 13.2616,9.10923 30.85943,5.02513 43.98454,-2.18883 10.94911,-1.69851 12.27889,13.7616 20.36927,18.54549 19.76332,20.17272 57.23915,14.86229 71.36045,-9.34124 4.00661,-7.53179 17.8062,-9.77785 21.41804,-0.90166 0.29135,10.46865 5.66988,21.25215 16.13957,24.77714 10.93069,3.58054 24.38748,5.83767 34.73174,-0.57337 11.87236,-9.46764 6.90839,-26.10103 9.74507,-39.04235 5.10919,-9.30572 21.76529,-2.52641 25.60577,5.20949 0.55981,9.46452 2.50711,20.59377 13.20019,23.52408 10.07573,5.67328 23.42246,1.58043 26.84076,-10.05089 1.82416,-4.832 9.20546,-21.61755 -0.2461,-12.5265 -9.52213,19.54861 -27.70905,16.17703 -27.89474,-7.28217 -5.52911,-10.51905 -17.23119,-18.739 -29.58768,-16.4446 -11.69284,0.34872 -22.07707,9.98186 -20.14298,22.17673 1.70239,11.11832 -3.5362,24.41741 -16.68321,23.75124 -13.49294,1.993 -24.43109,-8.11213 -26.3982,-21.06667 -2.30513,-11.34594 -15.55228,-15.64061 -25.00936,-10.21479 -14.45417,6.92165 -25.05766,21.68017 -42.12402,22.86811 -14.12584,2.35781 -22.09701,-11.54519 -29.0714,-21.2565 -5.37544,-8.34333 -15.30603,-15.73469 -25.63856,-11.92638 -11.027,2.73507 -22.31467,12.78737 -33.94077,6.87491 -7.68136,-4.60711 -12.36356,-12.76153 -16.53006,-20.40558 z"
         sodipodi:nodetypes="cccccccccccccccccccccccc" />
      <path
         id="path113"
         style="fill:#e09140;fill-opacity:1;stroke:none;stroke-width:14.868;stroke-opacity:1"
         d="m -856.4516,146.82378 a 79.553154,48.955788 0 0 0 -79.55273,48.95703 79.553154,48.955788 0 0 0 3.99609,15 79.553154,48.955788 0 0 1 75.55664,-33.95703 79.553154,48.955788 0 0 1 75.64453,33.79883 79.553154,48.955788 0 0 0 3.9082,-14.8418 79.553154,48.955788 0 0 0 -79.55273,-48.95703 z" />
      <path
         id="path114"
         style="fill:#e77ae7;fill-opacity:1;stroke:none;stroke-width:14.8796;stroke-opacity:1"
         d="M 46.02167,88.432971 C 17.660714,105.39051 0,121.99157 0,176.23458 v 29.66211 0.76977 67.76929 c 0,33.37958 33.733661,31.87017 49.82552,22.78285 5.735164,-3.23874 9.972329,-3.41025 13.335267,2.44578 6.340494,11.04098 19.056095,26.39052 40.848883,26.7054 23.63193,0.34145 35.97819,-12.90592 41.57649,-21.75524 2.55619,-4.0406 7.75371,-7.22055 12.50292,-6.59559 l 2.78214,0.3661 c 4.01368,0.52817 6.50956,4.21013 6.68916,8.24324 0.42303,9.49946 5.6542,24.9479 35.13727,25.22929 36.57404,0.34907 16.43317,-43.85854 28.6001,-47.22641 5.45011,-1.50862 14.08917,1.8733 19.80833,5.67711 4.29194,2.85457 1.47632,15.91231 6.544,21.37525 5.25936,5.66957 14.80615,8.86707 21.61224,8.43539 C 294.05155,319.18091 300,290.70866 300,274.43575 v -50.17382 h -1.73047 C 299.39009,218.31358 300,212.18028 300,205.89669 V 176.23458 C 300,121.99157 284.27611,107.51498 257.22149,90.595072 197.53001,53.264143 106.44771,52.303135 46.02167,88.432971 Z M 150,153.2756 c 4.25004,1e-5 8.42224,0.20512 12.49189,0.60011 8.12031,0.78815 5.15134,27.76626 24.61574,27.97537 19.21281,0.20641 14.97057,-17.10558 21.53762,-12.69891 12.9832,8.71208 20.90718,20.32583 20.90748,33.07851 0.001,27.03792 -35.61611,48.95689 -79.55273,48.95703 -43.93738,5.2e-4 -79.555802,-21.91864 -79.554687,-48.95703 C 70.445948,175.19305 106.06386,153.27508 150,153.2756 Z"
         sodipodi:nodetypes="asscsssccsssassccssaacssscccc"
         inkscape:path-effect="#path-effect135"
         inkscape:original-d="M 46.02167,88.432971 C 17.660714,105.39051 0,121.99157 0,176.23458 v 29.66211 c 0,6.28359 0,0.76977 0,0.76977 v 67.76929 c 0,42.56434 54.852134,28.39794 58.031577,14.12915 0,0 11.87419,37.31212 45.978093,37.80488 35.40773,0.5116 45.48021,-29.48241 45.48021,-29.48241 l 18.64876,2.45401 c 0,0 -8.06648,32.10937 34.55901,32.5162 36.57404,0.34907 16.43317,-43.85854 28.6001,-47.22641 5.45011,-1.50862 14.08917,1.8733 19.80833,5.67711 4.29194,2.85457 1.47632,15.91231 6.544,21.37525 5.25936,5.66957 14.80615,8.86707 21.61224,8.43539 C 294.05155,319.18091 300,290.70866 300,274.43575 v -50.17382 h -1.73047 C 299.39009,218.31358 300,212.18028 300,205.89669 V 176.23458 C 300,121.99157 284.27611,107.51498 257.22149,90.595072 197.53001,53.264143 106.44771,52.303135 46.02167,88.432971 Z M 150,153.2756 c 4.25004,1e-5 8.42224,0.20512 12.49189,0.60011 8.12031,0.78815 5.15134,27.76626 24.61574,27.97537 19.21281,0.20641 14.97057,-17.10558 21.53762,-12.69891 12.9832,8.71208 20.90718,20.32583 20.90748,33.07851 0.001,27.03792 -35.61611,48.95689 -79.55273,48.95703 -43.93738,5.2e-4 -79.555802,-21.91864 -79.554687,-48.95703 C 70.445948,175.19305 106.06386,153.27508 150,153.2756 Z"
         transform="translate(-1006.4516,-6.4516129)" />
      <path
         id="path115"
         style="fill:#ea96f8;fill-opacity:1;stroke:none;stroke-width:14.868;stroke-opacity:1"
         d="m -854.55512,55.515184 c -37.78526,-0.390389 -75.66198,8.401879 -105.875,26.466797 -28.36095,16.957536 -46.02148,33.557779 -46.02148,87.800789 v 12.0332 c 3.0428,9.29258 7.47766,17.32325 13.99219,20.7832 7.58879,4.03051 18.01772,-1.99314 24.68945,-7.4082 24.49729,-19.88306 19.49692,-64.92263 45.26758,-83.125 19.9674,-14.103413 7.88221,7.48179 90.37438,0.0891 45.95011,-4.11791 32.99078,-13.970723 54.47913,-2.5598 15.45412,8.20656 25.51086,24.53457 34.56836,39.50585 9.44124,15.60557 22.73032,33.03486 19.75196,51.0293 -2.16244,13.06488 -14.59541,22.95727 -25.51367,30.45117 -18.16867,12.47031 -45.091,7.95356 -62.55079,21.39844 -7.05352,5.43155 -17.24487,13.65838 -14.81445,22.22266 1.97735,6.96776 12.61496,10.2754 19.75391,9.05273 11.66518,-1.99787 14.64806,-19.99836 25.51367,-24.68945 16.38915,-7.07581 36.03524,1.24282 53.49609,-2.4707 5.8499,-1.24414 13.8118,-4.29998 20.99219,-7.29883 v -48.45122 -0.90035 -29.6621 c 0,-54.24301 -15.72468,-68.71877 -42.7793,-85.63868 -29.84574,-18.665464 -67.53895,-28.238518 -105.32422,-28.628906 z"
         sodipodi:nodetypes="ssscsssssssssssssccssss" />
      <path
         id="path116"
         style="fill:#c65398;fill-opacity:1;stroke:none;stroke-width:14.868;stroke-opacity:1"
         d="m -863.70355,129.4273 c -16.87712,0.0529 -34.09064,4.26561 -48.79297,11.91797 -15.23128,7.92766 -27.58057,19.73385 -30.81516,34.91629 -1.83081,8.59342 2.08404,15.28139 7.8718,25.15597 -0.34572,-1.85283 -0.56649,-3.72884 -0.56641,-5.63867 6.4e-4,-27.03763 35.61855,-48.9556 79.55469,-48.95508 4.25004,1e-5 8.42254,0.20462 12.49219,0.59961 8.12031,0.78815 5.15083,27.76745 24.61523,27.97656 19.21281,0.20641 14.97006,-17.10589 21.53711,-12.69922 12.9832,8.71208 20.9079,20.32545 20.9082,33.07813 7e-5,1.75636 -0.16398,3.48871 -0.45703,5.19726 0,0 8.7288,-6.26999 9.48828,-11.07031 2.14458,-13.5549 -5.26478,-29.24961 -15.83398,-38.0039 -10.52394,-8.7168 -27.29664,-3.71568 -40.11719,-8.44532 -8.27343,-3.05216 -14.53284,-11.18045 -23.22461,-12.66992 -5.44548,-0.93317 -11.03445,-1.37699 -16.66015,-1.35937 z m 58.9414,103.52148 c -0.70881,0.37366 -1.42419,0.73928 -2.15429,1.09766 l 1.04492,0.19726 z"
         sodipodi:nodetypes="ssaccssssscasssscccc" />
      <path
         id="path117"
         style="fill:#c35499;fill-opacity:1;stroke:none;stroke-width:14.868;stroke-opacity:1"
         d="m -1006.4516,255.65386 c 0.035,12.38173 -1.5874,27.25519 9.87168,35.49434 13.2616,9.10923 30.85943,5.02513 43.98454,-2.18883 10.94911,-1.69851 12.27889,13.7616 20.36927,18.54549 19.76332,20.17272 57.23915,14.86229 71.36045,-9.34124 4.00661,-7.53179 17.8062,-9.77785 21.41804,-0.90166 0.29135,10.46865 5.66988,21.25215 16.13957,24.77714 10.93069,3.58054 24.38748,5.83767 34.73174,-0.57337 11.87236,-9.46764 6.90839,-26.10103 9.74507,-39.04235 5.10919,-9.30572 21.76529,-2.52641 25.60577,5.20949 0.55981,9.46452 2.50711,20.59377 13.20019,23.52408 10.07573,5.67328 23.42246,1.58043 26.84076,-10.05089 1.82416,-4.832 9.20546,-21.61755 -0.2461,-12.5265 -9.52213,19.54861 -27.70905,16.17703 -27.89474,-7.28217 -5.52911,-10.51905 -17.23119,-18.739 -29.58768,-16.4446 -11.69284,0.34872 -22.07707,9.98186 -20.14298,22.17673 1.70239,11.11832 -3.5362,24.41741 -16.68321,23.75124 -13.49294,1.993 -24.43109,-8.11213 -26.3982,-21.06667 -2.30513,-11.34594 -15.55228,-15.64061 -25.00936,-10.21479 -14.45417,6.92165 -25.05766,21.68017 -42.12402,22.86811 -14.12584,2.35781 -22.09701,-11.54519 -29.0714,-21.2565 -5.37544,-8.34333 -15.30603,-15.73469 -25.63856,-11.92638 -11.027,2.73507 -22.31467,12.78737 -33.94077,6.87491 -7.68136,-4.60711 -12.36356,-12.76153 -16.53006,-20.40558 z"
         sodipodi:nodetypes="cccccccccccccccccccccccc" />
      <path
         style="fill:#ea96f8;fill-opacity:1;stroke:none;stroke-width:12.2459;stroke-opacity:1"
         d="m -998.40162,233.19134 c -5.11108,7.08127 -4.24608,19.96734 3.16845,26.2278 6.84096,5.77611 19.58454,4.79269 28.96302,2.72434 10.72689,-2.36574 27.11028,-7.08048 26.86953,-16.34791 -0.51791,-19.93629 -21.51554,-15.24728 -34.01207,-17.0698 -8.36927,-1.22059 -19.95491,-2.50897 -24.98893,4.46557 z"
         id="path118"
         sodipodi:nodetypes="aaasaa" />
      <path
         style="fill:#ea96f8;fill-opacity:1;stroke:none;stroke-width:10.1152;stroke-opacity:1"
         d="m -919.56004,260.89716 c -2.14704,4.77837 4.01984,9.43033 9.39012,11.05955 5.27196,1.59939 13.6474,1.18645 18.22788,-2.53055 4.06339,-3.29738 4.91852,-9.44956 2.20945,-12.6699 -2.49172,-2.96198 -8.85288,-2.94145 -13.80901,-2.34608 -5.64635,0.6783 -14.05916,2.12648 -16.01844,6.48698 z"
         id="path119"
         sodipodi:nodetypes="aaaaaa" />
      <path
         id="path120"
         style="fill:#d673a9;fill-opacity:1;stroke:none;stroke-width:8.20303;stroke-opacity:1"
         d="m -833.76606,68.075728 c -1.14254,0.0011 -2.30442,0.252487 -3.40624,0.783205 -3.9176,1.886989 -5.55105,6.560921 -3.66407,10.478514 l 5.8711,12.191412 c 1.88699,3.917598 6.56092,5.552998 10.47851,3.666008 3.9176,-1.886984 5.55301,-6.560918 3.66602,-10.478512 l -5.87304,-12.191404 c -1.35628,-2.815771 -4.15244,-4.452102 -7.07228,-4.449223 z m -50.95312,5.576174 c -0.26578,-0.006 -0.53569,0.0023 -0.80664,0.02344 l -13.49023,1.052731 c -4.33516,0.338688 -7.55354,4.102345 -7.21485,8.437502 0.33869,4.335156 4.10235,7.551578 8.4375,7.21289 l 13.49024,-1.052731 c 4.33515,-0.338695 7.55353,-4.102345 7.21484,-8.437502 -0.31752,-4.064211 -3.64418,-7.146053 -7.63086,-7.23633 z m 122.20117,16.839843 c -2.25926,0.0099 -4.4951,0.996739 -6.04297,2.890626 -2.75176,3.366906 -2.25753,8.291209 1.10938,11.042969 l 10.47852,8.56446 c 3.3669,2.75176 8.29315,2.25753 11.04492,-1.10938 2.75176,-3.36691 2.25753,-8.29316 -1.10938,-11.04492 l -10.47851,-8.564455 c -1.47302,-1.203897 -3.24476,-1.786964 -5.00196,-1.7793 z m -138.33984,17.937505 c -1.6336,-0.0133 -3.2871,0.48565 -4.71094,1.53125 l -10.9082,8.00977 c -3.50485,2.57378 -4.25347,7.46586 -1.67969,10.9707 2.57378,3.50484 7.46781,4.25542 10.97266,1.68164 l 10.9082,-8.00977 c 3.50485,-2.57378 4.25347,-7.46781 1.67969,-10.97265 -1.52818,-2.08101 -3.87415,-3.19153 -6.26172,-3.21094 z m 102.41211,1.83399 c -1.14255,0.001 -2.30443,0.25443 -3.40625,0.78515 -3.9176,1.88699 -5.55105,6.55897 -3.66406,10.47657 l 5.87304,12.19335 c 1.88699,3.9176 6.55897,5.55105 10.47656,3.66406 3.9176,-1.88699 5.55301,-6.55896 3.66602,-10.47656 l -5.87304,-12.19336 c -1.35628,-2.81577 -4.15243,-4.4521 -7.07227,-4.44921 z m -168.14844,3.77734 c -2.25926,0.01 -4.4951,0.99478 -6.04297,2.88867 -2.75176,3.36691 -2.25558,8.29316 1.11133,11.04492 l 10.47852,8.5625 c 3.3669,2.75176 8.29315,2.25754 11.04492,-1.10937 2.75176,-3.36691 2.25558,-8.29316 -1.11133,-11.04492 l -10.47851,-8.56446 c -1.47302,-1.20389 -3.24475,-1.785 -5.00196,-1.77734 z m 246.85743,27.94336 c -4.16381,0.0302 -7.594,3.30314 -7.77539,7.51172 l -0.58204,13.51953 c -0.18725,4.34433 3.15958,7.99243 7.50391,8.17968 4.34433,0.18726 7.99244,-3.15957 8.17968,-7.5039 l 0.58204,-13.51953 c 0.18725,-4.34434 -3.15957,-7.99244 -7.50391,-8.17969 -0.13576,-0.006 -0.26998,-0.009 -0.40429,-0.008 z m -242.57031,33.03515 c -2.91984,-0.003 -5.71601,1.63345 -7.07228,4.44923 l -5.87304,12.1914 c -1.88699,3.9176 -0.25158,8.59153 3.66601,10.47851 3.9176,1.887 8.58958,0.25159 10.47657,-3.66601 l 5.87304,-12.19141 c 1.88699,-3.9176 0.25354,-8.59152 -3.66406,-10.47852 -1.10182,-0.53071 -2.26371,-0.78207 -3.40624,-0.7832 z m 211.17382,14.0586 c -4.1638,0.0302 -7.59399,3.30315 -7.77539,7.51172 l -0.58203,13.51953 c -0.18725,4.34433 3.15957,7.99243 7.50391,8.17969 4.34433,0.18724 7.99243,-3.15958 8.17968,-7.50391 l 0.58203,-13.51953 c 0.18725,-4.34434 -3.15957,-7.99244 -7.5039,-8.17969 -0.13576,-0.006 -0.26999,-0.009 -0.4043,-0.008 z m -230.17773,40.73633 c -2.25927,0.01 -4.49511,0.99478 -6.04297,2.88867 -2.75177,3.36691 -2.25558,8.29316 1.11132,11.04492 l 10.47852,8.5625 c 3.36691,2.75176 8.29316,2.25754 11.04492,-1.10938 2.75177,-3.3669 2.25558,-8.29316 -1.11132,-11.04492 l -10.47852,-8.56445 c -1.47302,-1.2039 -3.24475,-1.78501 -5.00195,-1.77734 z m 61.1914,7.99609 c -2.91983,-0.003 -5.71404,1.63345 -7.07031,4.44922 l -5.87305,12.19336 c -1.88699,3.91759 -0.25354,8.58957 3.66406,10.47656 3.9176,1.88699 8.59153,0.25353 10.47852,-3.66406 l 5.87305,-12.19336 c 1.88698,-3.91759 0.25158,-8.58957 -3.66602,-10.47657 -1.10182,-0.53071 -2.2637,-0.78403 -3.40625,-0.78515 z m 176.24219,4.75781 c -2.25926,0.01 -4.49511,0.99479 -6.04297,2.88867 -2.75177,3.36691 -2.25558,8.29316 1.11132,11.04492 l 10.47853,8.56446 c 3.3669,2.75176 8.2912,2.25558 11.04296,-1.11133 2.75177,-3.36691 2.25754,-8.29315 -1.10937,-11.04492 l -10.47851,-8.5625 c -1.47303,-1.2039 -3.24476,-1.78696 -5.00196,-1.7793 z m -110.82813,12.59375 c -0.13427,0.004 -0.26882,0.0109 -0.4043,0.0215 l -13.49218,1.05468 c -4.33516,0.33869 -7.55158,4.10234 -7.21289,8.4375 0.33869,4.33516 4.10039,7.55158 8.43554,7.2129 l 13.49219,-1.05469 c 4.33516,-0.33869 7.55158,-4.10039 7.21289,-8.43555 -0.3281,-4.19968 -3.86892,-7.35143 -8.03125,-7.23633 z m 54.28516,0.30859 c -2.91984,-0.003 -5.71599,1.63541 -7.07227,4.45118 l -5.87304,12.19141 c -1.887,3.91759 -0.25158,8.58957 3.66601,10.47655 3.9176,1.887 8.58958,0.25354 10.47656,-3.66406 l 5.87305,-12.19336 c 1.88699,-3.91759 0.25158,-8.58957 -3.66602,-10.47656 -1.10182,-0.53071 -2.26175,-0.78403 -3.40429,-0.78516 z" />
      <rect
         style="fill:#f5d863;fill-opacity:1;stroke:none;stroke-width:8.20303;stroke-opacity:1"
         id="rect120"
         width="15.698072"
         height="29.230894"
         x="-710.79974"
         y="-681.64099"
         ry="7.8490362"
         transform="rotate(-50.740975)" />
      <rect
         style="fill:#f5d863;fill-opacity:1;stroke:none;stroke-width:8.20303;stroke-opacity:1"
         id="rect121"
         width="15.698072"
         height="29.230894"
         x="-809.75549"
         y="-619.77173"
         ry="7.8490362"
         transform="rotate(-50.740975)" />
      <rect
         style="fill:#93f588;fill-opacity:1;stroke:none;stroke-width:8.20303;stroke-opacity:1"
         id="rect122"
         width="15.698072"
         height="29.230894"
         x="-669.37708"
         y="-427.85724"
         ry="7.8490362"
         transform="rotate(-50.740975)" />
      <rect
         style="fill:#f5d863;fill-opacity:1;stroke:none;stroke-width:8.20303;stroke-opacity:1"
         id="rect123"
         width="15.698072"
         height="29.230894"
         x="-749.91101"
         y="217.24158"
         ry="7.8490362"
         transform="rotate(2.468048)" />
      <rect
         style="fill:#93f588;fill-opacity:1;stroke:none;stroke-width:8.20303;stroke-opacity:1"
         id="rect124"
         width="15.698072"
         height="29.230894"
         x="-720.57196"
         y="168.83905"
         ry="7.8490362"
         transform="rotate(2.468048)" />
      <rect
         style="fill:#52b5f6;fill-opacity:1;stroke:none;stroke-width:8.20303;stroke-opacity:1"
         id="rect125"
         width="15.698072"
         height="29.230894"
         x="-790.2326"
         y="-304.85968"
         ry="7.8490362"
         transform="rotate(-25.718736)" />
      <rect
         style="fill:#f5d863;fill-opacity:1;stroke:none;stroke-width:8.20303;stroke-opacity:1"
         id="rect126"
         width="15.698072"
         height="29.230894"
         x="-776.71887"
         y="-251.52298"
         ry="7.8490362"
         transform="rotate(-25.718736)" />
      <rect
         style="fill:#52b5f6;fill-opacity:1;stroke:none;stroke-width:8.20303;stroke-opacity:1"
         id="rect127"
         width="15.698072"
         height="29.230894"
         x="600.74304"
         y="573.13336"
         ry="7.8490362"
         transform="matrix(-0.90093516,-0.43395372,-0.43395372,0.90093516,0,0)" />
      <rect
         style="fill:#52b5f6;fill-opacity:1;stroke:none;stroke-width:8.20303;stroke-opacity:1"
         id="rect128"
         width="15.698072"
         height="29.230894"
         x="716.24677"
         y="609.16583"
         ry="7.8490362"
         transform="matrix(-0.90093516,-0.43395372,-0.43395372,0.90093516,0,0)" />
      <rect
         style="fill:#93f588;fill-opacity:1;stroke:none;stroke-width:8.20303;stroke-opacity:1"
         id="rect129"
         width="15.698072"
         height="29.230894"
         x="781.50488"
         y="570.90198"
         ry="7.8490362"
         transform="matrix(-0.90093516,-0.43395372,-0.43395372,0.90093516,0,0)" />
      <rect
         style="fill:#93f588;fill-opacity:1;stroke:none;stroke-width:8.20303;stroke-opacity:1"
         id="rect130"
         width="15.698072"
         height="29.230894"
         x="434.89951"
         y="784.76904"
         ry="7.8490362"
         transform="matrix(-0.59189627,-0.80601415,-0.80601415,0.59189627,0,0)"
         inkscape:transform-center-x="-0.98112957"
         inkscape:transform-center-y="0.98112957" />
      <rect
         style="fill:#52b5f6;fill-opacity:1;stroke:none;stroke-width:8.20303;stroke-opacity:1"
         id="rect131"
         width="15.698072"
         height="29.230894"
         x="-563.42322"
         y="-538.52844"
         ry="7.8490362"
         transform="rotate(-50.740975)" />
      <rect
         style="fill:#52b5f6;fill-opacity:1;stroke:none;stroke-width:8.20303;stroke-opacity:1"
         id="rect132"
         width="15.698072"
         height="29.230894"
         x="-16.188808"
         y="-909.64349"
         ry="7.8490362"
         transform="rotate(-94.467219)" />
      <rect
         style="fill:#f5d863;fill-opacity:1;stroke:none;stroke-width:8.20303;stroke-opacity:1"
         id="rect133"
         width="15.698072"
         height="29.230894"
         x="-199.51537"
         y="-893.45837"
         ry="7.8490362"
         transform="rotate(-94.467219)" />
      <rect
         style="fill:#f5d863;fill-opacity:1;stroke:none;stroke-width:8.20303;stroke-opacity:1"
         id="rect134"
         width="15.698072"
         height="29.230894"
         x="-199.51537"
         y="-893.45837"
         ry="7.8490362"
         transform="rotate(-94.467219)"
         inkscape:transform-center-x="0.98112957"
         inkscape:transform-center-y="0.98112957" />
      <path
         id="path137"
         style="fill:#85210a;fill-opacity:0.190813;stroke:none;stroke-width:14.868;stroke-opacity:1"
         d="m -856.45159,146.82374 a 79.553154,48.955788 0 0 0 -79.55274,48.95703 79.553154,48.955788 0 0 0 0.79883,6.26172 c 5.44823,-23.77119 38.62261,-42.06102 78.75391,-42.06055 4.25004,1e-5 8.42254,0.20462 12.49219,0.59961 4.88413,0.47405 5.78074,10.40833 9.93554,18.3086 a 79.553154,48.955788 0 0 1 24.65625,7.44922 c 7.81056,-4.46295 6.51761,-13.86442 11.56055,-10.48047 10.59258,7.1079 17.81139,16.14865 20.11328,26.16211 a 79.553154,48.955788 0 0 0 0.79492,-6.24024 79.553154,48.955788 0 0 0 -26.49218,-36.46484 c -6.96041,-0.39983 -14.16443,-0.39057 -20.42774,-2.70117 -4.91972,-1.81494 -9.13217,-5.41004 -13.5625,-8.35157 a 79.553154,48.955788 0 0 0 -19.07031,-1.43945 z" />
    </g>
  </g>
</svg>
