<svg id="Layer_1" data-name="Layer 1" xmlns="http://www.w3.org/2000/svg" xmlns:xlink="http://www.w3.org/1999/xlink" viewBox="0 0 300 345"><defs><linearGradient id="linear-gradient" x1="150" y1="356.11" x2="150" y2="161.16" gradientUnits="userSpaceOnUse"><stop offset="0" stop-color="#92aad8"/><stop offset="0.69" stop-color="#4f76b3"/></linearGradient></defs><path d="M263.62,345H36.38A36.38,36.38,0,0,1,0,308.62V259.14H300v49.48A36.38,36.38,0,0,1,263.62,345Z" fill="url(#linear-gradient)"/><rect y="45" width="300" height="253.39" rx="36.38" fill="#bac4e4"/><circle cx="242.58" cy="189.94" r="36.45" fill="#688bc0"/><circle cx="57.42" cy="189.94" r="36.45" fill="#688bc0"/><path d="M279,200.06a36.45,36.45,0,1,1-72.9,0c0-20.13,16.32-30.47,36.45-30.47S279,179.93,279,200.06Z" fill="#fff"/><path d="M93.87,200.06a36.45,36.45,0,0,1-72.9,0c0-20.13,16.32-30.47,36.45-30.47S93.87,179.93,93.87,200.06Z" fill="#fff"/><path d="M89.18,194.77A13.21,13.21,0,0,1,70,176.86a23,23,0,1,0,19.19,17.91Zm-32,19.76a5.46,5.46,0,1,1,5.45-5.45A5.45,5.45,0,0,1,57.14,214.53Z" fill="#414042"/><path d="M255.63,194.64a13.22,13.22,0,0,1-19.07-17.77,24.25,24.25,0,0,0-3.32-.24,23,23,0,1,0,22.39,18Zm-32.22,19.89a5.46,5.46,0,1,1,5.46-5.45A5.45,5.45,0,0,1,223.41,214.53Z" fill="#414042"/><path d="M91.12,345h9.14c2-.67,3.11-1.93,3.11-3.74,0-9.9-21.8-17.39-26.08-42.64H44.53c2,4.63,4.32,9.28,6.65,13.72C61.68,332.4,79.29,342.58,91.12,345Z" fill="#446aa3"/><path d="M77.08,297.31c-3.15-22.2-8.8-43.51-26.61-37.16-16,5.71-13.06,22-5.94,38.47H77.29C77.22,298.18,77.14,297.76,77.08,297.31Z" fill="#688bc0"/><path d="M57.11,255.45c17.8-6.35,23.46,15,26.6,37.16,3.73,26.32,26.3,33.88,26.3,43.95s-35.31,3.35-52.19-28.92C47.19,287.34,36.6,262.76,57.11,255.45Z" fill="#dae6f5"/><path d="M199.74,345h9.14c11.83-2.42,29.44-12.6,39.94-32.66,2.33-4.44,4.65-9.09,6.65-13.72H222.71c-4.28,25.25-26.08,32.74-26.08,42.64C196.63,343.07,197.78,344.33,199.74,345Z" fill="#446aa3"/><path d="M222.92,297.31c3.15-22.2,8.8-43.51,26.61-37.16,16,5.71,13.06,22,5.94,38.47H222.71C222.78,298.18,222.86,297.76,222.92,297.31Z" fill="#688bc0"/><path d="M242.89,255.45c-17.8-6.35-23.46,15-26.6,37.16-3.73,26.32-26.3,33.88-26.3,43.95s35.31,3.35,52.19-28.92C252.81,287.34,263.4,262.76,242.89,255.45Z" fill="#dae6f5"/><path d="M91.27,46.39c0,6.64.51,21.7,8.68,21.7s7.66-14,7.66-14" fill="none" stroke="#688bc0" stroke-linecap="round" stroke-miterlimit="10" stroke-width="3"/><path d="M101.48,76s11.24-1.78,13.28-11.48" fill="none" stroke="#688bc0" stroke-linecap="round" stroke-miterlimit="10" stroke-width="3"/><path d="M192.39,54.05s-.51,14,7.66,14,8.68-15.06,8.68-21.7" fill="none" stroke="#688bc0" stroke-linecap="round" stroke-miterlimit="10" stroke-width="3"/><path d="M198.52,76s-11.24-1.78-13.28-11.48" fill="none" stroke="#688bc0" stroke-linecap="round" stroke-miterlimit="10" stroke-width="3"/><path d="M138.72,68.09s2.75-3.57,11.28-3.57,11.28,3.57,11.28,3.57" fill="none" stroke="#688bc0" stroke-linecap="round" stroke-miterlimit="10" stroke-width="3"/><path d="M124.89,212s6.12-5.25,25.11-5.25S175.11,212,175.11,212" fill="none" stroke="#688bc0" stroke-linecap="round" stroke-miterlimit="10" stroke-width="2.8"/><path d="M129.86,183.68s4.91-4.21,20.14-4.21,20.14,4.21,20.14,4.21" fill="none" stroke="#688bc0" stroke-linecap="round" stroke-miterlimit="10" stroke-width="2.8"/><path d="M134.34,159.7s3.82-4.21,15.66-4.21,15.66,4.21,15.66,4.21" fill="none" stroke="#688bc0" stroke-linecap="round" stroke-miterlimit="10" stroke-width="2.8"/><path d="M149.34,345h80.89c27.82-15.45,19.21-65,16.2-75.88-3.57-12.93,5.62-13.12,2.56-20.78s-7.66-5.61-9.71-9.19,0-14-10.41-12.76c-17.14,2.06-5.46,32.75-2.86,49s2.86,36.76-19.88,37.79c-19.25.86-31.14-16.08-21.49-42.39,8.17-22.27,9.39-48.32,9.39-48.32l-85.15,5.94s-1.87,18.15,2.23,50C115.94,316,137.79,336.56,149.34,345Z" fill="#bac4e4"/><path d="M206.22,315.19c7.78-.35,13.68-2.92,17.54-7.66,7-8.64,5.78-22.65,4.22-32.44-.54-3.41-1.47-7.4-2.45-11.63-2.7-11.62-6.05-26.07-1.79-32.14a7.14,7.14,0,0,1,5.37-2.94c5.47-.66,6.27,2.28,7.13,7.14a14.56,14.56,0,0,0,1.31,4.63,8.17,8.17,0,0,0,4.27,3.38c1.93.86,3.75,1.67,5.31,5.56,1,2.56.33,3.75-.92,5.92-1.64,2.85-3.89,6.75-1.71,14.64,3,11,8.47,46.58-5.92,65.48a29.86,29.86,0,0,1-13.1,9.87H234a34.16,34.16,0,0,0,7.75-7.45c18.31-24.06,6.71-68.52,6.59-69-1.74-6.29-.19-9,1.31-11.58,1.37-2.37,2.92-5,1.17-9.41-2.16-5.39-5.18-6.74-7.39-7.73-1.32-.58-2-.9-2.43-1.71a13.43,13.43,0,0,1-.85-3.33c-.76-4.33-2-11.57-11.54-10.42a11.11,11.11,0,0,0-8.17,4.61c-5.28,7.53-1.85,22.31,1.17,35.34,1,4.16,1.88,8.09,2.4,11.36,1.44,9,2.66,21.89-3.37,29.29-3.16,3.86-7.94,5.89-14.62,6.19-7.88.35-14.43-2.48-18.46-8-5.45-7.45-5.83-18.71-1.06-31.72,8.18-22.31,9.46-47.84,9.51-48.92a2,2,0,1,0-4-.18c0,.25-1.3,26-9.26,47.72-5.25,14.31-4.69,26.9,1.58,35.46C189.2,312.2,197,315.6,206.22,315.19Z" fill="#688bc0"/><path d="M146.12,345h6.75c-10.29-7-34.71-27.47-39.77-66.78-4-31.24-2.25-49.41-2.23-49.59a2,2,0,0,0-4-.41c-.08.76-1.85,18.75,2.24,50.51C113.74,314.57,133.9,335.43,146.12,345Z" fill="#688bc0"/></svg>