<svg id="Layer_1" data-name="Layer 1" xmlns="http://www.w3.org/2000/svg" xmlns:xlink="http://www.w3.org/1999/xlink" viewBox="0 0 300 345"><defs><linearGradient id="linear-gradient" x1="-1777.04" y1="356.11" x2="-1777.04" y2="161.16" gradientTransform="matrix(-1, 0, 0, 1, -1627.04, 0)" gradientUnits="userSpaceOnUse"><stop offset="0" stop-color="#9bd4ee"/><stop offset="0.08" stop-color="#89cae6"/><stop offset="0.23" stop-color="#5cb1d0"/><stop offset="0.3" stop-color="#46a5c6"/></linearGradient><linearGradient id="linear-gradient-2" x1="-1749.01" y1="348.6" x2="-1749.01" y2="225.95" gradientTransform="matrix(-1, 0, 0, 1, -1627.04, 0)" gradientUnits="userSpaceOnUse"><stop offset="0" stop-color="#f38db6"/><stop offset="0.69" stop-color="#b53d7f"/></linearGradient><linearGradient id="linear-gradient-3" x1="152.14" y1="365.28" x2="152.14" y2="211.26" gradientUnits="userSpaceOnUse"><stop offset="0.01" stop-color="#cd488a"/><stop offset="0.69" stop-color="#871f5d"/></linearGradient></defs><path d="M36.38,345H263.62A36.38,36.38,0,0,0,300,308.62V259.14H0v49.48A36.38,36.38,0,0,0,36.38,345Z" fill="url(#linear-gradient)"/><rect y="45" width="300" height="253.39" rx="36.38" fill="#9bd4ee"/><path d="M89.69,95.66s-5.65,11-2.33,27.58c7.61,38.09,38,51.06,53.87,56.16s23,19.43,23,19.43l56.93-19.43a110.19,110.19,0,0,0,11.92-48.16c.36-28.61-18.3-77.7-75.75-80.51-47.82-2.34-83.85,26-83.8,79.27.06,57.63,27.89,77.46,27.89,142.6,0,49.28-22.21,72.4-22.21,72.4h77.1s8.9-18.69,8.9-63.21c0-54.39-24-102.39-24-102.39" fill="#f38db6"/><path d="M164.75,298.39C163,331,156.29,345,156.29,345H79.19s14.4-15,20-46.61Z" fill="url(#linear-gradient-2)"/><path d="M164.75,298.39A208.69,208.69,0,0,1,161.36,327h0c2-10.23,3.82-25.08,3.82-45.25a210.2,210.2,0,0,0-2.87-33.91c-2.49,11.43-8.94,32.11-14.35,50.51Z" fill="#e06ea2"/><path d="M139.88,335.19c1.91,2.67,10.25.33,21.48-8.15a208.69,208.69,0,0,0,3.39-28.65H148C142.58,316.77,138.22,332.86,139.88,335.19Z" fill="url(#linear-gradient-3)"/><path d="M89.69,95.66s-5.65,11-2.33,27.58a72.5,72.5,0,0,0,7.54,21c12.3,22.25,33.85,31.16,46.33,35.18,0,0,15.4,5.5,23,19.43" fill="none" stroke="#ba3873" stroke-linecap="round" stroke-miterlimit="10" stroke-width="3"/><path d="M191.93,173.68c-31-11.16-26.51-48.27-26.51-48.27L150,160.13s28.25,6.56,14.21,38.7Z" fill="#fde8f1"/><path d="M222.72,184.17a13.89,13.89,0,0,0-7.41-8.5c-6.05-2.8-16.72-5.27-31.7.53-13.19,5.12-17.43,14.33-18.78,19.27a8.11,8.11,0,0,0,.51,5.67c3,6.25,11,23.62,11.63,32.58.77,11.05-27.32,89.43-23.49,94.8s33.7-9.5,60.77-53.88c3.65-6,12.78-20.44,14.3-29C232.86,221.28,226,194.77,222.72,184.17Z" fill="#fde8f1"/><path d="M153.48,328.52c-3.83-5.37,24.26-83.75,23.49-94.8,0-.2,0-.42-.06-.62,13.17-4.8,29.66-8.17,44.45-3.39a19,19,0,0,1,8.37,5.67,90.59,90.59,0,0,1-1.18,10.25c-1.52,8.57-10.65,23-14.3,29C187.18,319,157.31,333.88,153.48,328.52Z" fill="#15141a"/><path d="M151.38,158.67c-14.87-3.74-25.36-11.18-31.16-22.11-10.38-19.53-2.08-43-1.72-44l.14-.4.3-.31c.36-.37,9-9.23,21.48-9.23a28.68,28.68,0,0,1,16.87,5.81c8.23,5.9,12.58,17.91,11.94,32.93-.69,16.49-7.41,31.72-16.33,37l-.71.42Z" fill="#fff"/><path d="M140.43,84.66a26.58,26.58,0,0,1,15.69,5.43c18.29,13.13,12.16,56.85-4.25,66.64-49.95-12.56-31.49-63.45-31.49-63.45s8.3-8.62,20.05-8.62m0-4c-13.29,0-22.54,9.44-22.93,9.85l-.59.61-.29.8c-.37,1-9,25.27,1.83,45.58,6.08,11.45,17,19.22,32.45,23.11l1.6.4,1.42-.85c11.11-6.62,16.7-24.2,17.31-38.68.67-15.7-4-28.33-12.77-34.64a30.65,30.65,0,0,0-18-6.18Z" fill="#15141a"/><path d="M156.12,90.09c4.28,3.08,7.21,7.84,9,13.44a40.19,40.19,0,0,1,.26,4.56c0,20.67-15.58,37.43-34.81,37.43-.32,0-.63,0-.94,0-21.13-19.43-9.25-52.21-9.25-52.21S136.81,76.23,156.12,90.09Z" fill="#fbb040"/><path d="M120.53,93.13c1.63-1.6,17.32-16.15,35.59-3,4.28,3.08,7.21,7.84,9,13.44a40.19,40.19,0,0,1,.26,4.56,39.2,39.2,0,0,1-6.45,21.7A61.39,61.39,0,0,0,120.53,93.13Z" fill="#654018"/><ellipse cx="139.52" cy="113.09" rx="16.13" ry="11.29" transform="translate(-17.16 200.87) rotate(-68.29)" fill="#15141a"/><path d="M165.34,201.14c2.94,6.11,10.65,22.83,11.58,32,3.15-1.15,6.5-2.21,10-3.11-4.19-8.7-13.24-38.64-15.43-46a26.83,26.83,0,0,0-6.62,11.43A8.11,8.11,0,0,0,165.34,201.14Z" fill="#e0b1c7"/><path d="M177,233.72a5,5,0,0,1,0,.56c0,2.52-1.07,7.43-2.72,13.74l-.61,2.33c-1.1,4.09-2.41,8.66-3.82,13.5-.26.9-.53,1.81-.8,2.73l-.3,1q-.72,2.44-1.46,4.92l-2,6.67-.78,2.63q-.82,2.74-1.63,5.48c-.74,2.49-1.47,4.95-2.17,7.37-.24.84-.49,1.67-.73,2.5l-.54,1.91c-.73,2.52-1.41,5-2.05,7.3-.28,1-.56,2.06-.82,3.05-.18.67-.35,1.34-.52,2-.28,1.07-.54,2.1-.78,3.1s-.47,2-.68,2.87a65.75,65.75,0,0,0-1.39,7.81c0,.28,0,.55-.06.8a8.06,8.06,0,0,0,.08,1.8,1.88,1.88,0,0,0,.26.72c1.21,1.68,5,1.36,10.44-1.23a19.15,19.15,0,0,1-2.51-7.63c-.68-6.63,30.47-81.87,26.38-88a14.5,14.5,0,0,1-.91-1.67c-3.46.9-6.81,2-10,3.11C176.94,233.31,177,233.52,177,233.72Z"/><path d="M191.93,214.53s4.52,3,3.35,6.75C194.26,224.6,185.12,223.48,191.93,214.53Z"/><path d="M206.87,70.11s7.94,8,21.83,6.41,3.19,18.22-12.07,16.86" fill="#f38db6"/><path d="M213.7,81.78s7.94,8,21.84,6.41,3.19,18.22-12.08,16.85" fill="#f38db6"/></svg>