<?xml version="1.0" encoding="UTF-8" standalone="no"?>
<svg
   viewBox="0 0 300 345"
   version="1.1"
   id="svg53"
   xml:space="preserve"
   sodipodi:docname="fly.svg"
   inkscape:version="1.4 (e7c3feb1, 2024-10-09)"
   xmlns:inkscape="http://www.inkscape.org/namespaces/inkscape"
   xmlns:sodipodi="http://sodipodi.sourceforge.net/DTD/sodipodi-0.dtd"
   xmlns:xlink="http://www.w3.org/1999/xlink"
   xmlns="http://www.w3.org/2000/svg"
   xmlns:svg="http://www.w3.org/2000/svg"><sodipodi:namedview
     id="namedview1"
     pagecolor="#505050"
     bordercolor="#ffffff"
     borderopacity="1"
     inkscape:showpageshadow="0"
     inkscape:pageopacity="0"
     inkscape:pagecheckerboard="1"
     inkscape:deskcolor="#505050"
     inkscape:zoom="0.12136715"
     inkscape:cx="346.05739"
     inkscape:cy="519.08609"
     inkscape:window-width="1448"
     inkscape:window-height="805"
     inkscape:window-x="0"
     inkscape:window-y="38"
     inkscape:window-maximized="0"
     inkscape:current-layer="svg53" /><defs
     id="defs7"><inkscape:path-effect
       effect="mirror_symmetry"
       start_point="150,0"
       end_point="150,345"
       center_point="150,172.5"
       id="path-effect35"
       is_visible="true"
       lpeversion="1.2"
       lpesatellites="#g38"
       mode="vertical"
       discard_orig_path="false"
       fuse_paths="false"
       oposite_fuse="false"
       split_items="true"
       split_open="false"
       link_styles="false" /><linearGradient
       id="linearGradient14215"><stop
         style="stop-color:#1b5f63;stop-opacity:1;"
         offset="0.44217688"
         id="stop14211" /><stop
         style="stop-color:#2698a3;stop-opacity:1;"
         offset="1"
         id="stop14213" /></linearGradient><linearGradient
       id="A"
       x1="150"
       y1="356.11"
       x2="150"
       y2="161.16"
       gradientUnits="userSpaceOnUse"><stop
         offset="0.11111111"
         stop-color="#995b3c"
         id="stop2"
         style="stop-color:#d2d2d3;stop-opacity:1;" /><stop
         offset="0.42696145"
         stop-color="#51291b"
         id="stop4"
         style="stop-color:#a4a4a5;stop-opacity:1;" /></linearGradient><linearGradient
       xlink:href="#linearGradient14215"
       id="linearGradient14217"
       x1="152.82039"
       y1="251.41016"
       x2="150.05249"
       y2="338.30457"
       gradientUnits="userSpaceOnUse"
       gradientTransform="translate(-2.03988)" /><linearGradient
       inkscape:collect="always"
       xlink:href="#A"
       id="linearGradient35"
       gradientUnits="userSpaceOnUse"
       x1="150"
       y1="356.11"
       x2="150"
       y2="161.16"
       gradientTransform="translate(0)" /><linearGradient
       id="A-0"
       x1="150"
       y1="356.11"
       x2="150"
       y2="161.16"
       gradientUnits="userSpaceOnUse"
       gradientTransform="translate(445.70588,-85.075164)"><stop
         offset="0"
         stop-color="#995b3c"
         id="stop1" /><stop
         offset=".69"
         stop-color="#51291b"
         id="stop2-6" /></linearGradient></defs><path
     id="path34-3"
     style="fill:#166068;stroke:#166068;stroke-width:9.28917;stroke-linejoin:round;stroke-opacity:1"
     d="m 135.38423,13.951409 c 2.43265,-4.1821405 9.67589,0.11855 14.51408,0.11886 4.91543,3.2e-4 12.23617,-4.3453505 14.7458,-0.11886 2.90501,4.89235 -7.83101,9.24953 -8.2909,14.92074 -0.71225,8.78315 8.24147,16.46642 8.94922,24.8751 h -30.60487 c 0.94076,-8.6201 9.65332,-16.82763 8.74583,-25.89207 -0.53364,-5.33023 -10.7526,-9.27328 -8.05916,-13.90377 z"
     sodipodi:nodetypes="aaaaccaa" /><path
     id="path18"
     style="display:none;fill:#2697a3;fill-opacity:1;fill-rule:evenodd;stroke-width:1.00257"
     d="M 150,33.308594 A 56.323334,65.886543 0 0 0 129.35352,38.060848 33.566429,30.30781 0 0 0 116.43359,61.937477 33.566429,30.30781 0 0 0 150,92.246952 33.566429,30.30781 0 0 0 183.56641,61.937477 33.566429,30.30781 0 0 0 170.08984,37.662753 56.323334,65.886543 0 0 0 150,33.308594 Z" /><path
     id="path19"
     style="display:none;fill:#166068;fill-opacity:1;fill-rule:evenodd;stroke-width:0.485811"
     class="UnoptimicedTransforms"
     d="M 115.24609,35.248047 A 24.595786,30.747837 44.327134 0 0 87.386719,52.378906 24.595786,30.747837 44.327134 0 0 93.955078,88.900391 24.595786,30.747837 44.327134 0 0 132.67578,73.912109 24.595786,30.747837 44.327134 0 0 126.10547,37.390625 24.595786,30.747837 44.327134 0 0 115.24609,35.248047 Z m 69.50782,0 a 30.747837,24.595786 45.672866 0 0 -10.85938,2.142578 30.747837,24.595786 45.672866 0 0 -6.57031,36.521484 30.747837,24.595786 45.672866 0 0 38.7207,14.988282 30.747837,24.595786 45.672866 0 0 6.56836,-36.521485 30.747837,24.595786 45.672866 0 0 -27.85937,-17.130859 z" /><path
     id="path21"
     style="display:none;fill:#ca0c43;fill-opacity:1;fill-rule:evenodd;stroke-width:0.485811"
     class="UnoptimicedTransforms"
     d="m 188.38672,31.20143 a 30.747837,24.595786 45.672866 0 0 -10.85938,2.144175 30.747837,24.595786 45.672866 0 0 -6.57031,36.521027 30.747837,24.595786 45.672866 0 0 38.72071,14.988196 30.747837,24.595786 45.672866 0 0 6.56835,-36.521029 30.747837,24.595786 45.672866 0 0 -27.85937,-17.132369 z m -75.80274,2.62416 A 23.744942,31.849613 42.719233 0 0 83.753906,53.005788 23.744942,31.849613 42.719233 0 0 90.322263,89.062593 23.744942,31.849613 42.719233 0 0 129.04297,71.345131 23.744942,31.849613 42.719233 0 0 122.47265,35.288322 23.744942,31.849613 42.719233 0 0 112.58398,33.82559 Z" /><path
     id="path22"
     style="display:none;fill:#ac0b3d;fill-opacity:1;fill-rule:evenodd;stroke-width:0.423573"
     d="m 206.37109,51.060547 c 4.99737,9.903391 3.14888,19.532171 -4.64453,20.564453 -13.98837,1.85284 -36.27894,-19.646614 -27.84961,-3.484375 7.74105,12.947395 22.85581,19.861618 33.75977,15.445313 10.90314,-4.416087 13.46677,-18.488943 5.72656,-31.435547 -0.80276,-0.371102 -1.54098,-0.728523 -2.29883,-1.089844 z" /><path
     style="display:none;fill:#ac0b3d;fill-opacity:1;fill-rule:evenodd;stroke-width:0.444209"
     d="m 114.06445,35.378906 c -0.39985,0.0065 -0.80203,0.0234 -1.20703,0.05078 -10.012,0.672221 -20.416268,7.593633 -26.361326,17.537109 -8.117325,13.577364 -5.428486,28.337511 6.005859,32.96875 11.435197,4.631469 27.286107,-2.621026 35.404297,-16.199219 3.44307,-5.779003 5.06206,-12.063109 4.57227,-17.75 -0.2463,3.787955 -1.52919,7.741535 -3.70899,11.425781 C 122.14589,74.490261 110.99662,77.872459 102.49805,73.8125 94.910067,70.187552 88.359992,60.80808 94.982422,49.730469 99.760994,41.75469 108.06455,36.154487 116.12891,35.470703 c -0.28897,-0.03267 -0.57987,-0.05918 -0.87305,-0.08008 -0.394,-0.01429 -0.79155,-0.01827 -1.19141,-0.01172 z"
     id="path23" /><path
     id="path24"
     style="display:none;fill:#ff89ab;fill-opacity:1;fill-rule:evenodd;stroke-width:0.653846"
     d="m 198.31445,33.351562 c -13.08454,3.845705 -15.94498,23.360391 -3.73381,30.135309 8.03071,5.391208 19.86537,4.161002 26.34709,-3.111871 -2.15751,-12.128177 -11.23887,-22.553046 -22.61328,-27.023438 z m -85.73047,0.47461 c -14.611478,0.606537 -18.551531,23.106609 -5.61762,29.661322 8.10092,5.428181 20.07567,4.140649 26.52387,-3.288275 4.02438,-13.380499 -6.38606,-28.32873 -20.90625,-26.373047 z" /><path
     d="M 263.62,345 H 36.38 A 36.38,36.38 0 0 1 0,308.62 v -49.48 h 300 v 49.48 A 36.38,36.38 0 0 1 263.62,345 Z"
     fill="url(#A)"
     id="path9"
     style="fill:url(#linearGradient35)" /><path
     id="path14539"
     style="color:#000000;fill:#166068;fill-opacity:1;stroke-width:5;stroke-linecap:square;stroke-linejoin:round;stroke:#166068;stroke-opacity:1;stroke-dasharray:none"
     d="m 225.68359,152.06836 v 7.77539 c 3.53327,0.48636 6.67309,1.53162 9.10352,3.37109 6.91615,5.23451 8.33333,17.61248 4.21289,25.67774 -2.35165,4.60307 0.40886,12.6146 1.28906,15.47265 l 10.09961,-6.84961 c -0.044,-14.60628 0.25781,-35.18359 0.25781,-35.18359 0.97878,-2.63579 -3.69603,-7.0696 -6.5039,-7.1875 z" /><path
     id="rect14548"
     style="fill:#2697a3;fill-opacity:1;stroke-width:5;stroke-linecap:square;stroke-linejoin:round;stop-color:#000000;stroke:#2697a3;stroke-opacity:1;stroke-dasharray:none"
     d="m 188.82031,145.92578 c -4.8621,0.80566 -17.25756,23.11807 -8.7832,23.4707 0,0 40.10518,-17.26559 54.75,-6.18164 1.04303,0.78942 1.94552,1.75697 2.73828,2.83203 4.90008,0.76929 9.30264,0.29807 13.09766,-1.69531 0.003,-0.27052 0.0234,-2.01953 0.0234,-2.01953 0.97878,-2.63579 -3.69603,-7.0696 -6.50391,-7.1875 z" /><path
     id="path14615"
     d="m 49.61199,197.51614 c 0.044,-14.6063 -0.25853,-35.18402 -0.25853,-35.18402 -0.97878,-2.63579 3.69682,-7.06926 6.5047,-7.18716 l 55.32105,-9.21909 c 4.8621,0.80566 17.25872,23.11866 8.78435,23.47129 0,0 -40.10654,-17.26558 -54.75138,-6.18162 -6.91615,5.23451 -8.33352,17.61254 -4.21308,25.67781 2.35166,4.60308 -0.40729,12.61375 -1.28748,15.47181 z"
     style="color:#000000;fill:#166068;fill-opacity:1;stroke-width:5;stroke-linecap:square;stroke-linejoin:round;stroke:#166068;stroke-opacity:1;stroke-dasharray:none" /><path
     d="m 182.04525,155.37097 h -64.0905 C 66.00684,155.37097 0,237.16936 0,266.48904 v 11.35789 C 0,289.18703 16.28787,298.38 36.38,298.38 h 227.24 c 20.09212,0 36.38,-9.19297 36.38,-20.53307 V 266.48904 C 300,237.16936 233.99316,155.37097 182.04525,155.37097 Z"
     fill="#995b3c"
     id="path13"
     style="fill:#d3d3d4;fill-opacity:1;stroke-width:0.751269" /><path
     id="path14617"
     d="m 111.17969,145.92578 c 3.02317,1.11989 4.74232,4.19084 6.53085,6.68925 2.50243,4.21083 5.1413,8.81423 5.115,13.85259 -0.17472,3.99121 -4.40344,2.78947 -6.6603,1.40857 -11.62756,-4.31119 -23.7338,-8.02724 -36.21939,-8.37151 -6.12144,-0.0545 -13.18261,0.96324 -17.16875,6.14422 -2.29024,1.19329 -5.46101,0.72561 -8.07954,0.4685 -1.97634,-0.64648 -5.96225,-0.61407 -5.34083,-3.50786 -0.62633,-3.0215 2.10926,-5.45288 4.46878,-6.83207 2.32772,-0.94188 4.91459,-1.00713 7.36801,-1.52213 16.66205,-2.77652 33.32411,-5.55304 49.98617,-8.32956 z"
     style="fill:#2697a3;fill-opacity:1;stroke-width:5;stroke-linecap:square;stroke-linejoin:round;stop-color:#000000;stroke:#2697a3;stroke-opacity:1;stroke-dasharray:none" /><path
     id="rect7854"
     style="fill:url(#linearGradient14217);fill-opacity:1;stroke-width:7.33848;stroke-linecap:square;stroke-linejoin:round;stop-color:#000000"
     d="m 149.9692,247.93359 c -0.9944,0.0525 -1.98832,3.84747 -2.61792,11.33399 -3.57419,42.50076 -8.73359,75.22178 -17.48979,85.73242 h 40.27702 c -14.1612,-17.84911 -14.81873,-53.2471 -17.55441,-85.94531 -0.62605,-7.4829 -1.62052,-11.17363 -2.6149,-11.1211 z" /><path
     id="rect9123"
     style="fill:#183c45;stroke-width:4.1091;stroke-linecap:square;stroke-linejoin:round;stop-color:#000000"
     class="UnoptimicedTransforms"
     d="m 164.66224,335.9082 c -1.99934,4.33836 -4.15366,7.43273 -9.12511,8.99024 h 14.52173 c -2.07627,-2.63615 -3.85424,-5.66023 -5.39662,-8.99024 z m -30.21115,0.83203 c -1.38796,3.43097 -2.88673,6.17961 -4.50996,8.15821 h 13.23983 c -4.64699,-1.45586 -6.83148,-4.25621 -8.72987,-8.15821 z" /><path
     id="path14334"
     style="color:#000000;fill:#166068;fill-opacity:1;stroke-width:5;stroke-linecap:square;stroke-linejoin:round;stroke:#166068;stroke-opacity:1;stroke-dasharray:none"
     d="m 63.24609,63.431637 c -3.90504,-0.03533 -4.04007,7.68157 5.16016,24.27539 0.0442,14.606293 -18.47266,39.736333 -18.47266,39.736333 -0.98452,2.63579 3.7186,7.06765 6.54297,7.18555 l 37.13672,10.9082 V 132.25586 C 82.06656,133.412 70.16882,132.81144 65.88476,126.55859 58.88692,116.3448 75.71473,104.39534 79.85937,96.330074 82.22484,91.726998 79.44982,83.715482 78.56445,80.857418 73.07175,69.528919 66.69171,63.462806 63.24609,63.431637 Z" /><path
     id="rect14394"
     style="fill:#2697a3;fill-opacity:1;stroke-width:5;stroke-linecap:square;stroke-linejoin:round;stop-color:#000000;stroke:#2697a3;stroke-opacity:1;stroke-dasharray:none"
     d="m 64.68359,124.14453 c -4.05772,-4.01676 -8.68739,-3.12436 -13.75391,1.89844 -2.28833,1.97337 -0.43824,4.95109 1.39469,6.46569 1.46215,1.56332 3.52338,2.00221 5.49446,2.51449 17.76417,5.21754 35.52833,10.43509 53.29249,15.65263 3.03473,-1.11556 4.76956,-4.1877 6.56952,-6.68925 2.51464,-4.20722 5.17129,-8.8094 5.14574,-13.85259 -0.0911,-3.67126 -4.13302,-2.99181 -6.44215,-1.98802 -11.77598,2.82065 -23.87873,5.15064 -36.04102,4.42645 -5.29069,-0.47496 -11.47944,-1.56087 -14.65538,-6.31233 -0.41929,-0.66086 -0.75585,-1.37354 -1.00444,-2.11551 z" /><g
     id="g14537"
     transform="translate(-2.03988)"><path
       id="path14527"
       d="m 233.6344,87.707296 c -0.0442,14.606304 18.47192,39.735404 18.47192,39.735404 0.98452,2.63579 -3.71854,7.06926 -6.54291,7.18716 l -54.63418,16.04616 c -4.89066,-0.80566 -17.36008,-23.11866 -8.83595,-23.47129 0,0 44.80441,12.86538 54.06117,-0.64545 6.99785,-10.2138 -9.8294,-22.16392 -13.97404,-30.229192 -2.36547,-4.603081 0.40968,-12.613745 1.29505,-15.471812 11.71777,-24.167488 27.47702,-24.386437 10.15894,6.84902 z"
       style="color:#000000;fill:#166068;fill-opacity:1;stroke-width:0.992226;stroke-linecap:square;stroke-linejoin:round" /><path
       id="path14529"
       d="m 237.35628,124.14453 c 4.05772,-4.01676 8.68739,-3.12436 13.75391,1.89844 2.28833,1.97337 0.43824,4.95109 -1.39469,6.46569 -1.46215,1.56332 -3.52337,2.00221 -5.49446,2.51449 -17.76416,5.21754 -35.52833,10.43509 -53.29249,15.65263 -3.03473,-1.11556 -4.76956,-4.1877 -6.56952,-6.68925 -2.51464,-4.20722 -5.17129,-8.8094 -5.14574,-13.85259 0.0911,-3.67126 4.13302,-2.99181 6.44215,-1.98802 11.77598,2.82065 23.87874,5.15064 36.04102,4.42645 5.29069,-0.47496 11.47944,-1.56087 14.65538,-6.31233 0.41929,-0.66086 0.75586,-1.37354 1.00444,-2.11551 z"
       style="fill:#2697a3;fill-opacity:1;stroke-width:9.84036;stroke-linecap:square;stroke-linejoin:round;stop-color:#000000" /></g><path
     id="path7319"
     style="color:#000000;fill:#166068;fill-opacity:1;stroke-width:5;stroke-linecap:square;stroke-linejoin:round;stroke:#166068;stroke-opacity:1;stroke-dasharray:none"
     d="m 236.75391,63.431637 c -3.44563,0.03117 -9.82566,6.097282 -15.31836,17.425781 -0.88537,2.858064 -3.66039,10.86958 -1.29493,15.472656 4.14464,8.065266 20.97246,20.014726 13.97461,30.228516 -3.83788,5.60163 -13.7888,6.66569 -24.12109,5.9961 v 11.92187 l 33.5293,-9.84765 c 2.82436,-0.1179 7.52749,-4.54976 6.54297,-7.18555 0,0 -18.51686,-25.13004 -18.47266,-39.736333 9.20023,-16.59382 9.0652,-24.310715 5.16016,-24.27539 z" /><path
     id="path7321"
     d="m 235.3164,124.14453 c 4.05772,-4.01676 8.68739,-3.12436 13.75391,1.89844 2.28833,1.97337 0.43824,4.95109 -1.39469,6.46569 -1.46214,1.56332 -3.52337,2.00221 -5.49446,2.51449 -17.76416,5.21754 -35.52833,10.43509 -53.29249,15.65263 -3.03473,-1.11556 -4.76956,-4.1877 -6.56952,-6.68925 -2.51464,-4.20722 -5.17129,-8.8094 -5.14574,-13.85259 0.0911,-3.67126 4.13302,-2.99181 6.44215,-1.98802 11.77598,2.82065 23.87874,5.15064 36.04102,4.42645 5.29069,-0.47496 11.47944,-1.56087 14.65538,-6.31233 0.41929,-0.66086 0.75586,-1.37354 1.00444,-2.11551 z"
     style="fill:#2697a3;fill-opacity:1;stroke-width:5;stroke-linecap:square;stroke-linejoin:round;stop-color:#000000;stroke:#2697a3;stroke-opacity:1;stroke-dasharray:none" /><path
     id="path9781"
     style="fill:#9c9ea0;fill-opacity:1;fill-rule:evenodd;stroke-width:0.954198"
     d="M 207.54369,177.24568 C 203.10972,147.0763 181.7805,106.13036 150,106.13036 c -31.78051,0 -53.10972,40.94594 -57.5437,71.11532 -2.15681,14.67524 6.81904,30.2604 16.85416,41.18336 10.30852,11.22054 24.79929,20.82919 40.68954,20.82919 15.89025,0 30.38102,-9.60865 40.68953,-20.82919 10.03512,-10.92296 19.01097,-26.50811 16.85416,-41.18336 z" /><ellipse
     style="fill:#166068;fill-opacity:1;fill-rule:evenodd"
     id="path5575"
     cx="149.99998"
     cy="90.200531"
     rx="56.323334"
     ry="56.892254" /><path
     id="path11157"
     style="fill:#2697a3;fill-opacity:1;fill-rule:evenodd;stroke-width:1.00257"
     d="M 150,33.30859 A 56.323334,65.886543 0 0 0 129.35352,38.060844 33.566429,30.30781 0 0 0 116.43359,61.937473 33.566429,30.30781 0 0 0 150,92.246948 33.566429,30.30781 0 0 0 183.56641,61.937473 33.566429,30.30781 0 0 0 170.08984,37.662749 56.323334,65.886543 0 0 0 150,33.30859 Z" /><path
     id="path13916"
     style="fill:#166068;fill-opacity:1;fill-rule:evenodd;stroke-width:0.485811"
     class="UnoptimicedTransforms"
     d="m 115.24609,35.248043 a 24.595786,30.747837 44.327134 0 0 -27.85937,17.130859 24.595786,30.747837 44.327134 0 0 6.56835,36.521485 24.595786,30.747837 44.327134 0 0 38.72071,-14.988282 24.595786,30.747837 44.327134 0 0 -6.57031,-36.521484 24.595786,30.747837 44.327134 0 0 -10.85938,-2.142578 z m 69.50782,0 a 30.747837,24.595786 45.672866 0 0 -10.85938,2.142578 30.747837,24.595786 45.672866 0 0 -6.57031,36.521484 30.747837,24.595786 45.672866 0 0 38.7207,14.988282 30.747837,24.595786 45.672866 0 0 6.56836,-36.521485 30.747837,24.595786 45.672866 0 0 -27.85937,-17.130859 z" /><path
     id="path4745"
     style="fill:#688a9f;fill-rule:evenodd;stroke-width:0.954198"
     d="M 207.54369,171.24568 C 203.10972,141.0763 181.7805,100.13036 150,100.13036 c -31.78051,0 -53.10972,40.94594 -57.5437,71.11532 -2.15681,14.67524 6.81904,30.2604 16.85416,41.18336 10.30852,11.22054 24.79929,20.82919 40.68954,20.82919 15.89025,0 30.38102,-9.60865 40.68953,-20.82919 10.03512,-10.92296 19.01097,-26.50811 16.85416,-41.18336 z" /><path
     id="ellipse5577"
     style="fill:#ca0c43;fill-opacity:1;fill-rule:evenodd;stroke-width:0.485811"
     class="UnoptimicedTransforms"
     d="m 188.38671,31.201426 a 30.747837,24.595786 45.672866 0 0 -10.85937,2.144175 30.747837,24.595786 45.672866 0 0 -6.57031,36.521027 30.747837,24.595786 45.672866 0 0 38.7207,14.988196 30.747837,24.595786 45.672866 0 0 6.56836,-36.521029 30.747837,24.595786 45.672866 0 0 -27.85938,-17.132369 z m -75.80273,2.62416 a 23.744942,31.849613 42.719233 0 0 -28.83008,19.180198 23.744942,31.849613 42.719233 0 0 6.56836,36.056805 23.744942,31.849613 42.719233 0 0 38.72071,-17.717462 23.744942,31.849613 42.719233 0 0 -6.57032,-36.056809 23.744942,31.849613 42.719233 0 0 -9.88867,-1.462732 z" /><path
     id="path14201"
     style="fill:#ac0b3d;fill-opacity:1;fill-rule:evenodd;stroke-width:0.423573"
     d="m 206.37109,51.060543 c 4.99737,9.903391 3.14888,19.532171 -4.64453,20.564453 -13.98837,1.85284 -36.27894,-19.646614 -27.84961,-3.484375 7.74105,12.947395 22.85581,19.861618 33.75977,15.445313 10.90314,-4.416087 13.46677,-18.488943 5.72656,-31.435547 -0.80276,-0.371102 -1.54098,-0.728523 -2.29883,-1.089844 z" /><path
     style="fill:#ac0b3d;fill-opacity:1;fill-rule:evenodd;stroke-width:0.444209"
     d="m 114.06445,35.378902 c -0.39985,0.0065 -0.80203,0.0234 -1.20703,0.05078 -10.012,0.672221 -20.41627,7.593633 -26.36133,17.537109 -8.11732,13.577364 -5.42849,28.337511 6.00586,32.96875 11.4352,4.631469 27.28611,-2.621026 35.4043,-16.199219 3.44307,-5.779003 5.06206,-12.063109 4.57227,-17.75 -0.2463,3.787955 -1.52919,7.741535 -3.70899,11.425781 -6.62364,11.078154 -17.77291,14.460352 -26.27148,10.400393 -7.58799,-3.624948 -14.13806,-13.00442 -7.51563,-24.082031 4.77857,-7.975779 13.08213,-13.575982 21.14649,-14.259766 -0.28897,-0.03267 -0.57987,-0.05918 -0.87305,-0.08008 -0.394,-0.01429 -0.79155,-0.01827 -1.19141,-0.01172 z"
     id="path14189" /><path
     id="path7242"
     style="fill:#ff89ab;fill-opacity:1;fill-rule:evenodd;stroke-width:0.653846"
     d="m 198.31445,33.351558 c -13.08454,3.845705 -15.94498,23.360391 -3.73381,30.135309 8.03071,5.391208 19.86537,4.161002 26.34709,-3.111871 C 218.77022,48.246819 209.68886,37.82195 198.31445,33.351558 Z m -85.73047,0.47461 c -14.61148,0.606537 -18.55153,23.106609 -5.61762,29.661322 8.10092,5.428181 20.07567,4.140649 26.52387,-3.288275 4.02438,-13.380499 -6.38606,-28.32873 -20.90625,-26.373047 z" /><ellipse
     style="fill:#30bcce;fill-opacity:1;fill-rule:evenodd;stroke-width:1.09289"
     id="path8448"
     cx="192.87862"
     cy="83.414894"
     rx="35.360447"
     ry="46.531517"
     transform="matrix(0.92431276,0.38163585,-0.41171044,0.91131472,0,0)" /><path
     id="path12544"
     style="color:#000000;fill:#4ba7b3;fill-opacity:1;stroke-linecap:square;stroke-linejoin:round"
     d="m 149.94531,121.64648 c -14.45793,0.26544 -28.57991,4.50999 -41.57617,10.66016 -2.10262,3.67636 -6.58749,10.53265 -6.30203,12.69491 10.73999,-6.04298 23.40898,-4.34731 35.14283,-3.56265 16.48723,1.30941 33.06975,-5.99666 49.34715,-0.90432 4.60724,1.38711 8.92564,3.65384 12.79447,6.50253 -2.90581,-5.2778 -4.55374,-12.23731 -9.55383,-15.76189 -12.24422,-6.36424 -26.01543,-9.95318 -39.85242,-9.62874 z m 0.82422,49.0586 c -20.49513,0.28322 -39.94283,8.5709 -57.15625,19.1582 1.32676,3.14786 1.86188,10.6273 6.18524,6.12544 16.70015,-9.40374 36.33285,-9.53584 54.92925,-10.7456 14.08213,-1.00167 28.90973,0.86366 40.90473,8.83201 3.33258,1.24606 7.63803,8.28798 8.69895,1.6646 4.6964,-6.5143 -5.57392,-8.83238 -9.48508,-12.37818 -13.18619,-8.11103 -28.51913,-12.95423 -44.07684,-12.65647 z" /><path
     id="path12530"
     style="color:#000000;fill:#166068;fill-opacity:1;stroke-linecap:square;stroke-linejoin:round"
     d="m 181.1543,132.37109 c 5.97293,2.63753 12.02772,6.13865 18.19726,10.66602 -2.21861,-5.13007 -4.81963,-10.13947 -7.78125,-14.82617 -4.50674,-2.43684 -8.99975,-4.41726 -13.47461,-5.98438 a 35.315668,46.565512 26.862071 0 1 0.9375,1.97266 35.315668,46.565512 26.862071 0 1 1.5625,4.98437 35.315668,46.565512 26.862071 0 1 0.5586,3.1875 z" /><path
     id="path12625"
     style="color:#000000;fill:#166068;fill-opacity:1;stroke-linecap:square;stroke-linejoin:round"
     d="m 167.98242,176.9375 c 11.38712,2.72018 22.90714,8.52771 34.74024,18.29883 1.31859,-2.63382 2.43325,-5.34175 3.28711,-8.08985 -10.93419,-8.61817 -21.92349,-14.28573 -32.87696,-17.42578 a 35.315668,46.565512 26.862071 0 1 -0.58789,0.96289 35.315668,46.565512 26.862071 0 1 -1.17773,1.78711 35.315668,46.565512 26.862071 0 1 -1.23633,1.74024 35.315668,46.565512 26.862071 0 1 -1.29102,1.6875 35.315668,46.565512 26.862071 0 1 -0.85742,1.03906 z" /><path
     id="path12623"
     style="color:#000000;fill:#166068;fill-opacity:1;stroke-linecap:square;stroke-linejoin:round"
     d="m 109.79492,177.05859 c -5.42984,2.55538 -10.82211,5.51458 -16.18164,8.80469 0.75574,2.70926 1.77103,5.38526 2.99609,7.9961 5.90766,-3.68863 11.80031,-6.92007 17.67774,-9.62891 a 35.315668,46.565512 26.862071 0 1 -0.55664,-0.5918 35.315668,46.565512 26.862071 0 1 -2.72656,-4.03515 35.315668,46.565512 26.862071 0 1 -1.20899,-2.54493 z" /><path
     id="path12621"
     style="color:#000000;fill:#27828c;fill-opacity:1;stroke-linecap:square;stroke-linejoin:round"
     d="m 109.79492,177.05859 a 35.315668,46.565512 26.862071 0 0 1.20899,2.54493 35.315668,46.565512 26.862071 0 0 2.72656,4.03515 35.315668,46.565512 26.862071 0 0 0.55664,0.5918 c 11.00374,-5.07149 21.95222,-8.28021 32.83203,-9.00977 6.93262,-0.46486 13.87278,0.0469 20.86328,1.7168 a 35.315668,46.565512 26.862071 0 0 0.85742,-1.03906 35.315668,46.565512 26.862071 0 0 1.29102,-1.6875 35.315668,46.565512 26.862071 0 0 1.23633,-1.74024 35.315668,46.565512 26.862071 0 0 1.17773,-1.78711 35.315668,46.565512 26.862071 0 0 0.58789,-0.96289 c -6.06364,-1.73827 -12.11644,-2.71264 -18.14258,-2.95898 -1.40847,-0.0576 -2.8154,-0.0759 -4.2207,-0.0566 -1.4053,0.0192 -2.80902,0.0759 -4.21094,0.16992 -12.47415,0.83646 -24.71142,4.5116 -36.76367,10.18359 z" /><path
     id="path12619"
     style="color:#000000;fill:#166068;fill-opacity:1;stroke-linecap:square;stroke-linejoin:round"
     d="m 118.62891,123.98828 c -3.43911,1.28119 -6.8595,2.71476 -10.25977,4.31836 -2.62014,4.15712 -4.9671,8.56198 -7.00586,13.08398 3.28147,-1.86185 6.56,-3.55708 9.83789,-5.125 a 35.315668,46.565512 26.862071 0 1 0.0527,-0.13476 35.315668,46.565512 26.862071 0 1 2.77929,-5.41797 35.315668,46.565512 26.862071 0 1 3.29297,-5.0957 35.315668,46.565512 26.862071 0 1 1.30274,-1.62891 z" /><path
     id="path12617"
     style="color:#000000;fill:#27828c;fill-opacity:1;stroke-linecap:square;stroke-linejoin:round"
     d="m 118.62891,123.98828 a 35.315668,46.565512 26.862071 0 0 -1.30274,1.62891 35.315668,46.565512 26.862071 0 0 -3.29297,5.0957 35.315668,46.565512 26.862071 0 0 -2.77929,5.41797 35.315668,46.565512 26.862071 0 0 -0.0527,0.13476 c 11.7214,-5.60671 23.42548,-9.25169 35.14453,-10.08593 11.4212,-0.81305 22.95055,0.95514 34.8086,6.1914 a 35.315668,46.565512 26.862071 0 0 -0.5586,-3.1875 35.315668,46.565512 26.862071 0 0 -1.5625,-4.98437 35.315668,46.565512 26.862071 0 0 -0.9375,-1.97266 c -8.04606,-2.81777 -16.03381,-4.28345 -23.93945,-4.55078 -1.40628,-0.0476 -2.81026,-0.0564 -4.21094,-0.0293 -1.40067,0.0271 -2.79804,0.0901 -4.19336,0.18946 -9.20225,0.65508 -18.23019,2.83943 -27.12304,6.15234 z" /><path
     id="rect11766"
     style="fill:#e3e3e3;stroke-width:8.366;stroke-linecap:square;stroke-linejoin:round;stop-color:#000000"
     d="m 226.48828,171.375 c 49.42577,43.47139 35.10397,70.63618 17.66992,97.00391 -7.54784,11.41555 -6.42749,22.61038 0.66211,30.00195 h 18.79883 c 20.0921,0 36.38086,-9.19312 36.38086,-20.5332 v -11.35938 c 0,-21.05418 -34.03677,-69.1662 -72.46289,-94.62109 -0.35252,-0.16162 -0.69422,-0.3324 -1.04883,-0.49219 z"
     class="UnoptimicedTransforms" /><path
     class="UnoptimicedTransforms"
     id="path11897"
     d="m 73.51172,171.375 c -49.42577,43.47139 -35.10397,70.63618 -17.66992,97.00391 7.54784,11.41555 6.42749,22.61038 -0.66211,30.00195 H 36.38086 C 16.28876,298.38086 0,289.18774 0,277.84766 v -11.35938 c 0,-21.05418 34.03677,-69.1662 72.46289,-94.62109 0.35252,-0.16162 0.69422,-0.3324 1.04883,-0.49219 z"
     style="fill:#e3e3e3;stroke-width:8.366;stroke-linecap:square;stroke-linejoin:round;stop-color:#000000" /><ellipse
     style="fill:#94f3ff;fill-opacity:1;fill-rule:evenodd;stroke-width:0.763763"
     id="ellipse13844"
     cx="24.228403"
     cy="213.65482"
     rx="16.896137"
     ry="13.024107"
     transform="rotate(-40.07489)" /><ellipse
     style="fill:#94f3ff;fill-opacity:1;fill-rule:evenodd;stroke-width:0.368053"
     id="ellipse13846"
     cx="-197.47243"
     cy="-20.139282"
     rx="8.142148"
     ry="6.2762399"
     transform="matrix(-0.76520362,-0.64378834,-0.64378834,0.76520362,0,0)" /><ellipse
     style="fill:#94f3ff;fill-opacity:1;fill-rule:evenodd;stroke-width:0.597148"
     id="path13426"
     cx="-3.8668275"
     cy="246.826"
     rx="13.210247"
     ry="10.182899"
     transform="rotate(-40.07489)" /><g
     id="g14543"
     transform="matrix(1.1246076,0,0,-1,-24.368092,296.60189)" /></svg>
