<?xml version="1.0" encoding="UTF-8" standalone="no"?>
<svg
   viewBox="0 0 300 345"
   version="1.1"
   id="svg53"
   sodipodi:docname="Giraffe.svg"
   inkscape:version="1.2 (dc2aedaf03, 2022-05-15)"
   xmlns:inkscape="http://www.inkscape.org/namespaces/inkscape"
   xmlns:sodipodi="http://sodipodi.sourceforge.net/DTD/sodipodi-0.dtd"
   xmlns="http://www.w3.org/2000/svg"
   xmlns:svg="http://www.w3.org/2000/svg">
  <sodipodi:namedview
     id="namedview55"
     pagecolor="#505050"
     bordercolor="#ffffff"
     borderopacity="1"
     inkscape:showpageshadow="0"
     inkscape:pageopacity="0"
     inkscape:pagecheckerboard="1"
     inkscape:deskcolor="#505050"
     showgrid="false"
     inkscape:zoom="1.7577085"
     inkscape:cx="140.23941"
     inkscape:cy="273.08283"
     inkscape:window-width="1366"
     inkscape:window-height="705"
     inkscape:window-x="-8"
     inkscape:window-y="-8"
     inkscape:window-maximized="1"
     inkscape:current-layer="svg53" />
  <defs
     id="defs7">
    <inkscape:path-effect
       effect="mirror_symmetry"
       start_point="300,0.21627979"
       end_point="300,75.133432"
       center_point="300,37.674856"
       id="path-effect12453"
       is_visible="true"
       lpeversion="1.2"
       lpesatellites="#g12459"
       mode="vertical"
       discard_orig_path="false"
       fuse_paths="false"
       oposite_fuse="false"
       split_items="true"
       split_open="false"
       link_styles="false" />
    <inkscape:path-effect
       effect="mirror_symmetry"
       start_point="295.41501,94.610044"
       end_point="295.41501,129.86193"
       center_point="295.41501,112.23599"
       id="path-effect10669"
       is_visible="true"
       lpeversion="1.2"
       lpesatellites="#g10677"
       mode="vertical"
       discard_orig_path="false"
       fuse_paths="false"
       oposite_fuse="false"
       split_items="true"
       split_open="false"
       link_styles="false" />
    <inkscape:path-effect
       effect="mirror_symmetry"
       start_point="101.65591,241.11555"
       end_point="101.65591,339.95331"
       center_point="101.65591,290.53443"
       id="path-effect9418"
       is_visible="true"
       lpeversion="1.2"
       lpesatellites="#g9438"
       mode="vertical"
       discard_orig_path="false"
       fuse_paths="false"
       oposite_fuse="false"
       split_items="true"
       split_open="false"
       link_styles="false" />
    <inkscape:path-effect
       effect="mirror_symmetry"
       start_point="300.41286,129.56913"
       end_point="300.41286,236.51"
       center_point="300.41286,183.03957"
       id="path-effect6365"
       is_visible="true"
       lpeversion="1.2"
       lpesatellites="#path6367"
       mode="vertical"
       discard_orig_path="false"
       fuse_paths="false"
       oposite_fuse="false"
       split_items="true"
       split_open="false"
       link_styles="false" />
    <inkscape:path-effect
       effect="mirror_symmetry"
       start_point="115.64318,0"
       end_point="115.64318,51.62157"
       center_point="115.64318,25.810785"
       id="path-effect6148"
       is_visible="true"
       lpeversion="1.2"
       lpesatellites="#g6154"
       mode="vertical"
       discard_orig_path="false"
       fuse_paths="false"
       oposite_fuse="false"
       split_items="true"
       split_open="false"
       link_styles="false" />
    <linearGradient
       id="A"
       x1="150"
       y1="356.11"
       x2="150"
       y2="161.16"
       gradientUnits="userSpaceOnUse">
      <stop
         offset="0"
         stop-color="#995b3c"
         id="stop2"
         style="stop-color:#f0c649;stop-opacity:1;" />
      <stop
         offset="0.69"
         stop-color="#51291b"
         id="stop4"
         style="stop-color:#a55508;stop-opacity:1;" />
    </linearGradient>
  </defs>
  <path
     d="M263.62,345H36.38A36.38,36.38,0,0,1,0,308.62V259.14H300v49.48A36.38,36.38,0,0,1,263.62,345Z"
     fill="url(#A)"
     id="path9" />
  <path
     d="M205.94,45H94.06A94.06,94.06,0,0,0,0,139.06V262a36.38,36.38,0,0,0,36.38,36.38H263.62A36.38,36.38,0,0,0,300,262V139.06A94.06,94.06,0,0,0,205.94,45Z"
     fill="#995b3c"
     id="path13"
     style="fill:#f0c649;fill-opacity:1" />
  <path
     d="M 188.7,173.4101 C 184.16443,161.88787 172.21752,154.20454 158.83,154.2 h -17.76 c -13.32881,0.0661 -25.19445,7.73818 -29.71,19.2101 -14.388839,39.87664 -53.550012,111.96992 -16.654286,139.32813 12.097146,8.69575 43.375696,18.51116 55.294286,18.48222 11.91859,-0.0289 43.26662,-9.89847 55.33429,-18.61943 C 228.902,288.306 218.39296,254.09941 210.33,231.25995 203.39,211.15338 194.79,188.81478 188.71,173.4101 Z"
     fill="#995b3c"
     id="path6369"
     style="fill:#af4403;fill-opacity:0.20833331;stroke-width:0.956434"
     sodipodi:nodetypes="ccccczcccc" />
  <path
     d="M 188.7,167.4101 C 184.16443,155.88787 172.21752,148.20454 158.83,148.2 h -17.76 c -13.32881,0.0661 -57.58678,7.73818 -62.10233,19.2101 -6.71283,18.60365 13.574973,44.21926 6.316977,69.03313 -8.299408,28.37427 -10.261694,55.70022 9.421067,70.295 12.097146,8.69575 43.375696,18.51116 55.294286,18.48222 11.91859,-0.0289 43.26662,-9.89847 55.33429,-18.61943 23.56771,-24.29502 13.05867,-58.50161 4.99571,-81.34107 -6.94,-20.10657 16.85233,-42.44517 10.77233,-57.84985 z"
     fill="#995b3c"
     id="path19"
     style="fill:#af5c28;fill-opacity:1;stroke-width:0.956434"
     sodipodi:nodetypes="ccccsczcccc" />
  <path
     id="rect3584"
     style="opacity:1;fill:#ae5b28;fill-opacity:1;stroke:#af5d29;stroke-width:1.067;stroke-linecap:round;stroke-dasharray:none;stroke-opacity:1;stop-color:#000000"
     class="UnoptimicedTransforms"
     d="m 94.060547,45 c -5.416737,0.0052 -10.822899,0.478327 -16.158203,1.414062 -0.118035,0.02047 -0.235633,0.04159 -0.353516,0.0625 -10.6667,1.903274 -20.924349,5.63525 -30.320312,11.03125 -0.123588,0.07115 -0.247861,0.141198 -0.371094,0.212891 -4.603874,2.673764 -8.972428,5.733581 -13.058594,9.146485 -0.149197,0.124701 -0.292995,0.255252 -0.441406,0.380859 -4.00797,3.387911 -7.72537,7.105311 -11.113281,11.113281 -0.12135,0.143461 -0.248637,0.281585 -0.369141,0.425781 -3.397706,4.071402 -6.445022,8.422844 -9.109375,13.007813 -0.09643,0.165526 -0.191665,0.33188 -0.287109,0.498047 -5.3501507,9.337361 -9.0582615,19.523591 -10.962891,30.115231 -0.036904,0.20646 -0.075774,0.41223 -0.1113281,0.61914 -0.90991098,5.23579 -1.37446391,10.53927 -1.3886719,15.85352 -2.49e-6,0.001 2.44e-6,0.003 0,0.004 v 0.004 L 0,139.06055 3.4135353,191.77254 c 5.5128421,-6.91047 10.3931117,-18.62567 16.9575587,-28.80184 15.550253,-18.59181 61.798745,1.59199 93.972656,57.17188 L 115.52539,45 Z m 90.414063,0 1.18164,175.14258 c 22.95424,-51.16113 78.25022,-75.92599 93.97266,-57.17188 6.29012,10.23506 12.40119,22.7499 18.66432,33.34623 L 300,139.06055 c -0.002,-0.0658 -0.004,-0.13152 -0.006,-0.19727 -0.005,-1.70681 -0.0565,-3.41318 -0.1543,-5.11719 -0.0319,-0.57176 -0.0908,-1.13609 -0.13281,-1.70507 -0.088,-1.24105 -0.20069,-2.48022 -0.33789,-3.7168 -0.0612,-0.53828 -0.13678,-1.07194 -0.20703,-1.60742 -0.17222,-1.31267 -0.37213,-2.62155 -0.59961,-3.92578 -0.0727,-0.41674 -0.14644,-0.83322 -0.22461,-1.24805 -0.29135,-1.54776 -0.62153,-3.08796 -0.99023,-4.61914 -0.0417,-0.17273 -0.0785,-0.34718 -0.1211,-0.51953 -1.33797,-5.38446 -3.14972,-10.63998 -5.41406,-15.70508 -0.0808,-0.18067 -0.16221,-0.36096 -0.24414,-0.54102 -0.67182,-1.475788 -1.3817,-2.933957 -2.12891,-4.373044 -0.117,-0.225309 -0.22889,-0.453497 -0.34765,-0.677734 -1.68144,-3.179645 -3.54387,-6.260226 -5.57813,-9.226563 -0.22824,-0.33232 -0.46879,-0.655154 -0.70117,-0.984375 -0.75699,-1.075473 -1.53646,-2.13495 -2.33789,-3.177734 -0.37104,-0.48161 -0.7488,-0.95749 -1.12891,-1.431641 -0.7182,-0.894218 -1.4527,-1.775224 -2.20312,-2.642578 -0.40706,-0.471541 -0.80841,-0.948811 -1.22461,-1.412109 -0.90388,-1.002219 -1.82922,-1.984869 -2.77539,-2.947266 -0.36374,-0.371612 -0.72199,-0.747718 -1.0918,-1.113281 -1.08943,-1.076562 -2.205,-2.126354 -3.3457,-3.148437 -0.44088,-0.395402 -0.89542,-0.774973 -1.34375,-1.16211 -0.88943,-0.770144 -1.79324,-1.523532 -2.71094,-2.259766 -0.47051,-0.376564 -0.94599,-0.747585 -1.42383,-1.115234 -1.027,-0.789037 -2.07019,-1.556779 -3.1289,-2.302734 -0.33806,-0.238617 -0.6704,-0.4845 -1.01172,-0.71875 -2.9925,-2.051704 -6.10122,-3.928538 -9.31055,-5.621094 -0.1281,-0.06763 -0.25827,-0.132165 -0.38672,-0.199219 -1.52531,-0.794216 -3.07212,-1.546452 -4.63867,-2.255859 -0.13476,-0.06116 -0.26919,-0.123052 -0.4043,-0.183594 -5.12485,-2.295063 -10.44492,-4.126596 -15.89648,-5.472656 -1.71708,-0.419072 -3.44564,-0.789661 -5.1836,-1.111328 -0.29674,-0.0553 -0.59486,-0.107646 -0.89257,-0.160156 -1.43546,-0.252861 -2.87661,-0.472321 -4.32227,-0.658204 -0.43547,-0.05605 -0.86933,-0.115943 -1.30664,-0.166015 -1.36755,-0.154411 -2.73832,-0.27879 -4.11133,-0.373047 -0.45058,-0.03174 -0.89729,-0.07619 -1.34961,-0.101563 C 209.50385,45.057452 207.72188,45.003394 205.93945,45 Z"
     sodipodi:nodetypes="cccccccccccccssccccccccccccccccsscccscscccccccccccccccccccccccccccc" />
  <rect
     style="opacity:1;fill:#af5c28;fill-opacity:1;stroke:none;stroke-width:0.167;stroke-linecap:round;stop-color:#000000"
     id="rect3647"
     width="76.885712"
     height="139.97144"
     x="110.4"
     y="42.057144" />
  <path
     d="m 199.9,90.865787 c 0,-11.71088 -2.5921,-23.641286 -8.29134,-33.435533 -0.28707,-0.506599 -0.59103,-0.996312 -0.90343,-1.486024 l -0.15198,-0.253299 0.0591,0.101319 -0.13509,-0.211082 0.0844,0.109763 c -0.0675,-0.10132 -0.12665,-0.20264 -0.19419,-0.295516 -7.87762,-12.200593 -20.93943,-20.711456 -40.35906,-20.711456 -18.57529,0 -31.3247,7.784738 -39.28675,19.132555 -0.36306,0.523486 -0.71768,1.046972 -1.06386,1.587344 -0.0675,0.08443 -0.12665,0.194196 -0.19419,0.295516 l 0.0844,-0.109763 c 0,0.06755 -0.0844,0.135093 -0.13509,0.211083 l 0.0591,-0.10132 c -0.0507,0.08443 -0.10132,0.168866 -0.16887,0.253299 l -0.89499,1.486024 c -5.69079,9.82802 -8.30822,21.733097 -8.30822,33.42709 0,23.489303 15.5357,41.709983 20.13731,46.573333 0.79367,0.84433 1.2665,1.30027 1.2665,1.30027 l 12.58054,-24.6967 -0.38839,25.32995 c 31.35847,-10.55415 33.18223,-22.8645 33.18223,-22.8645 l 4.22166,16.97106 a 46.978613,46.978613 0 0 0 8.64595,-4.93089 l 0.59104,-0.42217 C 188.75482,122.02162 199.9,110.28541 199.9,90.865787 Z"
     fill="#7b412e"
     id="path15"
     style="fill:#663723;fill-opacity:1;stroke-width:0.844332" />
  <g
     id="g6146"
     inkscape:path-effect="#path-effect6148"
     class="UnoptimicedTransforms">
    <path
       id="rect5360"
       style="opacity:1;fill:#af5d29;fill-opacity:1;stroke-width:0.12155;stroke-linecap:round;stop-color:#000000"
       d="m 91.654082,6.5959977 11.654898,1.19431 c -2.51213,6.8611463 3.59181,4.9739953 3.47947,9.7527653 -0.25332,10.776482 4.43803,18.606104 8.85473,34.078497 H 80.559709 c 4.467775,-14.511755 7.634052,-22.300314 7.788533,-32.102794 0.08326,-5.283503 5.240345,-5.100992 3.30584,-12.9227783 z"
       sodipodi:nodetypes="ccsccsc"
       inkscape:original-d="m 91.654082,6.5959977 11.654898,1.19431 c -2.51213,6.8611463 3.59181,4.9739953 3.47947,9.7527653 -0.25332,10.776482 4.43803,18.606104 8.85473,34.078497 H 80.559709 c 4.467775,-14.511755 7.634052,-22.300314 7.788533,-32.102794 0.08326,-5.283503 5.240345,-5.100992 3.30584,-12.9227783 z" />
    <path
       id="rect6089"
       style="opacity:1;fill:#3c2014;stroke-width:0.168416;stroke-linecap:round;stop-color:#000000"
       d="m 94.392804,0 h 6.222966 c 4.74336,0 8.56201,4.7953694 8.56201,10.751948 v 11.156768 c 0,5.956579 -3.81865,1.993676 -8.56201,1.993676 h -6.222966 c -4.743353,0 -8.56201,3.962903 -8.56201,-1.993676 V 10.751948 C 85.830794,4.7953694 89.649451,0 94.392804,0 Z"
       sodipodi:nodetypes="sssssssss"
       inkscape:original-d="m 94.392804,0 h 6.222966 c 4.74336,0 8.56201,4.7953694 8.56201,10.751948 v 11.156768 c 0,5.956579 -3.81865,1.993676 -8.56201,1.993676 h -6.222966 c -4.743353,0 -8.56201,3.962903 -8.56201,-1.993676 V 10.751948 C 85.830794,4.7953694 89.649451,0 94.392804,0 Z" />
  </g>
  <g
     class="UnoptimicedTransforms"
     id="g6154"
     transform="matrix(-1,0,0,1,300,0)">
    <path
       id="path6150"
       d="m 91.654082,6.5959977 11.654898,1.19431 c -2.51213,6.8611463 3.59181,4.9739953 3.47947,9.7527653 -0.25332,10.776482 4.43803,18.606104 8.85473,34.078497 H 80.559709 c 4.467775,-14.511755 7.634052,-22.300314 7.788533,-32.102794 0.08326,-5.283503 5.240345,-5.100992 3.30584,-12.9227783 z"
       style="opacity:1;fill:#af5d29;fill-opacity:1;stroke-width:0.12155;stroke-linecap:round;stop-color:#000000" />
    <path
       id="path6152"
       d="m 94.392804,0 h 6.222966 c 4.74336,0 8.56201,4.7953694 8.56201,10.751948 v 11.156768 c 0,5.956579 -3.81865,1.993676 -8.56201,1.993676 h -6.222966 c -4.743353,0 -8.56201,3.962903 -8.56201,-1.993676 V 10.751948 C 85.830794,4.7953694 89.649451,0 94.392804,0 Z"
       style="opacity:1;fill:#3c2014;stroke-width:0.168416;stroke-linecap:round;stop-color:#000000" />
  </g>
  <path
     d="m 199.9,75.414518 c 0,31.181172 -28.79171,42.588092 -28.79171,42.588092 V 86.534365 c 0,0 -0.7599,26.799085 -32.0846,37.370115 l 1.53668,-41.372246 -18.99746,40.739006 c 0,0 -21.40381,-20.31462 -21.40381,-47.873609 0,-27.558985 14.2101,-56.190271 49.8409,-56.190271 35.6308,0 49.9,28.648173 49.9,56.198714 z"
     fill="#e7bf9a"
     id="path17"
     style="fill:#7f5c38;fill-opacity:1;stroke-width:0.844332" />
  <path
     id="path21"
     style="fill:#c1662c;fill-opacity:1"
     class="UnoptimicedTransforms"
     d="M 150 150.94531 L 143.53516 150.99414 C 133.53518 151.05414 124.70592 159.49527 121.33594 172.11523 C 117.50413 186.42388 111.68505 221.79448 106.25195 249.20898 C 104.30217 259.04732 108.10644 260.93549 116.49805 255.47461 C 127.56481 248.27286 138.86656 245.14198 150 245.35352 C 161.13344 245.14198 172.43519 248.27286 183.50195 255.47461 C 191.89356 260.93549 195.69783 259.04732 193.74805 249.20898 C 188.31495 221.79448 182.49587 186.42388 178.66406 172.11523 C 175.29408 159.49527 166.46482 151.05414 156.46484 150.99414 L 150 150.94531 z " />
  <path
     d="m 191.03402,280.41654 a 11.697075,11.697075 0 1 0 -19.80388,-12.4512 c -3.44273,5.46738 0.40985,21.31212 0.40985,21.31212 0,0 15.9513,-3.38535 19.38583,-8.85273 z"
     fill="#663723"
     id="path23"
     style="stroke-width:0.819697;fill:#4c281b;fill-opacity:1" />
  <path
     d="m 188.68968,274.35078 a 11.565924,11.565924 0 0 0 1.73776,-7.24612 11.688878,11.688878 0 0 1 0.60658,13.31188 c -3.44273,5.47557 -19.38584,8.85272 -19.38584,8.85272 0,0 -0.65575,-2.74598 -1.19675,-6.33625 3.71322,-0.90167 15.36112,-3.99193 18.23825,-8.59043 z"
     fill="#4c281b"
     id="path25"
     style="stroke-width:0.819697;fill:#663723;fill-opacity:1" />
  <path
     d="m 108.96596,280.41654 a 11.697075,11.697075 0 1 1 19.80388,-12.4512 c 3.44272,5.46738 -0.40985,21.31212 -0.40985,21.31212 0,0 -15.9513,-3.38535 -19.38583,-8.85273 z"
     fill="#663723"
     id="path27"
     style="stroke-width:0.819697;fill:#4c281b;fill-opacity:1" />
  <path
     d="m 111.31029,274.35078 c 2.86894,4.5903 14.52503,7.70515 18.23826,8.59042 -0.5328,3.59028 -1.19676,6.33626 -1.19676,6.33626 0,0 -15.9513,-3.38535 -19.38583,-8.85273 a 11.688878,11.688878 0 0 1 0.60657,-13.31188 11.565924,11.565924 0 0 0 1.73776,7.24613 z"
     fill="#4c281b"
     id="path29"
     style="stroke-width:0.819697;fill:#663723;fill-opacity:1" />
  <path
     class="UnoptimicedTransforms"
     id="path6367"
     d="m 300.41286,183.03957 a 42.295734,53.470432 0 0 1 -42.29573,53.47043 42.295734,53.470432 0 0 1 -42.29574,-53.47043 42.295734,53.470432 0 0 1 42.29574,-53.47044 42.295734,53.470432 0 0 1 42.29573,53.47044 z"
     style="fill:#efd891;fill-opacity:1;stroke-width:1.3047"
     fill="#fff"
     transform="matrix(-1,0,0,1,300,0)" />
  <circle
     cx="43.98"
     cy="189.94"
     r="36.45"
     fill="#663723"
     id="circle31"
     style="fill:#663723;fill-opacity:1" />
  <circle
     cx="43.98"
     cy="200.06"
     r="36.45"
     fill="#fff"
     id="circle33" />
  <path
     d="M75.74 194.77a13.21 13.21 0 0 1-19.19-17.91 23 23 0 1 0 19.19 17.91zm-32 19.76a5.46 5.46 0 1 1 5.46-5.45 5.45 5.45 0 0 1-5.51 5.45z"
     fill="#414042"
     id="path35"
     style="fill:#874b2d;fill-opacity:1" />
  <path
     fill="#fff"
     id="circle6156"
     style="fill:#efd891;fill-opacity:1;stroke-width:1.3047"
     inkscape:path-effect="#path-effect6365"
     sodipodi:type="arc"
     sodipodi:cx="258.11713"
     sodipodi:cy="183.03957"
     sodipodi:rx="42.295734"
     sodipodi:ry="53.470432"
     d="m 300.41286,183.03957 a 42.295734,53.470432 0 0 1 -42.29573,53.47043 42.295734,53.470432 0 0 1 -42.29574,-53.47043 42.295734,53.470432 0 0 1 42.29574,-53.47044 42.295734,53.470432 0 0 1 42.29573,53.47044 z"
     class="UnoptimicedTransforms" />
  <circle
     cx="256.02"
     cy="189.94"
     r="36.45"
     fill="#663723"
     id="circle37"
     style="fill:#663723;fill-opacity:1" />
  <circle
     cx="256.02"
     cy="200.06"
     r="36.45"
     fill="#fff"
     id="circle39" />
  <path
     d="M269.07 194.64A13.22 13.22 0 0 1 250 176.87a24.25 24.25 0 0 0-3.32-.24 23 23 0 1 0 22.39 18zm-32.2 19.9a5.46 5.46 0 1 1 5.45-5.45 5.45 5.45 0 0 1-5.45 5.45z"
     fill="#414042"
     id="path41"
     style="fill:#874b2d;fill-opacity:1" />
  <g
     id="g9416"
     inkscape:path-effect="#path-effect9418"
     class="UnoptimicedTransforms">
    <path
       id="rect7866"
       style="opacity:1;fill:#af5c28;fill-opacity:1;stroke-width:0.397648;stroke-linecap:round;stop-color:#000000"
       d="m 37.804041,244.04031 c 7.84227,7.0432 -3.803877,12.57678 -7.286698,18.43106 -3.482822,5.85426 -18.166136,9.02514 -26.1463887,-5.14355 -7.9802521,-14.1687 25.5908177,-20.33072 33.4330867,-13.28751 z"
       sodipodi:nodetypes="zzzz"
       inkscape:original-d="m 37.804041,244.04031 c 7.84227,7.0432 -3.803877,12.57678 -7.286698,18.43106 -3.482822,5.85426 -18.166136,9.02514 -26.1463887,-5.14355 -7.9802521,-14.1687 25.5908177,-20.33072 33.4330867,-13.28751 z" />
    <path
       id="path8664"
       style="opacity:1;fill:#af5c28;fill-opacity:1;stroke-width:0.397648;stroke-linecap:round;stop-color:#000000"
       d="m 68.974019,284.67071 c 7.84227,-7.0432 -3.803877,-12.57678 -7.286698,-18.43106 -3.482822,-5.85426 -18.166136,-9.02514 -26.146389,5.14355 -7.980252,14.1687 25.590818,20.33072 33.433087,13.28751 z"
       sodipodi:nodetypes="zzzz"
       inkscape:original-d="m 68.974019,284.67071 c 7.84227,-7.0432 -3.803877,-12.57678 -7.286698,-18.43106 -3.482822,-5.85426 -18.166136,-9.02514 -26.146389,5.14355 -7.980252,14.1687 25.590818,20.33072 33.433087,13.28751 z" />
    <path
       id="path8666"
       style="opacity:1;fill:#af5c28;fill-opacity:1;stroke-width:0.215269;stroke-linecap:round;stop-color:#000000"
       d="m 49.210252,242.69888 c -4.245451,3.81287 2.059247,6.8085 3.944689,9.97774 1.885443,3.16924 9.834326,4.88581 14.154475,-2.78448 4.320148,-7.6703 -13.853714,-11.00614 -18.099164,-7.19326 z"
       sodipodi:nodetypes="zzzz"
       inkscape:original-d="m 49.210252,242.69888 c -4.245451,3.81287 2.059247,6.8085 3.944689,9.97774 1.885443,3.16924 9.834326,4.88581 14.154475,-2.78448 4.320148,-7.6703 -13.853714,-11.00614 -18.099164,-7.19326 z" />
    <path
       id="rect9394"
       style="opacity:1;fill:#964f23;stroke-width:0.438823;stroke-linecap:round;stop-color:#000000;fill-opacity:0.80637252"
       d="m 70.178576,303.14333 c 11.544757,0 17.146461,4.90039 11.588818,12.77135 -5.557643,7.87095 -15.254928,12.12806 -20.812571,4.25711 -5.557643,-7.87096 -2.321003,-17.02846 9.223753,-17.02846 z"
       sodipodi:nodetypes="zzzz"
       inkscape:original-d="m 70.178576,303.14333 c 11.544757,0 17.146461,4.90039 11.588818,12.77135 -5.557643,7.87095 -15.254928,12.12806 -20.812571,4.25711 -5.557643,-7.87096 -2.321003,-17.02846 9.223753,-17.02846 z" />
    <path
       id="path9397"
       style="opacity:1;fill:#964f23;fill-opacity:0.806373;stroke-width:0.250443;stroke-linecap:round;stop-color:#000000"
       d="m 93.806745,326.86384 c 6.588755,0 9.785735,-2.79672 6.613905,-7.28879 -3.171828,-4.49207 -8.706207,-6.92166 -11.878033,-2.4296 -3.171827,4.49207 -1.32463,9.71839 5.264128,9.71839 z"
       sodipodi:nodetypes="zzzz"
       inkscape:original-d="m 93.806745,326.86384 c 6.588755,0 9.785735,-2.79672 6.613905,-7.28879 -3.171828,-4.49207 -8.706207,-6.92166 -11.878033,-2.4296 -3.171827,4.49207 -1.32463,9.71839 5.264128,9.71839 z" />
    <path
       id="path9399"
       style="opacity:1;fill:#964f23;fill-opacity:0.806373;stroke-width:0.250443;stroke-linecap:round;stop-color:#000000"
       d="m 78.988983,338.47618 c -6.588755,0 -9.785735,-2.79672 -6.613905,-7.28879 3.171828,-4.49207 8.706207,-6.92166 11.878033,-2.4296 3.171827,4.49207 1.32463,9.71839 -5.264128,9.71839 z"
       sodipodi:nodetypes="zzzz"
       inkscape:original-d="m 78.988983,338.47618 c -6.588755,0 -9.785735,-2.79672 -6.613905,-7.28879 3.171828,-4.49207 8.706207,-6.92166 11.878033,-2.4296 3.171827,4.49207 1.32463,9.71839 -5.264128,9.71839 z" />
    <path
       id="path9401"
       style="opacity:1;fill:#964f23;fill-opacity:0.806373;stroke-width:0.502236;stroke-linecap:round;stop-color:#000000"
       d="m 32.367458,325.86044 c 0.617979,-13.1986 6.520228,-19.34047 15.22125,-12.56534 8.701009,6.77513 13.048886,18.08948 3.752887,24.02195 -9.29601,5.93249 -19.592115,1.74199 -18.974137,-11.45661 z"
       sodipodi:nodetypes="zzzz"
       inkscape:original-d="m 32.367458,325.86044 c 0.617979,-13.1986 6.520228,-19.34047 15.22125,-12.56534 8.701009,6.77513 13.048886,18.08948 3.752887,24.02195 -9.29601,5.93249 -19.592115,1.74199 -18.974137,-11.45661 z" />
    <path
       id="path9403"
       style="opacity:1;fill:#964f23;fill-opacity:0.806373;stroke-width:0.354062;stroke-linecap:round;stop-color:#000000"
       d="M 8.2709563,309.42809 C 3.4464366,299.06224 4.179722,293.00396 11.440036,296.34195 c 7.260306,3.33799 13.983441,11.15145 11.368179,17.79369 -2.615264,6.64225 -9.712738,5.6583 -14.5372587,-4.70755 z"
       sodipodi:nodetypes="zzzz"
       inkscape:original-d="M 8.2709563,309.42809 C 3.4464366,299.06224 4.179722,293.00396 11.440036,296.34195 c 7.260306,3.33799 13.983441,11.15145 11.368179,17.79369 -2.615264,6.64225 -9.712738,5.6583 -14.5372587,-4.70755 z" />
    <path
       id="path9405"
       style="opacity:1;fill:#964f23;fill-opacity:0.806373;stroke-width:0.250443;stroke-linecap:round;stop-color:#000000"
       d="m 23.98314,334.19795 c -6.588755,0 -11.479753,-2.79672 -11.028842,-7.28879 0.450909,-4.49207 4.513646,-6.92166 10.406385,-2.4296 5.892746,4.49207 7.211215,9.71839 0.622457,9.71839 z"
       sodipodi:nodetypes="zzzz"
       inkscape:transform-center-x="-7.9452885"
       inkscape:transform-center-y="2.4447041"
       inkscape:original-d="m 23.98314,334.19795 c -6.588755,0 -11.479753,-2.79672 -11.028842,-7.28879 0.450909,-4.49207 4.513646,-6.92166 10.406385,-2.4296 5.892746,4.49207 7.211215,9.71839 0.622457,9.71839 z" />
  </g>
  <path
     id="path9420"
     d="m 262.19596,244.04031 c -7.84227,7.0432 3.80388,12.57678 7.2867,18.43106 3.48282,5.85426 18.16613,9.02514 26.14639,-5.14355 7.98025,-14.1687 -25.59082,-20.33072 -33.43309,-13.28751 z"
     style="fill:#af5c28;fill-opacity:1;stroke-width:0.397648;stroke-linecap:round;stop-color:#000000" />
  <path
     id="path9422"
     d="m 231.02598,284.67071 c -7.84227,-7.0432 3.80388,-12.57678 7.2867,-18.43106 3.48282,-5.85426 18.16613,-9.02514 26.14639,5.14355 7.98025,14.1687 -25.59082,20.33072 -33.43309,13.28751 z"
     style="fill:#af5c28;fill-opacity:1;stroke-width:0.397648;stroke-linecap:round;stop-color:#000000" />
  <path
     id="path9424"
     d="m 250.78975,242.69888 c 4.24545,3.81287 -2.05925,6.8085 -3.94469,9.97774 -1.88544,3.16924 -9.83433,4.88581 -14.15448,-2.78448 -4.32014,-7.6703 13.85372,-11.00614 18.09917,-7.19326 z"
     style="fill:#af5c28;fill-opacity:1;stroke-width:0.215269;stroke-linecap:round;stop-color:#000000" />
  <path
     id="path9426"
     d="m 229.82142,303.14333 c -11.54475,0 -17.14646,4.90039 -11.58881,12.77135 5.55764,7.87095 15.25492,12.12806 20.81257,4.25711 5.55764,-7.87096 2.321,-17.02846 -9.22376,-17.02846 z"
     style="fill:#964f23;fill-opacity:0.806373;stroke-width:0.438823;stroke-linecap:round;stop-color:#000000" />
  <path
     id="path9428"
     d="m 206.19325,326.86384 c -6.58875,0 -9.78573,-2.79672 -6.6139,-7.28879 3.17183,-4.49207 8.70621,-6.92166 11.87803,-2.4296 3.17183,4.49207 1.32463,9.71839 -5.26413,9.71839 z"
     style="fill:#964f23;fill-opacity:0.806373;stroke-width:0.250443;stroke-linecap:round;stop-color:#000000" />
  <path
     id="path9430"
     d="m 221.01102,338.47618 c 6.58875,0 9.78573,-2.79672 6.6139,-7.28879 -3.17183,-4.49207 -8.70621,-6.92166 -11.87803,-2.4296 -3.17183,4.49207 -1.32463,9.71839 5.26413,9.71839 z"
     style="fill:#964f23;fill-opacity:0.806373;stroke-width:0.250443;stroke-linecap:round;stop-color:#000000" />
  <path
     id="path9432"
     d="m 267.63254,325.86044 c -0.61798,-13.1986 -6.52023,-19.34047 -15.22125,-12.56534 -8.70101,6.77513 -13.04888,18.08948 -3.75288,24.02195 9.296,5.93249 19.59211,1.74199 18.97413,-11.45661 z"
     style="fill:#964f23;fill-opacity:0.806373;stroke-width:0.502236;stroke-linecap:round;stop-color:#000000" />
  <path
     id="path9434"
     d="m 291.72904,309.42809 c 4.82452,-10.36585 4.09124,-16.42413 -3.16908,-13.08614 -7.2603,3.33799 -13.98344,11.15145 -11.36818,17.79369 2.61527,6.64225 9.71274,5.6583 14.53726,-4.70755 z"
     style="fill:#964f23;fill-opacity:0.806373;stroke-width:0.354062;stroke-linecap:round;stop-color:#000000" />
  <path
     id="path9436"
     d="m 276.01686,334.19795 c 6.58875,0 11.47975,-2.79672 11.02884,-7.28879 -0.45091,-4.49207 -4.51364,-6.92166 -10.40638,-2.4296 -5.89275,4.49207 -7.21122,9.71839 -0.62246,9.71839 z"
     style="fill:#964f23;fill-opacity:0.806373;stroke-width:0.250443;stroke-linecap:round;stop-color:#000000" />
  <g
     id="g10667"
     inkscape:path-effect="#path-effect10669"
     class="UnoptimicedTransforms"
     transform="matrix(0.74266371,0,0,0.74266371,63.711959,16.234422)">
    <path
       id="path10313"
       d="m 269.59156,104.95035 c -8.38911,3.45843 -0.53186,11.29856 0.60975,17.05043 1.14162,5.75185 12.1428,12.54875 22.69377,3.3487 10.55096,-9.20005 -14.91442,-23.85758 -23.30352,-20.39913 z"
       style="fill:#f0c649;fill-opacity:1;stroke-width:0.342315;stroke-linecap:round;stop-color:#000000"
       inkscape:original-d="m 269.59156,104.95035 c -8.38911,3.45843 -0.53186,11.29856 0.60975,17.05043 1.14162,5.75185 12.1428,12.54875 22.69377,3.3487 10.55096,-9.20005 -14.91442,-23.85758 -23.30352,-20.39913 z" />
    <path
       id="path10660"
       d="m 265.59619,97.635923 c 4.2501,3.817047 -2.0615,6.815947 -3.949,9.988657 -1.88751,3.1727 -9.84509,4.89115 -14.16997,-2.78753 -4.32487,-7.678687 13.86888,-11.018167 18.11897,-7.201127 z"
       style="fill:#f0c649;fill-opacity:1;stroke-width:0.215504;stroke-linecap:round;stop-color:#000000"
       inkscape:original-d="m 265.59619,97.635923 c 4.2501,3.817047 -2.0615,6.815947 -3.949,9.988657 -1.88751,3.1727 -9.84509,4.89115 -14.16997,-2.78753 -4.32487,-7.678687 13.86888,-11.018167 18.11897,-7.201127 z" />
    <path
       id="path10662"
       d="m 276.35116,95.686379 c -2.88603,2.59196 1.39986,4.628371 2.68157,6.782801 1.28171,2.15442 6.68531,3.32134 9.62212,-1.89287 2.93681,-5.214221 -9.41767,-7.481901 -12.30369,-4.889931 z"
       style="fill:#f0c649;fill-opacity:1;stroke-width:0.146338;stroke-linecap:round;stop-color:#000000"
       inkscape:original-d="m 276.35116,95.686379 c -2.88603,2.59196 1.39986,4.628371 2.68157,6.782801 1.28171,2.15442 6.68531,3.32134 9.62212,-1.89287 2.93681,-5.214221 -9.41767,-7.481901 -12.30369,-4.889931 z" />
  </g>
  <g
     class="UnoptimicedTransforms"
     id="g10677"
     transform="matrix(-0.74266371,0,0,0.74266371,236.28804,16.234422)">
    <path
       id="path10671"
       d="m 269.59156,104.95035 c -8.38911,3.45843 -0.53186,11.29856 0.60975,17.05043 1.14162,5.75185 12.1428,12.54875 22.69377,3.3487 10.55096,-9.20005 -14.91442,-23.85758 -23.30352,-20.39913 z"
       style="fill:#f0c649;fill-opacity:1;stroke-width:0.342315;stroke-linecap:round;stop-color:#000000" />
    <path
       id="path10673"
       d="m 265.59619,97.635923 c 4.2501,3.817047 -2.0615,6.815947 -3.949,9.988657 -1.88751,3.1727 -9.84509,4.89115 -14.16997,-2.78753 -4.32487,-7.678687 13.86888,-11.018167 18.11897,-7.201127 z"
       style="fill:#f0c649;fill-opacity:1;stroke-width:0.215504;stroke-linecap:round;stop-color:#000000" />
    <path
       id="path10675"
       d="m 276.35116,95.686379 c -2.88603,2.59196 1.39986,4.628371 2.68157,6.782801 1.28171,2.15442 6.68531,3.32134 9.62212,-1.89287 2.93681,-5.214221 -9.41767,-7.481901 -12.30369,-4.889931 z"
       style="fill:#f0c649;fill-opacity:1;stroke-width:0.146338;stroke-linecap:round;stop-color:#000000" />
  </g>
  <g
     id="g12382"
     inkscape:path-effect="#path-effect12453"
     class="UnoptimicedTransforms">
    <path
       style="fill:#efd891;fill-opacity:1;stroke-width:0.865577"
       d="M 265.76155,74.67294 C 239.5467,77.632085 231.40426,66.055801 231.01588,47.820456 231.93333,43.502255 246.00904,31.544942 247.85444,24.646886 255.16941,-2.6962513 300.58295,-1.9518497 299.99433,2.6887122 295.75544,27.571559 291.9764,71.713795 265.76155,74.67294 Z"
       id="path12245"
       inkscape:transform-center-y="-38.252311"
       sodipodi:nodetypes="zcscz"
       inkscape:transform-center-x="-10.650919"
       inkscape:original-d="M 265.76155,74.67294 C 239.5467,77.632085 231.40426,66.055801 231.01588,47.820456 231.93333,43.502255 246.00904,31.544942 247.85444,24.646886 255.16941,-2.6962513 300.58295,-1.9518497 299.99433,2.6887122 295.75544,27.571559 291.9764,71.713795 265.76155,74.67294 Z" />
    <path
       id="rect12247"
       style="fill:#ae5b28;fill-opacity:1;stroke:#af5d29;stroke-width:1.067;stroke-linecap:round;stroke-dasharray:none;stroke-opacity:1;stop-color:#000000"
       d="M 284.14373,0.53081198 C 270.47255,1.9084015 252.25968,8.1802695 247.85466,24.646047 246.00927,31.544094 231.93423,43.501681 231.01678,47.819876 227.612,61.0946 233.73965,70.817265 243.0031,75.024953 254.34265,66.039895 261.99344,55.28152 256.21209,41.513236 247.55076,20.886282 266.57864,8.9587804 284.14373,0.53081198 Z"
       inkscape:original-d="M 284.14373,0.53081198 C 270.47255,1.9084015 252.25968,8.1802695 247.85466,24.646047 246.00927,31.544094 231.93423,43.501681 231.01678,47.819876 227.612,61.0946 233.73965,70.817265 243.0031,75.024953 254.34265,66.039895 261.99344,55.28152 256.21209,41.513236 247.55076,20.886282 266.57864,8.9587804 284.14373,0.53081198 Z" />
  </g>
  <g
     class="UnoptimicedTransforms"
     id="g12459"
     transform="matrix(-1,0,0,1,300,0)">
    <path
       id="path12455"
       d="M 265.76155,74.67294 C 239.5467,77.632085 231.40426,66.055801 231.01588,47.820456 231.93333,43.502255 246.00904,31.544942 247.85444,24.646886 255.16941,-2.6962513 300.58295,-1.9518497 299.99433,2.6887122 295.75544,27.571559 291.9764,71.713795 265.76155,74.67294 Z"
       style="fill:#efd891;fill-opacity:1;stroke-width:0.865577" />
    <path
       id="path12457"
       d="M 284.14373,0.53081198 C 270.47255,1.9084015 252.25968,8.1802695 247.85466,24.646047 246.00927,31.544094 231.93423,43.501681 231.01678,47.819876 227.612,61.0946 233.73965,70.817265 243.0031,75.024953 254.34265,66.039895 261.99344,55.28152 256.21209,41.513236 247.55076,20.886282 266.57864,8.9587804 284.14373,0.53081198 Z"
       style="fill:#ae5b28;fill-opacity:1;stroke:#af5d29;stroke-width:1.067;stroke-linecap:round;stroke-dasharray:none;stroke-opacity:1;stop-color:#000000" />
  </g>
</svg>
