<?xml version="1.0" encoding="UTF-8" standalone="no"?>
<svg
   id="Layer_1"
   data-name="Layer 1"
   viewBox="0 0 300 345"
   version="1.1"
   sodipodi:docname="Gorilla3f.svg"
   xml:space="preserve"
   inkscape:version="1.2 (dc2aedaf03, 2022-05-15)"
   xmlns:inkscape="http://www.inkscape.org/namespaces/inkscape"
   xmlns:sodipodi="http://sodipodi.sourceforge.net/DTD/sodipodi-0.dtd"
   xmlns="http://www.w3.org/2000/svg"
   xmlns:svg="http://www.w3.org/2000/svg"
   xmlns:rdf="http://www.w3.org/1999/02/22-rdf-syntax-ns#"
   xmlns:cc="http://creativecommons.org/ns#"
   xmlns:dc="http://purl.org/dc/elements/1.1/"><sodipodi:namedview
     id="namedview58"
     pagecolor="#505050"
     bordercolor="#ffffff"
     borderopacity="1"
     inkscape:showpageshadow="0"
     inkscape:pageopacity="0"
     inkscape:pagecheckerboard="1"
     inkscape:deskcolor="#505050"
     showgrid="false"
     inkscape:zoom="0.53740115"
     inkscape:cx="-101.414"
     inkscape:cy="210.27123"
     inkscape:window-width="1366"
     inkscape:window-height="705"
     inkscape:window-x="-8"
     inkscape:window-y="-8"
     inkscape:window-maximized="1"
     inkscape:current-layer="Layer_1" /><defs
     id="defs14"><inkscape:path-effect
       effect="fillet_chamfer"
       id="path-effect46112"
       is_visible="true"
       lpeversion="1"
       nodesatellites_param="F,0,0,1,0,0,0,1 @ F,0,0,1,0,0,0,1 @ F,0,0,1,0,6.3451817,0,1 @ F,0,0,1,0,8.6376143,0,1 @ F,0,0,1,0,0,0,1 @ F,0,0,1,0,0,0,1 @ F,0,0,1,0,0,0,1 @ F,0,0,1,0,8.8305531,0,1 @ F,0,0,1,0,6.2239867,0,1 @ F,0,0,1,0,0,0,1"
       unit="px"
       method="auto"
       mode="F"
       radius="0"
       chamfer_steps="1"
       flexible="false"
       use_knot_distance="true"
       apply_no_radius="true"
       apply_with_radius="true"
       only_selected="false"
       hide_knots="false" /><inkscape:path-effect
       effect="mirror_symmetry"
       start_point="151.91988,104.68174"
       end_point="151.91988,245.77453"
       center_point="151.91988,175.22813"
       id="path-effect65741"
       is_visible="true"
       lpeversion="1.2"
       lpesatellites=""
       mode="vertical"
       discard_orig_path="false"
       fuse_paths="false"
       oposite_fuse="false"
       split_items="false"
       split_open="false"
       link_styles="false" /><inkscape:path-effect
       effect="fillet_chamfer"
       id="path-effect13735"
       is_visible="true"
       lpeversion="1"
       nodesatellites_param="F,0,0,1,0,0,0,1 @ F,0,0,1,0,6.2824296,0,1 @ F,0,0,1,0,0,0,1 @ F,0,0,1,0,6.2066343,0,1"
       unit="px"
       method="auto"
       mode="F"
       radius="0"
       chamfer_steps="1"
       flexible="false"
       use_knot_distance="true"
       apply_no_radius="true"
       apply_with_radius="true"
       only_selected="false"
       hide_knots="false" /><inkscape:path-effect
       effect="fillet_chamfer"
       id="path-effect13733"
       is_visible="true"
       lpeversion="1"
       nodesatellites_param="F,0,0,1,0,0,0,1 @ F,0,0,1,0,5.5295501,0,1 @ F,0,0,1,0,0,0,1 @ F,0,0,1,0,6.0524812,0,1"
       unit="px"
       method="auto"
       mode="F"
       radius="0"
       chamfer_steps="1"
       flexible="false"
       use_knot_distance="true"
       apply_no_radius="true"
       apply_with_radius="true"
       only_selected="false"
       hide_knots="false" /><inkscape:path-effect
       effect="mirror_symmetry"
       start_point="149.30675,205.47659"
       end_point="149.30675,231.50158"
       center_point="149.30675,218.48908"
       id="path-effect10328"
       is_visible="true"
       lpeversion="1.2"
       lpesatellites=""
       mode="vertical"
       discard_orig_path="false"
       fuse_paths="false"
       oposite_fuse="false"
       split_items="false"
       split_open="false"
       link_styles="false" /><style
       id="style2">.cls-1{fill:url(#linear-gradient);}.cls-2{fill:url(#linear-gradient-2);}.cls-3{fill:#bc6234;}.cls-4{fill:#2f2c38;}.cls-5{fill:#15141a;}.cls-6{fill:#fff;}.cls-7{fill:#414042;}.cls-8{fill:#231f20;}</style><linearGradient
       id="linear-gradient"
       x1="150"
       y1="356.11"
       x2="150"
       y2="161.16"
       gradientUnits="userSpaceOnUse"><stop
         offset="0"
         stop-color="#bc6234"
         id="stop4"
         style="stop-color:#414042;stop-opacity:1;" /><stop
         offset="0.47999999"
         stop-color="#84381c"
         id="stop6"
         style="stop-color:#252122;stop-opacity:1;" /></linearGradient></defs><title
     id="title16">gorilla_blook</title><path
     class="cls-1"
     d="M 263.62,345 H 36.38 A 36.38,36.38 0 0 1 0,308.62 v -49.48 h 300 v 49.48 A 36.38,36.38 0 0 1 263.62,345 Z"
     id="path18"
     style="fill:url(#linear-gradient)" /><rect
     class="cls-3"
     y="45"
     width="300"
     height="253.39"
     rx="36.380001"
     id="rect22"
     x="0"
     style="fill:#414042;fill-opacity:1" /><path
     style="fill:#9a9494;fill-opacity:1;fill-rule:evenodd;stroke-width:1.17031"
     id="path65739"
     inkscape:path-effect="#path-effect65741"
     sodipodi:type="arc"
     sodipodi:cx="77.959938"
     sodipodi:cy="175.22813"
     sodipodi:rx="73.959938"
     sodipodi:ry="70.546394"
     d="m 151.91988,175.22813 c 0,38.9617 -33.113,70.5464 -73.959942,70.5464 C 37.112992,245.77453 4,214.18983 4,175.22813 c 0,-38.96169 33.112992,-70.54639 73.959938,-70.54639 40.846942,0 73.959942,31.5847 73.959942,70.54639 z m -56.145167,0 c 0,38.9617 33.112997,70.5464 73.959937,70.5464 40.84695,0 73.95994,-31.5847 73.95994,-70.5464 0,-38.96169 -33.11299,-70.54639 -73.95994,-70.54639 -40.84694,0 -73.959937,31.5847 -73.959937,70.54639 z"
     class="UnoptimicedTransforms"
     transform="matrix(1.2182169,0,0,1.0789473,-0.87286748,-8.2643395)" /><path
     style="fill:#000000;fill-opacity:0.30897;stroke:none;stroke-width:0.882907;stroke-dasharray:none;stroke-opacity:1"
     d="m 68.615993,277.8119 c 0.44875,33.53107 18.808988,67.41413 81.389657,67.41413 62.5814,0 80.9274,-33.88008 81.37836,-67.41221 -9.49278,14.57712 -33.04944,26.07936 -81.37836,26.07936 -48.32893,0 -71.894162,-11.50374 -81.389657,-26.08128 z"
     id="path11778" /><path
     id="path26"
     style="fill:#9a9494;fill-opacity:1;stroke-width:0.790147"
     class="cls-4"
     d="M 149.16688,120.44675 C 109.08597,122.29828 49.920666,95.887687 25.032593,134.49219 v 79.08008 c 10.967978,17.6739 28.708133,29.78326 49.25636,31.38671 13.17138,5.58352 28.270997,8.39844 44.052647,8.39844 h 63.31681 c 15.47607,0 30.29346,-2.71512 43.28624,-8.08398 20.85633,-1.35361 38.91252,-13.53957 50.02276,-31.44141 v -76.5918 C 249.00559,90.012136 190.32537,120.85005 149.16688,120.44675 Z"
     sodipodi:nodetypes="ccccsscccc" /><path
     class="cls-4"
     d="m 229.283,229.22639 c 12.58655,35.61567 8.78328,91.98987 -79.27804,91.98987 -88.061337,0 -91.888032,-56.37924 -79.278041,-91.98987 7.785159,-21.9853 50.131681,-29.17807 79.383441,-29.16637 29.18821,0.0117 71.41882,7.22573 79.17264,29.16637 z"
     id="path46"
     style="fill:#9a9494;fill-opacity:1;stroke-width:1.55862"
     sodipodi:nodetypes="asaaa" /><path
     style="fill:#867979;fill-opacity:1;stroke-width:1.25611"
     d="m 150.18663,151.21554 c -9.90868,-0.008 -22.39179,2.71207 -31.99635,9.81288 -2.45356,1.81396 -1.99729,2.4428 0.85783,1.36344 9.74926,-3.68562 21.57367,-5.12804 31.14194,-5.12359 9.3716,0.005 20.9077,1.40239 30.52475,4.9405 3.13526,1.15346 3.63541,0.46232 0.92535,-1.48877 -9.51377,-6.84936 -21.72482,-9.49702 -31.45352,-9.50446 z"
     id="path2694"
     inkscape:path-effect="#path-effect13733"
     inkscape:original-d="m 150.18663,151.21554 c -11.43041,-0.009 -26.28672,3.61182 -36.198,13.40039 10.45875,-5.34074 24.903,-7.35291 36.20142,-7.34766 11.26103,0.006 25.64733,2.02245 36.07403,7.34766 -9.88306,-9.76115 -24.68288,-13.39168 -36.07745,-13.40039 z" /><metadata
     id="metadata2975"><rdf:RDF><cc:Work
         rdf:about=""><dc:title>gorilla_blook</dc:title></cc:Work></rdf:RDF></metadata><path
     style="fill:#414042;fill-opacity:1;stroke:none;stroke-width:3.31713;stroke-linecap:round;stroke-dasharray:none;stroke-opacity:1;paint-order:stroke fill markers;stop-color:#000000"
     d="M 193.57812,60.633915 C 187.64186,45.656418 170.68326,37.364983 158.79642,25.997061 l 1.31863,25.369409 C 153.56653,35.979448 132.64365,28.614924 116.8045,18.413111 l 5.1814,30.372047 -24.446767,3.351467 20.243687,10.675836"
     id="path8581"
     sodipodi:nodetypes="ccccccc" /><path
     style="color:#000000;fill:#222224;fill-opacity:1;stroke-width:0.880576;stroke-linecap:square;paint-order:stroke fill markers"
     d="m 113.53994,14.256951 10.26648,35.865557 -31.761754,-2.798956 c 4.37186,2.47194 27.317664,16.665817 27.957494,16.143759 0.68899,-0.761381 0.5213,-0.834575 0.11553,-1.65642 -4.15715,-3.824054 -9.39475,-8.439207 -15.21965,-10.728539 l 21.74825,1.362191 c -1.58569,-9.293965 -3.79902,-18.021217 -5.38471,-27.315182 17.09859,4.594424 31.34149,15.226644 40.01345,27.663751 1.59569,-0.324375 -0.65122,-0.177843 0.94448,-0.502217 -0.36945,-7.113924 1.38888,-12.356521 1.01943,-19.470445 12.39767,7.329265 23.4059,15.134623 27.87507,26.062351 1.61895,-0.372011 -0.33951,-0.247998 1.27944,-0.62001 -2.80187,-8.001604 -8.9471,-16.433493 -16.11983,-23.252784 -5.55092,-5.277405 -12.8642,-8.581431 -20.22518,-13.093743 l 1.11606,21.467612 c -5.91479,-7.652632 -14.47196,-13.840935 -24.02662,-18.721385 -6.5387,-3.462015 -13.12522,-6.868846 -19.59794,-10.40554 z"
     id="path8583"
     sodipodi:nodetypes="cccccccccccccacccc" /><path
     style="fill:#615757;fill-opacity:1;stroke:none;stroke-width:5.1018;stroke-linecap:round;stroke-dasharray:none;stroke-opacity:1;paint-order:stroke fill markers;stop-color:#000000"
     d="m 117.28255,214.29051 c -3.97696,19.92404 35.30177,19.68765 20.28738,-3.75127"
     id="path10310"
     sodipodi:nodetypes="cc" /><path
     style="fill:none;fill-opacity:1;stroke:#201d1d;stroke-width:4.7039;stroke-linecap:round;stroke-dasharray:none;stroke-opacity:1;paint-order:stroke fill markers;stop-color:#000000"
     d="m 118.50632,225.07495 c -7.53247,-14.78082 22.07162,-21.98739 23.49721,-4.14657"
     id="path10308"
     sodipodi:nodetypes="cc" /><path
     id="path10318"
     d="m 182.71744,214.29051 c 3.97697,19.92404 -35.30176,19.68765 -20.28737,-3.75127"
     style="fill:#615757;fill-opacity:1;stroke:none;stroke-width:5.1018;stroke-linecap:round;stroke-dasharray:none;stroke-opacity:1;paint-order:stroke fill markers;stop-color:#000000" /><path
     id="path10320"
     d="m 181.49368,225.07495 c 7.53247,-14.78082 -22.07162,-21.98739 -23.49722,-4.14657"
     style="fill:none;fill-opacity:1;stroke:#201d1d;stroke-width:4.7039;stroke-linecap:round;stroke-dasharray:none;stroke-opacity:1;paint-order:stroke fill markers;stop-color:#000000" /><path
     style="fill:none;fill-opacity:1;stroke:#867979;stroke-width:3.947;stroke-linecap:round;stroke-dasharray:none;stroke-opacity:1;paint-order:stroke fill markers;stop-color:#000000"
     d="m 107.61082,231.50158 c -13.366417,-26.22865 39.16621,-39.01675 41.69593,-7.35811 m 43.08243,7.35811 c 13.36642,-26.22865 -39.16621,-39.01675 -41.69593,-7.35811"
     id="path10326"
     sodipodi:nodetypes="cc"
     inkscape:path-effect="#path-effect10328"
     inkscape:original-d="m 107.61082,231.50158 c -13.366417,-26.22865 39.16621,-39.01675 41.69593,-7.35811"
     class="UnoptimicedTransforms"
     transform="translate(0,-8)" /><path
     style="fill:#867979;fill-opacity:1;stroke-width:1.0423"
     d="m 150.02535,137.21554 c -6.42691,-0.007 -14.4268,2.40579 -20.8611,8.6214 -2.49157,2.40688 -1.80059,3.05761 1.33336,1.58187 6.305,-2.96897 13.55618,-4.15457 19.53008,-4.15054 5.97025,0.005 13.21631,1.20119 19.51121,4.1824 3.09303,1.46483 3.77486,0.82288 1.31925,-1.56125 -6.42076,-6.23384 -14.41197,-8.66675 -20.8328,-8.67388 z"
     id="path10516"
     inkscape:path-effect="#path-effect13735"
     inkscape:original-d="m 150.02535,137.21554 c -7.87034,-0.009 -18.09956,3.61182 -24.92391,13.40039 7.20131,-5.34074 17.1468,-7.35291 24.92625,-7.34766 7.75372,0.006 17.65932,2.02245 24.83855,7.34766 -6.80492,-9.76115 -16.99524,-13.39168 -24.84089,-13.40039 z" /><path
     id="rect13737"
     style="opacity:1;fill:#867979;fill-opacity:1;stroke-width:0.767504;stroke-linecap:round;paint-order:stroke fill markers;stop-color:#000000"
     d="m 135.99387,197.82923 c 9.33742,4.53415 18.67484,4.1226 28.01226,0 L 150,214.47419 Z"
     sodipodi:nodetypes="cccc" /><path
     class="cls-10"
     d="m 197.47777,280.36143 a 86.358083,93.038359 0 0 1 -26.37379,9.22254 128.65264,138.60462 0 0 1 -42.22033,0 86.395194,93.078344 0 0 1 -26.36142,-9.22254 c -13.360079,-7.82317 -18.96389,-18.65832 -11.368435,-28.85374 7.904704,-10.58195 25.532605,-3.8383 44.422275,-0.67971 a 94.386504,101.68782 0 0 0 14.42392,1.33273 94.089613,101.36796 0 0 0 14.41159,-1.33273 c 18.90203,-3.15859 36.51754,-9.90224 44.43463,0.67971 7.59545,10.18211 1.99164,21.03057 -11.36844,28.85374 z"
     id="path63271"
     style="display:none;opacity:1;fill:#862727;fill-opacity:1;stroke:none;stroke-width:3.884;stroke-dasharray:none;stroke-opacity:1;paint-order:stroke fill markers" /><circle
     cx="55.478718"
     cy="172.16815"
     r="36.450001"
     id="circle65405"
     style="fill:#867979;fill-opacity:1" /><circle
     cx="55.478718"
     cy="182.28815"
     r="36.450001"
     id="circle65411"
     style="fill:#ffffff" /><path
     d="m 85.228719,177.64814 a 13.71,13.71 0 0 1 -19.91,-18.56 24.8,24.8 0 0 0 -3.35,-0.24 23.76,23.76 0 1 0 23.26,18.82 z m -33.25,20.5 a 5.66,5.66 0 1 1 5.66,-5.65 5.66,5.66 0 0 1 -5.66,5.65 z"
     id="path65415"
     style="fill:#414042;fill-opacity:1" /><path
     id="path65728"
     d="m 208.07128,172.16815 a 36.450001,36.450001 0 0 0 36.45,36.45 36.450001,36.450001 0 0 0 36.45,-36.45 36.450001,36.450001 0 0 0 -36.45,-36.45 36.450001,36.450001 0 0 0 -36.45,36.45 z"
     style="fill:#867979;fill-opacity:1" /><path
     id="path65730"
     d="m 208.07128,182.28815 a 36.450001,36.450001 0 0 0 36.45,36.45 36.450001,36.450001 0 0 0 36.45,-36.45 36.450001,36.450001 0 0 0 -36.45,-36.45 36.450001,36.450001 0 0 0 -36.45,36.45 z"
     style="fill:#ffffff" /><path
     id="path65732"
     d="m 261.25285,177.64814 a 13.71,13.71 0 0 1 -19.91,-18.56 24.8,24.8 0 0 0 -3.35,-0.24 23.76,23.76 0 1 0 23.26,18.82 z m -33.25,20.5 a 5.66,5.66 0 1 1 5.66,-5.65 5.66,5.66 0 0 1 -5.66,5.65 z"
     style="fill:#414042;fill-opacity:1" /><path
     style="fill:#414042;fill-opacity:1;stroke:none;stroke-width:2.19536;stroke-linecap:round;stroke-dasharray:none;stroke-opacity:1;paint-order:stroke fill markers;stop-color:#000000"
     d="m 166.64153,78.912267 c -6.11779,8.632969 -18.53385,11.492278 -28.05184,17.008242 l 4.59296,-15.849571 c -6.58222,8.805837 -21.4803,10.522635 -33.43734,14.746591 l 7.87794,-18.469092 -15.65305,-5.55106 14.93536,-3.905085"
     id="path65743"
     sodipodi:nodetypes="ccccccc" /><path
     style="color:#000000;fill:#222224;fill-opacity:1;stroke-width:0.582786;stroke-linecap:square;paint-order:stroke fill markers"
     d="m 106.9796,96.986029 12.04214,-21.22723 -21.386276,-2.690841 c 3.249866,-0.948502 20.485886,-6.697739 20.831836,-6.277929 0.3433,0.577978 0.22182,0.600694 -0.16673,1.063163 -3.30645,1.833255 -7.44252,4.014809 -11.6252,4.643861 l 14.56251,2.192873 c -2.41078,5.651591 -5.15292,10.856859 -7.56369,16.508451 11.96607,-0.502957 22.93208,-5.223092 30.48384,-11.866266 1.0062,0.429085 -0.45618,0.02096 0.55005,0.450048 -1.28772,4.444479 -0.8957,8.004963 -2.18342,12.449441 9.26281,-2.891606 17.67788,-6.279228 22.23264,-12.558547 1.01458,0.46246 -0.2606,0.109074 0.75398,0.571534 -3.02434,4.663981 -8.31979,9.130455 -14.05721,12.433408 -4.44014,2.556134 -9.75463,3.617524 -15.27789,5.435914 l 3.88673,-13.411883 c -5.02893,4.006303 -11.58807,6.716038 -18.61406,8.459083 -4.82613,1.27001 -9.67574,2.49843 -14.46925,3.82492 z"
     id="path65745"
     sodipodi:nodetypes="cccccccccccccacccc" /><path
     id="rect68295"
     style="opacity:1;fill:#fcffff;fill-opacity:1;stroke-width:1.41809;stroke-linecap:round;paint-order:stroke fill markers;stop-color:#000000"
     d="m 149.99414,291.46183 c -7.07304,6.3e-4 -14.13408,-0.62715 -21.11133,-1.87695 -6.72313,-1.13198 -13.29128,-3.11448 -19.56956,-5.90108 -3.20225,-1.42131 -7.60116,-4.93618 -9.370104,-7.95663 -4.919866,-8.4006 -4.014287,-15.78049 -0.457797,-22.67573 2.183991,-4.23426 8.579321,-7.28108 13.292881,-6.58427 6.93324,1.02494 14.74828,3.01389 22.79794,4.3599 4.76915,0.84183 9.59128,1.2878 14.42383,1.33398 4.82869,-0.0456 9.64696,-0.49154 14.41211,-1.33398 7.97368,-1.33242 15.71267,-3.29466 22.59343,-4.32821 4.81611,-0.72343 11.82772,2.04375 14.04918,6.36377 3.57887,6.95977 3.04996,14.56059 -1.36391,22.76169 -1.62799,3.02484 -5.75427,6.61145 -8.89341,8.01006 -6.31596,2.81402 -12.92649,4.81331 -19.69388,5.9505 -6.97661,1.24969 -14.03699,1.87747 -21.10938,1.87695 z"
     sodipodi:nodetypes="ccccccccccc"
     inkscape:path-effect="#path-effect46112"
     inkscape:original-d="m 149.99414,291.46183 c -7.07304,6.3e-4 -14.13408,-0.62715 -21.11133,-1.87695 -8.787,-1.47948 -17.30927,-4.41181 -25.26562,-8.69336 -11.489133,-13.7547 -7.303338,-24.77269 0.55859,-35.08008 8.68867,-0.19857 19.80094,3.07605 31.40039,5.01563 4.76915,0.84183 9.59128,1.2878 14.42383,1.33398 4.82869,-0.0456 9.64696,-0.49154 14.41211,-1.33398 11.59764,-1.938 22.69881,-5.20839 31.38477,-5.01563 10.09756,10.15054 10.01098,21.89546 0.58593,35.08008 -7.96039,4.28358 -16.48747,7.21598 -25.27929,8.69336 -6.97661,1.24969 -14.03699,1.87747 -21.10938,1.87695 z" /><path
     id="rect70202"
     style="opacity:1;fill:#e1eded;fill-opacity:1;stroke-width:1.00939;stroke-linecap:round;paint-order:stroke fill markers;stop-color:#000000"
     d="m 150.5293,268.04191 c -17.93361,-0.0323 -35.91362,-0.85277 -53.933597,-2.41992 -0.09728,-1.28526 -0.06184,-2.54629 0.08008,-3.78906 35.572257,2.92741 71.144537,3.00683 106.716797,0.0977 0.0314,1.29188 -0.069,2.60479 -0.27539,3.9336 -17.48273,1.48993 -35.01319,2.20937 -52.58789,2.17773 z" /></svg>
