<?xml version="1.0" encoding="UTF-8" standalone="no"?>
<svg
   viewBox="0 0 300 345"
   version="1.1"
   id="svg55"
   sodipodi:docname="hippo.svg"
   xml:space="preserve"
   inkscape:version="1.2 (dc2aedaf03, 2022-05-15)"
   xmlns:inkscape="http://www.inkscape.org/namespaces/inkscape"
   xmlns:sodipodi="http://sodipodi.sourceforge.net/DTD/sodipodi-0.dtd"
   xmlns="http://www.w3.org/2000/svg"
   xmlns:svg="http://www.w3.org/2000/svg"><sodipodi:namedview
     id="namedview57"
     pagecolor="#505050"
     bordercolor="#ffffff"
     borderopacity="1"
     inkscape:showpageshadow="0"
     inkscape:pageopacity="0"
     inkscape:pagecheckerboard="1"
     inkscape:deskcolor="#505050"
     showgrid="false"
     inkscape:zoom="0.47366143"
     inkscape:cx="29.556977"
     inkscape:cy="198.45399"
     inkscape:window-width="1366"
     inkscape:window-height="705"
     inkscape:window-x="-8"
     inkscape:window-y="-8"
     inkscape:window-maximized="1"
     inkscape:current-layer="svg55" /><defs
     id="defs7"><inkscape:path-effect
       effect="mirror_symmetry"
       start_point="51.492188,252.63672"
       end_point="51.492188,290.67188"
       center_point="51.492188,271.6543"
       id="path-effect8905"
       is_visible="true"
       lpeversion="1.2"
       lpesatellites="#path8907"
       mode="vertical"
       discard_orig_path="false"
       fuse_paths="false"
       oposite_fuse="false"
       split_items="true"
       split_open="false"
       link_styles="false" /><inkscape:path-effect
       effect="mirror_symmetry"
       start_point="85.64371,-81.826557"
       end_point="85.64371,-21.06262"
       center_point="85.64371,-51.444588"
       id="path-effect8683"
       is_visible="true"
       lpeversion="1.2"
       lpesatellites="#g1037"
       mode="vertical"
       discard_orig_path="false"
       fuse_paths="false"
       oposite_fuse="false"
       split_items="true"
       split_open="false"
       link_styles="false" /><inkscape:path-effect
       effect="mirror_symmetry"
       start_point="-62.524174,88.191183"
       end_point="-62.524174,125.89118"
       center_point="-62.524174,107.04118"
       id="path-effect8670"
       is_visible="true"
       lpeversion="1.2"
       lpesatellites="#path8672"
       mode="vertical"
       discard_orig_path="false"
       fuse_paths="false"
       oposite_fuse="false"
       split_items="true"
       split_open="false"
       link_styles="false" /><inkscape:path-effect
       effect="mirror_symmetry"
       start_point="97.625,313.05078"
       end_point="97.625,345"
       center_point="97.625,329.02539"
       id="path-effect6601"
       is_visible="true"
       lpeversion="1.2"
       lpesatellites=""
       mode="vertical"
       discard_orig_path="false"
       fuse_paths="false"
       oposite_fuse="false"
       split_items="false"
       split_open="false"
       link_styles="false" /><inkscape:path-effect
       effect="mirror_symmetry"
       start_point="97.562145,214.29322"
       end_point="97.562145,238.82258"
       center_point="97.562145,226.5579"
       id="path-effect5492"
       is_visible="true"
       lpeversion="1.2"
       lpesatellites="#g5498"
       mode="vertical"
       discard_orig_path="false"
       fuse_paths="false"
       oposite_fuse="false"
       split_items="true"
       split_open="false"
       link_styles="false" /><linearGradient
       id="A"
       x1="150"
       y1="356.11"
       x2="150"
       y2="161.16"
       gradientUnits="userSpaceOnUse"><stop
         offset="0"
         stop-color="#f6a9cb"
         id="stop2"
         style="stop-color:#95889e;stop-opacity:1;" /><stop
         offset="0.69"
         stop-color="#ce5384"
         id="stop4"
         style="stop-color:#473f4d;stop-opacity:1;" /></linearGradient></defs><path
     id="path8685"
     d="m 238.44069,24.550019 c -0.81534,17.103223 -4.2466,34.024001 13.35167,34.024001 17.59828,0 15.11694,8.446739 20.66887,-7.750824 3.62331,-10.570877 11.34952,-13.354571 17.89261,-21.138839 9.13542,-10.868354 6.05272,-30.240682 -17.03141,-29.672115 -16.15878,0.397994 -33.97944,5.610539 -34.88174,24.537777 z"
     style="fill:#95889e;fill-opacity:1;fill-rule:evenodd" /><path
     id="path8687"
     d="m 251.33314,33.736805 c -0.45717,9.589919 -4.0729,15.45227 5.7946,15.45227 9.86749,0 3.76409,1.216707 11.5892,-4.345951 28.01057,-24.01437 16.80035,-32.608362 -0.81022,-33.662536 -9.04692,-0.541551 -16.06766,11.943558 -16.57358,22.556217 z"
     style="fill:#726272;fill-opacity:1;fill-rule:evenodd;stroke-width:0.560708" /><g
     id="g8681"
     transform="translate(-23.27218,81.826491)"
     inkscape:path-effect="#path-effect8683"
     class="UnoptimicedTransforms"><path
       id="path8674"
       style="opacity:1;fill:#95889e;fill-opacity:1;fill-rule:evenodd"
       d="m 84.831488,-57.276472 c 0.815342,17.103223 4.246603,34.024001 -13.351672,34.024001 -17.598275,0 -15.116932,8.446739 -20.668863,-7.750824 -3.623309,-10.570877 -11.349523,-13.354571 -17.892609,-21.138839 -9.135422,-10.868354 -6.052722,-30.240682 17.031407,-29.672115 16.15878,0.397994 33.979441,5.610539 34.881737,24.537777 z"
       sodipodi:nodetypes="cssssc"
       inkscape:original-d="m 84.831488,-57.276472 c 0.815342,17.103223 4.246603,34.024001 -13.351672,34.024001 -17.598275,0 -15.116932,8.446739 -20.668863,-7.750824 -3.623309,-10.570877 -11.349523,-13.354571 -17.892609,-21.138839 -9.135422,-10.868354 -6.052722,-30.240682 17.031407,-29.672115 16.15878,0.397994 33.979441,5.610539 34.881737,24.537777 z" /><path
       id="path8677"
       style="opacity:1;fill:#726272;fill-opacity:1;fill-rule:evenodd;stroke-width:0.560708"
       d="m 71.939044,-48.089686 c 0.457169,9.589919 4.072898,15.45227 -5.7946,15.45227 -9.867499,0 -3.764091,1.216707 -11.589203,-4.345951 -28.010576,-24.01437 -16.800352,-32.608362 0.810221,-33.662536 9.046915,-0.541551 16.067658,11.943558 16.573582,22.556217 z"
       sodipodi:nodetypes="ssccs"
       inkscape:original-d="m 71.939044,-48.089686 c 0.457169,9.589919 4.072898,15.45227 -5.7946,15.45227 -9.867499,0 -3.764091,1.216707 -11.589203,-4.345951 -28.010576,-24.01437 -16.800352,-32.608362 0.810221,-33.662536 9.046915,-0.541551 16.067658,11.943558 16.573582,22.556217 z" /></g><path
     d="M263.62,345H36.38A36.38,36.38,0,0,1,0,308.62V259.14H300v49.48A36.38,36.38,0,0,1,263.62,345Z"
     fill="url(#A)"
     id="path9"
     style="opacity:1" /><path
     id="path6957"
     style="fill:#756b7d;fill-opacity:1;fill-rule:evenodd;stroke-width:1.07193"
     d="M 83.662109,230.73438 A 83.662636,47.257137 0 0 0 0,277.99023 83.662636,47.257137 0 0 0 83.662109,325.24805 83.662636,47.257137 0 0 0 150,306.7832 83.662636,47.257137 0 0 0 216.33789,325.24805 83.662636,47.257137 0 0 0 300,277.99023 83.662636,47.257137 0 0 0 216.33789,230.73438 83.662636,47.257137 0 0 0 149.98828,249.20703 83.662636,47.257137 0 0 0 83.662109,230.73438 Z" /><rect
     y="45"
     width="300"
     height="253.39"
     rx="36.38"
     fill="#f6a9cb"
     id="rect11"
     style="opacity:1;fill:#95889e;fill-opacity:1" /><path
     id="path5552"
     style="fill:#95889e;fill-opacity:1;fill-rule:evenodd;stroke-width:1.07193"
     d="M 83.662109 224.73438 A 83.662636 47.257137 0 0 0 0 271.99023 A 83.662636 47.257137 0 0 0 83.662109 319.24805 A 83.662636 47.257137 0 0 0 150 300.7832 A 83.662636 47.257137 0 0 0 216.33789 319.24805 A 83.662636 47.257137 0 0 0 300 271.99023 A 83.662636 47.257137 0 0 0 216.33789 224.73438 A 83.662636 47.257137 0 0 0 149.98828 243.20703 A 83.662636 47.257137 0 0 0 83.662109 224.73438 z " /><g
     id="g5490"
     inkscape:path-effect="#path-effect5492"
     class="UnoptimicedTransforms"
     transform="translate(0,22)"><path
       d="m 92.50714,216.54166 a 12.327252,12.327252 0 1 1 -14.75231,19.75213 c -5.458254,-4.07076 -7.677652,-21.11174 -7.677652,-21.11174 0,0 16.968599,-2.71922 22.418793,1.35466 z"
       fill="#cc4d8c"
       id="path19"
       style="fill:#726272;fill-opacity:1;stroke-width:0.863858"
       inkscape:original-d="m 92.50714,216.54166 a 12.327252,12.327252 0 1 1 -14.75231,19.75213 c -5.458254,-4.07076 -7.677652,-21.11174 -7.677652,-21.11174 0,0 16.968599,-2.71922 22.418793,1.35466 z" /><path
       d="m 92.501818,223.39502 c -4.561493,-3.42589 -17.20402,-2.06924 -21.190918,-1.53184 -0.83737,-3.73234 -1.222554,-6.67618 -1.222554,-6.67618 0,0 16.965491,-2.72728 22.418794,1.35466 a 12.309975,12.309975 0 0 1 4.450852,13.31964 12.189035,12.189035 0 0 0 -4.456174,-6.46628 z"
       fill="#c62c6b"
       id="path21"
       style="fill:#4d2c4d;fill-opacity:1;stroke-width:0.863858"
       inkscape:original-d="m 92.501818,223.39502 c -4.561493,-3.42589 -17.20402,-2.06924 -21.190918,-1.53184 -0.83737,-3.73234 -1.222554,-6.67618 -1.222554,-6.67618 0,0 16.965491,-2.72728 22.418794,1.35466 a 12.309975,12.309975 0 0 1 4.450852,13.31964 12.189035,12.189035 0 0 0 -4.456174,-6.46628 z" /></g><path
     class="cls-4"
     d="m 93.911097,161.15027 a 36.933518,36.933518 0 0 1 -73.856907,0 c 0,-20.39144 16.531954,-28.15092 36.923389,-28.15092 20.391435,0 36.933518,7.75948 36.933518,28.15092 z"
     id="path2059"
     style="fill:#473f4d;fill-opacity:1;stroke-width:1.01298" /><path
     class="cls-11"
     d="m 93.911097,171.40169 a 36.933518,36.933518 0 1 1 -73.856907,0 c 0,-20.39143 16.531954,-23.66338 36.923389,-23.66338 20.391435,0 36.933518,3.27195 36.933518,23.66338 z"
     id="path2063"
     style="fill:#ffffff;stroke-width:1.01298" /><path
     class="cls-12"
     d="m 90.342085,167.99907 a 15.572387,15.572387 0 0 1 -22.633597,-21.10111 26.971703,26.971703 0 1 0 22.633597,21.10111 z m -37.722663,23.29375 a 6.4364292,6.4364292 0 1 1 6.3657,-6.41287 6.4246409,6.4246409 0 0 1 -6.424641,6.41287 z"
     id="path2065"
     style="fill:#414042;stroke-width:1.17883" /><g
     class="UnoptimicedTransforms"
     id="g5498"
     transform="matrix(-1,0,0,1,300,22)"><path
       id="path5494"
       d="m 92.50714,216.54166 a 12.327252,12.327252 0 1 1 -14.75231,19.75213 c -5.458254,-4.07076 -7.677652,-21.11174 -7.677652,-21.11174 0,0 16.968599,-2.71922 22.418793,1.35466 z"
       style="fill:#726272;fill-opacity:1;stroke-width:0.863858"
       fill="#cc4d8c" /><path
       id="path5496"
       d="m 92.501818,223.39502 c -4.561493,-3.42589 -17.20402,-2.06924 -21.190918,-1.53184 -0.83737,-3.73234 -1.222554,-6.67618 -1.222554,-6.67618 0,0 16.965491,-2.72728 22.418794,1.35466 a 12.309975,12.309975 0 0 1 4.450852,13.31964 12.189035,12.189035 0 0 0 -4.456174,-6.46628 z"
       style="fill:#4d2c4d;fill-opacity:1;stroke-width:0.863858"
       fill="#c62c6b" /></g><path
     id="path6529"
     style="opacity:1;fill:#726272;fill-opacity:1;stroke-width:1.91248;stroke-linecap:round;stop-color:#000000"
     d="m 150,178.48889 c -11.3691,0.68806 -22.67545,8.12499 -33.72428,10.96345 v 2.25017 c 10.69701,-1.47838 22.16667,-5.67882 33.72428,-5.398 11.55761,-0.28082 23.02727,3.91962 33.72428,5.398 v -2.25017 C 172.67545,186.61388 161.3691,179.17695 150,178.48889 Z"
     sodipodi:nodetypes="ccccccc" /><path
     id="rect6596"
     style="opacity:1;fill:#d7d5d7;fill-opacity:1;stroke:none;stroke-width:2.03364;stroke-linecap:round;stroke-dasharray:none;stroke-opacity:1;stop-color:#000000"
     d="m 42.658203,313.05078 v 22.82813 c 0,5.0531 4.067994,9.12109 9.121094,9.12109 h 36.724609 c 5.0531,0 9.121094,-4.06799 9.121094,-9.12109 v -17.34375 c -4.610788,0.45788 -9.281481,0.69634 -13.962891,0.71289 -14.383864,-0.0404 -28.506355,-2.17482 -41.003906,-6.19727 z m 214.683597,0 v 22.82813 c 0,5.0531 -4.068,9.12109 -9.1211,9.12109 h -36.72461 c -5.0531,0 -9.12109,-4.06799 -9.12109,-9.12109 v -17.34375 c 4.61079,0.45788 9.28148,0.69634 13.96289,0.71289 14.38387,-0.0404 28.50636,-2.17482 41.00391,-6.19727 z"
     inkscape:path-effect="#path-effect6601"
     inkscape:original-d="M 42.658203 313.05078 L 42.658203 335.87891 C 42.658203 340.93201 46.726197 345 51.779297 345 L 88.503906 345 C 93.557006 345 97.625 340.93201 97.625 335.87891 L 97.625 318.53516 A 83.662636 47.257137 0 0 1 83.662109 319.24805 A 83.662636 47.257137 0 0 1 42.658203 313.05078 z "
     class="UnoptimicedTransforms" /><path
     id="path6603"
     style="fill:#b2a8b2;fill-opacity:1;fill-rule:evenodd;stroke-width:0.872;stroke:#b2a8b2;stroke-opacity:1;stroke-dasharray:none"
     d="M 42.658203 313.05078 L 42.658203 319.05078 A 83.662636 47.257137 0 0 0 83.662109 325.24805 A 83.662636 47.257137 0 0 0 97.625 324.53516 L 97.625 318.53516 C 93.014216 318.99303 88.343515 319.2315 83.662109 319.24805 C 69.278259 319.20768 55.155741 317.07323 42.658203 313.05078 z M 257.3418 313.05078 C 244.84426 317.07323 230.72174 319.20768 216.33789 319.24805 C 211.65648 319.2315 206.98578 318.99303 202.375 318.53516 L 202.375 324.53516 A 83.662636 47.257137 0 0 0 216.33789 325.24805 A 83.662636 47.257137 0 0 0 257.3418 319.17383 L 257.3418 313.05078 z " /><path
     transform="rotate(-76.470032,10.884236,4.461647)"
     id="ellipse7690"
     style="fill:#7f7387;fill-opacity:1"
     inkscape:path-effect="#path-effect8670"
     sodipodi:type="arc"
     sodipodi:cx="-75.184174"
     sodipodi:cy="107.04118"
     sodipodi:rx="12.66"
     sodipodi:ry="18.85"
     d="m -62.524174,107.04118 a 12.66,18.85 0 0 1 -12.66,18.85 12.66,18.85 0 0 1 -12.659999,-18.85 12.66,18.85 0 0 1 12.659999,-18.849997 12.66,18.85 0 0 1 12.66,18.849997 z"
     class="UnoptimicedTransforms" /><path
     transform="matrix(-0.23395392,-0.97224769,-0.97224769,0.23395392,296,14)"
     class="UnoptimicedTransforms"
     id="path8672"
     d="m -62.524174,107.04118 a 12.66,18.85 0 0 1 -12.66,18.85 12.66,18.85 0 0 1 -12.659999,-18.85 12.66,18.85 0 0 1 12.659999,-18.849997 12.66,18.85 0 0 1 12.66,18.849997 z"
     style="fill:#7f7387;fill-opacity:1" /><path
     id="path8691"
     style="fill:#726272;fill-opacity:1;fill-rule:evenodd"
     d="m 43.849609,252.63672 a 7.6434908,7.6434908 0 0 0 -7.644531,7.64453 7.6434908,7.6434908 0 0 0 7.644531,7.64258 7.6434908,7.6434908 0 0 0 7.642579,-7.64258 7.6434908,7.6434908 0 0 0 -7.642579,-7.64453 z m -25.927734,10.75 a 5.3657365,5.3657365 0 0 0 -5.365234,5.36719 5.3657365,5.3657365 0 0 0 5.365234,5.36523 5.3657365,5.3657365 0 0 0 5.365234,-5.36523 5.3657365,5.3657365 0 0 0 -5.365234,-5.36719 z m 26.146484,18.43555 a 4.425179,4.425179 0 0 0 -4.423828,4.42578 4.425179,4.425179 0 0 0 4.423828,4.42383 4.425179,4.425179 0 0 0 4.425782,-4.42383 4.425179,4.425179 0 0 0 -4.425782,-4.42578 z"
     inkscape:path-effect="#path-effect8905"
     inkscape:original-d="m 43.849609,252.63672 a 7.6434908,7.6434908 0 0 0 -7.644531,7.64453 7.6434908,7.6434908 0 0 0 7.644531,7.64258 7.6434908,7.6434908 0 0 0 7.642579,-7.64258 7.6434908,7.6434908 0 0 0 -7.642579,-7.64453 z m -25.927734,10.75 a 5.3657365,5.3657365 0 0 0 -5.365234,5.36719 5.3657365,5.3657365 0 0 0 5.365234,5.36523 5.3657365,5.3657365 0 0 0 5.365234,-5.36523 5.3657365,5.3657365 0 0 0 -5.365234,-5.36719 z m 26.146484,18.43555 a 4.425179,4.425179 0 0 0 -4.423828,4.42578 4.425179,4.425179 0 0 0 4.423828,4.42383 4.425179,4.425179 0 0 0 4.425782,-4.42383 4.425179,4.425179 0 0 0 -4.425782,-4.42578 z"
     class="UnoptimicedTransforms"
     transform="translate(0,8)" /><path
     class="UnoptimicedTransforms"
     id="path8907"
     d="m 43.849609,252.63672 a 7.6434908,7.6434908 0 0 0 -7.644531,7.64453 7.6434908,7.6434908 0 0 0 7.644531,7.64258 7.6434908,7.6434908 0 0 0 7.642579,-7.64258 7.6434908,7.6434908 0 0 0 -7.642579,-7.64453 z m -25.927734,10.75 a 5.3657365,5.3657365 0 0 0 -5.365234,5.36719 5.3657365,5.3657365 0 0 0 5.365234,5.36523 5.3657365,5.3657365 0 0 0 5.365234,-5.36523 5.3657365,5.3657365 0 0 0 -5.365234,-5.36719 z m 26.146484,18.43555 a 4.425179,4.425179 0 0 0 -4.423828,4.42578 4.425179,4.425179 0 0 0 4.423828,4.42383 4.425179,4.425179 0 0 0 4.425782,-4.42383 4.425179,4.425179 0 0 0 -4.425782,-4.42578 z"
     style="fill:#726272;fill-opacity:1;fill-rule:evenodd"
     transform="matrix(-1,0,0,1,300,8)" /><path
     class="cls-4"
     id="path547"
     d="m 206.0889,161.15027 a 36.933518,36.933518 0 0 0 73.85691,0 c 0,-20.39144 -16.53196,-28.15092 -36.92339,-28.15092 -20.39144,0 -36.93352,7.75948 -36.93352,28.15092 z"
     style="fill:#473f4d;fill-opacity:1;stroke-width:1.01298" /><path
     class="cls-11"
     id="path549"
     d="m 206.0889,171.40169 a 36.933518,36.933518 0 1 0 73.85691,0 c 0,-20.39143 -16.53196,-23.66338 -36.92339,-23.66338 -20.39144,0 -36.93352,3.27195 -36.93352,23.66338 z"
     style="fill:#ffffff;stroke-width:1.01298" /><path
     class="cls-12"
     id="path551"
     d="m 262.42205,167.99907 a 15.572387,15.572387 0 0 1 -22.6336,-21.10111 26.971703,26.971703 0 1 0 22.6336,21.10111 z m -37.72266,23.29375 a 6.4364292,6.4364292 0 1 1 6.3657,-6.41287 6.4246409,6.4246409 0 0 1 -6.42465,6.41287 z"
     style="fill:#414042;stroke-width:1.17883" /><path
     class="cls-4"
     id="path1025"
     d="m 206.0889,161.15027 a 36.933518,36.933518 0 0 0 73.85691,0 c 0,-20.39144 -16.53196,-28.15092 -36.92339,-28.15092 -20.39144,0 -36.93352,7.75948 -36.93352,28.15092 z"
     style="fill:#473f4d;fill-opacity:1;stroke-width:1.01298" /><path
     class="cls-11"
     id="path1027"
     d="m 206.0889,171.40169 a 36.933518,36.933518 0 1 0 73.85691,0 c 0,-20.39143 -16.53196,-23.66338 -36.92339,-23.66338 -20.39144,0 -36.93352,3.27195 -36.93352,23.66338 z"
     style="fill:#ffffff;stroke-width:1.01298" /><path
     class="cls-12"
     id="path1029"
     d="m 262.42205,167.99907 a 15.572387,15.572387 0 0 1 -22.6336,-21.10111 26.971703,26.971703 0 1 0 22.6336,21.10111 z m -37.72266,23.29375 a 6.4364292,6.4364292 0 1 1 6.3657,-6.41287 6.4246409,6.4246409 0 0 1 -6.42465,6.41287 z"
     style="fill:#414042;stroke-width:1.17883" /><g
     transform="matrix(-1,0,0,1,323.27218,81.826491)"
     class="UnoptimicedTransforms"
     id="g1037"><path
       id="path1033"
       d="m 84.831488,-57.276472 c 0.815342,17.103223 4.246603,34.024001 -13.351672,34.024001 -17.598275,0 -15.116932,8.446739 -20.668863,-7.750824 -3.623309,-10.570877 -11.349523,-13.354571 -17.892609,-21.138839 -9.135422,-10.868354 -6.052722,-30.240682 17.031407,-29.672115 16.15878,0.397994 33.979441,5.610539 34.881737,24.537777 z"
       style="opacity:1;fill:#95889e;fill-opacity:1;fill-rule:evenodd" /><path
       id="path1035"
       d="m 71.939044,-48.089686 c 0.457169,9.589919 4.072898,15.45227 -5.7946,15.45227 -9.867499,0 -3.764091,1.216707 -11.589203,-4.345951 -28.010576,-24.01437 -16.800352,-32.608362 0.810221,-33.662536 9.046915,-0.541551 16.067658,11.943558 16.573582,22.556217 z"
       style="opacity:1;fill:#726272;fill-opacity:1;fill-rule:evenodd;stroke-width:0.560708" /></g></svg>
