<?xml version="1.0" encoding="UTF-8" standalone="no"?>
<svg
   viewBox="0 0 300 345"
   version="1.1"
   id="svg57"
   sodipodi:docname="ladyBug.svg"
   xml:space="preserve"
   inkscape:version="1.4 (e7c3feb1, 2024-10-09)"
   xmlns:inkscape="http://www.inkscape.org/namespaces/inkscape"
   xmlns:sodipodi="http://sodipodi.sourceforge.net/DTD/sodipodi-0.dtd"
   xmlns="http://www.w3.org/2000/svg"
   xmlns:svg="http://www.w3.org/2000/svg"><sodipodi:namedview
     id="namedview59"
     pagecolor="#505050"
     bordercolor="#ffffff"
     borderopacity="1"
     inkscape:showpageshadow="0"
     inkscape:pageopacity="0"
     inkscape:pagecheckerboard="1"
     inkscape:deskcolor="#505050"
     showgrid="false"
     inkscape:zoom="0.36"
     inkscape:cx="166.66667"
     inkscape:cy="198.61111"
     inkscape:window-width="1472"
     inkscape:window-height="766"
     inkscape:window-x="0"
     inkscape:window-y="38"
     inkscape:window-maximized="0"
     inkscape:current-layer="svg57" /><defs
     id="defs7"><inkscape:path-effect
       effect="mirror_symmetry"
       start_point="123.58142,237.36858"
       end_point="123.58142,306.37196"
       center_point="123.58142,271.87027"
       id="path-effect1690"
       is_visible="true"
       lpeversion="1.2"
       lpesatellites=""
       mode="vertical"
       discard_orig_path="false"
       fuse_paths="false"
       oposite_fuse="false"
       split_items="true"
       split_open="false"
       link_styles="false" /><inkscape:path-effect
       effect="mirror_symmetry"
       start_point="125.26241,283.83594"
       end_point="125.26241,345"
       center_point="125.26241,314.41797"
       id="path-effect14860"
       is_visible="true"
       lpeversion="1.2"
       lpesatellites=""
       mode="vertical"
       discard_orig_path="false"
       fuse_paths="false"
       oposite_fuse="false"
       split_items="true"
       split_open="false"
       link_styles="false" /><inkscape:path-effect
       effect="mirror_symmetry"
       start_point="128.10742,150.11693"
       end_point="128.10742,208.27734"
       center_point="128.10742,179.19713"
       id="path-effect10915"
       is_visible="true"
       lpeversion="1.2"
       lpesatellites=""
       mode="vertical"
       discard_orig_path="false"
       fuse_paths="false"
       oposite_fuse="false"
       split_items="true"
       split_open="false"
       link_styles="false" /><inkscape:path-effect
       effect="mirror_symmetry"
       start_point="120.19538,264.93359"
       end_point="120.19538,310.66"
       center_point="120.19538,287.79679"
       id="path-effect9662"
       is_visible="true"
       lpeversion="1.2"
       lpesatellites=""
       mode="vertical"
       discard_orig_path="false"
       fuse_paths="false"
       oposite_fuse="false"
       split_items="true"
       split_open="false"
       link_styles="false" /><inkscape:path-effect
       effect="mirror_symmetry"
       start_point="120.21738,219.11743"
       end_point="120.21738,310.66078"
       center_point="120.21738,264.8891"
       id="path-effect9659"
       is_visible="true"
       lpeversion="1.2"
       lpesatellites=""
       mode="vertical"
       discard_orig_path="false"
       fuse_paths="false"
       oposite_fuse="false"
       split_items="true"
       split_open="false"
       link_styles="false" /><inkscape:path-effect
       effect="mirror_symmetry"
       start_point="120.21738,219.11743"
       end_point="120.21738,310.66078"
       center_point="120.21738,264.8891"
       id="path-effect7211"
       is_visible="true"
       lpeversion="1.2"
       lpesatellites=""
       mode="vertical"
       discard_orig_path="false"
       fuse_paths="false"
       oposite_fuse="false"
       split_items="true"
       split_open="false"
       link_styles="false" /><inkscape:path-effect
       effect="mirror_symmetry"
       start_point="72.488544,294.60088"
       end_point="72.488544,348.50261"
       center_point="72.488544,321.55174"
       id="path-effect1995"
       is_visible="true"
       lpeversion="1.2"
       lpesatellites=""
       mode="vertical"
       discard_orig_path="false"
       fuse_paths="false"
       oposite_fuse="false"
       split_items="false"
       split_open="false"
       link_styles="false" /><linearGradient
       id="A"
       x1="150"
       y1="356.11"
       x2="150"
       y2="161.16"
       gradientUnits="userSpaceOnUse"><stop
         offset="0"
         stop-color="#594a42"
         id="stop2"
         style="stop-color:#36363a;stop-opacity:1;" /><stop
         offset="0.3111878"
         stop-color="#281813"
         id="stop4"
         style="stop-color:#19191c;stop-opacity:1;" /></linearGradient></defs><path
     d="M263.62,345H36.38A36.38,36.38,0,0,1,0,308.62V259.14H300v49.48A36.38,36.38,0,0,1,263.62,345Z"
     fill="url(#A)"
     id="path9" /><path
     style="color:#000000;fill:#1b1b20;stroke-width:1.01515;stroke-linejoin:round;-inkscape-stroke:none;paint-order:stroke fill markers;fill-opacity:1"
     d="m 283.34375,290.02539 -17.55664,9.69336 c 5.26267,10.16286 4.74959,20.06777 0.79687,29.60742 -2.3999,5.79205 -6.23553,11.22594 -10.69921,15.67383 h 7.73437 a 36.38,36.38 0 0 0 21.17383,-7.16406 c 0.0369,-0.088 0.0845,-0.16958 0.12109,-0.25782 5.86805,-14.1622 6.71201,-31.5586 -1.57031,-47.55273 z"
     id="path14856" /><path
     style="color:#000000;fill:#1b1b20;stroke-width:1.01515;stroke-linejoin:round;-inkscape-stroke:none;paint-order:stroke fill markers;fill-opacity:1"
     d="m 16.654297,288.40234 c -8.2823217,15.89327 -7.4363999,33.29757 -1.568359,47.53125 0.395334,0.95894 0.862689,1.87393 1.298828,2.8086 A 36.38,36.38 0 0 0 36.380859,345 h 9.083985 c -5.035319,-4.72413 -9.409619,-10.69674 -12.046875,-17.09375 -3.952701,-9.5878 -4.467759,-19.4989 0.794922,-29.59766 z"
     id="path14854" /><path
     style="color:#000000;fill:#1b1b20;stroke-width:1.01515;stroke-linejoin:round;-inkscape-stroke:none;paint-order:stroke fill markers;fill-opacity:1"
     d="m 243.67383,284.97852 -15.77735,12.54687 c 8.49168,11.43704 7.6411,21.24837 2.19336,31.4707 -3.17817,5.96366 -8.37462,11.56909 -14.35742,16.00391 h 28.24024 c 1.2952,-1.90646 2.49759,-3.88186 3.58789,-5.92773 8.3419,-15.65309 9.1032,-36.59821 -3.88672,-54.09375 z"
     id="path14852" /><path
     style="color:#000000;fill:#1b1b20;stroke-width:1.01515;stroke-linejoin:round;-inkscape-stroke:none;paint-order:stroke fill markers;fill-opacity:1"
     d="m 56.326172,283.83594 c -12.989921,17.33731 -12.226666,38.29413 -3.884766,54.04883 1.310014,2.47412 2.792004,4.84031 4.394532,7.11523 h 28.464843 c -6.427635,-4.61987 -12.029305,-10.62852 -15.392578,-16.98047 -5.447726,-10.28869 -6.296344,-20.10976 2.195313,-31.44336 z"
     id="path1989" /><path
     id="rect13452"
     style="opacity:1;fill:#d91821;fill-opacity:1;stroke:none;stroke-width:5;stroke-linecap:round;stroke-linejoin:round;stroke-dasharray:none;stroke-opacity:1;paint-order:stroke fill markers;stop-color:#000000"
     d="m 110.22656,77.847656 c -61.11998,0 -110.32616937,49.204234 -110.32616937,110.324224 v 46.5039 c 0,0.63623 0.03625373,1.26288 0.046875,1.89649 H 0.08984375 C 0.11315119,240.04979 0.10539675,243.87819 0,248.53711 c -0.12164988,13.70101 -0.85525871,29.0349 10.65625,39.1875 15.393055,14.80293 36.545168,9.71048 55.568359,10.65625 H 263.61914 c 21.97874,0.71013 39.0273,-20.75308 36.38086,-41.87891 -0.23596,-17.04029 0.14787,-19.94515 0,-27.2539 V 188.17188 C 300,127.05189 250.79577,77.847656 189.67578,77.847656 Z" /><path
     id="rect18904"
     style="opacity:1;fill:#b2a29d;fill-opacity:1;stroke-width:2.04;stroke-linecap:round;stroke-linejoin:round;paint-order:stroke fill markers;stop-color:#000000"
     d="M 252.75195 97.568359 C 252.76109 97.568826 252.77016 97.569845 252.7793 97.570312 C 252.63078 97.466864 252.47718 97.370312 252.32812 97.267578 C 252.47085 97.365909 252.60972 97.469373 252.75195 97.568359 z " /><path
     id="rect19170"
     style="fill:#ff826c;fill-opacity:1;stroke-width:2.0646;stroke-linecap:round;stroke-linejoin:round;paint-order:stroke fill markers;stop-color:#000000"
     d="m 110.22656,77.847656 c -28.781193,0 -54.915973,10.915883 -74.519529,28.843754 17.708335,-0.85466 42.76854,-1.0721 58.160157,7.77734 18.898572,10.86577 29.988562,31.38914 40.972652,49.95117 5.403,9.58958 10.43032,19.40647 14.95118,29.46485 0.70729,-15.26727 1.41239,-30.53555 2.12109,-45.80274 18.27643,-17.3607 37.2427,-34.8892 60.06836,-45.70898 12.70481,-5.290033 26.55084,-5.60002 40.14453,-5.250003 C 234.3887,84.963141 212.89701,77.847656 189.67578,77.847656 Z"
     sodipodi:nodetypes="scscccccss" /><path
     id="rect4880"
     style="fill:#0c0d0e;fill-opacity:1;stroke-width:11.2472;stroke-linejoin:round;paint-order:stroke fill markers;stop-color:#000000"
     d="m 131.97461,77.847656 c -0.22326,0.09077 -0.448,0.169773 -0.66992,0.273438 14.6279,38.187666 13.09299,89.830686 15.22851,138.416016 h 4.70118 c 1.22803,-56.19689 3.56826,-110.75526 17.81115,-138.689454 h -3.01233 z"
     sodipodi:nodetypes="ccccccc" /><path
     id="path13"
     style="fill:#380808;stroke-linecap:round;stroke-linejoin:round;paint-order:stroke fill markers"
     d="M 130.63867 77.847656 A 1.2776278 1.2776278 0 0 0 130.61328 77.869141 L 129.76758 79.355469 A 1.2776278 1.2776278 0 0 0 129.68555 80.441406 L 129.87891 80.949219 A 1.2776278 1.2776278 0 0 0 129.95117 81.107422 C 135.96131 92.122223 139.79674 110.28456 142.11914 133.41406 C 144.44139 156.54218 145.25196 184.59695 145.35938 214.86328 A 1.2776278 1.2776278 0 0 0 145.35938 214.89844 C 145.38237 215.66968 145.47791 216.3575 145.66602 216.95703 C 145.76012 217.2568 145.87161 217.536 146.07422 217.82617 C 146.10882 217.87577 146.23291 217.90177 146.27734 217.95508 C 146.28734 218.04878 146.25794 218.09759 146.45508 218.46484 C 146.74773 219.01012 147.20753 219.53024 147.89453 219.68359 C 148.58153 219.83695 149.16127 219.54005 149.48633 219.29492 C 149.80718 219.05293 149.88084 218.74244 150.09766 218.46094 C 150.31432 218.7421 150.38652 219.0532 150.70703 219.29492 C 151.03209 219.54006 151.61183 219.83695 152.29883 219.68359 C 152.98583 219.53024 153.44563 219.01012 153.73828 218.46484 C 153.93628 218.09614 153.90864 218.04638 153.91797 217.95312 C 153.96177 217.90043 154.08487 217.87522 154.11914 217.82617 C 154.32178 217.53598 154.43329 217.25681 154.52734 216.95703 C 154.71546 216.35748 154.81104 215.66971 154.83398 214.89844 A 1.2776278 1.2776278 0 0 0 154.83398 214.86328 C 154.9414 184.59695 155.75197 156.54218 158.07422 133.41406 C 160.39661 110.28456 164.23205 92.122223 170.24219 81.107422 A 1.2776278 1.2776278 0 0 0 170.39062 80.355469 C 170.33292 79.828214 170.26945 79.319884 170.20312 78.820312 A 1.2776278 1.2776278 0 0 0 170.14258 78.566406 L 169.89258 77.847656 L 167.1543 77.847656 C 161.2918 90.234883 156.27636 108.99581 154.02734 131.39453 C 151.74463 154.12888 150.95003 180.93947 150.76758 209.48047 C 150.56806 209.37532 150.37948 209.25391 150.09766 209.25391 C 149.81583 209.25391 149.62725 209.37532 149.42773 209.48047 C 149.24528 180.93947 148.4507 154.12889 146.16797 131.39453 C 144.94862 119.25065 143.2182 107.75637 140.96094 97.792969 C 138.97469 89.025812 135.56009 83.516876 132.875 77.947266 A 1.2776278 1.2776278 0 0 0 132.76953 77.847656 L 130.63867 77.847656 z " /><path
     id="path15354"
     style="fill:#ff3939;fill-opacity:0.239407;fill-rule:evenodd;stroke-width:0.984063"
     d="m 110.27267,77.847656 c -57.616699,0 -104.6262152,43.731744 -109.82812515,99.945314 -0.516698,76.4042 83.35471615,63.11961 149.60156515,57.33008 64.19904,3.89957 149.31341,27.00804 149.51172,-57.20899 C 294.41226,121.64246 247.37979,77.847656 189.72189,77.847656 Z"
     sodipodi:nodetypes="scccss"
     sodipodi:insensitive="true" /><path
     id="ellipse13065"
     style="fill:#2b2b2f;fill-opacity:1;fill-rule:evenodd;stroke-width:0.621608"
     d="M 210.54688 137.06445 A 32.984547 33.324593 0 0 0 177.5625 170.39062 A 32.984547 33.324593 0 0 0 210.54688 203.71484 A 32.984547 33.324593 0 0 0 243.53125 170.39062 A 32.984547 33.324593 0 0 0 210.54688 137.06445 z " /><path
     id="path10"
     style="fill:#2b2b2f;fill-opacity:1;fill-rule:evenodd;stroke-width:0.621608"
     d="M 246.05469 93.251953 A 46.127403 46.602943 0 0 0 238.01953 118.99609 A 46.127403 46.602943 0 0 0 284.14648 165.59961 A 46.127403 46.602943 0 0 0 297.25195 163.64062 C 290.49899 133.69312 271.65463 108.44199 246.05469 93.251953 z " /><path
     id="path8"
     style="fill:#212427;fill-opacity:1;fill-rule:evenodd;stroke-width:0.621608"
     d="M 267.0957 234.83398 A 39.488918 39.896023 0 0 0 298.43164 272.30859 C 300.06258 267.2635 300.67289 261.87345 300 256.50195 C 299.76404 239.46168 300.14787 236.55679 300 229.24805 L 300 194.43359 A 39.488918 39.896023 0 0 0 298.07812 194.99219 C 294.22084 216.57897 282.82341 228.5789 267.0957 234.83398 z " /><path
     id="path7"
     style="fill:#2b2b2f;fill-opacity:1;fill-rule:evenodd;stroke-width:0.621608"
     d="M 267.0957 234.83398 C 282.82341 228.5789 294.22084 216.57897 298.07812 194.99219 A 39.488918 39.896023 0 0 0 266.93359 233.47461 A 39.488918 39.896023 0 0 0 267.0957 234.83398 z " /><path
     id="path6"
     style="fill:#212427;fill-opacity:1;fill-rule:evenodd;stroke-width:0.621608"
     d="M 62.958984 239.00586 A 32.984547 33.324593 0 0 0 87.003906 249.71484 A 32.984547 33.324593 0 0 0 111.40039 238.54102 C 94.676901 239.78761 78.060371 240.38825 62.958984 239.00586 z " /><path
     id="path5"
     style="fill:#2b2b2f;fill-opacity:1;fill-rule:evenodd;stroke-width:0.621608"
     d="M 62.958984 239.00586 C 78.060371 240.38825 94.676901 239.78761 111.40039 238.54102 A 32.984547 33.324593 0 0 0 119.98828 216.39062 A 32.984547 33.324593 0 0 0 87.003906 183.06445 A 32.984547 33.324593 0 0 0 54.019531 216.39062 A 32.984547 33.324593 0 0 0 62.958984 239.00586 z " /><path
     id="path4"
     style="fill:#212427;fill-opacity:1;fill-rule:evenodd;stroke-width:0.621608"
     d="M 3.1933594 199.60547 A 39.623032 40.031513 0 0 0 -0.099609375 198.43555 L -0.099609375 234.67578 C -0.099609375 235.31201 -0.063355628 235.93866 -0.052734375 236.57227 L 0.08984375 236.57227 C 0.11315117 240.04978 0.10539664 243.87819 0 248.53711 C -0.078982789 257.43267 -0.3946742 267.00878 2.5292969 275.41602 A 39.623032 40.031513 0 0 0 30.617188 237.2832 A 39.623032 40.031513 0 0 0 29.886719 230.93164 C 17.095186 224.85262 7.5982906 214.97804 3.1933594 199.60547 z " /><path
     id="path3"
     style="fill:#2b2b2f;fill-opacity:1;fill-rule:evenodd;stroke-width:0.621608"
     d="M 3.1933594 199.60547 C 7.5982906 214.97804 17.095186 224.85262 29.886719 230.93164 A 39.623032 40.031513 0 0 0 3.1933594 199.60547 z " /><path
     id="path2"
     style="fill:#212427;fill-opacity:1;fill-rule:evenodd;stroke-width:0.621608"
     d="M 48.076172 96.957031 A 39.623032 40.031513 0 0 0 48.048828 96.929688 C 25.83798 112.05824 9.5077336 135.1018 3.0097656 162.06641 A 39.623032 40.031513 0 0 0 3.0507812 162.08789 C 9.5403437 135.12487 25.879006 112.09175 48.076172 96.957031 z " /><path
     id="path1"
     style="fill:#2b2b2f;fill-opacity:1;fill-rule:evenodd;stroke-width:0.621608"
     d="M 48.076172 96.957031 C 25.879006 112.09175 9.5403437 135.12487 3.0507812 162.08789 A 39.623032 40.031513 0 0 0 23.851562 168.22852 A 39.623032 40.031513 0 0 0 63.474609 128.19727 A 39.623032 40.031513 0 0 0 48.076172 96.957031 z " /><path
     style="color:#000000;fill:#34383d;fill-opacity:1;stroke-width:1.10753;stroke-linecap:round;stroke-linejoin:round;paint-order:stroke fill markers"
     d="m 206.97659,157.13802 c -0.59029,-0.0219 -1.18491,0.004 -1.77746,0.0815 -2.36925,0.30986 -4.13699,1.67394 -5.91154,3.03497 -19.17703,14.70816 -31.60297,31.21075 -37.37148,50.07398 l -0.0235,5.98646 9.0686,-2.31945 c 8.92523,-17.74737 26.25813,-30.86145 42.9181,-44.72552 3.55519,-2.95856 2.07181,-8.17587 -1.95638,-10.66513 -1.45115,-0.89734 -3.17542,-1.40112 -4.9463,-1.4668 z"
     id="path10922" /><path
     style="color:#000000;fill:#34383d;fill-opacity:1;stroke-width:1.10753;stroke-linecap:round;stroke-linejoin:round;paint-order:stroke fill markers"
     d="m 93.023403,157.13802 c -1.770882,0.0656 -3.495155,0.56946 -4.946297,1.4668 -4.028198,2.48926 -5.511571,7.70657 -1.956387,10.66512 16.659971,13.86408 33.992871,26.97816 42.918101,44.72553 l 9.0686,2.31945 -0.0235,-5.98646 c -5.76851,-18.86323 -18.19445,-35.36582 -37.37149,-50.07399 -1.774543,-1.36102 -3.54228,-2.7251 -5.911526,-3.03496 -0.592553,-0.0773 -1.187179,-0.10338 -1.777465,-0.0815 z"
     id="path10114" /><path
     id="path14858"
     style="color:#000000;fill:#1b1b20;fill-opacity:1;stroke-width:1.01515;stroke-linejoin:round;-inkscape-stroke:none;paint-order:stroke fill markers"
     class="UnoptimicedTransforms"
     d="M 96.287109 283.83594 C 83.297201 301.17323 84.060452 322.13008 92.402344 337.88477 C 93.712356 340.35888 95.194349 342.72508 96.796875 345 L 125.26172 345 C 118.8341 340.38013 113.23241 334.37147 109.86914 328.01953 C 104.42142 317.73085 103.5728 307.90976 112.06445 296.57617 L 96.287109 283.83594 z M 203.71289 283.83594 L 187.93555 296.57617 C 196.4272 307.90976 195.57858 317.73085 190.13086 328.01953 C 186.76759 334.37147 181.1659 340.38013 174.73828 345 L 203.20312 345 C 204.80565 342.72508 206.28764 340.35888 207.59766 337.88477 C 215.93955 322.13008 216.7028 301.17323 203.71289 283.83594 z " /><path
     id="rect1113"
     style="fill:#34383d;fill-opacity:1;stroke-width:7.90722;stroke-linejoin:round;paint-order:stroke fill markers;stop-color:#000000"
     d="m 150,204.50101 c -27.3415,0 -54.682465,7.13168 -75.638672,21.39781 -16.559651,11.27314 -26.710091,36.33674 -22.8125,56.21945 5.556716,28.3464 28.501457,43.79197 50.974612,53.46818 29.14919,12.5507 65.80393,12.5507 94.95312,0 22.47315,-9.67621 45.4179,-25.12178 50.97461,-53.46818 3.8976,-19.88271 -6.25285,-44.94631 -22.81249,-56.21945 C 204.68247,211.63269 177.34149,204.50101 150,204.50101 Z"
     sodipodi:nodetypes="sssaasss" /><path
     id="rect7739"
     style="fill:#212427;fill-opacity:1;stroke-width:18.9564;stroke-linecap:round;stroke-linejoin:round;paint-order:stroke fill markers;stop-color:#000000"
     d="m 249.1875,275.73829 c -62.93617,37.55272 -128.41576,44.99265 -198.273438,1.55227 0.1362,1.63275 0.32562,3.25068 0.634766,4.82772 5.556711,28.34637 28.501477,43.7925 50.974612,53.4687 29.14916,12.55069 65.80396,12.55069 94.95312,0 22.47313,-9.6762 45.41791,-25.12233 50.97461,-53.4687 0.40667,-2.07453 0.62685,-4.21421 0.73633,-6.37999 z"
     sodipodi:nodetypes="ccssssc" /><path
     style="fill:none;fill-rule:evenodd;stroke:#000000;stroke-width:5.91797;stroke-linecap:round;stroke-dasharray:none;stroke-opacity:1"
     id="path7271"
     sodipodi:type="arc"
     sodipodi:cx="150"
     sodipodi:cy="297.89532"
     sodipodi:rx="16.719446"
     sodipodi:ry="17.014019"
     sodipodi:start="0"
     sodipodi:end="3.1709959"
     sodipodi:open="true"
     sodipodi:arc-type="arc"
     d="m 166.71945,297.89532 a 16.719446,17.014019 0 0 1 -8.50204,14.81725 16.719446,17.014019 0 0 1 -16.85934,-0.25225 16.719446,17.014019 0 0 1 -8.07029,-15.06519" /><circle
     cx="93.285416"
     cy="267.66458"
     r="30.296003"
     id="circle936"
     style="fill:#212427;fill-opacity:1;stroke-width:0.831166" /><circle
     cx="93.285416"
     cy="276.07596"
     r="30.296003"
     id="circle942"
     style="fill:#ffffff;stroke-width:0.831166" /><path
     d="m 119.63801,269.94884 a 12.11199,12.11199 0 0 1 -17.58576,-16.42132 21.088248,21.088248 0 1 0 17.59492,16.42132 z M 90.297835,288.0664 a 5.0061667,5.0061667 0 1 1 4.996998,-4.997 4.9969979,4.9969979 0 0 1 -5.033673,4.997 z"
     id="path946"
     style="fill:#0f63bd;fill-opacity:1;stroke-width:0.91688" /><path
     id="path1692"
     d="m 176.41858,267.66458 a 30.296003,30.296003 0 0 0 30.296,30.296 30.296003,30.296003 0 0 0 30.29601,-30.296 30.296003,30.296003 0 0 0 -30.29601,-30.296 30.296003,30.296003 0 0 0 -30.296,30.296 z"
     style="fill:#212427;fill-opacity:1;stroke-width:0.831166" /><path
     id="path1694"
     d="m 176.41858,276.07596 a 30.296003,30.296003 0 0 0 30.296,30.296 30.296003,30.296003 0 0 0 30.29601,-30.296 30.296003,30.296003 0 0 0 -30.29601,-30.29601 30.296003,30.296003 0 0 0 -30.296,30.29601 z"
     style="fill:#ffffff;stroke-width:0.831166" /><path
     id="path1696"
     d="m 221.57054,269.94884 a 12.11199,12.11199 0 0 1 -17.58576,-16.42132 21.088248,21.088248 0 1 0 17.59492,16.42132 z m -29.34017,18.11756 a 5.0061667,5.0061667 0 1 1 4.99699,-4.997 4.9969979,4.9969979 0 0 1 -5.03367,4.997 z"
     style="fill:#0f63bd;fill-opacity:1;stroke-width:0.91688" /></svg>
