<?xml version="1.0" encoding="UTF-8" standalone="no"?>
<svg
   id="Layer_1"
   data-name="Layer 1"
   viewBox="0 0 300 345"
   version="1.1"
   sodipodi:docname="lemur.svg"
   inkscape:version="1.4 (e7c3feb1, 2024-10-09)"
   xmlns:inkscape="http://www.inkscape.org/namespaces/inkscape"
   xmlns:sodipodi="http://sodipodi.sourceforge.net/DTD/sodipodi-0.dtd"
   xmlns="http://www.w3.org/2000/svg"
   xmlns:svg="http://www.w3.org/2000/svg">
  <sodipodi:namedview
     id="namedview42"
     pagecolor="#505050"
     bordercolor="#ffffff"
     borderopacity="1"
     inkscape:showpageshadow="0"
     inkscape:pageopacity="0"
     inkscape:pagecheckerboard="1"
     inkscape:deskcolor="#505050"
     inkscape:zoom="0.57253609"
     inkscape:cx="-45.411984"
     inkscape:cy="337.09665"
     inkscape:window-width="1104"
     inkscape:window-height="701"
     inkscape:window-x="0"
     inkscape:window-y="38"
     inkscape:window-maximized="0"
     inkscape:current-layer="Layer_1" />
  <defs
     id="defs2">
    <linearGradient
       id="linear-gradient"
       x1="150"
       y1="356.11"
       x2="150"
       y2="161.16"
       gradientUnits="userSpaceOnUse">
      <stop
         offset="0"
         stop-color="#d8d5d2"
         id="stop1" />
      <stop
         offset="1"
         stop-color="#847367"
         id="stop2" />
    </linearGradient>
    <clipPath
       id="clip-path">
      <rect
         x="-335"
         y="43.6"
         width="300"
         height="253.39"
         rx="36.38"
         fill="none"
         id="rect2" />
    </clipPath>
  </defs>
  <path
     d="M263.62,345H36.38A36.38,36.38,0,0,1,0,308.62V259.14H300v49.48A36.38,36.38,0,0,1,263.62,345Z"
     fill="url(#linear-gradient)"
     id="path2" />
  <rect
     y="45"
     width="300"
     height="253.39"
     rx="36.38"
     fill="#e8e8e8"
     id="rect3" />
  <path
     d="M40.33,180.6C40.33,120,89.43,89.78,150,89.78S259.67,120,259.67,180.6c0,.56,40.33,12.6,40.33,12.6V156.44A111.45,111.45,0,0,0,188.56,45H111.44A111.45,111.45,0,0,0,0,156.44V193.2S40.33,181.16,40.33,180.6Z"
     fill="#aeaba7"
     id="path3" />
  <path
     d="M184.06,239.31a9.47,9.47,0,0,1-6.16-10.46c3.29-19.74,16.61-67.63,68.41-69.42,30.54-1.06,28.6-11.75,36.26-8.68s4.08,10.48,0,22.34c0,0,10.72,2.75,13.28,10.52s-5.62,13-5.62,13,19.19,54.16-18.89,77.26c-17.57,10.65-46.86,3.5-60-14.89C204.86,249.87,191,241.81,184.06,239.31Z"
     fill="#2f2c38"
     id="path4" />
  <path
     d="M115.94,239.31a9.47,9.47,0,0,0,6.16-10.46c-3.29-19.74-16.61-67.63-68.41-69.42-30.54-1.06-28.6-11.75-36.26-8.68s-4.08,10.48,0,22.34c0,0-10.72,2.75-13.28,10.52s5.62,13,5.62,13-19.19,54.16,18.89,77.26c17.57,10.65,46.86,3.5,60-14.89C95.14,249.87,109,241.81,115.94,239.31Z"
     fill="#2f2c38"
     id="path5" />
  <circle
     cx="242.58"
     cy="207.61"
     r="40.97"
     fill="#15141a"
     id="circle5" />
  <circle
     cx="57.42"
     cy="207.61"
     r="40.97"
     fill="#15141a"
     id="circle6" />
  <path
     d="M242.58,255.18a39,39,0,1,1,38.95-39A39,39,0,0,1,242.58,255.18Z"
     fill="#754c29"
     id="path6" />
  <path
     d="M242.58,179.77a36.46,36.46,0,1,1-36.45,36.45,36.45,36.45,0,0,1,36.45-36.45m0-5A41.46,41.46,0,1,0,284,216.22a41.49,41.49,0,0,0-41.45-41.45Z"
     fill="#15141a"
     id="path7" />
  <path
     d="M57.42,255.18a39,39,0,1,1,39-39A39,39,0,0,1,57.42,255.18Z"
     fill="#754c29"
     id="path8" />
  <path
     d="M57.42,179.77A36.46,36.46,0,1,1,21,216.22a36.45,36.45,0,0,1,36.45-36.45m0-5a41.46,41.46,0,1,0,41.45,41.45,41.49,41.49,0,0,0-41.45-41.45Z"
     fill="#15141a"
     id="path9" />
  <circle
     cx="57.42"
     cy="216.56"
     r="29.02"
     fill="#15141a"
     id="circle9" />
  <circle
     cx="47.8"
     cy="228.11"
     r="7.23"
     fill="#fff"
     id="circle10" />
  <circle
     cx="65.05"
     cy="207.61"
     r="12.37"
     fill="#fff"
     id="circle11" />
  <circle
     cx="242.58"
     cy="216.56"
     r="29.02"
     fill="#15141a"
     id="circle12" />
  <circle
     cx="232.96"
     cy="228.11"
     r="7.23"
     fill="#fff"
     id="circle13" />
  <circle
     cx="250.21"
     cy="207.61"
     r="12.37"
     fill="#fff"
     id="circle14" />
  <path
     d="M177,244.75s-4.1-20.51-13.61-31.85a5.75,5.75,0,0,0-8.39-.5c-1.53,1.51-3.21,7.24-5,7.24s-3.43-5.73-5-7.24a5.75,5.75,0,0,0-8.39.5C127.14,224.24,123,244.75,123,244.75s-17,16.46-17,28c0,19.89,19.68,20.57,44,20.57S194,292.67,194,272.78C194,261.21,177,244.75,177,244.75Z"
     fill="#2f2c38"
     id="path14" />
  <path
     d="M138.93,251.3s2.3,8.14,11.07,8.14,11.07-8.14,11.07-8.14"
     fill="none"
     stroke="#15141a"
     stroke-linecap="round"
     stroke-linejoin="round"
     stroke-width="5.72"
     id="path15" />
  <polyline
     points="138.93 280.72 150 271.05 150 259.44"
     fill="none"
     stroke="#15141a"
     stroke-linecap="round"
     stroke-linejoin="round"
     stroke-width="5.72"
     id="polyline15" />
  <line
     x1="161.07"
     y1="280.72"
     x2="150"
     y2="271.05"
     fill="none"
     stroke="#15141a"
     stroke-linecap="round"
     stroke-linejoin="round"
     stroke-width="5.72"
     id="line15" />
  <path
     d="M228.19,45,279,0s21,24.79,21,95"
     fill="#e8e8e8"
     id="path16" />
  <path
     d="M71.81,45,21,0S0,24.79,0,95"
     fill="#e8e8e8"
     id="path17" />
  <path
     d="M255.83,53.46l24-21.21s9.88,11.68,9.88,44.75"
     fill="#2f2c38"
     id="path18" />
  <path
     d="M44.17,53.46l-24-21.21S10.33,43.93,10.33,77"
     fill="#2f2c38"
     id="path19" />
  <path
     d="M295.06,227.66c-.11,10.32-2.15,21.67-8.45,31.48a46.52,46.52,0,0,1-15.27,14.75c-9.16,5.54-21.49,6.25-33.06,3.07a74,74,0,0,1-27.09,5.24,131.55,131.55,0,0,1-18.67-1.32c-5,12-22.11,12.47-42.52,12.47-24.27,0-43.95-.68-43.95-20.57,0-4.24,2.28-9.14,5.18-13.64.62-1,1.28-1.93,1.94-2.86A38.32,38.32,0,0,0,97.94,259l-.34.14c-16.9,6.78-27.61,23-27.23,39.25H263.62A36.38,36.38,0,0,0,300,262V220.08C298.65,222.26,297,224.83,295.06,227.66Z"
     fill="#c9c0b5"
     id="path20" />
  <path
     d="M267.17,259.14A102.44,102.44,0,0,1,238.28,277c11.57,3.18,23.9,2.47,33.06-3.07a46.52,46.52,0,0,0,15.27-14.75c6.3-9.81,8.34-21.16,8.45-31.48A165.22,165.22,0,0,1,267.17,259.14Z"
     fill="#1e1d23"
     id="path21" />
  <path
     d="M152.86,269.11v.64L163,278.57a2.86,2.86,0,0,1-3.76,4.31l-9.19-8-9.19,8a2.85,2.85,0,0,1-1.88.7,2.85,2.85,0,0,1-1.88-5l10.09-8.82v-3.1c-6.64-2.88-12.79-5.58-18.76-7.51a53.41,53.41,0,0,0-15.21-2.86c-.66.93-1.32,1.88-1.94,2.86-2.9,4.5-5.18,9.4-5.18,13.64,0,19.89,19.68,20.57,44,20.57,20.41,0,37.57-.49,42.52-12.47C176.89,278.64,164.11,273.87,152.86,269.11Z"
     fill="#1e1d23"
     id="path22" />
  <path
     d="M163,278.57l-10.09-8.82v-.64c-2-.82-3.86-1.65-5.72-2.46v3.1l-10.09,8.82a2.86,2.86,0,0,0,3.76,4.31l9.19-8,9.19,8a2.85,2.85,0,0,0,1.88.7,2.85,2.85,0,0,0,1.88-5Z"
     fill="#060507"
     id="path23" />
  <path
     d="M300,226.39s-34.25,67-89.69,67-77.66-34.58-109.06-22.3S60.3,329.31,106.05,345H263.62A36.38,36.38,0,0,0,300,308.62V226.39Z"
     fill="#aeaba7"
     id="path24" />
  <path
     d="M167.84,286.07c-16-5.5-28.58-12.63-40.66-15.89-2.07,18.65-9.94,61.38-38.74,65.42a57.28,57.28,0,0,0,17.61,9.4h42C157.07,331.66,167.63,310.79,167.84,286.07Z"
     fill="#2f2c38"
     id="path25" />
  <path
     d="M189.2,291.6c1.91,13.79,3.18,38.5-8.64,53.4h46.26c5.09-13.82,9.54-34,3.51-54.61a69.82,69.82,0,0,1-20,3A126.75,126.75,0,0,1,189.2,291.6Z"
     fill="#2f2c38"
     id="path26" />
  <path
     d="M300,288.19a70.84,70.84,0,0,0-12.36-24.25,51.89,51.89,0,0,0-7.94-8.28,130.5,130.5,0,0,1-27.46,24.48c5.93,13.91,17.05,46.58.25,64.86h11.13A36.38,36.38,0,0,0,300,308.62Z"
     fill="#2f2c38"
     id="path27" />
</svg>
