<svg data-name="Layer 1" viewBox="0 0 300 345" xmlns="http://www.w3.org/2000/svg"><defs><linearGradient id="a" x1="150" y1="356.11" x2="150" y2="161.16" gradientUnits="userSpaceOnUse"><stop offset="0" stop-color="#fbb040"/><stop offset=".69" stop-color="#f15a29"/></linearGradient></defs><path d="M275.05 52s4.87-11.91 1.74-28.59c-20.42 7.15-27.27 18.89-27.27 18.89s8.26-14.3 3.58-28.59c-13.92.21-19.3 7-19.3 7s1.7-6-1.61-18.22c-14.31 3.4-18.91 12.44-19.57 13.92.26-.81.83-4.27-2.61-16-11 2.86-18.5 11.92-20.95 15.26.14-1.52-.29-4.83-2.59-12-8.73 2.81-17.06 11.52-17.06 11.52s3.91-2 2.52-15.14c-15 2.14-20 10.22-20 10.22H148s-4.93-8.08-20-10.22c-1.39 13.17 2.52 15.14 2.52 15.14s-8.33-8.71-17.06-11.52c-2.3 7.15-2.73 10.46-2.59 12C108.49 12.26 101 3.2 90 .34c-3.44 11.78-2.87 15.24-2.61 16.05-.66-1.48-5.26-10.52-19.57-13.92-3.32 12.26-1.62 18.22-1.62 18.22s-5.38-6.77-19.3-7C42.22 28 50.48 42.3 50.48 42.3s-6.85-11.74-27.27-18.89C20.08 40.09 25 52 25 52S15.06 32.61 0 20.86V113l48.94-41.17 56.5-20.6L124 48.86l23.42 12.83-.22 3 2.8-1.56 2.84 1.56-.22-3L176 48.86l18.52 2.37 56.5 20.6L300 113V20.86C284.94 32.61 275.05 52 275.05 52z" fill="#d46127"/><path d="M202.13 47.35c15-5 21.62-14.9 27.29-23.36 6.91-10.33 12.37-18.49 31.16-18.49a23.11 23.11 0 0117.76 7.77c15.19 16.32 16.37 52.73 16.12 68.34z" fill="#414042"/><path d="M260.58 11a17.66 17.66 0 0113.73 6c11.18 12 14.27 38.26 14.68 56.7l-72.9-27c8.64-5.79 13.68-13.3 17.9-19.61 6.7-10 10.74-16 26.59-16m0-11C215 0 234.92 45 180 45l119.7 44.41S306.17 0 260.58 0z" fill="#fbb040"/><path d="M5.54 81.61c-.25-15.66.93-52 16.12-68.34A23.11 23.11 0 0139.42 5.5c18.79 0 24.25 8.16 31.16 18.5 5.67 8.46 12.32 18.4 27.29 23.36z" fill="#414042"/><path d="M39.42 11C55.27 11 59.31 17 66 27.05c4.22 6.31 9.26 13.82 17.9 19.61L11 73.71C11.42 55.26 14.51 29 25.69 17a17.66 17.66 0 0113.73-6m0-11C-6.17 0 .32 89.41.32 89.41L120 45C65.08 45 85 0 39.42 0z" fill="#fbb040"/><path d="M263.62 345H36.38A36.38 36.38 0 010 308.62v-49.48h300v49.48A36.38 36.38 0 01263.62 345z" fill="url(#a)"/><path d="M12.84 263.87v48.82l8-7.26c-5.36 12.26 5.62 25.78 5.62 25.78a26.05 26.05 0 0013.29-17.07A27 27 0 0046.34 336c14-5.16 17-16 17-16-4.15 16.33 9.46 22.63 9.46 22.63C83 336.22 87.44 320 87.44 320c0 12 9.19 25 9.19 25 9.45-4.6 15.58-25 15.58-25-2 9.44 6.07 16.68 6.07 16.68 3.1-3.84 4.55-10.19 5.12-13.41 0 0 4.82 14.79 12 20.21 0 0 10.56-4.25 16.17-18.55 0 0-1.86 12.6 12.77 18.38 0 0 9.61-4.33 12.29-20 .57 3.22 2 9.57 5.12 13.41 0 0 8.11-7.24 6.07-16.68 0 0 6.13 20.43 15.58 25 0 0 9.19-13 9.19-25 0 0 4.43 16.25 14.59 22.63 0 0 13.61-6.3 9.46-22.63 0 0 3 10.87 17 16a27 27 0 006.63-21.86 26.05 26.05 0 0013.29 17.07s11-13.52 5.62-25.78l8 7.26v-48.86" fill="#d46127"/><path d="M300 251.51H0v48.81l8-7.25c-5.36 12.26 5.62 25.78 5.62 25.78a26 26 0 0013.28-17.07 27 27 0 006.63 21.86c14-5.16 17-16 17-16-4.12 16.3 9.47 27.81 9.47 27.81 10.17-6.39 14.6-27.84 14.6-27.84 0 12 9.19 25 9.19 25 9.45-4.6 15.57-25 15.57-25-2 9.44 6.07 16.67 6.07 16.67 3.1-3.83 4.56-10.19 5.12-13.4-2.58 19.48 7.86 28.8 7.86 28.8 17.26-8 20-17.93 20-17.93 2 11.87 11.63 21.06 11.63 21.06s9.65-9.19 11.63-21.06c0 0 2.69 9.9 20 17.93 0 0 10.44-9.32 7.86-28.8.56 3.21 2 9.57 5.12 13.4 0 0 8.11-7.23 6.07-16.67 0 0 6.12 20.43 15.57 25 0 0 9.19-13 9.19-25 0 0 4.43 21.45 14.6 27.84 0 0 13.6-11.51 9.46-27.84 0 0 3 10.87 17.05 16a27 27 0 006.63-21.86 26 26 0 0013.28 17.07s11-13.52 5.62-25.78l8 7.25z" fill="#f47e20"/><path d="M40.41 294.53c.18-.42.35-.84.51-1.27L15.1 287s-.07.38-.15 1l-8.24-10S0 285.67 1.56 295.27A18 18 0 0014.82 294 24.84 24.84 0 0022 310.22a30.69 30.69 0 0016-11.43 15.4 15.4 0 005.12 9.51s8.5-2.79 11.11-11.38zM259.59 294.53c-.18-.42-.35-.84-.51-1.27L284.9 287s.07.38.15 1l8.24-10s6.72 7.57 5.15 17.17a18 18 0 01-13.26-1.17 24.84 24.84 0 01-7.18 16.22 30.69 30.69 0 01-16-11.43 15.4 15.4 0 01-5.12 9.51s-8.5-2.79-11.11-11.38z" fill="#fbb040"/><rect y="45" width="300" height="253.39" rx="36.38" fill="#fbb040"/><path d="M300 149.81v-109c-15.06 6.1-24.77 23.49-24.77 23.49a51.39 51.39 0 00-6.07-38c-18.89 14-21.88 30.12-21.88 30.12s2.17-23.23-11.14-37.78a40.87 40.87 0 00-16.6 26.14s1.34-19.25-9.62-28.95c-15.36 6.13-19.22 29-19.22 29s-3.41-17.72-12.94-28.95a75.39 75.39 0 00-27.76 29 75.39 75.39 0 00-27.76-28.95c-9.53 11.23-12.94 29-12.94 29S105.44 22 90.08 15.82c-11 9.7-9.62 29-9.62 29a40.87 40.87 0 00-16.6-26.14c-13.31 14.5-11.14 37.73-11.14 37.73s-3-16.08-21.88-30.12a51.39 51.39 0 00-6.07 38S15.06 46.94 0 40.84v109" fill="#f47e20"/><path d="M0 110.47C15.06 116.57 24.77 134 24.77 134a51.39 51.39 0 016.07-38c18.89 14 21.88 30 21.88 30s-2.17-23.23 11.14-37.78a40.87 40.87 0 0116.6 26.14s-1.34-19.25 9.62-28.95c15.36 6.13 19.22 29 19.22 29s3.41-17.72 12.94-28.95a75.39 75.39 0 0127.76 29 75.39 75.39 0 0127.76-28.95c9.53 11.23 12.94 29 12.94 29s3.86-22.82 19.22-28.95c11 9.7 9.62 29 9.62 29a40.87 40.87 0 0116.6-26.14c13.31 14.39 11.14 37.58 11.14 37.58s3-16.08 21.88-30.12a51.39 51.39 0 016.07 38s9.71-17.39 24.77-23.49v93H0z" fill="#fbb040"/><path d="M216.15 256.58c19.18-19.89 7.38-138.27-66.24-138.27s-85 118.8-66.24 138.27 113.33 19.89 132.48 0z" fill="#f7941d"/><path d="M75.8 151.45s12.25-2.88 27.76 21.05c10.5 16.21 20.4 31.85 20.4 46.8 0 37-18 43.54-18 43.54-71.6 0-30.16-111.39-30.16-111.39zM224.2 151.45s-12.2-2.88-27.76 21.05c-10.5 16.21-20.4 31.85-20.4 46.8 0 37 18.05 43.54 18.05 43.54 71.55 0 30.11-111.39 30.11-111.39z" fill="#dc7d27"/><path d="M186.85 233.35c10.68-13.84 4.11-96.19-36.9-96.19s-47.35 82.64-36.89 96.19 63.1 13.83 73.79 0zM170.1 305.65s-.38 6.52-4.93 10.61l-7.11-6.89s-1.75 6.38-9.43 10.85c-7.68-4.47-9.43-10.85-9.43-10.85l-7.1 6.89c-4.56-4.09-4.94-10.61-4.94-10.61" fill="#ffdf81"/><path d="M108.75 213s-.7 11.71-10.8 14.15 17.22 0 17.22 0zM191.25 213.69s.7 11.71 10.8 14.15-17.22 0-17.22 0z" fill="#ffdf81"/><ellipse cx="148.63" cy="270.36" rx="44.84" ry="38.63" fill="#ffdf81"/><path d="M172 237.37c-9.74 2.23-17.13 6.91-21.95 13.1-5.13-6.59-13.17-11.48-23.87-13.52-13.35 6.69-22.34 19.14-22.34 33.41s5.71 26.86 19.26 33.52a47.72 47.72 0 0016.18-4.65 23.06 23.06 0 0121.21-.17 46.13 46.13 0 0014.38 4.52c13.11-6.73 18.65-19.08 18.65-33.22-.05-13.97-8.66-26.21-21.52-32.99z" fill="#ffd261"/><ellipse cx="114.45" cy="259.14" rx="42.13" ry="34.24" fill="#ffdf81"/><ellipse cx="185.55" cy="259.14" rx="42.13" ry="34.24" fill="#ffdf81"/><ellipse cx="108.65" cy="251.96" rx="28.19" ry="19.65" fill="#ffe9b5"/><ellipse cx="191.35" cy="251.96" rx="28.19" ry="19.65" fill="#ffe9b5"/><path d="M108.61 293.38c1.94-.34 3.88-.67 5.8-.95s3.82-.72 5.72-1.07a95.2 95.2 0 0011-2.9 47.11 47.11 0 009.74-4.65l1.08-.69c.35-.24.65-.52 1-.76a17.94 17.94 0 001.85-1.59 12.55 12.55 0 001.44-1.79 8.56 8.56 0 00.52-.92l.18-.43.06-.18v-.08.06l5.92-.18v.08l.06.19.2.45c.18.3.34.62.56.93a8.59 8.59 0 00.7.92l.8.88a19.76 19.76 0 001.92 1.56l1 .73c.37.22.74.44 1.1.67a53.2 53.2 0 009.68 4.66c.86.35 1.77.58 2.66.87s1.79.61 2.71.81c1.85.42 3.68 1 5.56 1.34s3.78.79 5.69 1.11 3.84.62 5.78 1q-2.91.39-5.85.68c-2 .21-3.94.17-5.92.26-1 .05-2 0-3-.06l-3-.15c-1 0-2-.23-3-.34s-2-.22-3-.44l-3-.67c-1-.2-2-.59-3-.88-.5-.15-1-.3-1.49-.49l-1.46-.64-1.44-.68c-.48-.25-.92-.56-1.39-.84s-.92-.57-1.36-.88l-1.29-1a27.74 27.74 0 01-2.43-2.31l-1.09-1.33c-.36-.45-.67-1-1-1.44s-.6-1.05-.89-1.59a9.72 9.72 0 01-.76-2l5.92-.18a10.78 10.78 0 01-.66 2.14 16.1 16.1 0 01-.84 1.66 18.92 18.92 0 01-2.07 2.87 20 20 0 01-2.46 2.34c-.44.35-.87.72-1.32 1l-1.39.87a37.68 37.68 0 01-11.83 4.12c-1 .17-2 .28-3 .42s-2 .3-3 .33l-3 .15-1.49.07h-1.49c-2-.08-4 0-5.94-.25s-3.85-.56-5.79-.81z" fill="#414042"/><path d="M155 233.41c.31 3.9.38 7.81.38 11.71 0 1.95 0 3.91-.09 5.86s-.11 3.9-.21 5.85c-.14 3.91-.47 7.81-.86 11.72a108 108 0 01-1.88 11.71 2.4 2.4 0 01-4.68 0 108 108 0 01-1.88-11.71c-.39-3.91-.72-7.81-.86-11.72-.1-1.95-.18-3.9-.21-5.85s-.08-3.91-.09-5.86c0-3.9.07-7.81.38-11.71a5 5 0 0110 0z" fill="#414042"/><path d="M120.86 224.1c0 12.37 16.92 24 29.14 24s29.14-13.13 29.14-24-58.28-12.37-58.28 0z" fill="#414042"/><ellipse cx="180.4" cy="278.9" rx="3.56" ry="4.12" transform="rotate(-78.25 180.388 278.897)" fill="#faa831"/><circle cx="169.05" cy="277.03" r="2.48" fill="#faa831"/><ellipse cx="192.44" cy="279.85" rx="3.56" ry="4.12" transform="rotate(-88.9 192.455 279.852)" fill="#faa831"/><ellipse cx="205.02" cy="279.13" rx="4.12" ry="3.56" transform="rotate(-8.5 205.019 279.156)" fill="#faa831"/><ellipse cx="181.58" cy="263.87" rx="3.56" ry="4.12" transform="rotate(-86.41 181.59 263.868)" fill="#faa831"/><circle cx="170.08" cy="263.62" r="2.48" fill="#faa831"/><ellipse cx="193.63" cy="263.09" rx="4.12" ry="3.56" transform="rotate(-7.07 193.688 263.099)" fill="#faa831"/><ellipse cx="205.98" cy="260.59" rx="4.12" ry="3.56" transform="rotate(-16.67 205.952 260.566)" fill="#faa831"/><ellipse cx="179.15" cy="249.1" rx="4.12" ry="3.56" transform="rotate(-9.75 179.06 248.99)" fill="#faa831"/><circle cx="167.9" cy="251.51" r="2.48" fill="#faa831"/><ellipse cx="190.7" cy="245.57" rx="4.12" ry="3.56" transform="rotate(-20.4 190.738 245.61)" fill="#faa831"/><ellipse cx="202.14" cy="240.28" rx="4.12" ry="3.56" transform="rotate(-30 202.137 240.282)" fill="#faa831"/><ellipse cx="119.6" cy="278.9" rx="4.12" ry="3.56" transform="rotate(-11.75 119.644 278.956)" fill="#faa831"/><circle cx="130.95" cy="277.03" r="2.48" fill="#faa831"/><ellipse cx="107.56" cy="279.85" rx="4.12" ry="3.56" transform="rotate(-1.1 107.235 278.67)" fill="#faa831"/><ellipse cx="94.98" cy="279.13" rx="3.56" ry="4.12" transform="rotate(-81.5 94.976 279.124)" fill="#faa831"/><ellipse cx="118.42" cy="263.87" rx="4.12" ry="3.56" transform="rotate(-3.59 118.225 263.541)" fill="#faa831"/><circle cx="129.92" cy="263.62" r="2.48" fill="#faa831"/><ellipse cx="106.37" cy="263.09" rx="3.56" ry="4.12" transform="rotate(-82.93 106.371 263.09)" fill="#faa831"/><ellipse cx="94.02" cy="260.59" rx="3.56" ry="4.12" transform="rotate(-73.33 94.029 260.598)" fill="#faa831"/><ellipse cx="120.85" cy="249.1" rx="3.56" ry="4.12" transform="rotate(-80.25 120.86 249.1)" fill="#faa831"/><circle cx="132.1" cy="251.51" r="2.48" fill="#faa831"/><ellipse cx="109.3" cy="245.57" rx="3.56" ry="4.12" transform="rotate(-69.6 109.292 245.557)" fill="#faa831"/><ellipse cx="97.86" cy="240.28" rx="3.56" ry="4.12" transform="matrix(.5 -.87 .87 .5 -159.16 204.89)" fill="#faa831"/><path d="M284.53 186.15a44.58 44.58 0 01-88.34 12.07c-3.33-24.4 15.95-30.68 40.35-34s44.65-2.47 47.99 21.93z" fill="#9a3e21"/><path d="M277 188.36c3 18.59-10.63 36.28-30.5 39.51s-38.43-9.21-41.46-27.8 12.56-24.43 32.43-27.66S274 169.77 277 188.36z" fill="#fff"/><path d="M252.92 195.09c0 1 .08 1.94.08 2.93 0 12.55-4.37 22.72-15.77 22.72-11.4 0-15.83-10.17-15.83-22.74 0-12.57 4.19-22.72 15.78-22.72h.41a13.18 13.18 0 0010.95 20.52 13 13 0 004.38-.71zm-14.9 12.44a5.45 5.45 0 10-5.45 5.46 5.45 5.45 0 005.45-5.46zM15.47 186.15a44.58 44.58 0 0088.34 12.07c3.33-24.4-16-30.68-40.35-34s-44.65-2.47-47.99 21.93z" fill="#9a3e21"/><path d="M23 188.36c-3 18.64 10.63 36.28 30.5 39.51s38.43-9.21 41.46-27.8-12.56-24.43-32.43-27.66S26 169.77 23 188.36z" fill="#fff"/><path d="M74.19 195.83a13.18 13.18 0 01-10.95-20.52h-.41c-11.59 0-15.78 10.17-15.78 22.72s4.38 22.72 15.78 22.72S78.6 210.57 78.6 198c0-1 0-2-.08-2.93a13 13 0 01-4.33.76zM58.17 213a5.46 5.46 0 115.45-5.46 5.45 5.45 0 01-5.45 5.46z" fill="#9a3e21"/><ellipse cx="90.08" cy="158.37" rx="12.66" ry="18.85" transform="rotate(-66.84 90.075 158.372)" fill="#9a3e21"/><ellipse cx="209.92" cy="158.47" rx="18.85" ry="12.66" transform="rotate(-23.16 209.937 158.476)" fill="#9a3e21"/></svg>