<?xml version="1.0" encoding="UTF-8" standalone="no"?>
<svg
   viewBox="0 0 300 345"
   version="1.1"
   id="svg843"
   xml:space="preserve"
   sodipodi:docname="mantis.svg"
   inkscape:version="1.2 (dc2aedaf03, 2022-05-15)"
   xmlns:inkscape="http://www.inkscape.org/namespaces/inkscape"
   xmlns:sodipodi="http://sodipodi.sourceforge.net/DTD/sodipodi-0.dtd"
   xmlns:xlink="http://www.w3.org/1999/xlink"
   xmlns="http://www.w3.org/2000/svg"
   xmlns:svg="http://www.w3.org/2000/svg"
   xmlns:rdf="http://www.w3.org/1999/02/22-rdf-syntax-ns#"
   xmlns:cc="http://creativecommons.org/ns#"
   xmlns:dc="http://purl.org/dc/elements/1.1/"><sodipodi:namedview
     id="namedview60"
     pagecolor="#505050"
     bordercolor="#ffffff"
     borderopacity="1"
     inkscape:showpageshadow="0"
     inkscape:pageopacity="0"
     inkscape:pagecheckerboard="1"
     inkscape:deskcolor="#505050"
     showgrid="false"
     inkscape:zoom="1.5217391"
     inkscape:cx="51.585714"
     inkscape:cy="172.82857"
     inkscape:window-width="1366"
     inkscape:window-height="705"
     inkscape:window-x="-8"
     inkscape:window-y="-8"
     inkscape:window-maximized="1"
     inkscape:current-layer="svg843" /><metadata
     id="metadata847"><rdf:RDF><cc:Work
         rdf:about=""><dc:format>image/svg+xml</dc:format><dc:type
           rdf:resource="http://purl.org/dc/dcmitype/StillImage" /></cc:Work></rdf:RDF></metadata><defs
     id="defs837"><linearGradient
       id="linearGradient64551"><stop
         style="stop-color:#82ba2d;stop-opacity:1.0"
         offset="0"
         id="stop64547" /><stop
         style="stop-color:#a9d85e;stop-opacity:1.0"
         offset="1"
         id="stop64549" /></linearGradient><linearGradient
       id="linearGradient49301"><stop
         style="stop-color:#18642f;stop-opacity:1;"
         offset="0.27437642"
         id="stop49297" /><stop
         style="stop-color:#80d838;stop-opacity:1;"
         offset="0.87074828"
         id="stop49299" /></linearGradient><linearGradient
       xlink:href="#linearGradient49301"
       id="linearGradient49303"
       x1="150.67764"
       y1="218.89439"
       x2="150.67764"
       y2="388.49896"
       gradientUnits="userSpaceOnUse" /><linearGradient
       xlink:href="#linearGradient64551"
       id="linearGradient64553"
       x1="152.0612"
       y1="307.74838"
       x2="153.51485"
       y2="350.49802"
       gradientUnits="userSpaceOnUse" /></defs><path
     id="path839"
     d="m 35.089844,263.29297 c -23.393229,-175.528647 -11.696615,-87.76432 0,0 z m 4.482422,-4.15235 -4.257813,5.72071 -0.199219,-1.39063 C 20.314728,263.0473 9.6884978,272.9063 0,285.15234 v 23.4668 C -4.7498636e-4,328.71193 16.288068,345.00047 36.380859,345 H 263.61914 c 20.09279,4.7e-4 36.38133,-16.28807 36.38086,-36.38086 v -23.4668 C 290.3115,272.9063 279.68527,263.0473 264.88477,263.4707 l -0.19922,1.39063 c -63.19899,-19.37541 -155.3029,-5.72071 -225.113284,-5.72071 z m 225.337894,4.15235 c -176.606773,-175.528647 -88.30339,-87.76432 0,0 z"
     style="fill:url(#linearGradient49303);fill-opacity:1" /><path
     id="rect841"
     style="fill:#246c2f;fill-opacity:1"
     d="M 26.203125,49.607422 C 7.5552834,49.253527 -1.7685492,70.681347 0,86.838841 V 192.27539 c 8.0973851,25.00745 13.608364,53.53225 35.089844,71.01758 -1.95027,-18.62732 -9.443574,-39.90046 2.881678,-56.62305 11.856352,-12.96393 30.6828,7.18514 25.613945,20.1666 -9.376684,12.69681 -18.856961,25.34344 -28.271014,38.02481 56.531445,40.54875 -38.51794,11.35054 -24.291448,23.44036 15.062299,14.4775 36.921325,9.11407 55.698941,10.07778 67.255714,-0.11095 134.524404,0.30037 201.771954,-0.22596 10.86126,-1.00015 34.17709,-13.41687 20.33478,-25.07959 -8.58132,-11.63964 -26.82838,-4.74467 -33.32337,-20.54775 -6.15689,-14.98044 -29.2138,-26.76004 -14.68245,-42.86991 11.06254,-18.11465 30.97824,2.1973 28.1347,17.51695 1.93268,9.97838 -6.34065,37.08549 -2.0832,34.46307 22.7347,-14.00367 25.24186,-45.09327 33.12564,-69.36088 -0.27697,-38.93171 0.56479,-77.90701 -0.44055,-116.811143 -1.20852,-17.423743 -19.9111,-30.008569 -36.11438,-21.854136 -17.41977,6.471028 -20.38646,26.648712 -22.54023,42.69906 -2.89627,10.423469 4.57044,30.256139 -12.80209,23.854909 -35.88144,-1.56609 -71.80618,-6.55633 -107.7056,-2.94866 -19.99697,1.19967 -39.993934,2.39935 -59.9909,3.59903 C 59.786871,98.554266 59.321181,73.282471 43.741506,55.755999 38.805013,51.794589 32.468969,49.867427 26.203125,49.607422 Z" /><path
     id="path67411"
     d="m 257.2496,262.24057 c 14.38605,-0.005 31.86729,5.94451 43.09102,19.78911 v 41.78174 c -1.83982,3.42963 -4.0514,6.94694 -7.39051,8.71504 l -17.68665,11.82606 h -1.64582 c 3.60556,-9.19464 -2.33727,-36.4456 -8.93052,-41.83227 -4.41379,-3.67327 -10.05502,-6.65028 -16.16036,-7.83092 -6.99751,-0.81759 -12.38102,4.06086 -15.23163,8.79667 -2.62183,3.75315 -4.13523,8.07578 -7.58841,11.39661 -8.80029,-2.69702 -17.60136,-5.39427 -26.40165,-8.0913 4.28282,-9.09573 8.36015,-18.26154 12.77664,-27.31106 3.47184,-6.23146 10.83082,-10.11261 18.49977,-12.09615 7.38347,-2.25025 14.7366,-4.35725 22.77694,-4.99197 1.26633,-0.1 2.56475,-0.15111 3.89118,-0.15156 z"
     style="fill:#80d838;fill-opacity:1;stroke-width:9.40164;stroke-linecap:round;stroke-linejoin:round;paint-order:stroke fill markers;stop-color:#000000" /><path
     id="path67413"
     d="m 243.17198,272.89294 c 7.44437,-0.15004 15.31919,1.1851 21.43843,5.67281 9.06068,5.78632 18.01765,13.71368 20.22727,24.73866 2.50482,11.41815 -0.2125,23.03844 -1.86212,34.36476 -1.26255,3.53203 -5.78399,5.72367 -8.94345,6.6919 -0.017,-3.21516 1.29895,-6.59942 0.57706,-10.04128 -0.55448,-10.07585 -2.78225,-20.27672 -7.69388,-29.15369 -3.65224,-5.05395 -9.63865,-7.74246 -15.34368,-9.78454 -4.86219,-1.63031 -10.45592,-0.52689 -14.14721,3.10542 -3.11378,2.91277 -4.53829,6.87163 -9.00805,7.74377 -3.98868,1.37073 -4.15427,9.50988 -8.83362,6.77476 -6.72772,-2.06282 -13.45579,-4.1245 -20.18362,-6.18699 3.43115,-6.99275 6.24849,-14.31542 10.13065,-21.06919 5.04576,-6.92639 13.99539,-8.33881 21.60352,-10.87586 3.90535,-1.15851 7.94167,-2.06695 12.0387,-1.98053 z"
     style="fill:#2a902e;fill-opacity:1;stroke-width:9.40164;stroke-linecap:round;stroke-linejoin:round;paint-order:stroke fill markers;stop-color:#000000" /><path
     id="path67417"
     d="m 231.23981,267.18978 c -1.58651,9.12889 -1.47321,19.39153 6.27958,31.2207 -1.67625,1.45986 -5.09269,5.60555 -6.14883,7.32516 -9.22646,-12.60676 -9.28871,-25.84098 -8.64002,-35.51258 2.47452,-1.19458 5.14107,-2.13806 7.85094,-2.83896 0.21919,-0.0668 0.43918,-0.1278 0.65833,-0.19432 z m 68.00751,30.76018 c 0.36528,0.007 0.72898,0.0286 1.0933,0.0446 v 8.08545 c -0.64596,-0.0146 -1.32008,-0.0151 -2.05924,0.0117 -6.26014,0.22659 -17.6178,3.14381 -28.02003,6.32109 -1.15923,-3.23298 -2.46441,-6.03256 -3.84612,-7.96111 10.76082,-3.46244 21.05631,-6.14149 30.36728,-6.47847 0.82076,-0.0298 1.64352,-0.0382 2.46481,-0.0233 z"
     style="color:#000000;fill:#184120;fill-opacity:1;stroke-width:1.19008;stroke-linecap:round;stroke-linejoin:round;paint-order:stroke fill markers" /><path
     id="path67419"
     style="color:#000000;fill:#184120;stroke-linecap:round;stroke-linejoin:round;paint-order:stroke fill markers"
     d="m 234.13089,303.94331 c 2.82903,-5.07791 9.44311,-5.60129 14.54975,-4.50572 5.23665,0.83923 11.78747,0.92361 14.92725,5.97047 4.58435,7.888 6.37234,17.11442 7.20714,26.10528 0.33299,3.94058 0.18471,7.96858 -0.83461,11.77577 0.60332,2.66108 4.79149,2.20868 4.77281,-0.60866 2.08083,-7.31399 0.20445,-15.03251 -1.40112,-22.25542 -1.85845,-6.54341 -3.46203,-13.51945 -7.76651,-18.95894 -5.10157,-4.83157 -11.71614,-8.24449 -18.67934,-9.30964 -6.95736,-0.59333 -12.90653,4.3538 -16.34887,9.95381 -30.21241,23.59614 -23.79673,-25.90733 -0.96987,-32.69316 2.02359,-0.46301 3.27052,-0.96448 0.35926,-1.00324 -43.43613,-2.94021 -24.33253,75.75438 4.18411,35.52945 z" /><path
     id="path66522"
     style="fill:#80d838;fill-opacity:1;stroke-width:9.40836;stroke-linecap:round;stroke-linejoin:round;paint-order:stroke fill markers;stop-color:#000000"
     d="M 43.127277,262.24057 C 28.8348,262.23545 11.467246,268.23255 0.31652152,282.1877 v 42.11536 c 1.82785738,3.45702 4.02504578,7.00242 7.34243478,8.78464 l 17.5716217,11.92049 h 1.635113 c -3.58211,-9.26806 2.322073,-36.73662 8.872434,-42.1663 4.385081,-3.7026 9.989616,-6.70339 16.055249,-7.89345 6.952009,-0.82412 12.300506,4.09328 15.132578,8.86691 2.604766,3.78311 4.108323,8.14026 7.539039,11.48761 8.743055,-2.71855 17.486888,-5.43734 26.229939,-8.15591 -4.254965,-9.16835 -8.305781,-18.40736 -12.693543,-27.52913 -3.44926,-6.28123 -10.760382,-10.19337 -18.379445,-12.19275 -7.335449,-2.26821 -14.640754,-4.39204 -22.628793,-5.03183 -1.258096,-0.1008 -2.548075,-0.15231 -3.865872,-0.15277 z" /><path
     id="path66745"
     style="fill:#2a902e;fill-opacity:1;stroke-width:9.40836;stroke-linecap:round;stroke-linejoin:round;paint-order:stroke fill markers;stop-color:#000000"
     d="m 57.113329,272.97801 c -39.685739,0.11558 -42.488857,48.2751 -39.135644,67.11 l 7.527359,5.10626 h 1.42683 c -3.728752,-9.08983 2.213669,-36.88771 8.806251,-42.35238 4.385075,-3.70259 9.989623,-6.70339 16.055249,-7.89345 6.952004,-0.82412 12.300511,4.09329 15.132578,8.86691 0.267201,0.38808 0.515739,0.78653 0.763053,1.185 5.852363,0.9021 7.676265,5.5973 9.9956,9.30173 0.916741,-0.28539 1.83363,-0.57083 2.750493,-0.85594 l 20.166392,-6.27166 -8.432512,-18.42719 c -2.214799,-4.83896 -6.946408,-8.65422 -13.174336,-10.6258 L 67.527441,274.4901 c -2.796033,-0.88514 -6.576077,-1.41329 -10.414112,-1.51209 z" /><path
     id="path66591"
     style="color:#000000;fill:#184120;fill-opacity:1;stroke-width:1.19094;stroke-linecap:round;stroke-linejoin:round;paint-order:stroke fill markers"
     d="m 68.967896,267.22931 c 1.576184,9.20178 1.463625,19.54636 -6.238733,31.46999 1.665344,1.47152 5.059565,5.65031 6.108824,7.38366 9.166461,-12.70743 9.228295,-26.04733 8.583832,-35.79616 -2.458423,-1.20412 -5.10764,-2.15513 -7.799877,-2.86163 -0.217761,-0.0673 -0.436317,-0.12882 -0.654046,-0.19586 z M 1.4027036,298.2351 c -0.3629015,0.007 -0.72422844,0.0288 -1.08618208,0.045 v 8.15002 c 0.64176194,-0.0147 1.31149408,-0.0153 2.04583758,0.0118 6.2194324,0.22839 17.5032189,3.16891 27.8377939,6.37156 1.151687,-3.2588 2.44838,-6.08073 3.821102,-8.02468 -10.69083,-3.49008 -20.919356,-6.19053 -30.1697754,-6.5302 -0.8154062,-0.03 -1.632814,-0.0385 -2.448776,-0.0235 z" /><path
     id="path67012"
     style="color:#000000;fill:#184120;stroke-linecap:round;stroke-linejoin:round;paint-order:stroke fill markers"
     d="m 62.004836,294.41435 c -4.280087,-2.82005 -9.791951,-2.83692 -14.42737,-0.91189 -5.131997,1.91766 -10.238589,4.62974 -13.864981,8.81905 -4.435928,6.34403 -5.548829,14.2426 -7.257999,21.61959 -0.983079,6.04571 -2.362385,12.35699 -0.943712,18.43869 1.035716,4.88482 6.61315,1.54802 3.862235,-2.09863 -1.094239,-9.80744 0.926933,-19.77069 4.169863,-29.0091 1.533563,-4.06299 3.652396,-8.7123 8.240937,-9.95995 4.184783,-1.27242 8.613776,-1.40283 12.911046,-2.08055 4.173917,-0.43387 9.062459,0.72488 11.174288,4.71181 2.65844,3.94869 4.338056,8.7016 8.086094,11.81812 57.642833,-34.25171 4.837831,-10.9636 -11.950401,-21.34714 z" /><path
     id="rect49305"
     style="fill:#2f6a20;fill-opacity:1;stroke-width:5.22611;stroke-linecap:round;stroke-linejoin:round;paint-order:stroke fill markers;stop-color:#000000"
     d="m 103.79883,298.39648 c 0.13844,0.41904 0.26214,0.84113 0.40234,1.25977 C 86.08206,311.3922 82.706537,328.49045 77.714844,345 H 222.28516 c -2.73004,-18.95046 -10.59973,-35.09623 -26.92188,-46.63281 -13.3966,0.004 -26.79271,0.0391 -40.18945,0.0351 -17.12503,-0.005 -34.24997,-6e-4 -51.375,-0.006 z" /><path
     id="path53229"
     style="fill:#4f8532;fill-opacity:1;stroke-width:5.22611;stroke-linecap:round;stroke-linejoin:round;paint-order:stroke fill markers;stop-color:#000000"
     d="m 103.79883,298.39648 c 17.12503,0.005 34.24997,8.3e-4 51.375,0.006 13.39674,0.004 26.79285,-0.0307 40.18945,-0.0351 -0.0103,-0.007 -0.0189,-0.0161 -0.0293,-0.0234 15.07802,-51.25153 20.13269,-101.07293 26.95118,-151.14453 H 77.714844 c 5.672752,51.07053 9.97665,102.44554 26.083986,151.19726 z" /><path
     id="path49308"
     style="fill:url(#linearGradient64553);fill-opacity:1;stroke-width:4.33177;stroke-linecap:round;stroke-linejoin:round;paint-order:stroke fill markers;stop-color:#000000"
     d="m 114.78125,298.39844 c 1.61831,3.3862 0.95181,5.89385 -2.31158,7.84676 -10.07122,10.12868 -12.845963,24.66903 -15.995901,38.03871 -0.211869,1.46608 2.812494,0.38462 4.041951,0.71609 34.3945,0 68.789,0 103.1835,0 -1.70752,-15.99098 -7.54556,-32.39765 -20.02149,-43.15039 0.79962,-2.32512 1.18442,-4.34197 -1.98549,-3.47173 -22.30362,0.0351 -44.6075,0.0218 -66.91099,0.0206 z" /><path
     id="path53224"
     style="fill:#c0ca48;fill-opacity:1;stroke-width:4.33177;stroke-linecap:round;stroke-linejoin:round;paint-order:stroke fill markers;stop-color:#000000"
     d="m 114.78125,300.36987 c 13.46424,0.005 26.92836,-6e-5 40.39258,0.004 9.75409,0.003 19.50769,-0.0243 29.26172,-0.0254 10.57571,-46.17494 14.32254,-93.10523 19.26367,-138.27807 H 96.300781 c 4.105249,46.01115 7.259499,94.25698 18.480469,138.29956 z" /><path
     id="path52070"
     style="fill:#76a72a;fill-opacity:1;fill-rule:evenodd;stroke-width:0.958439"
     d="m 196.125,230.43555 c 0.68969,-5.43476 1.34514,-10.86446 1.9668,-16.28711 0.66422,-5.79397 1.2983,-11.58115 1.91797,-17.36719 1.23932,-11.57208 2.42314,-23.13406 3.68945,-34.71094 H 96.300781 c 1.062585,11.90933 2.059401,23.83628 3.148438,35.73828 0.544518,5.95101 1.112561,11.89527 1.722661,17.82813 0.49186,4.78311 1.03813,9.55147 1.5957,14.3164 A 95.722054,73.417892 0 0 0 150,239.76953 a 95.722054,73.417892 0 0 0 46.125,-9.33398 z" /><path
     id="path52905"
     style="fill:#157144;fill-opacity:0.520548;fill-rule:evenodd;stroke-width:0.958439"
     d="m 77.714844,147.19922 c 2.739553,24.66359 5.186715,49.3925 8.767578,73.86914 a 95.722054,73.417892 0 0 0 16.285158,8.88476 c -0.55757,-4.76493 -1.10384,-9.53329 -1.5957,-14.3164 -0.6101,-5.93286 -1.178143,-11.87712 -1.722661,-17.82813 -1.089037,-11.902 -2.085853,-23.82895 -3.148438,-35.73828 H 203.69922 c -1.26631,11.57688 -2.45013,23.13886 -3.68945,34.71094 -0.61967,5.78604 -1.25375,11.57322 -1.91797,17.36719 -0.62166,5.42265 -1.27711,10.85235 -1.9668,16.28711 a 95.722054,73.417892 0 0 0 15.8125,-8.30469 c 3.98478,-25.05367 6.94735,-49.96148 10.34766,-74.93164 z" /><path
     id="path53068"
     style="color:#000000;fill:#184120;fill-opacity:1;stroke-linecap:round;stroke-linejoin:round;paint-order:stroke fill markers"
     d="m 196.58984,293.89844 c -30.55712,7.01756 -62.93303,8.80661 -93.4093,0.38943 -1.86309,0.68857 3.52238,6.46414 -1.45578,7.07385 -0.68081,1.61361 5.7268,1.7949 7.93001,2.68177 29.56385,6.42195 60.34979,4.07586 89.63625,-2.65482 -3.57843,-2.409 -4.62894,-3.17389 -2.70118,-7.49023 z M 87.777344,317.19336 c -1.652054,3.33992 -5.694588,8.26304 0.342308,8.63361 30.483098,11.03704 63.843318,12.20335 95.578738,6.56106 11.16978,-1.90418 22.21,-4.5118 33.12973,-7.52475 -1.73363,-3.27611 -2.74227,-9.29587 -7.4875,-6.19943 -32.2101,8.62523 -66.49912,12.72225 -99.35216,5.18001 -7.5489,-1.6871 -14.974178,-3.92067 -22.211116,-6.6505 z" /><path
     id="path64680"
     style="color:#000000;fill:#80d838;fill-opacity:1;stroke-linecap:round;stroke-linejoin:round;-inkscape-stroke:none;paint-order:stroke fill markers"
     class="UnoptimicedTransforms"
     d="M 111.43359,12.712891 C 93.435606,21.134552 75.621304,32.259402 55.361801,34.426524 47.429467,37.141952 39.366048,28.130686 32.888672,32.300781 c -0.897233,7.148434 7.743732,12.382126 13.448343,15.726582 18.289013,8.394376 39.467754,0.524118 54.703785,-10.67426 5.50908,-7.423986 18.14718,-9.135748 19.67096,2.331909 5.39056,14.854638 2.73824,31.195371 7.3859,46.17241 7.02774,2.065067 13.7691,-7.714096 20.11667,-2.866673 5.34514,2.784261 14.38364,6.208159 13.36279,-3.587808 2.54116,-15.193082 0.73051,-31.702713 8.47366,-45.598253 9.15259,-8.565612 17.5413,6.71397 26.17227,9.468194 15.1366,8.611706 35.94326,12.589671 50.87652,1.437659 5.25143,-2.663492 13.80404,-15.220681 2.57231,-13.679291 -13.22646,7.381875 -28.7648,1.65077 -41.74883,-3.372887 -10.41495,-4.315773 -20.51083,-9.45944 -30.39894,-14.806551 -8.63776,0.07315 -14.00132,8.737484 -17.59537,15.587237 C 152.57606,42.954256 149.45287,59.030736 144,74.248047 137.32039,55.988082 134.39376,35.807164 122.6338,19.817599 119.80216,16.397491 116.00708,13.19627 111.43359,12.712891 Z"
     transform="translate(6)" /><path
     id="path72573"
     style="opacity:1;fill:#336822;fill-opacity:1;stroke-width:3.70541;stroke-linecap:round;stroke-linejoin:round;paint-order:stroke fill markers;stop-color:#000000;stop-opacity:1"
     d="m 61.818359,130.98828 c 5.446429,23.32314 23.031371,41.75432 42.327751,54.85771 5.44605,5.4286 11.66449,4.49438 18.57264,4.47042 -22.12931,-8.84259 -41.594211,-24.75962 -54.262313,-44.98062 -2.714623,-4.52755 -4.984301,-9.33098 -6.638078,-14.34751 z m 176.414061,0.5 c -10.39893,26.91088 -33.70682,47.22608 -59.77833,58.48032 5.93303,1.80508 11.96383,0.37957 16.86108,-3.81101 18.9047,-12.22655 35.13193,-30.03488 42.19343,-51.69141 l 0.38484,-1.48254 z m -49.0664,66.91797 c -5.1868,8.39142 -12.5406,15.41706 -20.38382,21.30635 -8.92065,4.88006 -3.83069,-8.59926 -7.846,-12.24375 -6.47109,-1.92598 -15.38488,-2.1428 -22.00017,0.19791 -2.78238,5.02238 -1.57011,19.07815 -10.31355,10.597 -7.27312,-5.24589 -13.23164,-12.12602 -18.226,-19.52743 -1.491,6.53487 5.7815,11.30316 9.1098,16.27578 4.19833,4.6064 8.99188,8.73061 14.44684,11.78086 5.82196,-3.62796 0.58742,-17.9181 12.05195,-15.25987 5.94186,1.23839 16.73485,-3.11341 16.63593,6.6174 -1.89857,5.85538 2.78378,11.21953 7.7546,5.57912 7.24677,-6.47379 14.90587,-13.1425 19.17081,-22.06165 0.2538,-1.08392 0.24751,-2.28904 -0.40039,-3.26172 z" /><path
     id="path57125"
     style="fill:#42a238;fill-opacity:1;fill-rule:evenodd;stroke-width:0.803228"
     class="UnoptimicedTransforms"
     d="m 45.927734,64.669922 c -11.119524,1.388623 -13.277935,15.06053 -15.129008,24.176012 -3.805485,27.665986 0.360187,56.041246 8.543888,82.560006 6.861193,14.67541 14.725375,28.87728 21.76567,43.48827 5.470321,10.16608 12.24756,21.65113 23.802333,25.42913 11.567552,0.85392 14.05608,-13.62616 15.257863,-22.47529 2.92791,-33.46999 -4.778658,-67.01923 -15.675022,-98.49232 -4.251704,-6.58682 -19.764954,2.6986 -24.383327,-2.11367 -0.214106,-15.25712 -1.86306,-30.616438 -6.511861,-45.205899 -2.9552,-1.980089 -4.034408,-6.451207 -7.670536,-7.366239 z m 208.144536,0 c -8.71718,4.213808 -8.94396,15.250567 -11.13545,23.652449 -1.95574,10.040665 -2.93957,20.262319 -3.07159,30.488179 -7.8018,1.35472 -21.33245,-6.2822 -24.82578,1.84152 -10.59343,31.0951 -18.12142,64.186 -15.20793,97.19598 1.20178,8.84913 3.69031,23.32921 15.25786,22.47529 11.77677,-3.90554 18.6306,-15.65803 24.13056,-26.08595 6.25651,-12.66035 12.44859,-25.34646 20.23357,-37.16173 8.16584,-16.37898 10.17664,-35.11275 11.92546,-53.12342 0.72695,-17.94326 1.00071,-37.354682 -8.13147,-53.433163 -2.03691,-3.067567 -5.21671,-6.071142 -9.17523,-5.849155 z" /><path
     id="rect45431"
     style="opacity:1;fill:#5cbc3e;fill-opacity:1;stroke-width:3.74739;stroke-linecap:round;stroke-linejoin:round;paint-order:stroke fill markers;stop-color:#000000;stop-opacity:1"
     d="M 150,68.417969 C 124.62649,68.769549 97.889738,72.29968 76.221579,86.466174 64.88361,93.666271 57.154548,106.97782 59.324045,120.63237 c 3.307055,22.53608 19.158283,40.93018 36.58193,54.50422 8.203925,6.22525 17.200965,11.4533 26.812775,15.17982 -5.97285,-1.25181 -18.202,0.68405 -11.83487,9.17295 6.02106,8.66607 13.48259,16.83956 22.77343,21.96048 4.49946,-1.00359 2.66649,-6.98031 3.54012,-10.51539 1.54094,-7.92107 12.22339,-3.444 18.06006,-4.62278 7.12563,-1.84572 8.15578,5.34395 7.52181,10.59937 0.225,8.77676 9.10048,0.82339 12.08336,-2.10913 5.781,-5.53047 12.10331,-11.24953 15.43258,-18.58481 3.03847,-9.31329 -19.51503,-3.63019 -9.11148,-7.50741 23.65123,-10.7355 44.60716,-29.22634 55.40138,-53.13474 6.23704,-13.38661 6.45077,-31.0054 -4.56266,-42.026541 C 216.75075,78.014133 194.33408,72.728402 173.46461,69.832933 165.68231,68.876598 157.84021,68.419588 150,68.417969 Z" /><path
     id="path46741"
     style="fill:#80d838;fill-rule:evenodd;fill-opacity:1"
     d="M 150 68.417969 C 126.45848 68.417969 102.96053 72.633465 85.734375 81.007812 A 80.852608 61.801132 0 0 0 69.146484 118.49023 A 80.852608 61.801132 0 0 0 150 180.29297 A 80.852608 61.801132 0 0 0 230.85352 118.49023 A 80.852608 61.801132 0 0 0 214.2793 81.013672 C 197.05195 72.634982 173.54763 68.417969 150 68.417969 z " /><path
     id="path68820"
     style="fill:#64b941;fill-opacity:1.0;fill-rule:evenodd;stroke-width:1.07552"
     class="UnoptimicedTransforms"
     d="M 75.333984 79.490234 A 49.446904 26.518376 80.308269 0 0 56.527344 131.39258 A 49.446904 26.518376 80.308269 0 0 90.460938 177.18945 A 49.446904 26.518376 80.308269 0 0 109.26758 125.28906 A 49.446904 26.518376 80.308269 0 0 75.333984 79.490234 z M 224.66602 79.490234 A 26.518376 49.446904 9.691731 0 0 190.73242 125.28906 A 26.518376 49.446904 9.691731 0 0 209.53906 177.18945 A 26.518376 49.446904 9.691731 0 0 243.47266 131.39258 A 26.518376 49.446904 9.691731 0 0 224.66602 79.490234 z " /><path
     style="fill:#e5f839;fill-opacity:1.0;fill-rule:evenodd"
     d="m 214.80265,108.95322 a 23,49.285713 15.248825 0 0 -35.15311,41.50167 23,49.285713 15.248825 0 0 9.228,53.59861 23,49.285713 15.248825 0 0 35.15285,-41.49974 23,49.285713 15.248825 0 0 -9.22774,-53.60054 z"
     transform="rotate(-7.6244123)"
     id="path45548" /><path
     style="fill:#e5f839;fill-opacity:1.0;fill-rule:evenodd"
     d="M 61.451755,88.425334 A 23,49.285713 0 0 0 38.45134,137.71175 23,49.285713 0 0 0 61.451651,186.99599 23,49.285713 0 0 0 84.451807,137.71151 23,49.285713 0 0 0 61.451755,88.425334 Z"
     id="path45357"
     transform="rotate(-7.6244123)" /><path
     id="rect69914"
     style="opacity:1;fill:#fe9e1c;fill-opacity:0.4520548;stroke-width:3.53316;stroke-linecap:round;stroke-linejoin:round;paint-order:stroke fill markers;stop-color:#000000;stop-opacity:1.0"
     class="UnoptimicedTransforms"
     d="M 102.70703 144.74805 C 85.399188 162.21279 70.122327 156.40391 59.886719 147.55273 A 49.285713 23 82.375588 0 0 85.71875 177.18945 A 49.285713 23 82.375588 0 0 102.70703 144.74805 z M 197.29297 144.74805 A 23 49.285713 7.624412 0 0 214.28125 177.18945 A 23 49.285713 7.624412 0 0 240.11328 147.55273 C 229.87767 156.40391 214.60081 162.21279 197.29297 144.74805 z " /><path
     id="path45826"
     style="fill:#2c310f;fill-opacity:1.0;fill-rule:evenodd;stroke-width:0.51772"
     class="UnoptimicedTransforms"
     d="M 81.117188 91.226562 A 26.162075 11.613563 75.537091 0 0 79.617188 91.492188 A 26.162075 11.613563 75.537091 0 0 75.455078 120.40234 A 26.162075 11.613563 75.537091 0 0 93.371094 141.95508 A 26.162075 11.613563 75.537091 0 0 97.533203 113.04492 A 26.162075 11.613563 75.537091 0 0 81.117188 91.226562 z M 218.88281 91.226562 A 11.613563 26.162075 14.462909 0 0 202.4668 113.04492 A 11.613563 26.162075 14.462909 0 0 206.62891 141.95508 A 11.613563 26.162075 14.462909 0 0 224.54492 120.40234 A 11.613563 26.162075 14.462909 0 0 220.38281 91.492188 A 11.613563 26.162075 14.462909 0 0 218.88281 91.226562 z " /><ellipse
     style="fill:#ffffff;fill-opacity:1.0;fill-rule:evenodd;stroke-width:0.809321"
     id="ellipse45835"
     cx="75.730431"
     cy="105.94479"
     rx="10.676608"
     ry="17.657467" /><ellipse
     style="fill:#ffffff;fill-opacity:1.0;fill-rule:evenodd;stroke-width:0.809321"
     id="path45833"
     cx="224.42488"
     cy="105.94479"
     rx="10.676608"
     ry="17.657467" /><g
     id="g56516"><path
       id="path55657"
       style="fill:#2b7238;fill-opacity:1.0;fill-rule:evenodd;stroke-width:1.06012"
       d="M 26.730469,49.648438 C 9.052272,50.736177 -1.0054304,69.311479 0.0078125,83.71875 v 108.55664 c 36.8166395,73.88295 11.4668155,60.13178 36.3964845,16.7207 3.245859,-5.80236 8.21431,-7.33044 13.007812,-6.2539 4.984014,-1.10692 6.340159,3.28533 10.593359,6.70608 C 60.61058,190.00778 53.823722,176.8279 43.833941,172.71281 33.687983,168.53337 36.496738,159.05041 60.585938,156.59288 41.319461,135.5935 26.474885,104.53788 58.75,93.808594 57.067951,80.838913 53.568366,68.231842 45.744141,57.570312 40.798209,52.529676 33.688554,50.033774 26.730469,49.648438 Z" /><path
       id="path55651"
       style="fill:#80d838;fill-opacity:1.0;fill-rule:evenodd"
       d="M 26.203125,49.607422 C 8.969681,48.838609 -0.94702806,68.585122 0,83.71875 v 108.55664 c 8.0361454,24.74547 13.591551,53.30661 34.683594,70.66016 0.110375,-0.0721 0.221226,-0.14884 0.332031,-0.22461 -1.833049,-17.82754 -8.754265,-37.16699 1.388672,-53.71485 5.107566,-9.13038 14.464431,-7.74262 20.703125,-2.10351 C 57.645846,187.45207 43.131013,176.59557 34.242188,172.48047 25.214397,168.30103 32.467971,156.72706 53.902344,154.26953 35.484984,131.70929 26.36838,104.82363 58.298828,90.693359 56.461358,78.83008 52.939829,67.375378 45.744141,57.570312 40.6734,52.402477 33.327357,49.892722 26.203125,49.607422 Z" /></g><g
     class="UnoptimicedTransforms"
     id="g56508"
     transform="matrix(-1,0,0,1,300,0)"><path
       id="path56502"
       d="M 26.730469,49.648438 C 9.052272,50.736177 -1.0054304,69.311479 0.0078125,83.71875 v 108.55664 c 36.8166395,73.88295 11.4668155,60.13178 36.3964845,16.7207 3.245859,-5.80236 8.21431,-7.33044 13.007812,-6.2539 4.984014,-1.10692 6.340159,3.28533 10.593359,6.70608 C 60.61058,190.00778 53.823722,176.8279 43.833941,172.71281 33.687983,168.53337 36.496738,159.05041 60.585938,156.59288 41.319461,135.5935 26.474885,104.53788 58.75,93.808594 57.067951,80.838913 53.568366,68.231842 45.744141,57.570312 40.798209,52.529676 33.688554,50.033774 26.730469,49.648438 Z"
       style="fill:#2b7238;fill-opacity:1.0;fill-rule:evenodd;stroke-width:1.06012" /><path
       id="path56504"
       d="M 26.203125,49.607422 C 8.969681,48.838609 -0.94702806,68.585122 0,83.71875 v 108.55664 c 8.0361454,24.74547 13.591551,53.30661 34.683594,70.66016 0.110375,-0.0721 0.221226,-0.14884 0.332031,-0.22461 -1.833049,-17.82754 -8.754265,-37.16699 1.388672,-53.71485 5.107566,-9.13038 14.464431,-7.74262 20.703125,-2.10351 C 57.645846,187.45207 43.131013,176.59557 34.242188,172.48047 25.214397,168.30103 32.467971,156.72706 53.902344,154.26953 35.484984,131.70929 26.36838,104.82363 58.298828,90.693359 56.461358,78.83008 52.939829,67.375378 45.744141,57.570312 40.6734,52.402477 33.327357,49.892722 26.203125,49.607422 Z"
       style="fill:#80d838;fill-opacity:1.0;fill-rule:evenodd" /></g><path
     id="rect56616"
     style="opacity:1;fill:#578942;fill-opacity:0.53972602;stroke-width:8;stroke-linecap:round;stroke-linejoin:round;paint-order:stroke fill markers;stop-color:#000000;stop-opacity:1.0"
     class="UnoptimicedTransforms"
     d="M 29.039062 49.845703 C 47.421377 54.179098 46.242408 80.437893 46.429688 98.009766 C 49.505874 95.314413 53.417452 92.853529 58.298828 90.693359 C 56.461362 78.830104 52.939813 67.37536 45.744141 57.570312 C 41.344841 53.086777 35.232918 50.610911 29.039062 49.845703 z M 270.96094 49.845703 C 264.76708 50.610911 258.65516 53.086777 254.25586 57.570312 C 247.06019 67.37536 243.53864 78.830104 241.70117 90.693359 C 246.58255 92.853529 250.49413 95.314413 253.57031 98.009766 C 253.75759 80.437893 252.57862 54.179098 270.96094 49.845703 z " /><g
     id="g6772"><path
       id="rect59034"
       style="fill:#80d838;fill-opacity:1;stroke-width:8;stroke-linecap:round;stroke-linejoin:round;paint-order:stroke fill markers;stop-color:#000000"
       d="m 92.307431,260.83216 c 13.514899,10.43871 13.266419,26.67253 15.597259,41.82032 l -8.131723,2.17115 -4.09471,6.95722 -0.784327,33.03351 H 73.488289 c 0.05778,-0.0193 -1.702954,-32.80119 -2.091016,-44.86976 -0.47512,-14.77606 3.452898,-32.93198 20.910158,-39.11244 z" /><path
       id="path61134"
       style="fill:#2a902e;fill-opacity:1;fill-rule:evenodd;stroke-width:1.15495"
       d="m 95.558594,283.44922 c -6.162186,-0.002 -13.808319,15.57873 -11.158203,34.38476 2.204524,15.64398 -7.35887,17.57513 -11.457032,15.89063 0.215704,4.2951 0.487766,9.65453 0.498047,10.14062 0.125401,0.33189 0.261141,0.70243 0.363282,0.94922 h 21.089843 l 0.783203,-33.0332 4.095704,-6.95703 5.886722,-1.57227 C 103.82445,291.17067 99.887087,283.452 95.558594,283.44922 Z" /><path
       id="path61062"
       style="color:#000000;fill:#184120;fill-opacity:1;stroke-linecap:round;stroke-linejoin:round;paint-order:stroke fill markers"
       d="m 83.765625,304.36719 c -4.154261,-0.002 -8.199798,1.15412 -12.082031,2.53711 0.07413,1.75516 0.137031,3.51079 0.21875,5.26562 4.179708,-1.47204 8.516268,-3.04474 13.019558,-2.76505 3.235089,0.14338 6.293999,1.65763 8.572406,3.9224 0.752751,0.72547 1.445281,1.51172 2.09163,2.33289 0.0306,-1.29297 0.0612,-2.58594 0.0918,-3.87891 0.396485,-0.67318 0.792969,-1.34635 1.189454,-2.01953 -3.35716,-3.1761 -7.812423,-5.27858 -12.473567,-5.38394 -0.209255,-0.007 -0.418627,-0.0105 -0.628,-0.0106 z" /><path
       id="path63652"
       style="fill:none;fill-opacity:1;stroke:#184120;stroke-width:3.9562;stroke-linecap:round;stroke-linejoin:round;stroke-dasharray:none;stroke-opacity:1;paint-order:stroke fill markers;stop-color:#000000"
       d="m 92.309847,260.81013 c -8.904559,2.85681 -15.760348,10.45663 -18.49656,19.30675 -3.786096,10.91829 -2.135983,22.55992 -1.790654,33.84192 0.450681,9.63702 0.978314,19.27026 1.44621,28.90638 7.143969,0 14.287939,0 21.431908,0 0.26134,-10.75833 0.523115,-21.51665 0.784146,-32.27499 1.367575,-2.26536 2.733819,-4.53152 4.100613,-6.79735 2.71354,-0.70732 5.42715,-1.4144 8.14061,-2.12203 -1.83815,-11.49553 -2.00098,-23.99109 -8.88345,-33.9092 -1.851449,-2.66053 -4.15272,-4.99494 -6.732823,-6.95148 z" /></g><g
     class="UnoptimicedTransforms"
     id="g6762"
     transform="matrix(-1,0,0,1,300,0)"><path
       id="path6754"
       d="m 92.307431,260.83216 c 13.514899,10.43871 13.266419,26.67253 15.597259,41.82032 l -8.131723,2.17115 -4.09471,6.95722 -0.784327,33.03351 H 73.488289 c 0.05778,-0.0193 -1.702954,-32.80119 -2.091016,-44.86976 -0.47512,-14.77606 3.452898,-32.93198 20.910158,-39.11244 z"
       style="opacity:1;fill:#80d838;fill-opacity:1;stroke-width:8;stroke-linecap:round;stroke-linejoin:round;paint-order:stroke fill markers;stop-color:#000000;stop-opacity:1" /><path
       id="path6756"
       d="m 95.558594,283.44922 c -3.487376,0.2689 -5.623768,3.6434 -7.198454,6.3943 -4.618396,8.99565 -5.256579,19.55332 -3.787025,29.41722 0.461116,4.61026 0.07796,10.08546 -3.786308,13.21928 -2.170631,1.70624 -5.254411,2.24711 -7.843448,1.24459 0.166063,3.3802 0.349111,6.75962 0.498047,10.14062 0.06675,1.53917 1.728636,0.76447 2.727708,0.94922 6.241806,0 12.483611,0 18.725417,0 0.261068,-11.01107 0.522135,-22.02213 0.783203,-33.0332 1.365235,-2.31901 2.730469,-4.63802 4.095704,-6.95703 1.962242,-0.52409 3.924482,-1.04818 5.886722,-1.57227 -1.01591,-5.9578 -2.2414,-12.20342 -5.84594,-17.20085 -1.038857,-1.31981 -2.47788,-2.5962 -4.255626,-2.60188 z"
       style="fill:#2a902e;fill-opacity:1;fill-rule:evenodd;stroke-width:1.15495" /><path
       id="path6758"
       d="m 83.765625,304.36719 c -4.168353,-0.001 -8.193865,1.15401 -12.082031,2.53711 0.07765,1.8327 0.123716,3.19526 0.21875,5.26562 4.230103,-1.53247 8.25116,-2.80388 11.861328,-2.80273 4.152222,0.002 7.925291,1.34038 11.822266,6.29297 l 0.0918,-3.87891 1.189454,-2.01953 c -4.121084,-3.82625 -8.637981,-5.39311 -13.101563,-5.39453 z"
       style="color:#000000;fill:#184120;stroke-linecap:round;stroke-linejoin:round;paint-order:stroke fill markers;fill-opacity:1.0" /><path
       id="path6760"
       d="m 92.309847,260.81013 c -8.904559,2.85681 -15.760348,10.45663 -18.49656,19.30675 -3.786096,10.91829 -2.135983,22.55992 -1.790654,33.84192 0.450681,9.63702 0.978314,19.27026 1.44621,28.90638 7.143969,0 14.287939,0 21.431908,0 0.26134,-10.75833 0.523115,-21.51665 0.784146,-32.27499 1.367575,-2.26536 2.733819,-4.53152 4.100613,-6.79735 2.71354,-0.70732 5.42715,-1.4144 8.14061,-2.12203 -1.83815,-11.49553 -2.00098,-23.99109 -8.88345,-33.9092 -1.851449,-2.66053 -4.15272,-4.99494 -6.732823,-6.95148 z"
       style="fill:none;fill-opacity:1;stroke:#184120;stroke-width:3.9562;stroke-linecap:round;stroke-linejoin:round;stroke-dasharray:none;stroke-opacity:1;paint-order:stroke fill markers;stop-color:#000000;stop-opacity:1" /></g></svg>
