<svg id="Layer_1" data-name="Layer 1" xmlns="http://www.w3.org/2000/svg" xmlns:xlink="http://www.w3.org/1999/xlink" viewBox="0 0 300 345"><defs><linearGradient id="linear-gradient" x1="150" y1="356.11" x2="150" y2="161.16" gradientUnits="userSpaceOnUse"><stop offset="0" stop-color="#9dc6ea"/><stop offset="1" stop-color="#416eb5"/></linearGradient></defs><path d="M263.62,345H36.38A36.38,36.38,0,0,1,0,308.62V259.14H300v49.48A36.38,36.38,0,0,1,263.62,345Z" fill="url(#linear-gradient)"/><rect y="45" width="300" height="253.39" rx="36.38" fill="#dae6f5"/><path d="M200.9,274c14.76-16.58,5.68-115.27-51-115.27S84.55,257.74,99,274,186.15,290.55,200.9,274Z" fill="#ecf7fe"/><path d="M127.65,258.41s2.7,17.13,22.61,17.13S172.35,257,172.35,257l-23.62-13.15Z" fill="#f38db6"/><path d="M127.87,255s0,22.09,22.13,22.09S172.13,255,172.13,255" fill="none" stroke="#15141a" stroke-linecap="round" stroke-miterlimit="10" stroke-width="12"/><path d="M185.24,250.05C163.62,265.65,150,239.57,150,239.57h0s-13.61,26.08-35.22,10.48" fill="none" stroke="#15141a" stroke-linecap="round" stroke-miterlimit="10" stroke-width="12"/><path d="M115.79,216.66c0,14.52,19.87,28.14,34.21,28.14s34.21-15.41,34.21-28.14S115.79,202.14,115.79,216.66Z" fill="#15141a"/><ellipse cx="56.39" cy="203.51" rx="60.9" ry="50.69" transform="translate(-154.7 209.6) rotate(-76.16)" fill="#2f2c38"/><ellipse cx="243.61" cy="203.51" rx="50.69" ry="60.9" transform="translate(-41.6 64.17) rotate(-13.84)" fill="#2f2c38"/><circle cx="242.58" cy="189.94" r="36.45" fill="#15141a"/><circle cx="57.42" cy="189.94" r="36.45" fill="#15141a"/><circle cx="242.58" cy="200.06" r="36.45" fill="#fff"/><circle cx="57.42" cy="200.06" r="36.45" fill="#fff"/><path d="M89.18,194.77A13.21,13.21,0,0,1,70,176.86a23,23,0,1,0,19.19,17.91Zm-32,19.76a5.46,5.46,0,1,1,5.45-5.45A5.45,5.45,0,0,1,57.14,214.53Z" fill="#15141a"/><path d="M255.63,194.64a13.22,13.22,0,0,1-19.07-17.77,24.25,24.25,0,0,0-3.32-.24,23,23,0,1,0,22.39,18Zm-32.22,19.89a5.46,5.46,0,1,1,5.46-5.45A5.45,5.45,0,0,1,223.41,214.53Z" fill="#15141a"/><path d="M102.83,40.08c0,22.13-17.94,30-40.07,30s-40.08-7.9-40.08-30a40.08,40.08,0,1,1,80.15,0Z" fill="#2f2c38"/><path d="M277.32,40.08c0,22.13-17.94,30-40.08,30s-40.07-7.9-40.07-30a40.08,40.08,0,1,1,80.15,0Z" fill="#2f2c38"/><path d="M82.38,48.58c0,12.28-37.68,12.28-37.68,0s8.43-22.24,18.84-22.24S82.38,36.29,82.38,48.58Z" fill="#15141a"/><path d="M255.3,48.58c0,12.28-37.68,12.28-37.68,0s8.44-22.24,18.84-22.24S255.3,36.29,255.3,48.58Z" fill="#15141a"/></svg>