<svg id="Layer_1" data-name="Layer 1" xmlns="http://www.w3.org/2000/svg" xmlns:xlink="http://www.w3.org/1999/xlink" viewBox="0 0 300 345"><defs><linearGradient id="linear-gradient" x1="-1802.25" y1="356.11" x2="-1802.25" y2="161.16" gradientTransform="matrix(-1, 0, 0, 1, -1652.25, 0)" gradientUnits="userSpaceOnUse"><stop offset="0" stop-color="#2b3990"/><stop offset="0.69" stop-color="#19184d"/></linearGradient><clipPath id="clip-path"><rect y="43.6" width="300" height="253.39" rx="36.38" fill="none"/></clipPath></defs><path d="M36.38,345H263.62A36.38,36.38,0,0,0,300,308.62V259.14H0v49.48A36.38,36.38,0,0,0,36.38,345Z" fill="url(#linear-gradient)"/><rect y="43.6" width="300" height="253.39" rx="36.38" fill="#ffdf81"/><g clip-path="url(#clip-path)"><path d="M-47.94,272.65c-20.7-16.27-25.63-44.54-11-63.15S-15.7,189,5,205.26q4.26,3.36,8.37,6.73A72.18,72.18,0,0,1,35.91,244.4c2.78,8.15,4.32,14.64,4.32,14.64a59.44,59.44,0,0,0,3-16.31,1.78,1.78,0,0,1,3.08-1.11q2.43,2.38,4.78,4.76a1.94,1.94,0,0,1,.54,1.12A111.4,111.4,0,0,1,52,265.91,30.26,30.26,0,0,0,58,257a1.81,1.81,0,0,1,3-.41l2.75,3a1.86,1.86,0,0,1,.5,1.29,113.56,113.56,0,0,1-1.53,15.37,37.93,37.93,0,0,0,5.66-7.95,1.82,1.82,0,0,1,3-.25c1.24,1.41,2.47,2.82,3.67,4.22a1.89,1.89,0,0,1,.45,1.33,114.29,114.29,0,0,1-1.36,11.59A30.43,30.43,0,0,0,76.76,282a4,4,0,0,1,6.28,0c36.35,44.68,51.54,79.63,51.54,79.63s-37.83-6.95-89.43-31.39a4,4,0,0,1-1.47-6.1,30.34,30.34,0,0,0,2.39-3.23,113.69,113.69,0,0,1-10.69,4,1.85,1.85,0,0,1-1.4-.12c-1.67-.84-3.36-1.7-5-2.58a1.85,1.85,0,0,1-.47-3,37.71,37.71,0,0,0,6.23-7.24A113.78,113.78,0,0,1,20.32,317a1.87,1.87,0,0,1-1.37-.18l-3.64-2a1.82,1.82,0,0,1-.32-3A30.45,30.45,0,0,0,22.11,304a111.21,111.21,0,0,1-17.82,4,1.86,1.86,0,0,1-1.21-.25c-1.93-1.15-3.86-2.33-5.81-3.53a1.79,1.79,0,0,1,.34-3.26,59,59,0,0,0,15-6.76s-6.65,0-15.21-.72a72.24,72.24,0,0,1-36.79-14.2Q-43.65,276-47.94,272.65Z" fill="#00a651"/><path d="M-6.84,277.64c-14.16,0-25.53-3.3-33.82-9.81-6.45-5.07-10.65-13.66-11.53-23.57-.82-9.35,1.43-18.42,6-24.28,5.67-7.22,17.09-12.08,28.41-12.08,7.59,0,14.29,2.11,19.37,6.1C26.19,233.29,22.19,270.47,22,272l-.17,1.48-1.42.42a106.12,106.12,0,0,1-27.26,3.7Z" fill="#cc914f"/><path d="M-17.74,210.14c6.55,0,13,1.72,18,5.62,23.85,18.75,19.54,56,19.54,56a104.85,104.85,0,0,1-26.62,3.6c-10.94,0-23.19-2.06-32.43-9.33-12.94-10.17-13.83-33.6-5.12-44.69,5.37-6.83,16.14-11.23,26.65-11.23m0-4.49c-12.16,0-24,5.08-30.18,12.95-4.94,6.29-7.38,16-6.5,25.86C-53.5,255-49,264.14-42,269.59c8.69,6.83,20.54,10.29,35.21,10.29a108.4,108.4,0,0,0,27.9-3.79l2.84-.84.34-2.95c.19-1.62,4.31-40-21.22-60.07-5.48-4.3-12.66-6.58-20.76-6.58Z" fill="#8dc63f"/><path d="M-31.34,262.76c12.46,9.79,29.44,9,37.93-1.84s5.27-27.5-7.19-37.29-24.11-4.78-32.6,6S-43.8,253-31.34,262.76Z" fill="#25afe5"/><path d="M-29.56,257.09C-22.08,263-12,263-5.15,257.76c1.16-.89-9.39-11.06-8.45-12.26,1.33-1.69,13.92,5.57,14.56,3.62a20.1,20.1,0,0,0-7.08-21.87c-8.75-6.88-17.31-2.81-23.79,5.43S-38.32,250.21-29.56,257.09Z" fill="#262262"/><path d="M134.58,361.56s-1-2.31-3.1-6.48c-9-10.14-29.16-34.68-50-72.09a4.13,4.13,0,0,1-.5-2.42A3.86,3.86,0,0,0,76.76,282a30.43,30.43,0,0,1-2.69,3.25,114.29,114.29,0,0,0,1.36-11.59,1.88,1.88,0,0,0-.45-1.33c-1.2-1.4-2.43-2.81-3.67-4.22a1.82,1.82,0,0,0-3,.25,37.93,37.93,0,0,1-5.66,7.95,113.56,113.56,0,0,0,1.53-15.37,1.86,1.86,0,0,0-.5-1.29l-2.75-3a1.81,1.81,0,0,0-3,.41,30.26,30.26,0,0,1-6,8.88,111.4,111.4,0,0,0-.34-18.41,1.94,1.94,0,0,0-.54-1.12q-2.36-2.37-4.78-4.76a1.78,1.78,0,0,0-3.08,1.11,59.44,59.44,0,0,1-3,16.31s-1.54-6.49-4.32-14.64A72.18,72.18,0,0,0,13.37,212Q9.26,208.62,5,205.26a50.39,50.39,0,0,0-34.28-10.95,47.13,47.13,0,0,0,.38,17.45c9.8-2.85,21.31-2.15,29.14,4,15.24,12,19,31.52,19.69,44.07,8.1,2.25,14.37,3.41,14.37,3.41a83.67,83.67,0,0,1-14.23,3.46c-.07,3.17-.29,5.09-.29,5.09s-2.1.62-5.57,1.34L16.83,276a1.8,1.8,0,0,0,1.22.54A144.15,144.15,0,0,0,40,276a50,50,0,0,1-11.91,7.1c-1.5.65-2.1,2.4-1.13,3.35l3,2.91a1.88,1.88,0,0,0,1.44.48,156.75,156.75,0,0,0,18.7-2.49A62.15,62.15,0,0,1,39.37,294c-1.43.71-1.91,2.42-.94,3.3,1.42,1.31,2.85,2.59,4.26,3.86a2,2,0,0,0,1.5.43c7.75-.79,14.15-2.1,14.15-2.1a52.12,52.12,0,0,1-4.46,3.15c-2.78,1.78-3.47,5.24-1.38,7,37.49,31.28,70.18,47,80.67,51.66Z" fill="#009444"/><path d="M-.6,223.63c10.76,8.45,14.62,22.05,10,32.57a71.6,71.6,0,0,0,8.3,3l2.22.63c-.71-12.55-4.45-32.09-19.69-44.07-7.83-6.15-19.34-6.85-29.14-4a43.34,43.34,0,0,0,3.63,10.31C-18,217.2-9.53,216.62-.6,223.63Z" fill="#a86b2b"/><path d="M12.16,270.91c.68.75,1.37,1.48,2.05,2.22,3.47-.72,5.57-1.34,5.57-1.34s.22-1.92.29-5.09c-1.87.29-3.85.55-5.93.73C12.28,267.59,11.08,269.71,12.16,270.91Z" fill="#a86b2b"/><path d="M-.6,223.63c-8.93-7-17.44-6.43-24.67-1.56a42,42,0,0,0,2.36,4.09c5.13-3.2,10.92-3.53,16.79,1.09A20.1,20.1,0,0,1,1,249.12c-.26.81-2.58,0-5.29-1A63.74,63.74,0,0,0,9.41,256.2C14,245.68,10.16,232.08-.6,223.63Z" fill="#0e9ac4"/><path d="M-16.21,235.82A59,59,0,0,0-4.33,248.09c2.71,1.07,5,1.84,5.29,1a20.1,20.1,0,0,0-7.08-21.87c-5.87-4.62-11.66-4.29-16.79-1.09.15.24.29.48.44.71Q-19.36,231.43-16.21,235.82Z" fill="#15113e"/><path d="M347.94,272.65c20.7-16.27,25.63-44.54,11-63.15s-43.26-20.5-64-4.24q-4.26,3.36-8.37,6.73a72.18,72.18,0,0,0-22.54,32.41c-2.78,8.15-4.32,14.64-4.32,14.64a59.44,59.44,0,0,1-3-16.31,1.78,1.78,0,0,0-3.08-1.11q-2.43,2.38-4.78,4.76a1.94,1.94,0,0,0-.54,1.12,111.4,111.4,0,0,0-.34,18.41,30.26,30.26,0,0,1-6-8.88,1.81,1.81,0,0,0-3-.41l-2.75,3a1.86,1.86,0,0,0-.5,1.29,113.56,113.56,0,0,0,1.53,15.37,37.93,37.93,0,0,1-5.66-7.95,1.82,1.82,0,0,0-3-.25c-1.24,1.41-2.47,2.82-3.67,4.22a1.89,1.89,0,0,0-.45,1.33,114.29,114.29,0,0,0,1.36,11.59,30.43,30.43,0,0,1-2.69-3.25,4,4,0,0,0-6.28,0c-36.35,44.68-51.54,79.63-51.54,79.63s37.83-6.95,89.43-31.39a4,4,0,0,0,1.47-6.1,30.34,30.34,0,0,1-2.39-3.23,113.69,113.69,0,0,0,10.69,4,1.85,1.85,0,0,0,1.4-.12c1.67-.84,3.36-1.7,5.05-2.58a1.85,1.85,0,0,0,.47-3,37.71,37.71,0,0,1-6.23-7.24A113.78,113.78,0,0,0,279.68,317a1.87,1.87,0,0,0,1.37-.18l3.64-2a1.82,1.82,0,0,0,.32-3,30.45,30.45,0,0,1-7.12-7.83,111.21,111.21,0,0,0,17.82,4,1.86,1.86,0,0,0,1.21-.25c1.93-1.15,3.86-2.33,5.81-3.53a1.79,1.79,0,0,0-.34-3.26,59,59,0,0,1-15-6.76s6.65,0,15.21-.72a72.24,72.24,0,0,0,36.79-14.2Q343.65,276,347.94,272.65Z" fill="#00a651"/><path d="M306.84,277.64a106.12,106.12,0,0,1-27.26-3.7l-1.42-.42L278,272c-.18-1.57-4.18-38.75,20.38-58,5.08-4,11.78-6.1,19.37-6.1,11.32,0,22.74,4.86,28.41,12.08,4.61,5.86,6.86,14.93,6,24.28-.88,9.91-5.08,18.5-11.53,23.57C332.37,274.34,321,277.64,306.84,277.64Z" fill="#cc914f"/><path d="M317.74,210.14c10.51,0,21.28,4.4,26.65,11.23,8.71,11.09,7.82,34.52-5.12,44.69-9.24,7.27-21.49,9.33-32.43,9.33a104.85,104.85,0,0,1-26.62-3.6s-4.31-37.28,19.54-56c5-3.9,11.43-5.62,18-5.62m0-4.49h0c-8.1,0-15.28,2.28-20.76,6.58-25.53,20.07-21.41,58.45-21.22,60.07l.34,2.95,2.84.84a108.4,108.4,0,0,0,27.9,3.79c14.67,0,26.52-3.46,35.21-10.29,6.94-5.45,11.45-14.61,12.37-25.13.88-9.9-1.56-19.57-6.5-25.86-6.18-7.87-18-12.95-30.17-12.95Z" fill="#8dc63f"/><path d="M331.34,262.76c-12.46,9.79-29.44,9-37.93-1.84s-5.27-27.5,7.19-37.29,24.11-4.78,32.6,6S343.8,253,331.34,262.76Z" fill="#25afe5"/><path d="M329.56,257.09c-7.48,5.88-17.58,5.93-24.41.67-1.16-.89,9.39-11.06,8.45-12.26-1.33-1.69-13.92,5.57-14.56,3.62a20.1,20.1,0,0,1,7.08-21.87c8.75-6.88,17.31-2.81,23.79,5.43S338.32,250.21,329.56,257.09Z" fill="#262262"/><path d="M165.42,361.56s1-2.31,3.1-6.48c9-10.14,29.16-34.68,50-72.09a4.13,4.13,0,0,0,.5-2.42,3.86,3.86,0,0,1,4.22,1.38,30.43,30.43,0,0,0,2.69,3.25,114.29,114.29,0,0,1-1.36-11.59,1.88,1.88,0,0,1,.45-1.33c1.2-1.4,2.43-2.81,3.67-4.22a1.82,1.82,0,0,1,3,.25,37.93,37.93,0,0,0,5.66,7.95,113.56,113.56,0,0,1-1.53-15.37,1.86,1.86,0,0,1,.5-1.29l2.75-3a1.81,1.81,0,0,1,3,.41,30.26,30.26,0,0,0,6,8.88,111.4,111.4,0,0,1,.34-18.41,1.94,1.94,0,0,1,.54-1.12q2.36-2.37,4.78-4.76a1.78,1.78,0,0,1,3.08,1.11,59.44,59.44,0,0,0,3,16.31s1.54-6.49,4.32-14.64A72.18,72.18,0,0,1,286.63,212q4.11-3.37,8.37-6.73a50.39,50.39,0,0,1,34.28-10.95,47.13,47.13,0,0,1-.38,17.45c-9.8-2.85-21.31-2.15-29.14,4-15.24,12-19,31.52-19.69,44.07-8.1,2.25-14.37,3.41-14.37,3.41a83.67,83.67,0,0,0,14.23,3.46c.07,3.17.29,5.09.29,5.09s2.1.62,5.57,1.34L283.17,276a1.8,1.8,0,0,1-1.22.54A144.15,144.15,0,0,1,260,276a50,50,0,0,0,11.91,7.1c1.5.65,2.1,2.4,1.13,3.35l-3,2.91a1.88,1.88,0,0,1-1.44.48,156.75,156.75,0,0,1-18.7-2.49,62.15,62.15,0,0,0,10.71,6.7c1.43.71,1.91,2.42.94,3.3-1.42,1.31-2.85,2.59-4.26,3.86a2,2,0,0,1-1.5.43c-7.75-.79-14.15-2.1-14.15-2.1a52.12,52.12,0,0,0,4.46,3.15c2.78,1.78,3.47,5.24,1.38,7-37.49,31.28-70.18,47-80.67,51.66Z" fill="#009444"/><path d="M300.6,223.63c-10.76,8.45-14.62,22.05-10,32.57a71.6,71.6,0,0,1-8.3,3l-2.22.63c.71-12.55,4.45-32.09,19.69-44.07,7.83-6.15,19.34-6.85,29.14-4a43.34,43.34,0,0,1-3.63,10.31C318,217.2,309.53,216.62,300.6,223.63Z" fill="#a86b2b"/><path d="M287.84,270.91c-.68.75-1.37,1.48-2,2.22-3.47-.72-5.57-1.34-5.57-1.34s-.22-1.92-.29-5.09c1.87.29,3.85.55,5.93.73C287.72,267.59,288.92,269.71,287.84,270.91Z" fill="#a86b2b"/><path d="M300.6,223.63c8.93-7,17.44-6.43,24.67-1.56a42,42,0,0,1-2.36,4.09c-5.13-3.2-10.92-3.53-16.79,1.09A20.1,20.1,0,0,0,299,249.12c.26.81,2.58,0,5.29-1a63.74,63.74,0,0,1-13.74,8.11C286,245.68,289.84,232.08,300.6,223.63Z" fill="#0e9ac4"/><path d="M316.21,235.82a59,59,0,0,1-11.88,12.27c-2.71,1.07-5,1.84-5.29,1a20.1,20.1,0,0,1,7.08-21.87c5.87-4.62,11.66-4.29,16.79-1.09-.15.24-.29.48-.44.71Q319.36,231.43,316.21,235.82Z" fill="#15113e"/><path d="M-47.94,158.77c-20.7-16.26-25.63-44.53-11-63.14s43.26-20.5,64-4.24q4.26,3.36,8.37,6.73a72.13,72.13,0,0,1,22.54,32.41c2.78,8.15,4.32,14.64,4.32,14.64a59.46,59.46,0,0,0,3-16.32,1.78,1.78,0,0,1,3.08-1.1q2.43,2.38,4.78,4.76a1.91,1.91,0,0,1,.54,1.12A111.4,111.4,0,0,1,52,152a30.23,30.23,0,0,0,6-8.89,1.81,1.81,0,0,1,3-.4l2.75,3a1.84,1.84,0,0,1,.5,1.29,113.29,113.29,0,0,1-1.53,15.36,37.67,37.67,0,0,0,5.66-7.94,1.82,1.82,0,0,1,3-.25c1.24,1.41,2.47,2.82,3.67,4.22a1.86,1.86,0,0,1,.45,1.33,114.29,114.29,0,0,1-1.36,11.59,31.8,31.8,0,0,0,2.69-3.25,4,4,0,0,1,6.28,0c36.35,44.67,51.54,79.63,51.54,79.63s-37.83-7-89.43-31.4a4,4,0,0,1-1.47-6.09A30.34,30.34,0,0,0,46.07,207a113.69,113.69,0,0,1-10.69,4,1.85,1.85,0,0,1-1.4-.12c-1.67-.84-3.36-1.71-5-2.59a1.84,1.84,0,0,1-.47-3A37.92,37.92,0,0,0,34.69,198a112,112,0,0,1-14.37,5.07,1.82,1.82,0,0,1-1.37-.17l-3.64-2a1.81,1.81,0,0,1-.32-3,30.45,30.45,0,0,0,7.12-7.83,111.21,111.21,0,0,1-17.82,4,1.86,1.86,0,0,1-1.21-.25c-1.93-1.16-3.86-2.33-5.81-3.53A1.79,1.79,0,0,1-2.39,187a59,59,0,0,0,15-6.76s-6.65,0-15.21-.73a72.13,72.13,0,0,1-36.79-14.19Q-43.65,162.15-47.94,158.77Z" fill="#056d38"/><path d="M-6.84,163.77c-14.16,0-25.53-3.31-33.82-9.82-6.45-5.07-10.65-13.66-11.53-23.56-.82-9.35,1.43-18.42,6-24.28C-40.48,98.88-29.06,94-17.74,94c7.59,0,14.29,2.11,19.37,6.1,24.56,19.29,20.56,56.47,20.38,58l-.17,1.48-1.42.42a106.12,106.12,0,0,1-27.26,3.7Z" fill="#936939"/><path d="M-17.74,96.27c6.55,0,13,1.72,18,5.62,23.85,18.74,19.54,56,19.54,56a104.58,104.58,0,0,1-26.62,3.61c-10.94,0-23.19-2.07-32.43-9.33C-52.21,142-53.1,118.59-44.39,107.5c5.37-6.83,16.14-11.23,26.65-11.23m0-4.49c-12.16,0-24,5.08-30.18,12.94-4.94,6.3-7.38,16-6.5,25.86C-53.5,141.11-49,150.27-42,155.72-33.36,162.55-21.51,166-6.84,166a109,109,0,0,0,27.9-3.79l2.84-.84.34-2.95c.19-1.62,4.31-40-21.22-60.07-5.48-4.3-12.66-6.58-20.76-6.58Z" fill="#648d3d"/><path d="M-31.34,148.88c12.46,9.79,29.44,9,37.93-1.83s5.27-27.5-7.19-37.29-24.11-4.78-32.6,6S-43.8,139.09-31.34,148.88Z" fill="#1d83ac"/><path d="M-29.56,143.22c7.48,5.87,17.58,5.92,24.41.67,1.16-.89-9.39-11.07-8.45-12.27C-12.27,129.93.32,137.2,1,135.25a20.12,20.12,0,0,0-7.08-21.88c-8.75-6.88-17.31-2.8-23.79,5.44S-38.32,136.34-29.56,143.22Z" fill="#131229"/><path d="M134.58,247.69s-1-2.31-3.1-6.48c-9-10.14-29.16-34.68-50-72.1a4.09,4.09,0,0,1-.5-2.41,3.86,3.86,0,0,0-4.22,1.38,31.8,31.8,0,0,1-2.69,3.25,114.29,114.29,0,0,0,1.36-11.59,1.86,1.86,0,0,0-.45-1.33c-1.2-1.4-2.43-2.81-3.67-4.22a1.82,1.82,0,0,0-3,.25,37.67,37.67,0,0,1-5.66,7.94A113.29,113.29,0,0,0,64.22,147a1.84,1.84,0,0,0-.5-1.29l-2.75-3a1.81,1.81,0,0,0-3,.4A30.23,30.23,0,0,1,52,152a111.4,111.4,0,0,0-.34-18.41,1.91,1.91,0,0,0-.54-1.12q-2.36-2.37-4.78-4.76a1.78,1.78,0,0,0-3.08,1.1,59.46,59.46,0,0,1-3,16.32s-1.54-6.49-4.32-14.64A72.13,72.13,0,0,0,13.37,98.12Q9.26,94.75,5,91.39a50.29,50.29,0,0,0-34.28-11,47.13,47.13,0,0,0,.38,17.45c9.8-2.86,21.31-2.15,29.14,4,15.24,12,19,31.51,19.69,44.07,8.1,2.24,14.37,3.4,14.37,3.4a83,83,0,0,1-14.23,3.47c-.07,3.17-.29,5.08-.29,5.08s-2.1.62-5.57,1.35c.87,1,1.75,1.91,2.62,2.84a1.8,1.8,0,0,0,1.22.54,142.66,142.66,0,0,0,22-.57,49.83,49.83,0,0,1-11.91,7.11c-1.5.65-2.1,2.4-1.13,3.35l3,2.9a1.88,1.88,0,0,0,1.44.49,156.75,156.75,0,0,0,18.7-2.49,62.15,62.15,0,0,1-10.71,6.7c-1.43.71-1.91,2.41-.94,3.3,1.42,1.31,2.85,2.59,4.26,3.85a1.93,1.93,0,0,0,1.5.44c7.75-.79,14.15-2.1,14.15-2.1s-1.65,1.34-4.46,3.15-3.47,5.23-1.38,7c37.49,31.28,70.18,47,80.67,51.66Z" fill="#015b2f"/><path d="M-.6,109.76c10.76,8.45,14.62,22,10,32.56a69.83,69.83,0,0,0,8.3,3l2.22.63c-.71-12.56-4.45-32.09-19.69-44.07-7.83-6.15-19.34-6.86-29.14-4a43.34,43.34,0,0,0,3.63,10.31C-18,103.33-9.53,102.74-.6,109.76Z" fill="#6f471d"/><path d="M12.16,157c.68.75,1.37,1.48,2.05,2.22,3.47-.73,5.57-1.35,5.57-1.35s.22-1.91.29-5.08c-1.87.29-3.85.55-5.93.73C12.28,153.72,11.08,155.84,12.16,157Z" fill="#6f471d"/><path d="M-.6,109.76c-8.93-7-17.44-6.43-24.67-1.56a42,42,0,0,0,2.36,4.09c5.13-3.2,10.92-3.54,16.79,1.08A20.12,20.12,0,0,1,1,135.25c-.26.81-2.58,0-5.29-1a63.3,63.3,0,0,0,13.74,8.1C14,131.81,10.16,118.21-.6,109.76Z" fill="#0c6d8b"/><path d="M-16.21,122A59,59,0,0,0-4.33,134.22c2.71,1.06,5,1.84,5.29,1a20.12,20.12,0,0,0-7.08-21.88c-5.87-4.62-11.66-4.28-16.79-1.08l.44.71Q-19.36,117.56-16.21,122Z" fill="#040406"/><path d="M347.94,158.77c20.7-16.26,25.63-44.53,11-63.14s-43.26-20.5-64-4.24q-4.26,3.36-8.37,6.73a72.13,72.13,0,0,0-22.54,32.41c-2.78,8.15-4.32,14.64-4.32,14.64a59.46,59.46,0,0,1-3-16.32,1.78,1.78,0,0,0-3.08-1.1q-2.43,2.38-4.78,4.76a1.91,1.91,0,0,0-.54,1.12A111.4,111.4,0,0,0,248,152a30.23,30.23,0,0,1-6-8.89,1.81,1.81,0,0,0-3-.4l-2.75,3a1.84,1.84,0,0,0-.5,1.29,113.29,113.29,0,0,0,1.53,15.36,37.67,37.67,0,0,1-5.66-7.94,1.82,1.82,0,0,0-3-.25c-1.24,1.41-2.47,2.82-3.67,4.22a1.86,1.86,0,0,0-.45,1.33,114.29,114.29,0,0,0,1.36,11.59,31.8,31.8,0,0,1-2.69-3.25,4,4,0,0,0-6.28,0c-36.35,44.67-51.54,79.63-51.54,79.63s37.83-7,89.43-31.4a4,4,0,0,0,1.47-6.09,30.34,30.34,0,0,1-2.39-3.23,113.69,113.69,0,0,0,10.69,4,1.85,1.85,0,0,0,1.4-.12c1.67-.84,3.36-1.71,5.05-2.59a1.84,1.84,0,0,0,.47-3,37.92,37.92,0,0,1-6.23-7.25,112,112,0,0,0,14.37,5.07,1.82,1.82,0,0,0,1.37-.17l3.64-2a1.81,1.81,0,0,0,.32-3,30.45,30.45,0,0,1-7.12-7.83,111.21,111.21,0,0,0,17.82,4,1.86,1.86,0,0,0,1.21-.25c1.93-1.16,3.86-2.33,5.81-3.53a1.79,1.79,0,0,0-.34-3.26,59,59,0,0,1-15-6.76s6.65,0,15.21-.73a72.13,72.13,0,0,0,36.79-14.19Q343.65,162.15,347.94,158.77Z" fill="#056d38"/><path d="M306.84,163.77a106.12,106.12,0,0,1-27.26-3.7l-1.42-.42-.17-1.48c-.18-1.57-4.18-38.75,20.38-58,5.08-4,11.78-6.1,19.37-6.1,11.32,0,22.74,4.85,28.41,12.08,4.61,5.86,6.86,14.93,6,24.28-.88,9.9-5.08,18.49-11.53,23.56C332.37,160.46,321,163.77,306.84,163.77Z" fill="#936939"/><path d="M317.74,96.27c10.51,0,21.28,4.4,26.65,11.23,8.71,11.09,7.82,34.52-5.12,44.69-9.24,7.26-21.49,9.33-32.43,9.33a104.58,104.58,0,0,1-26.62-3.61s-4.31-37.28,19.54-56c5-3.9,11.43-5.62,18-5.62m0-4.49v0h0c-8.1,0-15.28,2.28-20.76,6.58-25.53,20.06-21.41,58.45-21.22,60.07l.34,2.95,2.84.84a109,109,0,0,0,27.9,3.79c14.67,0,26.52-3.46,35.21-10.29,6.94-5.45,11.45-14.61,12.37-25.14.88-9.9-1.56-19.56-6.5-25.86-6.18-7.86-18-12.94-30.17-12.94Z" fill="#648d3d"/><path d="M331.34,148.88c-12.46,9.79-29.44,9-37.93-1.83s-5.27-27.5,7.19-37.29,24.11-4.78,32.6,6S343.8,139.09,331.34,148.88Z" fill="#1d83ac"/><path d="M329.56,143.22c-7.48,5.87-17.58,5.92-24.41.67-1.16-.89,9.39-11.07,8.45-12.27-1.33-1.69-13.92,5.58-14.56,3.63a20.12,20.12,0,0,1,7.08-21.88c8.75-6.88,17.31-2.8,23.79,5.44S338.32,136.34,329.56,143.22Z" fill="#131229"/><path d="M165.42,247.69s1-2.31,3.1-6.48c9-10.14,29.16-34.68,50-72.1a4.09,4.09,0,0,0,.5-2.41,3.86,3.86,0,0,1,4.22,1.38,31.8,31.8,0,0,0,2.69,3.25,114.29,114.29,0,0,1-1.36-11.59,1.86,1.86,0,0,1,.45-1.33c1.2-1.4,2.43-2.81,3.67-4.22a1.82,1.82,0,0,1,3,.25,37.67,37.67,0,0,0,5.66,7.94A113.29,113.29,0,0,1,235.78,147a1.84,1.84,0,0,1,.5-1.29l2.75-3a1.81,1.81,0,0,1,3,.4,30.23,30.23,0,0,0,6,8.89,111.4,111.4,0,0,1,.34-18.41,1.91,1.91,0,0,1,.54-1.12q2.36-2.37,4.78-4.76a1.78,1.78,0,0,1,3.08,1.1,59.46,59.46,0,0,0,3,16.32s1.54-6.49,4.32-14.64a72.13,72.13,0,0,1,22.54-32.41q4.11-3.37,8.37-6.73a50.29,50.29,0,0,1,34.28-11,47.13,47.13,0,0,1-.38,17.45c-9.8-2.86-21.31-2.15-29.14,4-15.24,12-19,31.51-19.69,44.07-8.1,2.24-14.37,3.4-14.37,3.4a83,83,0,0,0,14.23,3.47c.07,3.17.29,5.08.29,5.08s2.1.62,5.57,1.35c-.87,1-1.75,1.91-2.62,2.84a1.8,1.8,0,0,1-1.22.54,142.66,142.66,0,0,1-21.95-.57,49.83,49.83,0,0,0,11.91,7.11c1.5.65,2.1,2.4,1.13,3.35l-3,2.9a1.88,1.88,0,0,1-1.44.49,156.75,156.75,0,0,1-18.7-2.49,62.15,62.15,0,0,0,10.71,6.7c1.43.71,1.91,2.41.94,3.3-1.42,1.31-2.85,2.59-4.26,3.85a1.93,1.93,0,0,1-1.5.44c-7.75-.79-14.15-2.1-14.15-2.1s1.65,1.34,4.46,3.15,3.47,5.23,1.38,7c-37.49,31.28-70.18,47-80.67,51.66Z" fill="#015b2f"/><path d="M300.6,109.76c-10.76,8.45-14.62,22-10,32.56a69.83,69.83,0,0,1-8.3,3l-2.22.63c.71-12.56,4.45-32.09,19.69-44.07,7.83-6.15,19.34-6.86,29.14-4a43.34,43.34,0,0,1-3.63,10.31C318,103.33,309.53,102.74,300.6,109.76Z" fill="#6f471d"/><path d="M287.84,157c-.68.75-1.37,1.48-2,2.22-3.47-.73-5.57-1.35-5.57-1.35s-.22-1.91-.29-5.08c1.87.29,3.85.55,5.93.73C287.72,153.72,288.92,155.84,287.84,157Z" fill="#6f471d"/><path d="M300.6,109.76c8.93-7,17.44-6.43,24.67-1.56a42,42,0,0,1-2.36,4.09c-5.13-3.2-10.92-3.54-16.79,1.08A20.12,20.12,0,0,0,299,135.25c.26.81,2.58,0,5.29-1a63.3,63.3,0,0,1-13.74,8.1C286,131.81,289.84,118.21,300.6,109.76Z" fill="#0c6d8b"/><path d="M316.21,122a59,59,0,0,1-11.88,12.27c-2.71,1.06-5,1.84-5.29,1a20.12,20.12,0,0,1,7.08-21.88c5.87-4.62,11.66-4.28,16.79-1.08l-.44.71Q319.36,117.56,316.21,122Z" fill="#040406"/><path d="M307.56,106.9c15.12-22.5,11-51.75-9.24-65.34s-48.86-6.37-64,16.13q-3.12,4.64-6.07,9.24a74.41,74.41,0,0,0-11.81,38.89c-.13,8.86.42,15.71.42,15.71a60.91,60.91,0,0,1-8.13-15,1.84,1.84,0,0,0-3.37-.11q-1.62,3.1-3.17,6.18a1.9,1.9,0,0,0-.17,1.26,114.16,114.16,0,0,0,5.5,18.15,31.33,31.33,0,0,1-8.68-6.81,1.87,1.87,0,0,0-3.06.55l-1.75,3.8A1.89,1.89,0,0,0,194,131a116.92,116.92,0,0,0,6.37,14.56,38.74,38.74,0,0,1-8.06-6,1.88,1.88,0,0,0-3,.69c-.76,1.78-1.51,3.54-2.24,5.3a1.85,1.85,0,0,0,0,1.44,113.82,113.82,0,0,0,5,10.92,30.76,30.76,0,0,1-3.66-2.33,4.1,4.1,0,0,0-6.16,2C160.76,212.81,157,251.86,157,251.86s34.85-18.8,77.64-59.1a4.1,4.1,0,0,0-.49-6.44,31.29,31.29,0,0,1-3.37-2.41,115.13,115.13,0,0,0,11.74.51,1.89,1.89,0,0,0,1.33-.56c1.37-1.36,2.75-2.73,4.13-4.13a1.89,1.89,0,0,0-.49-3.06,38.76,38.76,0,0,1-8.39-5.13,115.39,115.39,0,0,0,15.68.41,1.86,1.86,0,0,0,1.28-.6l2.93-3.12a1.86,1.86,0,0,0-.64-3,31.41,31.41,0,0,1-9.45-5.42A115.07,115.07,0,0,0,267.59,158a1.9,1.9,0,0,0,1.1-.63c1.53-1.74,3.05-3.51,4.58-5.3A1.84,1.84,0,0,0,271.9,149,60.87,60.87,0,0,1,255,147.17s6.54-2.07,14.68-5.53a74.34,74.34,0,0,0,31.53-25.57Q304.42,111.57,307.56,106.9Z" fill="#056d38"/><path d="M238.85,128.49c-.68-1.48-16.38-36.63,1.56-63.32,7-10.47,20.32-14.21,30.4-14.21,7.08,0,13.58,1.75,18.3,4.92,6.36,4.28,11.45,12.45,13.6,21.87,2.29,10,.9,19.73-3.81,26.74-16.16,24-56.19,25.31-57.89,25.35l-1.53,0Z" fill="#936939"/><path d="M270.81,53.28c6.41,0,12.53,1.51,17,4.52,12.05,8.1,18.61,31.34,9.16,45.4-15.68,23.32-56,24.33-56,24.33s-16-35.15,1.38-61.07c5.94-8.83,17.62-13.18,28.48-13.18m0-4.63c-13.62,0-26,5.84-32.32,15.23-18.65,27.75-2.44,64-1.74,65.57l1.26,2.78,3.06-.08c1.74,0,42.93-1.36,59.74-26.38,5.07-7.53,6.58-17.94,4.16-28.54-2.29-10-7.73-18.67-14.57-23.26-5.1-3.43-12.06-5.32-19.59-5.32Z" fill="#648d3d"/><path d="M288.16,102.48c-9.1,13.54-26,18.12-37.73,10.22s-13.88-25.26-4.78-38.8,22.1-12.33,33.84-4.44S297.26,88.94,288.16,102.48Z" fill="#1d83ac"/><path d="M284.62,97.49c-5.46,8.13-15.34,11.38-23.69,8.4-1.42-.51,5.68-13.82,4.38-14.69-1.84-1.24-11.87,9.87-13.11,8.17a20.72,20.72,0,0,1,0-23.68c6.4-9.51,16.08-8.23,25-2.21S291,88,284.62,97.49Z" fill="#131229"/><path d="M157,251.87s.25-2.59,1-7.34c5.58-12.78,17.56-43.21,26.11-86.47a4.21,4.21,0,0,0-.28-2.52,4,4,0,0,1,4.58,0,30.76,30.76,0,0,0,3.66,2.33A113.82,113.82,0,0,1,187,147a1.85,1.85,0,0,1,0-1.44c.73-1.76,1.48-3.52,2.24-5.3a1.88,1.88,0,0,1,3-.69,38.74,38.74,0,0,0,8.06,6A116.92,116.92,0,0,1,194,131a1.89,1.89,0,0,1,.08-1.42l1.75-3.8a1.87,1.87,0,0,1,3.06-.55,31.33,31.33,0,0,0,8.68,6.81,114.16,114.16,0,0,1-5.5-18.15,1.9,1.9,0,0,1,.17-1.26q1.54-3.08,3.17-6.18a1.84,1.84,0,0,1,3.37.11,60.91,60.91,0,0,0,8.13,15s-.55-6.85-.42-15.71a74.41,74.41,0,0,1,11.81-38.89q3-4.61,6.07-9.24a51.76,51.76,0,0,1,30.1-21.6A48.57,48.57,0,0,1,269.6,53.3c-10.51.31-21.55,4.65-27.27,13.16-11.14,16.57-8.6,36.89-5.32,49.41-7.22,4.77-13,7.89-13,7.89a85.25,85.25,0,0,0,15-1.12c1.07,3.08,1.89,4.89,1.89,4.89s2.26-.06,5.88-.45c-.55,1.21-1.1,2.43-1.66,3.62a1.88,1.88,0,0,1-1,.92,149.34,149.34,0,0,1-21.67,6.4,51.47,51.47,0,0,0,13.92,3.18c1.67.15,2.81,1.69,2.16,2.92l-2,3.79a1.87,1.87,0,0,1-1.25.93,160.4,160.4,0,0,1-19.1,3.49,64.2,64.2,0,0,0,12.61,3.17c1.62.24,2.63,1.76,2,2.94-1,1.73-2,3.44-3,5.12a2,2,0,0,1-1.33.9c-7.84,1.68-14.52,2.43-14.52,2.43a52.7,52.7,0,0,0,5.37,1.67c3.28.86,5,4,3.55,6.4-26.8,42.53-53.82,68.32-62.62,76.18Z" fill="#015b2f"/><path d="M245.65,73.9c-7.86,11.69-7.33,26.24.52,35.07a73.5,73.5,0,0,1-7.18,5.58l-2,1.32c-3.28-12.52-5.82-32.84,5.32-49.41C248.05,58,259.09,53.61,269.6,53.3a44.68,44.68,0,0,1-.29,11.25C260.69,62.07,252.17,64.2,245.65,73.9Z" fill="#6f471d"/><path d="M248.13,124.26c-.42.95-.86,1.88-1.3,2.82-3.62.39-5.88.45-5.88.45s-.82-1.81-1.89-4.89c1.92-.3,3.94-.68,6-1.16C247,121.05,248.82,122.74,248.13,124.26Z" fill="#6f471d"/><path d="M245.65,73.9c6.52-9.7,15-11.83,23.66-9.35a42,42,0,0,1-1,4.76c-6-1.51-11.81,0-16.11,6.38a20.72,20.72,0,0,0,0,23.68c.51.7,2.54-.79,4.86-2.69A66.07,66.07,0,0,1,246.17,109C238.32,100.14,237.79,85.59,245.65,73.9Z" fill="#0c6d8b"/><path d="M264.8,80.89a61.28,61.28,0,0,1-7.74,15.79c-2.32,1.9-4.35,3.39-4.86,2.69a20.72,20.72,0,0,1,0-23.68c4.3-6.39,10.07-7.89,16.11-6.38-.07.27-.13.55-.21.83Q266.5,75.58,264.8,80.89Z" fill="#040406"/><path d="M-7.56,106.9c-15.12-22.5-11-51.75,9.24-65.34s48.86-6.37,64,16.13q3.12,4.64,6.07,9.24a74.41,74.41,0,0,1,11.81,38.89c.13,8.86-.42,15.71-.42,15.71a60.91,60.91,0,0,0,8.13-15,1.84,1.84,0,0,1,3.37-.11q1.62,3.1,3.17,6.18a1.9,1.9,0,0,1,.17,1.26A114.16,114.16,0,0,1,92.46,132a31.33,31.33,0,0,0,8.68-6.81,1.87,1.87,0,0,1,3.06.55l1.75,3.8A1.89,1.89,0,0,1,106,131a116.92,116.92,0,0,1-6.37,14.56,38.74,38.74,0,0,0,8.06-6,1.88,1.88,0,0,1,3,.69c.76,1.78,1.51,3.54,2.24,5.3a1.85,1.85,0,0,1,0,1.44,113.82,113.82,0,0,1-5,10.92,30.76,30.76,0,0,0,3.66-2.33,4.1,4.1,0,0,1,6.16,2C139.24,212.81,143,251.86,143,251.86s-34.85-18.8-77.64-59.1a4.1,4.1,0,0,1,.49-6.44,31.29,31.29,0,0,0,3.37-2.41,115.13,115.13,0,0,1-11.74.51,1.89,1.89,0,0,1-1.33-.56c-1.37-1.36-2.75-2.73-4.13-4.13a1.89,1.89,0,0,1,.49-3.06,38.76,38.76,0,0,0,8.39-5.13,115.39,115.39,0,0,1-15.68.41,1.86,1.86,0,0,1-1.28-.6L41,168.23a1.86,1.86,0,0,1,.64-3,31.41,31.41,0,0,0,9.45-5.42A115.07,115.07,0,0,1,32.41,158a1.9,1.9,0,0,1-1.1-.63c-1.53-1.74-3-3.51-4.58-5.3A1.84,1.84,0,0,1,28.1,149,60.87,60.87,0,0,0,45,147.17s-6.54-2.07-14.68-5.53A74.34,74.34,0,0,1-1.24,116.07Q-4.42,111.57-7.56,106.9Z" fill="#056d38"/><path d="M59,129.84c-1.7,0-41.73-1.32-57.89-25.35-4.71-7-6.1-16.76-3.81-26.74,2.15-9.42,7.24-17.59,13.6-21.87C15.61,52.71,22.11,51,29.19,51c10.08,0,23.36,3.74,30.4,14.21,17.94,26.69,2.24,61.84,1.56,63.32l-.63,1.39Z" fill="#936939"/><path d="M29.19,53.28c10.86,0,22.54,4.35,28.48,13.18,17.42,25.92,1.38,61.07,1.38,61.07s-40.35-1-56-24.33C-6.43,89.14.13,65.9,12.18,57.8c4.48-3,10.6-4.52,17-4.52m0-4.63C21.66,48.65,14.7,50.54,9.6,54,2.76,58.56-2.68,67.26-5,77.23c-2.42,10.6-.91,21,4.16,28.54,16.81,25,58,26.34,59.74,26.38l3.06.08,1.26-2.78c.7-1.53,16.91-37.82-1.74-65.57-6.31-9.39-18.7-15.23-32.32-15.23Z" fill="#648d3d"/><path d="M11.84,102.48c9.1,13.54,26,18.12,37.73,10.22s13.88-25.26,4.78-38.8-22.1-12.33-33.84-4.44S2.74,88.94,11.84,102.48Z" fill="#1d83ac"/><path d="M15.38,97.49c5.46,8.13,15.34,11.38,23.69,8.4,1.42-.51-5.68-13.82-4.38-14.69,1.84-1.24,11.87,9.87,13.11,8.17a20.72,20.72,0,0,0,0-23.68c-6.4-9.51-16.08-8.23-25-2.21S9,88,15.38,97.49Z" fill="#131229"/><path d="M143,251.87s-.25-2.59-1-7.34c-5.58-12.78-17.56-43.21-26.11-86.47a4.21,4.21,0,0,1,.28-2.52,4,4,0,0,0-4.58,0,30.76,30.76,0,0,1-3.66,2.33A113.82,113.82,0,0,0,113,147a1.85,1.85,0,0,0,0-1.44c-.73-1.76-1.48-3.52-2.24-5.3a1.88,1.88,0,0,0-3-.69,38.74,38.74,0,0,1-8.06,6A116.92,116.92,0,0,0,106,131a1.89,1.89,0,0,0-.08-1.42l-1.75-3.8a1.87,1.87,0,0,0-3.06-.55A31.33,31.33,0,0,1,92.46,132,114.16,114.16,0,0,0,98,113.84a1.9,1.9,0,0,0-.17-1.26q-1.55-3.08-3.17-6.18a1.84,1.84,0,0,0-3.37.11,60.91,60.91,0,0,1-8.13,15s.55-6.85.42-15.71A74.41,74.41,0,0,0,71.73,66.93q-3-4.61-6.07-9.24a51.76,51.76,0,0,0-30.1-21.6A48.57,48.57,0,0,0,30.4,53.3C40.91,53.61,52,58,57.67,66.46,68.81,83,66.27,103.35,63,115.87c7.22,4.77,13,7.89,13,7.89a85.25,85.25,0,0,1-15-1.12c-1.07,3.08-1.89,4.89-1.89,4.89s-2.26-.06-5.88-.45c.55,1.21,1.1,2.43,1.66,3.62a1.88,1.88,0,0,0,1,.92A149.34,149.34,0,0,0,77.53,138a51.47,51.47,0,0,1-13.92,3.18c-1.67.15-2.81,1.69-2.16,2.92l2,3.79a1.87,1.87,0,0,0,1.25.93,160.4,160.4,0,0,0,19.1,3.49,64.2,64.2,0,0,1-12.61,3.17c-1.62.24-2.63,1.76-2,2.94,1,1.73,2,3.44,3,5.12a2,2,0,0,0,1.33.9c7.84,1.68,14.52,2.43,14.52,2.43a52.7,52.7,0,0,1-5.37,1.67c-3.28.86-5,4-3.55,6.4,26.8,42.53,53.82,68.32,62.62,76.18Z" fill="#015b2f"/><path d="M54.35,73.9c7.86,11.69,7.33,26.24-.52,35.07A73.5,73.5,0,0,0,61,114.55l2,1.32c3.28-12.52,5.82-32.84-5.32-49.41C52,58,40.91,53.61,30.4,53.3a44.68,44.68,0,0,0,.29,11.25C39.31,62.07,47.83,64.2,54.35,73.9Z" fill="#6f471d"/><path d="M51.87,124.26c.42.95.86,1.88,1.3,2.82,3.62.39,5.88.45,5.88.45s.82-1.81,1.89-4.89c-1.92-.3-3.94-.68-6-1.16C53,121.05,51.18,122.74,51.87,124.26Z" fill="#6f471d"/><path d="M54.35,73.9c-6.52-9.7-15-11.83-23.66-9.35a42,42,0,0,0,1,4.76c6-1.51,11.81,0,16.11,6.38a20.72,20.72,0,0,1,0,23.68c-.51.7-2.54-.79-4.86-2.69A66.07,66.07,0,0,0,53.83,109C61.68,100.14,62.21,85.59,54.35,73.9Z" fill="#0c6d8b"/><path d="M35.2,80.89a61.28,61.28,0,0,0,7.74,15.79c2.32,1.9,4.35,3.39,4.86,2.69a20.72,20.72,0,0,0,0-23.68c-4.3-6.39-10.07-7.89-16.11-6.38.07.27.13.55.21.83Q33.5,75.58,35.2,80.89Z" fill="#040406"/><path d="M44.7,59.17C36.46,33.35,48.58,6.41,71.79-1s48.7,7.5,57,33.32q1.69,5.32,3.25,10.57a74.26,74.26,0,0,1,.49,40.64c-2.34,8.55-4.78,15-4.78,15a60.9,60.9,0,0,0,12-12.16,1.84,1.84,0,0,1,3.26.84c.46,2.29.91,4.56,1.33,6.82a2,2,0,0,1-.19,1.26,115.17,115.17,0,0,1-10.34,15.89A31.36,31.36,0,0,0,144,107a1.87,1.87,0,0,1,2.79,1.38l.62,4.14a1.91,1.91,0,0,1-.32,1.38,116.16,116.16,0,0,1-10.18,12.21,38.73,38.73,0,0,0,9.42-3.49,1.87,1.87,0,0,1,2.67,1.49c.24,1.92.47,3.83.68,5.71a1.92,1.92,0,0,1-.38,1.4,117.8,117.8,0,0,1-7.85,9.09,31.64,31.64,0,0,0,4.16-1.21,4.09,4.09,0,0,1,5.37,3.6c5.18,59.07-2.07,97.64-2.07,97.64S120.68,212.59,90.82,162a4.09,4.09,0,0,1,2.26-6.05A30.19,30.19,0,0,0,97,154.54a117.3,117.3,0,0,1-11.41-2.78,1.93,1.93,0,0,1-1.13-.91c-.93-1.69-1.87-3.39-2.81-5.12A1.9,1.9,0,0,1,83,142.92a38.3,38.3,0,0,0,9.49-2.58,115.74,115.74,0,0,1-15.17-4,1.88,1.88,0,0,1-1.07-.93l-1.94-3.81a1.88,1.88,0,0,1,1.46-2.75,31.38,31.38,0,0,0,10.59-2.57,113.86,113.86,0,0,1-17.49-6.87,2,2,0,0,1-.89-.92q-1.47-3.14-2.91-6.36a1.84,1.84,0,0,1,2.17-2.58,60.92,60.92,0,0,0,16.72,2.92s-5.7-3.81-12.55-9.41A74.35,74.35,0,0,1,48.21,69.73C47,66.26,45.84,62.74,44.7,59.17Z" fill="#056d38"/><path d="M102.22,99.75c-1.62-.51-39.71-12.9-48.53-40.49-2.57-8-1.19-17.79,3.79-26.74,4.7-8.44,11.86-14.87,19.16-17.2a27.36,27.36,0,0,1,8.29-1.21c13.92,0,31.15,8.87,35.89,23.71,9.79,30.63-15.09,60-16.15,61.24l-1,1.16Z" fill="#936939"/><path d="M84.93,16.42c13.26,0,29.4,8.68,33.69,22.1,9.51,29.75-15.7,59-15.7,59s-38.47-12.22-47-39c-5.16-16.14,7.62-36.62,21.45-41a25.07,25.07,0,0,1,7.58-1.1m0-4.62a29.37,29.37,0,0,0-9,1.32c-7.85,2.5-15.5,9.34-20.48,18.28-5.28,9.5-6.73,19.92-4,28.57,9.17,28.71,48.36,41.46,50,42l2.91.92,2-2.31C107.52,99.29,133.2,69,123,37.11,118,21.27,99.68,11.8,84.93,11.8Z" fill="#648d3d"/><path d="M64.56,60.33C69.53,75.87,84.48,85,98,80.67s20.37-20.39,15.41-35.93S95.57,26.74,82.1,31,59.6,44.79,64.56,60.33Z" fill="#1d83ac"/><path d="M69.35,56.53c3,9.33,11.57,15.2,20.42,14.67,1.5-.09-1.61-14.86-.12-15.34,2.11-.67,8.65,12.8,10.32,11.51a20.7,20.7,0,0,0,6.6-22.74c-3.49-10.91-13.14-12.39-23.42-9.1S65.87,45.61,69.35,56.53Z" fill="#131229"/><path d="M114.42,143.55a52.35,52.35,0,0,0,5.35-.12s-6-2.51-13-6.23a2,2,0,0,1-1-1.23c-.49-1.92-1-3.87-1.45-5.83-.32-1.33,1.09-2.52,2.74-2.31a63.22,63.22,0,0,0,12.72.44,161.53,161.53,0,0,1-17.15-8.55,1.94,1.94,0,0,1-1-1.24l-.89-4.29c-.28-1.36,1.24-2.52,2.89-2.2a51.46,51.46,0,0,0,14.07.78A148.52,148.52,0,0,1,98.87,100.7a1.86,1.86,0,0,1-.73-1.16c-.22-1.32-.42-2.67-.62-4,3.3,1.35,5.4,2,5.4,2s1.29-1.51,3.18-4.17a85.3,85.3,0,0,0,14.12,5.27S115.56,94,110,87.45c6.64-11.11,14.74-29.92,8.67-48.93-3.12-9.77-12.52-17-22.52-20.24a48.6,48.6,0,0,1,9.75-15.1,51.83,51.83,0,0,1,22.89,29.14q1.69,5.32,3.25,10.57a74.26,74.26,0,0,1,.49,40.64c-2.34,8.55-4.78,15-4.78,15a60.9,60.9,0,0,0,12-12.16,1.84,1.84,0,0,1,3.26.84c.46,2.29.91,4.56,1.33,6.82a2,2,0,0,1-.19,1.26,115.17,115.17,0,0,1-10.34,15.89A31.36,31.36,0,0,0,144,107a1.87,1.87,0,0,1,2.79,1.38l.62,4.14a1.91,1.91,0,0,1-.32,1.38,116.16,116.16,0,0,1-10.18,12.21,38.73,38.73,0,0,0,9.42-3.49,1.87,1.87,0,0,1,2.67,1.49c.24,1.92.47,3.83.68,5.71a1.92,1.92,0,0,1-.38,1.4,117.8,117.8,0,0,1-7.85,9.09,31.64,31.64,0,0,0,4.16-1.21,4,4,0,0,1,4.4,1.25,4.25,4.25,0,0,0-1,2.35c-3.85,43.93-.83,76.5,1,90.32-.62,4.77-1.1,7.32-1.1,7.32l-.91-.92c-6.08-9.91-24.8-42.58-38.75-90.74C108.46,146,111,143.47,114.42,143.55Z" fill="#015b2f"/><path d="M100.74,90.65c1.84,1,3.64,1.92,5.36,2.73-1.89,2.66-3.18,4.17-3.18,4.17s-2.1-.67-5.4-2c-.16-1-.32-2-.47-3C96.81,90.83,99.06,89.71,100.74,90.65Z" fill="#6f471d"/><path d="M118.62,38.52c6.07,19-2,37.82-8.67,48.93-.49-.59-1-1.18-1.51-1.8a70.46,70.46,0,0,1-5.35-7.38c10-6.29,14.56-20.11,10.27-33.53C109.8,33.6,102.21,29.19,93.24,29.16A44.29,44.29,0,0,1,96.1,18.28C106.1,21.51,115.5,28.75,118.62,38.52Z" fill="#6f471d"/><path d="M100,67.37a20.7,20.7,0,0,0,6.6-22.74C104.23,37.3,99.1,34.24,92.88,34a43.07,43.07,0,0,1,.36-4.85c9,0,16.56,4.44,20.12,15.58,4.29,13.42-.28,27.24-10.27,33.53a66,66,0,0,1-7-14.82C97.76,65.91,99.28,67.9,100,67.37Z" fill="#0c6d8b"/><path d="M106.57,44.63A20.7,20.7,0,0,1,100,67.37c-.69.53-2.21-1.46-3.91-3.92a61.32,61.32,0,0,1-3-17.26q-.17-5.61-.16-11.32c0-.29,0-.57,0-.86C99.1,34.24,104.23,37.3,106.57,44.63Z" fill="#040406"/><path d="M255.3,59.17C263.54,33.35,251.42,6.41,228.21-1s-48.7,7.5-57,33.32q-1.69,5.32-3.25,10.57a74.26,74.26,0,0,0-.49,40.64c2.34,8.55,4.78,15,4.78,15a60.9,60.9,0,0,1-12-12.16,1.84,1.84,0,0,0-3.26.84c-.46,2.29-.91,4.56-1.33,6.82a2,2,0,0,0,.19,1.26,115.17,115.17,0,0,0,10.34,15.89A31.36,31.36,0,0,1,156,107a1.87,1.87,0,0,0-2.79,1.38l-.62,4.14a1.91,1.91,0,0,0,.32,1.38,116.16,116.16,0,0,0,10.18,12.21,38.73,38.73,0,0,1-9.42-3.49,1.87,1.87,0,0,0-2.67,1.49c-.24,1.92-.47,3.83-.68,5.71a1.92,1.92,0,0,0,.38,1.4,117.8,117.8,0,0,0,7.85,9.09,31.64,31.64,0,0,1-4.16-1.21,4.09,4.09,0,0,0-5.37,3.6c-5.18,59.07,2.07,97.64,2.07,97.64s28.22-27.78,58.08-78.41a4.09,4.09,0,0,0-2.26-6.05,30.19,30.19,0,0,1-3.91-1.37,117.3,117.3,0,0,0,11.41-2.78,1.93,1.93,0,0,0,1.13-.91c.93-1.69,1.87-3.39,2.81-5.12a1.9,1.9,0,0,0-1.32-2.81,38.3,38.3,0,0,1-9.49-2.58,115.74,115.74,0,0,0,15.17-4,1.88,1.88,0,0,0,1.07-.93l1.94-3.81a1.88,1.88,0,0,0-1.46-2.75,31.38,31.38,0,0,1-10.59-2.57,113.86,113.86,0,0,0,17.49-6.87,2,2,0,0,0,.89-.92q1.47-3.14,2.91-6.36a1.84,1.84,0,0,0-2.17-2.58,60.92,60.92,0,0,1-16.72,2.92s5.7-3.81,12.55-9.41a74.35,74.35,0,0,0,23.16-33.35C253,66.26,254.16,62.74,255.3,59.17Z" fill="#056d38"/><path d="M195.33,99.06c-1.06-1.24-25.94-30.61-16.15-61.24,4.74-14.84,22-23.71,35.89-23.71a27.31,27.31,0,0,1,8.29,1.21c14.79,4.72,28.56,26.36,22.95,43.94-8.82,27.59-46.91,40-48.53,40.49l-1.45.47Z" fill="#936939"/><path d="M215.07,16.42a25.07,25.07,0,0,1,7.58,1.1c13.83,4.42,26.61,24.9,21.45,41-8.55,26.77-47,39-47,39s-25.21-29.28-15.7-59c4.29-13.42,20.43-22.1,33.69-22.1m0-4.62h0c-14.75,0-33,9.47-38.09,25.31-10.18,31.85,15.5,62.18,16.6,63.46l2,2.31,2.91-.92c1.67-.53,40.86-13.28,50-42,2.76-8.65,1.31-19.07-4-28.57-5-8.94-12.63-15.78-20.48-18.28a29.37,29.37,0,0,0-9-1.32Z" fill="#648d3d"/><path d="M235.44,60.33c-5,15.54-19.92,24.65-33.39,20.34s-20.37-20.39-15.41-35.93,17.79-18,31.26-13.7S240.4,44.79,235.44,60.33Z" fill="#1d83ac"/><path d="M230.65,56.53c-3,9.33-11.57,15.2-20.42,14.67-1.5-.09,1.61-14.86.12-15.34-2.11-.67-8.65,12.8-10.32,11.51a20.7,20.7,0,0,1-6.6-22.74c3.49-10.91,13.14-12.39,23.42-9.1S234.13,45.61,230.65,56.53Z" fill="#131229"/><path d="M151.1,240.37s-.48-2.55-1.1-7.32c1.8-13.82,4.82-46.39,1-90.32a4.25,4.25,0,0,0-1-2.35,4,4,0,0,1,4.4-1.25,31.64,31.64,0,0,0,4.16,1.21,117.8,117.8,0,0,1-7.85-9.09,1.92,1.92,0,0,1-.38-1.4c.21-1.88.44-3.79.68-5.71a1.87,1.87,0,0,1,2.67-1.49,38.73,38.73,0,0,0,9.42,3.49,116.16,116.16,0,0,1-10.18-12.21,1.91,1.91,0,0,1-.32-1.38l.62-4.14A1.87,1.87,0,0,1,156,107a31.36,31.36,0,0,0,10.23,4.12A115.17,115.17,0,0,1,155.9,95.26a2,2,0,0,1-.19-1.26c.42-2.26.87-4.53,1.33-6.82a1.84,1.84,0,0,1,3.26-.84,60.9,60.9,0,0,0,12,12.16s-2.44-6.42-4.78-15A74.26,74.26,0,0,1,168,42.89q1.55-5.25,3.25-10.57A51.83,51.83,0,0,1,194.15,3.18a48.6,48.6,0,0,1,9.75,15.1c-10,3.23-19.4,10.47-22.52,20.24-6.08,19,2,37.82,8.67,48.93-5.61,6.59-10.27,11.2-10.27,11.2a85.3,85.3,0,0,0,14.12-5.27c1.89,2.66,3.18,4.17,3.18,4.17s2.15-.69,5.53-2.07c-.2,1.31-.39,2.64-.59,3.94a1.83,1.83,0,0,1-.73,1.16,148,148,0,0,1-19,12.19,51.48,51.48,0,0,0,14.25-.82c1.65-.32,3.17.84,2.89,2.2l-.86,4.2a1.89,1.89,0,0,1-.94,1.24,160.58,160.58,0,0,1-17.37,8.68,63.87,63.87,0,0,0,13-.47c1.63-.22,3,1,2.71,2.27q-.69,2.91-1.41,5.74a2,2,0,0,1-1,1.24c-7.07,3.8-13.27,6.38-13.27,6.38a52.77,52.77,0,0,0,5.62.11c3.39-.09,6,2.46,5.2,5.15-13.88,48.32-32.64,80.62-38.91,90.62Z" fill="#015b2f"/><path d="M186.64,44.74c-4.29,13.42.28,27.24,10.28,33.53a71.59,71.59,0,0,1-5.34,7.36l-1.53,1.82c-6.64-11.11-14.75-29.92-8.67-48.93,3.12-9.77,12.52-17,22.52-20.24a44.29,44.29,0,0,1,2.86,10.88C197.79,29.19,190.2,33.6,186.64,44.74Z" fill="#6f471d"/><path d="M203.07,92.41c-.15,1-.31,2-.46,3.07-3.38,1.38-5.53,2.07-5.53,2.07s-1.29-1.51-3.18-4.17c1.76-.82,3.6-1.75,5.47-2.8C201.05,89.65,203.3,90.76,203.07,92.41Z" fill="#6f471d"/><path d="M186.64,44.74c3.56-11.14,11.15-15.55,20.12-15.58a43.07,43.07,0,0,1,.36,4.85c-6.22.23-11.35,3.29-13.69,10.62A20.7,20.7,0,0,0,200,67.37c.69.53,2.22-1.47,3.92-3.94a66.14,66.14,0,0,1-7,14.84C186.92,72,182.35,58.16,186.64,44.74Z" fill="#0c6d8b"/><path d="M207,46.11a61,61,0,0,1-3,17.32c-1.7,2.47-3.23,4.47-3.92,3.94a20.7,20.7,0,0,1-6.6-22.74c2.34-7.33,7.47-10.39,13.69-10.62,0,.29,0,.57,0,.86Q207.14,40.54,207,46.11Z" fill="#040406"/><path d="M105.89,31.19c0-27.11,19.75-49.08,44.11-49.08s44.11,22,44.11,49.08q0,5.58-.12,11.05a74.28,74.28,0,0,1-11.9,38.87c-4.83,7.42-9.11,12.8-9.11,12.8A60.75,60.75,0,0,0,188.11,86,1.84,1.84,0,0,1,191,87.77q-.37,3.48-.81,6.9a1.9,1.9,0,0,1-.56,1.14,114.26,114.26,0,0,1-14.69,12,31.23,31.23,0,0,0,11-.81,1.87,1.87,0,0,1,2.24,2.17l-.67,4.13a1.92,1.92,0,0,1-.73,1.22A115.38,115.38,0,0,1,173.33,123a38.93,38.93,0,0,0,10-.46,1.86,1.86,0,0,1,2.09,2.23c-.35,1.9-.71,3.79-1.08,5.65a1.92,1.92,0,0,1-.8,1.21A117.89,117.89,0,0,1,173.33,138a31.56,31.56,0,0,0,4.34.11,4.09,4.09,0,0,1,4,5.07C168.64,201,150,235.5,150,235.5s-18.43-35.05-31.46-92.36a4.1,4.1,0,0,1,4-5.08,30.63,30.63,0,0,0,4.14-.11s-4.66-2.47-10-6.12a1.94,1.94,0,0,1-.8-1.22q-.57-2.84-1.12-5.73a1.9,1.9,0,0,1,2.11-2.27,38.62,38.62,0,0,0,9.83.43,115.68,115.68,0,0,1-13.24-8.41,1.9,1.9,0,0,1-.73-1.21L112,109.2a1.86,1.86,0,0,1,2.23-2.17,31.22,31.22,0,0,0,10.86.77,114.77,114.77,0,0,1-14.57-11.87,1.9,1.9,0,0,1-.56-1.14c-.3-2.3-.58-4.61-.84-7A1.84,1.84,0,0,1,112,86a60.87,60.87,0,0,0,15,7.87s-4.27-5.36-9.1-12.78A74.35,74.35,0,0,1,106,42.32Q105.89,36.8,105.89,31.19Z" fill="#056d38"/><path d="M148.32,87.35c-1.38-1-33.9-24.38-33.9-53.34,0-18.45,19.71-34.87,35.24-34.87S184.9,15.56,184.9,34c0,32.15-32.64,52.57-34,53.42l-1.3.8Z" fill="#936939"/><path d="M149.66,1.45c14.52,0,32.92,15.62,32.92,32.56,0,31.23-32.92,51.45-32.92,51.45S116.73,62.11,116.73,34c0-16.94,18.41-32.56,32.93-32.56m0-4.62C141.42-3.17,132.05,1,124.59,8c-7.93,7.44-12.48,16.92-12.48,26,0,30.14,33.45,54.21,34.88,55.22L149.48,91l2.6-1.6c1.43-.88,35.13-22,35.13-55.39,0-9.08-4.55-18.56-12.48-26C167.27,1,157.9-3.17,149.66-3.17Z" fill="#648d3d"/><path d="M124.45,38.33c0,16.32,11.47,29.54,25.62,29.54s25.61-13.22,25.61-29.54-11.47-22.56-25.61-22.56S124.45,22,124.45,38.33Z" fill="#1d83ac"/><path d="M130.17,36.17c0,9.79,6.39,18,15,20.19,1.46.37,3-14.64,4.56-14.64,2.21,0,4.34,14.81,6.33,14.09a20.71,20.71,0,0,0,13.21-19.64c0-11.46-8.75-15.8-19.54-15.8S130.17,24.71,130.17,36.17Z" fill="#131229"/><path d="M-47.94,220.26c-20.7-16.26-25.63-44.53-11-63.14s43.26-20.51,64-4.24q4.26,3.35,8.37,6.73A72.15,72.15,0,0,1,35.91,192c2.78,8.15,4.32,14.64,4.32,14.64a59.33,59.33,0,0,0,3-16.31,1.78,1.78,0,0,1,3.08-1.1c1.62,1.59,3.21,3.17,4.78,4.76a1.91,1.91,0,0,1,.54,1.11A111.53,111.53,0,0,1,52,213.53a30.41,30.41,0,0,0,6-8.89,1.82,1.82,0,0,1,3-.41l2.75,3a1.84,1.84,0,0,1,.5,1.29,113.53,113.53,0,0,1-1.53,15.36,37.67,37.67,0,0,0,5.66-7.94,1.81,1.81,0,0,1,3-.26c1.24,1.42,2.47,2.83,3.67,4.23a1.86,1.86,0,0,1,.45,1.33,114.29,114.29,0,0,1-1.36,11.59,31.8,31.8,0,0,0,2.69-3.25,4,4,0,0,1,6.28,0c36.35,44.68,51.54,79.64,51.54,79.64s-37.83-7-89.43-31.4a4,4,0,0,1-1.47-6.09,30.34,30.34,0,0,0,2.39-3.23,113.69,113.69,0,0,1-10.69,4,1.89,1.89,0,0,1-1.4-.12c-1.67-.85-3.36-1.71-5-2.59a1.84,1.84,0,0,1-.47-3,37.92,37.92,0,0,0,6.23-7.25,112,112,0,0,1-14.37,5.07,1.87,1.87,0,0,1-1.37-.17l-3.64-2a1.81,1.81,0,0,1-.32-3,30.39,30.39,0,0,0,7.12-7.84,111.85,111.85,0,0,1-17.82,4,1.93,1.93,0,0,1-1.21-.26c-1.93-1.15-3.86-2.32-5.81-3.52a1.79,1.79,0,0,1,.34-3.26,58.78,58.78,0,0,0,15-6.77S6,241.81-2.57,241a72.15,72.15,0,0,1-36.79-14.2Q-43.65,223.63-47.94,220.26Z" fill="#00a651"/><path d="M-6.84,225.25c-14.16,0-25.54-3.3-33.82-9.81-6.45-5.07-10.65-13.66-11.53-23.57-.82-9.34,1.43-18.42,6-24.27,5.67-7.23,17.09-12.09,28.41-12.09,7.59,0,14.29,2.11,19.37,6.1,24.56,19.3,20.56,56.48,20.38,58l-.17,1.47-1.42.42a106,106,0,0,1-27.26,3.7Z" fill="#cc914f"/><path d="M-17.74,157.76c6.55,0,13,1.71,18,5.62,23.85,18.74,19.54,56,19.54,56A104.58,104.58,0,0,1-6.84,223c-10.94,0-23.19-2.07-32.43-9.34-12.94-10.16-13.83-33.6-5.12-44.69,5.37-6.82,16.14-11.22,26.65-11.22m0-4.49c-12.16,0-24,5.08-30.18,12.94-4.94,6.29-7.38,16-6.5,25.86C-53.5,202.59-49,211.75-42,217.21-33.36,224-21.51,227.5-6.84,227.5a109,109,0,0,0,27.9-3.79l2.84-.85.34-2.94c.19-1.63,4.31-40-21.22-60.07-5.48-4.31-12.66-6.58-20.76-6.58Z" fill="#8dc63f"/><path d="M-31.34,210.37c12.46,9.79,29.44,9,37.93-1.84S11.86,181-.6,171.25s-24.11-4.78-32.6,6S-43.8,200.58-31.34,210.37Z" fill="#25afe5"/><path d="M-29.56,204.7c7.48,5.88,17.58,5.93,24.41.68,1.16-.9-9.39-11.07-8.45-12.27,1.33-1.69,13.92,5.58,14.56,3.63a20.11,20.11,0,0,0-7.08-21.88c-8.75-6.88-17.31-2.8-23.79,5.44S-38.32,197.82-29.56,204.7Z" fill="#262262"/><path d="M134.58,309.18s-1-2.31-3.1-6.49c-9-10.13-29.16-34.67-50-72.09a4.12,4.12,0,0,1-.5-2.42,3.88,3.88,0,0,0-4.22,1.39,31.8,31.8,0,0,1-2.69,3.25,114.29,114.29,0,0,0,1.36-11.59A1.86,1.86,0,0,0,75,219.9c-1.2-1.4-2.43-2.81-3.67-4.23a1.81,1.81,0,0,0-3,.26,37.67,37.67,0,0,1-5.66,7.94,113.29,113.29,0,0,0,1.53-15.36,1.84,1.84,0,0,0-.5-1.29l-2.75-3a1.82,1.82,0,0,0-3,.41,30.41,30.41,0,0,1-6,8.89,111.53,111.53,0,0,0-.34-18.42,1.91,1.91,0,0,0-.54-1.11c-1.57-1.59-3.16-3.17-4.78-4.76a1.78,1.78,0,0,0-3.08,1.1,59.33,59.33,0,0,1-3,16.31s-1.54-6.49-4.32-14.64a72.15,72.15,0,0,0-22.54-32.4Q9.26,156.24,5,152.88a50.35,50.35,0,0,0-34.28-11,47.12,47.12,0,0,0,.38,17.45c9.8-2.85,21.31-2.14,29.14,4,15.24,12,19,31.51,19.69,44.06,8.1,2.25,14.37,3.41,14.37,3.41a83,83,0,0,1-14.23,3.47c-.07,3.16-.29,5.08-.29,5.08s-2.1.62-5.57,1.34c.87,1,1.75,1.92,2.62,2.85a1.8,1.8,0,0,0,1.22.54,144.15,144.15,0,0,0,22-.57,49.83,49.83,0,0,1-11.91,7.11c-1.5.64-2.1,2.4-1.13,3.34l3,2.91a1.88,1.88,0,0,0,1.44.49,156.75,156.75,0,0,0,18.7-2.49,62.88,62.88,0,0,1-10.71,6.7c-1.43.71-1.91,2.41-.94,3.3,1.42,1.31,2.85,2.59,4.26,3.85a1.93,1.93,0,0,0,1.5.44c7.75-.8,14.15-2.11,14.15-2.11a53.34,53.34,0,0,1-4.46,3.16c-2.78,1.77-3.47,5.23-1.38,7,37.49,31.29,70.18,47,80.67,51.67Z" fill="#009444"/><path d="M-.6,171.25c10.76,8.45,14.62,22.05,10,32.56a68.08,68.08,0,0,0,8.3,3l2.22.63c-.71-12.55-4.45-32.08-19.69-44.06-7.83-6.15-19.34-6.86-29.14-4a43.34,43.34,0,0,0,3.63,10.31C-18,164.82-9.53,164.23-.6,171.25Z" fill="#a86b2b"/><path d="M12.16,218.53c.68.75,1.37,1.47,2.05,2.21,3.47-.72,5.57-1.34,5.57-1.34s.22-1.92.29-5.08c-1.87.29-3.85.54-5.93.73C12.28,215.21,11.08,217.33,12.16,218.53Z" fill="#a86b2b"/><path d="M-.6,171.25c-8.93-7-17.44-6.43-24.67-1.57a41,41,0,0,0,2.36,4.1c5.13-3.2,10.92-3.54,16.79,1.08A20.11,20.11,0,0,1,1,196.74c-.26.8-2.58,0-5.29-1a64.12,64.12,0,0,0,13.74,8.1C14,193.3,10.16,179.7-.6,171.25Z" fill="#0e9ac4"/><path d="M-16.21,183.44A59,59,0,0,0-4.33,195.71c2.71,1.06,5,1.83,5.29,1a20.11,20.11,0,0,0-7.08-21.88c-5.87-4.62-11.66-4.28-16.79-1.08l.44.7Q-19.36,179.06-16.21,183.44Z" fill="#15113e"/><path d="M347.94,220.26c20.7-16.26,25.63-44.53,11-63.14s-43.26-20.51-64-4.24q-4.26,3.35-8.37,6.73A72.15,72.15,0,0,0,264.09,192c-2.78,8.15-4.32,14.64-4.32,14.64a59.33,59.33,0,0,1-3-16.31,1.78,1.78,0,0,0-3.08-1.1c-1.62,1.59-3.21,3.17-4.78,4.76a1.91,1.91,0,0,0-.54,1.11,111.53,111.53,0,0,0-.34,18.42,30.41,30.41,0,0,1-6-8.89,1.82,1.82,0,0,0-3-.41l-2.75,3a1.84,1.84,0,0,0-.5,1.29,113.53,113.53,0,0,0,1.53,15.36,37.67,37.67,0,0,1-5.66-7.94,1.81,1.81,0,0,0-3-.26c-1.24,1.42-2.47,2.83-3.67,4.23a1.86,1.86,0,0,0-.45,1.33,114.29,114.29,0,0,0,1.36,11.59,31.8,31.8,0,0,1-2.69-3.25,4,4,0,0,0-6.28,0c-36.35,44.68-51.54,79.64-51.54,79.64s37.83-7,89.43-31.4a4,4,0,0,0,1.47-6.09,30.34,30.34,0,0,1-2.39-3.23,113.69,113.69,0,0,0,10.69,4,1.89,1.89,0,0,0,1.4-.12c1.67-.85,3.36-1.71,5.05-2.59a1.84,1.84,0,0,0,.47-3,37.92,37.92,0,0,1-6.23-7.25,112,112,0,0,0,14.37,5.07,1.87,1.87,0,0,0,1.37-.17l3.64-2a1.81,1.81,0,0,0,.32-3,30.39,30.39,0,0,1-7.12-7.84,111.85,111.85,0,0,0,17.82,4,1.93,1.93,0,0,0,1.21-.26c1.93-1.15,3.86-2.32,5.81-3.52a1.79,1.79,0,0,0-.34-3.26,58.78,58.78,0,0,1-15-6.77s6.65.05,15.21-.72a72.15,72.15,0,0,0,36.79-14.2Q343.65,223.63,347.94,220.26Z" fill="#00a651"/><path d="M306.84,225.25a106.12,106.12,0,0,1-27.26-3.7l-1.42-.42-.17-1.47c-.18-1.57-4.18-38.75,20.38-58,5.08-4,11.78-6.1,19.37-6.1,11.32,0,22.74,4.86,28.41,12.09,9.32,11.86,8.61,36.76-5.49,47.84C332.37,222,321,225.25,306.84,225.25Z" fill="#cc914f"/><path d="M317.74,157.76c10.51,0,21.28,4.4,26.65,11.22,8.71,11.09,7.82,34.53-5.12,44.69C330,220.94,317.78,223,306.84,223a104.58,104.58,0,0,1-26.62-3.61s-4.31-37.28,19.54-56c5-3.91,11.43-5.62,18-5.62m0-4.49v0h0c-8.1,0-15.28,2.27-20.76,6.58-25.53,20.06-21.41,58.44-21.22,60.07l.34,2.94,2.84.85a109,109,0,0,0,27.9,3.79c14.67,0,26.52-3.46,35.21-10.29,6.94-5.46,11.45-14.62,12.37-25.14.88-9.9-1.56-19.57-6.5-25.86-6.18-7.86-18-12.94-30.17-12.94Z" fill="#8dc63f"/><path d="M331.34,210.37c-12.46,9.79-29.44,9-37.93-1.84s-5.27-27.49,7.19-37.28,24.11-4.78,32.6,6S343.8,200.58,331.34,210.37Z" fill="#25afe5"/><path d="M329.56,204.7c-7.48,5.88-17.58,5.93-24.41.68-1.16-.9,9.39-11.07,8.45-12.27-1.33-1.69-13.92,5.58-14.56,3.63a20.11,20.11,0,0,1,7.08-21.88c8.75-6.88,17.31-2.8,23.79,5.44S338.32,197.82,329.56,204.7Z" fill="#262262"/><path d="M165.42,309.18s1-2.31,3.1-6.49c9-10.13,29.16-34.67,50-72.09a4.12,4.12,0,0,0,.5-2.42,3.88,3.88,0,0,1,4.22,1.39,31.8,31.8,0,0,0,2.69,3.25,114.29,114.29,0,0,1-1.36-11.59,1.86,1.86,0,0,1,.45-1.33c1.2-1.4,2.43-2.81,3.67-4.23a1.81,1.81,0,0,1,3,.26,37.67,37.67,0,0,0,5.66,7.94,113.29,113.29,0,0,1-1.53-15.36,1.84,1.84,0,0,1,.5-1.29l2.75-3a1.82,1.82,0,0,1,3,.41,30.41,30.41,0,0,0,6,8.89,111.53,111.53,0,0,1,.34-18.42,1.91,1.91,0,0,1,.54-1.11c1.57-1.59,3.16-3.17,4.78-4.76a1.78,1.78,0,0,1,3.08,1.1,59.33,59.33,0,0,0,3,16.31s1.54-6.49,4.32-14.64a72.15,72.15,0,0,1,22.54-32.4q4.11-3.37,8.37-6.73a50.35,50.35,0,0,1,34.28-11,47.12,47.12,0,0,1-.38,17.45c-9.8-2.85-21.31-2.14-29.14,4-15.24,12-19,31.51-19.69,44.06-8.1,2.25-14.37,3.41-14.37,3.41a83,83,0,0,0,14.23,3.47c.07,3.16.29,5.08.29,5.08s2.1.62,5.57,1.34c-.87,1-1.75,1.92-2.62,2.85a1.8,1.8,0,0,1-1.22.54,144.15,144.15,0,0,1-21.95-.57,49.83,49.83,0,0,0,11.91,7.11c1.5.64,2.1,2.4,1.13,3.34l-3,2.91a1.88,1.88,0,0,1-1.44.49,156.75,156.75,0,0,1-18.7-2.49,62.88,62.88,0,0,0,10.71,6.7c1.43.71,1.91,2.41.94,3.3-1.42,1.31-2.85,2.59-4.26,3.85a1.93,1.93,0,0,1-1.5.44c-7.75-.8-14.15-2.11-14.15-2.11a53.34,53.34,0,0,0,4.46,3.16c2.78,1.77,3.47,5.23,1.38,7-37.49,31.29-70.18,47-80.67,51.67Z" fill="#009444"/><path d="M300.6,171.25c-10.76,8.45-14.62,22.05-10,32.56a68.08,68.08,0,0,1-8.3,3l-2.22.63c.71-12.55,4.45-32.08,19.69-44.06,7.83-6.15,19.34-6.86,29.14-4a43.34,43.34,0,0,1-3.63,10.31C318,164.82,309.53,164.23,300.6,171.25Z" fill="#a86b2b"/><path d="M287.84,218.53c-.68.75-1.37,1.47-2,2.21-3.47-.72-5.57-1.34-5.57-1.34s-.22-1.92-.29-5.08c1.87.29,3.85.54,5.93.73C287.72,215.21,288.92,217.33,287.84,218.53Z" fill="#a86b2b"/><path d="M300.6,171.25c8.93-7,17.44-6.43,24.67-1.57a41,41,0,0,1-2.36,4.1c-5.13-3.2-10.92-3.54-16.79,1.08A20.11,20.11,0,0,0,299,196.74c.26.8,2.58,0,5.29-1a64.12,64.12,0,0,1-13.74,8.1C286,193.3,289.84,179.7,300.6,171.25Z" fill="#0e9ac4"/><path d="M316.21,183.44a59,59,0,0,1-11.88,12.27c-2.71,1.06-5,1.83-5.29,1a20.11,20.11,0,0,1,7.08-21.88c5.87-4.62,11.66-4.28,16.79-1.08l-.44.7Q319.36,179.06,316.21,183.44Z" fill="#15113e"/><path d="M307.56,168.39c15.12-22.5,11-51.75-9.24-65.34s-48.86-6.37-64,16.12q-3.12,4.64-6.07,9.25a74.36,74.36,0,0,0-11.81,38.89c-.13,8.86.42,15.71.42,15.71a60.86,60.86,0,0,1-8.13-15,1.84,1.84,0,0,0-3.37-.1q-1.62,3.11-3.17,6.18a1.9,1.9,0,0,0-.17,1.26,114.16,114.16,0,0,0,5.5,18.15,31.33,31.33,0,0,1-8.68-6.81,1.86,1.86,0,0,0-3.06.55l-1.75,3.8a1.87,1.87,0,0,0-.08,1.41A116.67,116.67,0,0,0,200.34,207a38.74,38.74,0,0,1-8.06-6,1.88,1.88,0,0,0-3,.69c-.76,1.77-1.51,3.54-2.24,5.29a1.87,1.87,0,0,0,0,1.45,113.82,113.82,0,0,0,5,10.92,30.76,30.76,0,0,1-3.66-2.33,4.1,4.1,0,0,0-6.16,2C160.76,274.3,157,313.35,157,313.35s34.85-18.81,77.64-59.1a4.1,4.1,0,0,0-.49-6.44,31.29,31.29,0,0,1-3.37-2.41,115.13,115.13,0,0,0,11.74.51,1.89,1.89,0,0,0,1.33-.56q2.06-2,4.13-4.14a1.89,1.89,0,0,0-.49-3.06,38.52,38.52,0,0,1-8.39-5.12,115.39,115.39,0,0,0,15.68.41,1.86,1.86,0,0,0,1.28-.6l2.93-3.12a1.87,1.87,0,0,0-.64-3.05,31.28,31.28,0,0,1-9.45-5.41,115.07,115.07,0,0,0,18.72-1.73,2,2,0,0,0,1.1-.63c1.53-1.74,3.05-3.51,4.58-5.3a1.84,1.84,0,0,0-1.37-3.08A60.87,60.87,0,0,1,255,208.66s6.54-2.07,14.68-5.54a74.39,74.39,0,0,0,31.53-25.56Q304.42,173,307.56,168.39Z" fill="#00a651"/><path d="M238.85,190c-.68-1.49-16.38-36.63,1.56-63.32,7-10.48,20.32-14.21,30.4-14.21,7.08,0,13.58,1.75,18.3,4.92C302,126,309.19,150.66,298.9,166c-16.16,24-56.19,25.32-57.89,25.36l-1.53,0Z" fill="#cc914f"/><path d="M270.81,114.76c6.41,0,12.53,1.52,17,4.53,12.05,8.1,18.61,31.33,9.16,45.39C281.3,188,241,189,241,189s-16-35.15,1.38-61.07c5.94-8.84,17.62-13.19,28.48-13.19m0-4.62h0c-13.62,0-26,5.84-32.32,15.23-18.65,27.75-2.44,64-1.74,65.57l1.26,2.78,3.06-.08c1.74,0,42.93-1.36,59.74-26.38,5.07-7.54,6.58-17.94,4.16-28.54-2.29-10-7.73-18.67-14.57-23.27-5.1-3.42-12.06-5.31-19.59-5.31Z" fill="#8dc63f"/><path d="M288.16,164c-9.1,13.54-26,18.12-37.73,10.23s-13.88-25.26-4.78-38.8,22.1-12.33,33.84-4.44S297.26,150.42,288.16,164Z" fill="#25afe5"/><path d="M284.62,159c-5.46,8.13-15.34,11.38-23.69,8.4-1.42-.51,5.68-13.82,4.38-14.7-1.84-1.23-11.87,9.88-13.11,8.17a20.71,20.71,0,0,1,0-23.67c6.4-9.51,16.08-8.24,25-2.22S291,149.46,284.62,159Z" fill="#262262"/><path d="M157,313.35s.25-2.58,1-7.33c5.58-12.78,17.56-43.21,26.11-86.47a4.23,4.23,0,0,0-.28-2.53,4,4,0,0,1,4.58,0,30.76,30.76,0,0,0,3.66,2.33,113.82,113.82,0,0,1-5-10.92,1.87,1.87,0,0,1,0-1.45c.73-1.75,1.48-3.52,2.24-5.29a1.88,1.88,0,0,1,3-.69,38.74,38.74,0,0,0,8.06,6A116.67,116.67,0,0,1,194,192.43a1.87,1.87,0,0,1,.08-1.41l1.75-3.8a1.86,1.86,0,0,1,3.06-.55,31.33,31.33,0,0,0,8.68,6.81,114.16,114.16,0,0,1-5.5-18.15,1.9,1.9,0,0,1,.17-1.26q1.54-3.07,3.17-6.18a1.84,1.84,0,0,1,3.37.1,60.86,60.86,0,0,0,8.13,15s-.55-6.85-.42-15.71a74.36,74.36,0,0,1,11.81-38.89q3-4.6,6.07-9.25a51.84,51.84,0,0,1,30.1-21.6,48.68,48.68,0,0,1,5.16,17.22c-10.51.31-21.55,4.65-27.27,13.16-11.14,16.56-8.6,36.88-5.32,49.4-7.22,4.77-13,7.89-13,7.89a85.74,85.74,0,0,0,15-1.11C240.13,187.21,241,189,241,189s2.26-.06,5.88-.45c-.55,1.21-1.1,2.43-1.66,3.62a1.86,1.86,0,0,1-1,.91,147.89,147.89,0,0,1-21.67,6.4,51.24,51.24,0,0,0,13.92,3.19c1.67.15,2.81,1.68,2.16,2.92l-2,3.79a1.87,1.87,0,0,1-1.25.93,160.4,160.4,0,0,1-19.1,3.49A64.2,64.2,0,0,0,228.81,217c1.62.24,2.63,1.76,2,2.93-1,1.74-2,3.44-3,5.13a2,2,0,0,1-1.33.9c-7.84,1.68-14.52,2.42-14.52,2.42a50.9,50.9,0,0,0,5.37,1.68c3.28.86,5,4,3.55,6.4-26.8,42.53-53.82,68.31-62.62,76.18Z" fill="#009444"/><path d="M245.65,135.39c-7.86,11.69-7.33,26.23.52,35.07A73.41,73.41,0,0,1,239,176c-.67.46-1.33.89-2,1.32-3.28-12.52-5.82-32.84,5.32-49.4,5.72-8.51,16.76-12.85,27.27-13.16a44.59,44.59,0,0,1-.29,11.24C260.69,123.56,252.17,125.69,245.65,135.39Z" fill="#a86b2b"/><path d="M248.13,185.74c-.42,1-.86,1.88-1.3,2.83-3.62.39-5.88.45-5.88.45s-.82-1.81-1.89-4.89c1.92-.31,3.94-.69,6-1.17C247,182.53,248.82,184.23,248.13,185.74Z" fill="#a86b2b"/><path d="M245.65,135.39c6.52-9.7,15-11.83,23.66-9.36a41.57,41.57,0,0,1-1,4.76c-6-1.51-11.81,0-16.11,6.39a20.71,20.71,0,0,0,0,23.67c.51.71,2.54-.78,4.86-2.68a66.07,66.07,0,0,1-10.89,12.29C238.32,161.62,237.79,147.08,245.65,135.39Z" fill="#0e9ac4"/><path d="M264.8,142.38a61.28,61.28,0,0,1-7.74,15.79c-2.32,1.9-4.35,3.39-4.86,2.68a20.71,20.71,0,0,1,0-23.67c4.3-6.39,10.07-7.9,16.11-6.39-.07.28-.13.56-.21.84Q266.5,137.07,264.8,142.38Z" fill="#15113e"/><path d="M-7.56,168.39c-15.12-22.5-11-51.75,9.24-65.34s48.86-6.37,64,16.12q3.12,4.64,6.07,9.25a74.36,74.36,0,0,1,11.81,38.89c.13,8.86-.42,15.71-.42,15.71a60.86,60.86,0,0,0,8.13-15,1.84,1.84,0,0,1,3.37-.1q1.62,3.11,3.17,6.18a1.9,1.9,0,0,1,.17,1.26,114.16,114.16,0,0,1-5.5,18.15,31.33,31.33,0,0,0,8.68-6.81,1.86,1.86,0,0,1,3.06.55L106,191a1.87,1.87,0,0,1,.08,1.41A116.67,116.67,0,0,1,99.66,207a38.74,38.74,0,0,0,8.06-6,1.88,1.88,0,0,1,3,.69c.76,1.77,1.51,3.54,2.24,5.29a1.87,1.87,0,0,1,0,1.45,113.82,113.82,0,0,1-5,10.92,30.76,30.76,0,0,0,3.66-2.33,4.1,4.1,0,0,1,6.16,2C139.24,274.3,143,313.35,143,313.35s-34.85-18.81-77.64-59.1a4.1,4.1,0,0,1,.49-6.44,31.29,31.29,0,0,0,3.37-2.41,115.13,115.13,0,0,1-11.74.51,1.89,1.89,0,0,1-1.33-.56q-2.05-2-4.13-4.14a1.89,1.89,0,0,1,.49-3.06A38.52,38.52,0,0,0,60.93,233a115.39,115.39,0,0,1-15.68.41,1.86,1.86,0,0,1-1.28-.6L41,229.72a1.87,1.87,0,0,1,.64-3.05,31.28,31.28,0,0,0,9.45-5.41,115.07,115.07,0,0,1-18.72-1.73,2,2,0,0,1-1.1-.63c-1.53-1.74-3-3.51-4.58-5.3a1.84,1.84,0,0,1,1.37-3.08A60.87,60.87,0,0,0,45,208.66s-6.54-2.07-14.68-5.54A74.39,74.39,0,0,1-1.24,177.56Q-4.42,173-7.56,168.39Z" fill="#00a651"/><path d="M59,191.33c-1.7,0-41.73-1.32-57.89-25.36C-9.19,150.66-2,126,10.89,117.37c4.72-3.17,11.22-4.92,18.3-4.92,10.08,0,23.36,3.73,30.4,14.21,17.94,26.69,2.24,61.83,1.56,63.32l-.63,1.39Z" fill="#cc914f"/><path d="M29.19,114.76c10.86,0,22.54,4.35,28.48,13.19C75.09,153.87,59.05,189,59.05,189S18.7,188,3,164.68c-9.45-14.06-2.89-37.29,9.16-45.39,4.48-3,10.6-4.53,17-4.53m0-4.62c-7.53,0-14.49,1.89-19.59,5.31C2.76,120.05-2.68,128.75-5,138.72c-2.42,10.6-.91,21,4.16,28.54,16.81,25,58,26.34,59.74,26.38l3.06.08,1.26-2.78c.7-1.53,16.91-37.82-1.74-65.57-6.31-9.39-18.7-15.23-32.32-15.23Z" fill="#8dc63f"/><path d="M11.84,164c9.1,13.54,26,18.12,37.73,10.23s13.88-25.26,4.78-38.8S32.25,123.06,20.51,131,2.74,150.42,11.84,164Z" fill="#25afe5"/><path d="M15.38,159c5.46,8.13,15.34,11.38,23.69,8.4,1.42-.51-5.68-13.82-4.38-14.7,1.84-1.23,11.87,9.88,13.11,8.17a20.71,20.71,0,0,0,0-23.67c-6.4-9.51-16.08-8.24-25-2.22S9,149.46,15.38,159Z" fill="#262262"/><path d="M143,313.35s-.25-2.58-1-7.33c-5.58-12.78-17.56-43.21-26.11-86.47a4.23,4.23,0,0,1,.28-2.53,4,4,0,0,0-4.58,0,30.76,30.76,0,0,1-3.66,2.33,113.82,113.82,0,0,0,5-10.92,1.87,1.87,0,0,0,0-1.45c-.73-1.75-1.48-3.52-2.24-5.29a1.88,1.88,0,0,0-3-.69,38.74,38.74,0,0,1-8.06,6A116.67,116.67,0,0,0,106,192.43,1.87,1.87,0,0,0,106,191l-1.75-3.8a1.86,1.86,0,0,0-3.06-.55,31.33,31.33,0,0,1-8.68,6.81A114.16,114.16,0,0,0,98,175.33a1.9,1.9,0,0,0-.17-1.26q-1.55-3.07-3.17-6.18a1.84,1.84,0,0,0-3.37.1,60.86,60.86,0,0,1-8.13,15s.55-6.85.42-15.71a74.36,74.36,0,0,0-11.81-38.89q-3-4.6-6.07-9.25a51.84,51.84,0,0,0-30.1-21.6,48.68,48.68,0,0,0-5.16,17.22C40.91,115.1,52,119.44,57.67,128c11.14,16.56,8.6,36.88,5.32,49.4,7.22,4.77,13,7.89,13,7.89a85.74,85.74,0,0,1-15-1.11c-1.07,3.08-1.89,4.89-1.89,4.89s-2.26-.06-5.88-.45c.55,1.21,1.1,2.43,1.66,3.62a1.86,1.86,0,0,0,1,.91,147.89,147.89,0,0,0,21.67,6.4,51.24,51.24,0,0,1-13.92,3.19c-1.67.15-2.81,1.68-2.16,2.92l2,3.79a1.87,1.87,0,0,0,1.25.93,160.4,160.4,0,0,0,19.1,3.49A64.2,64.2,0,0,1,71.19,217c-1.62.24-2.63,1.76-2,2.93,1,1.74,2,3.44,3,5.13a2,2,0,0,0,1.33.9c7.84,1.68,14.52,2.42,14.52,2.42a50.9,50.9,0,0,1-5.37,1.68c-3.28.86-5,4-3.55,6.4,26.8,42.53,53.82,68.31,62.62,76.18Z" fill="#009444"/><path d="M54.35,135.39c7.86,11.69,7.33,26.23-.52,35.07A73.41,73.41,0,0,0,61,176c.67.46,1.33.89,2,1.32,3.28-12.52,5.82-32.84-5.32-49.4C52,119.44,40.91,115.1,30.4,114.79A44.59,44.59,0,0,0,30.69,126C39.31,123.56,47.83,125.69,54.35,135.39Z" fill="#a86b2b"/><path d="M51.87,185.74c.42,1,.86,1.88,1.3,2.83,3.62.39,5.88.45,5.88.45s.82-1.81,1.89-4.89c-1.92-.31-3.94-.69-6-1.17C53,182.53,51.18,184.23,51.87,185.74Z" fill="#a86b2b"/><path d="M54.35,135.39c-6.52-9.7-15-11.83-23.66-9.36a41.57,41.57,0,0,0,1,4.76c6-1.51,11.81,0,16.11,6.39a20.71,20.71,0,0,1,0,23.67c-.51.71-2.54-.78-4.86-2.68a66.07,66.07,0,0,0,10.89,12.29C61.68,161.62,62.21,147.08,54.35,135.39Z" fill="#0e9ac4"/><path d="M35.2,142.38a61.28,61.28,0,0,0,7.74,15.79c2.32,1.9,4.35,3.39,4.86,2.68a20.71,20.71,0,0,0,0-23.67c-4.3-6.39-10.07-7.9-16.11-6.39.07.28.13.56.21.84Q33.5,137.07,35.2,142.38Z" fill="#15113e"/><path d="M44.7,120.66C36.46,94.84,48.58,67.9,71.79,60.48s48.7,7.51,57,33.33q1.69,5.31,3.25,10.57a74.26,74.26,0,0,1,.49,40.64c-2.34,8.54-4.78,15-4.78,15a60.65,60.65,0,0,0,12-12.15,1.83,1.83,0,0,1,3.26.84c.46,2.28.91,4.56,1.33,6.81a2,2,0,0,1-.19,1.26,114.91,114.91,0,0,1-10.34,15.9A31.36,31.36,0,0,0,144,168.52a1.87,1.87,0,0,1,2.79,1.38l.62,4.13a1.94,1.94,0,0,1-.32,1.39,116.16,116.16,0,0,1-10.18,12.21,39.06,39.06,0,0,0,9.42-3.5,1.88,1.88,0,0,1,2.67,1.5q.36,2.88.68,5.71a1.93,1.93,0,0,1-.38,1.4,117.8,117.8,0,0,1-7.85,9.09,30.94,30.94,0,0,0,4.16-1.22,4.1,4.1,0,0,1,5.37,3.61c5.18,59.07-2.07,97.64-2.07,97.64s-28.22-27.78-58.08-78.41a4.09,4.09,0,0,1,2.26-6A32.2,32.2,0,0,0,97,216a117.3,117.3,0,0,1-11.41-2.78,1.93,1.93,0,0,1-1.13-.91q-1.4-2.53-2.81-5.13a1.9,1.9,0,0,1,1.32-2.8,38.84,38.84,0,0,0,9.49-2.58,115.74,115.74,0,0,1-15.17-4,1.9,1.9,0,0,1-1.07-.94l-1.94-3.81a1.87,1.87,0,0,1,1.46-2.74,31.38,31.38,0,0,0,10.59-2.57,115.08,115.08,0,0,1-17.49-6.87,2,2,0,0,1-.89-.92q-1.47-3.15-2.91-6.36a1.84,1.84,0,0,1,2.17-2.59A60.46,60.46,0,0,0,83.92,174s-5.7-3.81-12.55-9.4a74.35,74.35,0,0,1-23.16-33.35C47,127.75,45.84,124.22,44.7,120.66Z" fill="#00a651"/><path d="M102.22,161.24c-1.62-.51-39.71-12.9-48.53-40.49-2.57-8-1.19-17.79,3.79-26.74,4.7-8.44,11.86-14.87,19.16-17.2a27,27,0,0,1,8.29-1.21c13.92,0,31.15,8.86,35.89,23.71,9.79,30.62-15.09,60-16.15,61.24l-1,1.15Z" fill="#cc914f"/><path d="M84.93,77.91c13.26,0,29.4,8.68,33.69,22.1,9.51,29.75-15.7,59-15.7,59s-38.47-12.23-47-39c-5.16-16.14,7.62-36.62,21.45-41a24.77,24.77,0,0,1,7.58-1.1m0-4.62a29.68,29.68,0,0,0-9,1.31C68.09,77.11,60.44,84,55.46,92.89c-5.28,9.5-6.73,19.91-4,28.56,9.17,28.71,48.36,41.46,50,42l2.91.93,2-2.32c1.1-1.27,26.78-31.6,16.6-63.45C118,82.76,99.68,73.29,84.93,73.29Z" fill="#8dc63f"/><path d="M64.56,121.81c5,15.55,19.92,24.65,33.39,20.35s20.37-20.39,15.41-35.94-17.79-18-31.26-13.69S59.6,106.27,64.56,121.81Z" fill="#25afe5"/><path d="M69.35,118c3,9.33,11.57,15.21,20.42,14.67,1.5-.09-1.61-14.85-.12-15.33,2.11-.67,8.65,12.79,10.32,11.5a20.69,20.69,0,0,0,6.6-22.73C103.08,95.2,93.43,93.73,83.15,97S65.87,107.09,69.35,118Z" fill="#262262"/><path d="M114.42,205a49,49,0,0,0,5.35-.12s-6-2.5-13-6.22a2,2,0,0,1-1-1.23c-.49-1.92-1-3.87-1.45-5.83-.32-1.33,1.09-2.52,2.74-2.31a64.14,64.14,0,0,0,12.72.44,161.53,161.53,0,0,1-17.15-8.55,2,2,0,0,1-1-1.24l-.89-4.29c-.28-1.37,1.24-2.52,2.89-2.21a51.26,51.26,0,0,0,14.07.79,148.52,148.52,0,0,1-18.87-12.07,1.86,1.86,0,0,1-.73-1.16c-.22-1.33-.42-2.68-.62-4,3.3,1.35,5.4,2,5.4,2s1.29-1.51,3.18-4.17a85.73,85.73,0,0,0,14.12,5.26s-4.66-4.6-10.27-11.2c6.64-11.1,14.74-29.91,8.67-48.92C115.5,90.24,106.1,83,96.1,79.77a48.6,48.6,0,0,1,9.75-15.1,51.83,51.83,0,0,1,22.89,29.14q1.69,5.31,3.25,10.57a74.26,74.26,0,0,1,.49,40.64c-2.34,8.54-4.78,15-4.78,15a60.65,60.65,0,0,0,12-12.15,1.83,1.83,0,0,1,3.26.83c.46,2.29.91,4.57,1.33,6.82a2,2,0,0,1-.19,1.26,114.91,114.91,0,0,1-10.34,15.9A31.36,31.36,0,0,0,144,168.52a1.87,1.87,0,0,1,2.79,1.38l.62,4.13a1.94,1.94,0,0,1-.32,1.39,116.16,116.16,0,0,1-10.18,12.21,39.06,39.06,0,0,0,9.42-3.5,1.88,1.88,0,0,1,2.67,1.5q.36,2.88.68,5.71a1.93,1.93,0,0,1-.38,1.4,117.8,117.8,0,0,1-7.85,9.09,30.94,30.94,0,0,0,4.16-1.22,4,4,0,0,1,4.4,1.26,4.25,4.25,0,0,0-1,2.35c-3.85,43.92-.83,76.49,1,90.32-.62,4.76-1.1,7.32-1.1,7.32l-.91-.93c-6.08-9.9-24.8-42.58-38.75-90.74C108.46,207.5,111,205,114.42,205Z" fill="#009444"/><path d="M100.74,152.13c1.84,1,3.64,1.93,5.36,2.74-1.89,2.66-3.18,4.17-3.18,4.17s-2.1-.67-5.4-2c-.16-1-.32-2-.47-3.06C96.81,152.31,99.06,151.2,100.74,152.13Z" fill="#a86b2b"/><path d="M118.62,100c6.07,19-2,37.82-8.67,48.92l-1.51-1.79a71.52,71.52,0,0,1-5.35-7.38c10-6.3,14.56-20.12,10.27-33.54-3.56-11.13-11.15-15.55-20.12-15.58A44.09,44.09,0,0,1,96.1,79.77C106.1,83,115.5,90.24,118.62,100Z" fill="#a86b2b"/><path d="M100,128.85a20.69,20.69,0,0,0,6.6-22.73c-2.34-7.33-7.47-10.39-13.69-10.62a43.42,43.42,0,0,1,.36-4.86c9,0,16.56,4.45,20.12,15.58,4.29,13.42-.28,27.24-10.27,33.54a66.07,66.07,0,0,1-7-14.83C97.76,127.4,99.28,129.39,100,128.85Z" fill="#0e9ac4"/><path d="M106.57,106.12a20.69,20.69,0,0,1-6.6,22.73c-.69.54-2.21-1.45-3.91-3.92a61.32,61.32,0,0,1-3-17.25q-.17-5.61-.16-11.32c0-.29,0-.58,0-.86C99.1,95.73,104.23,98.79,106.57,106.12Z" fill="#15113e"/><path d="M255.3,120.66c8.24-25.82-3.88-52.76-27.09-60.18s-48.7,7.51-57,33.33q-1.69,5.31-3.25,10.57a74.26,74.26,0,0,0-.49,40.64c2.34,8.54,4.78,15,4.78,15a60.65,60.65,0,0,1-12-12.15,1.83,1.83,0,0,0-3.26.84c-.46,2.28-.91,4.56-1.33,6.81a2,2,0,0,0,.19,1.26,114.91,114.91,0,0,0,10.34,15.9A31.36,31.36,0,0,1,156,168.52a1.87,1.87,0,0,0-2.79,1.38L152.6,174a1.94,1.94,0,0,0,.32,1.39,116.16,116.16,0,0,0,10.18,12.21,39.06,39.06,0,0,1-9.42-3.5,1.88,1.88,0,0,0-2.67,1.5q-.36,2.88-.68,5.71a1.93,1.93,0,0,0,.38,1.4,117.8,117.8,0,0,0,7.85,9.09,30.94,30.94,0,0,1-4.16-1.22,4.1,4.1,0,0,0-5.37,3.61c-5.18,59.07,2.07,97.64,2.07,97.64s28.22-27.78,58.08-78.41a4.09,4.09,0,0,0-2.26-6A32.2,32.2,0,0,1,203,216a117.3,117.3,0,0,0,11.41-2.78,1.93,1.93,0,0,0,1.13-.91q1.39-2.53,2.81-5.13a1.9,1.9,0,0,0-1.32-2.8,38.84,38.84,0,0,1-9.49-2.58,115.74,115.74,0,0,0,15.17-4,1.9,1.9,0,0,0,1.07-.94l1.94-3.81a1.87,1.87,0,0,0-1.46-2.74,31.38,31.38,0,0,1-10.59-2.57,115.08,115.08,0,0,0,17.49-6.87,2,2,0,0,0,.89-.92q1.47-3.15,2.91-6.36a1.84,1.84,0,0,0-2.17-2.59A60.46,60.46,0,0,1,216.08,174s5.7-3.81,12.55-9.4a74.35,74.35,0,0,0,23.16-33.35C253,127.75,254.16,124.22,255.3,120.66Z" fill="#00a651"/><path d="M195.33,160.55c-1.06-1.24-25.94-30.62-16.15-61.24,4.74-14.85,22-23.71,35.89-23.71a27,27,0,0,1,8.29,1.21c14.79,4.72,28.56,26.36,22.95,43.94-8.82,27.59-46.91,40-48.53,40.49l-1.45.46Z" fill="#cc914f"/><path d="M215.07,77.91a24.77,24.77,0,0,1,7.58,1.1c13.83,4.42,26.61,24.9,21.45,41-8.55,26.76-47,39-47,39s-25.21-29.28-15.7-59c4.29-13.42,20.43-22.1,33.69-22.1m0-4.62h0c-14.75,0-33,9.47-38.09,25.31-10.18,31.85,15.5,62.18,16.6,63.45l2,2.32,2.91-.93c1.67-.53,40.86-13.28,50-42,2.76-8.65,1.31-19.06-4-28.56-5-8.94-12.63-15.78-20.48-18.29a29.68,29.68,0,0,0-9-1.31Z" fill="#8dc63f"/><path d="M235.44,121.81c-5,15.55-19.92,24.65-33.39,20.35s-20.37-20.39-15.41-35.94,17.79-18,31.26-13.69S240.4,106.27,235.44,121.81Z" fill="#25afe5"/><path d="M230.65,118c-3,9.33-11.57,15.21-20.42,14.67-1.5-.09,1.61-14.85.12-15.33-2.11-.67-8.65,12.79-10.32,11.5a20.69,20.69,0,0,1-6.6-22.73c3.49-10.92,13.14-12.39,23.42-9.11S234.13,107.09,230.65,118Z" fill="#262262"/><path d="M151.1,301.86s-.48-2.56-1.1-7.32c1.8-13.83,4.82-46.4,1-90.32a4.25,4.25,0,0,0-1-2.35,4,4,0,0,1,4.4-1.26,30.94,30.94,0,0,0,4.16,1.22,117.8,117.8,0,0,1-7.85-9.09,1.93,1.93,0,0,1-.38-1.4q.31-2.84.68-5.71a1.88,1.88,0,0,1,2.67-1.5,39.06,39.06,0,0,0,9.42,3.5,116.16,116.16,0,0,1-10.18-12.21,1.94,1.94,0,0,1-.32-1.39l.62-4.13a1.87,1.87,0,0,1,2.79-1.38,31.36,31.36,0,0,0,10.23,4.12,114.91,114.91,0,0,1-10.34-15.9,2,2,0,0,1-.19-1.26c.42-2.25.87-4.53,1.33-6.82a1.83,1.83,0,0,1,3.26-.83,60.65,60.65,0,0,0,12,12.15s-2.44-6.42-4.78-15a74.26,74.26,0,0,1,.49-40.64q1.55-5.25,3.25-10.57a51.83,51.83,0,0,1,22.89-29.14,48.6,48.6,0,0,1,9.75,15.1C193.9,83,184.5,90.24,181.38,100c-6.08,19,2,37.82,8.67,48.93-5.61,6.59-10.27,11.19-10.27,11.19a84.62,84.62,0,0,0,14.12-5.26c1.89,2.66,3.18,4.17,3.18,4.17s2.15-.69,5.53-2.08c-.2,1.32-.39,2.65-.59,3.95a1.86,1.86,0,0,1-.73,1.16,148,148,0,0,1-19,12.19,51.48,51.48,0,0,0,14.25-.82c1.65-.32,3.17.83,2.89,2.2l-.86,4.2a1.92,1.92,0,0,1-.94,1.24,162.78,162.78,0,0,1-17.37,8.68,63.5,63.5,0,0,0,13-.48c1.63-.21,3,1,2.71,2.28-.46,1.93-.93,3.85-1.41,5.74a2,2,0,0,1-1,1.24c-7.07,3.8-13.27,6.37-13.27,6.37a50.8,50.8,0,0,0,5.62.12c3.39-.09,6,2.46,5.2,5.15-13.88,48.31-32.64,80.61-38.91,90.62Z" fill="#009444"/><path d="M186.64,106.22c-4.29,13.42.28,27.25,10.28,33.54a71.59,71.59,0,0,1-5.34,7.36l-1.53,1.82C183.41,137.83,175.3,119,181.38,100c3.12-9.77,12.52-17,22.52-20.24a44.09,44.09,0,0,1,2.86,10.87C197.79,90.67,190.2,95.09,186.64,106.22Z" fill="#a86b2b"/><path d="M203.07,153.89c-.15,1-.31,2.05-.46,3.07-3.38,1.39-5.53,2.08-5.53,2.08s-1.29-1.51-3.18-4.17c1.76-.83,3.6-1.75,5.47-2.8C201.05,151.13,203.3,152.24,203.07,153.89Z" fill="#a86b2b"/><path d="M186.64,106.22c3.56-11.13,11.15-15.55,20.12-15.58a43.42,43.42,0,0,1,.36,4.86c-6.22.23-11.35,3.29-13.69,10.62a20.69,20.69,0,0,0,6.6,22.73c.69.54,2.22-1.46,3.92-3.93a66.14,66.14,0,0,1-7,14.84C186.92,133.47,182.35,119.64,186.64,106.22Z" fill="#0e9ac4"/><path d="M207,107.6a61,61,0,0,1-3,17.32c-1.7,2.47-3.23,4.47-3.92,3.93a20.69,20.69,0,0,1-6.6-22.73c2.34-7.33,7.47-10.39,13.69-10.62,0,.28,0,.57,0,.86Q207.14,102,207,107.6Z" fill="#15113e"/><path d="M105.89,92.67c0-27.1,19.75-49.07,44.11-49.07s44.11,22,44.11,49.07c0,3.73,0,7.41-.12,11.06a74.22,74.22,0,0,1-11.9,38.86C177.26,150,173,155.4,173,155.4a61,61,0,0,0,15.13-7.94,1.84,1.84,0,0,1,2.85,1.8q-.37,3.48-.81,6.89a1.9,1.9,0,0,1-.56,1.15,115.28,115.28,0,0,1-14.69,12,31.23,31.23,0,0,0,11-.81,1.87,1.87,0,0,1,2.24,2.16l-.67,4.13a1.9,1.9,0,0,1-.73,1.22,114.7,114.7,0,0,1-13.41,8.54,38.7,38.7,0,0,0,10-.47,1.87,1.87,0,0,1,2.09,2.24q-.52,2.85-1.08,5.65a1.94,1.94,0,0,1-.8,1.21,116.16,116.16,0,0,1-10.24,6.27,31.56,31.56,0,0,0,4.34.11,4.09,4.09,0,0,1,4,5.07C168.64,262.46,150,297,150,297s-18.43-35.05-31.46-92.37a4.09,4.09,0,0,1,4-5.07,31.46,31.46,0,0,0,4.14-.12,115.6,115.6,0,0,1-10-6.12,1.92,1.92,0,0,1-.8-1.21q-.57-2.83-1.12-5.73a1.9,1.9,0,0,1,2.11-2.27,38.62,38.62,0,0,0,9.83.43,115.68,115.68,0,0,1-13.24-8.41,1.9,1.9,0,0,1-.73-1.22l-.69-4.22a1.87,1.87,0,0,1,2.23-2.17,31.39,31.39,0,0,0,10.86.78,114.34,114.34,0,0,1-14.57-11.88,1.88,1.88,0,0,1-.56-1.14c-.3-2.29-.58-4.61-.84-6.94a1.84,1.84,0,0,1,2.85-1.8,60.87,60.87,0,0,0,15,7.87s-4.27-5.37-9.1-12.78A74.38,74.38,0,0,1,106,103.81Q105.89,98.29,105.89,92.67Z" fill="#00a651"/><path d="M148.32,148.84c-1.38-1-33.9-24.38-33.9-53.34,0-18.46,19.71-34.88,35.24-34.88S184.9,77,184.9,95.5c0,32.15-32.64,52.57-34,53.42l-1.3.8Z" fill="#cc914f"/><path d="M149.66,62.93c14.52,0,32.92,15.63,32.92,32.57,0,31.23-32.92,51.45-32.92,51.45S116.73,123.6,116.73,95.5c0-16.94,18.41-32.57,32.93-32.57m0-4.62c-8.24,0-17.61,4.18-25.07,11.19-7.93,7.44-12.48,16.92-12.48,26,0,30.14,33.45,54.21,34.88,55.22l2.49,1.77,2.6-1.6c1.43-.88,35.13-22,35.13-55.39,0-9.08-4.55-18.56-12.48-26-7.46-7-16.83-11.19-25.07-11.19Z" fill="#8dc63f"/><path d="M124.45,99.82c0,16.31,11.47,29.54,25.62,29.54s25.61-13.23,25.61-29.54-11.47-22.56-25.61-22.56S124.45,83.51,124.45,99.82Z" fill="#25afe5"/><path d="M130.17,97.66c0,9.79,6.39,18,15,20.18,1.46.38,3-14.64,4.56-14.64,2.21,0,4.34,14.82,6.33,14.1a20.71,20.71,0,0,0,13.21-19.64c0-11.47-8.75-15.81-19.54-15.81S130.17,86.19,130.17,97.66Z" fill="#262262"/></g><path d="M99.74,110.23c-.34,0-.67,0-1,0A12.26,12.26,0,0,1,95,86.34a12.27,12.27,0,0,1,12.23-13.09h0a12.31,12.31,0,0,1,8.87,3.81,12.11,12.11,0,0,1,5.87-1.5,12.26,12.26,0,0,1,9,20.6,78.46,78.46,0,0,1,7.92-1c2.4-.19,4.78-.29,7.07-.29h0c29.07,0,44.08,15.2,51.55,28a71.12,71.12,0,0,1,9.11,27.56,4.47,4.47,0,0,1,0,.52h0c0,.38.38,9.35,12.44,20.85,11.46,10.93,16.28,31.56,16.48,32.43a6,6,0,0,1-5.86,7.34,5.94,5.94,0,0,1-2.5-.55c-.27-.13-27.1-12.34-48.07-12.34a41.91,41.91,0,0,0-7,.54c-.66.17-1.32.31-2,.44h0c-13.58,2.65-13.81,8.29-12.88,13.84,0,.21.07.43.11.64.21,1.06.48,2.19.85,3.43l.21.71c.88,2.84,2,5.76,3.16,8.59s2.14,5.41,2.91,7.92v0c.15.48.31,1,.49,1.52l0,.05c.17.53.36,1.08.57,1.64V238l.67,1.81,0,.06c.24.64.49,1.28.75,1.93l0,.06c.27.68.54,1.36.83,2.06s.61,1.47.92,2.2v0c.63,1.49,1.31,3,2,4.61a241.61,241.61,0,0,0,14.66,27.76c7.11,11.33,16.15,16,16.83,18.43h-9.67c-7.93-5.89-19.62-26.7-27.29-43.72-.73-1.62-1.43-3.21-2.08-4.74h0c-.32-.76-.64-1.51-.94-2.24l0-.05c-.29-.72-.58-1.42-.85-2.12l0-.07c-.27-.68-.52-1.35-.77-2l0-.08-.69-1.88,0-.08c-.21-.61-.42-1.2-.61-1.77v0c-.2-.57-.37-1.13-.54-1.66h0c-1.46-4.79-4.25-10.65-6.07-16.52l-.24-.8c-.39-1.34-.73-2.67-1-4-.05-.26-.1-.52-.14-.79-1.53-9.17,1.26-17.51,17.64-20.71h0c.64-.13,1.28-.27,1.89-.43a47.86,47.86,0,0,1,8.25-.67c22.59,0,50.58,12.89,50.58,12.89s-4.49-19.62-14.77-29.42c-13.45-12.83-14.25-23.42-14.29-25a26.79,26.79,0,0,1-1.09,7,55.58,55.58,0,0,0,1.08-7.19s-3.9-50-54.68-50q-3.16,0-6.59.27a63.94,63.94,0,0,0-15.37,3V93.74a6.26,6.26,0,1,0-4,0v11.93c-.84.37-1.65.75-2.44,1.15l-6.31-16.49a6.26,6.26,0,0,0-4-11.08,6.07,6.07,0,0,0-2.23.42,6.25,6.25,0,0,0,2.24,12.09h.24L114,108.81l-.88.58-8.78-8.64a6.23,6.23,0,1,0-2.8,2.85l8.32,8.2c-33.2,27.27-10.62,97.5-3.88,118,7.3,22.22,11.08,59.54-4.26,67.2H89.62c.64-2.64,10.66-5.63,12.33-7.94,7.08-9.78,4.86-37.57-1.65-57.38-3-9-10.85-33-13.31-57.74-2.77-27.93,2-48.82,14.27-62.2Z" fill="#19184d"/><path d="M139.36,101.11c57-4.52,61.27,49.7,61.27,49.7S198.26,188,169,193.71c-29.95,5.85-14.47,28.88-10.21,42.81,4.82,15.72,22.93,52.33,33.88,60.47h-90.9c15.34-7.66,11.56-45,4.26-67.2C97.83,204.94,66.34,106.9,139.36,101.11Z" fill="#2b3990"/><path d="M181.88,188.25A33.24,33.24,0,0,1,169,193.71c-29.95,5.85-14.47,28.88-10.21,42.81a152.59,152.59,0,0,0,6.6,16.75h0c-37.83-8.1-60.73-77.27-49.6-114.5,18.49-61.83,79.32,32.93,79.32,32.93Z" fill="#14675a"/><path d="M194,180.55s-44.93-35.61-62.25-62.42c0,0,22.52-8.17,33.5,6.39s5.1,15.31,15.57,26.29a218.43,218.43,0,0,1,18.06,21.69Z" fill="#ecf7fe"/><path d="M189.13,185.11s-46.63-25.72-73.37-46.34c0,0-.49,5.41,2.55,14.3s.93,20.11,14.77,26.42S176.63,190.29,189.13,185.11Z" fill="#ecf7fe"/><circle cx="146.44" cy="150.81" r="25.49" fill="#19184d"/><path d="M147.62,175.61a21.57,21.57,0,0,1-21.54-21.54c0-1,0-2,0-3-.12-5.26-.22-10.22,3.23-13.75,3.18-3.26,9-4.78,18.35-4.78a21.55,21.55,0,1,1,0,43.09Z" fill="#fff"/><path d="M147.62,134a20,20,0,1,1-20,20c0-11.07-2.52-20,20-20m0-3c-9.76,0-15.94,1.66-19.43,5.23-3.89,4-3.77,9.5-3.65,14.84,0,1,0,2,0,3a23,23,0,1,0,23-23Z" fill="#19184d"/><path d="M132.83,154.07a14.8,14.8,0,1,0,14.79-14.8,15.91,15.91,0,0,0-2.08.15A8.53,8.53,0,0,1,133.16,151,14.92,14.92,0,0,0,132.83,154.07Zm17.49,6.13a3.52,3.52,0,1,1,3.51,3.52A3.51,3.51,0,0,1,150.32,160.2Z" fill="#414042"/><path d="M170.83,193.29c23.3-4.17,58.87,12.21,58.87,12.21s-4.49-19.62-14.77-29.42c-14.64-14-14.3-25.27-14.3-25.27a29,29,0,0,1-10.55,21.69A106.8,106.8,0,0,0,170.83,193.29Z" fill="#9b8579"/><path d="M213.29,199.19c-12.36-4.09-29.35-8.25-42.46-5.9a106.8,106.8,0,0,1,19.25-20.79,29.22,29.22,0,0,0,4.85-5.12h.15S193.25,186.83,213.29,199.19Z" fill="#756157"/><path d="M212.56,189s-1.42-6.33-5.68-7.2a11.63,11.63,0,0,0-8,1.57Z" fill="#756157"/><line x1="107.25" y1="85.51" x2="118.38" y2="114.6" fill="none" stroke="#2b3990" stroke-miterlimit="10" stroke-width="4"/><circle cx="107.25" cy="85.51" r="6.26" fill="#ffcb29"/><line x1="121.99" y1="87.81" x2="121.99" y2="118.96" fill="none" stroke="#2b3990" stroke-miterlimit="10" stroke-width="4"/><circle cx="121.99" cy="87.81" r="6.26" fill="#ffcb29"/><line x1="98.74" y1="98.02" x2="120.93" y2="119.88" fill="none" stroke="#2b3990" stroke-miterlimit="10" stroke-width="4"/><circle cx="98.74" cy="98.02" r="6.26" fill="#ffcb29"/></svg>