<?xml version="1.0" encoding="UTF-8" standalone="no"?>
<svg
   id="Layer_1"
   data-name="Layer 1"
   viewBox="0 0 300 345"
   version="1.1"
   sodipodi:docname="pumpkinPie.svg"
   xml:space="preserve"
   inkscape:version="1.2 (dc2aedaf03, 2022-05-15)"
   xmlns:inkscape="http://www.inkscape.org/namespaces/inkscape"
   xmlns:sodipodi="http://sodipodi.sourceforge.net/DTD/sodipodi-0.dtd"
   xmlns:xlink="http://www.w3.org/1999/xlink"
   xmlns="http://www.w3.org/2000/svg"
   xmlns:svg="http://www.w3.org/2000/svg"><sodipodi:namedview
     id="namedview213"
     pagecolor="#505050"
     bordercolor="#ffffff"
     borderopacity="1"
     inkscape:showpageshadow="0"
     inkscape:pageopacity="0"
     inkscape:pagecheckerboard="1"
     inkscape:deskcolor="#505050"
     showgrid="false"
     inkscape:zoom="0.56568543"
     inkscape:cx="-110.48543"
     inkscape:cy="120.20815"
     inkscape:window-width="1366"
     inkscape:window-height="705"
     inkscape:window-x="-8"
     inkscape:window-y="-8"
     inkscape:window-maximized="1"
     inkscape:current-layer="Layer_1" /><defs
     id="defs9"><linearGradient
       inkscape:collect="always"
       id="linearGradient6519"><stop
         style="stop-color:#f5d6a9;stop-opacity:1;"
         offset="0"
         id="stop6517" /><stop
         style="stop-color:#ffffff;stop-opacity:1;"
         offset="1"
         id="stop6515" /></linearGradient><linearGradient
       inkscape:collect="always"
       id="linearGradient4259"><stop
         style="stop-color:#535353;stop-opacity:1;"
         offset="0.66115701"
         id="stop4255" /><stop
         style="stop-color:#888888;stop-opacity:1;"
         offset="1"
         id="stop4257" /></linearGradient><linearGradient
       id="linearGradient4253"
       x1="150"
       y1="376.34"
       x2="150"
       y2="181.39"
       gradientUnits="userSpaceOnUse"
       spreadMethod="pad"><stop
         offset="0"
         stop-color="#e49553"
         id="stop4249"
         style="stop-color:#b97522;stop-opacity:1;" /><stop
         offset="0.37"
         stop-color="#b75f2e"
         id="stop4251"
         style="stop-color:#9c5514;stop-opacity:1;" /></linearGradient><inkscape:path-effect
       effect="tiling"
       id="path-effect3473"
       is_visible="true"
       lpeversion="1"
       unit="px"
       seed="1;1"
       lpesatellites=""
       num_rows="7"
       num_cols="1"
       gapx="0"
       gapy="0"
       offset="0"
       offset_type="false"
       scale="0"
       rotate="0"
       mirrorrowsx="false"
       mirrorrowsy="false"
       mirrorcolsx="false"
       mirrorcolsy="false"
       mirrortrans="false"
       shrink_interp="false"
       split_items="false"
       link_styles="false"
       interpolate_scalex="false"
       interpolate_scaley="true"
       interpolate_rotatex="false"
       interpolate_rotatey="true"
       random_scale="false"
       random_rotate="false"
       random_gap_y="false"
       random_gap_x="false"
       transformorigin="matrix(0,-1,-1,0,0,0)" /><inkscape:path-effect
       effect="tiling"
       id="path-effect3467"
       is_visible="true"
       lpeversion="1"
       unit="px"
       seed="1;1"
       lpesatellites=""
       num_rows="7"
       num_cols="1"
       gapx="0"
       gapy="0"
       offset="0"
       offset_type="false"
       scale="0"
       rotate="0"
       mirrorrowsx="false"
       mirrorrowsy="false"
       mirrorcolsx="false"
       mirrorcolsy="false"
       mirrortrans="false"
       shrink_interp="false"
       split_items="false"
       link_styles="false"
       interpolate_scalex="false"
       interpolate_scaley="true"
       interpolate_rotatex="false"
       interpolate_rotatey="true"
       random_scale="false"
       random_rotate="false"
       random_gap_y="false"
       random_gap_x="false"
       transformorigin="matrix(0,-1,-1,0,0,0)" /><style
       id="style2">.cls-1{fill:url(#linear-gradient);}.cls-2,.cls-6{fill:#fdb913;}.cls-3{fill:#f7941d;}.cls-4{fill:none;}.cls-4,.cls-6{stroke:#f7941d;stroke-linecap:round;stroke-miterlimit:10;stroke-width:3px;}.cls-5{fill:#ffd200;}.cls-7{fill:#86283b;}.cls-8{fill:#be4047;}.cls-9{fill:#d07374;}.cls-10{fill:#2a953c;}.cls-11{fill:#39b54a;}.cls-12{fill:#c97235;}</style><linearGradient
       id="linear-gradient"
       x1="150"
       y1="376.34"
       x2="150"
       y2="181.39"
       gradientUnits="userSpaceOnUse"
       xlink:href="#linearGradient4253"><stop
         offset="0"
         stop-color="#e49553"
         id="stop4"
         style="stop-color:#b97522;stop-opacity:1;" /><stop
         offset="0.37"
         stop-color="#b75f2e"
         id="stop6"
         style="stop-color:#9c5514;stop-opacity:1;" /></linearGradient><linearGradient
       inkscape:collect="always"
       xlink:href="#linearGradient4259"
       id="linearGradient4261"
       x1="162.58499"
       y1="269.41962"
       x2="163.03981"
       y2="343.64319"
       gradientUnits="userSpaceOnUse" /><linearGradient
       inkscape:collect="always"
       xlink:href="#linearGradient6519"
       id="linearGradient6521"
       x1="149.19614"
       y1="172.72238"
       x2="152.72227"
       y2="112.07713"
       gradientUnits="userSpaceOnUse" /><clipPath
       clipPathUnits="userSpaceOnUse"
       id="clipPath2569"><path
         class="cls-12"
         d="m 263.62,61 c 11.21078,-0.03321 20.33039,9.019285 20.38,20.23 v 180.63 c 0.0277,11.29136 -9.08874,20.4749 -20.38,20.53 H 36.38 C 25.125106,282.37897 16.005512,273.2549 16,262 V 81.38 C 16.011025,70.129007 25.129007,61.011025 36.38,61 h 227.24 m 0,-7.214972 H 36.38 C 16.287881,53.785028 0,61.287881 0,81.38 V 262 c 0,20.09212 16.287881,36.38 36.38,36.38 h 227.24 c 20.14,-0.0165 36.44085,-16.38009 36.38,-36.52 V 81.23 C 299.93385,61.189615 283.66049,53.76838 263.62,53.785028 Z"
         id="path2571"
         style="fill:#a55e18;fill-opacity:1"
         sodipodi:nodetypes="ccccccccccsssscccc" /></clipPath></defs><path
     class="cls-1"
     d="M 263.62,345 H 36.38 A 36.38,36.38 0 0 1 0,308.62 v -49.48 h 300 v 49.48 A 36.38,36.38 0 0 1 263.62,345 Z"
     id="path11"
     style="fill:url(#linear-gradient)" /><path
     class="cls-3"
     d="m 286.74,242.05 v 1.07 a 23.32,23.32 0 0 1 -23.32,23.31 H 36.58 A 23.32,23.32 0 0 1 13.26,243.12 v -1.07 H 0 a 44,44 0 0 0 44,44 h 212 a 44,44 0 0 0 44,-44 z"
     id="path15" /><path
     id="rect13"
     style="fill:#f17917;fill-opacity:1"
     class="cls-2"
     d="M 42.460938 52.089844 C 23.386736 52.089844 8.0292969 67.44533 8.0292969 86.519531 L 8.0292969 242.05078 L 0 242.05078 A 44 44 0 0 0 10.556641 270.44141 C 15.659138 283.05012 27.9802 291.91016 42.460938 291.91016 L 257.5293 291.91016 C 272.00256 291.91016 284.3165 283.05927 289.42383 270.46094 A 44 44 0 0 0 300 242.05078 L 291.96094 242.05078 L 291.96094 86.519531 C 291.96094 67.44533 276.6035 52.089844 257.5293 52.089844 L 42.460938 52.089844 z " /><path
     class="cls-3"
     d="M 292.92,156.22 H 162.38 c -1.8037,-0.12669 -2.52671,-2.39171 -1.13,-3.54 l 124.67,-88.5 -2.31,-3.26 -128.54,91.24 c -1.2886,0.92344 -3.08071,-0.005 -3.07,-1.59 V 51 h -4 v 99.59 c 0.0107,1.58528 -1.7814,2.51344 -3.07,1.59 L 16.39,60.92 l -2.31,3.26 124.67,88.5 c 1.39671,1.14829 0.6737,3.41331 -1.13,3.54 H 7.08 v 4 h 130.54 c 1.7906,0.13578 2.50888,2.37962 1.13,3.53 l -124.1,88.09 2.35,3.27 128,-90.84 c 1.29448,-0.82232 2.99472,0.0583 3.07,1.59 v 117.19 h 4 V 165.86 c 0.0753,-1.53174 1.77552,-2.41232 3.07,-1.59 l 128,90.84 2.31,-3.27 -124.1,-88.09 c -1.37888,-1.15038 -0.6606,-3.39422 1.13,-3.53 h 130.44 z"
     id="path17"
     style="fill:#d14c0d;fill-opacity:1"
     sodipodi:nodetypes="ccccccccccccccccccccccccccccccccc" /><path
     class="cls-12"
     d="m 263.62,61 c 11.21078,-0.03321 20.33039,9.019285 20.38,20.23 v 180.63 c 0.0277,11.29136 -9.08874,20.4749 -20.38,20.53 H 36.38 C 25.125106,282.37897 16.005512,273.2549 16,262 V 81.38 C 16.011025,70.129007 25.129007,61.011025 36.38,61 h 227.24 m 0,-7.214972 H 36.38 C 16.287881,53.785028 0,61.287881 0,81.38 V 262 c 0,20.09212 16.287881,36.38 36.38,36.38 h 227.24 c 20.14,-0.0165 36.44085,-16.38009 36.38,-36.52 V 81.23 C 299.93385,61.189615 283.66049,53.76838 263.62,53.785028 Z"
     id="path201"
     style="fill:#a55e18;fill-opacity:1"
     sodipodi:nodetypes="ccccccccccsssscccc" /><path
     style="fill:#af6f20;fill-opacity:1;fill-rule:evenodd;stroke:#864912;stroke-width:3.185;stroke-dasharray:none;stroke-opacity:1"
     id="path3463"
     sodipodi:type="arc"
     sodipodi:cx="-89.795883"
     sodipodi:cy="-20.252752"
     sodipodi:rx="17.087851"
     sodipodi:ry="18.640984"
     sodipodi:start="0"
     sodipodi:end="3.1415927"
     sodipodi:arc-type="arc"
     d="m -72.708033,-20.252752 c 0,6.659782 -3.256926,12.8136742 -8.543925,16.1435652 -5.287,3.32989093 -11.800852,3.32989077 -17.087851,-5e-7 -5.287001,-3.329891 -8.543921,-9.4837837 -8.543921,-16.1435647 m 0,0 c 0,6.659782 -3.25693,12.8136742 -8.54393,16.1435652 -5.287,3.32989093 -11.80085,3.32989077 -17.08785,-5e-7 -5.287,-3.329891 -8.54392,-9.4837837 -8.54392,-16.1435647 m 0,0 c 0,6.659782 -3.25693,12.8136742 -8.54393,16.1435652 -5.287,3.32989093 -11.80085,3.32989077 -17.08785,-5e-7 -5.287,-3.329891 -8.54393,-9.4837837 -8.54393,-16.1435647 m 0,0 c 0,6.659782 -3.25692,12.8136742 -8.54392,16.1435652 -5.287,3.32989093 -11.80085,3.32989077 -17.08785,-5e-7 -5.287,-3.329891 -8.54393,-9.4837837 -8.54393,-16.1435647 m 0,0 c 0,6.659782 -3.25692,12.8136742 -8.54392,16.1435652 -5.287,3.32989093 -11.80085,3.32989077 -17.08785,-5e-7 -5.287,-3.329891 -8.54393,-9.4837837 -8.54393,-16.1435647 m 0,0 c 0,6.659782 -3.25692,12.8136742 -8.54392,16.1435652 -5.287,3.32989093 -11.80086,3.32989077 -17.08785,-5e-7 -5.287,-3.329891 -8.54393,-9.4837837 -8.54393,-16.1435647 m 0,0 c 0,6.659782 -3.25693,12.8136742 -8.54392,16.1435652 -5.287,3.32989093 -11.80086,3.32989077 -17.08786,-5e-7 -5.28699,-3.329891 -8.54392,-9.4837837 -8.54392,-16.1435647"
     sodipodi:open="true"
     transform="matrix(1.1304202,0,0,-1.3167936,367.40579,34.102499)"
     inkscape:path-effect="#path-effect3467"
     class="UnoptimicedTransforms" /><path
     style="fill:#af6f20;fill-opacity:1;fill-rule:evenodd;stroke:#864912;stroke-width:3.185;stroke-dasharray:none;stroke-opacity:1"
     id="path3469"
     sodipodi:type="arc"
     sodipodi:cx="-89.795883"
     sodipodi:cy="-20.252752"
     sodipodi:rx="17.087851"
     sodipodi:ry="18.640984"
     sodipodi:start="0"
     sodipodi:end="3.1415927"
     sodipodi:arc-type="arc"
     d="m -72.708033,-20.252752 c 0,6.659782 -3.256926,12.8136742 -8.543925,16.1435652 -5.287,3.32989093 -11.800852,3.32989077 -17.087851,-5e-7 -5.287001,-3.329891 -8.543921,-9.4837837 -8.543921,-16.1435647 m 0,0 c 0,6.659782 -3.25693,12.8136742 -8.54393,16.1435652 -5.287,3.32989093 -11.80085,3.32989077 -17.08785,-5e-7 -5.287,-3.329891 -8.54392,-9.4837837 -8.54392,-16.1435647 m 0,0 c 0,6.659782 -3.25693,12.8136742 -8.54393,16.1435652 -5.287,3.32989093 -11.80085,3.32989077 -17.08785,-5e-7 -5.287,-3.329891 -8.54393,-9.4837837 -8.54393,-16.1435647 m 0,0 c 0,6.659782 -3.25692,12.8136742 -8.54392,16.1435652 -5.287,3.32989093 -11.80085,3.32989077 -17.08785,-5e-7 -5.287,-3.329891 -8.54393,-9.4837837 -8.54393,-16.1435647 m 0,0 c 0,6.659782 -3.25692,12.8136742 -8.54392,16.1435652 -5.287,3.32989093 -11.80085,3.32989077 -17.08785,-5e-7 -5.287,-3.329891 -8.54393,-9.4837837 -8.54393,-16.1435647 m 0,0 c 0,6.659782 -3.25692,12.8136742 -8.54392,16.1435652 -5.287,3.32989093 -11.80086,3.32989077 -17.08785,-5e-7 -5.287,-3.329891 -8.54393,-9.4837837 -8.54393,-16.1435647 m 0,0 c 0,6.659782 -3.25693,12.8136742 -8.54392,16.1435652 -5.287,3.32989093 -11.80086,3.32989077 -17.08786,-5e-7 -5.28699,-3.329891 -8.54392,-9.4837837 -8.54392,-16.1435647"
     sodipodi:open="true"
     transform="matrix(1.1304202,0,0,1.3167936,367.40579,308.64818)"
     inkscape:path-effect="#path-effect3473"
     class="UnoptimicedTransforms" /><path
     id="path1779"
     style="fill:#9c5514;fill-opacity:0.493369;fill-rule:evenodd;stroke:none;stroke-width:3.185;stroke-dasharray:none;stroke-opacity:1"
     class="UnoptimicedTransforms"
     d="m -294.84985,-1.6115458 c -2.95021,-1e-7 -5.90041,-0.8327197 -8.54391,-2.4976637 -3.49194,-2.1993239 -6.07082,-5.6420309 -7.43812,-9.6372995 h 31.96406 c -1.3673,3.9952688 -3.94618,7.4379756 -7.43813,9.6372995 -2.64349,1.6649438 -5.59369,2.4976638 -8.5439,2.4976637 z m 34.17562,0 c -2.95021,-1e-7 -5.90041,-0.8327197 -8.54391,-2.4976637 -3.49195,-2.1993239 -6.07082,-5.6420309 -7.43812,-9.6372995 h 31.96406 c -1.3673,3.9952688 -3.94617,7.4379756 -7.43812,9.6372995 -2.6435,1.6649438 -5.5937,2.4976638 -8.54391,2.4976637 z m 34.17562,0 c -2.95021,-1e-7 -5.90041,-0.8327197 -8.5439,-2.4976637 -3.49196,-2.1993239 -6.07083,-5.6420309 -7.43813,-9.6372995 h 31.96406 c -1.3673,3.9952688 -3.94617,7.4379756 -7.43812,9.6372995 -2.6435,1.6649438 -5.5937,2.4976638 -8.54391,2.4976637 z m 34.17562,0 c -2.95021,-1e-7 -5.90041,-0.8327197 -8.5439,-2.4976637 -3.49196,-2.1993239 -6.07083,-5.6420309 -7.43812,-9.6372995 h 31.96405 c -1.3673,3.9952688 -3.94617,7.4379756 -7.43812,9.6372995 -2.6435,1.6649438 -5.5937,2.4976638 -8.54391,2.4976637 z m 34.17562,0 c -2.95021,-1e-7 -5.9004,-0.8327197 -8.5439,-2.4976637 -3.49196,-2.1993239 -6.07082,-5.6420309 -7.43812,-9.6372995 h 31.96405 c -1.3673,3.9952688 -3.94617,7.4379756 -7.43812,9.6372995 -2.6435,1.6649438 -5.5937,2.4976638 -8.54391,2.4976637 z m 34.17562,0 c -2.9502,-1e-7 -5.9004,-0.8327197 -8.5439,-2.4976637 -3.49195,-2.1993239 -6.07083,-5.6420309 -7.43812,-9.6372995 h 31.96405 c -1.3673,3.9952688 -3.94617,7.4379756 -7.43812,9.6372995 -2.6435,1.6649438 -5.5937,2.4976638 -8.54391,2.4976637 z m 34.175626,0 c -2.95021,-1e-7 -5.900408,-0.8327197 -8.543905,-2.4976637 -3.491951,-2.1993239 -6.070831,-5.6420309 -7.438121,-9.6372995 h 31.964053 c -1.367297,3.9952688 -3.946169,7.4379756 -7.438122,9.6372995 -2.643497,1.6649438 -5.593695,2.4976638 -8.543905,2.4976637 z"
     transform="matrix(1.1304202,0,0,1.0502002,367.40579,296.41607)" /><path
     id="path1695"
     style="fill:#9c5514;fill-opacity:0.493369;fill-rule:evenodd;stroke:none;stroke-width:3.185;stroke-dasharray:none;stroke-opacity:1"
     class="UnoptimicedTransforms"
     d="M -294.84985 -1.6115458 C -297.80006 -1.6115459 -300.75026 -2.4442655 -303.39376 -4.1092095 C -306.8857 -6.3085334 -309.46458 -9.7512404 -310.83188 -13.746509 L -278.86782 -13.746509 C -280.23512 -9.7512402 -282.814 -6.3085334 -286.30595 -4.1092095 C -288.94944 -2.4442657 -291.89964 -1.6115457 -294.84985 -1.6115458 z M -260.67423 -1.6115458 C -263.62444 -1.6115459 -266.57464 -2.4442655 -269.21814 -4.1092095 C -272.71009 -6.3085334 -275.28896 -9.7512404 -276.65626 -13.746509 L -244.6922 -13.746509 C -246.0595 -9.7512402 -248.63837 -6.3085334 -252.13032 -4.1092095 C -254.77382 -2.4442657 -257.72402 -1.6115457 -260.67423 -1.6115458 z M -226.49861 -1.6115458 C -229.44882 -1.6115459 -232.39902 -2.4442655 -235.04251 -4.1092095 C -238.53447 -6.3085334 -241.11334 -9.7512404 -242.48064 -13.746509 L -210.51658 -13.746509 C -211.88388 -9.7512402 -214.46275 -6.3085334 -217.9547 -4.1092095 C -220.5982 -2.4442657 -223.5484 -1.6115457 -226.49861 -1.6115458 z M -192.32299 -1.6115458 C -195.2732 -1.6115459 -198.2234 -2.4442655 -200.86689 -4.1092095 C -204.35885 -6.3085334 -206.93772 -9.7512404 -208.30501 -13.746509 L -176.34096 -13.746509 C -177.70826 -9.7512402 -180.28713 -6.3085334 -183.77908 -4.1092095 C -186.42258 -2.4442657 -189.37278 -1.6115457 -192.32299 -1.6115458 z M -158.14737 -1.6115458 C -161.09758 -1.6115459 -164.04777 -2.4442655 -166.69127 -4.1092095 C -170.18323 -6.3085334 -172.76209 -9.7512404 -174.12939 -13.746509 L -142.16534 -13.746509 C -143.53264 -9.7512402 -146.11151 -6.3085334 -149.60346 -4.1092095 C -152.24696 -2.4442657 -155.19716 -1.6115457 -158.14737 -1.6115458 z M -123.97175 -1.6115458 C -126.92195 -1.6115459 -129.87215 -2.4442655 -132.51565 -4.1092095 C -136.0076 -6.3085334 -138.58648 -9.7512404 -139.95377 -13.746509 L -107.98972 -13.746509 C -109.35702 -9.7512402 -111.93589 -6.3085334 -115.42784 -4.1092095 C -118.07134 -2.4442657 -121.02154 -1.6115457 -123.97175 -1.6115458 z M -89.796124 -1.6115458 C -92.746334 -1.6115459 -95.696532 -2.4442655 -98.340029 -4.1092095 C -101.83198 -6.3085334 -104.41086 -9.7512404 -105.77815 -13.746509 L -73.814097 -13.746509 C -75.181394 -9.7512402 -77.760266 -6.3085334 -81.252219 -4.1092095 C -83.895716 -2.4442657 -86.845914 -1.6115457 -89.796124 -1.6115458 z "
     transform="matrix(1.1304202,0,0,-1.0502002,367.40579,46.334898)" /><path
     id="path3890"
     style="fill:#af6f20;fill-rule:evenodd;stroke:#864912;stroke-width:3.185"
     class="UnoptimicedTransforms"
     transform="matrix(0.80983727,-0.80346415,-1.1520379,-1.1429718,77.166162,-22.898505)"
     d="m -84.128198,-13.259752 c 3.894571,6.240675 5.640024,6.7264409 2.87624,9.1505652 -3.548524,3.11242249 -11.800852,3.32989073 -17.087851,-5e-7 -5.287001,-3.3298921 -4.230671,-5.0086371 -4.230671,-11.6684177"
     sodipodi:nodetypes="casc" /><path
     id="path3995"
     style="fill:#af6f20;fill-rule:evenodd;stroke:#864912;stroke-width:3.185"
     class="UnoptimicedTransforms"
     transform="matrix(-0.80983727,-0.80346415,1.1520379,-1.1429718,222.83384,-22.898505)"
     d="m -81.424801,-14.61348 c 3.894571,6.2406751 3.6605,8.0238563 0.172843,10.5042932 -3.988375,2.8365499 -11.800852,3.32989073 -17.087851,-5e-7 -5.287001,-3.3298921 -4.233731,-5.5531396 -4.233731,-12.2129207"
     sodipodi:nodetypes="casc" /><path
     id="path3997"
     style="fill:#af6f20;fill-rule:evenodd;stroke:#864912;stroke-width:3.185"
     class="UnoptimicedTransforms"
     transform="matrix(-0.80983727,0.80346415,1.1520379,1.1429718,222.83384,364.63744)"
     d="m -79.486809,-14.335851 c 3.894571,6.2406748 1.881641,7.9572687 -1.765149,10.2266642 -4.248268,2.6436945 -11.800852,3.32989073 -17.087851,-5e-7 -5.287001,-3.3298921 -2.289611,-4.1865058 -2.289611,-10.8462867"
     sodipodi:nodetypes="casc" /><path
     id="path3999"
     style="fill:#af6f20;fill-rule:evenodd;stroke:#864912;stroke-width:3.185"
     class="UnoptimicedTransforms"
     transform="matrix(0.80983727,0.80346415,-1.1520379,1.1429718,77.166162,364.63744)"
     d="m -79.48375,-13.791349 c 3.894571,6.2406753 1.698255,7.5401031 -1.768208,9.6821622 -4.261378,2.6332676 -11.800852,3.32989073 -17.087851,-5e-7 -5.287001,-3.3298921 -2.678441,-4.4598326 -2.678441,-11.1196137"
     sodipodi:nodetypes="casc" /><path
     id="path4086"
     style="fill:url(#linearGradient4261);fill-opacity:1"
     class="cls-1"
     d="M 0 289.26953 L 0 308.61914 A 36.38 36.38 0 0 0 36.380859 345 L 263.61914 345 A 36.38 36.38 0 0 0 300 308.61914 L 300 289.26953 A 36.38 22.152845 0 0 1 263.61914 311.42188 L 36.380859 311.42188 A 36.38 22.152845 0 0 1 0 289.26953 z " /><path
     id="path4991"
     style="fill:#9b9b9b;fill-opacity:0.81568629;stroke:#3d3d3d;stroke-width:2.7972;stroke-dasharray:none;stroke-opacity:1"
     class="cls-1"
     d="m -0.10673601,294.36676 v 2.72526 A 36.405887,29.59896 0 0 0 36.300011,326.69168 H 263.69999 a 36.405887,29.59896 0 0 0 36.40675,-29.59966 v -2.72526 a 36.405887,18.023672 0 0 1 -36.40675,18.02326 H 36.300011 A 36.405887,18.023672 0 0 1 -0.10673601,294.36676 Z" /><path
     id="path5837"
     style="fill:#d14c0d;fill-opacity:1;stroke:none;stroke-width:2.61365;stroke-linejoin:round;stroke-dasharray:none;stroke-opacity:1;stop-color:#000000"
     d="M 117.92969 162.9707 C 115.86166 164.57816 113.48777 165.98735 112.54492 168.23633 C 111.83753 170.90559 112.33757 173.95851 114.31641 176.14258 C 121.89546 183.59312 133.61368 186.54506 144.64062 187.45312 C 157.64487 188.31946 171.7813 186.36525 182.05664 178.89258 C 185.6436 176.52091 188.13315 172.79815 187.74219 168.78906 C 188.01182 166.17968 185.68245 164.74566 184.0332 162.9707 L 117.92969 162.9707 z " /><path
     style="fill:url(#linearGradient6521);fill-opacity:1;stroke:none;stroke-width:2.80008;stroke-linejoin:round;stroke-dasharray:none;stroke-opacity:1;stop-color:#000000"
     d="m 114.31701,170.13562 c 7.57906,8.55132 19.2973,11.93917 30.32426,12.9814 13.00426,0.99434 27.1397,-1.24931 37.41505,-9.82603 3.58696,-2.72207 6.07707,-6.99418 5.68611,-11.59558 0.39116,-4.34473 -4.76546,-5.8033 -5.23196,-9.82569 -1.41914,-5.16015 0.61515,-10.88822 -1.99184,-15.74255 -2.95894,-4.90068 -9.27806,-4.83581 -13.98618,-6.86744 -4.73955,-3.04096 -7.63193,-9.29366 -5.64044,-14.788 0.32954,-2.93117 4.53214,-7.67609 0.3648,-9.2178 -4.30273,0.44443 -8.30521,2.45718 -12.37763,3.85264 -7.1295,2.95542 -14.52231,6.03304 -20.21466,11.38617 -4.06046,4.3162 -6.80964,9.95049 -6.89509,15.94544 -0.48062,4.18005 0.10787,8.40762 -0.32036,12.56982 -0.43151,5.82148 -7.15428,7.26169 -8.90451,12.05331 -0.70739,3.06363 -0.20639,6.56756 1.77245,9.07431 z"
     id="path5248"
     sodipodi:nodetypes="assscaca" /><path
     id="path9078"
     style="fill:#ffffff;fill-opacity:1;stroke:none;stroke-width:3.1;stroke-linejoin:round;stroke-dasharray:none;stroke-opacity:1;stop-color:#000000"
     d="m 166.78516,129.35352 c -1.54202,11.24308 -13.04447,14.47043 -20.38426,21.07528 11.75813,0.48958 25.2881,4.26635 35.54637,-4.24325 0.01,-3.45889 0.24773,-6.9388 -1.42774,-10.0586 -2.90799,-4.81629 -9.05425,-4.84569 -13.73437,-6.77343 z"
     sodipodi:nodetypes="ccccc" /><path
     style="color:#000000;fill:#f4d09f;stroke-linejoin:round"
     d="m 182.04883,148.95312 c -4.14931,7.48364 -12.3539,11.41379 -20.11985,14.10506 -14.16007,4.60845 -29.27733,5.82711 -44.08686,4.96226 -2.22571,-0.0671 -6.64876,-1.46257 -3.74982,1.8163 2.17077,2.31201 6.14534,1.01216 9.09586,1.55863 14.59165,0.18859 29.45575,-1.40502 43.16145,-6.64827 6.25604,-2.50375 12.40881,-5.97519 16.56836,-11.41116 -0.5133,-1.39285 -0.74085,-2.90611 -0.86914,-4.38282 z"
     id="path8819" /><path
     style="color:#000000;fill:#f4d09f;stroke-linejoin:round"
     d="m 166.62109,129.29297 c -4.37976,9.70567 -13.93888,15.72449 -23.38924,19.76746 -8.7665,3.70668 -18.04892,6.02861 -27.38419,7.77551 -2.10601,0.55269 -2.31603,4.62557 0.39188,3.08787 14.23108,-2.72106 28.72416,-6.53034 40.77582,-14.89657 5.31007,-3.76311 9.96191,-8.70187 12.54714,-14.74013 -0.99525,-0.28448 -1.98731,-0.58976 -2.94141,-0.99414 z"
     id="path8817" /><path
     id="path8821"
     style="fill:#ffffff;fill-opacity:1;stroke:none;stroke-width:3.1;stroke-linejoin:round;stroke-dasharray:none;stroke-opacity:1;stop-color:#000000"
     d="m 161.25586,105.25391 c -4.30273,0.44443 -8.30454,2.45805 -12.37695,3.85351 -7.1295,2.95542 -14.5225,6.03164 -20.21485,11.38477 -3.74101,3.97663 -6.36314,9.0735 -6.82031,14.53906 0,0 9.08052,1.10291 13.18656,-0.4738 10.76287,-4.13291 14.68609,-25.75972 26.51266,-22.21175 1.123,-2.72533 2.97389,-5.88538 -0.28711,-7.09179 z"
     sodipodi:nodetypes="ccccacc" /><path
     id="path9083"
     style="fill:#ffffff;fill-opacity:0.625;stroke:none;stroke-width:3.1;stroke-linejoin:round;stroke-dasharray:none;stroke-opacity:1;stop-color:#000000"
     d="m 182.75586,152.89844 c -5.78094,10.54322 -18.84873,12.2288 -29.60938,16.50195 11.55683,-0.62838 23.46431,2.24985 34.40821,-4.50781 0.20692,-1.03665 0.28009,-2.10745 0.1875,-3.19727 0.35572,-3.95116 -3.86575,-5.52059 -4.98633,-8.79687 z"
     sodipodi:nodetypes="ccccc" /><g
     id="g1657"><path
       class="cls-4"
       d="m 50.567174,183.62849 c 0,0 8,-11.58 17.69,0"
       id="path1653"
       style="fill:none;stroke:#e86911;stroke-width:3px;stroke-linecap:round;stroke-miterlimit:10;stroke-opacity:1" /><path
       class="cls-4"
       d="m 40.677174,188.72849 c 0,0 7.34,-11 15.69,0"
       id="path1655"
       style="fill:none;stroke:#e86911;stroke-width:3px;stroke-linecap:round;stroke-miterlimit:10;stroke-opacity:1" /></g><g
     id="g1663"
     transform="translate(126.06516,29.429846)"><path
       class="cls-4"
       d="m 50.567174,183.62849 c 0,0 8,-11.58 17.69,0"
       id="path1659"
       style="fill:none;stroke:#e86911;stroke-width:3px;stroke-linecap:round;stroke-miterlimit:10;stroke-opacity:1" /><path
       class="cls-4"
       d="m 40.677174,188.72849 c 0,0 7.34,-11 15.69,0"
       id="path1661"
       style="fill:none;stroke:#e86911;stroke-width:3px;stroke-linecap:round;stroke-miterlimit:10;stroke-opacity:1" /></g><g
     id="g1669"
     transform="translate(148.02773,-50.513916)"><path
       class="cls-4"
       d="m 50.567174,183.62849 c 0,0 8,-11.58 17.69,0"
       id="path1665"
       style="fill:none;stroke:#e86911;stroke-width:3px;stroke-linecap:round;stroke-miterlimit:10;stroke-opacity:1" /><path
       class="cls-4"
       d="m 40.677174,188.72849 c 0,0 7.34,-11 15.69,0"
       id="path1667"
       style="fill:none;stroke:#e86911;stroke-width:3px;stroke-linecap:round;stroke-miterlimit:10;stroke-opacity:1" /></g><g
     id="g1675"
     transform="translate(209.08368,4.8317654)"><path
       class="cls-4"
       d="m 50.567174,183.62849 c 0,0 8,-11.58 17.69,0"
       id="path1671"
       style="fill:none;stroke:#e86911;stroke-width:3px;stroke-linecap:round;stroke-miterlimit:10;stroke-opacity:1" /><path
       class="cls-4"
       d="m 40.677174,188.72849 c 0,0 7.34,-11 15.69,0"
       id="path1673"
       style="fill:none;stroke:#e86911;stroke-width:3px;stroke-linecap:round;stroke-miterlimit:10;stroke-opacity:1" /></g><g
     id="g1681"
     transform="translate(62.812953,-108.05585)"><path
       class="cls-4"
       d="m 50.567174,183.62849 c 0,0 8,-11.58 17.69,0"
       id="path1677"
       style="fill:none;stroke:#e86911;stroke-width:3px;stroke-linecap:round;stroke-miterlimit:10;stroke-opacity:1" /><path
       class="cls-4"
       d="m 40.677174,188.72849 c 0,0 7.34,-11 15.69,0"
       id="path1679"
       style="fill:none;stroke:#e86911;stroke-width:3px;stroke-linecap:round;stroke-miterlimit:10;stroke-opacity:1" /></g><g
     id="g1687"
     transform="translate(35.140112,69.401727)"><path
       class="cls-4"
       d="m 50.567174,183.62849 c 0,0 8,-11.58 17.69,0"
       id="path1683"
       style="fill:none;stroke:#e86911;stroke-width:3px;stroke-linecap:round;stroke-miterlimit:10;stroke-opacity:1" /><path
       class="cls-4"
       d="m 40.677174,188.72849 c 0,0 7.34,-11 15.69,0"
       id="path1685"
       style="fill:none;stroke:#e86911;stroke-width:3px;stroke-linecap:round;stroke-miterlimit:10;stroke-opacity:1" /></g><g
     id="g1693"
     transform="translate(158.13052,-104.98109)"><path
       class="cls-4"
       d="m 50.567174,183.62849 c 0,0 8,-11.58 17.69,0"
       id="path1689"
       style="fill:none;stroke:#e86911;stroke-width:3px;stroke-linecap:round;stroke-miterlimit:10;stroke-opacity:1" /><path
       class="cls-4"
       d="m 40.677174,188.72849 c 0,0 7.34,-11 15.69,0"
       id="path1691"
       style="fill:none;stroke:#e86911;stroke-width:3px;stroke-linecap:round;stroke-miterlimit:10;stroke-opacity:1" /></g><g
     id="g1651"
     transform="translate(22.841072,-43.925144)"><path
       class="cls-4"
       d="m 50.567174,183.62849 c 0,0 8,-11.58 17.69,0"
       id="path335"
       style="fill:none;stroke:#e86911;stroke-width:3px;stroke-linecap:round;stroke-miterlimit:10;stroke-opacity:1" /><path
       class="cls-4"
       d="m 40.677174,188.72849 c 0,0 7.34,-11 15.69,0"
       id="path337"
       style="fill:none;stroke:#e86911;stroke-width:3px;stroke-linecap:round;stroke-miterlimit:10;stroke-opacity:1" /></g><path
     id="path2128"
     style="fill:#a66219;fill-opacity:1;fill-rule:evenodd;stroke:none;stroke-width:3.185"
     class="UnoptimicedTransforms"
     transform="matrix(0.53008987,0.53104995,-0.7540819,0.75544767,57.470634,335.00211)"
     d="m -79.185676,-14.585039 c 3.894571,6.2406751 1.717659,8.1587558 -2.066282,10.4758522 -4.298781,2.6323589 -11.800852,3.32989073 -17.087851,-5e-7 -5.287001,-3.3298921 -2.261981,-4.9194926 -2.261981,-11.5792737"
     sodipodi:nodetypes="casc" /><path
     id="path2130"
     style="fill:#a66219;fill-opacity:1;fill-rule:evenodd;stroke:none;stroke-width:2.85037"
     class="UnoptimicedTransforms"
     d="m 273.312,282.68884 c 2.64151,6.78271 5.67362,6.45447 9.37322,6.06015 4.24983,-0.45296 8.76653,-3.75129 9.0581,-9.07451 0.29157,-5.32322 -1.94326,-4.79155 -6.96529,-9.82267"
     sodipodi:nodetypes="casc"
     transform="translate(-0.81955601,-0.31521385)" /><path
     id="path2132"
     style="fill:#a66219;fill-opacity:1;fill-rule:evenodd;stroke:none;stroke-width:2.85037"
     class="UnoptimicedTransforms"
     d="m 283.59807,72.635061 c 7.12437,-1.492002 7.29423,-3.63735 7.64152,-7.079867 0.42693,-4.231955 -2.261,-9.263483 -7.4641,-10.425121 -5.2031,-1.161637 -5.04559,1.130159 -10.833,5.257969"
     sodipodi:nodetypes="casc" /><path
     id="path1781"
     style="fill:#a66219;fill-opacity:1;fill-rule:evenodd;stroke:none;stroke-width:2.46544"
     class="UnoptimicedTransforms"
     d="m 15.879707,72.525943 c -6.2842393,-1.265467 -7.0787113,-4.030644 -7.30779,-7.517936 -0.2408726,-3.666832 1.994373,-7.856983 6.583906,-8.842244 4.589529,-0.98526 3.014447,2.394712 9.555534,4.459636"
     sodipodi:nodetypes="casc" /><g
     id="g2565"
     clip-path="url(#clipPath2569)"><path
       id="path3475"
       style="fill:#af6f20;fill-opacity:1;fill-rule:evenodd;stroke:#864912;stroke-width:3.185;stroke-dasharray:none;stroke-opacity:1"
       class="UnoptimicedTransforms"
       d="m -243.58634,-20.252523 c 0,6.659769 3.25692,12.8137337 8.5439,16.1436181 5.287,3.32988451 11.80083,3.32988417 17.08781,0 5.287,-3.3298844 8.54391,-9.4838481 8.54391,-16.1436181 z m 34.17562,0 c 0,6.659769 3.25692,12.8137337 8.5439,16.1436181 5.287,3.32988451 11.80082,3.32988417 17.08782,0 5.28698,-3.3298844 8.5439,-9.4838481 8.5439,-16.1436181 z m 34.17562,0 c 0,6.659775 3.25691,12.8137304 8.54391,16.1436181 5.28699,3.32988789 11.80081,3.32988755 17.08781,0 5.28699,-3.3298877 8.5439,-9.4838421 8.5439,-16.1436181 z m 34.17562,0 c 0,6.659769 3.25691,12.8137337 8.54391,16.1436181 5.28698,3.32988451 11.80081,3.32988417 17.08781,0 5.28698,-3.3298844 8.5439,-9.4838481 8.5439,-16.1436181 z m 34.17562,0 c 0,6.659769 3.25692,12.8137337 8.543908,16.1436181 5.286989,3.32988451 11.800821,3.32988417 17.087811,0 5.286987,-3.3298844 8.543905,-9.4838481 8.543905,-16.1436181 z"
       transform="matrix(0,1.1304202,-1.3167936,0,-0.03753286,351.27289)" /><path
       id="path3481"
       style="fill:#af6f20;fill-opacity:1;fill-rule:evenodd;stroke:#864912;stroke-width:3.185;stroke-dasharray:none;stroke-opacity:1"
       class="UnoptimicedTransforms"
       d="m -243.58634,-20.25252 h 34.17562 c 0,6.659775 -3.25691,12.8137296 -8.54391,16.1436172 -5.28699,3.32988763 -11.80081,3.32988797 -17.08781,0 -5.28699,-3.3298876 -8.5439,-9.4838432 -8.5439,-16.1436172 z m 34.17562,0 h 34.17562 c 0,6.659775 -3.25691,12.8137296 -8.5439,16.1436172 -5.287,3.32988763 -11.80082,3.32988797 -17.08782,0 -5.28699,-3.3298876 -8.5439,-9.4838432 -8.5439,-16.1436172 z m 34.17562,0 h 34.17562 c 0,6.659775 -3.25691,12.8137296 -8.5439,16.1436172 -5.287,3.32988763 -11.80082,3.32988797 -17.08781,0 -5.287,-3.3298876 -8.54391,-9.4838432 -8.54391,-16.1436172 z m 34.17562,0 h 34.17562 c 0,6.659775 -3.25691,12.8137296 -8.5439,16.1436172 -5.287,3.32988763 -11.80082,3.32988797 -17.08781,0 -5.287,-3.3298876 -8.54391,-9.4838432 -8.54391,-16.1436172 z m 34.17562,0 h 34.175624 c 0,6.659775 -3.256912,12.8137296 -8.543905,16.1436172 -5.286995,3.32988763 -11.800817,3.32988797 -17.087811,0 -5.286998,-3.3298876 -8.543908,-9.4838432 -8.543908,-16.1436172 z"
       transform="matrix(0,1.1304202,1.3167936,0,300.03753,351.27289)" /><path
       id="path2134"
       style="fill:#a66219;fill-opacity:1;fill-rule:evenodd;stroke:none;stroke-width:3.185;stroke-dasharray:none;stroke-opacity:1"
       class="UnoptimicedTransforms"
       d="m -243.58634,-20.252523 c 0,6.659763 3.72327,11.6906049 8.5439,16.144332 4.97672,4.59793905 11.68453,3.80521607 17.08781,0 5.1742,-3.6438925 8.54391,-9.484568 8.54391,-16.144332 z m 34.17562,0 c 0,6.659763 3.60333,11.9415923 8.5439,16.144332 5.287,4.49743554 11.80082,3.94857353 17.08782,0 5.10748,-3.8145035 8.5439,-9.484568 8.5439,-16.144332 z m 34.17562,0 c 0,6.659769 3.83847,11.4675073 8.54391,16.144332 4.98822,4.95788083 11.66746,4.05655108 17.08781,0 5.10505,-3.8205791 8.5439,-9.484562 8.5439,-16.144332 z m 34.17562,0 c 0,6.659763 3.49605,12.1851927 8.54391,16.144332 5.20783,4.0846049 11.73137,3.99207808 17.08781,0 5.10995,-3.8083715 8.5439,-9.484568 8.5439,-16.144332 z m 34.17562,0 c 0,6.659763 3.74652,11.6442595 8.543908,16.144332 5.108156,4.79157659 11.685151,4.27537372 17.087811,0 5.036574,-3.9856735 8.543905,-9.484568 8.543905,-16.144332 z M -243.58634,-317.60103 h 34.17562 c 0,-6.22548 -3.68958,-10.86702 -8.54391,-15.08985 -5.28698,-4.5992 -11.80081,-6.70064 -17.08781,0 -4.2169,5.34442 -8.5439,8.86437 -8.5439,15.08985 z m 34.17562,0 h 34.17562 c 0,-6.22548 -4.39841,-9.64274 -8.5439,-15.08985 -5.45222,-7.16414 -11.93222,-6.33488 -17.08782,0 -4.2769,5.25519 -8.5439,8.86437 -8.5439,15.08985 z m 34.17562,0 h 34.17562 c 0,-6.22548 -3.84935,-10.54416 -8.5439,-15.08985 -5.35619,-5.18635 -11.88021,-5.49191 -17.08781,0 -4.5544,4.80305 -8.54391,8.86437 -8.54391,15.08985 z m 34.17562,0 h 34.17562 c 0,-6.22548 -4.38441,-9.66258 -8.5439,-15.08985 -5.287,-6.89845 -11.80083,-8.76913 -17.08781,0 -3.65561,6.0633 -8.54391,8.86437 -8.54391,15.08985 z m 34.17562,0 h 34.175624 c 0,-6.22548 -4.296458,-9.7905 -8.543905,-15.08985 -5.344996,-6.66871 -11.890097,-8.58555 -17.087811,0 -3.664618,6.05319 -8.543908,8.86437 -8.543908,15.08985 z"
       transform="matrix(0,1.1304202,-0.82979492,0,9.825419,351.27289)"
       sodipodi:nodetypes="csscccsscccsscccsscccssccccsscccsscccsscccsscccssc" /></g><path
     id="path424"
     style="color:#000000;fill:#3d3d3d;fill-opacity:0.38235295;stroke-linejoin:round;-inkscape-stroke:none"
     d="M 17.105824 312.33347 L 17.105824 319.91977 A 36.405887 22.14754 0 0 0 20.205434 321.80649 L 20.205434 313.48216 A 36.405887 13.486284 0 0 1 17.105824 312.33347 z M 300.20543 312.33347 A 36.405887 13.486284 0 0 1 297.10582 313.4807 L 297.10582 321.97455 A 36.405887 22.14754 0 0 0 300.20543 319.97239 L 300.20543 312.33347 z M 37.105824 316.85515 L 37.105824 327.34678 A 36.405887 22.14754 0 0 0 40.205434 327.55869 L 40.205434 316.98522 A 36.405887 13.486284 0 0 1 37.105824 316.85515 z M 280.20543 316.85515 A 36.405887 13.486284 0 0 1 277.10582 316.98522 L 277.10582 327.6756 A 36.405887 22.14754 0 0 0 280.20543 327.34532 L 280.20543 316.85515 z M 57.105824 317.18397 L 57.105824 327.88459 L 60.205434 327.88459 L 60.205434 317.18397 L 57.105824 317.18397 z M 77.105824 317.18397 L 77.105824 327.88459 L 80.205434 327.88459 L 80.205434 317.18397 L 77.105824 317.18397 z M 97.105824 317.18397 L 97.105824 327.88459 L 100.20543 327.88459 L 100.20543 317.18397 L 97.105824 317.18397 z M 117.10582 317.18397 L 117.10582 327.88459 L 120.20543 327.88459 L 120.20543 317.18397 L 117.10582 317.18397 z M 137.10582 317.18397 L 137.10582 327.88459 L 140.20543 327.88459 L 140.20543 317.18397 L 137.10582 317.18397 z M 157.10582 317.18397 L 157.10582 327.88459 L 160.20543 327.88459 L 160.20543 317.18397 L 157.10582 317.18397 z M 177.10582 317.18397 L 177.10582 327.88459 L 180.20543 327.88459 L 180.20543 317.18397 L 177.10582 317.18397 z M 197.10582 317.18397 L 197.10582 327.88459 L 200.20543 327.88459 L 200.20543 317.18397 L 197.10582 317.18397 z M 217.10582 317.18397 L 217.10582 327.88459 L 220.20543 327.88459 L 220.20543 317.18397 L 217.10582 317.18397 z M 237.10582 317.18397 L 237.10582 327.88459 L 240.20543 327.88459 L 240.20543 317.18397 L 237.10582 317.18397 z M 257.10582 317.18397 L 257.10582 327.88459 L 260.20543 327.88459 L 260.20543 317.18397 L 257.10582 317.18397 z "
     transform="matrix(1,0,0,1.3364446,-8.6546525,-111.50818)" /></svg>
