<?xml version="1.0" encoding="UTF-8" standalone="no"?>
<svg
   id="Layer_1"
   data-name="Layer 1"
   viewBox="0 0 300 345"
   version="1.1"
   sodipodi:docname="pumpkinPuppy.svg"
   xml:space="preserve"
   inkscape:version="1.2 (dc2aedaf03, 2022-05-15)"
   xmlns:inkscape="http://www.inkscape.org/namespaces/inkscape"
   xmlns:sodipodi="http://sodipodi.sourceforge.net/DTD/sodipodi-0.dtd"
   xmlns="http://www.w3.org/2000/svg"
   xmlns:svg="http://www.w3.org/2000/svg"><sodipodi:namedview
     id="namedview250"
     pagecolor="#505050"
     bordercolor="#ffffff"
     borderopacity="1"
     inkscape:showpageshadow="0"
     inkscape:pageopacity="0"
     inkscape:pagecheckerboard="1"
     inkscape:deskcolor="#505050"
     showgrid="false"
     showguides="true"
     inkscape:zoom="1.2183786"
     inkscape:cx="-2.0519074"
     inkscape:cy="185.49242"
     inkscape:window-width="1366"
     inkscape:window-height="705"
     inkscape:window-x="-8"
     inkscape:window-y="-8"
     inkscape:window-maximized="1"
     inkscape:current-layer="Layer_1" /><defs
     id="defs27"><style
       id="style2">
      .cls-1 {
        fill: #f9ea95;
      }

      .cls-2 {
        fill: url(#linear-gradient-2);
      }

      .cls-3 {
        fill: #29a340;
      }

      .cls-4 {
        fill: #fff;
      }

      .cls-5 {
        fill: #feca0e;
      }

      .cls-6 {
        fill: #dd7017;
      }

      .cls-7 {
        fill: #f9b723;
      }

      .cls-8 {
        fill: #fac0a5;
      }

      .cls-9 {
        fill: none;
        stroke: #0a773d;
        stroke-linecap: round;
        stroke-miterlimit: 10;
        stroke-width: 5.40132px;
      }

      .cls-10 {
        fill: url(#linear-gradient-6);
      }

      .cls-11 {
        fill: #454866;
      }

      .cls-12 {
        fill: #aa4417;
        isolation: isolate;
        opacity: .68;
      }

      .cls-13 {
        fill: #084c25;
      }

      .cls-14 {
        fill: #222438;
      }

      .cls-15 {
        fill: #1c9132;
      }

      .cls-16 {
        opacity: .22;
      }

      .cls-16, .cls-17 {
        fill: #0a753a;
      }

      .cls-18 {
        fill: #17a34a;
      }

      .cls-19 {
        fill: #8dc73c;
      }

      .cls-20 {
        fill: #2d2f4a;
      }

      .cls-21 {
        fill: #efab8f;
      }

      .cls-22 {
        fill: #1d1f35;
      }

      .cls-23 {
        fill: #c96e5f;
      }

      .cls-24 {
        fill: url(#linear-gradient-5);
      }

      .cls-25 {
        fill: #3d415b;
      }

      .cls-26 {
        fill: #030305;
      }

      .cls-27 {
        fill: #3b3e5b;
      }

      .cls-28 {
        fill: url(#linear-gradient-7);
      }

      .cls-29 {
        fill: url(#linear-gradient-9);
      }

      .cls-30 {
        fill: #b2360b;
      }

      .cls-31 {
        fill: url(#linear-gradient-3);
      }

      .cls-32 {
        fill: url(#linear-gradient);
      }

      .cls-33 {
        fill: #f79d26;
      }

      .cls-34 {
        fill: #c9460d;
      }

      .cls-35 {
        fill: #bf741b;
      }

      .cls-36 {
        fill: url(#linear-gradient-4);
      }

      .cls-37 {
        fill: #d85e0b;
      }

      .cls-38 {
        fill: #e88e7c;
      }

      .cls-39 {
        fill: #f4a42f;
      }

      .cls-40 {
        fill: url(#linear-gradient-8);
      }

      .cls-41 {
        fill: #2eaf4a;
      }

      .cls-42 {
        fill: #0a773d;
      }

      .cls-43 {
        fill: #414042;
      }
    </style><inkscape:path-effect
       effect="mirror_symmetry"
       start_point="149.61791,248.23889"
       end_point="149.61791,282.57673"
       center_point="149.61791,265.40781"
       id="path-effect37428"
       is_visible="true"
       lpeversion="1.2"
       lpesatellites=""
       mode="vertical"
       discard_orig_path="false"
       fuse_paths="false"
       oposite_fuse="false"
       split_items="false"
       split_open="false"
       link_styles="false" /><inkscape:path-effect
       effect="bspline"
       id="path-effect36202"
       is_visible="true"
       lpeversion="1"
       weight="33.333333"
       steps="2"
       helper_size="0"
       apply_no_weight="true"
       apply_with_weight="true"
       only_selected="false" /><inkscape:path-effect
       effect="bspline"
       id="path-effect36208"
       is_visible="true"
       lpeversion="1"
       weight="33.333333"
       steps="2"
       helper_size="0"
       apply_no_weight="true"
       apply_with_weight="true"
       only_selected="false" /></defs><path
     id="path29"
     style="fill:#d85e0b;fill-opacity:1"
     class="cls-22"
     d="M 150 163.44922 C 110.49638 163.44922 70.993505 171.13606 36.380859 186.50977 C 19.850727 193.85187 5.52833 210.46616 0 226.76953 L 0 304.73047 L 0 304.75977 C 0 317.26922 5.1552632 328.43656 13.240234 335.81445 C 15.03731 337.45436 16.978719 338.90797 19.041016 340.14648 C 24.195783 343.2431 30.102741 345 36.380859 345 L 263.61914 345 C 269.89726 345 275.80422 343.2431 280.95898 340.14648 C 283.02128 338.90797 284.96269 337.45436 286.75977 335.81445 C 294.84474 328.43656 300 317.26922 300 304.75977 L 300 304.73047 L 300 226.76953 C 294.47167 210.46616 280.14927 193.85187 263.61914 186.50977 C 229.0065 171.13606 189.50362 163.44922 150 163.44922 z " /><path
     id="path4111"
     style="opacity:1;fill:#e78321;fill-opacity:1;stroke:none;stroke-width:7.05;stroke-linejoin:round;stroke-dasharray:none;stroke-opacity:1;stop-color:#000000"
     d="M 220.11719,171.79102 24.886719,193.32812 C 13.449789,201.87005 4.1929726,214.40421 0,226.76953 v 4.71875 c 22.063655,-3.87559 19.557618,17.64027 25.356155,30.21264 0.731777,1.58663 5.02482,-7.46985 6.713444,-6.88876 19.530017,15.15472 40.344097,24.07771 67.640094,12.8281 29.007147,-6.72211 60.150517,-9.59904 96.153097,-3.72937 1.56448,0.25507 4.30433,6.3576 5.88738,6.6461 25.3983,4.40905 49.57399,3.92767 68.80647,-16.32652 5.47748,-11.07101 9.00341,-24.67904 29.44336,-16.29883 v -11.16211 c -5.52832,-16.30335 -19.85075,-32.91767 -36.38086,-40.25976 -13.8219,-6.1392 -28.43177,-11.03113 -43.50195,-14.71875 z"
     sodipodi:nodetypes="ccccsccsccccsc" /><path
     id="rect3836"
     style="fill:#bc3403;fill-opacity:1;stroke-width:1.03209"
     class="cls-11"
     d="M 150 163.44922 C 110.49642 163.44922 70.993471 171.13607 36.380859 186.50977 C 25.902141 191.16404 16.331249 199.55361 9.3046875 209.21875 C 12.355091 234.38003 73.935035 254.33203 150 254.33203 C 226.06497 254.33203 287.64491 234.38003 290.69531 209.21875 C 283.66875 199.55361 274.09786 191.16404 263.61914 186.50977 C 229.00654 171.13607 189.50358 163.44922 150 163.44922 z " /><rect
     class="cls-11"
     x="17.804855"
     y="162.97583"
     width="264.39029"
     height="85.014854"
     rx="132.19514"
     ry="42.507427"
     id="rect35"
     style="fill:#ffb740;fill-opacity:1;stroke-width:0.95022" /><rect
     class="cls-11"
     x="58.307663"
     y="175.99953"
     width="183.38467"
     height="58.967449"
     rx="91.692337"
     ry="29.483725"
     id="rect21882"
     style="fill:#c23e07;fill-opacity:1;stroke-width:0.659086" /><rect
     class="cls-11"
     x="66.4328"
     y="178.61217"
     width="167.1344"
     height="53.742165"
     rx="83.5672"
     ry="26.871082"
     id="rect16278"
     style="fill:#631b02;fill-opacity:1;stroke-width:0.600682" /><g
     class="UnoptimicedTransforms"
     id="g9660"
     transform="matrix(-1,0,0,1,300,0)"><path
       id="path9652"
       d="M 108.85385,103.87767 C 96.775492,91.307617 81.488558,84.619956 62.065984,85.514298 c -5.099217,0.234802 -8.978329,5.081303 -8.694928,10.180578 0.962439,17.317334 3.29046,35.036304 27.491803,59.188604 z"
       style="opacity:1;fill:#e39930;fill-opacity:1;stroke:none;stroke-width:7.05;stroke-linejoin:round;stroke-dasharray:none;stroke-opacity:1;stop-color:#000000" /><path
       id="path9654"
       d="m 98.662611,110.55203 c -7.100846,-6.93958 -16.088009,-10.63165 -27.506506,-10.13791 -2.997822,0.12963 -5.278345,2.80525 -5.111734,5.62042 0.565817,9.56041 1.934456,19.34256 16.162384,32.67636 z"
       style="opacity:1;fill:#e3d8c6;fill-opacity:1;stroke:none;stroke-width:4.01641;stroke-linejoin:round;stroke-dasharray:none;stroke-opacity:1;stop-color:#000000" /><path
       id="path9656"
       d="m 102.07919,107.9911 c -5.005313,-4.89164 -22.776353,-9.365498 -27.775179,-1.55535 -5.365629,8.38323 12.77709,25.19841 14.001436,26.37379 z"
       style="opacity:1;fill:#ebb480;fill-opacity:1;stroke:none;stroke-width:2.83112;stroke-linejoin:round;stroke-dasharray:none;stroke-opacity:1;stop-color:#000000" /><path
       id="path9658"
       d="m 60.257812,98.962891 c 0,0 17.283443,1.458149 24.631143,5.564489 3.48165,1.94576 4.595328,5.51475 8.361585,8.5589 l 12.40427,-3.34997 C 101.3132,106.22713 92.627875,102.19609 85.42053,100.39655 77.269581,98.361413 60.257812,98.962891 60.257812,98.962891 Z"
       style="color:#000000;fill:#b96e17;stroke-linejoin:round" /></g><path
     id="path4988"
     style="opacity:1;fill:#e57e1f;fill-opacity:1;stroke:none;stroke-width:7.05;stroke-linejoin:round;stroke-dasharray:none;stroke-opacity:1;stop-color:#000000"
     d="m 18.039508,235.74687 c -3.402921,28.01503 0.337815,45.31458 6.841351,58.46993 l 6.841797,-46.0293 z m 250.052292,11.19649 -18.03907,2.48828 c 11.70771,9.01049 21.507,29.07596 21.77056,47.89571 z M 88.949374,258.76069 c -8.712742,14.51401 -2.736105,29.02803 3.10922,43.54204 l 10.574216,-39.1875 z m 108.853356,0.001 -15.54956,-0.62286 c 13.33784,11.38127 17.95374,25.25516 21.77008,39.81026 z"
     sodipodi:nodetypes="cccccccccccccccc" /><path
     id="path4518"
     style="fill:#c53f00;fill-opacity:1"
     class="cls-22"
     d="m -0.02148438,262.48242 c -0.04963174,15.63809 -0.08185443,31.27489 0.25976563,46.90039 C 1.5988493,329.07091 19.337979,346.99222 39.677734,345 115.10321,344.9458 190.53197,345.10801 265.95508,344.918 287.27427,343.64061 301.79866,321.68255 300,301.43362 v -38.9414 c -3.02141,7.65635 -1.59169,25.31439 -5.46805,31.77539 -1.04947,18.87572 -20.41028,39.48582 -41.05734,37.9043 -19.67988,-0.0161 -40.37213,-6.2371 -59.04054,-0.007 -45.13964,15.06418 -65.40119,7.62596 -88.20935,0.0188 -20.401561,-6.80449 -43.012408,-0.0356 -64.517689,-0.0973 C 20.247679,329.93163 3.9683986,307.49447 5.2473445,287.84588 0.6546058,281.60915 1.488993,264.46526 -0.02148438,262.48242 Z"
     sodipodi:nodetypes="ccccccccssccc" /><path
     id="path2862"
     style="color:#000000;opacity:0.871257;fill:#bc3403;stroke-width:0.98024;stroke-linejoin:round;-inkscape-stroke:none"
     class="UnoptimicedTransforms"
     d="M 39.679688 230.44531 C 39.679688 230.44531 33.114361 237.51816 29.808594 247.95703 C 26.502826 258.39591 23.094365 270.89178 22.927734 280.24609 C 22.723718 291.69911 26.38573 307.37228 30.027344 320.46484 C 33.668957 333.55742 40.697266 342.87109 40.697266 342.87109 C 21.641005 294.53389 29.674153 262.03005 39.679688 230.44531 z M 260.32031 230.44531 C 270.32585 262.03005 278.359 294.53389 259.30273 342.87109 C 259.30273 342.87109 266.33104 333.55742 269.97266 320.46484 C 273.61427 307.37228 277.27628 291.69911 277.07227 280.24609 C 276.90563 270.89178 273.49717 258.39591 270.19141 247.95703 C 266.88564 237.51816 260.32031 230.44531 260.32031 230.44531 z " /><path
     id="path3826"
     style="color:#000000;opacity:1;fill:#bc3403;stroke-width:0.98024;stroke-linejoin:round;-inkscape-stroke:none"
     class="UnoptimicedTransforms"
     d="M 39.678733 230.44485 C 39.678733 230.44485 33.11536 237.51824 29.809593 247.95711 C 26.503825 258.39599 23.095364 270.89043 22.928733 280.24474 C 22.724716 291.69776 26.386729 307.37297 30.028343 320.46553 C 33.669956 333.55811 40.696311 342.8705 40.696311 342.8705 C 21.64005 294.5333 29.673198 262.02959 39.678733 230.44485 z M 121.95217 230.44485 C 131.95771 262.02959 139.99085 294.5333 120.93459 342.8705 C 120.93459 342.8705 127.96095 333.55811 131.60256 320.46553 C 135.24417 307.37297 138.90619 291.69776 138.70217 280.24474 C 138.53554 270.89043 135.12708 258.39599 131.82131 247.95711 C 128.51554 237.51824 121.95217 230.44485 121.95217 230.44485 z "
     transform="matrix(1,0,0,0.82353038,69.184548,56.436506)" /><g
     id="g9670"><path
       style="fill:#e39930;fill-opacity:1;stroke:none;stroke-width:7.05;stroke-linejoin:round;stroke-dasharray:none;stroke-opacity:1;stop-color:#000000"
       d="M 108.85385,103.87767 C 96.775492,91.307617 81.488558,84.619956 62.065984,85.514298 c -5.099217,0.234802 -8.978329,5.081303 -8.694928,10.180578 0.962439,17.317334 3.29046,35.036304 27.491803,59.188604 z"
       id="path7258"
       sodipodi:nodetypes="cccc" /><path
       style="fill:#e3d8c6;fill-opacity:1;stroke:none;stroke-width:4.01641;stroke-linejoin:round;stroke-dasharray:none;stroke-opacity:1;stop-color:#000000"
       d="m 98.662611,110.55203 c -7.100846,-6.93958 -16.088009,-10.63165 -27.506506,-10.13791 -2.997822,0.12963 -5.278345,2.80525 -5.111734,5.62042 0.565817,9.56041 1.934456,19.34256 16.162384,32.67636 z"
       id="path7262"
       sodipodi:nodetypes="cccc" /><path
       style="fill:#ebb480;fill-opacity:1;stroke:none;stroke-width:2.83112;stroke-linejoin:round;stroke-dasharray:none;stroke-opacity:1;stop-color:#000000"
       d="m 102.07919,107.9911 c -5.005313,-4.89164 -22.776353,-9.365498 -27.775179,-1.55535 -5.365629,8.38323 12.77709,25.19841 14.001436,26.37379 z"
       id="path9592"
       sodipodi:nodetypes="cacc" /><path
       style="color:#000000;fill:#b96e17;stroke-linejoin:round"
       d="m 60.257812,98.962891 c 0,0 17.283443,1.458149 24.631143,5.564489 3.48165,1.94576 4.595328,5.51475 8.361585,8.5589 l 12.40427,-3.34997 C 101.3132,106.22713 92.627875,102.19609 85.42053,100.39655 77.269581,98.361413 60.257812,98.962891 60.257812,98.962891 Z"
       id="path8569"
       sodipodi:nodetypes="caccac" /></g><path
     id="path5438"
     style="opacity:1;fill:#e39930;fill-opacity:1;stroke:none;stroke-width:7.05;stroke-linejoin:round;stroke-dasharray:none;stroke-opacity:1;stop-color:#000000"
     class="UnoptimicedTransforms"
     d="m 150,80.863281 c -23.59097,0 -47.35869,15.327252 -62.294922,33.587889 -12.646897,15.46176 -17.416016,57.33985 -17.416016,57.33985 0,0 -13.576737,9.58146 -13.0625,17.92578 1.291115,20.95037 34.282671,28.45826 34.878907,24.88086 12.107311,20.89074 36.807081,25.50195 57.894531,25.50195 21.08745,0 45.78722,-4.61121 57.89453,-25.50195 0.59624,3.5774 33.58779,-3.93049 34.87891,-24.88086 0.51423,-8.34432 -13.0625,-17.92578 -13.0625,-17.92578 0,0 -4.76912,-41.87809 -17.41602,-57.33985 C 197.35869,96.190533 173.59097,80.863281 150,80.863281 Z"
     sodipodi:nodetypes="ascscacscsa" /><path
     id="path6201"
     style="opacity:1;fill:#ebe4d7;fill-opacity:1;stroke:none;stroke-width:7.05;stroke-linejoin:round;stroke-dasharray:none;stroke-opacity:1;stop-color:#000000"
     d="m 149.80273,170.24023 c -16.79516,0.78909 -28.2219,12.31773 -43.99428,16.4147 -7.441968,2.38675 -13.964353,-2.28007 -17.210147,-8.00041 -3.489004,-6.44668 -11.33472,-9.76861 -18.291662,-6.98655 -5.932956,5.09743 -14.23445,11.28706 -12.797013,20.19785 2.595888,12.9678 15.798419,20.26141 27.711057,23.01723 5.443994,2.79364 8.448967,4.83403 12.480469,7.31836 13.593086,14.7127 34.847466,18.13107 53.965396,17.87706 18.35942,-0.15807 38.59024,-4.13312 51.21748,-18.58618 3.08608,-5.08421 5.48728,-3.65357 11.64849,-6.56563 12.30221,-2.75429 26.00171,-10.4921 28.12555,-24.04838 0.53239,-8.45236 -7.05336,-14.29805 -12.94711,-19.08716 -4.43045,-4.14229 -14.55535,2.03616 -18.2036,7.10609 -3.45292,4.95591 -8.77779,9.99891 -15.39286,7.76589 -15.98148,-3.7968 -29.36185,-16.19286 -46.31177,-16.42287 z"
     sodipodi:nodetypes="ccccccccccccccc" /><path
     id="path15718"
     style="opacity:1;fill:#decdb1;fill-opacity:1;stroke:none;stroke-width:4.30262;stroke-linejoin:round;stroke-dasharray:none;stroke-opacity:1;stop-color:#000000"
     d="M 156.21094 212.88477 C 155.58651 212.9019 154.67261 213.10603 153.23438 213.54883 C 148.68599 214.94919 137.81025 220.98321 133.20117 218.93555 C 133.20117 218.93555 129.78936 232.18956 132.41406 238.83594 C 138.32706 239.74203 144.29491 240.09961 150 240.09961 C 153.6475 240.09961 157.40575 239.94959 161.18555 239.61328 C 164.19029 234.88683 164.73303 227.36917 160.39258 216.33203 C 157.35629 214.46022 158.08423 212.83335 156.21094 212.88477 z " /><path
     style="opacity:1;fill:#fa6dff;fill-opacity:1;stroke:none;stroke-width:4.36322;stroke-linejoin:round;stroke-dasharray:none;stroke-opacity:1;stop-color:#000000"
     d="m 157.79824,214.30623 c 12.53815,32.78707 -15.6557,35.39716 -26.30988,25.74343 -5.42737,-4.91773 -0.88101,-23.06445 -0.88101,-23.06445 4.60908,2.10576 15.48469,-4.10042 20.03308,-5.54051 5.75293,-1.82146 3.10942,0.29498 7.15781,2.86153 z"
     id="path12976"
     sodipodi:nodetypes="cscsc" /><path
     id="path13386"
     style="opacity:1;fill:#f550c3;fill-opacity:1;stroke:none;stroke-width:3.85;stroke-linejoin:round;stroke-dasharray:none;stroke-opacity:1;stop-color:#000000"
     d="m 153.61719,210.76172 c -0.62443,0.0176 -1.53833,0.22823 -2.97657,0.68359 -4.54838,1.44009 -15.42412,7.64482 -20.0332,5.53907 0,0 -0.45954,1.84272 -0.91211,4.5039 5.70152,3.4144 11.59614,4.12541 17.92383,-1.22656 3.0002,1.64998 6.39706,2.50666 11.88281,-0.81445 -0.45316,-1.62564 -1.0126,-3.33492 -1.70312,-5.14063 -3.03629,-1.92491 -2.30835,-3.59779 -4.18164,-3.54492 z"
     sodipodi:nodetypes="sscccccs" /><g
     id="g9811"
     transform="translate(0,-2)"><circle
       cx="105.32738"
       cy="164.48511"
       r="21.538143"
       id="circle70730"
       style="fill:#b5621a;fill-opacity:1;stroke-width:0.590895" /><circle
       cx="105.32738"
       cy="168.91869"
       r="21.538143"
       id="circle64330"
       style="fill:#ffffff;fill-opacity:1;stroke-width:0.590895" /><path
       transform="matrix(-0.57500219,0,0,0.57500219,245.94472,39.94597)"
       id="path1890"
       d="m 208.74439,218.85942 a 31.330471,31.330471 0 1 0 31.33047,-31.33048 32.578871,32.578871 0 0 0 -4.38035,0.30662 18.058003,18.058003 0 0 1 -26.22737,24.47522 31.483783,31.483783 0 0 0 -0.72275,6.54864 z m 37.03587,12.9987 a 7.45755,7.45755 0 1 1 7.44661,7.45755 7.4356482,7.4356482 0 0 1 -7.44661,-7.45755 z"
       style="fill:#2b292f;fill-opacity:1;stroke-width:1.09509"
       class="UnoptimicedTransforms" /></g><g
     transform="matrix(-0.55419644,0,0,0.55419644,225.38618,44.495529)"
     class="UnoptimicedTransforms"
     id="g6786"><path
       id="path6780"
       d="M 94.283733,212.9021 A 38.863735,38.863735 0 0 1 55.419998,251.76583 38.863735,38.863735 0 0 1 16.556263,212.9021 38.863735,38.863735 0 0 1 55.419998,174.03836 38.863735,38.863735 0 0 1 94.283733,212.9021 Z"
       style="fill:#b5621a;fill-opacity:1;stroke-width:1.06622" /><path
       id="path6782"
       d="M 94.283733,220.9021 A 38.863735,38.863735 0 0 1 55.419998,259.76583 38.863735,38.863735 0 0 1 16.556263,220.9021 38.863735,38.863735 0 0 1 55.419998,182.03836 38.863735,38.863735 0 0 1 94.283733,220.9021 Z"
       style="fill:#ffffff;fill-opacity:1;stroke-width:1.06622" /><path
       transform="matrix(1.0375422,0,0,1.0375422,-189.02367,-11.818119)"
       class="UnoptimicedTransforms"
       id="path6784"
       d="m 208.74439,218.85942 a 31.330471,31.330471 0 1 0 31.33047,-31.33048 32.578871,32.578871 0 0 0 -4.38035,0.30662 18.058003,18.058003 0 0 1 -26.22737,24.47522 31.483783,31.483783 0 0 0 -0.72275,6.54864 z m 37.03587,12.9987 a 7.45755,7.45755 0 1 1 7.44661,7.45755 7.4356482,7.4356482 0 0 1 -7.44661,-7.45755 z"
       style="fill:#2b292f;fill-opacity:1;stroke-width:1.09509" /></g><path
     id="path9798"
     style="opacity:1;fill:#ebe4d7;fill-opacity:1;stroke:none;stroke-width:3.08506;stroke-linejoin:round;stroke-dasharray:none;stroke-opacity:1;stop-color:#000000"
     class="UnoptimicedTransforms"
     d="M 110.42969 120.91016 C 108.5094 120.93058 106.68124 121.15132 105.23047 121.54102 C 101.10421 122.64938 94.774577 127.30261 96.878906 130.86328 C 101.11524 138.03148 121.77225 135.08069 122.42969 126.87695 C 122.77415 122.57862 116.19055 120.84889 110.42969 120.91016 z M 189.57031 120.91016 C 183.80945 120.84889 177.22585 122.57862 177.57031 126.87695 C 178.22775 135.08069 198.88476 138.03148 203.12109 130.86328 C 205.22542 127.30261 198.89579 122.64938 194.76953 121.54102 C 193.31876 121.15132 191.4906 120.93058 189.57031 120.91016 z " /><path
     id="path21739"
     style="fill:#a6540e;fill-opacity:0.38870433;fill-rule:evenodd;stroke-width:1.18218"
     d="M 150 80.863281 C 129.321 80.863281 108.50837 92.64134 93.625 107.84766 C 99.719221 123.3506 122.63882 129.79297 150 129.79297 C 177.36118 129.79297 200.28078 123.3506 206.375 107.84766 C 191.49163 92.64134 170.679 80.863281 150 80.863281 z " /><path
     style="color:#000000;fill:#f550c3;stroke-linejoin:round;-inkscape-stroke:none"
     d="m 145.94731,215.04687 c -6.70608,6.4883 -1.8272,19.71094 -1.8272,19.71094 0,0 0.82354,-11.28588 6.67091,-16.94336 z"
     id="path14714"
     sodipodi:nodetypes="cccc" /><g
     id="g37426"
     inkscape:path-effect="#path-effect37428"
     class="UnoptimicedTransforms"
     transform="matrix(0.73080989,0,0,0.63738348,39.525833,36.34465)"><path
       style="opacity:1;fill:none;fill-opacity:1;stroke:#272727;stroke-width:6.415;stroke-linecap:round;stroke-dasharray:none;stroke-opacity:1;stop-color:#000000;stop-opacity:1"
       d="m 149.53377,248.23889 c 0.0288,5.76908 0.0577,11.5374 0.0804,16.11792 0.0227,4.58051 0.0393,7.97345 -3.05771,11.3791 -3.09704,3.40565 -9.3035,6.82171 -14.96783,6.84074 -5.66433,0.019 -10.7805,-3.36019 -13.87002,-7.25295 -3.08951,-3.89276 -4.14832,-8.29664 -5.2072,-12.70082 m 40.28835,-14.38399 c -0.0288,5.76908 -0.0577,11.5374 -0.0804,16.11792 -0.0227,4.58051 -0.0393,7.97345 3.05771,11.3791 3.09704,3.40565 9.3035,6.82171 14.96783,6.84074 5.66433,0.019 10.7805,-3.36019 13.87002,-7.25295 3.08951,-3.89276 4.14832,-8.29664 5.2072,-12.70082"
       id="path36200"
       inkscape:path-effect="#path-effect36202"
       inkscape:original-d="m 149.53377,248.23889 c 0.0298,5.76908 0.0581,11.5374 0.0865,17.30535 0.0167,3.39308 0.0342,6.78602 0.0498,10.17894 -6.21001,3.41957 -12.41648,6.83563 -18.6279,10.25287 -5.11805,-3.38012 -10.23422,-6.75935 -15.35435,-10.14153 -1.05802,-4.40375 -2.11683,-8.80763 -3.17643,-13.21164"
       sodipodi:nodetypes="cccccc" /><path
       style="opacity:1;fill:none;fill-opacity:1;stroke:#272727;stroke-width:4.004;stroke-linecap:round;stroke-dasharray:none;stroke-opacity:1;stop-color:#000000;stop-opacity:1"
       d="m 102.8829,268.6609 c 2.58793,-3.31634 5.17547,-6.63218 8.30327,-7.90247 3.12781,-1.2703 6.79497,-0.49359 10.46229,0.28315 m 77.80217,7.61932 c -2.58793,-3.31634 -5.17547,-6.63218 -8.30327,-7.90247 -3.12781,-1.2703 -6.79497,-0.49359 -10.46229,0.28315"
       id="path36204"
       inkscape:path-effect="#path-effect36208"
       inkscape:original-d="m 102.8829,268.6609 c 2.58726,-3.31687 5.1748,-6.6327 7.76411,-9.94943 3.667,0.77651 7.33416,1.55321 11.00145,2.33011"
       sodipodi:nodetypes="ccc" /></g><path
     id="rect10451"
     style="opacity:1;fill:#272727;stroke-width:3.51919;stroke-linejoin:round;stop-color:#000000;fill-opacity:1"
     d="m 135.22954,172.42243 c 9.13489,-2.9093 20.84694,-3.19324 29.74227,-0.28458 4.52758,1.48044 5.45734,6.74415 2.85925,10.3236 l -3.81608,5.25748 a 15.981884,13.913994 0 0 1 -13.51042,6.48114 h -1.01007 a 15.981884,13.913994 0 0 1 -13.51042,-6.48114 l -3.81608,-5.25748 c -2.59809,-3.57945 -1.49001,-8.58943 3.06155,-10.03902 z"
     sodipodi:nodetypes="ccccc" /><path
     id="path16131"
     style="opacity:1;fill:#d2b990;fill-opacity:0.528239;stroke:none;stroke-width:3.2012;stroke-linejoin:round;stroke-dasharray:none;stroke-opacity:1;stop-color:#000000"
     class="UnoptimicedTransforms"
     d="m 97.978516,203.53711 c -2.850568,4.5868 -6.08796,9.03302 -7.941407,13.98242 2.751114,1.59133 5.011347,3.04696 7.664063,4.68164 0.166069,0.17975 0.347287,0.33728 0.515625,0.51367 -6.617932,-6.95556 -2.671595,-13.12526 -0.238281,-19.17773 z m 104.042964,0 c 3.18942,6.08181 4.47429,12.4931 -0.2207,19.09961 0.36002,-0.3832 0.73536,-0.7455 1.08399,-1.14453 2.08786,-3.43969 3.94587,-3.91394 6.7832,-4.75196 -1.89016,-4.6407 -4.94563,-8.85722 -7.64649,-13.20312 z"
     sodipodi:nodetypes="cccccccccc" /><path
     id="path18546"
     style="fill:#e78021;fill-opacity:1;fill-rule:evenodd;stroke-width:0.948683"
     d="m 198.2298,95.694053 c 0,-16.912117 -21.59322,-30.622097 -48.2298,-30.622097 -26.63658,0 -48.2298,13.70998 -48.2298,30.622097 0,16.912117 21.59322,23.732127 48.2298,23.732127 26.63658,0 48.2298,-6.82001 48.2298,-23.732127 z"
     sodipodi:nodetypes="sssss" /><path
     id="path19446"
     style="fill:#d85e0c;fill-opacity:1;fill-rule:evenodd;stroke-width:0.948683"
     d="M 103.125 88.492188 C 102.24739 90.802754 101.76953 93.211693 101.76953 95.693359 C 101.76953 112.60546 123.36345 119.42578 150 119.42578 C 176.63655 119.42578 198.23047 112.60546 198.23047 95.693359 C 198.23047 93.211693 197.75261 90.802754 196.875 88.492188 C 191.77147 100.45512 172.72756 105.42578 150 105.42578 C 127.27244 105.42578 108.22853 100.45512 103.125 88.492188 z " /><path
     id="path20157"
     style="color:#000000;fill:#bc3403;stroke-linejoin:round;-inkscape-stroke:none;fill-opacity:0.50498337"
     d="M 150 65.072266 C 148.44871 65.072266 146.91615 65.123917 145.40234 65.214844 C 125.99889 73.740833 114.8053 101.25679 111.23828 111.45117 C 111.37451 111.53715 111.51553 111.6206 111.6543 111.70508 C 116.57664 101.53889 131.83102 72.916842 150 67.400391 C 168.16898 72.916842 183.42336 101.53889 188.3457 111.70508 C 188.48447 111.6206 188.62549 111.53715 188.76172 111.45117 C 185.1947 101.25679 174.00111 73.740833 154.59766 65.214844 C 153.08385 65.123917 151.55129 65.072266 150 65.072266 z " /><path
     id="path6347"
     style="display:inline;fill:#6a4d49;fill-opacity:1;stroke:none;stroke-width:4.00784;stroke-linecap:round;stroke-linejoin:round;stroke-dasharray:none;stroke-opacity:1;stop-color:#000000"
     d="m 128.83951,44.568228 -1.76344,-8.2591 c -1.92001,-8.9924 29.26552,-1.194895 33.23591,12.227289 3.97037,13.422187 5.51019,19.613099 2.86073,23.167311 -2.64963,3.554241 -21.26448,4.616978 -25.17342,0.773334 -3.90901,-3.843668 10.70129,-9.126173 10.17424,-19.67883 C 147.6466,42.245616 129.57878,48.0306 128.83951,44.568228 Z"
     sodipodi:nodetypes="sszzzzs" /></svg>
