<?xml version="1.0" encoding="UTF-8" standalone="no"?>
<svg
   viewBox="0 0 300 345"
   version="1.1"
   id="svg843"
   xml:space="preserve"
   xmlns="http://www.w3.org/2000/svg"
   xmlns:svg="http://www.w3.org/2000/svg"
   xmlns:rdf="http://www.w3.org/1999/02/22-rdf-syntax-ns#"
   xmlns:cc="http://creativecommons.org/ns#"
   xmlns:dc="http://purl.org/dc/elements/1.1/"><metadata
     id="metadata847"><rdf:RDF><cc:Work
         rdf:about=""><dc:format>image/svg+xml</dc:format><dc:type
           rdf:resource="http://purl.org/dc/dcmitype/StillImage" /></cc:Work></rdf:RDF></metadata><defs
     id="defs837"><linearGradient
       y2="161.16"
       x2="150"
       y1="356.11"
       x1="150"
       id="A"
       gradientUnits="userSpaceOnUse"><stop
         stop-color="#0bc2cf"
         offset="0"
         id="stop832"
         style="stop-color:#8d412e;stop-opacity:1;" /><stop
         stop-color="#0b4fac"
         offset="0.56021899"
         id="stop834"
         style="stop-color:#442018;stop-opacity:1;" /></linearGradient></defs><g
     id="g726"
     transform="matrix(-1,0,0,1,299.7438,0)"><path
       d="M 263.62,345 H 36.38 A 36.38,36.38 0 0 1 0,308.62 v -49.48 h 300 v 49.48 A 36.38,36.38 0 0 1 263.62,345 Z"
       fill="url(#A)"
       id="path839"
       style="fill:url(#A)" /><path
       id="path37157"
       style="color:#000000;fill:#420f04;fill-opacity:0.49589;stroke-linejoin:round;paint-order:stroke fill markers"
       d="m 147.48047,292.59961 c -5.51429,3.6154 -11.02857,7.2308 -16.54286,10.8462 3.8085,9.06787 14.56325,14.5375 16.17043,24.06824 1.00287,5.94714 -1.57315,12.57599 -4.60717,17.49692 l 9.2921,-0.011 c 5.2318,-10.1529 6.54551,-22.25007 3.17113,-33.20162 -1.84738,-6.63577 -4.85724,-12.85495 -7.48363,-19.19877 z m 79.49274,4.92857 c -5.18571,0.28748 -10.37143,0.57497 -15.55714,0.86245 4.03389,9.48264 12.17467,17.50371 12.72612,28.2586 0.8185,5.99289 -2.062,13.4052 -5.15647,18.35077 H 228 c 5.21826,-10.19688 5.7575,-22.19705 3.75353,-33.3006 -1.04786,-4.8887 -2.89226,-9.55756 -4.78032,-14.17122 z" /><path
       id="rect841"
       style="fill:#994c39;fill-opacity:1"
       d="M 160.58203,45 C 92.603311,71.684769 48.265221,132.03825 0,194.03711 v 67.97266 c 0,20.1545 16.226359,36.38085 36.380859,36.38085 H 263.61914 C 283.77364,298.39062 300,282.16427 300,262.00977 V 81.380859 C 300,61.226359 279.46377,51.56306 263.61914,45 231.88785,31.856469 192.55273,32.450032 160.58203,45 Z" /><path
       id="path36632"
       style="fill:#ba6f58;fill-opacity:1"
       d="M 212.18945,35.365234 C 194.39294,35.43943 176.56737,38.725022 160.58203,45 c -1.25707,0.493457 -2.48939,1.022782 -3.73047,1.539062 14.30927,-5.634241 22.81917,-3.693698 18.32891,9.749537 -3.42247,10.246389 -8.50277,15.57862 1.38593,11.136317 9.76263,-4.385669 52.71609,-28.751835 79.68594,-13.182035 16.99849,9.813292 30.6677,22.167737 43.74766,36.06376 V 81.380859 C 300,61.22638 279.46375,51.563053 263.61914,45 247.75351,38.428241 229.98596,35.291039 212.18945,35.365234 Z" /><path
       id="path33222"
       style="color:#000000;fill:#37160f;stroke-linejoin:round;paint-order:stroke fill markers"
       d="m 212.18945,35.365234 c -10.89481,3.086843 -32.10437,14.54048 -45.05665,26.092659 -9.75434,6.587604 -63.44794,74.631517 -50.81836,77.609307 11.2142,4.85521 45.42839,16.28184 56.64259,21.13704 2.89393,-19.0911 -16.03703,-45.0054 -8.73912,-62.974634 3.29931,-8.123692 7.25855,-15.966634 12.06749,-23.378637 6.79997,-11.158871 17.63288,-19.191619 29.54136,-24.257814 11.59282,-5.363168 23.88875,-9.158763 36.51308,-11.124405 -9.89893,-2.11854 -20.02857,-3.14426 -30.15039,-3.103516 z" /><path
       id="rect36209"
       style="opacity:1;fill:#93432c;fill-opacity:1;stroke-width:8.29458;stroke-linejoin:round;paint-order:stroke fill markers;stop-color:#000000"
       d="M 84.742188,94.742188 C 58.349991,119.44204 34.884619,149.14597 11.015625,179.86914 L 32.167969,268.11523 155.08594,149.82812 C 114.77645,137.68522 92.938234,123.03303 84.742188,94.742188 Z" /><path
       id="rect34047"
       style="opacity:1;fill:#93432c;fill-opacity:1;stroke:none;stroke-width:8;stroke-linecap:butt;stroke-linejoin:round;stroke-dasharray:none;stroke-opacity:1;paint-order:stroke fill markers;stop-color:#000000"
       d="m 80.171875,168.22852 v 130.1621 H 263.61914 C 283.77362,298.39062 300,282.16425 300,262.00977 v -93.78125 c -73.27604,78.49001 -146.55208,1.36417 -219.828125,0 z" /><path
       id="path22789"
       style="fill:#994c39;fill-opacity:1;fill-rule:evenodd;stroke-width:1.227;stroke-dasharray:none"
       d="M 120.02099,110.59089 A 112.58532,110.84303 0 0 0 44.666789,139.2666 c -7.289026,8.61515 -14.496098,17.47535 -21.696659,26.45723 A 112.58532,110.84303 0 0 0 7.4348526,221.43368 112.58532,110.84303 0 0 0 39.369379,298.38863 c 0.01779,3e-5 0.03493,0.002 0.05272,0.002 H 200.66856 A 112.58532,110.84303 0 0 0 232.60512,221.43368 112.58532,110.84303 0 0 0 120.02099,110.59089 Z" /><path
       id="rect28430"
       style="opacity:1;fill:#803523;fill-opacity:1;stroke-width:9.47211;stroke-linecap:round;stroke-linejoin:round;paint-order:stroke fill markers;stop-color:#000000"
       d="m 117.80383,183.03845 24.38489,95.67152 c 28.5016,-52.7458 46.28709,-65.53163 88.53972,-39.84072 1.18706,-14.20647 0.0875,-28.41716 -3.26189,-42.15805 -3.06711,-11.67923 -7.74169,-22.8868 -13.90974,-33.34938 -24.35337,25.75839 -46.71068,33.43408 -95.75298,19.67663 z" /><path
       id="path32006"
       style="fill:#bb7059;fill-opacity:1;fill-rule:evenodd;stroke-width:1.22683"
       d="m 120.02099,110.59089 c -27.856385,0.0514 -55.386798,13.27001 -76.036572,31.6774 -23.83804,15.00303 -23.548607,30.75233 0.358162,3.81795 64.89269,-50.082577 163.50217,-21.60518 170.60383,52.1991 9.11382,25.37381 13.01393,18.89366 14.88223,0 -11.06991,-51.03632 -56.80049,-87.55761 -109.80765,-87.69445 z" /><path
       id="path33231"
       style="fill:none;fill-opacity:1;fill-rule:evenodd;stroke:#37160f;stroke-width:8;stroke-dasharray:none;stroke-opacity:1"
       d="m 120.02099,110.59088 a 112.58532,110.84303 0 0 0 -75.354201,28.67571 c -7.289026,8.61515 -14.496098,17.47535 -21.696659,26.45723 A 112.58532,110.84303 0 0 0 7.4348526,221.43367 112.58532,110.84303 0 0 0 39.369379,298.38862 c 0.01779,3e-5 0.03493,0.002 0.05272,0.002 H 200.66856 A 112.58532,110.84303 0 0 0 232.60512,221.43367 112.58532,110.84303 0 0 0 120.02099,110.59088 Z" /><path
       id="path37171"
       style="color:#000000;fill:#37160f;stroke-linejoin:round;paint-order:stroke fill markers"
       d="m 296,262.00977 c 0,18.00746 -14.37339,32.38085 -32.38086,32.38085 H 145.22852 v 8 h 118.39062 c 16.01508,0 29.85216,-9.32465 36.38086,-22.83984 v -23.92187 c -1.51974,-0.64799 -0.18335,2.289 -4,6.38086 z" /><path
       id="path20618"
       style="opacity:1;fill:#994c39;fill-opacity:1;stroke-width:8.87711;stroke-linecap:round;stroke-linejoin:round;paint-order:stroke fill markers;stop-color:#000000"
       d="M 91.964844,4.4648438 C 58.280207,3.0385635 22.943801,20.397707 8.5007341,51.829858 0.33314984,64.807727 -0.92379931,80.112117 0.00598699,95.005416 0.11562988,167.57954 -0.25222628,240.1649 0.19840713,312.73197 1.8597437,330.49755 18.495575,345.47433 36.380859,345 c 19.466476,-1.66029 34.762832,-9.12071 44.472657,-24.64062 18.956894,-0.29742 40.671344,4.2186 56.917004,-8.11298 21.17845,-20.14609 21.90626,-53.35814 13.38798,-79.5759 -3.6473,-12.18871 -16.61804,-21.70517 -11.48651,-32.47189 12.07412,-28.17407 11.24173,-64.98305 -12.02547,-87.30422 -6.84496,-6.78767 -21.02802,-16.128241 -27.15384,-15.307709 7.87012,20.079379 17.14948,44.211139 6.41451,64.989669 C 96.617541,180.01494 74.681729,193.72031 57.189453,186.34141 29.154836,174.51535 35.192408,133.60833 51.468974,108.39581 64.788108,87.764372 77.342981,63.636163 99.931641,53.285156 106.72548,50.171951 125.72331,42.82414 116.6436,38.393179 97.637269,43.38454 78.074387,49.163409 63.124535,62.491577 57.776906,67.259122 50.456265,75.680156 46.110701,70.983842 42.581242,48.218635 86.077933,17.477333 102.82617,13.470703 118.01404,6.2643724 97.892447,4.1244274 91.964844,4.4648438 Z" /><path
       id="path26936"
       style="opacity:1;fill:#863f2e;fill-opacity:1;stroke-width:8.87711;stroke-linecap:round;stroke-linejoin:round;paint-order:stroke fill markers;stop-color:#000000"
       d="M 11.164062,46.652344 C 10.218863,48.337321 9.3159103,50.054429 8.5,51.830078 0.33242391,64.807934 -0.923926,80.112575 0.00585938,95.005859 c 0.05482133,36.286991 -0.0095554,72.576261 -0.03125001,108.865231 -0.01096473,18.14448 -0.01106569,36.28807 0.01953125,54.43164 0.03068388,18.14423 0.09241596,36.28731 0.20507813,54.42969 0.51916665,5.55173 2.50048215,10.83061 5.52539065,15.45117 0.6050031,0.92413 1.2504148,1.82112 1.9355468,2.68946 5.632e-4,7.1e-4 0.00139,0.001 0.00195,0.002 0.6846271,0.86756 1.4080858,1.70603 2.1660156,2.51172 0.7585592,0.80636 1.5516682,1.58016 2.3769532,2.31836 6.602343,5.90657 15.232228,9.53211 24.175781,9.29492 0.238901,-0.0204 0.459817,-0.0655 0.697266,-0.0879 C 20.493925,343.60875 5.7577531,329.39869 4.1992188,312.73242 3.7485862,240.16549 3.2932364,167.57984 3.1835938,95.005859 2.2538093,80.11259 2.6898539,63.329406 10.857422,50.351562 c -0.182516,-1.352038 -0.02593,-2.549679 0.30664,-3.699218 z" /><path
       id="rect27360"
       style="opacity:1;fill:#863f2e;fill-opacity:1;stroke-width:7;stroke-linecap:round;stroke-linejoin:round;paint-order:stroke fill markers;stop-color:#000000"
       d="M 79.806641,22.480469 C 49.032349,22.218481 2.941768,64.766259 -0.046875,92.984821 -0.31727864,97.588094 -0.28166791,90.400253 0.00585938,95.005859 0.01258087,99.454908 -0.00147795,103.90439 0.00195313,108.35352 8.5462421,85.654305 16.548291,62.583316 46.634766,71.435547 46.458455,71.292399 46.279058,71.165644 46.111328,70.984375 43.588082,54.709299 65.081687,34.405425 83.671875,22.660156 82.403465,22.528103 81.115363,22.49161 79.806641,22.480469 Z" /><path
       id="rect23522"
       style="opacity:1;fill:#7d3321;fill-opacity:0.497817;stroke-width:6.53371;stroke-linecap:round;stroke-linejoin:round;paint-order:stroke fill markers;stop-color:#000000"
       d="m 119.98047,190.23633 c -8.5153,-0.0372 -17.05497,2.12182 -25.10547,5.33984 -11.955607,4.77902 -11.133853,6.00884 1.529297,3.6875 12.522963,-2.29564 27.129823,-0.75474 44.003903,13.33789 -1.92682,-4.09966 -2.76096,-8.15434 -0.73632,-12.40234 0.61329,-1.43107 1.17135,-2.8985 1.71679,-4.3711 -6.90772,-3.92731 -14.14872,-5.5601 -21.4082,-5.59179 z" /><path
       id="path23894"
       style="fill:#692f21;stroke-width:8.87711;stroke-linecap:round;stroke-linejoin:round;paint-order:stroke fill markers"
       d="m -0.01757813,223.13672 c 0.07043344,30.20914 -0.1116844,60.43518 0.331173,90.63336 2.36197743,19.47575 22.89087813,34.99776 42.30306613,30.47452 15.335816,-2.13701 30.185717,-10.35493 38.236852,-23.88517 17.717349,-0.30763 36.833357,3.62924 53.078167,-5.58358 9.99233,-6.1533 15.77919,-17.41139 19.2209,-28.30205 0.93031,-4.17536 3.93062,-13.85801 1.83835,-14.87067 -4.77811,6.86535 -7.48755,15.06609 -13.2098,21.35417 -6.67215,9.62685 -17.6506,16.15865 -29.47597,16.32345 -11.99171,0.50433 -23.710469,-3.05262 -34.736714,-7.43699 -10.192322,15.20754 -27.388696,24.66553 -44.918815,28.77362 -8.556054,2.39479 -19.047742,1.1766 -24.5038963,-6.59907 -8.08428309,-11.47165 -8.23044653,-26.1301 -7.96706151,-39.59757 -0.0450174,-20.42803 -0.0508786,-40.85641 -0.19625132,-61.28402 z" /><path
       id="path24869"
       style="fill:#863f2e;fill-opacity:1;fill-rule:evenodd;stroke-width:1.07077"
       d="m 101.73242,97.548828 c -2.572099,-0.128646 0.7308,3.657952 0.8064,5.298912 5.33819,14.03993 10.43657,28.90025 8.94964,44.1466 -0.82565,7.98891 -3.65171,15.98208 -9.20202,21.92505 -4.335096,6.94474 -21.388919,17.11043 -24.922154,17.76398 12.928,5.04688 31.716244,-12.4987 35.759654,-23.57111 6.75247,-18.49083 8.63648,-44.80931 -4.44788,-59.9199 -2.76838,-3.197087 -2.66138,-5.203301 -6.94364,-5.643532 z" /><path
       id="rect25271"
       style="opacity:1;fill:#bb7059;fill-opacity:1;stroke-width:7;stroke-linecap:round;stroke-linejoin:round;paint-order:stroke fill markers;stop-color:#000000"
       d="m 103.58425,96.943668 c 17.7834,23.557492 20.56748,37.740192 13.3152,66.994672 -1.9323,7.79458 2.47779,15.54316 10.28636,17.4209 l 5.38672,1.29536 c 7.39991,-26.09711 4.13271,-56.4117 -16.07813,-75.80078 -3.21512,-3.18821 -8.0525,-6.913012 -12.91015,-9.910152 z" /><path
       id="rect26194"
       style="opacity:1;fill:#bb7059;fill-opacity:1;stroke-width:3.60627;stroke-linecap:round;stroke-linejoin:round;paint-order:stroke fill markers;stop-color:#000000"
       d="m 78.057352,204.27172 c 10.10635,-3.55693 35.055338,-5.05909 40.238588,4.10612 2.02222,3.57576 -22.992916,-11.61674 -38.360378,9.66804 -4.356529,6.03403 -11.98456,-10.21724 -1.87821,-13.77416 z" /><path
       id="path32483"
       style="opacity:1;fill:none;fill-opacity:1;stroke:none;stroke-width:5;stroke-linecap:round;stroke-linejoin:round;stroke-dasharray:none;stroke-opacity:1;paint-order:stroke fill markers;stop-color:#000000"
       d="M 91.964844,4.4648438 C 58.280207,3.0385635 22.943801,20.397707 8.5007341,51.829858 0.33314984,64.807727 -0.92379931,80.112117 0.00598699,95.005416 0.11562988,167.57954 -0.25222628,240.1649 0.19840713,312.73197 1.8597437,330.49755 18.495575,345.47433 36.380859,345 c 19.466476,-1.66029 34.762832,-9.12071 44.472657,-24.64062 18.956894,-0.29742 40.671344,4.2186 56.917004,-8.11298 21.17845,-20.14609 21.90626,-53.35814 13.38798,-79.5759 -3.6473,-12.18871 -16.61804,-21.70517 -11.48651,-32.47189 12.07412,-28.17407 11.24173,-64.98305 -12.02547,-87.30422 -6.84496,-6.78767 -21.02802,-16.128241 -27.15384,-15.307709 7.87012,20.079379 17.14948,44.211139 6.41451,64.989669 C 96.617541,180.01494 74.681729,193.72031 57.189453,186.34141 29.154836,174.51535 35.192408,133.60833 51.468974,108.39581 64.788108,87.764372 77.342981,63.636163 99.931641,53.285156 106.72548,50.171951 125.72331,42.82414 116.6436,38.393179 97.637269,43.38454 78.074387,49.163409 63.124535,62.491577 57.776906,67.259122 50.456265,75.680156 46.110701,70.983842 42.581242,48.218635 86.077933,17.477333 102.82617,13.470703 118.01404,6.2643724 97.892447,4.1244274 91.964844,4.4648438 Z" /><path
       id="rect36336"
       style="opacity:1;fill:#bb7059;stroke-width:8;stroke-linejoin:round;paint-order:stroke fill markers;stop-color:#000000"
       d="M 85.634766,4.4160156 C 53.944446,5.2630365 22.040362,22.362466 8.5,51.830078 6.9689775,54.262794 5.7522674,56.798771 4.6757812,59.376953 29.873037,33.437065 64.136343,8.1929708 108.08789,9.6503906 110.26661,5.4981223 96.671675,4.1945351 91.964844,4.4648438 89.859556,4.3757013 87.747454,4.3595476 85.634766,4.4160156 Z" /><path
       id="rect36463"
       style="opacity:1;fill:#bb7059;stroke-width:5.57609;stroke-linejoin:round;paint-order:stroke fill markers;stop-color:#000000"
       d="m 116.64453,38.392578 c -14.35966,3.778628 -28.861229,7.934762 -41.730468,15.546875 2.826573,3.247171 7.163966,5.008887 11.452552,4.728968 1.913471,-0.120507 3.911871,-0.287189 5.693956,-0.984976 4.922519,-3.420885 10.57041,-5.497976 15.95666,-8.038245 3.34612,-1.658962 6.8247,-3.293337 9.51825,-5.938571 1.38064,-1.071013 2.2163,-3.337006 0.44192,-4.487536 -0.40651,-0.331598 -0.86287,-0.596374 -1.33287,-0.826515 z" /><path
       id="path32766"
       style="color:#000000;fill:#37160f;stroke-linecap:round;stroke-linejoin:round;paint-order:stroke fill markers"
       d="m 101.88867,95.023438 c -8.710309,3.394777 3.32433,15.756902 3.30228,23.004762 5.69918,17.0923 6.8756,38.62302 -7.084392,52.19516 C 87.762344,181.82261 69.575159,191.19439 54.711165,182.32771 40.747568,174.52184 38.490038,156.39346 41.125,142.0625 l -2.463099,-1.73812 c -4.303579,7.94053 -3.616166,16.14447 -1.980015,24.71516 3.315391,16.84922 21.195688,29.593 38.224721,25.01644 21.386637,-5.35827 40.054363,-25.28945 39.383983,-48.13269 0.0313,-14.26089 -4.83314,-27.91338 -9.90578,-41.04829 22.47227,8.03635 38.27789,30.20946 40.0276,53.82359 1.75254,15.93612 -1.71095,32.51432 -7.89554,46.82922 -2.89649,12.80599 9.91921,21.54131 12.64662,33.11733 7.41335,23.96783 7.07505,53.16548 -10.30429,72.88377 -11.4478,12.23201 -29.86264,11.02166 -45.209522,10.56427 -9.618011,-2.25399 -16.947959,1.13183 -21.710941,9.5603 -10.684392,10.53858 -26.578683,16.57101 -41.40459,15.21059 -6.244666,2.3347 7.077282,2.69988 10.918652,2.13593 6.025711,0.21437 12.115071,0.22028 17.548699,-2.86513 9.36891,-3.96999 17.533752,-10.72165 23.105964,-19.24425 19.238188,0.12483 41.005978,3.91326 57.386718,-8.83203 20.18957,-19.1384 22.67579,-50.06575 15.92212,-75.6898 -1.79194,-10.91438 -9.28413,-19.35645 -13.71758,-29.12203 -2.09517,-9.21744 5.54074,-17.37095 6.11172,-26.60085 5.82644,-26.12988 -0.11314,-56.58419 -21.42819,-74.30236 -7.21535,-5.64282 -15.18249,-12.066162 -24.49358,-13.320112 z" /><ellipse
       style="fill:#ba6f58;fill-opacity:1;fill-rule:evenodd;stroke-width:1.06466"
       id="ellipse36984"
       cx="238.31186"
       cy="-96.263329"
       rx="17.805975"
       ry="27.132912"
       transform="rotate(42.343718)" /><ellipse
       style="fill:#ba6f58;fill-opacity:1;fill-rule:evenodd;stroke-width:0.443358"
       id="path36982"
       cx="276.3187"
       cy="-85.777634"
       rx="7.4149733"
       ry="11.299006"
       transform="rotate(42.343718)" /><g
       id="g3723"
       transform="translate(168.2106,-43.678995)"><circle
         cx="-63.195141"
         cy="287.68219"
         r="36.450001"
         id="circle936"
         style="fill:#813523;fill-opacity:1" /><circle
         cx="-63.195141"
         cy="297.80219"
         r="36.450001"
         id="circle942"
         style="fill:#ffffff" /><path
         d="m -84.658172,287.08111 a 15.345058,15.345058 0 0 0 22.279956,-20.80469 26.717361,26.717361 0 1 1 -22.291573,20.80469 z m 37.17198,22.9537 a 6.3424692,6.3424692 0 1 0 -6.330853,-6.33085 6.330853,6.330853 0 0 0 6.377318,6.33085 z"
         id="path946"
         style="fill:#131313;fill-opacity:1;stroke-width:1.16162" /></g></g></svg>
