<?xml version="1.0" encoding="UTF-8" standalone="no"?>
<svg
   id="Layer_1"
   data-name="Layer 1"
   viewBox="0 0 300 345"
   version="1.1"
   sodipodi:docname="rhino_3.svg"
   xml:space="preserve"
   inkscape:version="1.2 (dc2aedaf03, 2022-05-15)"
   xmlns:inkscape="http://www.inkscape.org/namespaces/inkscape"
   xmlns:sodipodi="http://sodipodi.sourceforge.net/DTD/sodipodi-0.dtd"
   xmlns="http://www.w3.org/2000/svg"
   xmlns:svg="http://www.w3.org/2000/svg"><sodipodi:namedview
     id="namedview9035"
     pagecolor="#505050"
     bordercolor="#ffffff"
     borderopacity="1"
     inkscape:showpageshadow="0"
     inkscape:pageopacity="0"
     inkscape:pagecheckerboard="1"
     inkscape:deskcolor="#505050"
     showgrid="false"
     inkscape:zoom="1.7236022"
     inkscape:cx="78.904518"
     inkscape:cy="231.49193"
     inkscape:window-width="1366"
     inkscape:window-height="705"
     inkscape:window-x="-8"
     inkscape:window-y="-8"
     inkscape:window-maximized="1"
     inkscape:current-layer="Layer_1" /><defs
     id="defs8993"><inkscape:path-effect
       effect="mirror_symmetry"
       start_point="176.14904,307.65884"
       end_point="176.14904,315.04511"
       center_point="176.14904,311.35197"
       id="path-effect28275"
       is_visible="true"
       lpeversion="1.2"
       lpesatellites="#path28277"
       mode="vertical"
       discard_orig_path="false"
       fuse_paths="false"
       oposite_fuse="false"
       split_items="true"
       split_open="false"
       link_styles="false" /><inkscape:path-effect
       effect="fillet_chamfer"
       id="path-effect28262"
       is_visible="true"
       lpeversion="1"
       nodesatellites_param="F,0,0,1,0,4.077691,0,1 @ F,0,0,1,0,0,0,1 @ F,0,0,1,0,0,0,1 @ F,0,0,1,0,0,0,1 @ F,0,0,1,0,0,0,1"
       unit="px"
       method="auto"
       mode="F"
       radius="0"
       chamfer_steps="1"
       flexible="false"
       use_knot_distance="true"
       apply_no_radius="true"
       apply_with_radius="true"
       only_selected="false"
       hide_knots="false" /><inkscape:path-effect
       effect="fillet_chamfer"
       id="path-effect1064"
       is_visible="true"
       lpeversion="1"
       nodesatellites_param="F,0,0,1,0,14.947252,0,1 @ F,0,0,1,0,0,0,1 @ F,0,0,1,0,0,0,1 @ F,0,0,1,0,0,0,1"
       unit="px"
       method="auto"
       mode="F"
       radius="0"
       chamfer_steps="1"
       flexible="false"
       use_knot_distance="true"
       apply_no_radius="true"
       apply_with_radius="true"
       only_selected="false"
       hide_knots="false" /><inkscape:path-effect
       effect="fillet_chamfer"
       id="path-effect23332"
       is_visible="true"
       lpeversion="1"
       nodesatellites_param="F,0,0,1,0,0,0,1 @ F,0,0,1,0,0,0,1 @ F,0,0,1,0,0,0,1 @ F,0,0,1,0,8.7727616,0,1"
       unit="px"
       method="auto"
       mode="F"
       radius="0"
       chamfer_steps="1"
       flexible="false"
       use_knot_distance="true"
       apply_no_radius="true"
       apply_with_radius="true"
       only_selected="false"
       hide_knots="false" /><inkscape:path-effect
       effect="fillet_chamfer"
       id="path-effect23330"
       is_visible="true"
       lpeversion="1"
       nodesatellites_param="F,0,0,1,0,0,0,1 @ F,0,0,1,0,0,0,1 @ F,0,0,1,0,0,0,1 @ F,0,0,1,0,7.8415373,0,1"
       unit="px"
       method="auto"
       mode="F"
       radius="0"
       chamfer_steps="1"
       flexible="false"
       use_knot_distance="true"
       apply_no_radius="true"
       apply_with_radius="true"
       only_selected="false"
       hide_knots="false" /><inkscape:path-effect
       effect="mirror_symmetry"
       start_point="194.94299,275.07644"
       end_point="194.94299,292.88369"
       center_point="194.94299,283.98006"
       id="path-effect20058"
       is_visible="true"
       lpeversion="1.2"
       lpesatellites=""
       mode="vertical"
       discard_orig_path="false"
       fuse_paths="false"
       oposite_fuse="false"
       split_items="false"
       split_open="false"
       link_styles="false" /><inkscape:path-effect
       effect="mirror_symmetry"
       start_point="92.843737,195.96804"
       end_point="92.843737,249.87949"
       center_point="92.843737,222.92376"
       id="path-effect19479"
       is_visible="true"
       lpeversion="1.2"
       lpesatellites="#path19481"
       mode="vertical"
       discard_orig_path="false"
       fuse_paths="false"
       oposite_fuse="false"
       split_items="true"
       split_open="false"
       link_styles="false" /><inkscape:path-effect
       effect="mirror_symmetry"
       start_point="93.200882,157.02313"
       end_point="93.200882,235.72351"
       center_point="93.200882,196.37332"
       id="path-effect17525"
       is_visible="true"
       lpeversion="1.2"
       lpesatellites="#g349"
       mode="vertical"
       discard_orig_path="false"
       fuse_paths="false"
       oposite_fuse="false"
       split_items="true"
       split_open="false"
       link_styles="false" /><linearGradient
       id="linear-gradient"
       x1="150"
       y1="355.98"
       x2="150"
       y2="161.03"
       gradientUnits="userSpaceOnUse"><stop
         offset="0"
         stop-color="#1ea39f"
         id="stop8988"
         style="stop-color:#9da7a5;stop-opacity:1;" /><stop
         offset="0.69"
         stop-color="#0a6961"
         id="stop8990"
         style="stop-color:#657b78;stop-opacity:1;" /></linearGradient></defs><path
     d="M 263.62,344.87 H 36.38 A 36.38,36.38 0 0 1 0,308.49 V 259 h 300 v 49.48 a 36.38,36.38 0 0 1 -36.38,36.39 z"
     fill="url(#linear-gradient)"
     id="path8995"
     style="fill:url(#linear-gradient)" /><path
     id="path33074"
     style="opacity:1;mix-blend-mode:normal;fill:#3c4241;fill-opacity:0.145098;stroke-width:4.567;stroke-linecap:square;stop-color:#000000"
     d="M 87.087891 279.25 C 97.422652 304.24737 94.224023 327.64403 112.16992 344.86914 L 188.41602 344.86914 C 205.48908 328.87717 205.51403 305.61578 210.78125 279.25 C 209.59568 280.13521 208.40823 280.96525 207.22266 281.76562 C 203.17895 306.0878 198.38041 326.27283 170.68359 338.04883 C 158.74607 342.60507 143.47776 345.20126 130.14258 338.57617 C 99.886758 324.93813 98.583427 304.1783 93.080078 280.70508 C 91.082576 280.20284 89.085393 279.70278 87.087891 279.25 z " /><path
     d="M 189.16,44.87 H 110.84 A 110.83,110.83 0 0 0 0,155.71 v 106.17 a 36.38,36.38 0 0 0 36.38,36.38 H 263.62 A 36.38,36.38 0 0 0 300,261.88 V 155.71 A 110.83,110.83 0 0 0 189.16,44.87 Z"
     fill="#1ea39f"
     id="path8997"
     style="fill:#9da7a5;fill-opacity:1" /><path
     class="UnoptimicedTransforms"
     id="path19481"
     d="m 91.458254,195.96804 c -2.649838,1.96108 -0.665305,6.43726 -1.316496,9.50041 -0.128559,9.05798 -1.457938,18.90317 -7.837218,25.84745 -6.650459,7.02986 -15.687054,11.03069 -24.418221,14.81738 -5.062743,2.12556 -10.200079,4.0666 -5.586195,3.70181 4.613885,-0.36475 16.518085,-4.4962 26.574574,-11.84811 6.212661,-4.45929 10.795135,-11.12075 12.423545,-18.62469 1.730733,-7.22105 1.578562,-14.70348 1.507377,-22.07701 l -0.401198,-0.93734 z"
     style="color:#000000;fill:#5a6160;stroke-linecap:round;-inkscape-stroke:none"
     transform="matrix(-1,0,0,1,300,0)" /><path
     id="path14159"
     style="color:#000000;fill:#676f6d;fill-rule:evenodd"
     d="m 150,186.54297 c -18.97599,0 -36.09689,10.50626 -48.38672,27.27344 -8.78354,11.98349 -15.123348,46.04522 -13.631466,46.35674 1.491883,0.31151 7.630304,-33.1492 16.024046,-44.60088 11.86443,-16.1868 28.11197,-26.0625 45.99414,-26.0625 17.88217,0 34.12971,9.8757 45.99414,26.0625 8.39374,11.45168 14.53216,44.91239 16.02405,44.60088 1.49188,-0.31152 -4.84793,-34.37325 -13.63147,-46.35674 C 186.09689,197.04923 168.97599,186.54297 150,186.54297 Z"
     sodipodi:nodetypes="sscssscss" /><path
     id="rect17579"
     style="opacity:1;fill:#9da7a5;stroke-width:4.567;stroke-linecap:square;stop-color:#000000"
     d="m 87.086921,261.24924 c 41.231169,9.34601 82.462339,30.78549 123.693519,0 -6.67344,33.40482 -4.90766,61.83851 -40.09764,76.80042 -11.93756,4.55626 -27.20441,7.15181 -40.53963,0.52672 -38.402497,-17.31023 -30.13504,-46.07375 -43.056249,-77.32714 z"
     sodipodi:nodetypes="ccccc" /><path
     id="path14531"
     style="opacity:1;fill:#5a6160;fill-opacity:1;stroke-width:0.935725;stroke-linecap:round;stop-color:#000000"
     d="m 104.21484,232.71289 c -2.24025,5.3897 -2.03203,11.97784 1.8124,16.61999 5.90729,7.31211 15.34227,10.4441 24.19319,12.47529 15.24473,3.09207 31.33337,2.90511 46.30748,-1.48718 7.57576,-2.41396 15.73971,-6.24907 19.36385,-13.78426 2.08779,-4.36199 1.53739,-9.43879 -0.15934,-13.82384 -33.48754,-74.54201 -63.7772,-69.13688 -91.51758,0 z"
     sodipodi:nodetypes="ccccccc" /><path
     id="path24486"
     style="color:#000000;fill:#5a6160;stroke-linecap:round"
     class="UnoptimicedTransforms"
     d="m 50.736328,186.46094 c -4.518002,0.12194 -8.880908,0.869 -12.988281,2.43359 -16.429604,6.25841 -26.946434,24.87953 -37.44531262,42.96094 a 2.2335,2.2335 0 0 0 0.81054682,3.05469 2.2335,2.2335 0 0 0 3.0527344,-0.81055 C 14.664905,216.0182 25.145378,198.47536 39.339844,193.06836 c 14.194576,-5.40706 33.904686,0.61119 51.705078,8.13672 15.092488,6.38069 29.141068,13.8267 47.169918,14.30078 v 0.004 c 0.60414,0.0152 1.18997,-0.002 1.78516,-0.002 0.59519,3.8e-4 1.18102,0.0172 1.78516,0.002 v -0.004 c 18.02885,-0.47408 32.07743,-7.92009 47.16992,-14.30078 17.80039,-7.52553 37.5105,-13.54378 51.70508,-8.13672 14.19446,5.407 24.67494,22.94984 35.17382,41.03125 a 2.2335,2.2335 0 0 0 3.05274,0.81055 2.2335,2.2335 0 0 0 0.81055,-3.05469 c -10.49888,-18.08141 -21.01571,-36.70253 -37.44532,-42.96094 -16.42949,-6.25838 -36.96537,0.55507 -55.03711,8.19531 -15.31142,6.47327 -28.55683,13.50357 -45.48242,13.95704 -0.58604,0.0156 -1.15534,0.002 -1.73242,0.002 -0.57708,1e-4 -1.14638,0.0136 -1.73242,-0.002 -16.92559,-0.45347 -30.171,-7.48377 -45.482424,-13.95704 -13.553799,-5.73018 -28.494821,-10.99474 -42.048828,-10.6289 z"
     transform="translate(9.9999982,-60)" /><path
     id="rect14050"
     style="opacity:1;fill:#ebeedd;fill-opacity:1;stroke-width:0.89556;stroke-linecap:round;stop-color:#000000"
     class="UnoptimicedTransforms"
     d="m 143.47456,103.34491 c -12.81608,28.46058 -29.35259,75.4965 -35.78464,105.69759 -7.59897,35.68022 -1.09458,47.86311 42.31008,48.83641 43.40466,-0.9733 49.90905,-13.15618 42.31008,-48.83641 -6.43206,-30.20109 -22.96856,-77.23703 -35.78465,-105.69761 -3.38891,-7.525742 -9.66195,-7.525735 -13.05087,2e-5 z"
     inkscape:path-effect="#path-effect1064"
     inkscape:original-d="M 150,89.900391 C 136.99122,114.1847 115.28889,173.36227 107.68992,209.0425 100.09095,244.72272 106.59534,256.90561 150,257.87891 193.40466,256.90561 199.90905,244.72273 192.31008,209.0425 184.71111,173.36228 163.00878,114.1847 150,89.900391 Z"
     transform="matrix(1,0,0,1.0627739,0,-16.188072)"
     sodipodi:nodetypes="czcsc" /><path
     id="path17634"
     style="color:#000000;opacity:1;fill:#5a6160;fill-opacity:1;fill-rule:evenodd;stroke-width:0.992013"
     d="m 95.162879,295.97478 c 2.304216,7.50274 3.211391,15.08883 6.450401,19.43753 12.28982,16.50041 29.41075,26.83953 48.38672,26.83953 18.97597,0 36.0969,-10.33912 48.38672,-26.83953 3.23901,-4.3487 3.86119,-11.65433 6.16541,-19.15707 h -0.6908 c -2.28143,6.89073 -4.9319,13.48821 -7.86719,17.42915 -11.86442,15.92926 -28.11199,25.64785 -45.99414,25.64785 -17.88215,0 -34.12972,-9.71859 -45.99414,-25.64785 -2.93529,-3.94094 -5.585764,-10.53842 -7.867188,-17.42915 z"
     sodipodi:nodetypes="csssccssscc" /><path
     style="color:#000000;fill:#5a6160;stroke-linecap:round;-inkscape-stroke:none"
     d="m 91.458254,195.96804 c -2.649838,1.96108 -0.665305,6.43726 -1.316496,9.50041 -0.128559,9.05798 -1.457938,18.90317 -7.837218,25.84745 -6.650459,7.02986 -15.687054,11.03069 -24.418221,14.81738 -5.062743,2.12556 -10.200079,4.0666 -5.586195,3.70181 4.613885,-0.36475 16.518085,-4.4962 26.574574,-11.84811 6.212661,-4.45929 10.795135,-11.12075 12.423545,-18.62469 1.730733,-7.22105 1.578562,-14.70348 1.507377,-22.07701 l -0.401198,-0.93734 z"
     id="path19471"
     sodipodi:nodetypes="cccccccccc"
     class="UnoptimicedTransforms"
     inkscape:original-d="m 91.458254,195.96804 c -2.649838,1.96108 -0.665305,6.43726 -1.316496,9.50041 -0.128559,9.05798 -1.457938,18.90317 -7.837218,25.84745 -6.650459,7.02986 -15.687054,11.03069 -24.418221,14.81738 -5.062743,2.12556 -10.200079,4.0666 -5.586195,3.70181 4.613885,-0.36475 16.518085,-4.4962 26.574574,-11.84811 6.212661,-4.45929 10.795135,-11.12075 12.423545,-18.62469 1.730733,-7.22105 1.578562,-14.70348 1.507377,-22.07701 l -0.401198,-0.93734 z"
     inkscape:path-effect="#path-effect19479" /><g
     id="g17523"
     inkscape:path-effect="#path-effect17525"
     class="UnoptimicedTransforms"><circle
       cx="58.648163"
       cy="191.57585"
       r="34.552719"
       id="circle15932"
       style="fill:#5a6160;stroke-width:0.782621;fill-opacity:1"
       d="M 93.200882,191.57585 A 34.552719,34.552719 0 0 1 58.648163,226.12857 34.552719,34.552719 0 0 1 24.095444,191.57585 34.552719,34.552719 0 0 1 58.648163,157.02313 34.552719,34.552719 0 0 1 93.200882,191.57585 Z" /><circle
       cx="58.648163"
       cy="201.17079"
       r="34.552719"
       id="circle15938"
       style="fill:#ffffff;stroke-width:0.782621"
       d="M 93.200882,201.17079 A 34.552719,34.552719 0 0 1 58.648163,235.72351 34.552719,34.552719 0 0 1 24.095444,201.17079 34.552719,34.552719 0 0 1 58.648163,166.61807 34.552719,34.552719 0 0 1 93.200882,201.17079 Z" /><path
       d="m 88.755589,200.12289 a 12.521936,12.521936 0 0 1 -18.188112,-16.94375 22.007303,22.007303 0 0 0 -3.060048,-0.21913 21.76469,21.76469 0 1 0 21.24816,17.21766 z m -30.365695,18.7829 a 5.1731249,5.1731249 0 1 1 5.165299,-5.1653 5.1731249,5.1731249 0 0 1 -5.165299,5.1653 z"
       id="path15942"
       style="stroke-width:0.782621;fill:#2f2f2f;fill-opacity:1"
       inkscape:original-d="m 88.755589,200.12289 a 12.521936,12.521936 0 0 1 -18.188112,-16.94375 22.007303,22.007303 0 0 0 -3.060048,-0.21913 21.76469,21.76469 0 1 0 21.24816,17.21766 z m -30.365695,18.7829 a 5.1731249,5.1731249 0 1 1 5.165299,-5.1653 5.1731249,5.1731249 0 0 1 -5.165299,5.1653 z" /></g><path
     class="cls-4 UnoptimicedTransforms"
     d="m 184.37763,276.8868 c 5.84,-5.83237 14.59,2.92763 8.75,8.76 -2.41,2.41 -13.06,9.14 -15.47,6.72 -2.41,-2.42 4.3,-13.06 6.72,-15.48 z m -68.75526,0 c -5.84,-5.83237 -14.59,2.92763 -8.75,8.76 2.41,2.41 13.06,9.14 15.47,6.72 2.41,-2.42 -4.3,-13.06 -6.72,-15.48 z"
     id="path49"
     style="fill:#3c4241;fill-opacity:1"
     inkscape:path-effect="#path-effect20058"
     inkscape:original-d="m 184.37763,276.8868 a 6.1907209,6.1907209 0 0 1 8.75,8.76 c -2.41,2.41 -13.06,9.14 -15.47,6.72 -2.41,-2.42 4.3,-13.06 6.72,-15.48 z"
     transform="translate(0,-10)" /><path
     id="path20060"
     style="fill:#1e2120;fill-opacity:1"
     class="cls-4 UnoptimicedTransforms"
     d="m 111.55469,274.9707 c -2.23875,-0.10222 -4.34602,1.1727 -5.55664,3.01368 2.18533,-1.41646 5.16236,-1.55708 7.625,0.90234 2.07521,2.07522 7.28841,10.18093 7.21679,13.97851 0.6322,-0.0116 1.15782,-0.15248 1.50196,-0.49804 2.40999,-2.42 -4.29876,-13.06047 -6.71875,-15.48047 -1.2775,-1.27583 -2.69555,-1.85333 -4.06836,-1.91602 z m 76.89062,0 c -1.37281,0.0627 -2.79086,0.64019 -4.06836,1.91602 -2.41999,2.42 -9.12874,13.06047 -6.71875,15.48047 0.34414,0.34556 0.86976,0.48641 1.50196,0.49804 -0.0716,-3.79758 5.14158,-11.90329 7.21679,-13.97851 2.46264,-2.45942 5.43967,-2.3188 7.625,-0.90234 -1.21062,-1.84098 -3.31789,-3.1159 -5.55664,-3.01368 z"
     transform="translate(0,-10)" /><path
     d="M 78.53724,79.112747 C 74.048812,95.082552 39.866719,112.12634 23.980355,107.35102 8.0939907,102.5757 1.612671,83.753809 4.2738599,69.900944 8.9777662,45.414678 49.435561,16.538501 66.632016,10.540728 c 3.872288,-1.3505748 4.4477,2.193711 4.070118,6.164743 -1.388403,14.601831 5.945282,50.072209 7.835106,62.407276 z"
     id="path21012"
     style="fill:#9da7a5;fill-opacity:1;stroke-width:0.961981"
     sodipodi:nodetypes="csacc"
     inkscape:path-effect="#path-effect23330"
     inkscape:original-d="M 78.53724,79.112747 C 74.048812,95.082552 39.866719,112.12634 23.980355,107.35102 8.0939907,102.5757 1.612671,83.753809 4.2738599,69.900944 10.044415,39.862219 69.622263,3.2169617 74.05398,10.307709 c -9.130858,0 2.079584,53.116005 4.48326,68.805038 z" /><path
     d="m 39.369323,44.609826 a 28.647735,28.647735 0 0 1 6.705634,10.875346 41.29776,41.29776 0 0 1 2.492091,12.461568 41.2689,41.2689 0 0 1 -1.306066,12.665898 32.062761,32.062761 0 0 1 -5.46744,11.505428 c -0.34249,-2.202354 -0.295336,-4.197178 -0.404795,-6.23908 L 41.235352,79.90633 c -0.02551,-3.925216 -0.224304,-7.741799 -0.362285,-11.560194 -0.137979,-3.818392 -0.410474,-7.65713 -0.684779,-11.556682 z"
     id="path21014"
     style="fill:#5a6160;fill-opacity:1;stroke-width:0.961981" /><path
     style="fill:#5a6160;fill-opacity:1;stroke-width:0.961981"
     d="m 43.40062,64.716238 0.05528,0.01662 -0.284739,0.04499 c -0.185212,0.01464 -0.447853,0.08637 -0.678221,0.117571 -0.23037,0.03121 -0.501318,0.130569 -0.75565,0.174657 -0.254334,0.04409 -0.524377,0.173863 -0.783342,0.266784 a 14.920295,14.920295 0 0 0 -1.612804,0.620153 c -0.514313,0.307472 -1.095829,0.504337 -1.62122,0.848659 a 27.897391,27.897391 0 0 0 -6.305226,5.136194 l -0.783615,0.768951 -0.717318,0.849149 -1.461367,1.720398 -2.799407,3.698858 -1.332501,1.960034 -1.364772,2.000559 -2.738811,4.098782 0.323358,-4.985568 c 0.148328,-1.663063 0.559244,-3.297419 0.905671,-4.951159 a 22.510309,22.510309 0 0 1 0.733845,-2.441336 L 22.96523,72.21462 c 0.295294,-0.815286 0.682714,-1.602881 1.02407,-2.40432 l 0.53046,-1.196622 0.634568,-1.175374 a 27.676137,27.676137 0 0 1 7.010117,-8.550552 27.993589,27.993589 0 0 1 2.432526,-1.709736 l 1.351177,-0.718886 a 10.851123,10.851123 0 0 1 1.401817,-0.653439 19.451216,19.451216 0 0 1 3.060519,-0.958445 l 1.684476,-0.257079 0.920518,-0.05478 0.523362,-0.0034 0.280106,0.0038 0.433046,0.02972 z"
     id="path21016" /><g
     class="UnoptimicedTransforms"
     id="g23043"
     transform="matrix(-1,0,0,1,300,0)"><path
       id="path23037"
       d="M 78.53724,79.112747 C 74.048812,95.082552 39.866719,112.12634 23.980355,107.35102 8.0939907,102.5757 1.612671,83.753809 4.2738599,69.900944 8.8996761,45.821177 48.102126,17.496045 65.756613,10.858228 c 4.298778,-1.6162741 5.169484,2.3187 4.870724,6.775428 -1.01389,15.124618 6.058994,49.398023 7.909903,61.479091 z"
       style="fill:#9da7a5;fill-opacity:1;stroke-width:0.961981"
       inkscape:path-effect="#path-effect23332"
       inkscape:original-d="M 78.53724,79.112747 C 74.048812,95.082552 39.866719,112.12634 23.980355,107.35102 8.0939907,102.5757 1.612671,83.753809 4.2738599,69.900944 10.044415,39.862219 69.622263,3.2169617 74.05398,10.307709 c -9.130858,0 2.079584,53.116005 4.48326,68.805038 z" /><path
       id="path23039"
       d="m 39.369323,44.609826 a 28.647735,28.647735 0 0 1 6.705634,10.875346 41.29776,41.29776 0 0 1 2.492091,12.461568 41.2689,41.2689 0 0 1 -1.306066,12.665898 32.062761,32.062761 0 0 1 -5.46744,11.505428 c -0.34249,-2.202354 -0.295336,-4.197178 -0.404795,-6.23908 L 41.235352,79.90633 c -0.02551,-3.925216 -0.224304,-7.741799 -0.362285,-11.560194 -0.137979,-3.818392 -0.410474,-7.65713 -0.684779,-11.556682 z"
       style="fill:#5a6160;stroke-width:0.961981;fill-opacity:1" /><path
       id="path23041"
       d="m 43.40062,64.716238 0.05528,0.01662 -0.284739,0.04499 c -0.185212,0.01464 -0.447853,0.08637 -0.678221,0.117571 -0.23037,0.03121 -0.501318,0.130569 -0.75565,0.174657 -0.254334,0.04409 -0.524377,0.173863 -0.783342,0.266784 a 14.920295,14.920295 0 0 0 -1.612804,0.620153 c -0.514313,0.307472 -1.095829,0.504337 -1.62122,0.848659 a 27.897391,27.897391 0 0 0 -6.305226,5.136194 l -0.783615,0.768951 -0.717318,0.849149 -1.461367,1.720398 -2.799407,3.698858 -1.332501,1.960034 -1.364772,2.000559 -2.738811,4.098782 0.323358,-4.985568 c 0.148328,-1.663063 0.559244,-3.297419 0.905671,-4.951159 a 22.510309,22.510309 0 0 1 0.733845,-2.441336 L 22.96523,72.21462 c 0.295294,-0.815286 0.682714,-1.602881 1.02407,-2.40432 l 0.53046,-1.196622 0.634568,-1.175374 a 27.676137,27.676137 0 0 1 7.010117,-8.550552 27.993589,27.993589 0 0 1 2.432526,-1.709736 l 1.351177,-0.718886 a 10.851123,10.851123 0 0 1 1.401817,-0.653439 19.451216,19.451216 0 0 1 3.060519,-0.958445 l 1.684476,-0.257079 0.920518,-0.05478 0.523362,-0.0034 0.280106,0.0038 0.433046,0.02972 z"
       style="fill:#5a6160;stroke-width:0.961981;fill-opacity:1" /></g><path
     id="path761"
     d="m 206.79912,191.57585 a 34.552719,34.552719 0 0 0 34.55272,34.55272 34.552719,34.552719 0 0 0 34.55272,-34.55272 34.552719,34.552719 0 0 0 -34.55272,-34.55272 34.552719,34.552719 0 0 0 -34.55272,34.55272 z"
     style="fill:#5a6160;fill-opacity:1;stroke-width:0.782621" /><path
     id="path763"
     d="m 206.79912,201.17079 a 34.552719,34.552719 0 0 0 34.55272,34.55272 34.552719,34.552719 0 0 0 34.55272,-34.55272 34.552719,34.552719 0 0 0 -34.55272,-34.55272 34.552719,34.552719 0 0 0 -34.55272,34.55272 z"
     style="fill:#ffffff;stroke-width:0.782621" /><path
     id="path765"
     d="m 253.81325,200.12289 a 12.521936,12.521936 0 0 1 -18.18811,-16.94375 22.007303,22.007303 0 0 0 -3.06005,-0.21913 21.76469,21.76469 0 1 0 21.24816,17.21766 z m -30.3657,18.7829 a 5.1731249,5.1731249 0 1 1 5.1653,-5.1653 5.1731249,5.1731249 0 0 1 -5.1653,5.1653 z"
     style="fill:#2f2f2f;fill-opacity:1;stroke-width:0.782621" /><path
     id="path491"
     d="m 206.79912,191.57585 a 34.552719,34.552719 0 0 0 34.55272,34.55272 34.552719,34.552719 0 0 0 34.55272,-34.55272 34.552719,34.552719 0 0 0 -34.55272,-34.55272 34.552719,34.552719 0 0 0 -34.55272,34.55272 z"
     style="fill:#5a6160;fill-opacity:1;stroke-width:0.782621" /><path
     id="path493"
     d="m 206.79912,201.17079 a 34.552719,34.552719 0 0 0 34.55272,34.55272 34.552719,34.552719 0 0 0 34.55272,-34.55272 34.552719,34.552719 0 0 0 -34.55272,-34.55272 34.552719,34.552719 0 0 0 -34.55272,34.55272 z"
     style="fill:#ffffff;stroke-width:0.782621" /><path
     id="path495"
     d="m 211.24441,200.12289 a 12.521936,12.521936 0 0 0 18.18811,-16.94375 22.007303,22.007303 0 0 1 3.06005,-0.21913 21.76469,21.76469 0 1 1 -21.24816,17.21766 z m 30.3657,18.7829 a 5.1731249,5.1731249 0 1 0 -5.1653,-5.1653 5.1731249,5.1731249 0 0 0 5.1653,5.1653 z"
     style="fill:#2f2f2f;fill-opacity:1;stroke-width:0.782621" /><path
     id="path13863"
     d="m 206.79912,191.57585 a 34.552719,34.552719 0 0 0 34.55272,34.55272 34.552719,34.552719 0 0 0 34.55272,-34.55272 34.552719,34.552719 0 0 0 -34.55272,-34.55272 34.552719,34.552719 0 0 0 -34.55272,34.55272 z"
     style="fill:#5a6160;fill-opacity:1;stroke-width:0.782621" /><path
     id="path13865"
     d="m 206.79912,201.17079 a 34.552719,34.552719 0 0 0 34.55272,34.55272 34.552719,34.552719 0 0 0 34.55272,-34.55272 34.552719,34.552719 0 0 0 -34.55272,-34.55272 34.552719,34.552719 0 0 0 -34.55272,34.55272 z"
     style="fill:#ffffff;stroke-width:0.782621" /><path
     id="path13867"
     d="m 253.81325,200.12289 a 12.521936,12.521936 0 0 1 -18.18811,-16.94375 22.007303,22.007303 0 0 0 -3.06005,-0.21913 21.76469,21.76469 0 1 0 21.24816,17.21766 z m -30.3657,18.7829 a 5.1731249,5.1731249 0 1 1 5.1653,-5.1653 5.1731249,5.1731249 0 0 1 -5.1653,5.1653 z"
     style="fill:#2f2f2f;fill-opacity:1;stroke-width:0.782621" /><path
     id="path25547"
     d="m 206.79912,191.57585 a 34.552719,34.552719 0 0 0 34.55272,34.55272 34.552719,34.552719 0 0 0 34.55272,-34.55272 34.552719,34.552719 0 0 0 -34.55272,-34.55272 34.552719,34.552719 0 0 0 -34.55272,34.55272 z"
     style="fill:#5a6160;fill-opacity:1;stroke-width:0.782621" /><path
     id="path25549"
     d="m 206.79912,201.17079 a 34.552719,34.552719 0 0 0 34.55272,34.55272 34.552719,34.552719 0 0 0 34.55272,-34.55272 34.552719,34.552719 0 0 0 -34.55272,-34.55272 34.552719,34.552719 0 0 0 -34.55272,34.55272 z"
     style="fill:#ffffff;stroke-width:0.782621" /><path
     id="path25551"
     d="m 253.81325,200.12289 a 12.521936,12.521936 0 0 1 -18.18811,-16.94375 22.007303,22.007303 0 0 0 -3.06005,-0.21913 21.76469,21.76469 0 1 0 21.24816,17.21766 z m -30.3657,18.7829 a 5.1731249,5.1731249 0 1 1 5.1653,-5.1653 5.1731249,5.1731249 0 0 1 -5.1653,5.1653 z"
     style="fill:#2f2f2f;fill-opacity:1;stroke-width:0.782621" /><path
     id="path27631"
     style="color:#000000;fill:#3b403f;stroke-linecap:round;stroke-linejoin:round"
     d="m 149.63001,316.52448 c 1.31498,0.003 3.5916,0.15628 4.91872,0.0415 5.11797,-0.44463 18.658,-0.44578 25.52832,-2.97946 9.49806,-3.50276 11.72521,-9.71605 10.58463,-9.47794 -0.78347,0.16356 -3.20038,4.35785 -12.73483,6.23067 -7.74131,1.52059 -22.58723,0.71437 -28.29059,1.35767 z"
     inkscape:path-effect="#path-effect28275"
     inkscape:original-d="m 149.63001,316.52448 c 1.31498,0.003 3.5916,0.15628 4.91872,0.0415 5.11797,-0.44463 18.658,-0.44578 25.52832,-2.97946 9.49806,-3.50276 11.72521,-9.71605 10.58463,-9.47794 -0.78347,0.16356 -3.20038,4.35785 -12.73483,6.23067 -7.74131,1.52059 -22.58723,0.71437 -28.29059,1.35767 z"
     class="UnoptimicedTransforms"
     sodipodi:nodetypes="ccssscc"
     transform="matrix(0.85555092,0,0,0.76805096,21.613918,78.536151)" /><path
     id="rect27965"
     style="opacity:1;fill:#3c4140;stroke-width:3.151;stroke-linecap:round;stroke-linejoin:round;stop-color:#000000"
     d="m 150.45135,294.61233 1.80619,22.1811 c 0.90824,2.05469 4.54284,2.74619 7.51074,3.77105 l -19.53656,-0.17136 c 3.0389,-1.12603 7.2935,-1.34029 8.35611,-3.94854 l 1.29167,-21.82592 a 0.2866466,0.2866466 179.36578 0 1 0.57185,-0.006 z"
     sodipodi:nodetypes="cccccc"
     inkscape:path-effect="#path-effect28262"
     inkscape:original-d="m 150.1204,290.54809 2.13714,26.24534 c 0.90824,2.05469 4.54284,2.74619 7.51074,3.77105 l -19.53656,-0.17136 c 3.0389,-1.12603 7.2935,-1.34029 8.35611,-3.94854 z" /><path
     class="UnoptimicedTransforms"
     id="path28277"
     d="m 149.63001,316.52448 c 1.31498,0.003 3.5916,0.15628 4.91872,0.0415 5.11797,-0.44463 18.658,-0.44578 25.52832,-2.97946 9.49806,-3.50276 11.72521,-9.71605 10.58463,-9.47794 -0.78347,0.16356 -3.20038,4.35785 -12.73483,6.23067 -7.74131,1.52059 -22.58723,0.71437 -28.29059,1.35767 z"
     style="color:#000000;fill:#3b403f;stroke-linecap:round;stroke-linejoin:round;-inkscape-stroke:none"
     transform="matrix(-0.85555092,0,0,0.76805096,278.38608,78.536151)" /><path
     id="path33076"
     d="m 206.79912,191.57585 a 34.552719,34.552719 0 0 0 34.55272,34.55272 34.552719,34.552719 0 0 0 34.55272,-34.55272 34.552719,34.552719 0 0 0 -34.55272,-34.55272 34.552719,34.552719 0 0 0 -34.55272,34.55272 z"
     style="fill:#5a6160;fill-opacity:1;stroke-width:0.782621" /><path
     id="path33078"
     d="m 206.79912,201.17079 a 34.552719,34.552719 0 0 0 34.55272,34.55272 34.552719,34.552719 0 0 0 34.55272,-34.55272 34.552719,34.552719 0 0 0 -34.55272,-34.55272 34.552719,34.552719 0 0 0 -34.55272,34.55272 z"
     style="fill:#ffffff;stroke-width:0.782621" /><path
     id="path33080"
     d="m 211.24441,200.12289 a 12.521936,12.521936 0 0 0 18.18811,-16.94375 22.007303,22.007303 0 0 1 3.06005,-0.21913 21.76469,21.76469 0 1 1 -21.24816,17.21766 z m 30.3657,18.7829 a 5.1731249,5.1731249 0 1 0 -5.1653,-5.1653 5.1731249,5.1731249 0 0 0 5.1653,5.1653 z"
     style="fill:#2f2f2f;fill-opacity:1;stroke-width:0.782621" /><path
     id="path343"
     d="m 206.79912,191.57585 a 34.552719,34.552719 0 0 0 34.55272,34.55272 34.552719,34.552719 0 0 0 34.55272,-34.55272 34.552719,34.552719 0 0 0 -34.55272,-34.55272 34.552719,34.552719 0 0 0 -34.55272,34.55272 z"
     style="fill:#5a6160;fill-opacity:1;stroke-width:0.782621" /><path
     id="path345"
     d="m 206.79912,201.17079 a 34.552719,34.552719 0 0 0 34.55272,34.55272 34.552719,34.552719 0 0 0 34.55272,-34.55272 34.552719,34.552719 0 0 0 -34.55272,-34.55272 34.552719,34.552719 0 0 0 -34.55272,34.55272 z"
     style="fill:#ffffff;stroke-width:0.782621" /><path
     id="path347"
     d="m 253.81325,200.12289 a 12.521936,12.521936 0 0 1 -18.18811,-16.94375 22.007303,22.007303 0 0 0 -3.06005,-0.21913 21.76469,21.76469 0 1 0 21.24816,17.21766 z m -30.3657,18.7829 a 5.1731249,5.1731249 0 1 1 5.1653,-5.1653 5.1731249,5.1731249 0 0 1 -5.1653,5.1653 z"
     style="fill:#2f2f2f;fill-opacity:1;stroke-width:0.782621" /></svg>
