<svg id="Layer_1" data-name="Layer 1" xmlns="http://www.w3.org/2000/svg" xmlns:xlink="http://www.w3.org/1999/xlink" viewBox="0 0 300 345"><defs><linearGradient id="linear-gradient" x1="150" y1="356.11" x2="150" y2="161.16" gradientUnits="userSpaceOnUse"><stop offset="0" stop-color="#765b46"/><stop offset="0.69" stop-color="#2e1e16"/></linearGradient><clipPath id="clip-path"><path d="M242.58,98.22s22.4-7.66,13.59-12.77c-15.72-9.11-45.86,4.09-45.86,4.09S227.19,73.2,218,73.2c-36,0-48,40.85-68,40.85S118.08,73.2,82,73.2c-9.23,0,7.65,16.34,7.65,16.34s-30.14-13.2-45.86-4.09C35,90.56,57.42,98.22,57.42,98.22S23.79,88.52,0,131.92v30.2c7.39-9.62,21.74-20.33,48.84-19.48,0,0-20.42-5.1-15.83-11.23s71.49-9.19,86.3,37.28c14.23,44.64-23.13,76.39-52.68,76.59-35.79.24-51,20.69-54.84,43.54a36.27,36.27,0,0,0,24.59,9.57H263.62a36.27,36.27,0,0,0,24.59-9.57c-3.81-22.85-19-43.3-54.84-43.54-29.55-.2-66.91-31.95-52.68-76.59,14.81-46.47,81.7-43.41,86.3-37.28s-15.83,11.23-15.83,11.23c27.1-.85,41.45,9.86,48.84,19.48v-30.2C276.21,88.52,242.58,98.22,242.58,98.22Z" fill="none"/></clipPath><radialGradient id="radial-gradient" cx="150" cy="228.35" r="85.76" gradientUnits="userSpaceOnUse"><stop offset="0" stop-color="#3f312b"/><stop offset="0.3" stop-color="#685244" stop-opacity="0.76"/><stop offset="0.89" stop-color="#d1a786" stop-opacity="0.13"/><stop offset="1" stop-color="#e7b893" stop-opacity="0"/></radialGradient></defs><path d="M263.62,345H36.38A36.38,36.38,0,0,1,0,308.62V259.14H300v49.48A36.38,36.38,0,0,1,263.62,345Z" fill="url(#linear-gradient)"/><rect y="45" width="300" height="253.39" rx="36.38" fill="#765b46"/><path d="M242.58,98.22s22.4-7.66,13.59-12.77c-15.72-9.11-45.86,4.09-45.86,4.09S227.19,73.2,218,73.2c-36,0-48,40.85-68,40.85S118.08,73.2,82,73.2c-9.23,0,7.65,16.34,7.65,16.34s-30.14-13.2-45.86-4.09C35,90.56,57.42,98.22,57.42,98.22S23.79,88.52,0,131.92v30.2c7.39-9.62,21.74-20.33,48.84-19.48,0,0-20.42-5.1-15.83-11.23s71.49-9.19,86.3,37.28c14.23,44.64-23.13,76.39-52.68,76.59-35.79.24-51,20.69-54.84,43.54a36.27,36.27,0,0,0,24.59,9.57H263.62a36.27,36.27,0,0,0,24.59-9.57c-3.81-22.85-19-43.3-54.84-43.54-29.55-.2-66.91-31.95-52.68-76.59,14.81-46.47,81.7-43.41,86.3-37.28s-15.83,11.23-15.83,11.23c27.1-.85,41.45,9.86,48.84,19.48v-30.2C276.21,88.52,242.58,98.22,242.58,98.22Z" fill="#e7b893"/><g clip-path="url(#clip-path)"><circle cx="150" cy="228.35" r="88.96" fill="url(#radial-gradient)"/></g><path d="M131.43,211.86c-5.38-5.23-2.07-36.4,18.59-36.4s23.87,31.28,18.6,36.4S136.81,217.1,131.43,211.86Z" fill="#765b46"/><path d="M161,226.39s1.09-5.26-4.91-5.26c-4.42,0-7.78,13.12,1.7,13.07,10.94-.06,18.57-11.48,12.61-19.35-5.46-7.21-12.26-6.78-20.35-6.78s-14.89-.43-20.35,6.78c-6,7.87,1.67,19.29,12.61,19.35,9.48.05,6.12-13.07,1.7-13.07-6,0-4.91,5.26-4.91,5.26" fill="#3f312b" stroke="#231612" stroke-linecap="round" stroke-miterlimit="10" stroke-width="5"/><path d="M110.55,230.84l1.45,5.61s-7.83,5.21-7.83,13.28,6.13,16.51,12.77,16.51" fill="none" stroke="#765b46" stroke-linecap="round" stroke-miterlimit="10" stroke-width="5"/><path d="M189.45,230.84,188,236.45s7.83,5.21,7.83,13.28-6.13,16.51-12.77,16.51" fill="none" stroke="#765b46" stroke-linecap="round" stroke-miterlimit="10" stroke-width="5"/><path d="M154,269a11,11,0,0,1-3.89.51,12.36,12.36,0,0,1-4-.51" fill="none" stroke="#765b46" stroke-linecap="round" stroke-miterlimit="10" stroke-width="5"/><path d="M126.48,245.35s3.52,6.38,23.52,6.38,23.52-6.38,23.52-6.38" fill="none" stroke="#231612" stroke-linecap="round" stroke-miterlimit="10" stroke-width="5"/><path d="M138.17,60.94s-16,7.82-10.61,15S150,73.2,150,73.2s-9.51,9.7,0,16c12.34,8.17,20.86-13.29,20.86-13.29" fill="none" stroke="#593e2d" stroke-linecap="round" stroke-miterlimit="10" stroke-width="4"/><circle cx="242.58" cy="189.94" r="36.45" fill="#593e2d"/><circle cx="57.42" cy="189.94" r="36.45" fill="#593e2d"/><path d="M279,200.06a36.45,36.45,0,1,1-72.9,0c0-20.13,16.32-25.42,36.45-25.42S279,179.93,279,200.06Z" fill="#fff"/><path d="M93.87,200.06a36.45,36.45,0,0,1-72.9,0c0-20.13,16.32-25.42,36.45-25.42S93.87,179.93,93.87,200.06Z" fill="#fff"/><path d="M89.18,197.42A13.21,13.21,0,0,1,70,179.52a22.94,22.94,0,1,0,19.19,17.9Zm-32,19.76a5.46,5.46,0,1,1,5.45-5.45A5.45,5.45,0,0,1,57.14,217.18Z" fill="#414042"/><path d="M255.63,197.29a13.21,13.21,0,0,1-19.07-17.76,23,23,0,1,0,19.07,17.76Zm-32.22,19.89a5.46,5.46,0,1,1,5.46-5.45A5.45,5.45,0,0,1,223.41,217.18Z" fill="#414042"/></svg>