<?xml version="1.0" encoding="UTF-8" standalone="no"?>
<!-- Created with Inkscape (http://www.inkscape.org/) -->

<svg
   width="300"
   height="345"
   viewBox="0 0 79.374998 91.28125"
   version="1.1"
   id="svg1"
   inkscape:export-filename="watermelon.svg"
   inkscape:export-xdpi="96"
   inkscape:export-ydpi="96"
   xmlns:inkscape="http://www.inkscape.org/namespaces/inkscape"
   xmlns:sodipodi="http://sodipodi.sourceforge.net/DTD/sodipodi-0.dtd"
   xmlns:xlink="http://www.w3.org/1999/xlink"
   xmlns="http://www.w3.org/2000/svg"
   xmlns:svg="http://www.w3.org/2000/svg">
  <sodipodi:namedview
     id="namedview1"
     pagecolor="#505050"
     bordercolor="#ffffff"
     borderopacity="1"
     inkscape:showpageshadow="0"
     inkscape:pageopacity="0"
     inkscape:pagecheckerboard="1"
     inkscape:deskcolor="#505050"
     inkscape:document-units="px">
    <inkscape:page
       x="0"
       y="0"
       width="79.375"
       height="91.28125"
       id="page2"
       margin="0"
       bleed="0" />
  </sodipodi:namedview>
  <defs
     id="defs1">
    <linearGradient
       inkscape:collect="always"
       xlink:href="#linearGradient266"
       id="linearGradient254"
       gradientUnits="userSpaceOnUse"
       gradientTransform="translate(-1478.1739,-23.1028)"
       x1="150"
       y1="305"
       x2="150"
       y2="345" />
    <linearGradient
       id="linearGradient266"
       inkscape:collect="always">
      <stop
         style="stop-color:#264718;stop-opacity:1;"
         offset="0"
         id="stop265" />
      <stop
         style="stop-color:#316837;stop-opacity:1;"
         offset="1"
         id="stop266" />
    </linearGradient>
    <inkscape:path-effect
       effect="fillet_chamfer"
       id="path-effect240"
       is_visible="true"
       lpeversion="1"
       nodesatellites_param="F,0,0,1,0,10.334202,0,1 @ F,0,0,1,0,0,0,1 @ F,0,0,1,0,7.7445736,0,1 @ F,0,0,1,0,1.0072507,0,1"
       radius="0"
       unit="px"
       method="auto"
       mode="F"
       chamfer_steps="1"
       flexible="false"
       use_knot_distance="true"
       apply_no_radius="true"
       apply_with_radius="true"
       only_selected="false"
       hide_knots="false" />
    <inkscape:path-effect
       effect="fillet_chamfer"
       id="path-effect242"
       is_visible="true"
       lpeversion="1"
       nodesatellites_param="F,0,0,1,0,10.334202,0,1 @ F,0,0,1,0,0,0,1 @ F,0,0,1,0,7.7445736,0,1 @ F,0,0,1,0,1.0072507,0,1"
       radius="0"
       unit="px"
       method="auto"
       mode="F"
       chamfer_steps="1"
       flexible="false"
       use_knot_distance="true"
       apply_no_radius="true"
       apply_with_radius="true"
       only_selected="false"
       hide_knots="false" />
    <inkscape:path-effect
       effect="fillet_chamfer"
       id="path-effect244"
       is_visible="true"
       lpeversion="1"
       nodesatellites_param="F,0,0,1,0,10.334202,0,1 @ F,0,0,1,0,0,0,1 @ F,0,0,1,0,7.7445736,0,1 @ F,0,0,1,0,1.0072507,0,1"
       radius="0"
       unit="px"
       method="auto"
       mode="F"
       chamfer_steps="1"
       flexible="false"
       use_knot_distance="true"
       apply_no_radius="true"
       apply_with_radius="true"
       only_selected="false"
       hide_knots="false" />
    <inkscape:path-effect
       effect="fillet_chamfer"
       id="path-effect247"
       is_visible="true"
       lpeversion="1"
       nodesatellites_param="F,0,0,1,0,10.334202,0,1 @ F,0,0,1,0,0,0,1 @ F,0,0,1,0,7.7445736,0,1 @ F,0,0,1,0,1.0072507,0,1"
       radius="0"
       unit="px"
       method="auto"
       mode="F"
       chamfer_steps="1"
       flexible="false"
       use_knot_distance="true"
       apply_no_radius="true"
       apply_with_radius="true"
       only_selected="false"
       hide_knots="false" />
    <inkscape:path-effect
       effect="fillet_chamfer"
       id="path-effect250"
       is_visible="true"
       lpeversion="1"
       nodesatellites_param="F,0,0,1,0,10.334202,0,1 @ F,0,0,1,0,0,0,1 @ F,0,0,1,0,7.7445736,0,1 @ F,0,0,1,0,1.0072507,0,1"
       radius="0"
       unit="px"
       method="auto"
       mode="F"
       chamfer_steps="1"
       flexible="false"
       use_knot_distance="true"
       apply_no_radius="true"
       apply_with_radius="true"
       only_selected="false"
       hide_knots="false" />
    <inkscape:path-effect
       effect="fillet_chamfer"
       id="path-effect254"
       is_visible="true"
       lpeversion="1"
       nodesatellites_param="F,0,0,1,0,10.334202,0,1 @ F,0,0,1,0,0,0,1 @ F,0,0,1,0,7.7445736,0,1 @ F,0,0,1,0,1.0072507,0,1"
       radius="0"
       unit="px"
       method="auto"
       mode="F"
       chamfer_steps="1"
       flexible="false"
       use_knot_distance="true"
       apply_no_radius="true"
       apply_with_radius="true"
       only_selected="false"
       hide_knots="false" />
  </defs>
  <g
     inkscape:label="Layer 1"
     inkscape:groupmode="layer"
     id="layer1">
    <g
       id="g4"
       transform="matrix(0.26458333,0,0,0.26458333,391.10016,6.1126158)">
      <path
         class="cls-2"
         d="m -1478.1739,201.3472 v 84.17 a 36.38,36.38 0 0 0 36.38,36.38 h 227.24 a 36.38,36.38 0 0 0 36.38,-36.38 v -84.17 c 0,0 0,-137.83 -150,-137.83 -150,0 -150,137.83 -150,137.83 z"
         id="path152"
         style="display:inline;fill:url(#linearGradient254);fill-opacity:1" />
      <path
         class="cls-2"
         d="m -1478.1739,161.3472 v 84.17 c 0,20.09212 16.2879,36.38 36.38,36.38 h 227.24 c 20.0921,0 36.38,-16.28788 36.38,-36.38 v -84.17 c 0,0 0,-116.48169 -150,-116.48169 -150,0 -150,116.48169 -150,116.48169 z"
         id="path153"
         style="fill:#31642f;fill-opacity:1"
         sodipodi:nodetypes="csssscsc" />
      <path
         id="path403"
         style="fill:#1f3c15;fill-opacity:0.24026;stroke-width:2.01404;stroke-linejoin:round"
         d="m -1340.1367,45.158225 c -6.1274,0.26844 -11.9516,0.763504 -17.5469,1.423836 -3.8262,3.388776 -8.3891,6.913574 -10.0586,9.958981 -0.4467,2.497439 7.2176,1.400404 10.6191,2.919926 7.1093,3.175915 20.0957,12.7871 20.0957,12.7871 l -18.4531,16.218753 c 0,0 26.2973,-7.118759 33.1133,-16.224602 0.867,-2.344383 -1.6462,-3.344752 -2.9941,-4.261718 -6.8002,-4.32619 -13.6002,-8.652344 -20.4004,-12.978522 1.8628,-3.290045 3.7651,-6.551703 5.625,-9.843754 z m 44.5664,1.830088 c -3.7299,3.263975 -7.9969,6.629103 -9.5996,9.552729 -0.4467,2.497439 7.2157,1.400404 10.6172,2.919926 7.1093,3.175915 20.0957,12.7871 20.0957,12.7871 l -18.4532,16.218753 c 0,0 26.2973,-7.118759 33.1133,-16.224602 0.867,-2.344383 -1.6462,-3.344752 -2.9941,-4.261718 -6.8002,-4.32619 -13.6002,-8.652344 -20.4004,-12.978522 1.023,-1.806703 2.0447,-3.614111 3.0879,-5.406251 -4.8973,-1.046638 -10.0874,-1.893641 -15.4668,-2.607415 z m -108.0977,10.980468 c -3.566,1.457355 -7.0038,2.986773 -10.2363,4.626943 6.7449,4.063588 14.3066,9.652344 14.3066,9.652344 l -18.4531,16.218753 c 0,0 26.2973,-7.118759 33.1133,-16.224602 0.867,-2.344383 -1.6462,-3.344752 -2.9941,-4.261718 -5.2456,-3.337161 -10.4909,-6.674583 -15.7364,-10.01172 z m 184.9199,20.310548 -11.5918,10.187492 c 0,0 8.1368,-2.250128 16.5274,-5.76953 -1.5682,-1.498275 -3.2262,-2.965704 -4.9356,-4.417962 z m -244.2402,30.773431 c -1.8085,3.21993 -3.3978,6.41198 -4.8008,9.54297 -0.1825,1.70802 -0.7895,3.44973 -2.039,5.16016 -0.057,0.0574 -0.1453,0.1199 -0.2051,0.17773 -3.3525,8.55472 -5.2419,16.23678 -6.3984,22.52343 4.4859,3.87764 8.7207,8.41798 8.7207,8.41798 l -10.4629,6.66406 v 5.17187 c 8.9425,-2.94099 19.5027,-7.07989 25.125,-11.83984 1.8813,-2.34438 -0.1992,-3.34475 -1.1504,-4.26172 -4.9285,-4.32617 -9.8567,-8.65233 -14.7852,-12.97852 4.2414,-4.24633 8.5697,-8.40137 12.7559,-12.70507 0.8879,-2.08228 1.0485,-4.15157 1.6426,-6.22852 0.8398,-3.58299 -3.5123,-6.98338 -8.4024,-9.64453 z m 278.3516,19.44531 c -5.5086,3.60017 -12.282,7.41286 -15.4785,10.67188 -1.5272,2.49743 6.6094,1.4004 9.3535,2.91992 4.1762,2.3126 8.9216,7.01613 11.7754,9.95704 -0.7891,-5.91026 -2.3714,-14.09477 -5.6504,-23.54884 z m 6.1679,27.82422 -23.1972,14.77343 c 0,0 12.0123,-2.93198 23.4922,-7.41601 v -2.33203 c 0,0 -5e-4,-1.8303 -0.295,-5.02539 z m -10.4336,21.58008 c 0,0 12.1983,10.44415 5.2989,19.88868 -4.7066,4.70306 -17.1382,10.66227 -21.7989,15.41405 -1.5272,2.49743 6.6095,1.40041 9.3536,2.91993 5.7353,3.1759 14.5644,12.78711 14.5644,12.78711 l -25.4707,16.21874 c 0,0 16.0597,-3.90737 28.7813,-9.62109 v -19.82031 c -1.5279,-1.34123 -3.0561,-2.68221 -4.584,-4.02344 1.5243,-1.52609 3.0478,-3.05276 4.584,-4.5664 v -24.79688 c -5.292,-2.67182 -10.7286,-4.40039 -10.7286,-4.40039 z m -289.2714,0.79297 v 1.51562 c 3.153,3.57961 8.0057,10.80532 3.0566,17.58009 -0.8022,0.80159 -1.8823,1.64932 -3.0566,2.51171 v 23.36523 c 2.945,2.81695 5.1757,5.24415 5.1757,5.24415 l -5.1757,3.29492 v 6.69922 c 7.5343,-2.74383 15.3184,-6.17371 19.8379,-10 1.8813,-2.34438 -0.1992,-3.34475 -1.1504,-4.26172 -4.9285,-4.32618 -9.8567,-8.65234 -14.7852,-12.97852 4.2414,-4.24633 8.5697,-8.40137 12.7559,-12.70508 0.8879,-2.08227 1.0465,-4.15158 1.6406,-6.22851 1.5243,-6.50345 -13.2559,-12.2594 -18.2988,-14.03711 z" />
      <path
         class="cls-2"
         d="m -1468.6233,165.06168 v 56.03888 c 0,18.473 15.2508,33.44833 34.0636,33.44833 h 212.7716 c 18.8128,0 34.0636,-14.97533 34.0636,-33.44833 v -56.03888 c 0,0 0,-107.09504 -140.4494,-107.09504 -140.4494,0 -140.4494,107.09504 -140.4494,107.09504 z"
         id="path154"
         style="fill:#294f1f;fill-opacity:1;stroke-width:0.927834"
         sodipodi:nodetypes="csssscsc" />
      <path
         id="path399"
         style="fill:#1f3c15;fill-opacity:0.24026;stroke-width:1.8434;stroke-linejoin:round"
         d="m -3563.2969,465.23836 c 0,0 16.7156,8.74937 13.9023,16.66134 -2.6719,3.9399 -12.5259,8.93212 -15.1308,12.91283 -0.4467,2.09218 7.2157,1.17316 10.6172,2.44611 7.1093,2.66056 20.0957,10.71215 20.0957,10.71215 l -10.0664,7.41358 a 36.38,30.476626 0 0 0 7.1425,1.6951 c 7.0065,-2.39721 14.4068,-5.5577 17.584,-9.11359 0.867,-1.96396 -1.6443,-2.802 -2.9922,-3.57017 -6.8002,-3.62418 -13.6021,-7.24833 -20.4023,-10.8725 2.4043,-3.55728 4.9355,-7.03808 7.2598,-10.64343 -0.013,-1.74439 -0.7484,-3.4779 -1.0528,-5.21781 -1.5381,-6.49953 -26.957,-12.42361 -26.957,-12.42361 z m 62.5703,0 c 0,0 16.7157,8.74937 13.9024,16.66134 -2.6719,3.9399 -12.526,8.93212 -15.1309,12.91283 -0.4467,2.09218 7.2157,1.17316 10.6172,2.44611 7.1093,2.66056 20.0957,10.71215 20.0957,10.71215 l -13.2852,9.78279 h 8.4102 c 7.537,-2.45438 16.0593,-5.89764 19.5351,-9.7877 0.867,-1.96396 -1.6442,-2.802 -2.9921,-3.57017 -6.8002,-3.62418 -13.6022,-7.24833 -20.4024,-10.8725 2.4043,-3.55728 4.9355,-7.03808 7.2598,-10.64343 -0.013,-1.74439 -0.7484,-3.4779 -1.0528,-5.21781 -1.5381,-6.49953 -26.957,-12.42361 -26.957,-12.42361 z m 62.5703,0 c 0,0 16.7157,8.74937 13.9024,16.66134 -2.6719,3.9399 -12.526,8.93212 -15.1309,12.91283 -0.4467,2.09218 7.2157,1.17316 10.6172,2.44611 7.1093,2.66056 20.0957,10.71215 20.0957,10.71215 l -13.2852,9.78279 h 8.4102 c 7.537,-2.45438 16.0593,-5.89764 19.5352,-9.7877 0.867,-1.96396 -1.6443,-2.802 -2.9922,-3.57017 -6.8002,-3.62418 -13.6022,-7.24833 -20.4024,-10.8725 2.4043,-3.55728 4.9355,-7.03808 7.2598,-10.64343 -0.013,-1.74439 -0.7483,-3.4779 -1.0527,-5.21781 -1.5381,-6.49953 -26.9571,-12.42361 -26.9571,-12.42361 z m 62.5703,0 c 0,0 16.7157,8.74937 13.9024,16.66134 -2.6719,3.9399 -12.526,8.93212 -15.1309,12.91283 -0.4467,2.09218 7.2157,1.17316 10.6172,2.44611 7.1093,2.66056 20.0957,10.71215 20.0957,10.71215 l -13.2851,9.78279 h 8.4101 c 7.537,-2.45438 16.0593,-5.89764 19.5352,-9.7877 0.867,-1.96396 -1.6443,-2.802 -2.9922,-3.57017 -6.8002,-3.62418 -13.6022,-7.24833 -20.4024,-10.8725 2.4043,-3.55728 4.9355,-7.03808 7.2598,-10.64343 -0.013,-1.74439 -0.7483,-3.4779 -1.0527,-5.21781 -1.5381,-6.49953 -26.9571,-12.42361 -26.9571,-12.42361 z m 62.5704,0 c 0,0 16.7156,8.74937 13.9023,16.66134 -2.6719,3.9399 -12.526,8.93212 -15.1309,12.91283 -0.4467,2.09218 7.2157,1.17316 10.6172,2.44611 7.1093,2.66056 20.0957,10.71215 20.0957,10.71215 l -12.1289,8.93197 a 36.38,30.476626 0 0 0 22.6289,-13.12881 c -6.411,-3.41677 -12.8233,-6.83398 -19.2343,-10.25074 2.4043,-3.55728 4.9354,-7.03808 7.2597,-10.64343 -0.013,-1.74439 -0.7483,-3.4779 -1.0527,-5.21781 -1.5381,-6.49953 -26.957,-12.42361 -26.957,-12.42361 z"
         transform="matrix(1,0,0,1.1937017,2088.8301,-296.14684)" />
      <path
         class="cls-2"
         d="m -1468.6233,171.06168 v 56.03888 c 0,18.473 15.2508,33.44833 34.0636,33.44833 h 212.7716 c 18.8128,0 34.0636,-14.97533 34.0636,-33.44833 v -56.03888 c 0,0 0,-107.09504 -140.4494,-107.09504 -140.4494,0 -140.4494,107.09504 -140.4494,107.09504 z"
         id="path155"
         style="fill:#dbdfdb;fill-opacity:1;stroke-width:0.927834"
         sodipodi:nodetypes="csssscsc" />
      <path
         class="cls-2"
         d="m -1423.6688,160.24375 v 38.10216 c 0,12.56023 10.3694,22.74231 23.1607,22.74231 h 144.6684 c 12.7913,0 23.1607,-10.18208 23.1607,-22.74231 v -38.10216 c 0,0 0,-72.81644 -95.4949,-72.81644 -95.4949,0 -95.4949,72.81644 -95.4949,72.81644 z"
         id="path157"
         style="fill:#c7d7cc;fill-opacity:1;stroke-width:0.630856"
         sodipodi:nodetypes="csssscsc" />
      <path
         class="cls-2"
         d="m -1423.6688,168.24375 v 38.10216 c 0,12.56023 10.3694,22.74231 23.1607,22.74231 h 144.6684 c 12.7913,0 23.1607,-10.18208 23.1607,-22.74231 v -38.10216 c 0,0 0,-72.81644 -95.4949,-72.81644 -95.4949,0 -95.4949,72.81644 -95.4949,72.81644 z"
         id="path158"
         style="fill:#f4696d;fill-opacity:1;stroke-width:0.630856"
         sodipodi:nodetypes="csssscsc" />
      <path
         id="path165"
         style="fill:#de4146;fill-opacity:1;stroke:none;stroke-width:5;stroke-linejoin:round"
         d="m -1421.1817,153.01048 c -2.4198,8.87356 -2.4863,15.23242 -2.4863,15.23242 v 38.10352 c 0,12.56023 10.3688,22.74219 23.1601,22.74219 h 144.668 c 12.7913,0 23.1601,-10.18196 23.1601,-22.74219 V 168.2429 c 0,0 -0.067,-6.35886 -2.4863,-15.23242 -1.4377,12.73424 -4.0221,27.39602 -8.7226,36.26758 -5.5712,10.51472 -15.0526,19.47443 -25.7129,24.76172 -14.4135,7.14878 -39.0941,7.9787 -58.909,7.9635 -19.5925,-0.015 -43.8221,-0.81472 -58.2356,-7.9635 -10.6603,-5.28729 -20.1417,-14.247 -25.7129,-24.76172 -4.7005,-8.87156 -7.2849,-23.53334 -8.7226,-36.26758 z"
         sodipodi:nodetypes="ccssssccssassc" />
      <path
         id="path166"
         style="fill:#e33c43;fill-opacity:0.352941;stroke-linejoin:round"
         d="m -1329.7169,95.46361 c -8.3149,0.0709 -15.9321,0.67183 -22.8398,1.75976 -24.6936,20.63837 -49.307,41.72723 -70.7734,66.66406 -0.2994,2.66294 -0.3379,4.35547 -0.3379,4.35547 v 38.10352 c 0,4.24888 1.2078,8.21078 3.2734,11.61328 a 5.4005401,5.4005401 0 0 0 2.8418,-2.81445 c 16.479,-42.72874 50.4746,-79.33419 86.3574,-115.76367 a 5.4005401,5.4005401 0 0 0 1.4785,-3.91797 z m 22.6543,1.33593 c -30.9588,37.81944 -61.2557,77.35671 -71.0449,131.32618 a 5.4005401,5.4005401 0 0 0 0.1094,0.96289 h 77.3574 a 5.4005401,5.4005401 0 0 0 -0.1934,-1.51953 c -11.4977,-39.21491 -0.7108,-81.69895 15.4239,-125.60938 a 5.4005401,5.4005401 0 0 0 0.068,-0.26758 c -6.4182,-2.15099 -13.6414,-3.81869 -21.7207,-4.89258 z m 8.3008,6.96875 c 0.4014,0.0826 0.7766,0.17625 1.1719,0.26172 -14.3964,40.25109 -24.4489,80.68736 -15.3906,119.65821 h -53.1739 c 10.3991,-47.76928 37.9437,-83.93249 67.3926,-119.91993 z m 51.5,24.32422 a 5.4005401,5.4005401 0 0 0 -1.7383,1.88867 c -16.2344,31.03074 -31.7725,63.18883 -28.7148,99.10743 h 21.875 c 3.3051,0 6.4425,-0.69104 9.2871,-1.91602 -1.126,-21.93959 5.193,-45.51444 12.5058,-69.63281 -1.6266,-7.81448 -5.2156,-18.81616 -13.2148,-29.44727 z m -130.6445,5.29688 c -15.6891,18.1284 -29.6668,37.10408 -40.3613,57.57422 v -16.29493 c 12.3754,-14.83004 26.0597,-28.33599 40.3613,-41.27929 z m 133.8496,10.87304 c 0.5872,1.31339 1.1199,2.60339 1.5957,3.86719 -7.6896,24.99982 -15.3232,50.41789 -14.9199,75.5586 h -9.6778 c -1.0215,-27.34659 9.7274,-53.25989 23.002,-79.42579 z" />
      <path
         id="path168"
         style="fill:#fec7ca;fill-opacity:1;stroke:none;stroke-width:5;stroke-linejoin:round"
         d="m -1335.043,95.59251 c -2.6715,0.10336 -5.2549,0.27083 -7.7676,0.49024 -28.5251,23.78048 -56.9935,47.62453 -80.8574,76.58398 v 33.67969 c 0,2.39028 0.3798,4.69123 1.0761,6.85547 16.9988,-44.07657 51.6,-81.11285 87.5489,-117.60938 z m 34.1543,2.16992 c -31.592,38.4981 -62.1779,77.69169 -71.9063,131.32618 h 66.7793 c -12.0458,-41.08394 -0.7142,-84.76414 15.5371,-128.99219 -3.2669,-0.90818 -6.7634,-1.67206 -10.4101,-2.33399 z m 56.6738,34.72266 c -16.2467,31.05432 -31.1688,62.3289 -28.0938,96.60352 h 16.4688 c 1.3482,0 2.6621,-0.13642 3.9473,-0.35352 -1.6753,-26.11882 6.7332,-53.49812 15.1543,-80.87891 -1.6878,-4.80915 -4.0872,-10.0774 -7.4766,-15.37109 z" />
      <path
         id="path169"
         style="fill:#ea7377;fill-opacity:0.419608;stroke:none;stroke-width:5;stroke-linejoin:round"
         d="m -1419.1114,167.26243 c -1.5362,1.7822 -3.0557,3.58289 -4.5566,5.4043 v 33.67969 c 0,0.70132 0.044,1.39299 0.1074,2.07812 0.022,0.23821 0.054,0.47298 0.084,0.70899 0.056,0.44764 0.1251,0.89087 0.207,1.33008 0.05,0.26528 0.099,0.53096 0.1582,0.79297 0.1005,0.44785 0.2188,0.88865 0.3457,1.32617 0.06,0.20565 0.1084,0.41586 0.1738,0.61914 3.0325,-7.86302 6.6465,-15.4935 10.7071,-22.94531 -0.1841,-0.32958 -0.3979,-0.64576 -0.5743,-0.97852 -2.9949,-5.65255 -5.1247,-13.65811 -6.6523,-22.01563 z m 169.168,31.00391 c -5.3667,6.56129 -12.2067,12.07765 -19.6582,15.77344 -0.9502,0.47125 -1.9494,0.91217 -2.9844,1.33008 -0.1997,4.52395 -0.1377,9.0923 0.2773,13.71875 h 16.4688 c 0.688,0 1.3644,-0.0439 2.0371,-0.10157 0.6237,-0.0591 1.2395,-0.14233 1.8496,-0.24414 0.02,-0.003 0.041,-0.004 0.061,-0.008 0,-6.5e-4 0,-0.001 0,-0.002 -0.6408,-9.99411 0.2016,-20.17414 1.9492,-30.4668 z m -120.7559,20.80274 c -0.7784,3.2845 -1.4796,6.62266 -2.0957,10.01953 h 66.7793 c -0.7365,-2.51201 -1.3813,-5.03351 -1.9473,-7.56446 -7.0165,0.37059 -14.0436,0.48351 -20.5468,0.47852 -13.4364,-0.0103 -29.053,-0.39048 -42.1895,-2.93359 z" />
      <path
         style="fill:#c7d7cc;fill-opacity:1;stroke:none;stroke-width:10.8;stroke-linejoin:round;stroke-dasharray:none;stroke-opacity:0.352941"
         d="m 20.28851,237.13067 c -2.51705,9.57478 -4.702088,23.30538 1.789412,27.80439 6.121811,4.2428 17.82433,-2.8439 24.984973,-8.07429 3.452745,-2.522 2.746778,-3.77126 -1.46087,-3.0153 -5.008375,0.89981 -11.319987,1.42068 -15.000333,-0.59597 -0.487252,-0.26699 -1.209685,-0.81489 -1.604289,-1.20641 -3.039715,-3.01598 -4.448269,-9.083 -5.095248,-14.45754 -0.6816,-5.66213 -2.163105,-5.97268 -3.613645,-0.45488 z"
         id="path171"
         sodipodi:nodetypes="cacac"
         inkscape:path-effect="#path-effect240"
         inkscape:original-d="m 23.376624,227.27272 c 0,0 -11.623082,30.5069 -1.298702,37.66234 9.210737,6.38362 31.054813,-12.87994 31.054813,-12.87994 0,0 -17.164498,5.35837 -23.376623,0.64935 -6.964955,-5.2797 -6.379488,-25.43175 -6.379488,-25.43175 z"
         transform="translate(-1477.8411,-31.15828)" />
      <path
         style="fill:#c7d7cc;fill-opacity:1;stroke:none;stroke-width:10.8;stroke-linejoin:round;stroke-dasharray:none;stroke-opacity:0.352941"
         d="m 20.28851,237.13067 c -2.51705,9.57478 -4.702088,23.30538 1.789412,27.80439 6.121811,4.2428 17.82433,-2.8439 24.984973,-8.07429 3.452745,-2.522 2.746778,-3.77126 -1.46087,-3.0153 -5.008375,0.89981 -11.319987,1.42068 -15.000333,-0.59597 -0.487252,-0.26699 -1.209685,-0.81489 -1.604289,-1.20641 -3.039715,-3.01598 -4.448269,-9.083 -5.095248,-14.45754 -0.6816,-5.66213 -2.163105,-5.97268 -3.613645,-0.45488 z"
         id="path173"
         sodipodi:nodetypes="cacac"
         inkscape:path-effect="#path-effect242"
         inkscape:original-d="m 23.376624,227.27272 c 0,0 -11.623082,30.5069 -1.298702,37.66234 9.210737,6.38362 31.054813,-12.87994 31.054813,-12.87994 0,0 -17.164498,5.35837 -23.376623,0.64935 -6.964955,-5.2797 -6.379488,-25.43175 -6.379488,-25.43175 z"
         transform="matrix(-1,0,0,1,-1185.5172,-22.58292)" />
      <path
         style="fill:#c7d7cc;fill-opacity:1;stroke:none;stroke-width:10.8;stroke-linejoin:round;stroke-dasharray:none;stroke-opacity:0.352941"
         d="m 22.630467,244.25874 c -2.666535,6.41044 -4.657315,14.4462 -0.095,18.11999 4.432407,3.56917 12.458363,-0.16976 18.097089,-3.67202 3.631117,-2.25532 2.89806,-3.77036 -1.374407,-3.72467 -3.140626,0.0336 -6.534827,-0.31873 -8.698109,-1.67363 -0.470639,-0.29477 -1.144738,-0.90472 -1.488051,-1.3416 -1.301478,-1.65619 -1.928506,-4.09594 -2.186658,-6.60981 -0.581466,-5.66227 -2.064869,-6.3631 -4.254869,-1.09826 z"
         id="path189"
         sodipodi:nodetypes="cacac"
         inkscape:path-effect="#path-effect244"
         inkscape:original-d="m 27.318432,235.05973 c 0,0 -12.98733,20.71247 -4.78296,27.319 7.316454,5.89154 24.424328,-8.12947 24.424328,-8.12947 0,0 -12.821427,2.429 -17.203688,-1.54479 -4.812197,-4.36365 -2.43768,-17.64474 -2.43768,-17.64474 z"
         transform="matrix(0.87272061,-0.21907192,0.10764431,0.95802393,-1489.0065,-108.59946)" />
      <path
         style="fill:#c7d7cc;fill-opacity:1;stroke:none;stroke-width:10.8;stroke-linejoin:round;stroke-dasharray:none;stroke-opacity:0.352941"
         d="m 22.630467,244.25874 c -2.666535,6.41044 -4.657315,14.4462 -0.095,18.11999 4.432407,3.56917 12.458363,-0.16976 18.097089,-3.67202 3.631117,-2.25532 2.89806,-3.77036 -1.374407,-3.72467 -3.140626,0.0336 -6.534827,-0.31873 -8.698109,-1.67363 -0.470639,-0.29477 -1.144738,-0.90472 -1.488051,-1.3416 -1.301478,-1.65619 -1.928506,-4.09594 -2.186658,-6.60981 -0.581466,-5.66227 -2.064869,-6.3631 -4.254869,-1.09826 z"
         id="path190"
         sodipodi:nodetypes="cacac"
         inkscape:path-effect="#path-effect247"
         inkscape:original-d="m 27.318432,235.05973 c 0,0 -12.98733,20.71247 -4.78296,27.319 7.316454,5.89154 24.424328,-8.12947 24.424328,-8.12947 0,0 -12.821427,2.429 -17.203688,-1.54479 -4.812197,-4.36365 -2.43768,-17.64474 -2.43768,-17.64474 z"
         transform="matrix(0.73422934,-0.5201356,0.44714449,0.85408369,-1507.1505,41.79469)" />
      <path
         style="fill:#c7d7cc;fill-opacity:1;stroke:none;stroke-width:10.8;stroke-linejoin:round;stroke-dasharray:none;stroke-opacity:0.352941"
         d="m 19.271391,236.75347 c -4.247316,10.96058 -9.241249,28.19981 -1.329511,33.69631 7.609027,5.2862 21.808297,-5.84098 29.643494,-12.99353 3.158056,-2.8829 2.494689,-3.7361 -1.458352,-2.10728 -5.991359,2.46869 -14.370058,5.0289 -19.076527,2.54264 -0.491177,-0.25947 -1.21801,-0.80275 -1.611781,-1.19502 -3.825533,-3.81102 -4.071199,-12.31027 -3.515193,-19.19904 0.458869,-5.68527 -0.590442,-6.06445 -2.65213,-0.74408 z"
         id="path192"
         sodipodi:nodetypes="cacac"
         inkscape:path-effect="#path-effect250"
         inkscape:original-d="m 23.376624,227.27272 c 0,0 -17.3478887,34.90067 -5.434744,43.17706 10.870329,7.55192 35.190855,-18.39466 35.190855,-18.39466 0,0 -19.602068,10.77525 -26.933189,5.30024 -8.069592,-6.02651 -2.822922,-30.08264 -2.822922,-30.08264 z"
         transform="matrix(-0.63458536,0,0,0.63458536,-1194.7459,-21.44798)" />
      <path
         style="fill:#c7d7cc;fill-opacity:1;stroke:none;stroke-width:10.8;stroke-linejoin:round;stroke-dasharray:none;stroke-opacity:0.352941"
         d="m 17.818614,249.07288 c -1.934426,7.01803 -3.198648,15.77147 1.22621,18.89528 3.832886,2.70589 10.745528,-1.15063 15.756516,-4.7557 3.470073,-2.49649 2.58843,-4.12405 -1.682554,-4.17271 -2.234434,-0.0255 -4.495414,-0.30837 -6.076817,-1.13595 -0.491885,-0.25741 -1.197408,-0.83183 -1.56516,-1.2484 -1.470895,-1.66612 -2.438042,-4.34248 -3.073702,-7.09925 -1.280321,-5.55257 -3.068842,-5.982 -4.584493,-0.48327 z"
         id="path236"
         sodipodi:nodetypes="cacac"
         inkscape:path-effect="#path-effect254"
         inkscape:original-d="m 21.187968,239.31033 c 0,0 -9.968798,23.13317 -2.143144,28.65783 6.482978,4.57677 21.776722,-9.62065 21.776722,-9.62065 0,0 -10.835168,2.09413 -14.622,-0.99215 -4.839092,-3.94388 -5.011578,-18.04503 -5.011578,-18.04503 z"
         transform="matrix(-0.63458536,0,0,0.63458536,-1197.3501,-9.81604)" />
      <path
         style="fill:#ffffff;fill-opacity:0.13881;stroke-width:9.82775;stroke-linejoin:round;stroke-opacity:0.352941"
         d="m -1359.0892,139.08738 c 18.154,19.94763 42.6165,38.94781 67.0866,36.65046 18.4039,-1.72782 50.7719,-15.01551 46.3218,-36.65046 -9.6684,-47.00545 -98.0756,-54.21763 -119.7976,-13.5028 -2.325,4.35777 3.2142,10.01406 6.3892,13.5028 z"
         id="path238"
         sodipodi:nodetypes="aaaaa" />
    </g>
  </g>
</svg>
