<svg id="Layer_1" data-name="Layer 1" xmlns="http://www.w3.org/2000/svg" xmlns:xlink="http://www.w3.org/1999/xlink" viewBox="0 0 300 345"><defs><linearGradient id="linear-gradient" x1="150" y1="356.11" x2="150" y2="161.16" gradientUnits="userSpaceOnUse"><stop offset="0" stop-color="#2f2c38"/><stop offset="0.69" stop-color="#15141a"/></linearGradient></defs><path d="M263.62,345H36.38A36.38,36.38,0,0,1,0,308.62V259.14H300v49.48A36.38,36.38,0,0,1,263.62,345Z" fill="url(#linear-gradient)"/><rect y="45" width="300" height="253.39" rx="36.38" fill="#2f2c38"/><path d="M14,49l1.28-13.75s20.83-4.72,26.24,8c0,0-6.85-11.35-5.06-28.2,0,0,22.32,1.69,33,18.59a61.58,61.58,0,0,1,1.16-28.8s15.58,3.64,29.88,22.33c0,0,2.48-4.77,11.61-24.43,0,0,17.1,8.09,19.76,20.85,0,0,7-16.26,18.1-23.66,11.11,7.4,18.1,23.66,18.1,23.66,2.66-12.76,19.76-20.85,19.76-20.85,9.13,19.66,11.61,24.43,11.61,24.43,14.3-18.69,29.88-22.33,29.88-22.33a61.58,61.58,0,0,1,1.16,28.8c10.67-16.9,33-18.59,33-18.59,1.79,16.85-5.06,28.2-5.06,28.2,5.41-12.75,26.24-8,26.24-8L286,49v58.62L14.68,105.75Z" fill="#15141a"/><path d="M249.38,129.64c-14.64,17-36.77,26.42-36.77,26.42.51-19.27,4.77-27.27,4.77-27.27-10.39,19.07-41.71,32.68-41.71,32.68,3.07-5.1,2.9-20.42,2.9-20.42-16.45,12.86-27.63,40.12-28.57,42.46l.07.18h-.14l.07-.18c-.94-2.34-12.12-29.6-28.57-42.46,0,0-.17,15.32,2.9,20.42,0,0-31.32-13.61-41.71-32.68,0,0,4.26,8,4.77,27.27,0,0-22.13-9.4-36.77-26.42,0,0-5.06,8.27-3,18.1L0,147.24v16.38c15.22,52.19,72.25,46.25,102.12,112,8.51,18.71,12,69.42,47.88,69.42s39.37-50.71,47.88-69.42c29.87-65.71,86.9-59.77,102.12-112V147.74H252.42C254.44,137.91,249.38,129.64,249.38,129.64Z" fill="#15141a"/><path d="M285.49,52.31a85.18,85.18,0,0,1-6.68,22.37A281.85,281.85,0,0,0,267.3,104s7.3-28.73-6.24-39.45c0,0-1.1,1.8-11.14,10.16A43.61,43.61,0,0,0,238,90.12c1.61-4.43,4.22-15-2.18-33.26,0,0-31.17,10.15-36,39.33.87-5.21,4.5-32.9-12.72-49.41a91.06,91.06,0,0,1-4.83,18.27c-2.95,8-8.84,17.42-9.72,26.16,0,0-1.67-46.21-24.26-68.82-23.36,23.74-20.68,68.82-20.68,68.82-.88-8.74-6.77-18.19-9.72-26.16A91.06,91.06,0,0,1,113,46.78C95.76,63.29,99.39,91,100.26,96.19,95.38,67,64.21,56.86,64.21,56.86,57.81,75.1,60.42,85.69,62,90.12a43.61,43.61,0,0,0-12-15.44C40,66.32,38.94,64.52,38.94,64.52,25.4,75.24,32.7,104,32.7,104A281.85,281.85,0,0,0,21.19,74.68a85.18,85.18,0,0,1-6.68-22.37A36.33,36.33,0,0,0,0,81.38v93.34l47.58-27c-2-9.83,3-18.1,3-18.1,14.64,17,36.77,26.42,36.77,26.42-.51-19.27-4.77-27.27-4.77-27.27,10.39,19.07,41.71,32.68,41.71,32.68-3.07-5.1-2.9-20.42-2.9-20.42,16.45,12.86,27.63,40.12,28.57,42.46.94-2.34,12.12-29.6,28.57-42.46,0,0,.17,15.32-2.9,20.42,0,0,31.32-13.61,41.71-32.68,0,0-4.26,8-4.77,27.27,0,0,22.13-9.4,36.77-26.42,0,0,5.06,8.27,3,18.1L300,175.22V81.38A36.33,36.33,0,0,0,285.49,52.31Z" fill="#ffcb29"/><path d="M236.28,188.23s6.64-58.38,38-53.45c33.27,5.25,17.93,44.47,17.93,44.47" fill="#15141a"/><path d="M63.72,188.23s-6.64-58.38-37.95-53.45C-7.5,140,7.84,179.25,7.84,179.25" fill="#15141a"/><path d="M258.58,202.85s-5.72-50.85,14.49-48.93C287.18,155.25,284.89,190.6,258.58,202.85Z" fill="#2f2c38"/><path d="M44.38,202.85S50.83,145.48,28,147.64C12.11,149.15,14.69,189,44.38,202.85Z" fill="#2f2c38"/><path d="M217.61,288.39s-4.29-3.53-9.39-3.22-8.81,10.1-8.11,13.22,4.08,9.95,8.94,9.76,6.19-9.76,6.19-9.76h3.32Z" fill="#f493aa"/><path d="M218.56,298.39l-.95-10a15.09,15.09,0,0,0-1.75-1.18l-.41.07c-5.81,1.28-10,7.36-8.74,12,.95,3.45,2.74,6.52,5.31,7.33,2.45-2.76,3.22-8.2,3.22-8.2Z" fill="#e86b8f"/><path d="M228.4,290.24s-2.06-4.24-7.86-3-10,7.36-8.75,12,4.06,8.57,8.19,7.3,5.53-8.17,5.53-8.17H230Z" fill="#f493aa"/><path d="M228.4,290.24a5.12,5.12,0,0,0-.56-.83,7.71,7.71,0,0,0-2.62,0c-4.43,1.17-6.34,5.7-6.56,8.51a15.42,15.42,0,0,0,2.26,8.17c3.4-1.93,4.59-7.74,4.59-7.74H230Z" fill="#e86b8f"/><path d="M242.81,298.39s.85-5.19-5.4-7.89c-1.61-.69-5.4-1.5-7.11-1.05-4.42,1.17-6.33,5.7-6.55,8.51s1.62,11.24,7.23,11.24,4.09-10.81,4.09-10.81Z" fill="#f493aa"/><path d="M82.39,288.39s4.29-3.53,9.39-3.22,8.81,10.1,8.11,13.22-4.08,9.95-8.94,9.76-6.19-9.76-6.19-9.76H81.44Z" fill="#f493aa"/><path d="M81.44,298.39l1-10a15.09,15.09,0,0,1,1.75-1.18l.41.07c5.81,1.28,10,7.36,8.74,12-1,3.45-2.74,6.52-5.31,7.33-2.45-2.76-3.22-8.2-3.22-8.2Z" fill="#e86b8f"/><path d="M71.6,290.24s2.06-4.24,7.86-3,10,7.36,8.75,12-4.06,8.57-8.19,7.3-5.53-8.17-5.53-8.17H70Z" fill="#f493aa"/><path d="M71.6,290.24a5.12,5.12,0,0,1,.56-.83,7.71,7.71,0,0,1,2.62,0c4.43,1.17,6.34,5.7,6.56,8.51a15.42,15.42,0,0,1-2.26,8.17c-3.4-1.93-4.59-7.74-4.59-7.74H70Z" fill="#e86b8f"/><path d="M57.19,298.39s-.85-5.19,5.4-7.89c1.61-.69,5.4-1.5,7.11-1.05,4.42,1.17,6.33,5.7,6.55,8.51S74.63,309.2,69,309.2s-4.09-10.81-4.09-10.81Z" fill="#f493aa"/><path d="M170.56,328.93c0,8.87-9.2,16.07-20.56,16.07s-20.56-7.2-20.56-16.07,9.2-13.18,20.56-13.18S170.56,320.05,170.56,328.93Z" fill="#f493aa"/><path d="M152.31,315.75s1.19-16.68,10.56-31.32,7.83-24.17,7.83-24.17a14,14,0,0,0-10.39,3.57s11.92-8.51,9.19-25.87c0,0-6.12,5.28-10.55,7.32,0,0,15.15-21,6.3-45.72,0,0-6.64,5.82-8.17,9.52,0,0,5.92-12.26-7-24.5-12.92,12.24-7,24.5-7,24.5-1.53-3.7-8.17-9.52-8.17-9.52-8.85,24.75,6.3,45.72,6.3,45.72-4.42-2-10.55-7.32-10.55-7.32-2.72,17.36,9.19,25.87,9.19,25.87a14,14,0,0,0-10.39-3.57s-1.52,9.53,7.84,24.17,10.55,31.32,10.55,31.32" fill="#ffcb29"/><path d="M233.91,252.94s19.92-23.15,30.81-24.77c0,0,0,13.7-17.87,30.38,0,0,8.51-9.88,30.64-11.24,0,0-5.62,19.92-31.32,25.37a30.11,30.11,0,0,1,8.56,10.89s-8.22,2.9-16.39.85" fill="none" stroke="#15141a" stroke-linecap="round" stroke-miterlimit="10" stroke-width="3"/><path d="M204,326.47s3.57,7.49,9.87,11.58c0,0,4.09-6,3.75-15.49" fill="none" stroke="#15141a" stroke-linecap="round" stroke-miterlimit="10" stroke-width="3"/><path d="M229,324.94a26.6,26.6,0,0,0,19.74,2.21s-.85-6.12-9.87-13.27" fill="none" stroke="#15141a" stroke-linecap="round" stroke-miterlimit="10" stroke-width="3"/><path d="M66.09,252.94s-19.92-23.15-30.81-24.77c0,0,0,13.7,17.87,30.38,0,0-8.51-9.88-30.64-11.24,0,0,5.62,19.92,31.32,25.37a30.11,30.11,0,0,0-8.56,10.89s8.22,2.9,16.39.85" fill="none" stroke="#15141a" stroke-linecap="round" stroke-miterlimit="10" stroke-width="3"/><path d="M96,326.47s-3.57,7.49-9.87,11.58c0,0-4.09-6-3.75-15.49" fill="none" stroke="#15141a" stroke-linecap="round" stroke-miterlimit="10" stroke-width="3"/><path d="M71,324.94a26.6,26.6,0,0,1-19.74,2.21s.85-6.12,9.87-13.27" fill="none" stroke="#15141a" stroke-linecap="round" stroke-miterlimit="10" stroke-width="3"/><path d="M198.69,244.63c-6.22-1-14.73-23.77-3.5-44.31S220.08,182,226.85,188c7.37,6.53,5.62,19.05-6.13,32.42S206.77,246,198.69,244.63Z" fill="#231f20" stroke="#231f20" stroke-miterlimit="10" stroke-width="5"/><path d="M101.31,244.63c6.22-1,14.73-23.77,3.5-44.31S79.92,182,73.15,188c-7.37,6.53-5.62,19.05,6.13,32.42S93.23,246,101.31,244.63Z" fill="#231f20" stroke="#231f20" stroke-miterlimit="10" stroke-width="5"/><path d="M198.69,251.92c-6.22-1-14.73-23.78-3.5-44.31s24.89-18.37,31.66-12.38c7.37,6.53,5.62,19.06-6.13,32.43S206.77,253.25,198.69,251.92Z" fill="#fff" stroke="#231f20" stroke-miterlimit="10" stroke-width="3"/><path d="M220.72,227.66a47.77,47.77,0,0,0,5.88-8.21c-2.88-7.15-8.39-12.72-15.71-14.89a23.48,23.48,0,0,0-14.06.3c-.55.86-1.1,1.77-1.64,2.75-11.23,20.53-2.72,43.28,3.5,44.31C206.77,253.25,209,241,220.72,227.66Z" fill="#231f20"/><path d="M217.56,201.72s-10.74,9.2-6.22,13.75,13.37-8.61,13.37-8.61" fill="#fff"/><circle cx="212.03" cy="226.39" r="3.88" fill="#fff"/><path d="M101.31,251.92c6.22-1,14.73-23.78,3.5-44.31s-24.89-18.37-31.66-12.38c-7.37,6.53-5.62,19.06,6.13,32.43S93.23,253.25,101.31,251.92Z" fill="#fff" stroke="#231f20" stroke-miterlimit="10" stroke-width="3"/><path d="M79.28,227.66a47.77,47.77,0,0,1-5.88-8.21c2.88-7.15,8.39-12.72,15.71-14.89a23.48,23.48,0,0,1,14.06.3c.55.86,1.1,1.77,1.64,2.75,11.23,20.53,2.72,43.28-3.5,44.31C93.23,253.25,91,241,79.28,227.66Z" fill="#231f20"/><path d="M92.27,199.56s10.74,9.2,6.22,13.75-13.37-8.62-13.37-8.62" fill="#fff"/><circle cx="102.65" cy="222.52" r="3.88" fill="#fff"/><path d="M135.38,330.24l12,8.94S135.67,343.83,135.38,330.24Z" fill="#e86b8f"/><path d="M164.62,330.24l-12,8.94S164.33,343.83,164.62,330.24Z" fill="#e86b8f"/></svg>