<?xml version="1.0" encoding="UTF-8" standalone="no"?>
<!-- Created with Inkscape (http://www.inkscape.org/) -->

<svg
   width="300"
   height="345"
   viewBox="0 0 79.374998 91.28125"
   version="1.1"
   id="svg1"
   inkscape:export-filename="watermelon.svg"
   inkscape:export-xdpi="96"
   inkscape:export-ydpi="96"
   xmlns:inkscape="http://www.inkscape.org/namespaces/inkscape"
   xmlns:sodipodi="http://sodipodi.sourceforge.net/DTD/sodipodi-0.dtd"
   xmlns:xlink="http://www.w3.org/1999/xlink"
   xmlns="http://www.w3.org/2000/svg"
   xmlns:svg="http://www.w3.org/2000/svg">
  <sodipodi:namedview
     id="namedview1"
     pagecolor="#505050"
     bordercolor="#ffffff"
     borderopacity="1"
     inkscape:showpageshadow="0"
     inkscape:pageopacity="0"
     inkscape:pagecheckerboard="1"
     inkscape:deskcolor="#505050"
     inkscape:document-units="px">
    <inkscape:page
       x="0"
       y="0"
       width="79.375"
       height="91.28125"
       id="page2"
       margin="0"
       bleed="0" />
  </sodipodi:namedview>
  <defs
     id="defs1">
    <linearGradient
       inkscape:collect="always"
       xlink:href="#linearGradient19"
       id="linearGradient55"
       gradientUnits="userSpaceOnUse"
       gradientTransform="translate(-0.001)"
       x1="150"
       y1="356.10999"
       x2="150"
       y2="161.16" />
    <linearGradient
       id="linearGradient19"
       x1="150"
       y1="356.10999"
       x2="150"
       y2="161.16"
       gradientUnits="userSpaceOnUse">
      <stop
         offset="0.08547008"
         stop-color="#573321"
         id="stop17"
         style="stop-color:#459649;stop-opacity:1;" />
      <stop
         offset="0.1794872"
         stop-color="#573321"
         id="stop18"
         style="stop-color:#30804b;stop-opacity:1;" />
      <stop
         offset="0.29344732"
         stop-color="#7d4f33"
         id="stop19"
         style="stop-color:#21664a;stop-opacity:1;" />
    </linearGradient>
  </defs>
  <g
     inkscape:label="Layer 1"
     inkscape:groupmode="layer"
     id="layer1">
    <g
       id="g55"
       transform="scale(0.26458333)">
      <path
         class="cls-1"
         d="M 263.619,345 H 36.379 a 36.38,36.38 0 0 1 -36.38,-36.38 v -49.48 h 300 v 49.48 A 36.38,36.38 0 0 1 263.619,345 Z"
         id="path32"
         style="fill:url(#linearGradient55)" />
      <path
         id="path37"
         style="opacity:1;fill:#1d4b2e;stroke-width:24.1302;stroke-linejoin:round"
         d="m 2.0965084,259.14062 v 49.47852 a 36.38,36.38 0 0 0 20.0039066,32.25781 c -0.994241,-5.17941 -0.537449,-10.87444 1.271484,-17.05078 0.83625,-2.85528 0.380366,-7.08636 -0.566406,-9.89453 -2.097862,-6.22234 -1.318264,-13.12811 0.699218,-20.32617 0.803456,-2.86661 1.613282,-7.5622 1.613282,-10.55469 v -19.43359 c 2e-6,-1.86153 -0.882439,-3.50111 -2.222657,-4.47657 z m 54.2421876,0 c -1.340218,0.97546 -2.220705,2.61504 -2.220703,4.47657 v 19.43359 c 0,2.99249 0.428164,7.80034 0.941406,10.74219 1.183247,6.78225 2.121133,13.52192 0.748047,19.84961 -0.63124,2.90898 -0.743432,7.31136 0.128906,10.1543 1.935624,6.30821 2.581975,12.92072 0.210938,20.25 -0.08497,0.26265 -0.164572,0.66314 -0.251954,0.95312 h 42.25586 c -0.0829,-0.26146 -0.167148,-0.62391 -0.246094,-0.86328 -1.982629,-6.0116 -1.740848,-12.81288 0.455078,-20.31055 0.83625,-2.85528 0.378413,-7.08636 -0.568359,-9.89453 -2.097862,-6.22234 -1.316311,-13.12811 0.701172,-20.32617 0.803456,-2.86661 1.611327,-7.5622 1.611327,-10.55469 v -19.43359 c 0,-1.86153 -0.880484,-3.50111 -2.220702,-4.47657 z m 74.988284,0 c -1.34022,0.97546 -2.22266,2.61504 -2.22266,4.47657 v 19.43359 c 0,2.99249 0.43012,7.80034 0.94336,10.74219 1.18325,6.78225 2.11918,13.52192 0.74609,19.84961 -0.63124,2.90898 -0.74343,7.31136 0.12891,10.1543 1.93562,6.30821 2.58197,12.92072 0.21094,20.25 -0.085,0.26265 -0.16457,0.66314 -0.25196,0.95312 h 42.25586 c -0.0829,-0.26143 -0.16715,-0.62393 -0.24609,-0.86328 -1.98263,-6.0116 -1.74085,-12.81288 0.45508,-20.31055 0.83625,-2.85528 0.38036,-7.08636 -0.56641,-9.89453 -2.09786,-6.22234 -1.31826,-13.12811 0.69922,-20.32617 0.80346,-2.86661 1.61328,-7.5622 1.61328,-10.55469 v -19.43359 c 0,-1.86153 -0.88244,-3.50111 -2.22265,-4.47657 z m 74.98633,0 c -1.34022,0.97546 -2.22071,2.61504 -2.22071,4.47657 v 19.43359 c 0,2.99249 0.42817,7.80034 0.94141,10.74219 1.18325,6.78225 2.12113,13.52192 0.74805,19.84961 -0.63124,2.90898 -0.74344,7.31136 0.1289,10.1543 1.93563,6.30821 2.58198,12.92072 0.21094,20.25 -0.085,0.26265 -0.16457,0.66314 -0.25195,0.95312 h 42.25586 c -0.0829,-0.26146 -0.16715,-0.62391 -0.2461,-0.86328 -1.98263,-6.0116 -1.74085,-12.81288 0.45508,-20.31055 0.83625,-2.85528 0.37841,-7.08636 -0.56836,-9.89453 -2.09786,-6.22234 -1.31631,-13.12811 0.70117,-20.32617 0.80346,-2.86661 1.61133,-7.5622 1.61133,-10.55469 v -19.43359 c 0,-1.86153 -0.88049,-3.50111 -2.2207,-4.47657 z m 74.98828,0 c -1.34022,0.97546 -2.22266,2.61504 -2.22266,4.47657 v 19.43359 c 0,2.99249 0.42816,7.80034 0.94141,10.74219 1.18324,6.78225 2.12113,13.52192 0.74804,19.84961 -0.63124,2.90898 -0.74343,7.31136 0.12891,10.1543 1.65843,5.40484 2.35464,11.03709 1.0332,17.14843 a 36.38,36.38 0 0 0 20.16602,-32.32617 v -49.47852 z"
         transform="translate(-2.0984615)" />
      <path
         id="path38"
         style="fill:#ccdd80;fill-opacity:1"
         class="cls-1"
         d="m 0.55859375,233.60742 c -0.014545,0.0606 -0.0290074,0.12096 -0.0429687,0.18164 -0.001205,0.005 -0.002715,0.0104 -0.003906,0.0156 -0.0681105,0.29374 -0.16454707,0.57946 -0.21679687,0.87695 0.0129263,0.31071 0.0413299,0.62849 0.0761719,0.94922 -0.19363557,2.40069 -0.3182418,4.80654 -0.36914062,7.21875 v 1.30469 9.96875 0.60742 2.92969 c 0.0234263,2.60599 0.0659439,5.21344 0,7.8125 v 3.14648 c 0,1.19202 0.06755633,2.36665 0.18359375,3.52734 0.009081,0.11655 0.017214,0.23316 0.0273437,0.34961 0.0550784,0.51948 0.16150695,1.02248 0.23828126,1.53516 0.0729809,0.47297 0.1295489,0.9512 0.22070312,1.41797 0.16579677,0.87038 0.38070191,1.7212 0.60742191,2.56836 0.045416,0.16721 0.081228,0.33763 0.1289062,0.5039 0.2682916,0.94765 0.5803985,1.87455 0.921875,2.78907 0.018148,0.0486 0.03049,0.0999 0.048828,0.14843 0.00837,0.0212 0.018935,0.0414 0.027344,0.0625 0.552804,1.45295 1.1622974,2.87715 1.8886719,4.23438 0.1236767,0.22425 0.2504492,0.44642 0.3789062,0.66797 0.3527359,0.62678 0.7290837,1.23678 1.1171875,1.83984 0.5530317,0.83539 1.1189094,1.66256 1.7382813,2.45117 1.2770381,1.626 2.7057767,3.12836 4.2343747,4.52344 0.309089,0.29114 0.622813,0.57494 0.941406,0.85547 0.04744,0.0405 0.09494,0.0808 0.142578,0.12109 1.238842,1.08 2.53237,2.09569 3.902344,3.00196 0.59855,0.38488 1.204282,0.75931 1.826172,1.10937 0.22308,0.12937 0.446055,0.25829 0.671875,0.38281 1.353642,0.72438 2.773758,1.33324 4.222656,1.88477 0.02168,0.009 0.04275,0.0188 0.06445,0.0273 0.04468,0.0169 0.09196,0.0282 0.136719,0.0449 0.925092,0.34589 1.86326,0.66066 2.822266,0.93164 0.142533,0.0408 0.288421,0.0722 0.43164,0.11132 0.869073,0.23403 1.743166,0.45119 2.636719,0.6211 0.452071,0.0881 0.915161,0.14377 1.373047,0.21484 0.524887,0.0791 1.040252,0.18774 1.572265,0.24414 0.113867,0.01 0.227848,0.0184 0.341797,0.0274 C 34.01226,304.93275 35.188732,305 36.382812,305 h 3.146485 c 36.824054,-0.0154 73.648233,-0.0294 110.472653,-0.0234 36.82443,-0.006 73.6486,0.008 110.47266,0.0234 h 3.14648 c 1.19409,0 2.37056,-0.0673 3.53321,-0.18359 0.11395,-0.009 0.22793,-0.0174 0.34179,-0.0274 0.53202,-0.0564 1.04738,-0.16502 1.57227,-0.24414 0.45788,-0.0711 0.92098,-0.12673 1.37305,-0.21484 0.89355,-0.16991 1.76764,-0.38707 2.63671,-0.6211 0.14322,-0.0391 0.28911,-0.0705 0.43165,-0.11132 0.959,-0.27098 1.89717,-0.58575 2.82226,-0.93164 0.0448,-0.0167 0.092,-0.028 0.13672,-0.0449 0.0217,-0.009 0.0428,-0.0187 0.0645,-0.0273 1.4489,-0.55153 2.86902,-1.16039 4.22266,-1.88477 0.22582,-0.12452 0.44879,-0.25344 0.67187,-0.38281 0.62189,-0.35006 1.22763,-0.72449 1.82618,-1.10937 1.36997,-0.90627 2.6635,-1.92196 3.90234,-3.00196 0.0476,-0.0403 0.0951,-0.0806 0.14258,-0.12109 0.31859,-0.28053 0.63232,-0.56433 0.9414,-0.85547 1.5286,-1.39508 2.95734,-2.89744 4.23438,-4.52344 0.61937,-0.78861 1.18525,-1.61578 1.73828,-2.45117 0.3881,-0.60306 0.76445,-1.21306 1.11719,-1.83984 0.12845,-0.22155 0.25522,-0.44372 0.3789,-0.66797 0.72638,-1.35723 1.33587,-2.78143 1.88868,-4.23438 0.008,-0.0211 0.019,-0.0413 0.0273,-0.0625 0.0183,-0.0485 0.0307,-0.0998 0.0488,-0.14843 0.34147,-0.91452 0.65358,-1.84142 0.92187,-2.78907 0.0477,-0.16627 0.0835,-0.33669 0.12891,-0.5039 0.22672,-0.84716 0.44162,-1.69798 0.60742,-2.56836 0.0912,-0.46677 0.14772,-0.945 0.2207,-1.41797 0.0768,-0.51268 0.18321,-1.01568 0.23829,-1.53516 0.0101,-0.11645 0.0183,-0.23306 0.0273,-0.34961 0.11604,-1.16069 0.18359,-2.33532 0.18359,-3.52734 v -3.14648 c -0.066,-2.59906 -0.0234,-5.20651 0,-7.8125 v -2.92969 -0.60742 -9.96875 -1.30469 c -0.0509,-2.41221 -0.17549,-4.81806 -0.36914,-7.21875 0.0348,-0.32073 0.0632,-0.63851 0.0762,-0.94922 -0.0522,-0.29749 -0.14865,-0.58321 -0.21679,-0.87695 -0.001,-0.005 -0.003,-0.0104 -0.004,-0.0156 -0.014,-0.0607 -0.0285,-0.12105 -0.043,-0.18164 -0.0593,0.29622 -0.12525,0.58993 -0.14453,0.90039 -1.55583,11.07512 -1.66264,44.49423 -36.00781,46.51563 -36.40418,0.11841 -72.81103,0.13384 -109.21875,0.12109 -2.71487,-9.5e-4 -5.42966,10e-4 -8.14453,0 -36.40772,0.0128 -72.814572,-0.003 -109.218752,-0.12109 C 2.3656134,279.00209 2.2588087,245.58298 0.702975,234.50786 0.683695,234.1974 0.6177438,233.90369 0.55844375,233.60747 Z" />
      <path
         id="path39"
         style="fill:#f9617d;fill-opacity:1"
         class="cls-1"
         d="m 140.77539,52.886719 c -6.952,1.7e-5 -13.54671,2.864041 -18.28125,7.83789 -0.67674,0.710946 -1.31783,1.464803 -1.91406,2.259766 l -1.45313,1.9375 v 0.002 l -61.261716,81.673835 -12.787109,17.04882 -29.347656,39.12696 -1.9375,2.58203 -10.1328128,13.51172 c -2.3746,3.16602 -3.65830307,7.01697 -3.65820307,10.97461 v 16.88867 13.88867 C 0.00195313,280.71126 16.290612,297 36.382812,297 H 263.61914 c 20.0922,0 36.38281,-16.28874 36.38281,-36.38086 V 246.73047 L 300,229.41051 c 10e-5,-3.95764 -1.28165,-7.37725 -3.65625,-10.54332 l -10.13477,-13.51172 -1.9375,-2.58203 L 254.92383,163.64648 242.13672,146.59766 206.14453,98.613281 199.50195,89.755859 180.875,64.923828 v -0.002 l -1.45312,-1.9375 c -0.59623,-0.794963 -1.23733,-1.54882 -1.91407,-2.259766 -0.67604,-0.710295 -1.3891,-1.377949 -2.13672,-2 -4e-4,-3.36e-4 -0.002,3.36e-4 -0.002,0 -0.74761,-0.621974 -1.5275,-1.199167 -2.33789,-1.728515 -4.7e-4,-3.1e-4 -0.001,3.09e-4 -0.002,0 -0.81039,-0.529274 -1.64929,-1.011095 -2.51368,-1.44336 -5.3e-4,-2.67e-4 -0.001,2.68e-4 -0.002,0 -0.86438,-0.432191 -1.75447,-0.815685 -2.66406,-1.146484 -5.9e-4,-2.13e-4 -0.001,2.13e-4 -0.002,0 -0.9096,-0.330726 -1.83914,-0.61099 -2.78516,-0.835938 -6.2e-4,-1.47e-4 -0.001,1.48e-4 -0.002,0 -0.94603,-0.224875 -1.90719,-0.395056 -2.88086,-0.509765 -6.4e-4,-7.6e-5 -0.001,7.5e-5 -0.002,0 -0.97368,-0.114635 -1.95862,-0.173749 -2.95117,-0.173828 h -0.002 -2.42578 -13.59571 z"
         sodipodi:nodetypes="ssscccccccccsssscccccccccccscscscscscscscscccs" />
      <path
         id="path40"
         style="fill:#d9e6a1;fill-opacity:1"
         class="cls-1"
         d="m 0,227.74805 v 37.27929 c 1.28901,17.07942 15.434483,32.45551 32.845703,33.78907 39.04653,0.20904 78.099717,0.20954 117.154297,0.18164 39.05458,0.0279 78.10777,0.0274 117.1543,-0.18164 17.41122,-1.33351 31.55669,-16.70965 32.8457,-33.78907 v -37.27929 c -1.45635,15.98718 -4.90872,35.04092 -20.76367,43.18164 -13.40132,6.75658 -28.86643,3.22999 -43.24805,4.16406 -28.66158,2.7e-4 -57.32481,0.0443 -85.98828,0.0645 -28.66347,-0.0202 -57.326701,-0.0642 -85.988281,-0.0645 -14.38162,-0.93407 -29.846727,2.59252 -43.248047,-4.16406 C 4.9087219,262.78897 1.45635,243.73523 0,227.74805 Z" />
      <path
         id="path41"
         style="fill:#ce4b6b;fill-opacity:1"
         class="cls-1"
         d="M 0.35546875,225.91602 C 0.17819875,226.45296 0.1315,227.19727 0,227.74805 c 0.0592,0.29557 0.058925,0.53199 0.078125,0.84179 1.55583,11.07512 2.2837363,44.4122 36.628906,46.4336 36.40418,0.11809 72.811029,0.13389 109.218749,0.12109 1.35809,-4.7e-4 2.71615,-2.4e-4 4.07422,0 1.35807,-2.4e-4 2.71613,-4.7e-4 4.07422,0 36.40772,0.0128 72.81457,-0.003 109.21875,-0.12109 34.34517,-2.0214 35.07308,-35.35848 36.62891,-46.4336 0.0192,-0.3098 0.0189,-0.54622 0.0781,-0.84179 -0.1315,-0.55078 -0.1782,-1.29509 -0.35547,-1.83203 -1.43521,13.26861 -4.95352,41.25947 -36.35156,43.10742 -36.40418,0.11809 -72.81103,0.13389 -109.21875,0.12109 -1.35809,-4.7e-4 -2.71615,-2.4e-4 -4.07422,0 -1.35807,-2.4e-4 -2.71613,-4.7e-4 -4.07422,0 -36.40772,0.0128 -72.814569,-0.003 -109.218749,-0.12109 C 5.3089913,267.17549 1.7906788,239.18463 0.35546875,225.91602 Z" />
      <path
         id="path42"
         style="fill:#f04c70;fill-opacity:1;stroke-width:0.714806"
         class="cls-1"
         d="M 143.4046,79.695877 C 132.38919,79.25337 127.14496,89.728747 121.29457,97.146363 95.993988,130.87711 70.693091,164.60762 45.393874,198.33937 c -4.344064,6.94129 -2.026457,15.46549 -2.614904,23.23441 -0.697458,9.72205 1.229266,20.41994 9.46361,26.67691 9.378399,8.26162 22.304311,5.42798 33.682486,5.93845 49.314534,-0.0889 98.640314,0.17816 147.947784,-0.13427 14.26126,-1.06588 25.00925,-15.20011 23.34779,-29.18856 -0.2782,-7.59894 0.65294,-15.32378 -0.67092,-22.81677 -4.95119,-8.92144 -12.00389,-16.57724 -17.87238,-24.94536 -23.03802,-30.57579 -45.81488,-61.36064 -69.0162,-91.805734 -6.80406,-7.675405 -17.28289,-5.168338 -26.25654,-5.602569 z" />
      <path
         style="fill:#b53d59;fill-opacity:1;stroke-width:19.893"
         d="m 146.8632,184.20341 c -6.5943,10.55051 -19.71943,34.10056 -13.75004,45.95663 6.06939,12.0547 27.21327,12.25608 33.50846,0.31775 6.4806,-12.28997 -6.31134,-35.739 -12.80683,-46.26102 -1.84732,-2.99246 -5.08744,-2.9959 -6.95159,-0.0134 z"
         id="path43"
         sodipodi:nodetypes="cssc" />
      <path
         style="fill:#722a3e;fill-opacity:1;stroke-width:19.893"
         d="m 146.8632,178.20341 c -6.5943,10.55051 -19.71943,34.10056 -13.75004,45.95663 6.06939,12.0547 27.21327,12.25608 33.50846,0.31775 6.4806,-12.28997 -6.31134,-35.739 -12.80683,-46.26102 -1.84732,-2.99246 -5.08744,-2.9959 -6.95159,-0.0134 z"
         id="path47"
         sodipodi:nodetypes="cssc" />
      <path
         style="fill:#b53d59;fill-opacity:1;stroke-width:19.893"
         d="m 109.6364,159.5877 c -10.986089,5.83986 -34.12781,19.67223 -34.886202,32.92459 -0.771104,13.47437 17.439346,24.22071 28.860302,17.02941 11.75735,-7.40313 12.40372,-34.10656 12.03947,-46.46664 -0.10359,-3.5152 -2.9079,-5.13824 -6.01355,-3.4874 z m 80.7272,0 c 10.98609,5.83986 34.12781,19.67223 34.8862,32.92459 0.77111,13.47437 -17.43934,24.22071 -28.8603,17.02941 -11.75735,-7.40313 -12.40372,-34.10656 -12.03947,-46.46664 0.10359,-3.5152 2.9079,-5.13824 6.01355,-3.4874 z"
         id="path51" />
      <path
         style="fill:#722a3e;fill-opacity:1;stroke-width:19.893"
         d="m 109.6364,153.5877 c -10.986089,5.83986 -34.12781,19.67223 -34.886202,32.92459 -0.771104,13.47437 17.439346,24.22071 28.860302,17.02941 11.75735,-7.40313 12.40372,-34.10656 12.03947,-46.46664 -0.10359,-3.5152 -2.9079,-5.13824 -6.01355,-3.4874 z m 80.7272,0 c 10.98609,5.83986 34.12781,19.67223 34.8862,32.92459 0.77111,13.47437 -17.43934,24.22071 -28.8603,17.02941 -11.75735,-7.40313 -12.40372,-34.10656 -12.03947,-46.46664 0.10359,-3.5152 2.9079,-5.13824 6.01355,-3.4874 z"
         id="path55"
         sodipodi:nodetypes="cssc" />
    </g>
  </g>
</svg>
