<?xml version="1.0" encoding="UTF-8" standalone="no"?>
<svg
   id="Layer_1"
   data-name="Layer 1"
   viewBox="0 0 300 345"
   version="1.1"
   sodipodi:docname="Wolf.svg"
   xml:space="preserve"
   inkscape:version="1.2 (dc2aedaf03, 2022-05-15)"
   xmlns:inkscape="http://www.inkscape.org/namespaces/inkscape"
   xmlns:sodipodi="http://sodipodi.sourceforge.net/DTD/sodipodi-0.dtd"
   xmlns:xlink="http://www.w3.org/1999/xlink"
   xmlns="http://www.w3.org/2000/svg"
   xmlns:svg="http://www.w3.org/2000/svg"><sodipodi:namedview
     id="namedview231"
     pagecolor="#505050"
     bordercolor="#ffffff"
     borderopacity="1"
     inkscape:showpageshadow="0"
     inkscape:pageopacity="0"
     inkscape:pagecheckerboard="1"
     inkscape:deskcolor="#505050"
     showgrid="false"
     inkscape:zoom="0.834386"
     inkscape:cx="187.56307"
     inkscape:cy="214.52901"
     inkscape:window-width="1366"
     inkscape:window-height="705"
     inkscape:window-x="-8"
     inkscape:window-y="-8"
     inkscape:window-maximized="1"
     inkscape:current-layer="Layer_1" /><defs
     id="defs151"><inkscape:path-effect
       effect="mirror_symmetry"
       start_point="54.356818,65.10832"
       end_point="54.356818,79.184116"
       center_point="54.356818,72.146218"
       id="path-effect20756"
       is_visible="true"
       lpeversion="1.2"
       lpesatellites="#g20762"
       mode="vertical"
       discard_orig_path="false"
       fuse_paths="false"
       oposite_fuse="false"
       split_items="true"
       split_open="false"
       link_styles="false" /><linearGradient
       inkscape:collect="always"
       id="linearGradient17075"><stop
         style="stop-color:#d1d1d1;stop-opacity:1;"
         offset="0.22314049"
         id="stop17071" /><stop
         style="stop-color:#c9c9c9;stop-opacity:1;"
         offset="0.71280992"
         id="stop17073" /></linearGradient><inkscape:path-effect
       effect="mirror_symmetry"
       start_point="128.39491,205.32462"
       end_point="128.39491,234.40032"
       center_point="128.39491,219.86247"
       id="path-effect16160"
       is_visible="true"
       lpeversion="1.2"
       lpesatellites="#path16162"
       mode="vertical"
       discard_orig_path="false"
       fuse_paths="false"
       oposite_fuse="false"
       split_items="true"
       split_open="false"
       link_styles="false" /><linearGradient
       inkscape:collect="always"
       id="linearGradient10400"><stop
         style="stop-color:#7b7c81;stop-opacity:1;"
         offset="0.39049584"
         id="stop10396" /><stop
         style="stop-color:#6d6f75;stop-opacity:1;"
         offset="0.76756197"
         id="stop10404" /><stop
         style="stop-color:#66686f;stop-opacity:1;"
         offset="0.88378096"
         id="stop10406" /><stop
         style="stop-color:#606269;stop-opacity:1;"
         offset="1"
         id="stop10398" /></linearGradient><inkscape:path-effect
       effect="mirror_symmetry"
       start_point="58.499521,274.53516"
       end_point="58.499521,314.06641"
       center_point="58.499521,294.30079"
       id="path-effect10185"
       is_visible="true"
       lpeversion="1.2"
       lpesatellites="#path10187"
       mode="vertical"
       discard_orig_path="false"
       fuse_paths="false"
       oposite_fuse="false"
       split_items="true"
       split_open="false"
       link_styles="false" /><linearGradient
       id="linear-gradient"
       x1="150"
       y1="356.11"
       x2="150"
       y2="161.16"
       gradientUnits="userSpaceOnUse"><stop
         offset="0"
         stop-color="#e38e4d"
         id="stop132"
         style="stop-color:#565256;stop-opacity:1;" /><stop
         offset="0.69"
         stop-color="#a85a26"
         id="stop134"
         style="stop-color:#3a393a;stop-opacity:1;" /></linearGradient><linearGradient
       inkscape:collect="always"
       xlink:href="#linearGradient10400"
       id="linearGradient10402"
       x1="150"
       y1="298.39062"
       x2="150"
       y2="45"
       gradientUnits="userSpaceOnUse" /><linearGradient
       inkscape:collect="always"
       xlink:href="#linearGradient17075"
       id="linearGradient17077"
       x1="151.21001"
       y1="345"
       x2="150"
       y2="259.14001"
       gradientUnits="userSpaceOnUse" /></defs><path
     d="M 263.62,345 H 36.38 A 36.38,36.38 0 0 1 0,308.62 v -49.48 h 300 v 49.48 A 36.38,36.38 0 0 1 263.62,345 Z"
     fill="url(#linear-gradient)"
     id="path153"
     style="fill:url(#linear-gradient)" /><rect
     y="45"
     width="300"
     height="253.39"
     rx="36.380001"
     fill="url(#linear-gradient-2)"
     id="rect155"
     style="fill:url(#linearGradient10402);fill-opacity:1"
     x="0" /><path
     id="rect12630"
     style="opacity:1;fill:url(#linearGradient17077);stroke-width:0.43856;stroke-linecap:round;stop-color:#000000;fill-opacity:1"
     d="M 45.261719 296.25391 L 40.400391 324.18555 L 77.615234 332.87109 L 82.789062 345 L 217.12695 345 L 222.38477 332.54102 L 259.59961 324.8457 L 254.73828 296.25391 L 45.261719 296.25391 z " /><path
     id="rect9833"
     style="opacity:1;fill:#e5e5e6;stroke-width:0.412;stroke-linecap:round;stop-color:#000000;fill-opacity:1"
     d="M 274.14453,233.94922 C 250.9831,234.08961 243.04006,257.58261 225,256.75285 210.55832,256.0886 187.5,234.9634 187.5,234.9634 c -37.66715,25.26516 -37.75531,23.98649 -75,0 0,0 -23.203359,19.6425 -37.5,21.78945 -25.381104,3.81152 -26.388554,-33.19857 -75,-17.42277 v 22.67969 c 0,20.1545 16.226359,36.38085 36.380859,36.38085 H 263.61914 c 20.1545,0 36.38086,-16.22635 36.38086,-36.38085 v -22.67969 c -9.55236,-3.68461 -18.13499,-5.42766 -25.85547,-5.38086 z"
     sodipodi:nodetypes="saccacsssscs" /><path
     id="path10182"
     style="opacity:1;fill:#e5e5e6;fill-opacity:1;stroke-width:0.325715;stroke-linecap:round;stop-color:#000000"
     d="m 11.341797,274.53516 -7.3007814,24.24414 22.9003904,-5.72266 6.41211,21.00977 c 6.413034,-5.8257 26.913607,-15.17962 25.023437,-25.75 v 0 L 31.025892,283.4253 Z"
     inkscape:path-effect="#path-effect10185"
     inkscape:original-d="m 11.341797,274.53516 -7.3007814,24.24414 22.9003904,-5.72266 6.41211,21.00977 c 6.413034,-5.8257 26.913607,-15.17962 25.023437,-25.75 v 0 L 31.025892,283.4253 Z"
     class="UnoptimicedTransforms"
     sodipodi:nodetypes="cccccccc" /><path
     d="m 204.41,272.81 c 0,0 6.74,31.65 1,43.92 -5.36,11.49 -15.12,25.8 -55.43,25.8 v 0 c -40.31,0 -50.07,-14.31 -55.43,-25.8 -5.72,-12.27 1,-43.92 1,-43.92"
     fill="url(#linear-gradient-3)"
     id="path181"
     style="fill:#e5e5e6;fill-opacity:1" /><path
     d="m 204.41,272.81 c 1.1,4.44 2,8.92 2.77,13.45 a 122.48,122.48 0 0 1 1.53,13.74 50.46,50.46 0 0 1 -0.85,14 21.54,21.54 0 0 1 -1.14,3.49 c -0.5,1.06 -0.95,2.13 -1.51,3.17 a 45.9,45.9 0 0 1 -3.7,6.08 37.65,37.65 0 0 1 -10.7,9.49 l -1.56,0.89 -0.78,0.45 -0.8,0.38 c -1.08,0.49 -2.16,1 -3.25,1.48 l -3.33,1.23 -0.84,0.3 -0.85,0.23 -1.7,0.47 A 107.65,107.65 0 0 1 150,345 h -2.39 v -2.43 l -0.1,-28.61 h 5 l -0.1,28.61 V 345 h -2.4 a 108.09,108.09 0 0 1 -27.7,-3.34 l -1.7,-0.47 -0.85,-0.24 -0.84,-0.3 -3.34,-1.22 c -1.09,-0.47 -2.16,-1 -3.24,-1.49 l -0.81,-0.38 -0.78,-0.44 -1.55,-0.9 a 37.36,37.36 0 0 1 -10.7,-9.49 44.71,44.71 0 0 1 -3.71,-6.08 c -0.55,-1 -1,-2.11 -1.5,-3.16 a 21.06,21.06 0 0 1 -1.15,-3.5 50.84,50.84 0 0 1 -0.85,-14 122.49,122.49 0 0 1 1.54,-13.69 c 0.73,-4.53 1.67,-9 2.77,-13.45 a 181.81,181.81 0 0 0 -2.29,27.15 52,52 0 0 0 1.5,13.22 18.66,18.66 0 0 0 1.12,3 c 0.52,1 1,2 1.58,2.95 a 40.79,40.79 0 0 0 3.67,5.44 c 5.49,6.8 13.63,10.86 22.22,12.88 2.12,0.61 4.33,0.92 6.51,1.34 2.18,0.42 4.43,0.55 6.64,0.83 2.24,0.13 4.47,0.3 6.71,0.4 l 6.74,0.11 -2.4,2.4 -0.1,-28.61 h 5 l -0.1,28.61 -2.4,-2.4 6.74,-0.1 c 2.24,-0.11 4.47,-0.27 6.71,-0.4 2.24,-0.13 4.45,-0.47 6.64,-0.84 2.19,-0.37 4.39,-0.73 6.51,-1.34 8.59,-2 16.73,-6.08 22.22,-12.87 a 41.94,41.94 0 0 0 3.68,-5.45 c 0.57,-0.95 1.05,-2 1.57,-2.95 a 18,18 0 0 0 1.12,-2.95 52.09,52.09 0 0 0 1.51,-13.27 181.83,181.83 0 0 0 -2.29,-27.19 z"
     fill="#a85a26"
     id="path183"
     style="fill:#363436;fill-opacity:1" /><path
     d="m 150,287.28 c 0,0 -28.11,-0.51 -28.11,11.11 0,29.25 28.11,30.76 28.11,30.76 0,0 28.11,-1.51 28.11,-30.76 0,-11.62 -28.11,-11.11 -28.11,-11.11 z"
     fill="#15141a"
     id="path185" /><path
     d="m 160.6,146.47 c 0,18.56 -10.6,33.61 -10.6,33.61 0,0 -10.6,-15.08 -10.6,-33.61 0,-18.53 6.86,-33.6 10.6,-33.6 3.74,0 10.6,15.04 10.6,33.6 z"
     fill="#d87d3e"
     id="path187"
     style="fill:#5a5c61;fill-opacity:1" /><path
     d="m 182.09,243 c 0,25.1 -6.46,32.58 -32.09,32.58 -25.63,0 -32.09,-7.48 -32.09,-32.58 0,-25.1 19.09,-45.5 32.09,-45.5 13,0 32.09,20.35 32.09,45.5 z"
     fill="#d87d3e"
     id="path189"
     style="fill:#5a5c61;fill-opacity:1" /><path
     d="m 24.948552,262.60248 a 51.220624,51.220624 45 0 0 5.375748,12.48295 23.218461,23.218461 45 0 0 4.014323,4.77975 20.001545,20.001545 0 0 0 5.095556,3.25019 l -3.000983,1.13008 c 1.599106,-2.80818 3.314298,-5.56499 5.15608,-8.23469 1.004606,-1.36721 1.853128,-2.65749 2.890104,-3.94098 1.036975,-1.28347 2.111409,-2.62458 3.252263,-3.84533 a 46.420253,46.420253 0 0 1 -1.36341,4.77442 c -0.480961,1.563 -1.089359,3.06244 -1.651489,4.58713 q -1.791135,4.53493 -3.941019,8.88 l -0.954345,1.93512 -2.057998,-0.81725 a 19.618183,19.618183 0 0 1 -6.73749,-4.15857 21.168302,21.168302 0 0 1 -4.428519,-6.37503 25.318623,25.318623 45 0 1 -1.966484,-7.2769 21.885024,21.885024 0 0 1 0.317663,-7.17089 z"
     fill="#723717"
     id="path197"
     style="fill:#918c91;fill-opacity:1;stroke-width:1.66679" /><path
     d="m 5.700255,267.53365 a 36.969523,36.969523 0 0 1 2.459241,8.0023 44.636782,44.636782 0 0 1 0.7827642,8.37818 c 0.043233,1.41679 -0.067067,2.83986 -0.1424668,4.27596 -0.075398,1.43611 -0.3034862,2.85493 -0.6013954,4.24763 a 44.203415,44.203415 0 0 1 -2.3284207,8.3131 l -2.7475327,-2.95319 c 3.8200371,-1.27752 7.5606594,-2.64028 11.3554604,-3.87145 3.794821,-1.23115 7.591326,-2.50945 11.418534,-3.65677 l 3.422434,-1.04418 -0.23391,3.54147 a 38.202952,38.202952 0 0 0 0.153642,5.54858 35.002705,35.002705 0 0 0 0.7329,5.5105 18.601437,18.601437 0 0 0 4.62768,9.35424 l -2.154169,-0.1131 c 1.556382,-0.9699 3.158176,-1.89099 4.7364,-2.81294 1.578241,-0.92193 3.169526,-1.87879 4.781819,-2.76411 q 4.793169,-2.75192 9.719178,-5.26317 c -2.788604,2.43504 -5.632272,4.76196 -8.510002,7.05226 -1.433188,1.15125 -2.889084,2.2781 -4.356338,3.39273 -1.467245,1.11465 -2.888223,2.25455 -4.378181,3.34478 l -1.054038,0.77575 -1.087925,-0.90019 a 19.034804,19.034804 0 0 1 -4.321725,-5.08568 27.418786,27.418786 0 0 1 -2.403186,-5.95995 40.003091,40.003091 0 0 1 -1.169738,-6.15133 45.95355,45.95355 0 0 1 -0.184902,-6.31629 l 3.187699,2.52091 c -3.795662,1.25472 -7.579117,2.49809 -11.429853,3.64464 -3.850748,1.14655 -7.6438438,2.33064 -11.4815195,3.44232 L -1.4355741e-6,303.27519 1.7817852,298.9994 a 54.654223,54.654223 0 0 0 2.7760652,-7.31809 51.837338,51.837338 0 0 0 1.5445551,-7.83426 54.554215,54.554215 0 0 0 0.3743636,-8.08875 51.98735,51.98735 0 0 0 -0.776512,-8.22464 z"
     fill="#723717"
     id="path199"
     style="fill:#363436;fill-opacity:1;stroke-width:1.66679" /><path
     id="path6521"
     d="m 294.29974,267.53365 a 36.969523,36.969523 0 0 0 -2.45924,8.0023 44.636782,44.636782 0 0 0 -0.78276,8.37818 c -0.0432,1.41679 0.0671,2.83986 0.14246,4.27596 0.0754,1.43611 0.30349,2.85493 0.6014,4.24763 a 44.203415,44.203415 0 0 0 2.32842,8.3131 l 2.74753,-2.95319 c -3.82003,-1.27752 -7.56066,-2.64028 -11.35546,-3.87145 -3.79482,-1.23115 -7.59132,-2.50945 -11.41853,-3.65677 l -3.42243,-1.04418 0.23391,3.54147 a 38.202952,38.202952 0 0 1 -0.15365,5.54858 35.002705,35.002705 0 0 1 -0.7329,5.5105 18.601437,18.601437 0 0 1 -4.62768,9.35424 l 2.15417,-0.1131 c -1.55638,-0.9699 -3.15817,-1.89099 -4.7364,-2.81294 -1.57824,-0.92193 -3.16952,-1.87879 -4.78182,-2.76411 q -4.79317,-2.75192 -9.71917,-5.26317 c 2.7886,2.43503 5.63227,4.76196 8.51,7.05226 1.43319,1.15125 2.88908,2.2781 4.35634,3.39273 1.46724,1.11465 2.88822,2.25455 4.37818,3.34478 l 1.05403,0.77575 1.08793,-0.90019 a 19.034804,19.034804 0 0 0 4.32172,-5.08568 27.418786,27.418786 45 0 0 2.40319,-5.95996 40.003091,40.003091 0 0 0 1.16974,-6.15132 45.95355,45.95355 0 0 0 0.1849,-6.3163 l -3.1877,2.52092 c 3.79566,1.25472 7.57912,2.49809 11.42985,3.64464 3.85075,1.14655 7.64385,2.33064 11.48152,3.44232 l 4.49271,1.28854 -1.78179,-4.2758 a 54.654223,54.654223 0 0 1 -2.77606,-7.31808 51.837338,51.837338 0 0 1 -1.54456,-7.83426 54.554215,54.554215 0 0 1 -0.37436,-8.08875 51.98735,51.98735 45 0 1 0.77651,-8.22464 z"
     style="fill:#363436;fill-opacity:1;stroke-width:1.66679"
     fill="#723717" /><path
     id="path23940"
     style="fill:#474547;fill-opacity:1;stroke-width:0.913024"
     class="cls-12 UnoptimicedTransforms"
     d="M 31.644531 150.6543 C 27.201901 150.60653 24.466797 150.89648 24.466797 150.89648 C -1.4869744 264.57079 101.73939 221.34203 102.23242 221.20117 C 102.23242 157.39624 50.89593 150.86127 31.644531 150.6543 z M 268.35547 150.6543 C 249.10407 150.86127 197.76758 157.39624 197.76758 221.20117 C 198.26061 221.34203 301.48697 264.57079 275.5332 150.89648 C 275.5332 150.89648 272.7981 150.60653 268.35547 150.6543 z " /><path
     class="cls-12"
     d="m 29.61959,145.21857 c 0,0 72.61282,-2.54735 72.61282,75.98187 -0.49303,0.14086 -98.5666173,37.69255 -72.61282,-75.98187 z"
     id="path6630"
     style="fill:#ecf7fe;stroke-width:0.913024"
     sodipodi:nodetypes="ccc" /><path
     class="cls-12"
     id="path7398"
     d="m 270.38041,145.21857 c 0,0 -72.61282,-2.54735 -72.61282,75.98187 0.49303,0.14086 98.56662,37.69255 72.61282,-75.98187 z"
     style="fill:#ecf7fe;stroke-width:0.913024" /><path
     class="cls-2"
     d="m 86.381015,62.540798 c -18.25,-36.25 -51.83,-62.6200006 -62.83,-60.0900007 -11,2.5300001 -18.8800003,46.2700007 -13.8200003,79.1100007"
     id="path6656"
     style="fill:#64666d;fill-opacity:1" /><path
     class="cls-13"
     d="m 86.381015,62.540798 c -8,-12.07 -16.41,-23.58 -26.16,-34 a 133.07,133.07 0 0 0 -15.76,-14.29 75.59,75.59 0 0 0 -8.72,-5.8700006 29.11,29.11 0 0 0 -9.19,-3.66 6.69,6.69 0 0 0 -2,-0.05 c -0.14,0 -0.31,0 -0.43,0.06 a 2.55,2.55 0 0 1 -0.35,0.14 l -0.22,0.03 -0.18,0.12 -0.38,0.22 a 11.14,11.14 0 0 0 -2.88,3.35 43.52,43.52 0 0 0 -4,9.3800006 118.88,118.88 0 0 0 -4.32,20.75 167.78,167.78 0 0 0 -0.08,42.54 l -3.9500003,0.61 a 139.43,139.43 0 0 1 -1.79,-21.87 163,163 0 0 1 1.23,-21.86 123,123 0 0 1 4.4600003,-21.57 47.88,47.88 0 0 1 4.52,-10.4300006 15.29,15.29 0 0 1 4.21,-4.71 l 0.79,-0.46 0.37,-0.25 0.45,-0.17 c 0.31,-0.11 0.62,-0.22 0.93,-0.31 a 7.56,7.56 0 0 1 0.91,-0.16 11.6,11.6 0 0 1 3.35,0.09 33.21,33.21 0 0 1 10.76,4.38 80.12,80.12 0 0 1 9.15,6.2999996 137.08,137.08 0 0 1 16,15.050001 133.75,133.75 0 0 1 13.45,17.22 95.88,95.88 0 0 1 9.83,19.42 z"
     id="path6658"
     style="fill:#363436;fill-opacity:1" /><path
     class="cls-2"
     d="M 54.530823,65.326426 C 44.066154,37.511342 23.162392,18.266569 16.854921,20.20787 10.547449,22.149171 6.979578,62.052251 9.8810147,87.250798"
     id="path9527"
     style="fill:#e5e5e6;fill-opacity:1;stroke-width:0.663312"
     sodipodi:nodetypes="csc" /><path
     class="cls-2"
     d="m 17.301015,65.310798 c 0,0 -10.4900003,-8.37 -13.6900003,-5.38 -4.14,3.88 0.22,20.49 6.27,27.32"
     id="path6660"
     style="fill:#e5e5e6;fill-opacity:1" /><path
     class="cls-13"
     d="m 17.301015,65.310798 c -1.82,-0.71 -3.54,-1.46 -5.25,-2.17 a 35,35 0 0 0 -4.9500003,-1.74 4.75,4.75 0 0 0 -1.9,-0.14 c -0.18,0.06 -0.21,0.1 -0.23,0.12 a 2.22,2.22 0 0 0 -0.39,0.57 10.67,10.67 0 0 0 -0.63,4.51 45.67,45.67 0 0 0 1.81,10.54 43.48,43.48 0 0 0 4.12,10.25 19.6,19.6 0 0 1 -3.87,-4.25 31.3,31.3 0 0 1 -2.86,-5 33.71,33.71 0 0 1 -3.08,-11.35 17.28,17.28 0 0 1 0,-3.13 9.8,9.8 0 0 1 0.92000004,-3.37 5.91,5.91 0 0 1 1.25999996,-1.69 4.28,4.28 0 0 1 2.3,-1.05 7.57,7.57 0 0 1 3.64,0.52 18.72,18.72 0 0 1 5.1300003,3.14 22.55,22.55 0 0 1 3.98,4.24 z"
     id="path6662"
     style="fill:#373537;fill-opacity:1" /><path
     class="cls-13"
     d="m 38.031015,37.990798 c 0,0.06 -0.25,0.25 -0.38,0.4 l -0.46,0.49 c -0.3,0.35 -0.61,0.7 -0.9,1.08 a 25.56,25.56 0 0 0 -1.63,2.38 34.33,34.33 0 0 0 -2.61,5.38 c -0.77,1.87 -1.28,3.86 -1.89,5.86 -0.29,1 -0.52,2 -0.85,3.07 -0.33,1.07 -0.52,2.09 -0.88,3.16 a 27.74,27.74 0 0 1 -0.68,-3.26 33.24,33.24 0 0 1 -0.2,-3.36 24.87,24.87 0 0 1 0.22,-3.34 c 0.07,-0.56 0.15,-1.12 0.25,-1.67 l 0.38,-1.66 a 25.21,25.21 0 0 1 2.54,-6.4 19.56,19.56 0 0 1 2,-2.89 14,14 0 0 1 1.25,-1.31 8.42,8.42 0 0 1 0.71,-0.61 8.53,8.53 0 0 1 0.86,-0.62 z"
     id="path6666"
     style="fill:#918c91;fill-opacity:1" /><path
     class="UnoptimicedTransforms"
     id="path10187"
     d="m 11.341797,274.53516 -7.3007814,24.24414 22.9003904,-5.72266 6.41211,21.00977 c 6.413034,-5.8257 26.913607,-15.17962 25.023437,-25.75 v 0 L 31.025892,283.4253 Z"
     style="opacity:1;fill:#e5e5e6;fill-opacity:1;stroke-width:0.325715;stroke-linecap:round;stop-color:#000000"
     transform="matrix(-1,0,0,1,300,0)"
     sodipodi:nodetypes="cccccccc" /><path
     class="cls-2"
     id="path12562"
     d="m 213.61898,62.540798 c 18.25,-36.25 51.83,-62.6200006 62.83,-60.0900007 11,2.5300001 18.88001,46.2700007 13.82001,79.1100007"
     style="fill:#64666d;fill-opacity:1" /><path
     class="cls-13"
     id="path12564"
     d="m 213.61898,62.540798 c 8,-12.07 16.41,-23.58 26.16,-34 a 133.07,133.07 0 0 1 15.76,-14.29 75.59,75.59 0 0 1 8.72,-5.8700006 29.11,29.11 0 0 1 9.19,-3.66 6.69,6.69 0 0 1 2,-0.05 c 0.14,0 0.31,0 0.43,0.06 a 2.55,2.55 0 0 0 0.35,0.14 l 0.22,0.03 0.18,0.12 0.38,0.22 a 11.14,11.14 0 0 1 2.88,3.35 43.52,43.52 0 0 1 4,9.3800006 118.88,118.88 0 0 1 4.32,20.75 167.78,167.78 0 0 1 0.08,42.54 l 3.95001,0.61 a 139.43,139.43 0 0 0 1.79,-21.87 163,163 0 0 0 -1.23,-21.86 123,123 0 0 0 -4.46001,-21.57 47.88,47.88 0 0 0 -4.52,-10.4300006 15.29,15.29 0 0 0 -4.21,-4.71 l -0.79,-0.46 -0.37,-0.25 -0.45,-0.17 c -0.31,-0.11 -0.62,-0.22 -0.93,-0.31 a 7.56,7.56 0 0 0 -0.91,-0.16 11.6,11.6 0 0 0 -3.35,0.09 33.21,33.21 0 0 0 -10.76,4.38 80.12,80.12 0 0 0 -9.15,6.2999996 137.08,137.08 0 0 0 -16,15.050001 133.75,133.75 0 0 0 -13.45,17.22 95.88,95.88 0 0 0 -9.83,19.42 z"
     style="fill:#363436;fill-opacity:1" /><path
     class="cls-2"
     id="path12566"
     d="m 245.46918,65.326426 c 10.46467,-27.815084 31.36843,-47.059857 37.6759,-45.118556 6.30747,1.941301 9.87534,41.844381 6.97391,67.042928"
     style="fill:#e5e5e6;fill-opacity:1;stroke-width:0.663312" /><path
     class="cls-2"
     id="path12568"
     d="m 282.69898,65.310798 c 0,0 10.49001,-8.37 13.69001,-5.38 4.14,3.88 -0.22,20.49 -6.27,27.32"
     style="fill:#e5e5e6;fill-opacity:1" /><path
     class="cls-13"
     id="path12570"
     d="m 282.69898,65.310798 c 1.82,-0.71 3.54001,-1.46 5.25,-2.17 a 35,35 0 0 1 4.95001,-1.74 4.75,4.75 0 0 1 1.9,-0.14 c 0.18,0.06 0.21,0.1 0.23,0.12 a 2.22,2.22 0 0 1 0.39,0.57 10.67,10.67 0 0 1 0.63,4.51 45.67,45.67 0 0 1 -1.81,10.54 43.48,43.48 0 0 1 -4.12,10.25 19.6,19.6 0 0 0 3.87,-4.25 31.3,31.3 0 0 0 2.86,-5 33.71,33.71 0 0 0 3.08,-11.35 17.28,17.28 0 0 0 0,-3.13 9.8,9.8 0 0 0 -0.92,-3.37 5.91,5.91 0 0 0 -1.26,-1.69 4.28,4.28 0 0 0 -2.3,-1.05 7.57,7.57 0 0 0 -3.64,0.52 18.72,18.72 0 0 0 -5.13001,3.14 22.55,22.55 0 0 0 -3.98,4.24 z"
     style="fill:#373537;fill-opacity:1" /><path
     class="cls-13"
     id="path12574"
     d="m 261.96898,37.990798 c 0,0.06 0.25,0.25 0.38001,0.4 l 0.45999,0.49 c 0.30001,0.35 0.61001,0.7 0.9,1.08 a 25.56,25.56 0 0 1 1.63,2.38 34.33,34.33 0 0 1 2.61,5.38 c 0.77001,1.87 1.28001,3.86 1.89,5.86 0.29,1 0.52001,2 0.85,3.07 0.33,1.07 0.52,2.09 0.88,3.16 a 27.74,27.74 0 0 0 0.68,-3.26 33.24,33.24 0 0 0 0.2,-3.36 24.87,24.87 0 0 0 -0.21999,-3.34 c -0.07,-0.56 -0.15001,-1.12 -0.25,-1.67 l -0.38,-1.66 a 25.21,25.21 0 0 0 -2.54001,-6.4 19.56,19.56 0 0 0 -2,-2.89 14,14 0 0 0 -1.25,-1.31 8.42,8.42 0 0 0 -0.70999,-0.61 8.53,8.53 0 0 0 -0.86,-0.62 z"
     style="fill:#918c91;fill-opacity:1" /><path
     transform="rotate(-31.001014)"
     id="ellipse15019"
     style="fill:#e5e5e6;fill-opacity:1;stroke-width:1.14833"
     inkscape:path-effect="#path-effect16160"
     sodipodi:type="arc"
     sodipodi:cx="106.7489"
     sodipodi:cy="219.86247"
     sodipodi:rx="21.646009"
     sodipodi:ry="14.53785"
     d="M 128.39491,219.86247 A 21.646009,14.53785 0 0 1 106.7489,234.40032 21.646009,14.53785 0 0 1 85.102892,219.86247 21.646009,14.53785 0 0 1 106.7489,205.32462 21.646009,14.53785 0 0 1 128.39491,219.86247 Z"
     class="UnoptimicedTransforms" /><path
     transform="matrix(-0.85715819,-0.51505324,-0.51505324,0.85715819,300,0)"
     class="UnoptimicedTransforms"
     id="path16162"
     d="M 128.39491,219.86247 A 21.646009,14.53785 0 0 1 106.7489,234.40032 21.646009,14.53785 0 0 1 85.102892,219.86247 21.646009,14.53785 0 0 1 106.7489,205.32462 21.646009,14.53785 0 0 1 128.39491,219.86247 Z"
     style="fill:#e5e5e6;fill-opacity:1;stroke-width:1.14833" /><path
     id="path6519"
     d="m 275.05145,262.60248 a 51.220624,51.220624 0 0 1 -5.37575,12.48295 23.218461,23.218461 0 0 1 -4.01433,4.77975 20.001545,20.001545 0 0 1 -5.09555,3.25019 l 3.00098,1.13008 c -1.5991,-2.80818 -3.3143,-5.56499 -5.15608,-8.23469 -1.0046,-1.36721 -1.85313,-2.65749 -2.8901,-3.94098 -1.03698,-1.28347 -2.11141,-2.62458 -3.25226,-3.84533 a 46.420253,46.420253 0 0 0 1.36341,4.77442 c 0.48096,1.563 1.08935,3.06244 1.65148,4.58713 q 1.79114,4.53493 3.94102,8.88 l 0.95435,1.93512 2.058,-0.81725 a 19.618183,19.618183 0 0 0 6.73749,-4.15857 21.168302,21.168302 0 0 0 4.42852,-6.37503 25.318623,25.318623 0 0 0 1.96648,-7.2769 21.885024,21.885024 0 0 0 -0.31766,-7.17089 z"
     style="fill:#918c91;fill-opacity:1;stroke-width:1.66679"
     fill="#723717" /><path
     class="cls-13"
     id="path12572"
     d="m 242.92898,72.600798 c 2.21,-4.57 4.5,-9 6.93,-13.32 2.43,-4.32 4.94,-8.56 7.66,-12.72 2.72001,-4.16 5.5,-8.2 8.53001,-12.12 3.02999,-3.92 6.19999,-7.72 9.32999,-11.8 a 65.08,65.08 0 0 0 -11.71999,9.75 79.11,79.11 0 0 0 -9.49001,12 80.51,80.51 0 0 0 -7.13,13.53 58.21,58.21 0 0 0 -4.11,14.68 z"
     style="fill:#363436;fill-opacity:1" /><path
     class="cls-13"
     d="m 57.071015,72.600798 c -2.21,-4.57 -4.5,-9 -6.93,-13.32 -2.43,-4.32 -4.94,-8.56 -7.66,-12.72 -2.72,-4.16 -5.5,-8.2 -8.53,-12.12 -3.03,-3.92 -6.2,-7.72 -9.33,-11.8 a 65.08,65.08 0 0 1 11.72,9.75 79.11,79.11 0 0 1 9.49,12 80.51,80.51 0 0 1 7.13,13.53 58.21,58.21 0 0 1 4.11,14.68 z"
     id="path6664"
     style="fill:#363436;fill-opacity:1" /><path
     id="path19134"
     style="fill:#322f3e;fill-opacity:1;stroke-width:0.659;stroke:#322f3e;stroke-opacity:1;stroke-dasharray:none"
     class="cls-8"
     d="m 46.152344,146.96289 c -4.061391,7.86968 -6.169922,17.94462 -6.169922,28.94336 0,25.17041 9.873215,45.55273 31.261719,45.55273 14.771371,0 24.044958,-9.73301 28.367187,-24.05273 -8.457877,-35.27804 -35.56441,-46.74198 -53.458984,-50.44336 z" /><path
     id="path19862"
     style="fill:#ecf7fe;fill-opacity:1;fill-rule:evenodd;stroke-width:0.553829"
     d="M 75.955078 166.39648 A 15.62051 15.62051 0 0 0 60.333984 182.01562 A 15.62051 15.62051 0 0 0 75.955078 197.63672 A 15.62051 15.62051 0 0 0 91.576172 182.01562 A 15.62051 15.62051 0 0 0 88.511719 172.72461 C 88.508391 172.72005 88.505281 172.71549 88.501953 172.71094 A 15.62051 15.62051 0 0 0 88.478516 172.67969 A 15.62051 15.62051 0 0 0 75.955078 166.39648 z " /><circle
     style="fill:#ecf7fe;fill-opacity:1;fill-rule:evenodd;stroke-width:0.279262"
     id="circle19864"
     cx="43.017212"
     cy="206.20074"
     r="7.8764763" /><path
     class="cls-8"
     id="path19879"
     d="m 253.84766,146.96289 c 4.06139,7.86968 6.16992,17.94462 6.16992,28.94336 0,25.17041 -9.87322,45.55273 -31.26172,45.55273 -14.77137,0 -24.04496,-9.73301 -28.36719,-24.05273 8.45788,-35.27804 35.56441,-46.74198 53.45899,-50.44336 z"
     style="fill:#322f3e;fill-opacity:1;stroke-width:0.659;stroke:#322f3e;stroke-opacity:1;stroke-dasharray:none" /><path
     id="path19881"
     d="m 264.85926,182.0166 a 15.62051,15.62051 0 0 1 -15.62051,15.62051 15.62051,15.62051 0 0 1 -15.62051,-15.62051 15.62051,15.62051 0 0 1 15.62051,-15.62051 15.62051,15.62051 0 0 1 15.62051,15.62051 z"
     style="fill:#ecf7fe;fill-opacity:1;fill-rule:evenodd;stroke-width:0.553829" /><path
     id="path19883"
     d="m 224.17709,206.20074 a 7.8764763,7.8764763 0 0 1 -7.87648,7.87648 7.8764763,7.8764763 0 0 1 -7.87647,-7.87648 7.8764763,7.8764763 0 0 1 7.87647,-7.87647 7.8764763,7.8764763 0 0 1 7.87648,7.87647 z"
     style="fill:#ecf7fe;fill-opacity:1;fill-rule:evenodd;stroke-width:0.279262" /><path
     id="path20764"
     style="fill:#66686f;fill-opacity:1;fill-rule:evenodd;stroke-width:1.31811"
     class="UnoptimicedTransforms"
     d="M 43.285156 66.394531 C 41.006948 66.403566 39.141382 67.624642 38.101562 70.697266 C 34.391494 81.660372 10.374665 73.011793 8.9121094 83.814453 C 8.7956439 84.674686 8.6165893 87.709967 8.4472656 89.044922 L 54.501953 72.041016 C 50.906858 69.056306 46.96345 66.614928 43.746094 66.408203 C 43.590667 66.398217 43.437037 66.393929 43.285156 66.394531 z M 256.71484 66.394531 C 256.56296 66.393929 256.40933 66.398217 256.25391 66.408203 C 253.03655 66.614928 249.09314 69.056306 245.49805 72.041016 L 291.55273 89.044922 C 291.38341 87.709967 291.20436 84.674686 291.08789 83.814453 C 289.62534 73.011793 265.60851 81.660372 261.89844 70.697266 C 260.85862 67.624642 258.99305 66.403566 256.71484 66.394531 z " /><g
     class="UnoptimicedTransforms"
     id="g20762"
     transform="matrix(-1,0,0,1,294,-4)"><path
       class="cls-2"
       id="path20758"
       d="m 36.07045,79.184116 c 0,0 -6.035738,-9.083562 -3.389134,-11.463179 3.433506,-3.077804 18.773907,2.602814 23.876324,7.983051"
       style="fill:#66686f;fill-opacity:1;stroke-width:0.812668" /><path
       class="cls-13"
       id="path20760"
       d="m 36.07045,79.184116 c -0.446323,-1.523589 -0.932091,-2.969041 -1.386181,-4.403574 a 28.443368,28.443368 0 0 1 -1.059235,-4.130338 3.8601714,3.8601714 0 0 1 0.0208,-1.548114 c 0.06128,-0.141492 0.09578,-0.162956 0.113389,-0.177736 a 1.8041222,1.8041222 0 0 1 0.489002,-0.275501 8.6711639,8.6711639 0 0 1 3.695752,-0.191648 37.114532,37.114532 0 0 1 8.405352,2.209472 35.33479,35.33479 0 0 1 8.007489,4.059164 15.928286,15.928286 0 0 0 -3.167566,-3.433177 25.436498,25.436498 0 0 0 -3.846066,-2.668433 27.395027,27.395027 0 0 0 -8.971465,-3.294841 14.042897,14.042897 0 0 0 -2.534033,-0.220973 7.9641431,7.9641431 0 0 0 -2.793287,0.506912 4.8028659,4.8028659 0 0 0 -1.45717,0.90078 3.4782176,3.4782176 0 0 0 -1.012451,1.787941 6.1518942,6.1518942 0 0 0 0.164013,2.983638 15.213139,15.213139 0 0 0 2.179962,4.374903 18.325656,18.325656 0 0 0 3.151703,3.521525 z"
       style="fill:#373537;fill-opacity:1;stroke-width:0.812668" /></g><g
     id="g20754"
     inkscape:path-effect="#path-effect20756"
     class="UnoptimicedTransforms"
     transform="translate(6,-4)"><path
       class="cls-2"
       d="m 36.07045,79.184116 c 0,0 -6.035738,-9.083562 -3.389134,-11.463179 3.433506,-3.077804 18.773907,2.602814 23.876324,7.983051"
       id="path20679"
       style="fill:#66686f;fill-opacity:1;stroke-width:0.812668"
       inkscape:original-d="m 36.07045,79.184116 c 0,0 -6.035738,-9.083562 -3.389134,-11.463179 3.433506,-3.077804 18.773907,2.602814 23.876324,7.983051"
       sodipodi:nodetypes="ccc" /><path
       class="cls-13"
       d="m 36.07045,79.184116 c -0.446323,-1.523589 -0.932091,-2.969041 -1.386181,-4.403574 a 28.443368,28.443368 0 0 1 -1.059235,-4.130338 3.8601714,3.8601714 0 0 1 0.0208,-1.548114 c 0.06128,-0.141492 0.09578,-0.162956 0.113389,-0.177736 a 1.8041222,1.8041222 0 0 1 0.489002,-0.275501 8.6711639,8.6711639 0 0 1 3.695752,-0.191648 37.114532,37.114532 0 0 1 8.405352,2.209472 35.33479,35.33479 0 0 1 8.007489,4.059164 15.928286,15.928286 0 0 0 -3.167566,-3.433177 25.436498,25.436498 0 0 0 -3.846066,-2.668433 27.395027,27.395027 0 0 0 -8.971465,-3.294841 14.042897,14.042897 0 0 0 -2.534033,-0.220973 7.9641431,7.9641431 0 0 0 -2.793287,0.506912 4.8028659,4.8028659 0 0 0 -1.45717,0.90078 3.4782176,3.4782176 0 0 0 -1.012451,1.787941 6.1518942,6.1518942 0 0 0 0.164013,2.983638 15.213139,15.213139 0 0 0 2.179962,4.374903 18.325656,18.325656 0 0 0 3.151703,3.521525 z"
       id="path20681"
       style="fill:#373537;fill-opacity:1;stroke-width:0.812668"
       inkscape:original-d="m 36.07045,79.184116 c -0.446323,-1.523589 -0.932091,-2.969041 -1.386181,-4.403574 a 28.443368,28.443368 0 0 1 -1.059235,-4.130338 3.8601714,3.8601714 0 0 1 0.0208,-1.548114 c 0.06128,-0.141492 0.09578,-0.162956 0.113389,-0.177736 a 1.8041222,1.8041222 0 0 1 0.489002,-0.275501 8.6711639,8.6711639 0 0 1 3.695752,-0.191648 37.114532,37.114532 0 0 1 8.405352,2.209472 35.33479,35.33479 0 0 1 8.007489,4.059164 15.928286,15.928286 0 0 0 -3.167566,-3.433177 25.436498,25.436498 0 0 0 -3.846066,-2.668433 27.395027,27.395027 0 0 0 -8.971465,-3.294841 14.042897,14.042897 0 0 0 -2.534033,-0.220973 7.9641431,7.9641431 0 0 0 -2.793287,0.506912 4.8028659,4.8028659 0 0 0 -1.45717,0.90078 3.4782176,3.4782176 0 0 0 -1.012451,1.787941 6.1518942,6.1518942 0 0 0 0.164013,2.983638 15.213139,15.213139 0 0 0 2.179962,4.374903 18.325656,18.325656 0 0 0 3.151703,3.521525 z" /></g></svg>
