<?xml version="1.0" encoding="UTF-8" standalone="no"?>
<svg
   viewBox="0 0 300 345"
   version="1.1"
   id="svg53"
   sodipodi:docname="worm.svg"
   inkscape:version="1.2 (dc2aedaf03, 2022-05-15)"
   xml:space="preserve"
   xmlns:inkscape="http://www.inkscape.org/namespaces/inkscape"
   xmlns:sodipodi="http://sodipodi.sourceforge.net/DTD/sodipodi-0.dtd"
   xmlns="http://www.w3.org/2000/svg"
   xmlns:svg="http://www.w3.org/2000/svg"><sodipodi:namedview
     id="namedview55"
     pagecolor="#505050"
     bordercolor="#ffffff"
     borderopacity="1"
     inkscape:showpageshadow="0"
     inkscape:pageopacity="0"
     inkscape:pagecheckerboard="1"
     inkscape:deskcolor="#505050"
     showgrid="false"
     inkscape:zoom="0.87885425"
     inkscape:cx="-90.458685"
     inkscape:cy="215.05272"
     inkscape:window-width="1366"
     inkscape:window-height="705"
     inkscape:window-x="-8"
     inkscape:window-y="-8"
     inkscape:window-maximized="1"
     inkscape:current-layer="svg53" /><defs
     id="defs7"><linearGradient
       id="A"
       x1="150"
       y1="356.11"
       x2="150"
       y2="161.16"
       gradientUnits="userSpaceOnUse"><stop
         offset="0"
         stop-color="#995b3c"
         id="stop2"
         style="stop-color:#e61324;stop-opacity:1;" /><stop
         offset="0.69"
         stop-color="#51291b"
         id="stop4"
         style="stop-color:#570606;stop-opacity:1;" /></linearGradient></defs><path
     d="M 263.62,345 H 36.38 A 36.38,36.38 0 0 1 0,308.62 v -49.48 h 300 v 49.48 A 36.38,36.38 0 0 1 263.62,345 Z"
     fill="url(#A)"
     id="path9"
     style="fill:url(#A)" /><path
     id="rect1098"
     style="fill:#9d440d;stroke-width:4.03707;stroke-linecap:round;stroke-linejoin:round;stop-color:#000000"
     d="m 156.37109,99.509766 c -1.32388,-0.02113 -2.64563,0.231741 -3.84375,0.791014 -5.85147,3.72362 -10.73582,9.14475 -13.45312,15.56445 -3.15569,7.42913 -3.19413,15.65693 -1.75977,23.52149 h 21.30469 c -0.62338,-1.83848 -1.17845,-3.70005 -1.6543,-5.58203 -0.97294,-4.24436 -1.94473,-8.83133 -0.45898,-13.07227 1.65738,-3.5249 5.18602,-5.62605 8.37305,-7.60742 2.21817,-1.24294 3.75809,-4.16762 2.38281,-6.56445 -1.16371,-1.98477 -3.17252,-3.23572 -4.80469,-4.80469 -1.66447,-1.41295 -3.87946,-2.210883 -6.08594,-2.246094 z" /><path
     id="path13"
     style="fill:#e71224;fill-opacity:1;stroke-width:0.833764"
     d="M 73.20508,119.55469 C 36.75016,120.1856 7.1841,148.64429 1.10156,177.60156 0.37822,180.86969 0,184.21811 0,187.62695 v 85.46289 c 0,13.96729 16.28878,25.29102 36.38086,25.29102 H 263.61914 C 283.71122,298.38086 300,287.05713 300,273.08984 v -85.46289 c 0,-3.40884 -0.37822,-6.75726 -1.10156,-10.02539 -7.20894,-34.31972 -47.4033,-67.93978 -92.95899,-55.36133 C 185.95747,124.433 150,136.80266 150,136.80266 c 0,0 -35.95747,-12.36966 -55.93945,-14.56243 -7.11808,-1.96538 -14.10456,-2.80238 -20.85547,-2.68554 z"
     sodipodi:nodetypes="scssssssccccs" /><path
     id="rect19586"
     style="opacity:1;fill:#78270a;fill-opacity:1;stroke:none;stroke-width:6.27748;stroke-linecap:round;stroke-linejoin:round;stroke-dasharray:none;stroke-opacity:1;stop-color:#000000"
     d="m 137.49805,120.61133 c -1.53132,6.13848 -1.31189,12.58923 -0.1836,18.77539 h 21.30469 c -1.37729,-4.13053 -2.53087,-8.38289 -2.84774,-12.7402 -0.10215,-2.03246 0.0548,-4.12589 0.79696,-6.03519 -5.49084,3.03074 -10.65339,7.21051 -19.07031,0 z"
     sodipodi:nodetypes="cccccc" /><ellipse
     style="fill:#ffc2b9;fill-opacity:1;fill-rule:evenodd;stroke-width:0.533984"
     id="path6850"
     cx="241.6537"
     cy="158.16045"
     rx="29.153439"
     ry="24.51539" /><path
     id="path7339"
     style="fill:#be202a;fill-opacity:1;stroke-width:1.83593"
     class="cls-7"
     inkscape:transform-center-x="-11.542449"
     inkscape:transform-center-y="3.0801984"
     d="m 123.16602,128.55078 c 0.40141,8.10659 5.97734,14.91257 11.71583,20.19207 3.45946,2.97073 7.48426,5.52984 12.04001,6.33918 4.47095,17.76209 16.64662,34.04543 33.94871,40.94496 19.75675,8.06145 41.89931,5.33374 61.91595,-0.22968 2.76667,-0.72101 4.10433,-1.18067 0.40606,-0.65853 -21.89695,2.17647 -45.41613,-1.34447 -63.383,-14.82245 -14.40427,-10.72103 -24.64675,-26.78476 -28.7764,-44.21672 1.48595,-1.21497 6.1131,-4.16373 1.94473,-1.70713 -4.42677,4.37657 -9.95061,-0.82254 -15.02721,-1.48817 -4.90693,-1.5221 -9.83417,-2.97975 -14.78468,-4.35353 z" /><path
     class="cls-7"
     d="m 151.03223,136.09948 c 0,0 13.09892,70.16682 99.01819,58.24534 0,0 -18.11587,-32.81849 -30.63144,-54.38291 -10.98079,-18.90721 -40.87496,-24.95941 -68.38675,-3.86243 z"
     id="path165"
     style="fill:#009444;stroke-width:1.83593"
     inkscape:transform-center-x="-11.542449"
     inkscape:transform-center-y="3.0801984" /><path
     id="path10837"
     style="color:#000000;fill:#005b2a;stroke-linecap:round;stroke-linejoin:round"
     d="m 159.00391,132.39648 c -0.92129,0.007 -1.86068,0.0351 -2.8086,0.0742 -1.72701,1.10689 -3.44843,2.3148 -5.16211,3.62891 0,0 0.15607,0.71352 0.4043,1.71289 24.6072,-2.14671 46.92154,14.51104 48.78745,13.17323 2.31263,-1.33782 -21.16446,-17.81125 -37.13901,-18.51698 -1.33122,-0.0588 -2.69189,-0.0832 -4.08203,-0.0723 z"
     sodipodi:nodetypes="sccccss" /><path
     id="path13107"
     style="fill:#490b10;fill-opacity:1;fill-rule:evenodd"
     d="m 124.02512,203.67427 c 13.78704,18.24065 -5.483,59.16795 -34.70428,59.16795 -29.221277,0 -52.578946,-12.01357 -50.634108,-31.85967 1.446078,-14.75651 12.310075,-15.92983 41.531347,-15.92983 29.221271,0 34.709981,-23.41412 43.807041,-11.37845 z"
     sodipodi:nodetypes="asasa" /><path
     id="path13877"
     style="fill:#890000;fill-opacity:1;fill-rule:evenodd"
     d="M 118.28711 200.24805 C 111.39125 200.76124 103.04785 215.05273 80.21875 215.05273 C 50.997507 215.05273 40.133577 216.22593 38.6875 230.98242 C 38.001459 237.98312 40.474804 244.00315 45.232422 248.87109 C 44.401826 246.34453 44.082892 243.61916 44.365234 240.70508 C 45.665053 227.28951 55.429536 226.22266 81.695312 226.22266 C 107.96109 226.22266 112.89529 204.93693 121.07227 215.87891 C 125.14872 221.33378 125.99345 229.02102 124.37891 236.88086 C 129.70573 225.12493 130.33675 212.02393 124.02539 203.67383 C 122.03541 201.04103 120.21795 200.10435 118.28711 200.24805 z " /><path
     id="path13873"
     style="fill:#6de841;fill-opacity:0.99788129;fill-rule:evenodd;stroke-width:1.03379"
     d="m 195.14062,18.292969 c -25.70612,-0.136647 -53.31852,14.802496 -61.14257,40.4375 -7.56738,8.381613 -18.87899,11.955523 -27.29487,19.407416 -27.39499,19.753625 -54.18999,45.975085 -60.000601,80.712035 -5.396529,36.37344 9.470033,71.86579 27.205624,102.7907 13.104098,2.47214 28.101017,1.94267 38.202477,-7.95548 8.86115,-8.2905 12.22685,-11.28347 3.33213,-20.59193 -7.73607,-13.84177 -16.428977,-26.6531 -18.595312,-41.72534 -3.042169,-21.16585 -2.359612,-45.18836 8.553502,-63.57727 10.86316,-18.30475 34.51871,-28.183732 51.47205,-37.792553 16.84424,-0.176556 31.05147,11.696613 47.8248,12.687803 20.65577,2.82678 44.77204,-7.812809 50.45725,-29.188663 4.58427,-21.245941 -12.12015,-40.657448 -30.52282,-48.825448 -9.19902,-4.271693 -19.35745,-6.410142 -29.49166,-6.37877 z"
     sodipodi:nodetypes="cccccccaaccccc" /><circle
     style="fill:#46b23e;fill-opacity:1;fill-rule:evenodd;stroke-width:0.821697"
     id="circle20398"
     cx="192.11353"
     cy="50.455299"
     r="25.122538" /><circle
     style="fill:#ffffff;fill-opacity:1;fill-rule:evenodd;stroke-width:0.821697"
     id="path14484"
     cx="191.37463"
     cy="54.519241"
     r="25.122538" /><path
     id="path35"
     style="fill:#202020;fill-opacity:1;stroke-width:0.834712"
     d="m 196.07729,32.119739 a 19.198446,19.198446 0 1 0 17.60329,29.690814 21.341082,21.341082 0 0 0 1.77207,-8.444344 21.341082,21.341082 0 0 0 -0.65824,-5.249146 11.026585,11.026585 0 0 1 -13.89462,-14.976445 21.341082,21.341082 0 0 0 -4.8225,-1.020879 z m -4.76157,21.505499 a 4.5575441,4.5575441 0 0 1 4.55129,4.565004 4.5491969,4.5491969 0 0 1 -4.56044,4.548244 4.5575441,4.5575441 0 1 1 0.009,-9.113248 z" /><path
     id="path5707"
     style="color:#000000;fill:#202020;fill-rule:evenodd;stroke-linecap:round"
     d="M 239.2793 56.371094 C 235.4466 56.741202 236.40677 61.160317 236.91992 63.769531 C 238.26699 70.146041 243.09733 75.911976 249.53516 77.519531 C 250.86152 77.876744 252.2252 78.032495 253.58398 78.013672 C 254.19177 76.56051 254.73671 75.068138 255.1543 73.498047 C 255.2515 73.047553 255.28503 72.603052 255.36328 72.154297 C 252.1102 72.812325 248.57996 71.652227 246.23242 69.302734 C 243.54543 66.703006 242.13058 62.940504 242.13672 59.228516 C 242.17372 57.698135 240.80968 56.334107 239.2793 56.371094 z " /><path
     id="rect16853"
     style="opacity:1;fill:#36ac3a;fill-opacity:1;stroke-width:4.90836;stroke-linecap:round;stroke-linejoin:round;stop-color:#000000"
     d="m 96.773438,190.74219 c -19.345228,-2.11402 -50.281561,13.84637 -40.49948,34.80709 4.884306,12.48569 10.971421,24.46849 17.634245,36.09134 11.614671,2.19276 24.717987,2.0573 34.721757,-5.03515 3.76103,-3.0052 7.38574,-6.29112 10.39652,-10.06324 2.53636,-2.88445 1.78294,-7.11722 -0.53921,-9.86386 -2.74486,-2.99597 -4.79319,-6.43421 -6.71175,-10.01011 -6.47451,-11.2441 -13.326764,-22.81926 -15.002082,-35.92607 z"
     sodipodi:nodetypes="cccscccc" /><path
     id="path16396"
     style="color:#000000;fill:#237d2b;stroke-linecap:round;stroke-linejoin:round;fill-opacity:1"
     d="m 120.48047,68.896484 c -3.64328,2.141855 -9.63859,4.644388 -2.15671,5.316845 11.75895,3.375185 22.52324,10.528671 29.44577,20.702687 10.02172,-2.357046 -1.20142,-9.712519 -4.67642,-13.741274 -6.49284,-5.736682 -14.35877,-9.748135 -22.61264,-12.278258 z M 79.021484,105.74219 c -4.100578,-1.97386 -9.568341,5.25679 -8.682629,6.21067 13.807236,-1.74725 28.486181,0.82543 39.838875,9.19554 8.7952,-5.48859 -4.29216,-8.68267 -8.95146,-11.33695 -7.040543,-2.81937 -14.638386,-4.06741 -22.204786,-4.06926 z m 6.544922,53.08398 c -14.635431,-0.32753 -28.601258,5.91827 -39.955078,14.79688 0.08475,3.55346 -0.870789,9.94804 3.51501,4.53767 12.497179,-10.16 29.065248,-15.9485 45.16536,-12.84043 2.717806,-0.79721 2.092564,-7.92698 -2.796047,-6.16274 -1.969573,-0.20551 -3.948946,-0.3191 -5.929245,-0.33138 z m 19.458984,55.71094 c -17.128436,2.55516 -31.638736,13.8587 -41.388671,27.75781 1.558897,3.74923 3.120238,7.81544 5.514545,2.16631 9.1443,-12.71417 22.846394,-22.86612 38.741316,-24.60967 -0.98349,-1.75632 -1.93906,-3.52826 -2.86719,-5.31445 z" /><path
     id="rect18205"
     style="opacity:1;fill:#36ac3a;fill-opacity:1;stroke-width:5.716;stroke-linecap:round;stroke-linejoin:round;stop-color:#000000"
     d="m 159.52063,86.995155 1.46765,3.217736 c 15.08676,1.519892 28.32037,11.563289 43.70899,12.472659 18.26922,2.50017 39.22103,-5.550852 47.75781,-22.230472 -25.17588,15.082526 -47.53642,23.593872 -85.25038,-0.885211 -7.42282,-4.81795 -11.35758,-0.628706 -7.68407,7.425288 z"
     sodipodi:nodetypes="scccss" /><path
     id="path18350"
     style="fill:#490b10;fill-opacity:1;fill-rule:evenodd;stroke-width:0.623896"
     d="m 283.74835,277.78134 c 5.57086,-14.07833 -11.25615,-38.57099 -28.70172,-35.20389 -17.44556,3.3671 -27.94913,17.54708 -24.35277,29.88344 2.62653,9.00961 9.28189,12.21519 26.72745,8.84809 17.44556,-3.3671 23.06922,4.70533 26.32704,-3.52764 z"
     sodipodi:nodetypes="asasa" /><path
     id="path18352"
     style="fill:#890000;fill-opacity:1;fill-rule:evenodd;stroke-width:0.623896"
     d="m 281.9452,282.60758 c -4.1792,0.47202 -10.08958,-1.51549 -23.71891,1.11505 -17.44554,3.36709 -24.87839,-2.15285 -27.53196,-11.26174 -1.25888,-4.3214 -0.51259,-8.39042 1.73721,-11.99848 -0.18936,1.68383 -0.0491,3.43368 0.47296,5.23285 2.40357,8.28288 8.36254,16.27641 24.04362,13.24987 15.68109,-3.02655 21.20923,1.33644 24.76356,-6.4836 1.77193,-3.8985 1.34364,-8.82782 -0.57381,-13.58226 4.60641,6.77565 6.57253,14.93788 3.81757,20.91375 -0.86865,1.8842 -1.84006,2.68241 -3.01024,2.81456 z"
     sodipodi:nodetypes="sssccsscss" /><path
     id="path18517"
     style="color:#000000;fill:#6de841;fill-opacity:1;stroke-linecap:round;stroke-linejoin:round"
     d="m 258.30469,242.26367 c -4.08003,0.0908 -8.05189,1.40031 -11.75781,3.02341 -6.65926,9.42229 -8.86772,20.19498 -10.92764,30.9355 -1.41253,7.36502 -3.08769,15.31132 -0.8866,22.48028 2.94751,9.60002 8.75176,18.13274 17.87569,24.25064 3.76547,2.26718 8.59306,4.99704 13.01596,2.95807 3.50412,-1.80774 4.65198,-6.30015 3.03265,-9.76758 -3.15791,-8.12578 -5.20958,-11.79673 -5.868,-20.85087 -0.219,-8.21047 2.18463,-15.6978 6.18333,-22.29078 3.13101,-5.16235 9.08453,-8.096 13.24062,-12.35979 -3.92054,-8.49156 -11.22929,-16.2261 -20.69531,-18.0957 -1.05994,-0.18781 -2.1363,-0.28557 -3.21289,-0.28318 z"
     sodipodi:nodetypes="ccaaccccaccc" /><path
     id="rect18715"
     style="opacity:1;fill:#36ac3a;stroke-width:30;stroke-linecap:round;stroke-linejoin:round;stop-color:#000000;fill-opacity:1"
     d="M 258.30469 242.26367 C 254.22466 242.35447 250.25279 243.66401 246.54688 245.28711 C 241.35302 252.63598 238.87479 260.80869 237.05469 269.14453 C 254.1773 261.36285 262.22548 264.89999 269.13867 272.74805 C 272.3091 267.74532 278.12674 264.83462 282.21289 260.64258 C 278.29235 252.15103 270.98359 244.41647 261.51758 242.54688 C 260.45764 242.35907 259.38128 242.26128 258.30469 242.26367 z " /><path
     id="path19572"
     style="color:#000000;fill:#237d2b;stroke-linecap:round;stroke-linejoin:round;-inkscape-stroke:none;fill-opacity:1"
     d="m 254.03516,252.38086 c -4.26952,-0.008 -8.50861,0.80947 -12.56446,2.10937 -0.61656,1.8086 -2.21495,4.87937 -1.90557,6.01146 7.39475,-2.96755 15.94064,-4.45442 23.57964,-1.4841 4.39122,1.65824 8.18879,4.62351 11.27125,8.12499 1.012,-1.16402 3.54033,-2.14889 3.60176,-3.37402 -5.46981,-6.28279 -13.2356,-10.82265 -21.66246,-11.30196 -0.77205,-0.0561 -1.54609,-0.0843 -2.32016,-0.0857 z m -8.53321,30.72266 c -3.85719,-0.008 -7.69185,0.6696 -11.38476,1.75586 -0.0697,1.63926 -0.77999,4.27082 -0.17393,5.31386 7.32838,-2.49691 15.73104,-3.11376 22.80757,0.50374 2.1861,1.07847 4.20571,2.4782 6.03433,4.08669 -0.60473,-2.21877 1.5107,-5.50701 -0.75397,-6.77034 -4.87279,-3.22846 -10.69051,-4.91784 -16.52924,-4.88981 z" /></svg>
