<svg id="Layer_1" data-name="Layer 1" xmlns="http://www.w3.org/2000/svg" xmlns:xlink="http://www.w3.org/1999/xlink" viewBox="0 0 300 345"><defs><linearGradient id="linear-gradient" x1="150" y1="356.11" x2="150" y2="161.16" gradientUnits="userSpaceOnUse"><stop offset="0" stop-color="#9dc6ea"/><stop offset="1" stop-color="#416eb5"/></linearGradient></defs><path d="M263.62,345H36.38A36.38,36.38,0,0,1,0,308.62V259.14H300v49.48A36.38,36.38,0,0,1,263.62,345Z" fill="url(#linear-gradient)"/><path d="M73.62,299.22c0,24.52,17.69,44.9,42.49,44.9h34c11.27,0,20.33-.17,33.82-.17,24.8,0,42.49-20.37,42.49-44.89,0-.36,0-.75,0-1.15H73.66C73.64,298.37,73.62,298.81,73.62,299.22Z" fill="#7ca1d5"/><path d="M205.94,45H94.06A94.06,94.06,0,0,0,0,139.06V262a36.38,36.38,0,0,0,36.38,36.38H263.62A36.38,36.38,0,0,0,300,262V139.06A94.06,94.06,0,0,0,205.94,45Z" fill="#dae6f5"/><path d="M68.69,298.39C50.6,238.87,32.78,173.9,33.34,164.76S62.12,97,89.28,45.12a94.46,94.46,0,0,0-20.93,3.43C62.85,59.23,54.65,75.32,46.47,92c-29.35,59.69-29.87,68.14-30.09,71.75-.5,8.09-6.85,29.38,2.4,62.67,8.22,29.57,32.14,72,32.14,72Z" fill="#2f2c38"/><path d="M213.89,271.66c4.39-16,26.13-96.63,22.89-114.48-2.73-15-39.64-82.87-55.85-112.18H119.07C102.86,74.31,66,142.16,63.22,157.18,60,175,81.72,255.68,86.11,271.66l16.39-4.5C90.08,221.94,88.57,169.58,90,160.22c1.65-10.56,23.41-70,45.51-109.85V84.83l-5.69-1.75c-3.6,11.71-21.56,70.77-21.56,83.44,0,12.32,9.94,77.17,11.07,84.52l16.81-2.59c-4.38-28.36-10.88-73.59-10.88-81.93,0-6.17,8.41-36.89,16.22-63.22V244.76h17V103.3c7.81,26.33,16.22,57.05,16.22,63.22,0,8.34-6.5,53.57-10.88,81.93L180.65,251c1.13-7.35,11.07-72.2,11.07-84.52,0-12.67-18-71.73-21.56-83.44l-6.8,2.09V48.36C185.49,88.22,208.31,149.48,210,160.22c1.45,9.36-.06,61.72-12.48,106.94Z" fill="#2f2c38"/><path d="M283.62,163.72c-.22-3.61-.74-12.06-30.09-71.75-8.18-16.65-16.38-32.74-21.88-43.42a94.46,94.46,0,0,0-20.93-3.43C237.88,97,266.05,155.53,266.66,164.76s-17.26,74.11-35.35,133.63h17.77s29.31-53.23,35.67-75.9C294,189.44,284.18,172.78,283.62,163.72Z" fill="#2f2c38"/><rect x="50.76" y="298.39" width="18" height="46.61" fill="#15141a"/><rect x="231.21" y="298.39" width="18" height="46.61" fill="#15141a"/><rect x="97.74" y="298.39" width="18" height="46.61" fill="#231f20"/><rect x="188.45" y="298.39" width="18" height="46.61" fill="#231f20"/><path d="M189.53,231.3l13.22-5.91c-5-14.78-10.07-29.12-14.06-40.19A31.72,31.72,0,0,0,177,169.94a37.38,37.38,0,0,1,1.91,5.4C181.55,185.35,185.57,209.23,189.53,231.3Z" fill="#9dc6ea"/><path d="M121.07,175.39a37,37,0,0,1,1.87-5.32,31.67,31.67,0,0,0-11.59,15.17c-4,11.1-8.86,25.53-13.54,40.4l12.24,5.48C114.18,208.85,118.19,186.15,121.07,175.39Z" fill="#9dc6ea"/><path d="M119,337.55h31.06c10.32,0,18.6-.15,30.94-.15,22.68,0,38.86-18.64,38.86-41.06,0-7.93-2.92-26.85-9.55-47.86-2.38-7.55-5-15.38-7.56-23.09l-13.22,5.91c2.76,15.41,5.5,29.94,7.74,38.24,0,0,0,.1,0,.15.88,3.29-2.53,5.91-5.07,3.91a28.89,28.89,0,0,0-18-6.4c-9.74,0-16.28,6.08-24.37,6.08s-14.58-5.95-24.26-5.95a29,29,0,0,0-18.33,6.7c-2.47,2-5.86-.52-5.1-3.78,2.48-10.66,5.18-24.81,7.83-39.13l-12.24-5.48c-9.18,29.19-17.67,60.08-17.67,70.84C80.14,318.91,96.32,337.55,119,337.55Z" fill="#15141a"/><path d="M149.94,164.24h8.88a31.7,31.7,0,0,1,18.15,5.7c-4.21-9.61-11.92-15.72-20.41-15.72h-6.65l-6.63.05c-8.48,0-16.16,6.19-20.34,15.8a31.79,31.79,0,0,1,18.12-5.79Z" fill="#dae6f5"/><path d="M110.05,231.12,132.2,241a43.56,43.56,0,0,0,35.6,0l21.73-9.72c-4-22.07-8-46-10.65-56a37.38,37.38,0,0,0-1.91-5.4,31.7,31.7,0,0,0-18.15-5.7h-8.88l-8.88,0a31.79,31.79,0,0,0-18.12,5.79,37,37,0,0,0-1.87,5.32C118.19,186.15,114.18,208.85,110.05,231.12Z" fill="#dae6f5"/><path d="M132.2,241l-22.15-9.9c-2.65,14.32-5.35,28.47-7.83,39.13-.76,3.26,2.63,5.78,5.1,3.78a29,29,0,0,1,18.33-6.7c9.68,0,16.18,5.95,24.26,5.95s14.63-6.08,24.37-6.08a28.89,28.89,0,0,1,18,6.4c2.54,2,5.95-.62,5.07-3.91,0-.05,0-.1,0-.15-2.24-8.3-5-22.83-7.74-38.24L167.8,241A43.56,43.56,0,0,1,132.2,241Z" fill="#2f2c38"/><path d="M189.66,187.9c-.33-.92-.66-1.82-1-2.7A31.72,31.72,0,0,0,177,169.94a37.38,37.38,0,0,1,1.91,5.4c1.94,7.25,4.58,21.8,7.4,37.66C187.49,204.44,188.69,195.63,189.66,187.9Z" fill="#15141a"/><path d="M121.07,175.39a37,37,0,0,1,1.87-5.32,31.67,31.67,0,0,0-11.59,15.17c-.32.9-.66,1.84-1,2.79.92,7.39,2.06,15.76,3.22,24C116.4,196.72,119,183,121.07,175.39Z" fill="#15141a"/><path d="M200.06,299.21A14.27,14.27,0,1,1,175.9,314.4c-4.2-6.67.51-26,.51-26S195.87,292.53,200.06,299.21Z" fill="#231f20"/><path d="M197.2,306.61a14.11,14.11,0,0,1,2.12,8.84,14.26,14.26,0,0,0,.74-16.24c-4.19-6.68-23.65-10.81-23.65-10.81s-.81,3.35-1.46,7.73C179.48,297.22,193.69,301,197.2,306.61Z" fill="#2f2c38"/><path d="M99.94,299.21A14.27,14.27,0,1,0,124.1,314.4c4.2-6.67-.51-26-.51-26S104.13,292.53,99.94,299.21Z" fill="#231f20"/><path d="M102.8,306.61c3.51-5.59,17.72-9.39,22.25-10.48-.65-4.38-1.46-7.73-1.46-7.73s-19.46,4.13-23.65,10.81a14.26,14.26,0,0,0,.74,16.24A14.11,14.11,0,0,1,102.8,306.61Z" fill="#2f2c38"/><circle cx="43.98" cy="189.94" r="36.45" fill="#9dc6ea"/><path d="M63,158.85c-.87,9.85,3.36,32.39,8.5,55a36.44,36.44,0,0,0-8.5-55Z" fill="#15141a"/><path d="M33.34,164.76c.12-1.79,1.28-5.44,3.26-10.53a36.44,36.44,0,0,0-20.2,11.88c.57,9.56,6.12,32.35,12.84,57.17A36.24,36.24,0,0,0,44,226.39c1.25,0,2.5-.06,3.72-.18C39,194.75,33,170.13,33.34,164.76Z" fill="#15141a"/><circle cx="43.98" cy="200.06" r="36.45" fill="#fff"/><path d="M75.74,194.77a13.21,13.21,0,0,1-19.19-17.91,23,23,0,1,0,19.19,17.91Zm-32,19.76a5.46,5.46,0,1,1,5.46-5.45A5.45,5.45,0,0,1,43.69,214.53Z" fill="#414042"/><circle cx="256.02" cy="189.94" r="36.45" fill="#9dc6ea"/><path d="M237,158.85a36.44,36.44,0,0,0-8.5,55C233.63,191.24,237.86,168.7,237,158.85Z" fill="#15141a"/><path d="M263.4,154.23c2,5.09,3.14,8.74,3.26,10.53.33,5.37-5.68,30-14.36,61.45,1.22.12,2.47.18,3.72.18a36.24,36.24,0,0,0,14.74-3.11c6.72-24.82,12.27-47.61,12.84-57.17A36.44,36.44,0,0,0,263.4,154.23Z" fill="#15141a"/><circle cx="256.02" cy="200.06" r="36.45" fill="#fff"/><path d="M269.07,194.64A13.22,13.22,0,0,1,250,176.87a24.25,24.25,0,0,0-3.32-.24,23,23,0,1,0,22.39,18Zm-32.21,19.89a5.46,5.46,0,1,1,5.45-5.45A5.45,5.45,0,0,1,236.86,214.53Z" fill="#414042"/><path d="M61.65,63.19A30.83,30.83,0,1,1,0,63.19C0,46.17,30.83,0,30.83,0S61.65,46.17,61.65,63.19Z" fill="#dae6f5"/><path d="M300,63.19a30.83,30.83,0,1,1-61.65,0c0-17,30.82-63.19,30.82-63.19S300,46.17,300,63.19Z" fill="#dae6f5"/><path d="M27.37,27.52a29.78,29.78,0,0,1,9.93,8.82A42.93,42.93,0,0,1,43.51,48,42.9,42.9,0,0,1,46,61a33.33,33.33,0,0,1-2,13.09C43,72,42.45,70,41.73,68s-1.24-4-1.94-5.89c-1.2-3.89-2.54-7.64-3.82-11.41S33.26,43.2,31.83,39.4,28.9,31.76,27.37,27.52Z" fill="#9dc6ea"/><path d="M37.41,46.33l.14,0s0,0,0,0l-.08,0-.27.13c-.18.07-.42.22-.64.32s-.46.28-.69.4-.47.33-.7.49a15.51,15.51,0,0,0-1.42,1.1c-.42.46-.94.83-1.36,1.33a29,29,0,0,0-4.74,7l-.55,1-.46,1.06c-.31.71-.61,1.43-.94,2.15-.57,1.47-1.11,3-1.67,4.52-.25.78-.48,1.56-.74,2.35s-.56,1.58-.76,2.39c-.46,1.62-.91,3.25-1.49,4.91-.47-1.66-.82-3.35-1.17-5.06s-.43-3.45-.58-5.2a23.4,23.4,0,0,1,0-2.65c0-.88,0-1.78.05-2.67s.2-1.79.31-2.69l.17-1.35.28-1.36a28.77,28.77,0,0,1,4.42-10.61,29.1,29.1,0,0,1,1.91-2.43c.36-.38.75-.75,1.13-1.12a11.28,11.28,0,0,1,1.2-1.07,20.22,20.22,0,0,1,2.76-1.87c.54-.26,1-.53,1.61-.76l.89-.33.52-.16.28-.08.44-.1Z" fill="#9dc6ea"/><path d="M272.63,27.52c-1.53,4.24-3,8.05-4.46,11.88s-2.86,7.52-4.14,11.29-2.62,7.52-3.82,11.41C259.51,64,259,66,258.27,68S257,72,256,74.13A33.33,33.33,0,0,1,254,61a44.31,44.31,0,0,1,8.69-24.7A29.78,29.78,0,0,1,272.63,27.52Z" fill="#9dc6ea"/><path d="M264.79,36l.44.1.28.08.52.16.89.33c.59.23,1.07.5,1.61.76a20.22,20.22,0,0,1,2.76,1.87,11.28,11.28,0,0,1,1.2,1.07c.38.37.77.74,1.13,1.12a29.1,29.1,0,0,1,1.91,2.43A28.77,28.77,0,0,1,280,54.54l.28,1.36.17,1.35c.11.9.23,1.8.31,2.69s0,1.79.05,2.67a23.4,23.4,0,0,1,0,2.65c-.15,1.75-.3,3.49-.58,5.2s-.7,3.4-1.17,5.06c-.58-1.66-1-3.29-1.49-4.91-.2-.81-.51-1.6-.76-2.39s-.49-1.57-.74-2.35c-.56-1.54-1.1-3.05-1.67-4.52-.33-.72-.63-1.44-.94-2.15l-.46-1.06-.55-1a29,29,0,0,0-4.74-7c-.42-.5-.94-.87-1.36-1.33a15.51,15.51,0,0,0-1.42-1.1c-.23-.16-.46-.35-.7-.49s-.47-.27-.69-.4-.46-.25-.64-.32l-.27-.13-.08,0s0,0,0,0l.14,0Z" fill="#9dc6ea"/><path d="M149.81,120.9c9.24,0,18.13-3.53,24.68-7s10.93-10.82,11.69-19.24L190.69,45H109.31l4.52,49.74c.76,8.37,5.14,15.7,11.59,19.18S140.62,120.9,149.81,120.9Z" fill="#9dc6ea"/><path d="M110.69,60.24c3.13-5.72,6-10.9,8.38-15.24h61.86c2.4,4.33,5.25,9.52,8.38,15.24l-2.79,30.68c-7.9-14.8-16.07-29.78-23.16-42.56V85.17l6.8-2.09c1.34,4.36,4.67,15.28,8.32,27.93a19.55,19.55,0,0,1-4,2.86A66.49,66.49,0,0,1,163,118.74c-1.48-5.17-3-10.39-4.5-15.44v16.63a41.77,41.77,0,0,1-8.69,1,40.83,40.83,0,0,1-8.31-.9V103.3c-1.51,5.08-3,10.33-4.52,15.53a63.78,63.78,0,0,1-11.56-4.91,19,19,0,0,1-3.93-2.83c3.67-12.68,7-23.64,8.35-28l5.69,1.75V50.37c-6.83,12.33-14.57,26.52-22,40.56Z" fill="#15141a"/><path d="M175.92,83.06c-.55,8.42-3.72,15.77-8.38,19.24s-11.06,7-17.68,7-12.86-3.49-17.47-7-7.76-10.81-8.31-19.19l-3.49-53.59C119.83,17.92,124.25,7,131.06,3.91A45,45,0,0,1,149.86,0a45.78,45.78,0,0,1,19,4c6.82,3.1,11.26,14,10.5,25.68Z" fill="#2f2c38"/></svg>